<?xml version="1.0" encoding="utf-8"?>
<!-- Generator: Adobe Illustrator 25.1.0, SVG Export Plug-In . SVG Version: 6.00 Build 0)  -->
<svg version="1.1" id="Layer_1" xmlns="http://www.w3.org/2000/svg" xmlns:xlink="http://www.w3.org/1999/xlink" x="0px" y="0px"
	 viewBox="0 0 920.5 366.9" style="enable-background:new 0 0 920.5 366.9;" xml:space="preserve">
<style type="text/css">
	.st0{fill:#217AF8;}
	.st1{fill:#21B6F9;}
	.st2{fill:#20B6F9;}
	.st3{fill:#3E3A39;}
	.st4{fill:#3A77D1;}
	.st5{fill:#FFFEFF;}
	.st6{fill:none;stroke:#526EAD;stroke-width:0;stroke-linecap:round;stroke-linejoin:round;}
	.st7{fill:#227AF7;}
	.st8{fill:#FFFEFE;}
</style>
<g>
	<path class="st0" d="M319.6,283.8c-8.4-7.1-18.5-11.3-29.5-11.8c-0.1-59.2,0-118.4,0-177.5c9.9-1.4,19.1-5.1,26.7-11.7
		c4.2-3.9,7.9-8.3,10.4-13.5c4.8-9.3,6.9-19.9,4.9-30.3c-1.6-8.9-5.8-17.2-11.8-23.9c-7.7-8-17.6-13.5-28.7-14.8
		c-7.1-0.3-13.9-0.6-20.8,1.8c-10.8,3.4-20.4,10.8-26.2,20.6c-2.7,4.7-4.7,9.7-6.1,14.9c-1.1,7.2-1.3,15.2,1,22.3
		c0.8,2.6,1.5,5.2,2,7.9c-4.4,2.2-8.7,4.7-12.9,7.2c-43.4,25-86.7,50-130.1,75c-3.4,2.1-6.7,4.2-10.3,5.9
		c-5.7-9.1-14.3-15.7-24.2-19.8c-4.8-1.9-10.4-2.5-15.5-2.8c-10.2,0.3-20.8,3.1-29,9.4C2.9,154.5-4.4,177.4,2.7,196.5
		c6.2,18.2,23.7,31,42.8,31.8c14.4,0.7,29-5.5,38.2-16.6c6.1,2.7,11.7,6.6,17.7,10c47.3,27.2,94.6,54.6,141.9,81.8
		c-2.6,8.4-3.7,17.1-1.6,25.7c1,6.1,3.6,11.6,6.9,16.7c10,15.1,29,23.5,46.8,20.4c10.2-1.5,19.6-6.5,26.8-13.7
		c7.9-8.2,12.7-19.4,13.4-30.8c0.5-9.1-2.1-17.6-5.9-25.7C327,291.6,323.6,287.3,319.6,283.8z M67.3,205.6
		c-5.7,4.5-12.5,7.1-19.8,6.8c-8.6,0.4-16.4-3.4-22.5-9.2c-8.5-8.6-11.6-21.9-7.1-33.3c3.1-9.3,11-16.4,20.2-19.3
		c13.8-4.3,29.5,1.3,36.8,13.9C83,177.6,79.7,196.4,67.3,205.6z M261.1,26.3c4.5-4.7,10.4-8.6,16.8-10c14.5-3.6,30.3,4.2,36.2,17.9
		c6.3,13.3,1.8,30.6-10.5,38.8c-5.8,4.2-12,6-19.1,5.6c-13.8,0.5-26.3-9.7-29.9-22.8C251.6,45.6,254.4,34.3,261.1,26.3z
		 M150.6,249.1c0.3,0.2,0.4,0.3,0.4,0.3S150.9,249.3,150.6,249.1z M251.1,289.6c-4.9-2.5-9.6-5.4-14.4-8.1
		c-46.9-27-93.8-54.1-140.8-81.2c-1.1-0.8-2.7-1.5-3.3-2.7c0.4-4.7,2.5-9.1,2.5-13.9c0.5-4.5-0.9-9.1-0.2-13.5
		c2.7-2.1,5.8-3.5,8.7-5.2c48.2-27.8,96.5-55.6,144.7-83.5c0.8-0.5,1.6-0.9,2.3-1.3c3.8,3.1,7.4,6.3,11.7,8.6
		c3.7,2.1,7.8,3.3,11.8,4.6c2.5,1.6,1.3,5.8,1.6,8.3c-0.1,52.3,0,104.7-0.1,157c0,4.9,0.2,10-0.2,14.9l-1.4,0.5
		C265.2,276.9,257,282.4,251.1,289.6z M308.5,343.8c-10.3,9-26.8,9.8-38,2c-12-7.7-17.3-23.7-12.1-37c2.9-9.1,10.8-16.2,19.6-19.4
		c5.2-1.7,11.2-1.6,16.6-1c9.5,1.9,18,8.3,22.1,17.2C323.2,318.2,319.6,335,308.5,343.8z"/>
	<path class="st1" d="M92.8,86.1c7.3-9.3,16.3-17,26-23.8c20.5-14.8,44.6-23.9,69.7-27.1c10.3-0.5,20.7-0.3,31-0.2
		c6.5,0,12.4,1.7,18.9,2.5c1.5-5.2,3.5-10.2,6.1-14.9c-8.2-0.9-16.8-3.3-25.1-3.5c-9-0.2-18-0.2-27,0c-25.7,2-50.8,10.3-72.8,23.7
		c-7.8,5-15.6,10.3-22.6,16.4c-6.1,5.9-12.3,11.8-17.7,18.4c-13.9,16.2-24.5,35.2-31,55.5c5.2,0.4,10.7,0.9,15.5,2.8
		C70.4,117.7,80,100.7,92.8,86.1z"/>
	<path class="st2" d="M352.3,104.8c-5.5-10-12.2-19.5-19.8-28.1c-2-2.4-4.4-4.4-5.4-7.5c-2.5,5.2-6.2,9.7-10.4,13.5
		c7.2,7.5,13.5,15.9,19,24.8c10.7,18.4,18,39.2,20.2,60.4c2.5,20,0.5,40.7-5.2,59.9c-6.3,20.4-16.6,40.2-31.1,56
		c4,3.5,7.4,7.8,10.2,12.2c16.5-17.5,28-38.8,35.4-61.6c4.4-14.1,7.2-29,7.2-43.8c0-7,0.1-14-0.4-21
		C370.2,146.8,363,125.1,352.3,104.8z"/>
	<path class="st3" d="M502.3,230c-2.1-12.6-4.7-25.1-7.1-37.7c-5.4,0-10.8,0-16.2,0c0.8,5,1.9,10,2.7,15c-5.6,0.9-11.1,0.8-16.8,1
		c0-10-0.1-19.9,0.1-29.9c6.3-0.4,15.1,1.4,20.2-3c4.1-3.1,5.1-7.8,5.2-12.6c0-18.3,0-36.7,0-55c0-3.6-0.1-6.9-1.6-10.2
		c-2-3.8-5.8-6.7-10.1-7.2c-4.5-0.5-9.1-0.2-13.6-0.2c-0.1-5.3-0.1-10.6-0.1-15.9c-5.3,0.1-10.7-0.2-16.1,0.1
		c-0.3,5.3,0.1,10.6-0.3,15.9c-6,0.2-14.1-1.1-19.3,2.4c-4.5,2.9-5.9,8.1-5.9,13.2c0,18.7,0,37.3,0,56c0,3.2,0.2,6.6,1.7,9.5
		c1.7,3.4,5.1,5.8,8.8,6.8c4.8,0.7,9.7,0.4,14.5,0.4c0.7,5.5,0.4,10.9,0.4,16.4c0,5.1,0.3,10.1-0.6,15.2c-9.3,0.1-18.6,0.1-27.9,1.3
		c0.1,5,0.1,10.1,0.1,15.2c6.4-0.2,12.8-0.3,19.2-1c6.7-0.2,13.3-0.5,20-1.1c8.5,0,16.8-1.2,25.3-1.2c0.4,2.3,0.9,4.6,1.4,6.9
		C491.5,230,496.9,230,502.3,230z M439.8,163.1c-0.6-13.8-0.1-27.6-0.3-41.3c0-5.5-0.2-10.9,0.3-16.3c2.9,0,5.9-0.1,8.8-0.1
		c0,19.3,0,38.5,0,57.8C445.7,163.1,442.7,163.1,439.8,163.1z M465.1,105.5c3-0.4,6-0.1,9,0.4c0,18.9,0,37.9,0,56.8
		c-3,0.5-6.1,0.5-9.2,0.5c-0.1-17.5,0-35-0.1-52.4C464.8,109,464.8,107.2,465.1,105.5z"/>
	<path class="st3" d="M722.2,181.1c-0.8-1.6-2.2-2.8-0.9-4.5c5.8-9.6,11.2-19.2,15.3-29.6c8.2-21.5,13.2-44.6,13.5-67.7
		c-5.5,0-10.9,0-16.3,0c-0.7,21.2-5,42.2-12.7,62c-3,7.5-6.8,14.3-10.7,21.3c-3.8-6.8-7.6-13.8-10.6-21c-7.7-19.9-12.2-41-12.8-62.3
		c-5.5,0-10.9,0-16.4,0c0.4,23.6,5.6,47.3,14.2,69.2c4.3,10.2,9.7,20.1,15.6,29.4c-7.8,12.6-16.2,24.9-24.2,37.4
		c-3,4.8-6.5,9.3-8.9,14.3c-2.1-12.5-4.5-25-7.1-37.4c-5.1,0.1-10.1,0.1-15.2,0.1c0.9,5.3,2,10.5,2.9,15.7c-2.2,0.1-4.4,0.2-6.6,0.3
		c0.2-10-0.5-20.1,0.4-30c6.2-0.2,14.6,1.4,19.7-2.8c4.2-3.1,5.2-7.9,5.3-12.8c0-18.7,0-37.4,0-56c0-3.5-0.3-6.9-2.1-10
		c-2.2-4-6.7-6.3-11.1-6.5c-4.1-0.2-8.2-0.1-12.3-0.2c0-5.3,0-10.6,0-15.9c-5.4,0.1-10.7-0.2-16.1,0.1c-0.3,5.3,0,10.6-0.2,15.8
		c-5.8,0.2-13.2-1-18.4,1.8c-4.7,2.7-6.9,7.5-7,12.8c-0.1,18.3,0,36.7-0.1,55c0,3.6,0,7.2,1.3,10.6c1.5,3.7,5,6.5,8.8,7.5
		c5,0.8,10.2,0.5,15.3,0.5c0.2,10.2,0,20.5,0.1,30.8c-9.4,1.2-18.7,1.1-28.1,1.4c-0.4,5.3-0.2,10.5-0.3,15.8
		c5.6-0.2,11.2-0.2,16.7-0.8c5.4-0.6,10.8-0.3,16.2-0.8c7.1-0.8,14.3-0.8,21.4-0.9c0.3,1.9,0.7,3.9,1,5.8
		c10.5,0.5,21.1,0.1,31.7,0.2c1.9,0.2,2.5-1.3,3.5-2.6c7.7-11.5,15.5-22.9,23.2-34.4c7.6,11.4,15.3,22.6,22.9,34
		c0.8,0.9,1.6,2.7,2.9,2.9c5.8,0.4,11.7,0,17.6,0.1c-1.7-3.4-3.8-6.5-5.8-9.6C739.3,207.3,730.8,194.1,722.2,181.1z M641.2,105.3
		c3,0,5.9,0,8.9,0.1c0.7,6.7,0.2,13.6,0.3,20.3c-0.2,12.4,0.3,24.9-0.3,37.4c-3,0-6,0-8.9,0C641.2,143.9,641.2,124.6,641.2,105.3z
		 M625,163.1c-3,0-6,0-9-0.1c-0.5-16.1,0-32.2-0.2-48.3c0-3-0.3-6.2,0.5-9.1c2.9-0.4,5.8-0.2,8.7-0.3
		C625.1,124.6,625,143.9,625,163.1z"/>
	<path class="st3" d="M721.1,115.2c-1.9-13.7-3.8-27.4-5.7-41.1c-5.5,0.1-11.1-0.2-16.6,0.1c1.6,13.7,3.8,27.3,5.6,41
		C710,115.2,715.6,115.2,721.1,115.2z"/>
	<path class="st3" d="M576,220.3c0.7-2.5,0.8-5,0.9-7.6c0-19.3,0-38.7,0-58c-0.1-4-0.6-7.8-3.3-11c-1.7-2-3.9-2.9-6.2-4
		c0.4-16.3,1.2-32.6,1.6-49c0.1-4.8-1-9.4-4.8-12.7c-3.1-2.9-6.7-3-10.6-3.6c-20.3-0.2-40.6,0-60.9-0.1c-0.3,5.3-0.2,10.5-0.2,15.8
		c20,0,40,0,60,0c0.2,2.2,0.3,4.3,0.2,6.5c-0.6,14.1-1,28.2-1.6,42.3c-7.5,0-15,0-22.5,0c-5,0-10,0.3-15-0.4c1-13.5,2.6-27,3.9-40.5
		c-5.4,0-10.8,0-16.2,0.1c-1.2,13.5-2.6,27.1-4,40.6c-1,8.2,6,15.7,14.3,15.5c16.2,0.2,32.5,0,48.7,0.1c1,6.6,0.4,13.4,0.5,20
		c-21-0.1-42.1,0-63.1,0c0.9,5.3,2.1,10.5,3.1,15.8c20,0,40.1,0,60.1,0c-0.2,8,0.4,16.1-0.4,24.1c-17.7-0.1-35.4,0-53.1,0
		c1.2,5.4,2,10.7,3.6,15.9c14.9-0.2,29.8,0,44.7-0.1c3.3,0,6.7-0.4,10-0.8C570.3,228.6,574.6,224.9,576,220.3z"/>
	<path class="st3" d="M781,115.2c0.7-3.4,1.3-6.8,2-10.2c10.1,0,20.2,0,30.3,0c0.1-5.2,0.1-10.5,0-15.7c-9.1,0-18.2,0-27.2,0
		c0.9-4.8,1.9-9.5,2.8-14.3c-5.5,0-10.9,0-16.4,0c-2.6,13.4-5.2,26.8-7.7,40.2C770.1,115.2,775.6,115.2,781,115.2z"/>
	<path class="st3" d="M840.3,108c-1.9-11-4.2-22-6.2-33c-5.5,0-10.9,0-16.4,0c2.1,11,4.2,22,6.3,33C829.4,108,834.9,108,840.3,108z"
		/>
	<path class="st3" d="M846.7,190.1c6.3-1,12.4-0.5,18.8-0.6c4.1-0.1,8.1,0.2,12.1,0.6c0,6.3,0,12.7,0,19c5.4,0,10.8,0,16.1,0
		c0-6.5-0.1-13.1,0.2-19.6c7.7-0.2,15.4,0.6,23.1,0.5c0.2-5.2,0.1-10.5,0.1-15.7c-7.8,0-15.6,0-23.4,0c0-6.6-0.1-13.2,0.1-19.9
		c7.8,0.1,15.5,0,23.3,0c0-5.1,0-10.1,0-15.2c-7.8,0-15.6,0-23.4,0c0-8,0-16,0-24c-5.4,0-10.7,0-16.1,0c-0.1,8,0,16,0,24.1
		c-3.6,0-7.3,0-10.9,0c2.2-11.4,4.5-22.8,6.7-34.3c14.6,0,29.1,0,43.7,0c0.1-5.2,0.1-10.5,0-15.7c-13.5,0-27,0-40.6,0
		c0.9-4.8,1.8-9.5,2.8-14.3c-5.5,0-10.9,0-16.4,0c-0.9,4.8-1.9,9.5-2.8,14.3c-4.6,0-9.2,0-13.8,0c0,4.5-0.2,9,0,13.5
		c0,0.8,0.2,1.5,0.7,2c3.3,0.2,6.6,0.1,9.9,0c-3.1,16.5-6.4,33-9.6,49.5c10,0,20,0,30,0c0.6,6.6,0.2,13.2,0.3,19.9
		c-10.5,0-20.9,0-31.3,0C846.3,179.7,845.9,184.8,846.7,190.1z"/>
	<path class="st4" d="M274.2,274.1l1.4-0.5c0.4-4.9,0.2-10,0.2-14.9c0-52.3-0.1-104.7,0.1-157c-0.2-2.5,0.9-6.8-1.6-8.3
		C274.1,153.6,274.3,213.9,274.2,274.1z"/>
	<path class="st5" d="M464.9,163.2c3.1,0,6.1,0,9.2-0.5c0-18.9,0-37.9,0-56.8c-3-0.5-6-0.8-9-0.4c-0.2,1.7-0.2,3.5-0.2,5.3
		C464.9,128.2,464.8,145.7,464.9,163.2z"/>
	<path class="st5" d="M616.2,105.6c-0.8,2.9-0.4,6.1-0.5,9.1c0.2,16.1-0.3,32.3,0.2,48.3c3,0.1,6,0.1,9,0.1c0-19.3,0.1-38.5,0-57.8
		C622.1,105.4,619.1,105.2,616.2,105.6z"/>
	<path class="st5" d="M650.4,125.7c-0.1-6.8,0.3-13.6-0.3-20.3c-2.9-0.1-5.9-0.1-8.9-0.1c0,19.3,0,38.5,0,57.8c3,0,6,0,8.9,0
		C650.8,150.7,650.3,138.2,650.4,125.7z"/>
	<path class="st3" d="M797,175.5c5.2,0,10.4,0,15.6,0c0-5.1,0-10.1-0.1-15.2c-5.2,0-10.4,0-15.6,0c0-8.3,0-16.7,0-25
		c4.9,0,9.8,0,14.7,0c0-5.1,0-10.1,0-15.2c-13.9,0.1-27.9-0.2-41.8,0.1c-0.3,5,0,10.1-0.1,15.1c3.7,0,7.4,0,11,0c0,8.3,0,16.6,0,25
		c-3.7,0-7.3,0-11,0c-0.1,5.1-0.1,10.1,0,15.2c3.5,0,7,0,10.6-0.1c0.3,2.1,0.5,4.2,0.5,6.4c-0.1,11,0,22-0.1,33
		c-0.4,7,5.5,14.3,12.7,14.5c6.7,0.3,13.4,0,20.1,0.1c0-5.1,0-10.1,0-15.2c-5.5,0-11,0-16.5-0.1C796.8,201.3,796.9,188.4,797,175.5z
		"/>
	<path class="st3" d="M841.1,214.1c-0.3-31.3,0-62.7-0.1-94c-8,0.1-16-0.2-24,0.1c-0.3,5,0,10.1-0.1,15.1c2.7,0,5.3,0,7.9,0
		c0.1,26.8,0,53.7,0,80.4c0,5.2,3.4,10.2,8.1,12.4c2.4,1.2,4.9,1.1,7.5,1.2c26.7,0,53.4,0,80.1,0c0-5.1,0-10.1,0-15.2
		C894.1,214.2,867.6,214.3,841.1,214.1z"/>
	<path class="st6" d="M150.6,249.1c0.3,0.2,0.4,0.3,0.4,0.3"/>
	<path class="st7" d="M116.8,293.1c3.9-4.1,5-10.2,2.8-15.4c-1.2-3.5-3.8-5.3-6.5-7.5c1-3.9,1.8-7.9,2.8-11.8
		c-0.4-0.8-0.9-1.5-1.3-2.2c-1.1,0-2.2,0.1-3.3,0.2c-1.3,4.2-2.1,8.5-3.2,12.7c-2.1,0.1-4.1,0.1-6.2,0.2c-2-3.6-3.7-7.6-6-11
		c-1.2-1.8-2.6-0.2-4.2,0c0.9,4.8,3.8,8.7,5.7,13.3c-2.5,3.5-5,6.6-5.2,11.1c-0.2,3.7,1.6,6.7,3.2,9.9c-1.8,2.1-3.2,4.2-4.5,6.6
		c-4.9-2.9-9.8-2.3-15.3-2.3c-6.9,0-14,2.9-18.9,7.9c-3.3,3.6-4.8,9-1.2,13c5.9,6.9,17.3,7.4,25.5,5.4c0.9,3.3,1.7,6.7,2.5,10.1
		c1.2,0,2.4,0.1,3.6,0c1.4-1.5,0.7-2.8,0.5-4.5c-0.4-2.4-1-4.7-1.5-7c2.7-1.5,5.9-3.1,8.1-5.5c1.6-1.7,2.5-4.2,3.4-6.3
		c1.9,0.1,3.9,0,5.8,0.3c4.8,2.4,8.6,8.2,14.1,8.2c-0.1-1.4,0.1-2.9-0.3-4.2c-2.6-2.8-6.9-4.4-9.1-7.5c0.8-3.1,1.5-6,1.4-9.3
		C112.1,296.4,114.7,295.4,116.8,293.1z"/>
	<path class="st3" d="M439.1,262.5c-6.9,18.2-13.4,36.6-20.1,54.9c3.7,0,7.4,0,11.1,0c1-3.1,2.1-6.3,3.2-9.4c6.6,0,13.1,0,19.7,0
		c1,3.1,2.1,6.3,3.1,9.4c3.7,0,7.4,0,11.2,0c-6.8-18.3-13.2-36.8-20.2-55C444.4,262.5,441.7,262.5,439.1,262.5z M436.5,299.1
		c2.1-6.9,4.6-13.6,6.9-20.4c2.2,6.8,4.6,13.5,6.7,20.3C445.5,299.1,441,299.1,436.5,299.1z"/>
	<path class="st3" d="M534.8,264.6c0.1-0.9-0.2-1.5-1-2c-3.1-0.3-6.2-0.2-9.3-0.2c-1,11.3-0.1,22.8-0.5,34.1
		c-7.3-11.4-14.5-22.9-22.1-34c-3,0.1-6,0.1-9.1,0c-0.3,18.3-0.1,36.6-0.1,55c3.6,0,7.1,0,10.7,0c0-11.2-0.1-22.4,0.1-33.6
		c7,11.3,14.5,22.3,21.5,33.6c3.2,0,6.5,0,9.7-0.1C534.7,299.8,534.9,282.1,534.8,264.6z"/>
	<path class="st3" d="M562.2,262.5c-0.1,3.2-0.1,6.4-0.1,9.7c4.8,0,9.6,0,14.3,0c0,15.1,0,30.2,0,45.2c3.6,0,7.1,0,10.7,0
		c0-15.1,0-30.2,0-45.2c4.8,0,9.6,0,14.4,0c0-3.2-0.1-6.5-0.3-9.7C588.3,262.5,575.2,262.4,562.2,262.5z"/>
	<path class="st3" d="M655.3,301c-1.6,3.1-2.7,5.9-6.2,7.1c-3.1,0.5-6.9,0.8-9.3-1.5c-2.4-2-3.1-4.8-3.3-7.8
		c-0.4-6-0.5-12.1,0.1-18.1c0.3-3.6,1.9-7.1,5.5-8.4c2.4-0.5,5.4-0.6,7.8,0.1c2.9,1.4,4.1,4.2,5.5,7c3.6,0,7.2,0,10.8,0
		c-1.4-5.9-4.4-11.2-9.6-14.4c-8.4-4.4-19.5-3.5-26,3.8c-5.4,5.3-4.7,14-5,21c0.3,6.8-0.4,16.1,4.7,21.4c6.6,7.7,18.3,8.7,26.9,3.8
		c4.9-3.3,7.7-8.3,9.2-13.9C662.5,301,658.9,301,655.3,301z"/>
	<path class="st3" d="M733.3,262.4c-2.9,0.4-7.8-0.8-10.1,1c-0.3,7.3,0,14.5-0.1,21.8c-6.2,0-12.4,0-18.6,0
		c-0.1-7.6,0.2-15.2-0.2-22.7c-3.5,0-6.9,0-10.4,0c-0.3,18.3,0,36.6-0.1,55c3.6,0,7.1,0,10.7,0c0.1-7.7-0.1-15.4,0.2-23
		c6.1,0,12.3,0,18.4,0c0.2,7.7,0.1,15.3,0.1,23c3.5,0,7.1,0,10.6,0.1c0.2-15.9,0-31.8,0.1-47.7C733.9,267.3,733.7,264.8,733.3,262.4
		z"/>
	<path class="st3" d="M787.2,262.4c-2.7,0.1-5.3,0.1-8,0.1c-6.7,18.3-13.4,36.6-20,54.9c3.7,0,7.4,0,11.1,0c1-3.1,2.1-6.2,3.2-9.4
		c6.6,0,13.1,0,19.7,0c1,3.1,2.1,6.3,3.1,9.4c3.7,0,7.4,0,11.1,0c-5-13.6-9.9-27.2-14.9-40.8C790.8,271.8,789.3,267,787.2,262.4z
		 M776.7,299c2.2-6.8,4.6-13.5,6.9-20.3c2.2,6.8,4.6,13.5,6.7,20.3C785.8,299.1,781.2,299.1,776.7,299z"/>
	<path class="st3" d="M833.1,262.5c-0.2,18.3,0,36.6-0.1,54.9c3.6,0,7.1,0,10.7,0c0-14.2,0-28.5,0-42.7c0.1-4.1,0.1-8.2-0.4-12.4
		C839.9,262.5,836.5,262.5,833.1,262.5z"/>
	<path class="st3" d="M917,262.4c-3.5,0-6.9,0-10.3,0c-0.6,11.3-0.1,22.7-0.3,34c-6.4-10.4-13.3-20.5-19.8-30.8
		c-0.8-1-1.5-2.7-2.7-3c-2.9-0.3-5.8-0.1-8.7-0.1c-0.2,18.3,0,36.6-0.1,54.9c3.6,0,7.2,0,10.7,0c0-11.2-0.1-22.4,0-33.6
		c7.1,11.3,14.5,22.4,21.7,33.7c3.2,0,6.4,0,9.6,0C917.1,299.1,917.3,280.8,917,262.4z"/>
	<path class="st5" d="M436.5,299.1c4.5,0,9.1,0,13.6,0c-2.1-6.8-4.5-13.5-6.7-20.3C441.1,285.5,438.6,292.2,436.5,299.1z"/>
	<path class="st8" d="M776.7,299c4.5,0,9.1,0,13.6,0c-2.1-6.8-4.5-13.5-6.7-20.3C781.3,285.5,778.8,292.2,776.7,299z"/>
	<path class="st1" d="M241.1,331.9c-6.3,0.5-12.4,2-18.7,2.6c-6,0.9-11.9,0.8-17.9,0.8c-14.9,0.3-30-2.7-44.2-7
		c-4.2-1.2-8.1-3.6-12.3-0.9c-4.3,2.5-4.8,8.7-1.2,12.1c2.3,1.9,5.5,2.9,8.3,3.8c17.1,5,34.5,8.2,52.4,7.9c14,0.2,27.5-2.4,41.2-5.2
		c-3.3-5.2-5.9-10.6-6.9-16.7C241.5,330.1,241.3,331,241.1,331.9z"/>
</g>
</svg>
