<?xml version="1.0" encoding="utf-8"?>
<!-- Generator: Adobe Illustrator 23.1.1, SVG Export Plug-In . SVG Version: 6.00 Build 0)  -->
<svg version="1.1" id="图层_1" xmlns="http://www.w3.org/2000/svg" xmlns:xlink="http://www.w3.org/1999/xlink" x="0px" y="0px"
	 viewBox="0 0 400 245" style="enable-background:new 0 0 400 245;" xml:space="preserve">
<style type="text/css">
	.st0{fill:#3F3B3A;}
	.st1{fill:url(#SVGID_1_);}
	.st2{fill:url(#SVGID_2_);}
	.st3{fill:url(#SVGID_3_);}
	.st4{fill:url(#SVGID_4_);}
	.st5{fill:#008CD6;}
	.st6{fill:#FFFFFF;}
	.st7{fill:url(#SVGID_5_);}
	.st8{opacity:0.2;}
	.st9{fill:url(#SVGID_6_);}
</style>
<g>
	<g>
		<path class="st0" d="M81.89,183.24c0,0,21.14,17.56,33.49,27.61c0,0,1.29,1.01,2.15,0c0,0,10.91-10.48,13.21-10.05
			c0,0,0.67-0.09-0.29,1.87c0,0-2.25,4.69-10.48,13.78c0,0-2.63,2.87-5.59,0.29c0,0-34.2-28.76-35.64-29.91c0,0-1.91-1.72-0.38-3.64
			C78.36,183.19,79.8,181.66,81.89,183.24z"/>
		<path class="st0" d="M52.76,183.24c0,0-21.14,17.56-33.49,27.61c0,0-1.29,1.01-2.15,0c0,0-10.91-10.48-13.21-10.05
			c0,0-0.67-0.09,0.28,1.87c0,0,2.25,4.69,10.48,13.78c0,0,2.63,2.87,5.6,0.29c0,0,34.19-28.76,35.63-29.91c0,0,1.91-1.72,0.38-3.64
			C56.29,183.19,54.86,181.66,52.76,183.24z"/>
		<path class="st0" d="M77.43,150.02c0,0,2.39-2.42,21.21-11.46c0,0,0.95-0.51,1.54,0.39c0,0,5.86,6.65,12.73,6.31
			c0,0,1.16-0.07,1.68-1.37c0.91-2.29-5.36-4.98-5.36-4.98c-2.94-1.3-2.56-4.11-2.56-4.11c0.19-1.81-1.06-2.8-1.06-2.8
			c-2.22-1.77-9.63,2.96-9.63,2.96c-11.19,5.97-20.35,11.31-20.35,11.31s-2.53,1.18-1.49,3.18
			C74.12,149.45,74.91,151.25,77.43,150.02z"/>
		<path class="st0" d="M57.65,150.81c0,0-2.54-2.27-21.9-10.09c0,0-0.98-0.46-1.51,0.48c0,0-5.43,7.01-12.3,7.1
			c0,0-1.16,0-1.77-1.26c-1.05-2.22,5.04-5.31,5.04-5.31c2.86-1.48,2.29-4.27,2.29-4.27c-0.3-1.79,0.88-2.86,0.88-2.86
			c2.1-1.91,9.8,2.34,9.8,2.34c11.55,5.25,21.03,10,21.03,10s2.6,1.02,1.7,3.08C60.92,150.03,60.24,151.88,57.65,150.81z"/>
		<linearGradient id="SVGID_1_" gradientUnits="userSpaceOnUse" x1="66.9336" y1="135.5757" x2="66.9336" y2="204.8397">
			<stop  offset="0" style="stop-color:#0097E0"/>
			<stop  offset="0.2519" style="stop-color:#00AAEB"/>
			<stop  offset="1" style="stop-color:#00B9EF"/>
		</linearGradient>
		<path class="st1" d="M85.74,180.09c0,14.3-8.42,25.89-18.81,25.89c-10.39,0-18.81-11.59-18.81-25.89
			c0-14.3,8.42-25.89,18.81-25.89C77.32,154.19,85.74,165.79,85.74,180.09z"/>
		<linearGradient id="SVGID_2_" gradientUnits="userSpaceOnUse" x1="67.1724" y1="135.5755" x2="67.1724" y2="204.8396">
			<stop  offset="0" style="stop-color:#0097E0"/>
			<stop  offset="0.2519" style="stop-color:#00AAEB"/>
			<stop  offset="1" style="stop-color:#00B9EF"/>
		</linearGradient>
		<path class="st2" d="M78.37,144.96c0,7.11-5.01,12.88-11.2,12.88c-6.18,0-11.2-5.76-11.2-12.88c0-7.11,5.01-12.87,11.2-12.87
			C73.36,132.09,78.37,137.85,78.37,144.96z"/>
		<path class="st0" d="M41.19,85.27c0,0-6.36-23.81,11.54-47.87l1.46,2.28c0,0-12.34,15.46-9.08,41.71L41.19,85.27z"/>
		<path class="st0" d="M65.16,28.87c2.16,2.53,1.1,6.98-2.36,9.94c-3.47,2.96-8.03,3.32-10.19,0.78c-2.16-2.53-1.11-6.98,2.36-9.94
			C58.44,26.69,63,26.34,65.16,28.87z"/>
		<path class="st0" d="M78.67,78.5c0,0,9.14-22.88,37.87-31.47l-0.2,2.7c0,0-19.13,5.01-32.22,28.01L78.67,78.5z"/>
		<path class="st0" d="M132.07,47.4c0.22,3.32-3.29,6.26-7.84,6.56c-4.55,0.3-8.42-2.15-8.64-5.47c-0.22-3.32,3.29-6.25,7.84-6.56
			C127.98,41.64,131.85,44.09,132.07,47.4z"/>
		
			<linearGradient id="SVGID_3_" gradientUnits="userSpaceOnUse" x1="53.3387" y1="174.7524" x2="53.3387" y2="105.1428" gradientTransform="matrix(0.9998 0.0187 -0.0187 0.9998 14.7771 -43.8041)">
			<stop  offset="0" style="stop-color:#00A1E9"/>
			<stop  offset="0.6833" style="stop-color:#00AFEC"/>
			<stop  offset="1" style="stop-color:#00B9EF"/>
		</linearGradient>
		<path class="st3" d="M24.54,98.97c1.25-28.77,25.82-22.49,36.55-38.9c8.8,14.85,41.9,1.27,45.09,38.58
			c1.76,20.5-13.32,34.39-39.97,35.84C42.72,135.76,23.38,125.79,24.54,98.97z"/>
		<linearGradient id="SVGID_4_" gradientUnits="userSpaceOnUse" x1="63.2384" y1="133.3798" x2="63.2384" y2="107.4693">
			<stop  offset="0" style="stop-color:#00A1E9"/>
			<stop  offset="0.2031" style="stop-color:#00A4EA"/>
			<stop  offset="0.5944" style="stop-color:#00B1ED"/>
			<stop  offset="1" style="stop-color:#55C3F1"/>
		</linearGradient>
		<path class="st4" d="M90.41,109.6c-1.25,0.84-27.64,22.93-65.64-3.31c0.14,1.24,0.34,2.44,0.58,3.59c0.05,0.25,0.11,0.5,0.16,0.76
			c4.21,18.07,20.99,24.92,40.7,23.85c16.3-0.88,28.24-6.45,34.68-15.31C103.99,113.33,97.76,104.68,90.41,109.6z"/>
		<g>
			<path class="st5" d="M64.57,109.02c-30.23,1.98-29.24-16.08-29.24-16.08c0.5-16.88,27.18-17.35,27.18-17.35
				s31.12-2.09,31.36,15.94C93.86,91.53,94.95,107.47,64.57,109.02z"/>
			<path class="st6" d="M64.54,110.18c-30.86,1.46-29.19-16.06-29.19-16.06C35.86,77.28,62.48,77.2,62.48,77.2
				s31.06-2.48,31.3,15.52C93.78,92.72,95.18,108.77,64.54,110.18z"/>
		</g>
		
			<linearGradient id="SVGID_5_" gradientUnits="userSpaceOnUse" x1="30.4242" y1="159.3244" x2="73.5695" y2="159.3244" gradientTransform="matrix(0.9998 0.0187 -0.0187 0.9998 14.7771 -43.8041)">
			<stop  offset="0" style="stop-color:#FFFFFF;stop-opacity:0.95"/>
			<stop  offset="1" style="stop-color:#FFFFFF;stop-opacity:0"/>
		</linearGradient>
		<path class="st7" d="M84.89,115.14c-15.77,11.01-37.52,5.13-40.54,3.31c-3.01-1.82-1.43-4.66,1.17-3.89c0,0,19.45,6.25,39.14-2.94
			"/>
		<g>
			<path class="st0" d="M64.62,87.77c-4.75,0.39-8.28,4.55-7.89,9.3c0,0,0.02,0.79,1.16,0.7c1.13-0.09,7.3-1.6,15.22-1.24
				c0.86-0.06,0.8-0.86,0.8-0.86C73.53,90.92,69.36,87.39,64.62,87.77z"/>
		</g>
		<g class="st8">
			
				<radialGradient id="SVGID_6_" cx="53.3633" cy="130.353" r="8.3634" gradientTransform="matrix(0.9998 0.0187 -0.0187 0.9998 14.7771 -43.8041)" gradientUnits="userSpaceOnUse">
				<stop  offset="0" style="stop-color:#BAE3F9"/>
				<stop  offset="1" style="stop-color:#1C95D4;stop-opacity:0"/>
			</radialGradient>
			<path class="st9" d="M64.71,88.23c-3.77,0.31-6.57,3.61-6.26,7.38c0,0,0.02,0.63,0.92,0.56c0.9-0.07,5.79-1.27,12.08-0.99
				c0.68-0.05,0.64-0.68,0.64-0.68C71.78,90.73,68.47,87.93,64.71,88.23z"/>
		</g>
	</g>
	<g>
		<path class="st0" d="M198.26,149.47c0,0.94-0.42,1.41-1.26,1.41h-18.73l1.26,4.82h17.94c2.02,0,3.4-0.45,4.36-1.43
			c1.02-1.03,1.42-2.21,1.42-4.19v-21.91c0-1.94-0.47-3.27-1.49-4.19c-0.64-0.6-1.37-0.95-2.29-1.16v-20.98
			c0-1.94-0.47-3.27-1.48-4.2c-1.08-0.98-2.3-1.36-4.37-1.36h-22.1v4.82h21.47c0.97,0,1.46,0.39,1.46,1.2v20.31h-14.54
			c-0.97,0-1.56-0.35-1.46-1.2l1.48-16h-5.01l-1.5,16.45c-0.18,1.91,0.48,3.26,1.49,4.19c1.08,0.99,2.29,1.37,4.36,1.37h17.48
			c0.97,0,1.47,0.41,1.47,1.21v6.71h-28.19v4.82h28.2V149.47z M168.04,152.55c0.26,1.19,0.53,2.29,0.82,3.15h5.17
			c-1.18-3.5-2.21-10.67-2.56-13.27h-5.11c0.15,1.13,0.43,3.16,0.78,5.36c-1.72,0.62-4.84,0.94-7.7,1.08v-13.16h4.09
			c2.07,0,3.29-0.38,4.37-1.37c1.01-0.93,1.47-2.26,1.47-4.2v-22.31c0-1.93-0.47-3.26-1.47-4.2c-1.08-0.98-2.3-1.37-4.37-1.37h-4.09
			v-6.2h-5.02v6.2h-4.09c-2.06,0-3.29,0.38-4.37,1.37c-1.01,0.93-1.48,2.26-1.48,4.2v22.31c0,1.94,0.47,3.27,1.48,4.2
			c1.08,0.98,2.3,1.37,4.37,1.37h4.09V149h-11.11v4.83h11.26C158.14,153.83,165.2,153.83,168.04,152.55z M159.46,107.09h3.46
			c0.98,0,1.46,0.41,1.46,1.21v21.39c0,0.8-0.49,1.22-1.46,1.22h-3.46V107.09z M154.44,130.91h-3.45c-0.98,0-1.47-0.42-1.47-1.22
			V108.3c0-0.8,0.49-1.21,1.47-1.21h3.45V130.91z M291.28,102.84c0.84-1.29,1.62-1.62,4.06-1.62h16c2.43,0,3.21,0.34,4.06,1.62
			c2.38,3.63,7.44,11.64,9.69,14.93h6.9c-2.41-3.56-8.73-13.56-11.15-17.08c-1.99-2.9-4.42-4.28-7.85-4.28h-1.28
			c0.01-0.16-0.01-0.32-0.08-0.47l-1.13-2.54c3.54-1.22,5.81-4.02,5.14-6.5c-0.72-2.67-4.51-3.95-8.47-2.88
			c-2.93,0.79-5.13,2.65-5.8,4.63c-0.53-1.01-1.56-1.71-2.78-1.74c0.15-0.48,0.24-0.98,0.23-1.51c-0.04-2.41-1.78-4.37-4.05-4.8
			l-0.09-3.97c-0.01-0.59-0.5-1.06-1.09-1.05h-0.05c-0.59,0.01-1.06,0.5-1.05,1.1l0.09,4.01c-0.63,0.16-1.19,0.44-1.69,0.81
			l-2.55-2.89c-0.21-0.25-0.52-0.38-0.82-0.37c-0.26,0.01-0.5,0.1-0.7,0.26l-0.03,0.03c-0.21,0.19-0.34,0.45-0.36,0.74
			c-0.01,0.28,0.07,0.56,0.26,0.78l2.77,3.13c-0.37,0.72-0.61,1.53-0.59,2.41c0.06,2.75,2.33,4.93,5.08,4.87
			c0.45-0.01,0.87-0.09,1.28-0.21c0.02,0.9,0.41,1.7,1.02,2.28l-1.84,3.55c-0.05,0.1-0.07,0.21-0.09,0.32h-0.6
			c-3.43,0-5.86,1.38-7.85,4.28c-2.43,3.52-8.75,13.52-11.16,17.08h6.9C283.83,114.47,288.89,106.46,291.28,102.84z M308.3,93.9
			l1.12,2.5h-2.73l-0.31-2.43C306.99,94.01,307.65,93.99,308.3,93.9z M302.3,92.43c0.48,0.46,1.1,0.82,1.81,1.08l0.37,2.9h-2.58
			L302.3,92.43z M298.24,93.39c0.1,0.02,0.2,0.03,0.3,0.03c0.55-0.02,1.05-0.17,1.5-0.42l-0.35,3.39h-3L298.24,93.39z
			 M250.74,138.51c-4.87,7.4-11.4,17.19-11.4,17.19h6.76c0,0,3.94-5.77,8.14-11.99c4.18,6.22,8.13,11.99,8.13,11.99h6.75
			c0,0-6.52-9.79-11.39-17.19c0.37-0.58,0.76-1.15,1.13-1.7c4.24-6.41,7.88-8.92,10.76-38.44h-5.32
			c-2.79,23.88-4.61,26.32-9.02,33.24c-0.27,0.43-0.63,0.98-1.02,1.59c-0.4-0.61-0.76-1.16-1.03-1.59
			c-4.42-6.92-6.24-9.36-9.03-33.24h-5.32c2.89,29.52,6.52,32.03,10.76,38.44C249.98,137.37,250.36,137.93,250.74,138.51z
			 M344.04,142.77v-6.57h11.71v13.27c0,0.94-0.42,1.41-1.26,1.41h-6.23v4.82h6.71c2.01,0,3.4-0.45,4.36-1.43
			c1.02-1.03,1.41-2.21,1.41-4.19v-48.43c0-1.94-0.48-3.28-1.48-4.2c-1.07-0.98-2.3-1.37-4.36-1.37h-10.03
			c-2.07,0-3.29,0.39-4.37,1.37c-1.01,0.93-1.48,2.26-1.48,4.2v41.12c0,9.46-1.7,12.58-1.89,12.93h4.81
			C342.15,155.7,344.04,154.59,344.04,142.77z M344.04,102.11c0-0.81,0.49-1.22,1.46-1.22h8.76c0.97,0,1.48,0.41,1.48,1.22v10.62
			h-11.71V102.11z M344.04,117.48h11.71v13.98h-11.71V117.48z M332.18,150.89h-11.96c0.28-0.72,0.54-1.61,0.69-2.71
			c0.22-1.62,0.84-7.16,1.01-8.77h-5.01c-0.17,1.59-0.8,7.03-1,8.77c-0.13,1.13-0.4,2.01-0.69,2.71h-9.28v-17.64h21.34v-4.81h-21.34
			v-10.67h13.35v-4.83h-31.89v4.83h13.35v10.67h-21.35v4.81h21.35v17.64h-9.28c-0.31-0.7-0.57-1.59-0.7-2.71
			c-0.2-1.74-0.83-7.18-1-8.77h-5.02c0.17,1.62,0.78,7.15,1.01,8.77c0.15,1.1,0.41,2,0.69,2.71h-11.96v4.82h57.7V150.89z
			 M258.14,112.98l-3.07-16.89h-5.22l3.08,16.89H258.14z M339.82,181.36c-1.21,0.08-2.57,0.17-3.95,0.17c-3.3,0-5.19-0.51-5.77-1.57
			c-0.69-1.3-1.07-3.2-1.07-5.36c0-1.94,0.34-3.81,0.92-5.16c0.67-1.41,2.55-2.09,5.8-2.09c1.25,0,2.67,0.07,4.24,0.2l1.13,0.12
			l-0.01-3.4l-0.77-0.07c-1.73-0.13-3.19-0.19-4.58-0.19c-3.25,0-7.77,0.42-9.41,4.17c-0.79,1.69-1.22,3.96-1.22,6.42
			c0,2.35,0.59,5.02,1.49,6.78c1.27,2.4,4.22,3.51,9.28,3.51c1.33,0,2.75-0.08,4.01-0.16l1.23-0.06l-0.01-3.39L339.82,181.36z
			 M284.44,163.67l-9.46,20.92h4.17l2.85-6.23h7.85l2.76,6.23h4.14l-9.29-20.92H284.44z M283.54,174.99l0.07-0.15
			c0.77-1.68,1.53-3.35,2.25-4.94l0.1-0.22l2.39,5.31H283.54z M315.54,164.53c0,2.66,0,5.34-0.01,8.01l-0.01,1.19
			c0,1.41,0,2.82,0,4.23v0.32l-11.19-14.58h-3.2v20.9h3.92v-0.73c0-2.58-0.01-5.17-0.02-7.78c0-1.72-0.01-3.43-0.01-5.16v-0.31
			l10.81,13.97h3.61v-20.81h-3.89V164.53z M346.62,184.58h3.89v-20.54h-3.89V184.58z M386.5,143.02c5.99-8.91,8.33-14.84,8.84-16.62
			c0.74-2.57-0.59-5.77-4.23-5.77h-21.98v-18.51c0-0.81,0.49-1.22,1.47-1.22h16.98c0.98,0,1.48,0.41,1.48,1.22v7.75
			c0,0.93-0.42,1.41-1.27,1.41h-10.63v4.82h11.11c2.02,0,3.4-0.45,4.36-1.42c1.02-1.03,1.41-2.21,1.41-4.2v-8.82
			c0-1.94-0.47-3.28-1.48-4.2c-1.07-0.98-2.3-1.37-4.37-1.37h-18.24c-2.06,0-3.29,0.39-4.37,1.37c-0.99,0.9-1.45,2.21-1.47,4.08
			c-0.01,0.01-0.01,0.03-0.01,0.04v54.13h5.02v-30.6h19.59c0.66,0,1.08,0.62,0.83,1.41c-1.05,3.33-3.4,7.6-6.13,11.87
			c-2.26-3.56-4.31-7.22-5.7-10.52h-5.71c1.24,2.93,3.88,8.79,8.16,15.38c-3.89,5.58-7.82,10.51-9.49,12.45h6.24
			c2.38-2.84,4.47-5.52,6.3-8.02c1.97,2.68,4.19,5.4,6.68,8.02h6.41C394.88,154.17,390.7,149.07,386.5,143.02z M152.79,163.67
			l-9.46,20.92h4.16l2.85-6.23h7.86l2.76,6.23h4.14l-9.29-20.92H152.79z M151.9,174.99l0.07-0.15c0.83-1.84,1.54-3.38,2.24-4.95
			l0.1-0.22l2.39,5.31H151.9z M364.26,163.67l-9.46,20.92h4.16l2.85-6.23h7.86l2.77,6.23h4.13l-9.28-20.92H364.26z M363.35,174.99
			l0.07-0.15c0.75-1.65,1.5-3.3,2.24-4.95l0.1-0.22l2.38,5.31H363.35z M384.46,179.72v-15.96h-3.89v15.96
			c0,5.13,4.79,5.13,6.37,5.13h7.99v-3.36h-7.99C384.85,181.49,384.46,180.87,384.46,179.72z M266.72,164.53
			c0,1.09-0.01,2.19-0.01,3.29l-0.03,10.46l-11.18-14.58h-3.2v20.9h3.92v-0.73c0-2.26,0-4.52-0.01-6.8l-0.01-2.26
			c0-1.3-0.01-2.59-0.01-3.88v-0.31L267,184.58h3.6v-20.81h-3.88V164.53z M193.09,167.57h6.98v17.05h3.88v-17.05h7.14v-3.35h-17.99
			V167.57z M183.92,164.53c0,2.34-0.01,4.88-0.03,7.96c0,1.79-0.01,3.57-0.01,5.37v0.31l-11.18-14.48h-3.2v20.9h3.93l-0.03-11.47
			c0-0.73-0.01-1.46-0.01-2.19v-0.31l0.2,0.25l10.63,13.73h3.6v-20.81h-3.88V164.53z M226.02,170.06c-0.01-0.94,0.27-1.69,0.81-2.18
			c0.49-0.44,1.19-0.66,2.04-0.66h7.98v-3.35h-7.98c-2,0-3.69,0.56-4.89,1.63c-1.23,1.11-1.87,2.68-1.84,4.56v14.53h3.87v-8.71
			h11.05v-3.35h-11.05V170.06z M242.45,184.59h3.89v-20.56h-3.89V184.59z M236.2,142.43h-5.1c0.16,1.23,0.47,3.52,0.88,5.94
			c-1.6,0.25-3.48,0.41-5.27,0.5v-13.16h4.1c2.06,0,3.29-0.38,4.37-1.37c1.01-0.93,1.48-2.26,1.48-4.2v-22.31
			c0-1.93-0.47-3.26-1.48-4.2c-1.08-0.98-2.3-1.37-4.37-1.37h-4.1v-6.2h-5.01v6.2h-4.09c-2.06,0-3.29,0.38-4.37,1.37
			c-1,0.93-1.48,2.26-1.48,4.2v22.31c0,1.94,0.48,3.27,1.48,4.2c1.08,0.98,2.3,1.37,4.37,1.37h4.09V149h-11.11v4.83h11.26
			c2.77,0,7.69,0,11.07-0.61c0.21,0.93,0.44,1.79,0.67,2.49h5.17C237.58,152.21,236.55,145.03,236.2,142.43z M226.71,107.09h3.46
			c0.97,0,1.46,0.41,1.46,1.21v21.39c0,0.8-0.49,1.22-1.46,1.22h-3.46V107.09z M221.7,130.91h-3.46c-0.97,0-1.47-0.42-1.47-1.22
			V108.3c0-0.8,0.49-1.21,1.47-1.21h3.46V130.91z"/>
	</g>
</g>
</svg>
