<?xml version="1.0" encoding="utf-8"?>
<!-- Generator: Adobe Illustrator 24.2.1, SVG Export Plug-In . SVG Version: 6.00 Build 0)  -->
<svg version="1.1" id="Layer_1" xmlns="http://www.w3.org/2000/svg" xmlns:xlink="http://www.w3.org/1999/xlink" x="0px" y="0px"
	 viewBox="0 0 400 245" style="enable-background:new 0 0 400 245;" xml:space="preserve">
<g transform="translate(0.000000,1551.000000) scale(0.100000,-0.100000)">
	<path d="M678.3,14869.8v-42.3l13.6-1c147.4-10.4,283.4-79.7,378.5-193c106.5-127,149.1-294.5,116.1-457.3
		c-32.7-161.3-139.4-301.2-286.6-375.6c-43.9-22.2-84.7-36.7-132.2-47c-22.2-4.8-56.7-9.5-76.4-10.5c-5.1-0.3-10.1-0.6-11.1-0.9
		l-1.9-0.3v-42.1v-42.1h2.7c5.7,0,28,1.8,42.1,3.3c132.3,14.4,255.2,69.9,354.2,160.1c109.3,99.5,180.9,237,199.3,382.5
		c5.7,45.6,6.6,100.9,2,144.8c-11.8,114.8-53.7,221.8-122.8,313.6c-19.2,25.6-34.8,43.3-57.9,66.5
		c-57.7,57.6-123.6,102.2-197.7,133.8c-64.1,27.3-139,45.1-204.2,48.5c-5.1,0.2-11.2,0.6-13.5,0.9l-4.3,0.4V14869.8z"/>
	<path d="M586.1,14908.8c-174-19.6-329.3-108.2-434.3-247.8c-67.5-89.8-110.4-199.4-121.6-310.6c-4.4-43.1-4.4-88.5,0-131.4
		c13.2-130.1,68.3-254.3,156.2-352.6c12.3-13.7,38.7-40,52-51.8c83.1-73.5,184.7-123.9,293.6-145.5c19.1-3.8,54.5-9,61.2-9h1.9v42.4
		v42.4l-7.8,0.9c-154.4,18.8-295.7,105.7-383.5,236.2c-47.5,70.6-77.8,151.3-88.2,235c-3.2,25.9-3.7,35.1-3.7,67.9
		c0,38.4,1.6,58.4,7.3,92c23,134.9,97.3,256.9,207.4,340.6c72.9,55.4,162.3,92.8,250.7,104.8c6.9,0.9,13.7,1.9,15.2,2.1l2.6,0.4
		v42.4c0,40-0.1,42.5-1.4,42.4C592.8,14909.6,589.4,14909.2,586.1,14908.8z"/>
	<path d="M678.3,14700.8v-42.4l9.9-1.4c61.5-8.6,120.2-32.4,170.8-69.6c29.4-21.6,58.3-50.5,80.2-80.3
		c39.3-53.3,63.6-115.8,71-182.3c2.8-25.3,2.4-61.5-0.9-87.7c-21-164.1-147.4-295.6-310.7-323c-8.2-1.4-16.1-2.5-17.6-2.5h-2.7
		v-42.7v-42.7l6.3,0.6c127.1,13,243.6,79.2,320.8,182.2c86,114.8,113.2,264.4,73.5,403.3c-17.3,60.8-48,118.2-90.1,168.9
		c-10.8,12.9-42.8,44.9-55.7,55.7c-29.8,24.7-57.3,42.6-91.5,59.7c-39.8,19.9-79.9,33.2-123.7,41.1c-10.2,1.9-34.9,5.2-38.2,5.2
		C678.4,14743.1,678.3,14741.1,678.3,14700.8z"/>
	<path d="M1738.6,14613.3v-75.5l-5.9,5.9c-18.4,18.4-42.6,30.2-68.9,33.7c-10.9,1.4-35.9,0.5-46.1-1.7
		c-58.7-12.5-105.2-59.4-116.9-117.8c-2.2-11.2-3-34.9-1.5-47.3c3.6-31.1,17.8-60.8,40.4-84.3c29.9-31.1,65.8-46.7,108-46.7
		c40.4,0,76.1,14.9,104.8,43.6c21.7,21.8,34.4,45,41.3,75.7l1.9,8.1l0.2,141l0.2,140.9h-28.7h-28.7V14613.3z M1670.9,14519.7
		c14.7-3.9,28.1-11.3,39.2-21.9c42-39.6,38.3-109.5-7.7-144c-19.9-15-45-21-69.7-17.1c-44.4,7.2-76.9,46.2-76.9,92.1
		c0,24.8,9.1,47.9,25.6,65.2c13.4,14.2,28.5,22.6,47.6,26.7C1639.8,14523.1,1659.8,14522.6,1670.9,14519.7z"/>
	<path d="M3197.5,14613.6v-75.4l-6.2,6c-20,19-42.3,29.8-68.4,33.1c-11.6,1.5-35.8,0.6-46.3-1.6c-10.9-2.3-23.4-6.6-33.2-11.2
		c-15.9-7.6-27.3-15.6-40.8-28.7c-19.2-18.8-32.8-41.2-40-66c-6.2-21.6-7-49.2-2.2-72.5c10.4-49.8,50.1-93.9,99.3-110.3
		c17-5.7,32.6-7.8,53.1-7c25.2,0.9,46.8,7.1,67.9,19.5c37.8,22.2,64.4,59.8,72.6,102.6c1.8,9.1,1.8,9.6,2,148l0.3,138.9h-29.2h-29.1
		V14613.6z M3130.4,14519.6c9.5-2.6,23.6-9.5,31-15c17.3-13.1,29.2-31.3,34.6-52.9c2.4-9.5,3-29.1,1.2-38.9
		c-8.2-44.1-42.8-75-86.3-77c-40-1.9-75.1,21.3-89.8,59.1c-10.8,27.7-7.4,60.8,8.8,85.9c13.4,20.7,33.7,34.7,58,40
		C3098.8,14523.1,3119.7,14522.5,3130.4,14519.6z"/>
	<path d="M3323.2,14680.6c-7-2.7-12.6-7-16.5-12.9c-4.6-6.9-5.9-12-5.5-21.6c0.2-6.6,0.6-8.6,2.8-13.3c3.4-7.2,9.8-13.6,17-17
		c5.2-2.4,6.1-2.6,14.4-2.6c11.5,0,16.1,1.8,23.5,8.7c18,16.9,13.7,46.5-8.3,57.4c-4.9,2.4-6.1,2.7-14,2.8
		C3329.4,14682.5,3327.4,14682.2,3323.2,14680.6z"/>
	<path d="M1951,14576.8c-52.8-8.2-99-47.8-116.2-99.7c-6.1-18.3-6.9-23.5-6.9-48.6c0-20.1,0.2-23,1.9-30.7
		c13.7-63,65.4-110.2,128.3-117.3c32.3-3.6,68.2,4.2,95.4,20.6c16.7,10.1,32.3,24.1,43.7,39.4c6.1,8.2,14.7,22.2,14.1,22.9
		c-0.2,0.2-15.7,0.4-34.5,0.5l-34.2,0.2l-5-4.9c-29.1-27.8-80.3-31.9-114.3-9c-6.4,4.3-15.9,13.5-20.2,19.6
		c-6.6,9.3-12.5,23.5-13.8,33.5l-0.6,4.1h116.5h116.5l0.5,3.5c2.9,21.3,0.6,46.7-6.4,67.6c-17.3,52.2-65.1,91-121.4,98.3
		C1983,14578.4,1960.7,14578.4,1951,14576.8z M1991.7,14521c25.8-4.9,48.3-21.7,62-46.4c2.6-4.6,6.1-13.3,7.1-17.1l0.6-2.3h-86.2
		c-47.4,0-86.2,0.1-86.2,0.2c0,1.5,4.7,13.3,7.3,18.5c12.3,24.5,33.6,41,60.7,46.7C1965.8,14522.7,1982.6,14522.8,1991.7,14521z"/>
	<path d="M2275.3,14576.8c-59.3-9.2-108.7-57.1-121.1-117.2c-3.7-18.1-3.7-43.5,0-62c9-44.2,38.6-82.3,80-103
		c63.2-31.5,144-12,186.9,45.3c5,6.8,12.9,19.3,14.2,22.4c0.5,1.2-2.1,1.4-33.7,1.6l-34.2,0.2l-5.4-5
		c-18.2-16.8-41.3-24.7-68.5-23.5c-22.7,1.1-43,9.7-57.7,24.6c-7.3,7.4-10.5,12.1-15.1,21.7c-3.6,7.6-7.3,19.4-7.3,23.6v1.9h116.4
		H2446l0.7,6.3c1.1,10.5,0.6,32-1,41c-5.3,30.1-17.2,54.8-36.7,75.8c-23.1,24.9-56.1,41.9-90.4,46.3
		C2307.3,14578.4,2285,14578.4,2275.3,14576.8z M2316,14521c26.7-5,50.3-23.3,63.1-48.7c3.1-6.1,6.5-14.8,6.5-16.5
		c0-0.3-38.7-0.6-86.1-0.6h-86.1l0.5,2.3c1,3.9,6.1,15.8,9,20.8c11.2,19.2,27.4,32.7,47.6,39.6
		C2283.1,14522.2,2302.5,14523.6,2316,14521z"/>
	<path d="M2605.6,14577.2c-9.1-1.2-23.4-5.2-33.4-9.1c-43.2-17.4-77.6-56.4-89.2-101.2c-4.5-17.5-4.4-14.7-4.4-162.2v-135.8h29.1
		h29.1v75.3v75.3l7.4-7c16.8-15.8,36.5-26,59-30.5c7.8-1.5,11.6-1.9,26.1-1.8c15.2,0,18,0.2,27.2,2.2
		c48.8,10.3,90.1,44.7,109.1,90.8c8.4,20.5,10.9,35.3,10.3,60.7c-0.4,18.7-1.7,26.2-6.7,41.5c-14.6,44.3-52.6,82.1-96.6,96.1
		c-15.7,5-22.1,6-42.4,6.2C2620,14577.9,2608.9,14577.6,2605.6,14577.2z M2644.1,14521.1c34.1-6.6,61.3-31.3,71-64.7
		c2.9-10.2,3.8-16.5,3.8-27.9c0-26.2-9.9-49.7-28.5-67.5c-11.2-10.8-23-17.6-37.3-21.8c-47.5-13.7-97.3,12.4-112.6,59
		c-8.2,25.3-6.6,50,5.2,73.6c12.6,25.5,35.2,43,63.1,49C2617.6,14522.7,2635.2,14522.8,2644.1,14521.1z"/>
	<path d="M3805.3,14577.6c-24.6-3.6-43.8-10.9-62.8-23.7c-30.1-20.2-53.1-52.7-61.6-87c-3.7-15-4.2-19.2-4.1-39.2
		c0-17.4,0.2-19.9,2.2-29.2c6.2-29.4,18.6-52.6,39.7-74.2c13.3-13.6,26.5-23.1,42.9-30.9c51.6-24.3,116-15.7,160.7,21.6
		c8.2,6.9,19.3,18.8,25.2,26.9c5.4,7.5,12.7,19.6,12.7,20.9c0,0.7-8.5,1-33.7,1.2l-33.8,0.2l-5.3-4.8c-17.7-15.9-39-23.9-63.5-23.9
		c-25.1,0-47.2,8.7-63.2,24.6c-11.8,11.8-19.3,26.6-22.5,44.4l-0.6,3h116.5h116.5l0.6,2.3c0.4,1.2,0.6,10.9,0.6,21.6
		c-0.1,17.9-0.2,20.2-2.3,29.6c-12.5,58.9-56,101.7-116.5,114.4c-8.6,1.8-12.3,2.1-27.7,2.3
		C3815.7,14577.9,3806.7,14577.8,3805.3,14577.6z M3846.6,14519.9c7.6-2,21.5-8.5,27.4-12.7c15.4-10.9,27.3-26.2,34-43.7
		c1.6-4.1,2.9-7.7,2.9-7.9c0-0.2-38.7-0.4-86.1-0.4c-79,0-86.1,0.1-86.1,1.3c0,2.1,5.6,15.7,8.7,20.9c7,12,17.9,23.9,28,30.6
		c9.4,6.2,22.5,11.4,34.5,13.5c2,0.4,9.7,0.6,17.1,0.4C3837.3,14521.8,3841.5,14521.3,3846.6,14519.9z"/>
	<path d="M3306.7,14429.3v-144.8h28.7h28.7v144.8v144.8h-28.7h-28.7V14429.3z"/>
	<path d="M3386.9,14572.7c0.2-0.8,26.2-65.5,57.7-143.8s57.4-142.8,57.6-143.3c0.3-0.8,6.9-1.1,29.3-1.1h28.8l57.8,143.3
		c31.8,78.8,57.9,143.9,58.1,144.7c0.2,1.5-0.7,1.5-29.8,1.4l-30-0.2l-42.3-106.6c-23.3-58.6-42.5-106.7-42.6-106.8
		c-0.2-0.2-19.2,47.8-42.4,106.6l-42.1,106.8l-30.2,0.2C3388.3,14574.1,3386.6,14574,3386.9,14572.7z"/>
	<path d="M2230.3,13995v-169h17.4h17.3l0.3,74.2c0.2,72.3,0.3,74.3,1.9,81.1c2.3,9.2,5.8,18.1,10,25.2c4.6,7.9,16.3,19.3,24.2,23.8
		c24.4,13.7,62.5,14.5,87.5,1.9c17.9-9,30.5-24.7,36.5-45.4c4-13.8,4-13.6,4.4-89.4l0.3-71.4h17.4h17.4l-0.3,73.4
		c-0.3,70.6-0.4,73.7-2,82.2c-5.7,29.7-18,51.8-36.8,66.2c-21,16.2-44.8,23.1-78.8,23.2c-21.2,0-34.5-2.3-48.4-8.5
		c-10.4-4.6-22.6-14.5-29.8-24l-3.6-4.9v65.2v65.2h-17.4h-17.4V13995z"/>
	<path d="M3068.1,13995v-169h17.4h17.4v169v169h-17.4h-17.4V13995z"/>
	<path d="M1531.5,14105.8v-38h-19.8h-19.8v-15.4v-15.4h19.8h19.8v-51.1c0-28.8,0.4-55.4,0.9-60.8c4.6-53.3,32.9-86.7,82.5-97.5
		c4.2-0.9,10-1.9,13.1-2.2l5.4-0.6v15.4v15.4l-4.2,0.6c-6.6,0.9-20.6,5.8-26.8,9.5c-18.6,11.1-29.1,27.3-34.2,53.3
		c-1.1,5.9-1.4,14.8-1.7,62.5l-0.4,55.6h33.6h33.6v15.4v15.4h-33.6h-33.6v38v38h-17.4h-17.4V14105.8z"/>
	<path d="M2065.3,14071c-59.7-4.4-111.5-47.7-122.3-102.2c-2.3-11.6-2.3-32.4,0.1-43.8c10.1-49.4,51.2-88.1,106-100
		c7.4-1.6,10.8-1.8,27.9-1.9c20.3,0,24.7,0.5,39.4,4.1c32.3,8,60.9,27.5,78.1,53.1c2.2,3.2,4.6,7.1,5.3,8.6l1.4,2.6h-19.2h-19.2
		l-8.2-7.9c-15.8-15.3-33.6-24.7-55.3-29c-10.9-2.2-31.2-1.9-42.2,0.5c-39.1,8.6-68.3,34.9-78.3,70.4c-1.9,7-2.2,9-2.2,21.4
		c0,11.5,0.3,14.9,1.8,20.7c5.6,21.9,19.8,42,39,54.8c9.7,6.6,14.7,9.1,25.2,12.7c27.1,9.5,58.1,7.8,83.7-4.4
		c11.4-5.4,19.7-11.2,28.6-20.1l7.7-7.5h18.4c10.2,0,18.4,0.2,18.4,0.6c0,0.9-5.3,9.5-9.1,14.6c-1.9,2.5-6.3,7.7-9.9,11.4
		C2152.4,14059.1,2110,14074.3,2065.3,14071z"/>
	<path d="M2888.6,14071c-45.6-3.5-87.9-29.8-109.9-68.3c-12.9-22.6-17.6-51-12.5-77.3c6.4-33.8,29.6-64.9,62.8-83.9
		c15.9-9.1,32.3-14.8,51-17.5c12.8-1.9,40.4-1.2,51.8,1.3c54,11.6,95.4,50.3,105.6,98.9c1.5,6.6,1.8,11.1,1.8,22.4
		c0.1,15.3-1,22.9-4.9,35.1c-8.7,27.8-30.4,53.9-58.6,70.5C2950.9,14066.8,2920.4,14073.4,2888.6,14071z M2925.8,14038.9
		c20.7-4.8,37.9-14.1,51.6-27.7c17.6-17.6,27-40,27-64.2c0-44.6-32.2-81.7-79.7-92c-11.1-2.3-32.3-2.6-42.6-0.4
		c-10.1,2.2-20.5,5.7-28.3,9.6c-44.8,22.6-65.3,70.1-48.9,113.5c12.4,32.8,43.4,56.6,81.7,62.6
		C2894.6,14041.5,2917.9,14040.6,2925.8,14038.9z"/>
	<path d="M3255.5,14071c-53.1-3.8-102-39.7-118.4-86.9c-5.5-15.9-7.4-36.8-4.8-54.4c7.5-50.7,51.2-93.2,107.4-104.7
		c8.2-1.7,11.3-1.9,29.8-1.9c18.3,0.1,21.6,0.2,29.1,1.9c55.4,11.9,97.8,52.6,106.4,102.3c1.6,9.4,1.6,29.3,0,39.3
		c-4.2,25.6-20,52.5-41.6,70.6C3333,14062.9,3297.2,14074,3255.5,14071z M3288.3,14039.5c40.3-7,70.9-34.1,80.8-71.7
		c1.1-3.9,1.9-10.2,2.1-16.5c1.6-36.4-17.9-69.1-51.7-86.5c-16.2-8.3-30.2-11.6-50-11.6c-18.8-0.1-31,2.6-47.4,10.4
		c-18.7,8.9-35.7,24.7-45.1,41.8c-7.4,13.6-10.5,25.9-10.4,42.4c0,13.5,1.6,21.6,6.7,33.9c6,14.4,20.5,31.6,34.3,40.9
		C3231,14038.2,3260.2,14044.4,3288.3,14039.5z"/>
	<path d="M3556.5,14071c-59.5-4.4-111-47.2-122.6-101.9c-2.3-10.8-2-34.9,0.4-46.1c10.8-48.4,52.9-87.2,106.2-98
		c8.2-1.6,11.4-1.9,28.6-1.9c17,0.1,20.5,0.3,27.8,1.9c30.1,6.6,54.4,20.5,71.4,40.8l3.9,4.7v-11.6c0-6.4-0.4-14.8-0.9-18.8
		c-1.7-13.6-7.4-27.8-15.6-38.8c-28.4-37.7-83.2-51.4-128.1-32.1c-14.6,6.3-30.2,18.8-39.6,31.5l-3.7,5h-20.1
		c-23.4,0-21.8,1-15.9-9.3c18-31.5,51.6-54.8,90.8-63.2c13.3-2.8,39.9-3.6,53.5-1.6c43.7,6.4,83.1,33.8,102.1,70.8
		c5,9.8,7.2,15.4,10.1,26.3c1.7,6.4,1.7,8.1,1.9,69.3c0.3,61.2,0.2,63.1-1.4,71.2c-2.3,11.2-4.9,18.8-10.3,29.2
		c-6.2,12.2-12.9,21.4-23.3,31.8C3641.7,14060.3,3602,14074.4,3556.5,14071z M3593.8,14038.9c20-4.7,36.1-13.1,49.7-26
		c12.5-11.9,21.8-27.3,26.1-43.3c1.9-7.3,2.2-9.5,2.2-22.2c0.1-12-0.2-15.2-1.7-21c-4.2-16.5-12.6-31.2-24.8-43.3
		c-28.2-28.1-71.7-37.6-110.7-24.1c-31.4,10.9-55.6,35.3-64.1,64.6c-13.3,45.9,13.7,94,62.4,111.4c5,1.8,17.3,4.7,24.2,5.7
		C3563.3,14041.5,3587.1,14040.4,3593.8,14038.9z"/>
	<path d="M1755.5,14069.5c-50.8-8.9-90.5-41.6-105.1-86.6c-4.7-14.4-5.3-18.5-5.3-38c0-16.5,0.1-17.9,2.3-26.2
		c5.9-22.5,16.9-41.2,33.8-57.6c20.7-20,46.8-32.8,76.2-37c10.8-1.6,33-1.7,44.2-0.1c33.4,4.8,63.2,19.2,85.3,41.3
		c6.1,6.1,17.4,20.1,17.4,21.5c0,0.4-9.5,0.6-21.2,0.6H1862l-5.3-5.2c-17.9-17.6-43.9-28.1-72.4-29.4c-47.2-2-88.5,25.4-100.2,66.3
		c-1.1,3.9-2.3,9.5-2.6,12.3l-0.6,5.3h116.9h116.9l0.5,1.9c1.4,5.3-0.2,24.6-3.2,37c-11,46.3-49.6,81.8-100.9,92.7
		c-8.6,1.9-12.1,2.2-28.4,2.4C1767.3,14071,1762.6,14070.7,1755.5,14069.5z M1802.8,14039.2c19.6-4.4,35.2-12.8,48.8-26.2
		c8.1-8,13.2-14.8,18-24.1c2.9-5.6,6.9-16.6,8.4-23.1l0.5-2.3h-98.7c-56.9,0-98.7,0.3-98.7,0.7s0.9,3.9,2,7.7
		c10.1,34.9,41.7,61.8,80.1,68.1C1771.6,14041.4,1795,14040.9,1802.8,14039.2z"/>
	<path d="M2599.1,14070.6c-1.5-0.2-6.8-1.1-11.6-2c-41.3-7.7-70.8-34.3-81-73c-4.9-18.4-4.7-14.8-5-95.3l-0.3-74.2h17.5h17.4v67.8
		c0,76.5,0.2,79.5,5.4,96c4.2,13,10.2,22.6,19.9,31.6c14.5,13.5,32.6,19.7,57.2,19.7c24.9,0,43-6.4,57.7-20.2
		c10.5-9.9,17.2-21.5,21-36.4c3.6-13.7,3.8-18.5,3.8-90.3v-68.2h17.4h17.4v69.9c0,75.5-0.2,80-4.4,96.8
		c-10.4,41.1-38.5,67.2-81.8,76c-7.4,1.5-12,1.8-28.2,1.9C2610.6,14070.8,2600.6,14070.7,2599.1,14070.6z"/>
	<path d="M3738.6,13998.7c0-43.6,0.3-72.1,0.9-77.1c5.9-53.9,36.4-87.5,88.1-96.8c10.3-1.9,34.8-2.5,44.8-1.3
		c25.2,3.2,48.6,14.8,61.9,30.8l4.1,4.9v-15.2c0-11.6-0.4-16.9-1.5-22.5c-5.9-28.9-27.2-50.1-58.2-58.5c-7-1.9-9.3-2-22.3-2.1
		c-13.3,0-15.3,0.2-22.6,2.2c-10.7,2.9-22.7,8.9-30.9,15.4c-6.4,5.2-15.1,15-17.6,20l-1.3,2.3h-19.4H3745l0.6-1.8
		c2.7-8.7,13.3-24.3,23.7-34.7c16.7-16.6,36.5-27,61.1-32c11.3-2.3,41.4-2,52.6,0.4c24.3,5.3,42.7,15,59,31.3
		c15.2,15,23.5,29.8,28.9,51.4c1.7,6.8,1.7,7.6,1.9,129.6l0.2,122.7h-17.3h-17.4l-0.3-74.6c-0.2-73.4-0.3-74.7-2-81.8
		c-1.9-7.8-5.8-17.5-10-24.6c-4-7-16-18.5-23.5-22.7c-24.8-14-62.7-15.2-87.5-2.7c-21,10.6-33.2,27.4-39.4,54.2
		c-1.8,7.8-1.8,9.1-2,80.1l-0.3,72.1H3756h-17.4V13998.7z"/>
</g>
</svg>
