<svg xmlns="http://www.w3.org/2000/svg" viewBox="0 0 531.98 309.67"><defs><style>.cls-1{fill:#212725;}.cls-2{fill:#741bda;}</style></defs><g id="Layer_2" data-name="Layer 2"><g id="Layer_1-2" data-name="Layer 1"><path class="cls-1" d="M247,229.64v9.41H218.56V193.62h28.1V203h-18v7.14h16.22v9.15H228.62v10.32Z"/><path class="cls-1" d="M250.29,236.9l3.7-8c3.25,1.88,6.95,3.44,10.64,3.44,1.76,0,2.73-.39,2.73-1.37,0-1.16-1.17-1.36-2.08-1.75L260,227.11c-4.93-1.89-7.33-4.81-7.33-9.28,0-6.17,4.21-9.74,12.84-9.74a35.52,35.52,0,0,1,10.84,1.82l-2.73,7.92a26,26,0,0,0-8.88-2.21c-1.95,0-2.41.52-2.41,1.3s.78,1.3,2.27,1.88l5.2,1.95c4.54,1.68,7.26,4.08,7.26,9.15,0,7.13-5.25,10.12-13.23,10.12A31.21,31.21,0,0,1,250.29,236.9Z"/><path class="cls-1" d="M281.44,209.07h9.8v4.09h.13c1.88-3,5-5.07,9.8-5.07,7.78,0,14.21,5.45,14.21,16s-6.43,16-14.21,16c-4.8,0-7.92-2-9.8-5.06h-.13V252h-9.8Zm23.88,15a6.91,6.91,0,1,0-6.88,7A6.64,6.64,0,0,0,305.32,224.06Z"/><path class="cls-1" d="M349.44,224.19v2.2H328c.65,3.77,3.63,5.45,7.65,5.45a16.44,16.44,0,0,0,8.7-2.72l3.57,7.39a23.31,23.31,0,0,1-12.4,3.51c-10.05,0-16.74-6.3-16.74-15.83,0-10.13,6.62-16,15.84-16C343.61,208.16,349.44,213.35,349.44,224.19ZM328,220.62H340a5.4,5.4,0,0,0-5.71-5.52C331,215.1,328.49,216.72,328,220.62Z"/><path class="cls-1" d="M386.24,224.06c0,9.6-7.14,16-16.87,16s-16.81-6.36-16.81-16,7.14-16,16.81-16S386.24,214.45,386.24,224.06Zm-23.88,0a7,7,0,1,0,7-7A6.74,6.74,0,0,0,362.36,224.06Z"/><path class="cls-1" d="M253.47,295.91c0,9.35-7.27,12.79-15.44,12.79H218.56V263.27h18.82c8,0,14,3.38,14,11.29,0,5.26-2.47,8.5-7.21,10.06v.13C249.32,285.6,253.47,288.39,253.47,295.91Zm-24.85-23.49v8.89h7.53c3,0,5.12-1.68,5.12-4.54s-2.14-4.35-5.06-4.35ZM243,294.62c0-3.31-2.47-4.94-6.56-4.94h-7.85v9.87h7.92C240.37,299.55,243,297.92,243,294.62Z"/><path class="cls-1" d="M268.66,308.7h-9.8V263.27h9.8Z"/><path class="cls-1" d="M307.33,293.71c0,9.6-7.14,16-16.87,16s-16.81-6.36-16.81-16,7.14-16,16.81-16S307.33,284.1,307.33,293.71Zm-23.88,0a7,7,0,1,0,7-7A6.74,6.74,0,0,0,283.45,293.71Z"/><path class="cls-1" d="M310.71,293.71c0-9.67,7.07-16,16.67-16a20.69,20.69,0,0,1,10.84,2.92l-4,7.86a11,11,0,0,0-6.36-1.82c-3.9,0-7.34,2.53-7.34,7s3.44,7,7.34,7a11,11,0,0,0,6.36-1.81l4,7.85a20.69,20.69,0,0,1-10.84,2.92C317.78,309.67,310.71,303.38,310.71,293.71Z"/><path class="cls-1" d="M362.29,308.7l-10.18-13.76V308.7h-9.8V263.27h9.8v27.26l8.76-11.81H373l-11.88,13.62L375,308.7Z"/><path class="cls-1" d="M377.28,293.71c0-9.67,7.07-16,16.68-16a20.69,20.69,0,0,1,10.84,2.92l-4,7.86a11,11,0,0,0-6.36-1.82c-3.89,0-7.33,2.53-7.33,7s3.44,7,7.33,7a11,11,0,0,0,6.36-1.81l4,7.85A20.69,20.69,0,0,1,394,309.67C384.35,309.67,377.28,303.38,377.28,293.71Z"/><path class="cls-1" d="M418.68,282.68h.13a10.84,10.84,0,0,1,9.6-4.94c6.62,0,11.3,3.83,11.3,12.4V308.7h-9.8V292.86c0-4.47-1.88-6.49-5.45-6.49-3.31,0-5.78,1.95-5.78,7.27V308.7h-9.8V263.27h9.8Z"/><path class="cls-1" d="M444.38,293.71c0-10.52,6.42-16,14.21-16,4.86,0,7.92,2,9.8,5.07h.13v-4.09h9.79v30h-9.79v-4.09h-.13c-1.88,3.05-4.94,5.06-9.8,5.06C450.8,309.67,444.38,304.22,444.38,293.71Zm23.88,0a6.91,6.91,0,1,0-6.95,7A6.66,6.66,0,0,0,468.26,293.71Z"/><path class="cls-1" d="M494.86,273.2H484.35v-9.86h10.51Zm-10.12,5.52h9.8v30h-9.8Z"/><path class="cls-1" d="M532,290.14V308.7h-9.74V292.86c0-4.47-1.88-6.49-5.51-6.49-3.31,0-5.78,1.95-5.78,7.27V308.7h-9.79v-30h9.6v4.54h.13a11.05,11.05,0,0,1,9.8-5.52C527.31,277.74,532,281.57,532,290.14Z"/><path class="cls-1" d="M23.49,150.11A23.47,23.47,0,0,0,.11,173.64h0A23.42,23.42,0,0,0,23.6,197h0A23.46,23.46,0,0,0,47,173.51h0a23.47,23.47,0,0,0-23.5-23.4Z"/><path class="cls-1" d="M135.88,59.89l-23.63,40.54a49.93,49.93,0,0,1-33.37,92.38c-.51-.11-1-.2-1.54-.28l-.12,0h0A23.44,23.44,0,0,0,62.12,236a23.28,23.28,0,0,0,9.11,3A96.8,96.8,0,0,0,135.88,59.89Z"/><path class="cls-2" d="M135.86,59.92l0,0a96.65,96.65,0,0,0-89-4.44v-32h0A23.44,23.44,0,1,0,0,23.44H0v84.07H0a23.42,23.42,0,0,0,41.87,14h0l0,0a23.05,23.05,0,0,0,2.2-3.38c.84-1.27,1.7-2.58,2.18-3.28,14.38-21.18,43.2-27.55,65.75-14.54l.24.15a23.45,23.45,0,0,0,23.57-40.55Z"/></g></g></svg>