<?xml version="1.0" encoding="UTF-8"?><svg width="183px" height="43px" xmlns="http://www.w3.org/2000/svg" version="1.2" baseProfile="tiny" viewBox="0 0 183 43"><g fill="#003a5d"><rect height="1" x="4" width="1"/><rect x="5" width="49" height="2"/><rect width="1" height="1" x="54"/><rect x="55" width="1" height="1"/><rect x="56" width="1" height="1"/><rect x="3" y="1" width="1" height="1"/><rect x="4" y="1" width="49" height="2"/><rect x="54" y="1" width="1" height="1"/><rect width="1" height="1" x="55" y="1"/><rect x="2" y="2" width="1" height="1"/><rect height="1" x="3" y="2" width="50"/><rect x="53" y="2" width="1" height="1"/><rect width="1" height="1" x="54" y="2"/><rect x="1" y="3" width="1" height="1"/><rect x="2" y="3" width="1" height="1"/><rect x="3" y="3" width="49" height="1"/><rect x="52" y="3" width="1" height="1"/><rect y="3" width="1" height="1" x="53"/><rect x="1" y="4" width="1" height="1"/><rect height="1" x="2" y="4" width="49"/><rect x="51" y="4" width="1" height="1"/><rect x="52" y="4" width="1" height="1"/><rect height="1" x="53" y="4" width="1"/><rect y="5" width="1" height="1"/><rect y="5" width="50" height="1" x="1"/><rect width="1" height="1" x="51" y="5"/><rect x="52" y="5" width="1" height="1"/><rect y="5" width="1" height="1" x="68"/><rect x="69" y="5" width="5" height="1"/><rect width="1" height="1" x="74" y="5"/><rect x="75" y="5" width="1" height="1"/><rect x="90" y="5" width="2" height="1"/><rect x="92" y="5" width="1" height="1"/><rect x="118" y="5" width="1" height="1"/><rect x="119" y="5" width="1" height="1"/><rect x="127" y="5" width="3" height="1"/><rect x="130" y="5" width="1" height="1"/><rect width="1" height="1" x="131" y="5"/><rect x="132" y="5" width="1" height="1"/><rect height="1" x="68" y="6" width="6"/><rect height="1" x="74" y="6" width="1"/><rect height="1" x="75" y="6" width="1"/><rect x="90" y="6" width="2" height="1"/><rect y="6" width="1" height="11" x="92"/><rect x="118" y="6" width="1" height="11"/><rect x="119" y="6" width="1" height="11"/><rect x="127" y="6" width="1" height="11"/><rect height="1" x="128" y="6" width="1"/><rect x="129" y="6" width="1" height="1"/><rect x="130" y="6" width="1" height="1"/><rect x="131" y="6" width="1" height="1"/><rect x="132" y="6" width="1" height="1"/><rect width="1" height="1" x="133" y="6"/><rect width="1" height="10" x="68" y="7"/><rect height="3" x="69" y="7" width="1"/><rect x="90" y="7" width="2" height="1"/><rect height="3" x="128" y="7" width="1"/><rect width="1" height="1" x="131" y="7"/><rect height="1" x="132" y="7" width="1"/><rect x="133" y="7" width="1" height="2"/><rect x="134" y="7" width="1" height="1"/><rect x="90" y="8" width="2" height="1"/><rect width="1" height="1" x="132" y="8"/><rect x="134" y="8" width="1" height="1"/><rect width="1" height="1" x="77" y="9"/><rect x="78" y="9" width="1" height="1"/><rect x="79" y="9" width="1" height="1"/><rect y="9" width="1" height="1" x="80"/><rect x="81" y="9" width="1" height="1"/><rect width="1" height="1" x="86" y="9"/><rect x="87" y="9" width="1" height="1"/><rect height="1" x="88" y="9" width="1"/><rect width="1" height="1" x="89" y="9"/><rect width="1" height="1" x="90" y="9"/><rect y="9" width="1" height="8" x="91"/><rect x="95" y="9" width="1" height="1"/><rect x="96" y="9" width="1" height="1"/><rect x="97" y="9" width="1" height="1"/><rect y="9" width="1" height="1" x="98"/><rect y="9" width="1" height="1" x="99"/><rect x="103" y="9" width="1" height="1"/><rect x="104" y="9" width="1" height="1"/><rect x="105" y="9" width="1" height="1"/><rect x="106" y="9" width="1" height="1"/><rect x="107" y="9" width="1" height="1"/><rect x="108" y="9" width="1" height="1"/><rect x="109" y="9" width="1" height="1"/><rect x="110" y="9" width="1" height="1"/><rect width="2" height="1" x="111" y="9"/><rect x="113" y="9" width="1" height="1"/><rect x="114" y="9" width="1" height="1"/><rect x="132" y="9" width="1" height="1"/><rect x="133" y="9" width="1" height="1"/><rect height="1" x="134" y="9" width="1"/><rect x="137" y="9" width="1" height="1"/><rect x="138" y="9" width="1" height="1"/><rect y="9" width="1" height="1" x="139"/><rect width="1" height="1" x="140" y="9"/><rect x="141" y="9" width="1" height="1"/><rect x="145" y="9" width="1" height="1"/><rect x="146" y="9" width="1" height="1"/><rect width="1" height="1" x="147" y="9"/><rect width="1" height="1" x="148" y="9"/><rect x="149" y="9" width="1" height="1"/><rect x="150" y="9" width="1" height="1"/><rect x="153" y="9" width="1" height="1"/><rect x="154" y="9" width="1" height="1"/><rect x="155" y="9" width="1" height="1"/><rect y="9" width="1" height="1" x="156"/><rect height="1" x="157" y="9" width="1"/><rect x="158" y="9" width="1" height="1"/><rect x="161" y="9" width="1" height="1"/><rect x="162" y="9" width="1" height="1"/><rect height="1" x="163" y="9" width="1"/><rect x="164" y="9" width="1" height="1"/><rect y="9" width="1" height="1" x="165"/><rect x="166" y="9" width="1" height="1"/><rect x="167" y="9" width="1" height="1"/><rect x="168" y="9" width="1" height="1"/><rect x="169" y="9" width="1" height="1"/><rect width="1" height="1" x="174" y="9"/><rect x="175" y="9" width="1" height="1"/><rect height="1" x="177" y="9" width="1"/><rect x="178" y="9" width="1" height="1"/><rect width="1" height="1" x="179" y="9"/><rect height="1" x="180" y="9" width="1"/><rect x="181" y="9" width="1" height="1"/><rect x="182" y="9" width="1" height="1"/><rect x="69" y="10" width="1" height="1"/><rect x="76" y="10" width="1" height="1"/><rect x="77" y="10" width="1" height="1"/><rect x="78" y="10" width="1" height="1"/><rect x="79" y="10" width="1" height="1"/><rect y="10" width="1" height="1" x="80"/><rect x="81" y="10" width="1" height="1"/><rect x="82" y="10" width="1" height="1"/><rect x="85" y="10" width="1" height="1"/><rect x="86" y="10" width="1" height="1"/><rect x="87" y="10" width="1" height="1"/><rect x="88" y="10" width="1" height="1"/><rect x="89" y="10" width="1" height="1"/><rect y="10" width="1" height="1" x="90"/><rect width="1" height="1" x="94" y="10"/><rect x="95" y="10" width="1" height="1"/><rect width="1" height="1" x="96" y="10"/><rect x="97" y="10" width="1" height="1"/><rect width="1" height="1" x="98" y="10"/><rect x="99" y="10" width="1" height="1"/><rect x="100" y="10" width="1" height="1"/><rect x="103" y="10" width="1" height="7"/><rect width="1" height="1" x="104" y="10"/><rect x="105" y="10" width="1" height="1"/><rect x="106" y="10" width="1" height="1"/><rect x="107" y="10" width="1" height="1"/><rect width="1" height="1" x="109" y="10"/><rect height="1" x="110" y="10" width="1"/><rect y="10" width="1" height="1" x="111"/><rect width="1" height="1" x="112" y="10"/><rect y="10" width="1" height="1" x="113"/><rect height="6" x="114" y="10" width="1"/><rect height="1" x="115" y="10" width="1"/><rect width="1" height="1" x="128" y="10"/><rect x="132" y="10" width="1" height="1"/><rect x="133" y="10" width="1" height="1"/><rect width="1" height="1" x="134" y="10"/><rect x="136" y="10" width="1" height="1"/><rect height="1" x="137" y="10" width="1"/><rect x="138" y="10" width="1" height="1"/><rect x="139" y="10" width="1" height="1"/><rect height="1" x="140" y="10" width="1"/><rect x="141" y="10" width="1" height="1"/><rect height="1" x="142" y="10" width="1"/><rect width="1" height="1" x="144" y="10"/><rect height="2" x="145" y="10" width="1"/><rect x="146" y="10" width="1" height="2"/><rect width="1" height="1" x="147" y="10"/><rect width="2" height="1" x="148" y="10"/><rect y="10" width="1" height="1" x="150"/><rect x="153" y="10" width="1" height="1"/><rect x="154" y="10" width="1" height="1"/><rect y="10" width="1" height="1" x="155"/><rect y="10" width="1" height="1" x="156"/><rect height="1" x="157" y="10" width="1"/><rect width="1" height="1" x="158" y="10"/><rect y="10" width="1" height="7" x="161"/><rect x="162" y="10" width="1" height="1"/><rect height="1" x="163" y="10" width="1"/><rect width="1" height="1" x="164" y="10"/><rect y="10" width="1" height="1" x="165"/><rect x="166" y="10" width="1" height="1"/><rect x="167" y="10" width="1" height="1"/><rect x="168" y="10" width="1" height="1"/><rect x="169" y="10" width="1" height="1"/><rect x="173" y="10" width="2" height="1"/><rect x="175" y="10" width="1" height="1"/><rect y="10" width="1" height="1" x="177"/><rect x="178" y="10" width="1" height="1"/><rect y="10" width="1" height="1" x="179"/><rect x="180" y="10" width="1" height="1"/><rect height="1" x="181" y="10" width="1"/><rect x="182" y="10" width="1" height="1"/><rect width="4" height="1" x="69" y="11"/><rect width="1" height="1" x="73" y="11"/><rect x="74" y="11" width="1" height="1"/><rect x="76" y="11" width="1" height="1"/><rect width="1" height="1" x="77" y="11"/><rect x="81" y="11" width="1" height="1"/><rect y="11" width="1" height="1" x="82"/><rect x="84" y="11" width="1" height="1"/><rect x="85" y="11" width="1" height="4"/><rect x="86" y="11" width="1" height="1"/><rect x="90" y="11" width="1" height="1"/><rect x="94" y="11" width="1" height="1"/><rect x="95" y="11" width="1" height="1"/><rect x="99" y="11" width="1" height="1"/><rect height="1" x="100" y="11" width="1"/><rect x="104" y="11" width="1" height="1"/><rect width="1" height="1" x="105" y="11"/><rect x="113" y="11" width="1" height="1"/><rect x="115" y="11" width="1" height="6"/><rect y="11" width="3" height="1" x="128"/><rect x="131" y="11" width="1" height="1"/><rect x="132" y="11" width="1" height="1"/><rect x="133" y="11" width="1" height="1"/><rect y="11" width="1" height="1" x="136"/><rect x="137" y="11" width="1" height="1"/><rect x="141" y="11" width="1" height="1"/><rect x="142" y="11" width="1" height="1"/><rect x="144" y="11" width="1" height="1"/><rect x="152" y="11" width="1" height="1"/><rect height="2" x="153" y="11" width="1"/><rect x="154" y="11" width="1" height="1"/><rect x="157" y="11" width="1" height="1"/><rect x="158" y="11" width="1" height="2"/><rect x="159" y="11" width="1" height="1"/><rect x="162" y="11" width="1" height="6"/><rect x="163" y="11" width="1" height="1"/><rect x="168" y="11" width="1" height="1"/><rect x="169" y="11" width="1" height="1"/><rect height="1" x="173" y="11" width="1"/><rect x="174" y="11" width="1" height="1"/><rect height="1" x="176" y="11" width="1"/><rect x="177" y="11" width="1" height="2"/><rect x="178" y="11" width="1" height="1"/><rect x="181" y="11" width="1" height="1"/><rect height="2" x="182" y="11" width="1"/><rect x="4" y="12" width="1" height="1"/><rect x="5" y="12" width="49" height="1"/><rect width="1" height="1" x="54" y="12"/><rect height="1" x="55" y="12" width="1"/><rect height="1" x="56" y="12" width="1"/><rect height="1" x="69" y="12" width="1"/><rect height="1" x="70" y="12" width="3"/><rect x="73" y="12" width="1" height="1"/><rect x="74" y="12" width="1" height="1"/><rect x="75" y="12" width="1" height="1"/><rect x="76" y="12" width="1" height="2"/><rect x="77" y="12" width="1" height="1"/><rect width="2" height="1" x="78" y="12"/><rect y="12" width="1" height="1" x="80"/><rect y="12" width="1" height="1" x="81"/><rect x="82" y="12" width="1" height="1"/><rect x="83" y="12" width="1" height="1"/><rect x="84" y="12" width="2" height="1"/><rect width="1" height="1" x="86" y="12"/><rect height="1" x="90" y="12" width="2"/><rect height="1" x="93" y="12" width="1"/><rect height="2" x="94" y="12" width="1"/><rect width="1" height="1" x="95" y="12"/><rect x="96" y="12" width="2" height="1"/><rect x="98" y="12" width="1" height="1"/><rect y="12" width="1" height="1" x="99"/><rect x="100" y="12" width="1" height="1"/><rect height="1" x="101" y="12" width="1"/><rect x="104" y="12" width="1" height="1"/><rect y="12" width="1" height="1" x="112"/><rect height="1" x="113" y="12" width="1"/><rect height="1" x="128" y="12" width="1"/><rect x="129" y="12" width="1" height="1"/><rect width="1" height="1" x="130" y="12"/><rect x="131" y="12" width="1" height="1"/><rect x="132" y="12" width="1" height="1"/><rect y="12" width="1" height="2" x="136"/><rect x="137" y="12" width="1" height="1"/><rect height="1" x="138" y="12" width="2"/><rect x="140" y="12" width="1" height="1"/><rect y="12" width="1" height="1" x="141"/><rect x="142" y="12" width="1" height="1"/><rect width="1" height="1" x="143" y="12"/><rect width="1" height="1" x="144" y="12"/><rect x="145" y="12" width="1" height="1"/><rect x="146" y="12" width="1" height="1"/><rect height="1" x="147" y="12" width="1"/><rect y="12" width="1" height="1" x="152"/><rect x="154" y="12" width="3" height="1"/><rect y="12" width="1" height="1" x="157"/><rect height="1" x="159" y="12" width="2"/><rect x="163" y="12" width="1" height="1"/><rect x="168" y="12" width="1" height="1"/><rect x="169" y="12" width="1" height="1"/><rect width="1" height="1" x="170" y="12"/><rect x="172" y="12" width="1" height="1"/><rect y="12" width="1" height="1" x="173"/><rect x="174" y="12" width="1" height="1"/><rect y="12" width="1" height="1" x="176"/><rect y="12" width="3" height="1" x="178"/><rect x="181" y="12" width="1" height="1"/><rect x="3" y="13" width="1" height="1"/><rect height="1" x="4" y="13" width="50"/><rect x="54" y="13" width="1" height="1"/><rect x="55" y="13" width="1" height="1"/><rect width="1" height="4" x="69" y="13"/><rect x="75" y="13" width="1" height="1"/><rect x="77" y="13" width="5" height="1"/><rect x="82" y="13" width="1" height="1"/><rect x="83" y="13" width="1" height="1"/><rect x="84" y="13" width="1" height="1"/><rect x="90" y="13" width="3" height="1"/><rect x="93" y="13" width="1" height="1"/><rect width="5" height="1" x="95" y="13"/><rect x="100" y="13" width="1" height="1"/><rect x="101" y="13" width="1" height="1"/><rect x="104" y="13" width="1" height="4"/><rect width="1" height="1" x="109" y="13"/><rect height="1" x="110" y="13" width="1"/><rect x="111" y="13" width="3" height="1"/><rect x="128" y="13" width="1" height="4"/><rect width="1" height="1" x="131" y="13"/><rect x="132" y="13" width="1" height="1"/><rect height="1" x="133" y="13" width="1"/><rect y="13" width="1" height="1" x="135"/><rect width="5" height="1" x="137" y="13"/><rect height="1" x="142" y="13" width="1"/><rect x="143" y="13" width="2" height="1"/><rect x="145" y="13" width="1" height="1"/><rect x="146" y="13" width="1" height="1"/><rect x="147" y="13" width="1" height="1"/><rect x="148" y="13" width="1" height="1"/><rect x="149" y="13" width="1" height="1"/><rect height="1" x="152" y="13" width="1"/><rect x="153" y="13" width="5" height="1"/><rect x="158" y="13" width="1" height="1"/><rect width="2" height="1" x="159" y="13"/><rect x="168" y="13" width="1" height="1"/><rect y="13" width="1" height="1" x="169"/><rect height="1" x="170" y="13" width="1"/><rect width="1" height="1" x="172" y="13"/><rect y="13" width="1" height="1" x="173"/><rect x="174" y="13" width="1" height="1"/><rect x="176" y="13" width="1" height="1"/><rect y="13" width="5" height="1" x="177"/><rect width="1" height="1" x="182" y="13"/><rect height="1" x="2" y="14" width="1"/><rect height="1" x="3" y="14" width="1"/><rect x="4" y="14" width="49" height="1"/><rect x="53" y="14" width="1" height="1"/><rect x="54" y="14" width="1" height="1"/><rect x="75" y="14" width="1" height="1"/><rect width="1" height="1" x="76" y="14"/><rect x="77" y="14" width="1" height="1"/><rect height="1" x="84" y="14" width="1"/><rect x="86" y="14" width="1" height="1"/><rect y="14" width="2" height="1" x="90"/><rect x="93" y="14" width="1" height="1"/><rect x="94" y="14" width="1" height="1"/><rect x="95" y="14" width="1" height="1"/><rect x="108" y="14" width="1" height="1"/><rect x="109" y="14" width="1" height="2"/><rect x="110" y="14" width="1" height="1"/><rect y="14" width="1" height="1" x="111"/><rect y="14" width="1" height="1" x="131"/><rect x="132" y="14" width="1" height="1"/><rect x="133" y="14" width="1" height="1"/><rect width="1" height="1" x="135" y="14"/><rect x="136" y="14" width="1" height="1"/><rect height="1" x="137" y="14" width="1"/><rect x="147" y="14" width="1" height="1"/><rect x="148" y="14" width="1" height="1"/><rect x="149" y="14" width="1" height="1"/><rect y="14" width="1" height="1" x="150"/><rect y="14" width="1" height="1" x="152"/><rect x="153" y="14" width="1" height="1"/><rect x="169" y="14" width="1" height="1"/><rect y="14" width="1" height="2" x="170"/><rect width="1" height="1" x="172" y="14"/><rect height="1" x="173" y="14" width="1"/><rect x="176" y="14" width="1" height="1"/><rect x="177" y="14" width="1" height="1"/><rect x="1" y="15" width="1" height="1"/><rect y="15" width="1" height="1" x="2"/><rect x="3" y="15" width="49" height="2"/><rect x="52" y="15" width="1" height="1"/><rect x="53" y="15" width="1" height="1"/><rect x="76" y="15" width="1" height="1"/><rect x="77" y="15" width="1" height="1"/><rect x="84" y="15" width="1" height="1"/><rect x="85" y="15" width="1" height="1"/><rect x="86" y="15" width="1" height="1"/><rect height="1" x="90" y="15" width="1"/><rect x="94" y="15" width="1" height="1"/><rect y="15" width="1" height="1" x="95"/><rect x="108" y="15" width="1" height="1"/><rect x="113" y="15" width="1" height="1"/><rect x="132" y="15" width="1" height="1"/><rect x="133" y="15" width="1" height="1"/><rect x="134" y="15" width="1" height="1"/><rect x="136" y="15" width="1" height="1"/><rect x="137" y="15" width="1" height="1"/><rect x="149" y="15" width="1" height="1"/><rect width="1" height="1" x="150" y="15"/><rect x="152" y="15" width="1" height="1"/><rect height="1" x="153" y="15" width="1"/><rect y="15" width="1" height="1" x="154"/><rect x="169" y="15" width="1" height="1"/><rect y="15" width="1" height="1" x="171"/><rect y="15" width="1" height="1" x="172"/><rect width="1" height="1" x="173" y="15"/><rect x="176" y="15" width="1" height="1"/><rect x="177" y="15" width="1" height="1"/><rect y="15" width="1" height="1" x="178"/><rect height="1" x="1" y="16" width="1"/><rect x="2" y="16" width="49" height="1"/><rect width="1" height="1" x="52" y="16"/><rect height="1" x="53" y="16" width="1"/><rect height="1" x="76" y="16" width="2"/><rect x="78" y="16" width="1" height="1"/><rect width="1" height="1" x="79" y="16"/><rect x="81" y="16" width="1" height="1"/><rect x="82" y="16" width="1" height="1"/><rect x="85" y="16" width="1" height="1"/><rect x="86" y="16" width="1" height="1"/><rect x="87" y="16" width="1" height="1"/><rect x="89" y="16" width="1" height="1"/><rect width="1" height="1" x="90" y="16"/><rect x="94" y="16" width="2" height="1"/><rect x="96" y="16" width="1" height="1"/><rect x="97" y="16" width="1" height="1"/><rect height="1" x="98" y="16" width="1"/><rect x="99" y="16" width="1" height="1"/><rect x="100" y="16" width="1" height="1"/><rect height="1" x="108" y="16" width="2"/><rect height="1" x="110" y="16" width="1"/><rect x="112" y="16" width="1" height="2"/><rect y="16" width="1" height="1" x="113"/><rect x="114" y="16" width="1" height="1"/><rect width="1" height="1" x="132" y="16"/><rect x="133" y="16" width="1" height="1"/><rect x="134" y="16" width="2" height="1"/><rect y="16" width="2" height="1" x="136"/><rect x="138" y="16" width="1" height="1"/><rect x="139" y="16" width="1" height="1"/><rect y="16" width="1" height="1" x="141"/><rect x="142" y="16" width="1" height="1"/><rect height="1" x="144" y="16" width="1"/><rect height="1" x="145" y="16" width="1"/><rect width="1" height="1" x="146" y="16"/><rect x="148" y="16" width="1" height="1"/><rect y="16" width="1" height="1" x="149"/><rect width="1" height="1" x="150" y="16"/><rect x="152" y="16" width="1" height="1"/><rect x="153" y="16" width="1" height="1"/><rect x="154" y="16" width="1" height="1"/><rect x="155" y="16" width="1" height="2"/><rect width="2" height="1" x="157" y="16"/><rect x="159" y="16" width="1" height="1"/><rect x="170" y="16" width="1" height="1"/><rect y="16" width="1" height="1" x="171"/><rect x="172" y="16" width="1" height="1"/><rect x="173" y="16" width="1" height="1"/><rect x="176" y="16" width="1" height="1"/><rect height="1" x="177" y="16" width="1"/><rect x="178" y="16" width="1" height="1"/><rect x="179" y="16" width="1" height="2"/><rect x="181" y="16" width="1" height="1"/><rect x="182" y="16" width="1" height="1"/><rect y="17" width="1" height="1"/><rect width="50" height="1" x="1" y="17"/><rect width="1" height="1" x="51" y="17"/><rect height="1" x="52" y="17" width="1"/><rect x="68" y="17" width="1" height="1"/><rect y="17" width="1" height="1" x="69"/><rect x="77" y="17" width="1" height="1"/><rect x="78" y="17" width="3" height="1"/><rect x="81" y="17" width="1" height="1"/><rect y="17" width="1" height="1" x="82"/><rect x="85" y="17" width="1" height="1"/><rect x="86" y="17" width="1" height="1"/><rect x="87" y="17" width="2" height="1"/><rect y="17" width="2" height="1" x="89"/><rect x="91" y="17" width="1" height="1"/><rect x="92" y="17" width="1" height="1"/><rect x="95" y="17" width="1" height="1"/><rect x="96" y="17" width="1" height="1"/><rect x="97" y="17" width="2" height="1"/><rect height="1" x="99" y="17" width="1"/><rect height="1" x="100" y="17" width="1"/><rect x="103" y="17" width="1" height="1"/><rect x="104" y="17" width="1" height="1"/><rect x="108" y="17" width="1" height="1"/><rect x="109" y="17" width="1" height="1"/><rect x="110" y="17" width="2" height="1"/><rect x="113" y="17" width="1" height="1"/><rect x="114" y="17" width="1" height="1"/><rect x="115" y="17" width="1" height="1"/><rect x="118" y="17" width="1" height="1"/><rect x="119" y="17" width="1" height="1"/><rect y="17" width="1" height="1" x="127"/><rect x="128" y="17" width="1" height="1"/><rect x="133" y="17" width="1" height="1"/><rect x="134" y="17" width="1" height="1"/><rect x="135" y="17" width="1" height="1"/><rect x="137" y="17" width="1" height="1"/><rect x="138" y="17" width="3" height="1"/><rect height="1" x="141" y="17" width="1"/><rect y="17" width="1" height="1" x="142"/><rect x="144" y="17" width="1" height="1"/><rect x="145" y="17" width="3" height="1"/><rect height="1" x="148" y="17" width="1"/><rect x="149" y="17" width="1" height="1"/><rect x="150" y="17" width="1" height="1"/><rect x="153" y="17" width="1" height="1"/><rect x="154" y="17" width="1" height="1"/><rect x="156" y="17" width="1" height="1"/><rect height="1" x="157" y="17" width="1"/><rect x="158" y="17" width="1" height="1"/><rect height="1" x="159" y="17" width="1"/><rect x="161" y="17" width="1" height="1"/><rect y="17" width="1" height="1" x="162"/><rect height="1" x="170" y="17" width="1"/><rect x="171" y="17" width="1" height="1"/><rect x="172" y="17" width="1" height="1"/><rect x="177" y="17" width="1" height="1"/><rect x="178" y="17" width="1" height="1"/><rect x="180" y="17" width="1" height="1"/><rect x="181" y="17" width="1" height="1"/><rect x="182" y="17" width="1" height="1"/><rect width="1" height="1" x="79" y="18"/><rect height="1" x="80" y="18" width="1"/><rect x="81" y="18" width="1" height="1"/><rect height="1" x="87" y="18" width="1"/><rect x="88" y="18" width="1" height="1"/><rect width="1" height="1" x="89" y="18"/><rect x="97" y="18" width="1" height="1"/><rect x="98" y="18" width="1" height="1"/><rect x="110" y="18" width="1" height="1"/><rect x="111" y="18" width="1" height="1"/><rect x="112" y="18" width="1" height="1"/><rect x="139" y="18" width="1" height="1"/><rect x="140" y="18" width="1" height="1"/><rect height="1" x="141" y="18" width="1"/><rect x="146" y="18" width="1" height="1"/><rect x="147" y="18" width="1" height="1"/><rect x="148" y="18" width="1" height="1"/><rect height="1" x="155" y="18" width="2"/><rect x="157" y="18" width="1" height="1"/><rect height="1" x="179" y="18" width="2"/><rect x="181" y="18" width="1" height="1"/><rect x="177" y="23" width="1" height="1"/><rect y="23" width="1" height="1" x="178"/><rect width="1" height="1" x="179" y="23"/><rect x="180" y="23" width="1" height="1"/><rect x="4" y="24" width="1" height="1"/><rect x="5" y="24" width="50" height="1"/><rect x="55" y="24" width="1" height="1"/><rect width="1" height="1" x="56" y="24"/><rect x="68" y="24" width="3" height="1"/><rect height="1" x="71" y="24" width="1"/><rect height="1" x="72" y="24" width="1"/><rect y="24" width="1" height="1" x="73"/><rect x="74" y="24" width="1" height="1"/><rect height="1" x="96" y="24" width="1"/><rect height="1" x="97" y="24" width="1"/><rect width="1" height="1" x="118" y="24"/><rect x="119" y="24" width="1" height="1"/><rect y="24" width="1" height="1" x="120"/><rect y="24" width="1" height="1" x="121"/><rect y="24" width="3" height="1" x="127"/><rect height="1" x="130" y="24" width="1"/><rect y="24" width="1" height="1" x="131"/><rect height="1" x="132" y="24" width="1"/><rect height="1" x="133" y="24" width="1"/><rect x="177" y="24" width="1" height="1"/><rect x="178" y="24" width="1" height="3"/><rect width="1" height="1" x="179" y="24"/><rect height="1" x="180" y="24" width="1"/><rect x="181" y="24" width="1" height="1"/><rect x="3" y="25" width="1" height="1"/><rect y="25" width="50" height="1" x="4"/><rect x="54" y="25" width="1" height="1"/><rect x="55" y="25" width="1" height="1"/><rect x="68" y="25" width="1" height="10"/><rect x="69" y="25" width="1" height="1"/><rect x="70" y="25" width="1" height="1"/><rect y="25" width="1" height="1" x="71"/><rect x="72" y="25" width="1" height="1"/><rect x="73" y="25" width="1" height="1"/><rect x="74" y="25" width="1" height="1"/><rect x="75" y="25" width="1" height="1"/><rect y="25" width="1" height="11" x="96"/><rect x="97" y="25" width="1" height="5"/><rect y="25" width="1" height="1" x="117"/><rect height="1" x="118" y="25" width="1"/><rect height="1" x="119" y="25" width="1"/><rect x="120" y="25" width="1" height="1"/><rect x="121" y="25" width="1" height="1"/><rect x="127" y="25" width="1" height="10"/><rect y="25" width="1" height="1" x="128"/><rect x="129" y="25" width="1" height="1"/><rect x="130" y="25" width="1" height="1"/><rect x="131" y="25" width="1" height="1"/><rect x="132" y="25" width="1" height="1"/><rect x="133" y="25" width="1" height="1"/><rect x="134" y="25" width="1" height="1"/><rect y="25" width="1" height="1" x="176"/><rect x="177" y="25" width="1" height="1"/><rect x="179" y="25" width="1" height="1"/><rect x="180" y="25" width="1" height="1"/><rect x="181" y="25" width="1" height="1"/><rect height="1" x="182" y="25" width="1"/><rect x="2" y="26" width="1" height="1"/><rect x="3" y="26" width="1" height="1"/><rect x="4" y="26" width="49" height="2"/><rect x="53" y="26" width="1" height="1"/><rect x="54" y="26" width="1" height="1"/><rect x="69" y="26" width="1" height="2"/><rect y="26" width="1" height="1" x="73"/><rect x="74" y="26" width="1" height="1"/><rect height="1" x="75" y="26" width="1"/><rect y="26" width="1" height="1" x="117"/><rect x="118" y="26" width="1" height="1"/><rect width="1" height="2" x="128" y="26"/><rect height="1" x="132" y="26" width="1"/><rect x="133" y="26" width="1" height="1"/><rect x="134" y="26" width="1" height="1"/><rect height="1" x="155" y="26" width="1"/><rect x="176" y="26" width="1" height="1"/><rect x="177" y="26" width="1" height="1"/><rect x="179" y="26" width="1" height="1"/><rect x="180" y="26" width="1" height="1"/><rect x="181" y="26" width="1" height="1"/><rect x="182" y="26" width="1" height="1"/><rect x="2" y="27" width="1" height="1"/><rect x="3" y="27" width="49" height="2"/><rect x="53" y="27" width="1" height="1"/><rect x="54" y="27" width="1" height="1"/><rect x="74" y="27" width="1" height="1"/><rect height="1" x="75" y="27" width="1"/><rect width="1" height="9" x="117" y="27"/><rect x="118" y="27" width="1" height="1"/><rect x="133" y="27" width="1" height="1"/><rect x="134" y="27" width="1" height="1"/><rect height="1" x="154" y="27" width="1"/><rect x="155" y="27" width="1" height="8"/><rect x="176" y="27" width="1" height="1"/><rect width="1" height="1" x="177" y="27"/><rect width="2" height="1" x="178" y="27"/><rect x="180" y="27" width="1" height="1"/><rect x="181" y="27" width="1" height="1"/><rect x="182" y="27" width="1" height="1"/><rect height="1" x="1" y="28" width="1"/><rect x="2" y="28" width="50" height="1"/><rect x="52" y="28" width="1" height="1"/><rect x="53" y="28" width="1" height="1"/><rect x="69" y="28" width="1" height="1"/><rect y="28" width="1" height="1" x="73"/><rect x="74" y="28" width="1" height="1"/><rect x="75" y="28" width="1" height="1"/><rect x="78" y="28" width="1" height="1"/><rect height="1" x="79" y="28" width="1"/><rect x="80" y="28" width="1" height="1"/><rect x="81" y="28" width="1" height="1"/><rect width="1" height="1" x="82" y="28"/><rect x="83" y="28" width="1" height="1"/><rect height="1" x="86" y="28" width="1"/><rect height="1" x="87" y="28" width="1"/><rect x="88" y="28" width="1" height="1"/><rect x="89" y="28" width="2" height="1"/><rect x="91" y="28" width="1" height="1"/><rect x="92" y="28" width="1" height="1"/><rect x="100" y="28" width="1" height="1"/><rect height="1" x="101" y="28" width="1"/><rect x="102" y="28" width="1" height="1"/><rect x="108" y="28" width="1" height="1"/><rect x="109" y="28" width="1" height="1"/><rect y="28" width="1" height="1" x="110"/><rect x="111" y="28" width="1" height="1"/><rect x="112" y="28" width="1" height="1"/><rect x="113" y="28" width="1" height="1"/><rect x="115" y="28" width="1" height="1"/><rect height="1" x="116" y="28" width="1"/><rect width="1" height="1" x="118" y="28"/><rect x="119" y="28" width="1" height="1"/><rect x="120" y="28" width="1" height="1"/><rect x="128" y="28" width="1" height="1"/><rect width="1" height="1" x="132" y="28"/><rect x="133" y="28" width="1" height="1"/><rect x="134" y="28" width="1" height="1"/><rect x="137" y="28" width="1" height="1"/><rect y="28" width="1" height="1" x="138"/><rect height="1" x="139" y="28" width="1"/><rect y="28" width="1" height="1" x="140"/><rect x="141" y="28" width="1" height="1"/><rect y="28" width="1" height="2" x="142"/><rect x="146" y="28" width="1" height="1"/><rect x="147" y="28" width="1" height="1"/><rect x="148" y="28" width="1" height="1"/><rect x="149" y="28" width="1" height="1"/><rect width="1" height="1" x="150" y="28"/><rect y="28" width="2" height="1" x="151"/><rect x="153" y="28" width="1" height="1"/><rect x="154" y="28" width="1" height="1"/><rect width="1" height="1" x="156" y="28"/><rect x="157" y="28" width="1" height="1"/><rect x="158" y="28" width="1" height="1"/><rect width="1" height="2" x="161" y="28"/><rect x="162" y="28" width="2" height="1"/><rect x="164" y="28" width="1" height="1"/><rect y="28" width="1" height="1" x="165"/><rect x="166" y="28" width="1" height="1"/><rect x="169" y="28" width="1" height="1"/><rect height="1" x="170" y="28" width="1"/><rect x="171" y="28" width="1" height="1"/><rect width="1" height="1" x="172" y="28"/><rect height="1" x="173" y="28" width="1"/><rect width="1" height="1" x="174" y="28"/><rect width="1" height="1" x="175" y="28"/><rect y="28" width="1" height="1" x="177"/><rect x="178" y="28" width="1" height="1"/><rect x="179" y="28" width="1" height="1"/><rect y="28" width="1" height="1" x="180"/><rect x="181" y="28" width="1" height="1"/><rect y="29" width="1" height="1"/><rect height="1" x="1" y="29" width="50"/><rect x="51" y="29" width="1" height="1"/><rect width="1" height="1" x="52" y="29"/><rect x="69" y="29" width="1" height="1"/><rect x="70" y="29" width="2" height="1"/><rect width="1" height="1" x="72" y="29"/><rect x="73" y="29" width="1" height="1"/><rect height="1" x="74" y="29" width="1"/><rect y="29" width="1" height="1" x="78"/><rect x="79" y="29" width="1" height="1"/><rect x="80" y="29" width="1" height="2"/><rect x="81" y="29" width="1" height="1"/><rect x="82" y="29" width="1" height="1"/><rect height="1" x="83" y="29" width="1"/><rect y="29" width="1" height="6" x="86"/><rect width="1" height="1" x="87" y="29"/><rect width="1" height="1" x="88" y="29"/><rect height="1" x="89" y="29" width="1"/><rect x="90" y="29" width="1" height="1"/><rect width="1" height="1" x="91" y="29"/><rect width="1" height="1" x="92" y="29"/><rect height="1" x="93" y="29" width="1"/><rect width="1" height="1" x="99" y="29"/><rect x="100" y="29" width="1" height="1"/><rect x="101" y="29" width="1" height="1"/><rect x="107" y="29" width="1" height="1"/><rect x="108" y="29" width="1" height="1"/><rect height="1" x="109" y="29" width="1"/><rect x="110" y="29" width="1" height="1"/><rect x="111" y="29" width="1" height="1"/><rect x="112" y="29" width="1" height="1"/><rect x="113" y="29" width="1" height="1"/><rect y="29" width="1" height="1" x="114"/><rect x="115" y="29" width="1" height="1"/><rect x="116" y="29" width="1" height="1"/><rect width="1" height="1" x="118" y="29"/><rect width="1" height="1" x="119" y="29"/><rect width="1" height="1" x="120" y="29"/><rect x="128" y="29" width="1" height="1"/><rect y="29" width="2" height="1" x="129"/><rect width="1" height="1" x="131" y="29"/><rect x="132" y="29" width="1" height="1"/><rect height="1" x="133" y="29" width="1"/><rect x="137" y="29" width="1" height="1"/><rect x="138" y="29" width="1" height="1"/><rect x="139" y="29" width="1" height="1"/><rect x="140" y="29" width="1" height="1"/><rect x="141" y="29" width="2" height="1"/><rect width="1" height="1" x="143" y="29"/><rect x="145" y="29" width="1" height="1"/><rect height="1" x="146" y="29" width="1"/><rect x="147" y="29" width="1" height="1"/><rect x="148" y="29" width="1" height="1"/><rect x="149" y="29" width="1" height="1"/><rect height="1" x="150" y="29" width="1"/><rect x="151" y="29" width="1" height="1"/><rect x="153" y="29" width="1" height="1"/><rect y="29" width="1" height="1" x="154"/><rect x="156" y="29" width="1" height="1"/><rect x="157" y="29" width="1" height="1"/><rect x="158" y="29" width="1" height="1"/><rect x="160" y="29" width="1" height="1"/><rect height="1" x="162" y="29" width="2"/><rect width="1" height="1" x="164" y="29"/><rect x="165" y="29" width="1" height="1"/><rect x="166" y="29" width="1" height="1"/><rect width="1" height="7" x="169" y="29"/><rect x="170" y="29" width="1" height="1"/><rect x="171" y="29" width="1" height="1"/><rect x="172" y="29" width="1" height="1"/><rect y="29" width="1" height="1" x="173"/><rect width="1" height="1" x="174" y="29"/><rect x="175" y="29" width="1" height="1"/><rect y="30" width="1" height="1"/><rect x="1" y="30" width="50" height="1"/><rect y="30" width="1" height="1" x="51"/><rect width="1" height="1" x="69" y="30"/><rect y="30" width="1" height="1" x="70"/><rect x="71" y="30" width="1" height="1"/><rect x="72" y="30" width="1" height="1"/><rect x="73" y="30" width="1" height="1"/><rect width="1" height="1" x="74" y="30"/><rect height="1" x="75" y="30" width="1"/><rect x="82" y="30" width="1" height="1"/><rect x="83" y="30" width="1" height="5"/><rect x="84" y="30" width="1" height="1"/><rect x="87" y="30" width="1" height="1"/><rect width="1" height="1" x="88" y="30"/><rect x="92" y="30" width="1" height="1"/><rect y="30" width="1" height="5" x="93"/><rect x="97" y="30" width="1" height="1"/><rect x="98" y="30" width="1" height="1"/><rect x="99" y="30" width="1" height="1"/><rect x="100" y="30" width="1" height="1"/><rect x="107" y="30" width="1" height="1"/><rect x="108" y="30" width="1" height="1"/><rect x="112" y="30" width="1" height="1"/><rect x="113" y="30" width="1" height="1"/><rect x="114" y="30" width="1" height="1"/><rect x="118" y="30" width="1" height="6"/><rect x="128" y="30" width="1" height="1"/><rect x="129" y="30" width="1" height="1"/><rect x="130" y="30" width="1" height="1"/><rect x="131" y="30" width="2" height="1"/><rect width="1" height="1" x="133" y="30"/><rect x="134" y="30" width="1" height="1"/><rect width="1" height="1" x="136" y="30"/><rect height="1" x="137" y="30" width="1"/><rect height="1" x="138" y="30" width="1"/><rect x="142" y="30" width="1" height="1"/><rect x="143" y="30" width="1" height="4"/><rect x="144" y="30" width="1" height="1"/><rect width="2" height="1" x="145" y="30"/><rect width="1" height="1" x="147" y="30"/><rect height="4" x="154" y="30" width="1"/><rect x="159" y="30" width="1" height="1"/><rect x="160" y="30" width="1" height="4"/><rect x="161" y="30" width="1" height="1"/><rect width="1" height="1" x="165" y="30"/><rect x="166" y="30" width="1" height="4"/><rect x="167" y="30" width="1" height="1"/><rect x="170" y="30" width="1" height="1"/><rect x="174" y="30" width="1" height="1"/><rect x="175" y="30" width="1" height="6"/><rect x="176" y="30" width="1" height="6"/><rect x="69" y="31" width="1" height="3"/><rect x="73" y="31" width="1" height="1"/><rect x="74" y="31" width="1" height="1"/><rect y="31" width="1" height="1" x="75"/><rect height="1" x="79" y="31" width="1"/><rect y="31" width="1" height="1" x="80"/><rect x="81" y="31" width="1" height="1"/><rect width="1" height="1" x="82" y="31"/><rect x="84" y="31" width="1" height="4"/><rect x="87" y="31" width="1" height="4"/><rect y="31" width="1" height="4" x="92"/><rect x="97" y="31" width="1" height="1"/><rect x="98" y="31" width="1" height="1"/><rect height="1" x="99" y="31" width="1"/><rect x="107" y="31" width="1" height="2"/><rect x="108" y="31" width="1" height="2"/><rect y="31" width="1" height="2" x="113"/><rect x="114" y="31" width="1" height="2"/><rect x="128" y="31" width="1" height="3"/><rect x="132" y="31" width="1" height="1"/><rect x="133" y="31" width="1" height="1"/><rect height="1" x="134" y="31" width="1"/><rect x="136" y="31" width="1" height="2"/><rect x="137" y="31" width="1" height="2"/><rect x="142" y="31" width="2" height="1"/><rect width="1" height="2" x="144" y="31"/><rect y="31" width="1" height="1" x="145"/><rect width="1" height="1" x="146" y="31"/><rect width="1" height="1" x="147" y="31"/><rect x="148" y="31" width="1" height="1"/><rect height="1" x="149" y="31" width="1"/><rect x="159" y="31" width="1" height="2"/><rect y="31" width="1" height="2" x="161"/><rect x="167" y="31" width="1" height="2"/><rect x="170" y="31" width="1" height="1"/><rect x="174" y="31" width="2" height="1"/><rect height="1" x="74" y="32" width="1"/><rect x="75" y="32" width="1" height="2"/><rect y="32" width="1" height="1" x="77"/><rect width="1" height="2" x="78" y="32"/><rect x="79" y="32" width="1" height="1"/><rect x="80" y="32" width="2" height="1"/><rect y="32" width="1" height="1" x="82"/><rect x="97" y="32" width="1" height="1"/><rect width="1" height="1" x="98" y="32"/><rect x="99" y="32" width="1" height="1"/><rect x="133" y="32" width="1" height="1"/><rect y="32" width="1" height="1" x="134"/><rect x="146" y="32" width="1" height="1"/><rect y="32" width="1" height="1" x="147"/><rect y="32" width="1" height="1" x="148"/><rect x="149" y="32" width="1" height="1"/><rect x="150" y="32" width="1" height="1"/><rect y="32" width="1" height="1" x="151"/><rect x="170" y="32" width="1" height="1"/><rect x="174" y="32" width="2" height="1"/><rect x="74" y="33" width="1" height="1"/><rect x="76" y="33" width="1" height="1"/><rect x="77" y="33" width="1" height="1"/><rect x="79" y="33" width="1" height="1"/><rect x="82" y="33" width="2" height="1"/><rect x="97" y="33" width="1" height="1"/><rect y="33" width="1" height="1" x="98"/><rect y="33" width="1" height="1" x="99"/><rect x="100" y="33" width="1" height="1"/><rect x="107" y="33" width="1" height="1"/><rect x="108" y="33" width="1" height="1"/><rect width="1" height="1" x="113" y="33"/><rect x="114" y="33" width="1" height="1"/><rect x="133" y="33" width="1" height="1"/><rect x="134" y="33" width="1" height="1"/><rect x="136" y="33" width="1" height="1"/><rect x="137" y="33" width="1" height="1"/><rect x="142" y="33" width="2" height="1"/><rect height="1" x="144" y="33" width="1"/><rect x="148" y="33" width="1" height="1"/><rect height="1" x="149" y="33" width="1"/><rect height="1" x="150" y="33" width="1"/><rect y="33" width="1" height="2" x="151"/><rect x="159" y="33" width="1" height="1"/><rect x="161" y="33" width="1" height="1"/><rect x="167" y="33" width="1" height="1"/><rect x="170" y="33" width="1" height="3"/><rect x="174" y="33" width="2" height="1"/><rect x="69" y="34" width="1" height="1"/><rect x="74" y="34" width="1" height="1"/><rect x="75" y="34" width="1" height="1"/><rect height="1" x="77" y="34" width="1"/><rect y="34" width="1" height="2" x="78"/><rect x="82" y="34" width="1" height="1"/><rect x="97" y="34" width="1" height="2"/><rect width="1" height="1" x="99" y="34"/><rect y="34" width="1" height="1" x="100"/><rect y="34" width="1" height="1" x="101"/><rect height="1" x="107" y="34" width="1"/><rect x="108" y="34" width="1" height="1"/><rect width="1" height="1" x="112" y="34"/><rect x="113" y="34" width="1" height="1"/><rect height="1" x="114" y="34" width="1"/><rect x="128" y="34" width="1" height="1"/><rect x="133" y="34" width="1" height="1"/><rect width="1" height="1" x="134" y="34"/><rect x="136" y="34" width="1" height="1"/><rect width="1" height="1" x="137" y="34"/><rect width="1" height="1" x="138" y="34"/><rect x="142" y="34" width="1" height="2"/><rect x="143" y="34" width="1" height="1"/><rect x="144" y="34" width="1" height="1"/><rect width="1" height="1" x="150" y="34"/><rect x="154" y="34" width="1" height="1"/><rect x="159" y="34" width="1" height="1"/><rect height="1" x="160" y="34" width="1"/><rect height="1" x="161" y="34" width="1"/><rect x="165" y="34" width="2" height="1"/><rect height="1" x="167" y="34" width="1"/><rect width="2" height="1" x="174" y="34"/><rect height="1" x="68" y="35" width="1"/><rect x="69" y="35" width="1" height="1"/><rect x="70" y="35" width="2" height="1"/><rect x="72" y="35" width="1" height="1"/><rect width="1" height="1" x="73" y="35"/><rect x="74" y="35" width="1" height="1"/><rect height="1" x="75" y="35" width="1"/><rect x="77" y="35" width="1" height="1"/><rect x="79" y="35" width="1" height="1"/><rect x="80" y="35" width="1" height="1"/><rect x="81" y="35" width="1" height="1"/><rect y="35" width="1" height="1" x="82"/><rect x="83" y="35" width="1" height="1"/><rect height="1" x="84" y="35" width="1"/><rect x="86" y="35" width="1" height="1"/><rect y="35" width="1" height="1" x="87"/><rect x="92" y="35" width="1" height="1"/><rect x="93" y="35" width="1" height="1"/><rect x="100" y="35" width="1" height="1"/><rect width="1" height="1" x="101" y="35"/><rect x="102" y="35" width="1" height="1"/><rect x="107" y="35" width="1" height="1"/><rect x="108" y="35" width="1" height="1"/><rect width="1" height="1" x="109" y="35"/><rect height="1" x="110" y="35" width="1"/><rect x="111" y="35" width="1" height="1"/><rect width="1" height="1" x="112" y="35"/><rect y="35" width="1" height="1" x="113"/><rect x="114" y="35" width="1" height="1"/><rect y="35" width="1" height="1" x="127"/><rect y="35" width="1" height="1" x="128"/><rect x="129" y="35" width="2" height="1"/><rect width="1" height="1" x="131" y="35"/><rect height="1" x="132" y="35" width="1"/><rect x="133" y="35" width="1" height="1"/><rect x="134" y="35" width="1" height="1"/><rect x="137" y="35" width="1" height="1"/><rect width="1" height="1" x="138" y="35"/><rect x="139" y="35" width="1" height="1"/><rect x="140" y="35" width="1" height="1"/><rect x="141" y="35" width="1" height="1"/><rect x="143" y="35" width="1" height="1"/><rect height="1" x="145" y="35" width="1"/><rect x="146" y="35" width="1" height="1"/><rect x="147" y="35" width="1" height="1"/><rect x="148" y="35" width="1" height="1"/><rect x="149" y="35" width="1" height="1"/><rect x="150" y="35" width="1" height="1"/><rect y="35" width="1" height="1" x="151"/><rect width="1" height="1" x="154" y="35"/><rect width="1" height="1" x="155" y="35"/><rect y="35" width="1" height="1" x="156"/><rect width="1" height="1" x="157" y="35"/><rect x="158" y="35" width="1" height="1"/><rect height="1" x="160" y="35" width="1"/><rect x="161" y="35" width="1" height="1"/><rect y="35" width="2" height="1" x="162"/><rect height="1" x="164" y="35" width="1"/><rect x="165" y="35" width="1" height="1"/><rect y="35" width="1" height="1" x="166"/><rect x="174" y="35" width="2" height="1"/><rect y="36" width="1" height="1" x="4"/><rect x="5" y="36" width="50" height="1"/><rect y="36" width="1" height="1" x="55"/><rect width="1" height="1" x="56" y="36"/><rect x="68" y="36" width="5" height="1"/><rect x="73" y="36" width="1" height="1"/><rect y="36" width="1" height="1" x="74"/><rect x="77" y="36" width="1" height="1"/><rect x="78" y="36" width="1" height="1"/><rect width="1" height="1" x="79" y="36"/><rect y="36" width="1" height="1" x="80"/><rect x="81" y="36" width="1" height="1"/><rect y="36" width="2" height="1" x="82"/><rect x="84" y="36" width="1" height="1"/><rect y="36" width="1" height="1" x="86"/><rect x="87" y="36" width="1" height="1"/><rect y="36" width="1" height="1" x="92"/><rect width="1" height="1" x="93" y="36"/><rect x="96" y="36" width="1" height="1"/><rect height="1" x="97" y="36" width="1"/><rect x="100" y="36" width="1" height="1"/><rect height="1" x="101" y="36" width="1"/><rect height="1" x="102" y="36" width="1"/><rect x="108" y="36" width="1" height="1"/><rect x="109" y="36" width="1" height="1"/><rect x="110" y="36" width="1" height="1"/><rect height="1" x="111" y="36" width="1"/><rect width="1" height="1" x="112" y="36"/><rect width="1" height="1" x="113" y="36"/><rect x="117" y="36" width="1" height="1"/><rect height="1" x="118" y="36" width="1"/><rect x="127" y="36" width="5" height="1"/><rect x="132" y="36" width="1" height="1"/><rect x="133" y="36" width="1" height="1"/><rect height="1" x="137" y="36" width="1"/><rect x="138" y="36" width="1" height="1"/><rect x="139" y="36" width="1" height="1"/><rect x="140" y="36" width="1" height="1"/><rect x="141" y="36" width="1" height="1"/><rect y="36" width="1" height="1" x="142"/><rect x="145" y="36" width="1" height="1"/><rect height="1" x="146" y="36" width="1"/><rect y="36" width="2" height="1" x="147"/><rect x="149" y="36" width="1" height="1"/><rect height="1" x="150" y="36" width="1"/><rect y="36" width="1" height="1" x="151"/><rect x="155" y="36" width="1" height="1"/><rect height="1" x="156" y="36" width="1"/><rect x="157" y="36" width="1" height="1"/><rect x="158" y="36" width="1" height="1"/><rect x="161" y="36" width="1" height="1"/><rect height="1" x="162" y="36" width="2"/><rect x="164" y="36" width="1" height="1"/><rect y="36" width="1" height="1" x="165"/><rect width="1" height="1" x="166" y="36"/><rect height="1" x="169" y="36" width="1"/><rect width="1" height="1" x="170" y="36"/><rect x="174" y="36" width="2" height="1"/><rect x="176" y="36" width="1" height="1"/><rect x="3" y="37" width="1" height="1"/><rect x="4" y="37" width="1" height="1"/><rect x="5" y="37" width="49" height="2"/><rect x="54" y="37" width="1" height="1"/><rect x="55" y="37" width="1" height="1"/><rect y="38" width="1" height="1" x="3"/><rect x="4" y="38" width="49" height="2"/><rect width="1" height="1" x="54" y="38"/><rect x="55" y="38" width="1" height="1"/><rect x="2" y="39" width="1" height="1"/><rect x="3" y="39" width="50" height="1"/><rect x="53" y="39" width="1" height="1"/><rect x="54" y="39" width="1" height="1"/><rect width="1" height="1" x="1" y="40"/><rect x="2" y="40" width="50" height="1"/><rect x="52" y="40" width="1" height="1"/><rect x="53" y="40" width="1" height="1"/><rect y="41" width="1" height="1"/><rect x="1" y="41" width="1" height="1"/><rect x="2" y="41" width="49" height="1"/><rect height="1" x="51" y="41" width="1"/><rect height="1" x="52" y="41" width="1"/><rect width="1" height="1" y="42"/><rect x="1" y="42" width="50" height="1"/><rect x="51" y="42" width="1" height="1"/><rect width="1" height="1" x="52" y="42"/></g></svg>