<?xml version="1.0" encoding="utf-8"?>
<svg viewBox="0 0.023 91.229 90.978" xmlns="http://www.w3.org/2000/svg">
  <defs>
    <clipPath id="clippath8">
      <path d="M 0.06 90.978 L 325.16 90.978 L 325.16 0.06 L 0.06 0.06 Z" style="fill: none; clip-rule: nonzero;"/>
    </clipPath>
    <clipPath id="clippath9">
      <path d="M 0.06 90.978 L 325.16 90.978 L 325.16 0.06 L 0.06 0.06 Z" style="fill: none; clip-rule: nonzero;"/>
    </clipPath>
  </defs>
  <g>
    <g>
      <path d="M 14.573 67.213 C 14.176 68.045 13.17 68.401 12.338 68.004 L 0.954 62.572 C 0.121 62.175 -0.234 61.169 0.163 60.337 L 2.141 56.192 C 2.538 55.36 3.543 55.004 4.375 55.401 L 15.76 60.833 C 16.592 61.23 16.948 62.236 16.551 63.068 L 14.573 67.213 Z M 51.461 84.815 C 51.064 85.647 50.059 86.003 49.226 85.606 L 30.605 76.72 C 29.772 76.324 29.417 75.318 29.813 74.486 L 31.792 70.341 C 32.189 69.509 33.194 69.153 34.026 69.55 L 52.648 78.435 C 53.48 78.832 53.836 79.838 53.439 80.67 L 51.461 84.815" style="fill: rgb(255, 83, 67); fill-opacity: 1; clip-path: url(#clippath8);"/>
      <path d="M 59.421 20.681 C 59.023 21.513 58.018 21.869 57.186 21.472 L 38.666 12.635 C 37.834 12.238 37.478 11.233 37.875 10.401 L 39.853 6.255 C 40.25 5.423 41.255 5.067 42.087 5.464 L 60.607 14.301 C 61.439 14.699 61.796 15.704 61.398 16.536 L 59.421 20.681 Z M 89.089 34.839 C 88.692 35.671 87.687 36.027 86.855 35.63 L 75.452 30.189 C 74.62 29.792 74.264 28.786 74.661 27.954 L 76.639 23.809 C 77.036 22.977 78.042 22.621 78.874 23.018 L 90.276 28.459 C 91.108 28.856 91.464 29.862 91.067 30.694 L 89.089 34.839" style="fill: rgb(255, 83, 67); fill-opacity: 1;"/>
      <path d="M 32.174 30.325 C 31.777 31.157 30.772 31.513 29.939 31.116 L 18.555 25.684 C 17.723 25.287 17.367 24.281 17.764 23.449 L 19.742 19.304 C 20.139 18.472 21.145 18.116 21.977 18.513 L 33.361 23.945 C 34.193 24.342 34.549 25.348 34.152 26.18 L 32.174 30.325" style="fill: rgb(255, 83, 67); fill-opacity: 1;"/>
      <path d="M 69.063 47.927 C 68.666 48.759 67.66 49.115 66.828 48.718 L 48.207 39.832 C 47.375 39.435 47.019 38.43 47.416 37.597 L 49.394 33.452 C 49.791 32.62 50.796 32.264 51.629 32.661 L 70.25 41.547 C 71.082 41.944 71.438 42.95 71.041 43.782 L 69.063 47.927" style="fill: rgb(255, 83, 67); fill-opacity: 1;"/>
      <path d="M 71.51 71.739 C 71.113 72.571 70.107 72.927 69.275 72.529 L 57.85 67.077 C 57.018 66.68 56.662 65.675 57.059 64.843 L 59.037 60.697 C 59.434 59.866 60.439 59.509 61.271 59.906 L 72.697 65.358 C 73.529 65.755 73.885 66.761 73.488 67.593 L 71.51 71.739" style="fill: rgb(255, 83, 67); fill-opacity: 1;"/>
      <path d="M 41.818 57.57 C 41.421 58.403 40.415 58.758 39.583 58.361 L 21.006 49.497 C 20.174 49.1 19.818 48.094 20.215 47.262 L 22.193 43.117 C 22.59 42.284 23.596 41.928 24.428 42.326 L 43.005 51.19 C 43.837 51.587 44.193 52.593 43.796 53.425 L 41.818 57.57" style="fill: rgb(255, 83, 67); fill-opacity: 1;"/>
      <path d="M 12.682 52.553 C 12.285 53.385 11.28 53.741 10.448 53.344 L 6.301 51.365 C 5.469 50.968 5.113 49.963 5.51 49.131 L 14.395 30.511 C 14.792 29.679 15.797 29.323 16.63 29.719 L 20.776 31.698 C 21.608 32.095 21.964 33.101 21.567 33.933 L 12.682 52.553" style="fill: rgb(147, 222, 219); fill-opacity: 1; clip-path: url(#clippath9);"/>
      <path d="M 30.284 15.665 C 29.887 16.497 28.881 16.853 28.049 16.456 L 23.903 14.477 C 23.071 14.08 22.715 13.075 23.112 12.242 L 28.488 0.976 C 28.885 0.144 29.891 -0.212 30.723 0.185 L 34.869 2.164 C 35.701 2.561 36.057 3.566 35.66 4.399 L 30.284 15.665" style="fill: rgb(147, 222, 219); fill-opacity: 1; clip-path: url(#clippath9);"/>
      <path d="M 62.723 90.047 C 62.326 90.879 61.32 91.235 60.488 90.838 L 56.342 88.859 C 55.51 88.462 55.154 87.456 55.551 86.624 L 60.927 75.358 C 61.324 74.526 62.33 74.17 63.162 74.567 L 67.308 76.545 C 68.14 76.942 68.496 77.948 68.099 78.78 L 62.723 90.047" style="fill: rgb(147, 222, 219); fill-opacity: 1; clip-path: url(#clippath9);"/>
      <path d="M 76.816 60.512 C 76.419 61.344 75.414 61.7 74.582 61.303 L 70.435 59.324 C 69.603 58.927 69.247 57.922 69.644 57.09 L 78.529 38.469 C 78.926 37.637 79.932 37.281 80.764 37.678 L 84.911 39.657 C 85.743 40.053 86.099 41.059 85.702 41.891 L 76.816 60.512" style="fill: rgb(147, 222, 219); fill-opacity: 1;"/>
      <path d="M 67.173 33.267 C 66.776 34.099 65.771 34.455 64.938 34.058 L 60.792 32.079 C 59.959 31.682 59.604 30.676 60.001 29.845 L 65.377 18.578 C 65.773 17.746 66.779 17.39 67.611 17.787 L 71.758 19.766 C 72.59 20.163 72.946 21.169 72.549 22.001 L 67.173 33.267" style="fill: rgb(147, 222, 219); fill-opacity: 1;"/>
      <path d="M 49.571 70.155 C 49.174 70.987 48.169 71.343 47.337 70.946 L 43.19 68.967 C 42.357 68.571 42.001 67.565 42.399 66.733 L 51.284 48.113 C 51.681 47.28 52.687 46.925 53.519 47.321 L 57.665 49.3 C 58.497 49.697 58.853 50.703 58.456 51.535 L 49.571 70.155" style="fill: rgb(147, 222, 219); fill-opacity: 1;"/>
      <path d="M 25.835 72.445 C 25.438 73.277 24.432 73.633 23.6 73.236 L 19.453 71.257 C 18.621 70.86 18.265 69.854 18.662 69.022 L 24.038 57.756 C 24.436 56.924 25.441 56.568 26.273 56.965 L 30.42 58.943 C 31.252 59.34 31.608 60.346 31.211 61.178 L 25.835 72.445" style="fill: rgb(147, 222, 219); fill-opacity: 1;"/>
      <path d="M 39.928 42.91 C 39.531 43.742 38.525 44.098 37.693 43.701 L 33.547 41.722 C 32.714 41.325 32.359 40.32 32.755 39.488 L 41.641 20.867 C 42.038 20.035 43.043 19.679 43.876 20.076 L 48.022 22.054 C 48.854 22.451 49.21 23.457 48.813 24.289 L 39.928 42.91" style="fill: rgb(147, 222, 219); fill-opacity: 1;"/>
    </g>
  </g>
</svg>