<?xml version="1.0" encoding="UTF-8" standalone="no"?>
<svg
   xmlns:dc="http://purl.org/dc/elements/1.1/"
   xmlns:cc="http://creativecommons.org/ns#"
   xmlns:rdf="http://www.w3.org/1999/02/22-rdf-syntax-ns#"
   xmlns:svg="http://www.w3.org/2000/svg"
   xmlns="http://www.w3.org/2000/svg"
   id="svg609"
   version="1.1"
   viewBox="0.354 0.073 91.83 92.917">
  <metadata
     id="metadata613">
    <rdf:RDF>
      <cc:Work
         rdf:about="">
        <dc:format>image/svg+xml</dc:format>
        <dc:type
           rdf:resource="http://purl.org/dc/dcmitype/StillImage" />
        <dc:title></dc:title>
      </cc:Work>
    </rdf:RDF>
  </metadata>
  <defs
     id="defs593">
    <style
       id="style591"
       type="text/css">
	.st0{fill:#231F20;}
	.st1{fill:none;}
	.st2{fill:#24272A;}
	.st3{fill:#CC4599;}
	.st4{fill:#EF4C84;}
	.st5{fill:#FFFFFF;}
</style>
  </defs>
  <g
     id="g607">
    <path
       id="path595"
       d="M 41.5 42.96 L 35.97 53.52 C 35.33 54.74 33.82 55.21 32.6 54.57 C 31.38 53.93 30.91 52.42 31.55 51.2 L 41.43 32.35 L 71.56 87.75 L 75.72 87.75 L 58.11 54.91 L 41.5 24.43 L 24.44 55.75 L 7.01 87.75 L 41.5 87.75 L 65.86 87.75 L 41.5 42.96 Z M 46.97 42.51 L 48.57 45.49 L 46.96 42.52 L 46.97 42.51 Z"
       class="st1" />
    <path
       id="path597"
       d="M 81.06 92.99 C 81.08 92.99 81.1 92.99 81.12 92.99 L 80.95 92.99 C 80.99 92.99 81.03 92.99 81.06 92.99 Z"
       class="st3" />
    <polygon
       id="polygon599"
       points="46.97 42.51 46.96 42.52 48.57 45.49"
       class="st3" />
    <path
       id="path601"
       d="M 31.54 51.2 C 30.9 52.42 31.37 53.93 32.59 54.57 C 33.81 55.21 35.32 54.74 35.96 53.52 L 41.49 42.96 L 65.85 87.75 L 71.54 87.75 L 41.41 32.35 L 31.54 51.2 Z"
       class="st4" />
    <path
       id="path603"
       d="M 54.67 18.97 L 58.72 11.64 C 59.39 10.43 58.95 8.91 57.74 8.25 C 56.53 7.58 55.01 8.02 54.35 9.23 L 48.97 18.97 L 86.69 87.77 L 81.69 87.77 L 82.35 88.98 C 83.3 90.72 81.92 92.76 79.8 92.76 L 79.77 92.76 C 79.78 92.76 79.8 92.76 79.81 92.76 L 87.71 92.76 C 89.32 92.76 90.81 91.92 91.6 90.57 C 92.36 89.28 92.38 87.72 91.65 86.43 L 54.67 18.97 Z"
       class="st4" />
    <path
       id="path605"
       d="M 82.35 88.97 L 81.69 87.76 L 62.95 53.37 L 62.51 52.57 L 44.48 18.9 L 52.77 3.77 C 53.43 2.56 52.99 1.04 51.78 0.38 C 50.57 -0.28 49.05 0.16 48.39 1.37 L 38.81 18.87 L 38.83 18.91 L 20.05 53.37 L 0.66 88.97 C -0.29 90.71 1.09 92.75 3.21 92.75 L 41.5 92.75 L 79.77 92.75 L 79.8 92.75 C 81.92 92.75 83.29 90.71 82.35 88.97 Z M 7.01 87.75 L 24.44 55.75 L 41.5 24.43 L 58.1 54.91 L 75.71 87.76 L 71.55 87.76 L 65.86 87.76 L 41.5 87.76 L 7.01 87.76 Z"
       class="st3" />
  </g>
</svg>
