<svg id="Layer_1" data-name="Layer 1" xmlns="http://www.w3.org/2000/svg" viewBox="0 0 334.48 96.49"><defs><style>.cls-1{fill:#24272a;}.cls-2{fill:#00b37e;}</style></defs><title>HL_Avalon_Logo</title><polygon class="cls-1" points="124.09 21.91 132.81 21.86 132.86 30.66 137.35 30.64 137.25 10.27 132.75 10.29 132.79 17.89 124.07 17.93 124.03 10.34 119.53 10.36 119.64 30.74 124.13 30.71 124.09 21.91"/><polygon class="cls-1" points="148.24 30.72 152.73 30.7 152.69 22.01 160.28 10.28 154.96 10.31 150.42 17.96 146.06 10.36 140.47 10.39 148.19 22.03 148.24 30.72"/><path class="cls-1" d="M168,30.69l0-8h3.28a14.84,14.84,0,0,0,3-.32,6.36,6.36,0,0,0,2.38-1,4.91,4.91,0,0,0,1.57-1.93,7,7,0,0,0,.57-3,6.54,6.54,0,0,0-.64-3,5.13,5.13,0,0,0-1.68-1.89,6.87,6.87,0,0,0-2.47-1,15.13,15.13,0,0,0-3-.28l-7.57,0,.11,20.38Zm2.22-16.59a12.09,12.09,0,0,1,1.32.06,4.48,4.48,0,0,1,1.26.32,2.47,2.47,0,0,1,.92.74,2.06,2.06,0,0,1,.37,1.25,2.38,2.38,0,0,1-.27,1.19,2.05,2.05,0,0,1-.71.75,3.1,3.1,0,0,1-1,.4,5.59,5.59,0,0,1-1.17.12h-3l0-4.83Z"/><polygon class="cls-1" points="196.38 30.65 196.36 26.51 186.48 26.56 186.46 22.41 195.3 22.37 195.28 18.22 186.43 18.27 186.41 14.47 195.77 14.42 195.75 10.28 181.9 10.35 182.01 30.73 196.38 30.65"/><path class="cls-1" d="M210.57,30.65l5.39,0-5.23-8.57A5.06,5.06,0,0,0,214,20.12a6,6,0,0,0,1.1-3.68,6.35,6.35,0,0,0-.63-3,5.13,5.13,0,0,0-1.68-1.89,7,7,0,0,0-2.46-1,13.93,13.93,0,0,0-3-.29l-7.89,0,.11,20.38,4.49,0,0-8.15h2.22ZM204,18.74l0-4.63,2.94,0a10.46,10.46,0,0,1,1.24.08,3.83,3.83,0,0,1,1.13.33,2,2,0,0,1,1.13,1.94,2.13,2.13,0,0,1-.35,1.29,2.05,2.05,0,0,1-.91.68,3.83,3.83,0,0,1-1.22.27c-.45,0-.88.05-1.28.05Z"/><polygon class="cls-1" points="231.89 30.62 231.86 26.48 223.54 26.52 223.45 10.29 218.96 10.31 219.07 30.69 231.89 30.62"/><polygon class="cls-1" points="249.48 30.64 249.46 26.5 239.58 26.55 239.56 22.4 248.4 22.36 248.38 18.21 239.54 18.26 239.52 14.46 248.88 14.41 248.85 10.27 235 10.34 235.11 30.71 249.48 30.64"/><path class="cls-1" d="M268,28a9.31,9.31,0,0,0,2.5-3.18,9.71,9.71,0,0,0,.92-4.36,10.72,10.72,0,0,0-1-4.75,8.67,8.67,0,0,0-2.63-3.16A10.45,10.45,0,0,0,264,10.82a19.08,19.08,0,0,0-4.66-.52l-6.74,0,.11,20.38,7.35,0a14.23,14.23,0,0,0,4.34-.69A11,11,0,0,0,268,28Zm-8.53-1.49h-2.34l-.06-12.09h2.65a10,10,0,0,1,2.7.34,6.6,6.6,0,0,1,2.23,1.07,5.08,5.08,0,0,1,1.52,1.82,5.76,5.76,0,0,1,.58,2.6,6.78,6.78,0,0,1-.55,2.93,5,5,0,0,1-1.53,1.93,6.15,6.15,0,0,1-2.31,1.07A13.17,13.17,0,0,1,259.51,26.53Z"/><path class="cls-1" d="M286.14,18.6l0,4.14,3.66,0,0,3.32a9.78,9.78,0,0,1-1.7.68,8.56,8.56,0,0,1-2.53.34,6.63,6.63,0,0,1-2.61-.47,5.86,5.86,0,0,1-2-1.36,6,6,0,0,1-1.29-2.06,7.19,7.19,0,0,1-.46-2.63,7.43,7.43,0,0,1,.43-2.62,6,6,0,0,1,1.27-2.1,6,6,0,0,1,2-1.38,6.64,6.64,0,0,1,2.61-.5,7.36,7.36,0,0,1,2.88.47,6.45,6.45,0,0,1,2.08,1.43l3.15-3.47a8.92,8.92,0,0,0-3.62-2,16.54,16.54,0,0,0-4.51-.56,12.21,12.21,0,0,0-4.4.77,9.84,9.84,0,0,0-3.48,2.16,9.72,9.72,0,0,0-2.27,3.39,11.51,11.51,0,0,0-.8,4.44,11.62,11.62,0,0,0,.84,4.43,9.92,9.92,0,0,0,2.31,3.37,10.17,10.17,0,0,0,3.5,2.12,12.34,12.34,0,0,0,4.41.73,20.82,20.82,0,0,0,4.4-.49,16.33,16.33,0,0,0,4.14-1.51l-.05-10.65Z"/><polygon class="cls-1" points="311.77 30.17 311.74 26.03 301.87 26.08 301.84 21.93 310.69 21.89 310.66 17.74 301.82 17.79 301.8 13.99 311.16 13.94 311.14 9.8 297.29 9.87 297.39 30.25 311.77 30.17"/><path class="cls-1" d="M319.48,30.21l-.05-8.15h2.22L326,30.17l5.38,0-5.23-8.57a5.08,5.08,0,0,0,3.28-1.93,6,6,0,0,0,1.1-3.68,6.48,6.48,0,0,0-.63-3,5.13,5.13,0,0,0-1.68-1.89,7.22,7.22,0,0,0-2.46-1,14,14,0,0,0-3-.29l-7.89,0L315,30.23Zm2.85-16.6a10.73,10.73,0,0,1,1.24.08,3.68,3.68,0,0,1,1.12.33,2,2,0,0,1,.81.7,2.22,2.22,0,0,1,.33,1.24,1.93,1.93,0,0,1-1.26,2,3.89,3.89,0,0,1-1.22.27c-.45,0-.88.05-1.28.05h-2.65l0-4.63Z"/><path class="cls-2" d="M43.09,52.92a5.24,5.24,0,0,1-2.26,3.64c1.1,1.37,2.07,2.51,2.68,3.11a.87.87,0,0,0,.6.33c.93,0,1.28-2.72,1.09-5.85A5.27,5.27,0,0,1,43.09,52.92Z"/><path class="cls-2" d="M57.38,61a2.39,2.39,0,0,0,.7-.12c6.48-2,8.08-4.79,8.39-6.55a5.23,5.23,0,0,1-8-.9,5.18,5.18,0,0,1-3,.91h-.16C55.13,57.36,55.25,61,57.38,61Z"/><path class="cls-2" d="M98,50.18c-.52-13.09-5.53-24.92-14.12-33.29A46.59,46.59,0,0,0,51.1,4,47.1,47.1,0,0,0,26.54,91.29l.06,0A14.25,14.25,0,0,0,30,92.65a8.84,8.84,0,0,0,6.09-.44,7.42,7.42,0,0,0,3.52-3.93,13.16,13.16,0,0,0,.87-3.37c1.76-7.83,2.12-17.06,1.33-20.43-.46-2-2-4.49-3.79-7h-.13a4.19,4.19,0,0,1,0,.5,5.25,5.25,0,0,1-9.28,3.37,5.25,5.25,0,1,1-4.51-8.59,5.23,5.23,0,0,1,1.66-5.56,5.25,5.25,0,0,1,4.08-8.55l.28,0a5.24,5.24,0,0,1,4.54-6.91,5.31,5.31,0,0,1-.39-2,5.25,5.25,0,0,1,8.15-4.38,5.23,5.23,0,0,1,8.14-1.58,5.25,5.25,0,0,1,10.15.71h.08a5.25,5.25,0,0,1,5.25,5.25,5.32,5.32,0,0,1-.14,1.2A5.28,5.28,0,0,1,68.64,33a5.24,5.24,0,0,1,6.9,5,5.17,5.17,0,0,1-.39,2,5.25,5.25,0,0,1,3.47,4.94A5.8,5.8,0,0,1,78.5,46a4.56,4.56,0,0,1,.75-.06,5.25,5.25,0,0,1,0,10.5A5.18,5.18,0,0,1,76,55.32a5.23,5.23,0,0,1-7.2,1.9c-4,8-12.68,4.41-12.78,16.32,0,3.36,1.29,8.53,3,13.18h0a.05.05,0,0,1,0,0h0c.1.28.2.56.31.83A9.44,9.44,0,0,0,62.78,92l0,0a8.15,8.15,0,0,0,.75.44l.06,0c.18.1.36.18.54.26l.13,0a4.24,4.24,0,0,0,.5.18L65,93l.47.13.23,0a3.55,3.55,0,0,0,.47.09l.24,0,.51.05.22,0,.75,0A11.81,11.81,0,0,0,69,93.39c.31,0,.63-.07,1-.13,6.06-1.09,13.29-6.58,18.85-14.36C95.16,70.11,98.42,59.91,98,50.18ZM69.16,88.57c-2.91.52-4.7-.53-5.61-3.33h0C62,81.17,60.76,76.5,60.79,73.58c0-4.21.93-4.7,3.91-6.32a20.51,20.51,0,0,0,6.15-4.57l.62,0A10,10,0,0,0,77.09,61a9.8,9.8,0,0,0,2.16.24,10,10,0,0,0,3.66-19.33,10,10,0,0,0-2.62-4.2A10,10,0,0,0,70.66,28a10,10,0,0,0-6.51-7.68A10,10,0,0,0,49,17.89a9.69,9.69,0,0,0-1.86-.18A10,10,0,0,0,41,19.83a9.59,9.59,0,0,0-1.42-.1,10,10,0,0,0-10,8.89A10.14,10.14,0,0,0,25.29,35a10,10,0,0,0-5.45,8.91,9.77,9.77,0,0,0,.39,2.75,10.13,10.13,0,0,0-1,2.84,10,10,0,0,0,9.35,17.66,10.05,10.05,0,0,0,8.71-.32,61.31,61.31,0,0,1-.87,13.74,52.15,52.15,0,0,1-1.33,6A2.74,2.74,0,0,1,33.94,88c-1.54.78-4.14-.29-5-.74A42.34,42.34,0,0,1,51.1,8.76,41.88,41.88,0,0,1,80.6,20.29c7.71,7.52,12.22,18.21,12.68,30.08C94.05,70.15,78.1,87,69.16,88.57Z"/><path class="cls-2" d="M145.8,87.33l-3.64-9.19H121.69l-3.64,9.19h-5.86L128.78,46.2h6.35l16.53,41.13ZM131.92,51.44l-8.69,22.2h17.45Z"/><path class="cls-2" d="M162.32,87.33,145.74,46.2h5.86l13.87,35.51L179.34,46.2h5.86L168.68,87.33Z"/><path class="cls-2" d="M212.89,87.33l-3.64-9.19H188.78l-3.64,9.19h-5.86L195.87,46.2h6.35l16.53,41.13ZM199,51.44l-8.69,22.2h17.45Z"/><path class="cls-2" d="M222.2,87.33V46.2h5.12V82.76h19.11v4.57Z"/><path class="cls-2" d="M247.05,66.79c0-12.15,8.26-21.27,20.41-21.27s20.47,9.12,20.47,21.27-8.32,21.28-20.47,21.28S247.05,78.94,247.05,66.79Zm35.58,0c0-9.62-6-16.71-15.17-16.71s-15.11,7.09-15.11,16.71,5.86,16.71,15.11,16.71S282.63,76.35,282.63,66.79Z"/><path class="cls-2" d="M323.76,87.33l-24-32.81V87.33h-5.12V46.2h5.24l23.68,32.12V46.2h5.12V87.33Z"/></svg>