<?xml version="1.0" encoding="UTF-8" standalone="no"?>
<svg
   xmlns:dc="http://purl.org/dc/elements/1.1/"
   xmlns:cc="http://creativecommons.org/ns#"
   xmlns:rdf="http://www.w3.org/1999/02/22-rdf-syntax-ns#"
   xmlns:svg="http://www.w3.org/2000/svg"
   xmlns="http://www.w3.org/2000/svg"
   id="svg87"
   version="1.1"
   viewBox="225.51 0.69 102.86 91.702">
  <metadata
     id="metadata91">
    <rdf:RDF>
      <cc:Work
         rdf:about="">
        <dc:format>image/svg+xml</dc:format>
        <dc:type
           rdf:resource="http://purl.org/dc/dcmitype/StillImage" />
        <dc:title></dc:title>
      </cc:Work>
    </rdf:RDF>
  </metadata>
  <defs
     id="defs81">
    <style
       id="style79"
       type="text/css">
	.st0{fill:#35813F;}
	.st1{fill:#24272A;}
</style>
  </defs>
  <g
     id="g85">
    <path
       id="path83"
       d="M 327.38 11.9 C 326.69 10.03 325.57 8.24 324.13 6.79 C 322.7 5.33 321.03 4.18 319.29 3.32 C 317.55 2.47 315.76 1.88 313.98 1.47 C 312.2 1.07 310.44 0.85 308.69 0.73 C 306.81 0.62 304.85 0.74 302.97 1.08 C 299.19 1.74 295.65 3.24 292.59 5.15 C 289.5 7.05 286.81 9.33 284.41 11.76 C 281.98 14.18 279.89 16.81 277.95 19.49 C 276.71 21.22 275.55 22.99 274.46 24.79 C 273.28 23.11 271.99 21.49 270.57 19.97 C 265.85 14.97 259.92 10.96 253.28 8.75 C 251.62 8.19 249.93 7.74 248.14 7.44 C 247.7 7.36 247.23 7.3 246.76 7.24 L 246 7.16 L 245.55 7.13 L 245.21 7.12 C 244.31 7.08 243.37 7.08 242.44 7.14 C 240.57 7.26 238.65 7.59 236.76 8.24 C 234.87 8.88 232.99 9.86 231.4 11.23 C 229.79 12.57 228.5 14.27 227.58 16.04 C 226.67 17.82 226.14 19.66 225.84 21.45 C 225.53 23.24 225.46 24.99 225.54 26.68 C 225.62 28.38 225.77 29.99 226.14 31.72 C 226.51 33.41 227.05 35.12 227.91 36.71 C 228.75 38.3 229.93 39.78 231.36 40.89 C 232.79 42.01 234.44 42.76 236.1 43.13 C 237.78 43.47 239.41 43.55 241.08 43.22 L 240.98 41.96 C 239.6 41.76 238.17 41.32 236.99 40.65 C 235.79 40 234.75 39.17 234 38.16 C 232.48 36.15 231.92 33.64 231.89 31 C 231.9 29.7 231.96 28.26 232.13 26.92 C 232.3 25.57 232.57 24.28 232.95 23.11 C 233.73 20.74 234.98 18.97 236.6 17.99 C 238.2 16.98 240.31 16.54 242.67 16.65 C 243.26 16.67 243.84 16.72 244.46 16.8 L 244.69 16.83 C 244.81 16.84 244.71 16.84 244.8 16.86 L 245.17 16.95 C 245.44 17.02 245.73 17.09 246.03 17.18 C 247.21 17.54 248.43 17.98 249.62 18.5 C 254.37 20.63 258.69 23.78 262.2 27.74 C 264.53 30.35 266.6 33.23 268.5 36.31 C 268.48 36.36 268.45 36.41 268.43 36.46 C 265.85 42.33 263.79 48.37 262.16 54.54 C 261.36 57.63 260.65 60.75 260.08 63.94 C 259.52 67.14 259.06 70.35 258.94 73.91 C 258.86 75.75 259.04 77.62 259.39 79.51 C 259.75 81.4 260.34 83.33 261.33 85.21 C 262.31 87.08 263.71 88.92 265.68 90.33 C 266.67 91.02 267.78 91.61 268.98 91.97 C 270.19 92.33 271.47 92.47 272.7 92.35 C 275.18 92.13 277.29 90.96 278.74 89.54 C 280.22 88.12 281.19 86.5 281.92 84.89 C 283.35 81.64 283.85 78.38 284.19 75.15 C 284.37 73.53 284.48 71.9 284.44 70.38 C 284.44 68.83 284.53 67.27 284.47 65.72 C 284.48 62.6 284.37 59.47 284.2 56.31 C 283.86 51.01 283.13 45.63 281.67 40.33 C 283.8 35.65 286.15 31.1 288.81 26.89 C 291.79 22.21 295.21 17.9 299.15 14.87 C 301.12 13.36 303.19 12.22 305.35 11.54 C 306.44 11.21 307.53 10.99 308.69 10.88 C 309.99 10.78 311.27 10.76 312.5 10.84 C 317.45 11.15 321.29 13.14 322.29 18.03 C 322.77 20.4 322.58 23.18 321.73 25.83 C 320.93 28.51 319.52 31.1 317.63 33.42 L 318.46 34.38 C 321.18 32.71 323.52 30.34 325.3 27.51 C 327.03 24.67 328.3 21.33 328.37 17.61 C 328.36 15.72 328.08 13.78 327.38 11.9 Z M 271.65 83.62 C 271.35 82.98 271.11 82.17 270.93 81.23 C 270.76 80.29 270.66 79.23 270.65 78.1 C 270.63 76.96 270.75 75.77 270.84 74.58 C 271.1 72.06 271.66 69.25 272.34 66.49 C 273.03 63.72 273.82 60.93 274.72 58.18 C 275.23 56.59 275.77 55.01 276.34 53.43 C 276.35 53.45 276.35 53.48 276.36 53.5 C 276.78 55.06 282.82 77.72 277 83.81 C 276.47 84.31 275.9 84.72 275.33 84.97 C 274.36 85.37 273.46 85.35 272.88 85.03 C 272.3 84.73 271.97 84.24 271.65 83.62 Z"
       class="st0" />
  </g>
</svg>
