<?xml version="1.0" encoding="UTF-8" standalone="no"?>
<svg
   xmlns:dc="http://purl.org/dc/elements/1.1/"
   xmlns:cc="http://creativecommons.org/ns#"
   xmlns:rdf="http://www.w3.org/1999/02/22-rdf-syntax-ns#"
   xmlns:svg="http://www.w3.org/2000/svg"
   xmlns="http://www.w3.org/2000/svg"
   viewBox="0 0 435.73334 122.24"
   height="122.24"
   width="435.73334"
   xml:space="preserve"
   id="svg2"
   version="1.1"><metadata
     id="metadata8"><rdf:RDF><cc:Work
         rdf:about=""><dc:format>image/svg+xml</dc:format><dc:type
           rdf:resource="http://purl.org/dc/dcmitype/StillImage" /></cc:Work></rdf:RDF></metadata><defs
     id="defs6" /><g
     transform="matrix(1.3333333,0,0,-1.3333333,0,122.24)"
     id="g10"><g
       transform="scale(0.1)"
       id="g12"><path
         id="path14"
         style="fill:#358137;fill-opacity:1;fill-rule:nonzero;stroke:none"
         d="m 743.555,554.859 c 13.535,17.442 14.082,40.606 17.988,61.414 1.906,-20.988 -0.547,-45.609 15.262,-62.226 18.621,-18.356 46.875,-15.359 71.039,-16.809 -23.258,-3.633 -49.055,-3.363 -68.496,-18.168 -18.899,-16.988 -16.262,-44.699 -17.899,-67.769 -3.902,22.711 -3.633,48.597 -19.984,66.496 -16.352,14.172 -39.336,14.535 -59.406,18.894 21.074,2.27 46.144,0.821 61.496,18.168" /><path
         id="path16"
         style="fill:#358137;fill-opacity:1;fill-rule:nonzero;stroke:none"
         d="m 461.574,87.4883 c -2.965,6.4258 -5.441,14.4807 -7.179,23.9067 -1.688,9.402 -2.668,20.039 -2.801,31.335 -0.227,11.368 0.965,23.262 1.871,35.208 2.57,25.187 8.23,53.3 15.012,80.847 6.851,27.707 14.793,55.559 23.781,83.106 5.105,15.91 10.547,31.718 16.16,47.48 0.074,-0.234 0.145,-0.469 0.215,-0.703 4.246,-15.586 64.558,-242.234 6.398,-303.1446 -5.273,-5.0078 -10.953,-9.0703 -16.691,-11.5625 -9.731,-4.0312 -18.731,-3.7695 -24.477,-0.6132 -5.816,3.1054 -9.121,7.9687 -12.289,14.1406 z M 1018.83,804.691 c -6.91,18.731 -18.11,36.622 -32.467,51.094 -14.281,14.57 -31.019,26.102 -48.386,34.653 -17.407,8.496 -35.309,14.355 -53.075,18.496 -17.781,4.011 -35.441,6.211 -52.851,7.41 -18.832,1.121 -38.403,-0.059 -57.199,-3.449 -37.829,-6.641 -73.18,-21.571 -103.817,-40.676 -30.89,-18.965 -57.781,-41.832 -81.82,-66.141 -24.258,-24.226 -45.211,-50.496 -64.613,-77.262 -12.442,-17.328 -24.004,-35.039 -34.938,-53.011 -11.812,16.824 -24.684,33.031 -38.945,48.215 -47.203,49.992 -106.481,90.125 -172.864,112.179 -16.589,5.614 -33.542,10.137 -51.468,13.114 -4.446,0.796 -9.063,1.421 -13.821,2.023 l -7.636,0.789 -4.528,0.328 -3.382,0.149 c -8.997,0.418 -18.372,0.382 -27.707,-0.192 -18.68,-1.207 -37.852,-4.523 -56.797,-11.039 C 93.6641,834.938 74.8438,825.141 58.918,811.449 42.793,798.023 29.9063,781.027 20.7578,763.371 11.707,745.598 6.38281,727.137 3.3125,709.27 0.230469,691.359 -0.460938,673.875 0.269531,656.926 1.10547,639.945 2.55078,623.82 6.27734,606.578 9.96094,589.637 15.4063,572.57 24.0156,556.652 c 8.375,-15.933 20.1641,-30.687 34.5274,-41.761 14.25,-11.243 30.7929,-18.688 47.383,-22.438 16.82,-3.426 33.133,-4.16 49.773,-0.867 l -1.035,12.644 c -13.785,2.016 -28.051,6.426 -39.922,13.059 -12.027,6.484 -22.367,14.793 -29.8826,24.895 -15.1758,20.07 -20.8086,45.214 -21.0938,71.648 0.0782,12.981 0.7149,27.371 2.3946,40.809 1.7265,13.461 4.3671,26.398 8.2109,38.144 7.8477,23.676 20.3359,41.426 36.4919,51.246 16.008,10.063 37.153,14.489 60.735,13.395 5.882,-0.168 11.75,-0.656 17.914,-1.504 l 2.308,-0.305 c 1.227,-0.133 0.211,-0.101 1.149,-0.269 l 3.664,-0.879 c 2.734,-0.703 5.613,-1.426 8.578,-2.344 11.816,-3.555 24.027,-8.027 35.891,-13.207 47.484,-21.305 90.671,-52.82 125.82,-92.449 23.285,-26.055 44.047,-54.922 62.984,-85.735 -0.222,-0.496 -0.457,-0.992 -0.676,-1.488 -25.816,-58.73 -46.398,-119.101 -62.742,-180.793 -8.023,-30.906 -15.148,-62.098 -20.793,-93.984 -5.566,-32.031 -10.164,-64.11 -11.425,-99.727 -0.813,-18.445 1.046,-37.097 4.535,-55.957 3.593,-18.887 9.457,-38.203 19.367,-56.9608 9.789,-18.664 23.773,-37.1289 43.469,-51.164 9.855,-6.9532 20.957,-12.82036 33.039,-16.43364 12.07,-3.593747 24.894,-4.992185 37.195,-3.828122 24.852,2.167972 45.871,13.925762 60.383,28.132862 14.808,14.1914 24.496,30.4492 31.793,46.5546 14.285,32.5001 19.285,65.1441 22.73,97.4021 1.77,16.18 2.879,32.461 2.524,47.676 -0.012,15.508 0.929,31.055 0.34,46.629 0.054,31.184 -0.973,62.52 -2.715,94.125 -3.426,52.977 -10.735,106.809 -25.34,159.816 21.32,46.848 44.754,92.301 71.351,134.446 29.786,46.789 64.043,89.883 103.36,120.179 19.652,15.094 40.414,26.465 62.015,33.266 10.887,3.324 21.754,5.48 33.372,6.563 13.019,1.027 25.824,1.195 38.109,0.402 49.492,-3.145 87.902,-23.008 97.902,-71.902 4.824,-23.684 2.903,-51.454 -5.636,-77.961 -8.047,-26.813 -22.122,-52.696 -41.02,-75.856 l 8.27,-9.625 c 27.171,16.652 50.57,40.426 68.421,68.715 17.286,28.437 30.036,61.824 30.656,99.051 0.27,18.504 -2.56,37.922 -9.56,56.679" /><path
         id="path18"
         style="fill:#232325;fill-opacity:1;fill-rule:nonzero;stroke:none"
         d="m 1201.62,720.305 87.02,0.465 0.47,-87.793 44.78,0.214 -1.06,203.153 -44.8,-0.223 0.41,-75.762 -87.02,-0.445 -0.41,75.742 -44.79,-0.242 1.07,-203.152 44.8,0.246 -0.47,87.797" /><path
         id="path20"
         style="fill:#232325;fill-opacity:1;fill-rule:nonzero;stroke:none"
         d="m 1442.41,632.406 44.78,0.239 -0.45,86.648 75.77,116.891 -53.13,-0.258 -45.25,-76.281 -43.48,75.812 -55.71,-0.293 77.02,-116.098 0.45,-86.66" /><path
         id="path22"
         style="fill:#232325;fill-opacity:1;fill-rule:nonzero;stroke:none"
         d="m 1661.83,798.148 c 4.21,0.04 8.62,-0.187 13.22,-0.632 4.6,-0.45 8.79,-1.547 12.5,-3.223 3.75,-1.707 6.82,-4.129 9.25,-7.277 2.39,-3.145 3.6,-7.317 3.64,-12.469 0.01,-4.785 -0.86,-8.754 -2.67,-11.914 -1.8,-3.164 -4.17,-5.653 -7.12,-7.5 -2.98,-1.824 -6.31,-3.164 -10.03,-3.926 -3.75,-0.785 -7.6,-1.199 -11.64,-1.211 l -29.86,-0.148 -0.26,48.191 z m -22.11,-165.382 -0.41,79.203 32.74,0.164 c 10.72,0.062 20.66,1.117 29.86,3.187 9.18,2.047 17.09,5.469 23.78,10.289 6.67,4.836 11.9,11.262 15.7,19.301 3.77,8.082 5.63,18.024 5.58,29.899 -0.07,12.039 -2.17,22.039 -6.34,29.953 -4.16,7.906 -9.75,14.176 -16.74,18.855 -7.03,4.633 -15.25,7.891 -24.63,9.746 -9.38,1.883 -19.35,2.778 -29.87,2.715 l -75.54,-0.387 1.09,-203.148 44.78,0.223" /><path
         id="path24"
         style="fill:#232325;fill-opacity:1;fill-rule:nonzero;stroke:none"
         d="m 1922.37,633.098 -0.21,41.3 -98.5,-0.5 -0.22,41.325 88.17,0.468 -0.21,41.325 -88.16,-0.469 -0.21,37.859 93.33,0.5 -0.22,41.321 -138.11,-0.723 1.05,-203.149 143.29,0.743" /><path
         id="path26"
         style="fill:#232325;fill-opacity:1;fill-rule:nonzero;stroke:none"
         d="m 1998.65,751.859 -0.24,46.176 29.3,0.145 c 4.02,0.039 8.13,-0.223 12.34,-0.774 4.2,-0.562 7.97,-1.617 11.22,-3.25 3.26,-1.617 5.96,-3.937 8.07,-6.988 2.12,-3.039 3.19,-7.152 3.23,-12.328 0.02,-5.547 -1.15,-9.844 -3.52,-12.914 -2.38,-3.074 -5.38,-5.348 -9.01,-6.797 -3.63,-1.469 -7.7,-2.324 -12.19,-2.641 -4.49,-0.312 -8.77,-0.484 -12.77,-0.5 z m 65.22,-118.761 53.71,0.285 -52.16,85.531 c 14.38,2.754 25.25,9.149 32.64,19.242 7.42,10.102 11.09,22.317 11.02,36.672 -0.07,11.828 -2.17,21.723 -6.34,29.649 -4.15,7.91 -9.74,14.199 -16.73,18.855 -7.04,4.633 -15.18,7.949 -24.48,9.902 -9.26,1.969 -19.11,2.922 -29.43,2.868 l -78.67,-0.43 1.03,-203.149 44.8,0.243 -0.43,81.207 22.14,0.117 42.9,-80.992" /><path
         id="path28"
         style="fill:#232325;fill-opacity:1;fill-rule:nonzero;stroke:none"
         d="m 2276.41,633.395 -0.24,41.324 -83,-0.434 -0.85,161.832 -44.78,-0.226 1.06,-203.149 127.81,0.653" /><path
         id="path30"
         style="fill:#232325;fill-opacity:1;fill-rule:nonzero;stroke:none"
         d="m 2451.82,633.23 -0.22,41.305 -98.5,-0.5 -0.23,41.324 88.19,0.465 -0.23,41.297 -88.15,-0.437 -0.21,37.859 93.32,0.496 -0.21,41.324 -138.13,-0.722 1.08,-203.149 143.29,0.738" /><path
         id="path32"
         style="fill:#232325;fill-opacity:1;fill-rule:nonzero;stroke:none"
         d="m 2551.79,674.223 -23.27,-0.133 -0.64,120.527 26.42,0.145 c 9.38,0.039 18.36,-1.098 26.88,-3.461 8.5,-2.328 15.97,-5.875 22.3,-10.629 6.35,-4.762 11.4,-10.793 15.16,-18.145 3.78,-7.355 5.7,-16.007 5.76,-25.949 0.05,-11.484 -1.77,-21.199 -5.45,-29.144 -3.7,-7.969 -8.79,-14.414 -15.28,-19.305 -6.47,-4.918 -14.16,-8.434 -23.05,-10.613 -8.88,-2.141 -18.51,-3.235 -28.83,-3.293 z m 85.08,-14.891 c 10.47,8.543 18.79,19.117 24.95,31.68 6.16,12.547 9.19,27.066 9.1,43.523 -0.08,18.555 -3.38,34.301 -9.85,47.297 -6.5,12.996 -15.22,23.488 -26.17,31.563 -10.94,8.062 -23.78,13.906 -38.43,17.46 -14.66,3.543 -30.15,5.286 -46.41,5.192 l -67.2,-0.352 1.09,-203.144 73.22,0.387 c 15.11,0.074 29.55,2.343 43.33,6.835 13.76,4.461 25.87,10.977 36.37,19.559" /><path
         id="path34"
         style="fill:#232325;fill-opacity:1;fill-rule:nonzero;stroke:none"
         d="m 2817.33,753.273 0.19,-41.324 36.48,0.188 0.17,-33.008 c -4.2,-2.324 -9.84,-4.594 -16.89,-6.832 -7.08,-2.231 -15.49,-3.363 -25.27,-3.422 -9.56,-0.039 -18.25,1.527 -26.01,4.73 -7.77,3.223 -14.46,7.727 -20.04,13.547 -5.58,5.789 -9.86,12.661 -12.87,20.59 -3.02,7.91 -4.52,16.645 -4.59,26.227 -0.05,9.363 1.38,18.074 4.3,26.113 2.94,8.059 7.15,15.023 12.66,20.906 5.55,5.86 12.17,10.407 19.9,13.715 7.75,3.293 16.4,4.977 25.97,5.016 11.48,0.07 21.07,-1.512 28.73,-4.715 7.68,-3.215 14.6,-7.969 20.76,-14.254 l 31.4,34.598 c -10.38,9.519 -22.45,16.191 -36.14,20.054 -13.71,3.848 -28.71,5.723 -44.98,5.629 -15.89,-0.066 -30.53,-2.636 -43.86,-7.699 -13.41,-5.027 -24.95,-12.211 -34.65,-21.539 -9.74,-9.344 -17.27,-20.629 -22.68,-33.836 -5.37,-13.238 -8.03,-27.969 -7.94,-44.23 0.09,-16.27 2.88,-30.969 8.41,-44.168 5.54,-13.164 13.2,-24.36 23.03,-33.586 9.81,-9.231 21.42,-16.282 34.84,-21.2 13.43,-4.894 28.1,-7.289 43.99,-7.222 14.93,0.078 29.56,1.676 43.9,4.824 14.34,3.129 28.1,8.188 41.27,15.152 l -0.55,106.176 -79.53,-0.43" /><path
         id="path36"
         style="fill:#232325;fill-opacity:1;fill-rule:nonzero;stroke:none"
         d="m 3072.81,637.926 -0.22,41.304 -98.48,-0.523 -0.22,41.34 88.16,0.469 -0.21,41.304 -88.18,-0.449 -0.19,37.859 93.32,0.508 -0.21,41.301 -138.11,-0.723 1.06,-203.148 143.28,0.758" /><path
         id="path38"
         style="fill:#232325;fill-opacity:1;fill-rule:nonzero;stroke:none"
         d="m 3178.13,802.984 c 4.04,0.016 8.13,-0.226 12.36,-0.8 4.19,-0.547 7.95,-1.621 11.2,-3.246 3.28,-1.622 5.98,-3.946 8.11,-6.997 2.1,-3.031 3.18,-7.148 3.22,-12.324 0.01,-5.547 -1.16,-9.844 -3.55,-12.914 -2.38,-3.074 -5.38,-5.348 -9,-6.777 -3.63,-1.485 -7.7,-2.34 -12.18,-2.664 -4.5,-0.293 -8.77,-0.481 -12.77,-0.481 l -26.43,-0.148 -0.23,46.183 z m -28.43,-165.441 -0.42,81.203 22.11,0.117 42.93,-80.968 53.7,0.277 -52.14,85.516 c 14.36,2.769 25.23,9.175 32.65,19.246 7.39,10.105 11.07,22.312 10.99,36.668 -0.07,11.836 -2.18,21.738 -6.32,29.652 -4.17,7.93 -9.73,14.215 -16.75,18.855 -7.03,4.637 -15.17,7.954 -24.47,9.903 -9.3,1.996 -19.11,2.918 -29.44,2.863 l -78.67,-0.41 1.05,-203.137 44.78,0.215" /><path
         id="path40"
         style="fill:#358137;fill-opacity:1;fill-rule:nonzero;stroke:none"
         d="m 1309.71,422.75 -86.77,-221.543 h 174.16 z m 138.46,-358.1523 -36.31,91.6873 h -204.31 l -36.3,-91.6873 h -58.47 l 165.55,410.4653 h 63.38 L 1506.63,64.5977 h -58.46" /><path
         id="path42"
         style="fill:#358137;fill-opacity:1;fill-rule:nonzero;stroke:none"
         d="m 1801.43,351.363 c 0,46.77 -33.86,78.157 -82.47,78.157 H 1611.27 V 272.594 h 107.69 c 48.61,0 82.47,32.617 82.47,78.769 z M 1797.74,64.5977 1693.73,227.672 h -82.46 V 64.5977 h -51.08 V 475.063 h 164.93 c 75.08,0 129.24,-48.004 129.24,-123.7 0,-73.847 -51.09,-114.461 -107.09,-119.383 L 1858.05,64.5977 h -60.31" /><path
         id="path44"
         style="fill:#358137;fill-opacity:1;fill-rule:nonzero;stroke:none"
         d="M 1934.99,64.5977 V 475.063 h 51.09 V 64.5977 h -51.09" /><path
         id="path46"
         style="fill:#358137;fill-opacity:1;fill-rule:nonzero;stroke:none"
         d="M 2082.07,64.5977 V 475.063 H 2351 V 429.52 H 2133.16 V 297.215 h 213.53 V 251.676 H 2133.16 V 110.133 H 2351 V 64.5977 h -268.93" /><path
         id="path48"
         style="fill:#358137;fill-opacity:1;fill-rule:nonzero;stroke:none"
         d="m 2407.64,122.438 30.76,39.386 c 26.46,-30.773 70.77,-59.074 128.62,-59.074 73.23,0 96.61,39.387 96.61,71.387 0,105.84 -243.07,46.769 -243.07,193.222 0,67.696 60.3,114.469 141.54,114.469 62.15,0 110.76,-21.539 145.23,-57.848 l -30.78,-37.539 c -30.76,34.465 -73.83,49.231 -118.77,49.231 -48.61,0 -84.3,-26.457 -84.3,-65.227 0,-92.312 243.07,-39.382 243.07,-192.617 0,-59.078 -40.61,-120.6132 -151.37,-120.6132 -70.77,0 -123.7,27.0704 -157.54,65.2232" /></g></g></svg>