<?xml version="1.0" encoding="utf-8"?>
<svg viewBox="191.084 300.005 227.641 216.523" xmlns="http://www.w3.org/2000/svg">
  <defs>
    <clipPath id="clippath18" transform="" style="clip-path: url(#clippath17);">
      <path d="M 0 0 L 612 0 L 612 792 L 0 792 Z" style="fill: none; clip-rule: nonzero;"/>
    </clipPath>
    <clipPath id="clippath17" transform="" style="clip-path: url(#clippath16);">
      <path d="M 413.9419 792 L 413.9419 1.016613 L 197.4832 1.016613 L 197.4832 792 Z" style="fill: none; clip-rule: nonzero;"/>
    </clipPath>
    <clipPath id="clippath16" transform="">
      <path d="M 197.4194 792 L 197.4194 0 L 414.5806 0 L 414.5806 792 Z" style="fill: none; clip-rule: nonzero;"/>
    </clipPath>
    <clipPath id="clippath20" transform="" style="clip-path: url(#clippath19);">
      <path d="M 0 0 L 612 0 L 612 792 L 0 792 Z" style="fill: none; clip-rule: nonzero;"/>
    </clipPath>
    <clipPath id="clippath19" transform="">
      <path d="M 197.4194 792 L 197.4194 0 L 414.5806 0 L 414.5806 792 Z" style="fill: none; clip-rule: nonzero;"/>
    </clipPath>
  </defs>
  <g>
    <g transform="matrix(0, -1, -1, 0, 983.08374, 713.94696)">
      <g style="clip-path: url(#clippath18);">
        <g transform="">
          <path d="M 323.7753 564.3585 L 328.0578 584.0457 L 343.5391 570.752 C 355.0242 582.3286 358.0378 607.1862 349.7378 632.7314 C 348.5285 636.4518 347.134 640.0201 345.583 643.4095 C 349.2513 642.9901 353.0378 642.7708 356.9115 642.7708 C 383.7714 642.7708 406.4818 653.3191 413.9419 667.8189 L 396.5147 678.4342 L 413.9153 688.5908 C 406.4275 703.065 383.7395 713.5877 356.9115 713.5877 C 353.0378 713.5877 349.2513 713.3674 345.583 712.949 C 347.134 716.3385 348.5285 719.9056 349.7378 723.6272 C 358.0378 749.1724 355.0242 774.031 343.5391 785.6065 L 328.0578 772.3128 L 323.7753 792 C 307.6968 789.3515 290.6774 771.0248 282.388 745.5105 C 281.1978 741.8485 280.2408 738.2004 279.5074 734.6045 C 276.8035 737.0784 273.8899 739.4629 270.7794 741.7229 C 249.0495 757.5107 224.4772 762.3266 209.9178 754.9793 L 217.7772 736.148 L 197.7302 738.1589 C 195.2807 722.0485 207.4514 700.2004 229.1547 684.4306 C 232.3515 682.1079 235.611 680.0235 238.8908 678.1798 C 235.611 676.335 232.3515 674.2507 229.1547 671.9279 C 207.4514 656.1592 195.2807 634.31 197.7302 618.1996 L 217.7772 620.2105 L 209.9178 601.3792 C 224.4772 594.033 249.0495 598.8489 270.7794 614.6356 C 273.8899 616.8956 276.8035 619.2801 279.5074 621.7551 C 280.2408 618.1581 281.1978 614.51 282.388 610.8481 C 290.6774 585.3327 307.6968 567.0071 323.7753 564.3585" style="fill: rgb(251, 49, 34); fill-opacity: 1;"/>
        </g>
      </g>
      <g style="clip-path: url(#clippath20);">
        <g transform="matrix(0 -1.064516 1.064516 0 197.4194 792)">
          <path d="M 159.807 76.392 L 106.922 38.118 L 54.038 76.392 L 74.26 138.344 L 139.585 138.344 L 159.807 76.392 Z" style="fill: none; stroke: rgb(255, 255, 255); stroke-opacity: 1; stroke-miterlimit: 0; stroke-width: 1.438px; stroke-dashoffset: 0px;"/>
        </g>
      </g>
      <g style="clip-path: url(#clippath20);">
        <g transform="matrix(0 -1.064516 1.064516 0 197.4194 792)">
          <path d="M 106.62 70.735 L 137.996 73.505 M 75.244 73.505 L 106.62 70.735" style="fill: none; stroke: rgb(255, 255, 255); stroke-opacity: 1; stroke-miterlimit: 0; stroke-width: 1.445px; stroke-dashoffset: 0px;"/>
        </g>
      </g>
      <g style="clip-path: url(#clippath20);">
        <g transform="matrix(0 -1.064516 1.064516 0 197.4194 792)">
          <path d="M 137.996 73.505 L 106.62 55.389 L 75.244 73.505 L 75.244 109.735 L 106.62 127.849 L 137.996 109.735 L 137.996 73.505 Z M 137.995 109.826 L 106.62 112.57 M 75.244 109.735 L 106.62 112.57 M 137.996 109.735 L 124.735 81.193 M 106.62 55.389 L 124.735 81.193 M 75.244 109.735 L 88.505 81.193 M 106.62 55.389 L 88.505 81.193 M 124.735 81.194 L 106.62 112.57 L 88.505 81.194 L 124.735 81.194 Z M 88.505 102.346 L 106.62 70.971 L 124.735 102.346 L 88.505 102.346 Z M 75.244 109.735 L 88.505 102.346 M 124.735 102.346 L 137.996 109.735 M 106.62 70.971 L 106.62 55.389" style="fill: none; stroke: rgb(255, 255, 255); stroke-opacity: 1; stroke-miterlimit: 0; stroke-width: 1.438px; stroke-dashoffset: 0px;"/>
        </g>
      </g>
      <g style="clip-path: url(#clippath20);">
        <g transform="">
          <path d="M 256.3861 680.8326 C 255.1012 680.8326 254.0591 679.7904 254.0591 678.5045 C 254.0591 677.2185 255.1012 676.1775 256.3861 676.1775 C 257.672 676.1775 258.7142 677.2185 258.7142 678.5045 C 258.7142 679.7904 257.672 680.8326 256.3861 680.8326" style="fill: rgb(255, 255, 255); fill-opacity: 1;"/>
        </g>
        <g transform="matrix(0 -1.064516 1.064516 0 197.4194 792)">
          <path d="M 104.43 55.393 C 104.43 54.186 105.409 53.207 106.617 53.207 C 107.825 53.207 108.803 54.186 108.803 55.393 C 108.803 56.601 107.825 57.58 106.617 57.58 C 105.409 57.58 104.43 56.601 104.43 55.393 Z" style="fill: none; stroke: rgb(255, 255, 255); stroke-opacity: 1; stroke-miterlimit: 0; stroke-width: 1.438px; stroke-dashoffset: 0px;"/>
        </g>
        <g transform="">
          <path d="M 314.2468 714.235 C 312.9609 714.235 311.9187 713.1928 311.9187 711.9079 C 311.9187 710.622 312.9609 709.5798 314.2468 709.5798 C 315.5317 709.5798 316.5738 710.622 316.5738 711.9079 C 316.5738 713.1928 315.5317 714.235 314.2468 714.235" style="fill: rgb(255, 255, 255); fill-opacity: 1;"/>
        </g>
        <g transform="matrix(0 -1.064516 1.064516 0 197.4194 792)">
          <path d="M 73.052 109.747 C 73.052 108.539 74.031 107.56 75.238 107.56 C 76.446 107.56 77.425 108.539 77.425 109.747 C 77.425 110.954 76.446 111.933 75.238 111.933 C 74.031 111.933 73.052 110.954 73.052 109.747 Z" style="fill: none; stroke: rgb(255, 255, 255); stroke-opacity: 1; stroke-miterlimit: 0; stroke-width: 1.438px; stroke-dashoffset: 0px;"/>
        </g>
        <g transform="">
          <path d="M 283.8517 700.1131 C 282.5657 700.1131 281.5246 699.0709 281.5246 697.785 C 281.5246 696.5001 282.5657 695.458 283.8517 695.458 C 285.1365 695.458 286.1798 696.5001 286.1798 697.785 C 286.1798 699.0709 285.1365 700.1131 283.8517 700.1131" style="fill: rgb(255, 255, 255); fill-opacity: 1;"/>
        </g>
        <g transform="matrix(0 -1.064516 1.064516 0 197.4194 792)">
          <path d="M 86.318 81.194 C 86.318 79.986 87.297 79.008 88.505 79.008 C 89.712 79.008 90.691 79.986 90.691 81.194 C 90.691 82.401 89.712 83.381 88.505 83.381 C 87.297 83.381 86.318 82.401 86.318 81.194 Z" style="fill: none; stroke: rgb(255, 255, 255); stroke-opacity: 1; stroke-miterlimit: 0; stroke-width: 1.438px; stroke-dashoffset: 0px;"/>
        </g>
        <g transform="">
          <path d="M 283.8506 661.5457 C 282.5657 661.5457 281.5236 660.5035 281.5236 659.2176 C 281.5236 657.9327 282.5657 656.8905 283.8506 656.8905 C 285.1365 656.8905 286.1787 657.9327 286.1787 659.2176 C 286.1787 660.5035 285.1365 661.5457 283.8506 661.5457" style="fill: rgb(255, 255, 255); fill-opacity: 1;"/>
        </g>
        <g transform="matrix(0 -1.064516 1.064516 0 197.4194 792)">
          <path d="M 122.548 81.193 C 122.548 79.986 123.527 79.007 124.735 79.007 C 125.942 79.007 126.921 79.986 126.921 81.193 C 126.921 82.401 125.942 83.38 124.735 83.38 C 123.527 83.38 122.548 82.401 122.548 81.193 Z" style="fill: none; stroke: rgb(255, 255, 255); stroke-opacity: 1; stroke-miterlimit: 0; stroke-width: 1.438px; stroke-dashoffset: 0px;"/>
        </g>
        <g transform="">
          <path d="M 317.2519 680.8326 C 315.966 680.8326 314.9238 679.7904 314.9238 678.5045 C 314.9238 677.2185 315.966 676.1775 317.2519 676.1775 C 318.5368 676.1775 319.579 677.2185 319.579 678.5045 C 319.579 679.7904 318.5368 680.8326 317.2519 680.8326" style="fill: rgb(255, 255, 255); fill-opacity: 1;"/>
        </g>
        <g transform="matrix(0 -1.064516 1.064516 0 197.4194 792)">
          <path d="M 104.43 112.57 C 104.43 111.362 105.409 110.383 106.617 110.383 C 107.825 110.383 108.803 111.362 108.803 112.57 C 108.803 113.777 107.825 114.756 106.617 114.756 C 105.409 114.756 104.43 113.777 104.43 112.57 Z" style="fill: none; stroke: rgb(255, 255, 255); stroke-opacity: 1; stroke-miterlimit: 0; stroke-width: 1.438px; stroke-dashoffset: 0px;"/>
        </g>
        <g transform="">
          <path d="M 314.234 647.4291 C 312.9481 647.4291 311.9059 646.387 311.9059 645.101 C 311.9059 643.8162 312.9481 642.774 314.234 642.774 C 315.5189 642.774 316.5611 643.8162 316.5611 645.101 C 316.5611 646.387 315.5189 647.4291 314.234 647.4291" style="fill: rgb(255, 255, 255); fill-opacity: 1;"/>
        </g>
        <g transform="matrix(0 -1.064516 1.064516 0 197.4194 792)">
          <path d="M 135.809 109.735 C 135.809 108.527 136.788 107.548 137.996 107.548 C 139.203 107.548 140.182 108.527 140.182 109.735 C 140.182 110.942 139.203 111.921 137.996 111.921 C 136.788 111.921 135.809 110.942 135.809 109.735 Z M 137.996 73.505 L 124.735 102.346 M 106.62 127.849 L 124.735 102.346 M 75.244 73.505 L 88.505 102.346 M 106.62 127.849 L 88.505 102.346 M 106.62 55.389 L 80.465 57.418 M 132.769 56.977 L 106.62 55.389 M 64.086 107.101 L 75.244 109.735 M 149.758 107.101 L 137.996 109.735 M 75.244 73.505 L 54.038 76.441 M 137.996 73.505 L 159.807 76.441 M 74.26 138.392 L 106.62 127.849 M 139.585 138.392 L 106.62 127.849 M 106.922 138.344 L 106.683 187.029 M 64.086 107.101 L 18.494 122.721 M 52.467 19.124 L 80.465 57.418 M 161.378 19.124 L 132.769 56.977 M 195.351 122.721 L 149.758 107.101 M 159.807 76.392 L 195.351 122.721 M 139.585 138.344 L 195.351 122.721 M 74.26 138.344 L 106.683 187.029 M 139.585 138.344 L 106.683 187.029 M 53.917 77.113 L 18.494 122.721 M 74.26 138.344 L 18.494 122.721 M 53.917 77.113 L 52.467 19.124 M 106.922 38.118 L 52.467 19.124 M 159.807 76.392 L 161.378 19.124 M 106.922 38.118 L 161.378 19.124" style="fill: none; stroke: rgb(255, 255, 255); stroke-opacity: 1; stroke-miterlimit: 0; stroke-width: 1.438px; stroke-dashoffset: 0px;"/>
        </g>
      </g>
    </g>
  </g>
</svg>