<?xml version="1.0" encoding="UTF-8" standalone="no"?>
<svg
   xmlns:dc="http://purl.org/dc/elements/1.1/"
   xmlns:cc="http://creativecommons.org/ns#"
   xmlns:rdf="http://www.w3.org/1999/02/22-rdf-syntax-ns#"
   xmlns:svg="http://www.w3.org/2000/svg"
   xmlns="http://www.w3.org/2000/svg"
   id="svg585"
   version="1.1"
   viewBox="0 330.885 131.545 131.544">
  <metadata
     id="metadata589">
    <rdf:RDF>
      <cc:Work
         rdf:about="">
        <dc:format>image/svg+xml</dc:format>
        <dc:type
           rdf:resource="http://purl.org/dc/dcmitype/StillImage" />
        <dc:title></dc:title>
      </cc:Work>
    </rdf:RDF>
  </metadata>
  <defs
     id="defs577">
    <clipPath
       id="clippath21">
      <path
         id="path574"
         style="fill: none; clip-rule: nonzero;"
         d="M 0 329.57 L 612 329.57 L 612 462.429 L 0 462.429 Z" />
    </clipPath>
  </defs>
  <g
     id="g583">
    <path
       id="path579"
       clip-path="url(#clippath21)"
       style="fill: rgb(0, 121, 193); fill-opacity: 1; clip-path: url(#clippath21);"
       d="M 131.446 393.05 L 93.216 420.958 L 93.216 380.676 L 38.036 420.958 L 38.036 380.676 L 0.937 407.758 C 6.215 438.796 33.232 462.43 65.772 462.43 C 102.098 462.43 131.545 432.982 131.545 396.657 C 131.545 395.446 131.511 394.245 131.446 393.05" />
    <path
       id="path581"
       clip-path="url(#clippath21)"
       style="fill: rgb(90, 211, 236); fill-opacity: 1; clip-path: url(#clippath21);"
       d="M 130.451 384.658 C 124.808 354.062 97.999 330.885 65.772 330.885 C 29.448 330.885 0 360.332 0 396.657 C 0 397.536 0.023 398.41 0.057 399.281 L 45.402 366.179 L 45.402 406.461 L 100.581 366.179 L 100.581 406.461 L 130.451 384.658" />
  </g>
</svg>
