<?xml version="1.0" encoding="utf-8"?>
<svg viewBox="0 0.688 128.577 122.312" xmlns="http://www.w3.org/2000/svg">
  <defs>
    <clipPath id="clippath10">
      <path d="M 0.06 122.312 L 415.327 122.312 L 415.327 0 L 0.06 0 Z" style="fill: none; clip-rule: nonzero;"/>
    </clipPath>
    <clipPath id="clippath11">
      <path d="M 0.06 122.312 L 415.327 122.312 L 415.327 0 L 0.06 0 Z" style="fill: none; clip-rule: nonzero;"/>
    </clipPath>
  </defs>
  <g>
    <g>
      <path d="M 79.138 114.304 L 64.18 123 L 49.222 114.304 L 49.222 96.91 L 64.18 88.214 L 79.138 96.91 L 79.138 114.304" style="fill: rgb(8, 80, 140); fill-opacity: 1; clip-path: url(#clippath10);"/>
      <path d="M 43.764 16.344 L 34.788 21.562 L 25.812 16.344 L 25.812 5.907 L 34.788 0.688 L 43.764 5.907 L 43.764 16.344" style="fill: rgb(8, 80, 140); fill-opacity: 1; clip-path: url(#clippath10);"/>
      <path d="M 120.041 64.287 L 114.164 67.704 L 108.287 64.287 L 108.287 57.454 L 114.164 54.037 L 120.041 57.454 L 120.041 64.287" style="fill: rgb(8, 80, 140); fill-opacity: 1;"/>
      <path d="M 96.431 113.224 L 88.839 117.639 L 81.247 113.224 L 81.247 104.396 L 88.839 99.982 L 96.431 104.396 L 96.431 113.224" style="fill: rgb(8, 80, 140); fill-opacity: 1;"/>
      <path d="M 79.509 76.1 L 45.713 95.75 L 11.917 76.1 L 11.917 36.803 L 45.713 17.154 L 79.509 36.803 L 79.509 76.1" style="fill: rgb(8, 80, 140); fill-opacity: 1;"/>
      <path d="M 125.361 97.584 L 107.623 107.896 L 89.885 97.584 L 89.885 76.958 L 107.623 66.645 L 125.361 76.958 L 125.361 97.584" style="fill: rgb(8, 80, 140); fill-opacity: 1;"/>
      <path d="M 124.216 54.457 L 120.957 56.351 L 117.698 54.457 L 117.698 50.667 L 120.957 48.773 L 124.216 50.667 L 124.216 54.457" style="fill: rgb(8, 80, 140); fill-opacity: 1; clip-path: url(#clippath11);"/>
      <path d="M 23.653 99.053 L 11.827 105.929 L 0 99.053 L 0 85.301 L 11.827 78.425 L 23.653 85.301 L 23.653 99.053" style="fill: rgb(8, 80, 140); fill-opacity: 1; clip-path: url(#clippath11);"/>
      <path d="M 24.322 15.821 L 19.92 18.381 L 15.517 15.821 L 15.517 10.702 L 19.92 8.142 L 24.322 10.702 L 24.322 15.821" style="fill: rgb(8, 80, 140); fill-opacity: 1;"/>
      <path d="M 128.577 52.752 L 126.983 53.679 L 125.39 52.752 L 125.39 50.899 L 126.983 49.973 L 128.577 50.899 L 128.577 52.752" style="fill: rgb(8, 80, 140); fill-opacity: 1;"/>
      <path d="M 17.208 19.829 L 15.614 20.756 L 14.02 19.829 L 14.02 17.976 L 15.614 17.05 L 17.208 17.976 L 17.208 19.829" style="fill: rgb(8, 80, 140); fill-opacity: 1;"/>
      <path d="M 83.396 32.826 L 79.507 35.087 L 75.618 32.826 L 75.618 28.304 L 79.507 26.043 L 83.396 28.304 L 83.396 32.826" style="fill: rgb(8, 80, 140); fill-opacity: 1;"/>
      <path d="M 99.211 35.452 L 92.067 39.605 L 84.923 35.452 L 84.923 27.145 L 92.067 22.992 L 99.211 27.145 L 99.211 35.452" style="fill: rgb(8, 80, 140); fill-opacity: 1;"/>
      <path d="M 47.602 114.048 L 45.41 115.323 L 43.217 114.048 L 43.217 111.499 L 45.41 110.224 L 47.602 111.499 L 47.602 114.048" style="fill: rgb(8, 80, 140); fill-opacity: 1;"/>
    </g>
  </g>
</svg>