<?xml version="1.0" encoding="utf-8"?>
<svg viewBox="0 4.928 97.844 70.633" xmlns="http://www.w3.org/2000/svg">
  <defs>
    <clipPath id="clippath15">
      <path d="M 0.06 78.057 L 397.333 78.057 L 397.333 0.06 L 0.06 0.06 Z" style="fill: none; clip-rule: nonzero;"/>
    </clipPath>
  </defs>
  <g>
    <g>
      <g>
        <path d="M 76.497 4.984 L 76.497 18.993 L 94.126 11.831 L 76.497 4.984" style="fill: rgb(33, 37, 39); fill-opacity: 1; clip-path: url(#clippath15);"/>
        <path d="M 0 67.009 L 21.297 75.561 L 21.297 23.482 L 0 14.996 L 0 67.009" style="fill: rgb(33, 37, 39); fill-opacity: 1; clip-path: url(#clippath15);"/>
        <path d="M 72.144 4.928 L 54.713 11.608 L 72.144 19.019 L 72.144 4.928" style="fill: rgb(90, 205, 198); fill-opacity: 1;"/>
        <path d="M 3.95 11.883 L 21.347 18.815 L 21.347 5.547 L 3.95 11.883" style="fill: rgb(90, 205, 198); fill-opacity: 1;"/>
        <path d="M 25.701 5.533 L 25.701 18.811 L 42.572 11.6 L 25.701 5.533" style="fill: rgb(33, 37, 39); fill-opacity: 1;"/>
        <path d="M 25.65 75.463 L 46.745 66.589 L 46.745 14.551 L 25.65 23.568 L 25.65 75.463" style="fill: rgb(90, 205, 198); fill-opacity: 1;"/>
        <path d="M 76.548 75.491 L 97.844 66.436 L 97.844 15.02 L 76.548 23.672 L 76.548 75.491" style="fill: rgb(90, 205, 198); fill-opacity: 1;"/>
        <path d="M 51.099 66.669 L 72.195 75.473 L 72.195 23.772 L 51.099 14.802 L 51.099 66.669" style="fill: rgb(33, 37, 39); fill-opacity: 1;"/>
      </g>
    </g>
  </g>
</svg>