<?xml version="1.0" encoding="utf-8"?>
<svg viewBox="0 308.328 176.187 175.905" xmlns="http://www.w3.org/2000/svg">
  <defs>
    <clipPath id="clippath24">
      <path d="M 0 307.767 L 612 307.767 L 612 484.233 L 0 484.233 Z" style="fill: none; clip-rule: nonzero;"/>
    </clipPath>
    <clipPath id="clippath26" style="clip-path: url(#clippath25);">
      <path d="M 0 307.767 L 612 307.767 L 612 484.233 L 0 484.233 Z" style="fill: none; clip-rule: nonzero;"/>
    </clipPath>
    <clipPath id="clippath25" transform="">
      <path d="M 0.112638 483.6699 L 611.4087 483.6699 L 611.4087 307.7669 L 0.112638 307.7669 Z" style="fill: none; clip-rule: nonzero;"/>
    </clipPath>
    <clipPath id="clippath27">
      <path d="M 0 307.767 L 612 307.767 L 612 484.233 L 0 484.233 Z" style="fill: none; clip-rule: nonzero;"/>
    </clipPath>
  </defs>
  <g>
    <path d="M 115.02 362.374 L 122.199 362.374 L 122.199 369.213 L 115.02 369.213 Z" style="fill: rgb(255, 255, 255); fill-opacity: 1; clip-path: url(#clippath24);"/>
    <path d="M 54.096 423.358 L 61.131 423.358 L 61.131 430.197 L 54.096 430.197 Z" style="fill: rgb(255, 255, 255); fill-opacity: 1; clip-path: url(#clippath24);"/>
    <path d="M 54.096 362.462 L 61.131 362.462 L 61.131 369.301 L 54.096 369.301 Z" style="fill: rgb(255, 255, 255); fill-opacity: 1; clip-path: url(#clippath24);"/>
    <path d="M 115.109 423.358 L 122.141 423.358 L 122.141 430.197 L 115.109 430.197 Z" style="fill: rgb(255, 255, 255); fill-opacity: 1; clip-path: url(#clippath24);"/>
    <path d="M 122.066 308.33 L 176.123 308.33 L 176.123 362.451 L 122.066 362.451 Z" style="fill: rgb(255, 124, 96); fill-opacity: 1; clip-path: url(#clippath26);"/>
    <path d="M 122.066 369.237 L 176.187 369.237 L 176.187 423.326 L 122.066 423.326 Z" style="fill: rgb(255, 189, 138); fill-opacity: 1; clip-path: url(#clippath26);"/>
    <path d="M 61.065 430.112 L 115.184 430.112 L 115.184 484.233 L 61.065 484.233 Z" style="fill: rgb(88, 205, 198); fill-opacity: 1; clip-path: url(#clippath26);"/>
    <path d="M 0 362.449 L 54.119 362.449 L 54.119 308.328 L 0 308.328 Z" style="fill: rgb(123, 83, 122); fill-opacity: 1; clip-path: url(#clippath26);"/>
    <path d="M 0 423.358 L 54.119 423.358 L 54.119 369.239 L 0 369.239 Z" style="fill: rgb(142, 143, 169); fill-opacity: 1; clip-path: url(#clippath26);"/>
    <path d="M 54.119 430.112 L 61.065 430.112 L 61.065 484.233 L 54.119 484.233 Z" style="fill: rgb(139, 216, 197); fill-opacity: 1; clip-path: url(#clippath26);"/>
    <path d="M 0.113 362.449 L 54.119 362.449 L 54.119 369.237 L 0.113 369.237 Z" style="fill: rgb(190, 156, 194); fill-opacity: 1; clip-path: url(#clippath26);"/>
    <path d="M 0 430.112 L 54.119 430.112 L 54.119 423.356 L 0 423.356 Z" style="fill: rgb(186, 232, 222); fill-opacity: 1; clip-path: url(#clippath26);"/>
    <path d="M 61.127 369.237 L 115.028 369.237 L 115.028 362.449 L 61.097 362.449 L 61.097 369.237 L 61.127 369.237" style="fill: rgb(255, 224, 214); fill-opacity: 1; clip-path: url(#clippath26);"/>
    <path d="M 115.028 362.449 L 115.058 362.449 L 115.058 308.33 L 61.127 308.33 L 61.127 362.449 L 115.028 362.449" style="fill: rgb(255, 147, 156); fill-opacity: 1; clip-path: url(#clippath26);"/>
    <path d="M 61.001 362.449 L 61.127 362.449 L 61.127 308.33 L 54.119 308.33 L 54.119 362.449 L 61.001 362.449" style="fill: rgb(250, 182, 194); fill-opacity: 1; clip-path: url(#clippath26);"/>
    <path d="M 115.12 362.449 L 122.066 362.449 L 122.066 308.33 L 115.058 308.33 L 115.058 362.449 L 115.12 362.449" style="fill: rgb(255, 203, 184); fill-opacity: 1; clip-path: url(#clippath26);"/>
    <path d="M 54.057 430.112 L 0 430.112 L 0 484.233 L 54.119 484.233 L 54.119 430.112 L 54.057 430.112" style="fill: rgb(70, 125, 126); fill-opacity: 1; clip-path: url(#clippath26);"/>
    <path d="M 122.066 430.112 L 176.187 430.112 L 176.187 484.233 L 122.066 484.233 Z" style="fill: rgb(124, 206, 145); fill-opacity: 1; clip-path: url(#clippath26);"/>
    <path d="M 61.065 423.326 L 61.127 423.326 L 61.127 369.237 L 54.119 369.237 L 54.119 423.358 L 61.065 423.358 L 61.065 423.326" style="fill: rgb(241, 222, 222); fill-opacity: 1; clip-path: url(#clippath26);"/>
    <path d="M 115.184 430.112 L 122.066 430.112 L 122.066 484.233 L 115.184 484.233 Z" style="fill: rgb(186, 232, 222); fill-opacity: 1; clip-path: url(#clippath26);"/>
    <path d="M 176.123 362.449 L 122.066 362.449 L 122.066 369.237 L 176.187 369.237 L 176.187 362.449 L 176.123 362.449" style="fill: rgb(253, 226, 196); fill-opacity: 1; clip-path: url(#clippath27);"/>
    <path d="M 122.066 423.409 L 122.066 430.112 L 176.187 430.112 L 176.187 423.326 L 122.066 423.326 L 122.066 423.409" style="fill: rgb(246, 223, 169); fill-opacity: 1; clip-path: url(#clippath27);"/>
    <path d="M 115.058 423.326 L 115.184 423.326 L 115.184 423.409 L 122.066 423.409 L 122.066 369.187 L 115.058 369.187 L 115.058 423.326" style="fill: rgb(255, 224, 214); fill-opacity: 1; clip-path: url(#clippath27);"/>
    <path d="M 61.065 430.112 L 115.184 430.112 L 115.184 423.326 L 61.065 423.326 Z" style="fill: rgb(232, 240, 219); fill-opacity: 1; clip-path: url(#clippath27);"/>
  </g>
</svg>