<?xml version="1.0" encoding="utf-8"?>
<svg viewBox="4.277 1.794 74.523 68.366" width="74.523" height="68.366" xmlns="http://www.w3.org/2000/svg">
  <defs>
    <style>.cls-1{fill:#2f3134;}</style>
  </defs>
  <path class="cls-1" d="M 4.33 38.63 C 4.31 38.595 4.296 38.557 4.289 38.518 C 4.258 38.405 4.285 38.279 4.373 38.187 L 18.536 7.317 C 17.647 6.718 17.266 5.484 17.869 4.44 C 18.701 3 20.779 3 21.611 4.44 C 21.708 4.608 21.781 4.788 21.83 4.975 L 55.518 1.859 L 55.57 1.83 C 55.668 1.782 55.782 1.782 55.88 1.83 C 55.981 1.874 56.055 1.963 56.08 2.07 L 56.094 2.133 L 75.729 29.878 C 76.687 29.438 77.917 29.731 78.511 30.76 C 78.7 31.088 78.8 31.461 78.8 31.84 C 78.795 33.031 77.831 33.995 76.64 34 C 76.416 34 76.203 33.967 76.004 33.907 L 61.83 64.82 C 61.776 64.934 61.666 65.01 61.54 65.02 L 27.916 68.13 C 27.844 69.261 26.907 70.155 25.76 70.16 C 24.097 70.16 23.058 68.36 23.889 66.92 C 23.951 66.812 24.02 66.713 24.095 66.621 Z M 24.628 66.156 C 24.729 66.094 24.835 66.041 24.944 65.998 L 21.553 48.346 L 5.762 39.467 Z M 20.071 40.633 C 19.963 40.65 19.853 40.66 19.74 40.66 C 18.077 40.66 17.038 38.86 17.869 37.42 C 18.258 36.746 18.92 36.388 19.6 36.344 L 19.6 25.179 L 5.21 38.36 L 21.383 47.461 Z M 19.6 7.676 C 19.457 7.667 19.32 7.645 19.188 7.611 L 5.622 37.04 L 19.6 24.222 Z M 53.232 51.753 C 53.022 51.305 52.962 50.784 53.102 50.276 L 43.844 47.033 L 34.725 54.862 L 42.879 57.739 Z M 21.747 39.293 C 21.508 39.895 21.006 40.365 20.383 40.56 L 21.748 47.667 L 33.573 54.322 L 31.277 42.631 Z M 53.319 49.76 C 53.643 49.2 54.155 48.858 54.709 48.733 L 52.909 39.251 L 44.05 46.857 L 53.186 50.032 C 53.223 49.94 53.267 49.849 53.319 49.76 Z M 48.505 16.046 C 48.402 16.061 48.297 16.07 48.19 16.07 C 47.546 16.07 46.995 15.8 46.61 15.385 L 38.911 22.044 L 50.425 26.163 Z M 21.435 37.159 C 21.499 37.24 21.557 37.327 21.611 37.42 C 21.8 37.748 21.9 38.121 21.9 38.5 C 21.899 38.718 21.866 38.927 21.806 39.125 L 31.231 42.401 L 28.929 30.678 Z M 56.662 49.255 L 61.587 44.886 L 61.883 31.548 L 53.06 39.122 L 54.875 48.702 C 55.506 48.611 56.171 48.795 56.662 49.255 Z M 59.783 21.484 L 49.84 15.298 C 49.545 15.648 49.141 15.903 48.681 16.012 L 50.617 26.232 L 61.778 30.224 Z M 46.078 13.444 L 39.54 11.521 L 27.681 18.026 L 38.72 21.975 L 46.498 15.254 C 46.106 14.757 45.932 14.095 46.078 13.444 Z M 19.92 24.885 L 19.92 36.347 C 20.434 36.39 20.936 36.613 21.314 37.018 L 28.888 30.472 L 26.591 18.775 Z M 74.88 33.093 C 74.655 32.775 74.514 32.398 74.483 32.004 L 62.569 31.134 L 62.288 44.264 Z M 74.749 30.795 L 60.613 22 L 62.53 30.429 L 74.544 31.307 C 74.589 31.134 74.657 30.962 74.749 30.795 Z M 21.756 6.291 C 21.618 6.649 21.388 6.961 21.095 7.198 L 26.951 17.62 L 38.539 11.227 Z M 19.92 7.672 L 19.92 23.928 L 26.37 18.013 L 20.487 7.545 C 20.308 7.611 20.118 7.655 19.92 7.672 Z M 25.249 65.9 C 25.699 65.792 26.178 65.829 26.607 66.01 L 33.563 55.098 L 21.917 48.551 Z M 27.454 66.658 L 42.1 58.19 L 34.202 55.403 L 27.2 66.386 C 27.291 66.468 27.376 66.558 27.454 66.658 Z M 75.434 33.636 C 75.32 33.558 75.214 33.47 75.117 33.374 L 62.277 44.76 L 61.885 63.028 Z M 56.904 49.524 C 56.96 49.598 57.013 49.677 57.061 49.76 C 57.25 50.088 57.35 50.461 57.35 50.84 C 57.345 52.031 56.381 52.995 55.19 53 C 54.421 53 53.786 52.615 53.407 52.06 L 43.319 57.894 L 61.16 64.19 L 61.576 45.381 Z M 27.651 66.956 C 27.734 67.106 27.798 67.265 27.843 67.429 L 59.893 64.468 L 42.54 58.345 Z M 21.894 5.675 C 21.887 5.767 21.875 5.856 21.857 5.944 L 38.978 10.984 L 53.977 2.709 Z M 46.184 13.106 C 46.222 13.013 46.267 12.921 46.319 12.83 C 47.151 11.39 49.229 11.39 50.061 12.83 C 50.25 13.158 50.35 13.531 50.35 13.91 C 50.348 14.306 50.24 14.678 50.053 14.997 L 59.668 20.98 L 55.51 2.76 L 39.98 11.279 Z M 74.952 30.491 C 75.022 30.401 75.099 30.319 75.179 30.245 L 56.476 3.813 L 60.498 21.497 Z M 27.27 18.63 L 29.491 29.952 L 38.109 22.504 Z M 34.27 54.32 L 43.075 46.764 L 32.029 42.895 Z M 61.57 30.89 L 50.769 27.029 L 52.909 38.324 Z M 52.758 38.453 L 50.577 26.961 L 38.3 22.572 L 29.531 30.157 L 31.984 42.663 L 43.279 46.588 Z"/>
</svg>