<?xml version="1.0" encoding="utf-8"?>
<svg viewBox="0 309.231 174.063 174.064" xmlns="http://www.w3.org/2000/svg">
  <defs>
    <clipPath id="clippath1">
      <path d="M 0 308.706 L 612 308.706 L 612 483.295 L 0 483.295 Z" style="fill: none; clip-rule: nonzero;"/>
    </clipPath>
    <clipPath id="clippath3" style="clip-path: url(#clippath2);">
      <path d="M 0 308.706 L 612 308.706 L 612 483.295 L 0 483.295 Z" style="fill: none; clip-rule: nonzero;"/>
    </clipPath>
    <clipPath id="clippath2" transform="">
      <path d="M 0.112638 482.7688 L 611.3955 482.7688 L 611.3955 308.7055 L 0.112638 308.7055 Z" style="fill: none; clip-rule: nonzero;"/>
    </clipPath>
  </defs>
  <g>
    <path d="M 91.712 329.316 L 118.443 329.316 L 118.443 356.924 L 91.712 356.924 Z" style="fill: rgb(32, 37, 39); fill-opacity: 1; clip-path: url(#clippath1);"/>
    <path d="M 127.801 329.316 L 153.978 329.316 L 153.978 356.924 L 127.801 356.924 Z" style="fill: rgb(32, 37, 39); fill-opacity: 1; clip-path: url(#clippath1);"/>
    <path d="M 20.085 366.282 L 47.086 366.282 L 47.086 392.187 L 20.085 392.187 Z" style="fill: rgb(32, 37, 39); fill-opacity: 1; clip-path: url(#clippath1);"/>
    <path d="M 91.712 366.282 L 118.443 366.282 L 118.443 392.187 L 91.712 392.187 Z" style="fill: rgb(32, 37, 39); fill-opacity: 1; clip-path: url(#clippath1);"/>
    <path d="M 56.447 437.639 L 82.353 437.639 L 82.353 463.209 L 56.447 463.209 Z" style="fill: rgb(32, 37, 39); fill-opacity: 1; clip-path: url(#clippath1);"/>
    <path d="M 56.447 329.316 L 82.353 329.316 L 82.353 356.924 L 56.447 356.924 Z" style="fill: rgb(32, 37, 39); fill-opacity: 1; clip-path: url(#clippath1);"/>
    <path d="M 127.801 366.282 L 153.978 366.282 L 153.978 392.187 L 127.801 392.187 Z" style="fill: rgb(32, 37, 39); fill-opacity: 1; clip-path: url(#clippath1);"/>
    <path d="M 56.447 366.282 L 82.353 366.282 L 82.353 392.187 L 56.447 392.187 Z" style="fill: rgb(32, 37, 39); fill-opacity: 1; clip-path: url(#clippath1);"/>
    <path d="M 56.447 401.547 L 82.353 401.547 L 82.353 428.28 L 56.447 428.28 Z" style="fill: rgb(32, 37, 39); fill-opacity: 1; clip-path: url(#clippath1);"/>
    <path d="M 91.712 401.547 L 118.443 401.547 L 118.443 428.28 L 91.712 428.28 Z" style="fill: rgb(255, 109, 33); fill-opacity: 1; clip-path: url(#clippath1);"/>
    <path d="M 20.085 329.316 L 47.086 329.316 L 47.086 356.924 L 20.085 356.924 Z" style="fill: rgb(255, 109, 33); fill-opacity: 1; clip-path: url(#clippath1);"/>
    <path d="M 20.085 437.639 L 47.086 437.639 L 47.086 463.209 L 20.085 463.209 Z" style="fill: rgb(32, 37, 39); fill-opacity: 1; clip-path: url(#clippath1);"/>
    <path d="M 20.085 401.547 L 47.086 401.547 L 47.086 428.28 L 20.085 428.28 Z" style="fill: rgb(32, 37, 39); fill-opacity: 1; clip-path: url(#clippath3);"/>
    <path d="M 0 483.295 L 174.063 483.295 L 174.063 309.231 L 0 309.231 Z M 9.424 318.655 L 164.639 318.655 L 164.639 473.872 L 9.424 473.872 Z" style="fill: rgb(255, 109, 33); fill-opacity: 1; clip-path: url(#clippath3);"/>
  </g>
</svg>