<?xml version="1.0" encoding="utf-8"?>
<svg id="Layer_1" data-name="Layer 1" viewBox="0 0 95 90" xmlns="http://www.w3.org/2000/svg">
  <defs>
    <style>.cls-1{fill:#24272a;}.cls-2{fill:#00b37e;}</style>
  </defs>
  <title>HL_Avalon_Logo</title>
  <g transform="matrix(1, 0, 0, 1, -3.929417, -3.996083)">
    <path class="cls-2" d="M 43.09 52.92 C 42.89 54.4 42.068 55.724 40.83 56.56 C 41.93 57.93 42.9 59.07 43.51 59.67 C 43.656 59.857 43.873 59.977 44.11 60 C 45.04 60 45.39 57.28 45.2 54.15 C 44.41 53.911 43.687 53.49 43.09 52.92 Z"/>
    <path class="cls-2" d="M 57.38 61 C 57.618 60.995 57.854 60.955 58.08 60.88 C 64.56 58.88 66.16 56.09 66.47 54.33 C 64.11 56.601 60.266 56.169 58.47 53.43 C 57.588 54.036 56.54 54.354 55.47 54.34 L 55.31 54.34 C 55.13 57.36 55.25 61 57.38 61 Z"/>
    <path class="cls-2" d="M 98 50.18 C 97.48 37.09 92.47 25.26 83.88 16.89 C 75.061 8.469 63.292 3.842 51.1 4 C 14.842 4 -7.819 43.25 10.31 74.65 C 14.245 81.465 19.825 87.186 26.54 91.29 L 26.6 91.29 C 27.67 91.888 28.813 92.345 30 92.65 C 32.018 93.231 34.177 93.075 36.09 92.21 C 37.705 91.375 38.958 89.977 39.61 88.28 C 40.048 87.2 40.34 86.067 40.48 84.91 C 42.24 77.08 42.6 67.85 41.81 64.48 C 41.35 62.48 39.81 59.99 38.02 57.48 L 37.89 57.48 C 37.9 57.647 37.9 57.813 37.89 57.98 C 37.894 62.021 33.522 64.552 30.02 62.534 C 29.484 62.226 29.006 61.825 28.61 61.35 C 26.022 64.454 21.044 63.593 19.65 59.8 C 18.459 56.561 20.664 53.074 24.1 52.76 C 23.48 50.741 24.135 48.548 25.76 47.2 C 23.22 44.057 25.035 39.342 29.027 38.714 C 29.296 38.672 29.568 38.65 29.84 38.65 L 30.12 38.65 C 29.021 35.418 31.257 32.014 34.66 31.74 C 34.402 31.105 34.27 30.426 34.27 29.74 C 34.267 25.699 38.64 23.17 42.142 25.188 C 42.236 25.242 42.329 25.3 42.42 25.36 C 43.956 22.288 47.986 21.506 50.56 23.78 C 51.829 19.943 56.776 18.918 59.464 21.936 C 60.106 22.656 60.537 23.54 60.71 24.49 L 60.79 24.49 C 63.689 24.49 66.04 26.841 66.04 29.74 C 66.039 30.144 65.992 30.547 65.9 30.94 C 67.017 31.303 67.981 32.028 68.64 33 C 72.046 31.862 75.561 34.41 75.54 38 C 75.544 38.686 75.411 39.366 75.15 40 C 77.232 40.75 78.62 42.726 78.62 44.94 C 78.613 45.296 78.572 45.651 78.5 46 C 78.748 45.959 78.999 45.939 79.25 45.94 C 83.291 45.94 85.817 50.315 83.797 53.815 C 82.859 55.439 81.126 56.44 79.25 56.44 C 78.071 56.447 76.924 56.052 76 55.32 C 74.549 57.85 71.31 58.705 68.8 57.22 C 64.8 65.22 56.12 61.63 56.02 73.54 C 56.02 76.9 57.31 82.07 59.02 86.72 L 59.02 86.72 L 59.02 86.72 C 59.12 87 59.22 87.28 59.33 87.55 C 60.001 89.35 61.204 90.902 62.78 92 L 62.78 92 C 63.022 92.16 63.272 92.307 63.53 92.44 L 63.59 92.44 C 63.77 92.54 63.95 92.62 64.13 92.7 L 64.26 92.7 C 64.423 92.77 64.59 92.831 64.76 92.88 L 65 93 L 65.47 93.13 L 65.7 93.13 C 65.854 93.171 66.011 93.201 66.17 93.22 L 66.41 93.22 L 66.92 93.27 L 67.14 93.27 L 67.89 93.27 C 68.258 93.327 68.628 93.368 69 93.39 C 69.31 93.39 69.63 93.32 70 93.26 C 76.06 92.17 83.29 86.68 88.85 78.9 C 95.16 70.11 98.42 59.91 98 50.18 Z M 69.16 88.57 C 66.25 89.09 64.46 88.04 63.55 85.24 L 63.55 85.24 C 62 81.17 60.76 76.5 60.79 73.58 C 60.79 69.37 61.72 68.88 64.7 67.26 C 67.019 66.137 69.105 64.586 70.85 62.69 L 71.47 62.69 C 73.47 62.701 75.428 62.113 77.09 61 C 77.799 61.16 78.523 61.24 79.25 61.24 C 86.948 61.288 91.81 52.984 88.003 46.294 C 86.862 44.289 85.062 42.74 82.91 41.91 C 82.402 40.313 81.502 38.868 80.29 37.71 C 80.141 32.441 75.927 28.193 70.66 28 C 70.031 24.455 67.544 21.521 64.15 20.32 C 60.96 14.966 53.704 13.802 49 17.89 C 48.387 17.77 47.764 17.71 47.14 17.71 C 44.914 17.714 42.754 18.46 41 19.83 C 40.53 19.762 40.055 19.728 39.58 19.73 C 34.463 19.698 30.148 23.535 29.58 28.62 C 27.368 30.101 25.827 32.393 25.29 35 C 21.943 36.71 19.838 40.152 19.84 43.91 C 19.838 44.841 19.97 45.767 20.23 46.66 C 19.757 47.552 19.42 48.509 19.23 49.5 C 12.584 53.384 12.634 63.006 19.321 66.82 C 22.165 68.443 25.624 68.57 28.58 67.16 C 31.381 68.383 34.586 68.266 37.29 66.84 C 37.517 71.438 37.225 76.047 36.42 80.58 C 36.095 82.604 35.651 84.608 35.09 86.58 C 34.88 87.171 34.475 87.672 33.94 88 C 32.4 88.78 29.8 87.71 28.94 87.26 C 1.104 70.305 2.061 29.574 30.662 13.945 C 36.929 10.521 43.959 8.737 51.1 8.76 C 62.064 8.593 72.655 12.733 80.6 20.29 C 88.31 27.81 92.82 38.5 93.28 50.37 C 94.05 70.15 78.1 87 69.16 88.57 Z"/>
  </g>
</svg>