<?xml version="1.0" encoding="utf-8"?>
<svg viewBox="0 0.807 86.676 87.193" xmlns="http://www.w3.org/2000/svg">
  <defs>
    <clipPath id="clippath6">
      <path d="M 0 0 L 322.779 0 L 322.779 87.193 L 0 87.193 Z" style="fill: none; clip-rule: nonzero;"/>
    </clipPath>
  </defs>
  <g>
    <g>
      <path d="M 41.102 36.548 C 27.328 21.583 22.272 10.995 26.848 6.418 C 28.273 4.995 29.751 4.405 31.338 4.607 C 30.15 6.301 30.309 8.652 31.822 10.166 C 33.519 11.862 36.269 11.862 37.965 10.166 C 39.661 8.47 39.661 5.719 37.965 4.023 C 37.91 3.968 37.851 3.919 37.794 3.868 C 37.589 3.662 34.715 0.829 30.786 0.807 C 28.393 0.794 26.176 1.79 24.199 3.768 C 20.532 7.435 20.528 12.945 24.186 20.147 C 27.037 25.76 32.222 32.576 39.619 40.456 C 17.236 39.907 4.993 35.934 4.993 29.125 C 4.993 27.111 5.621 25.649 6.886 24.669 C 7.244 26.707 9.019 28.258 11.159 28.258 C 13.558 28.258 15.503 26.313 15.503 23.914 C 15.503 21.515 13.558 19.571 11.159 19.571 C 11.081 19.571 11.006 19.578 10.928 19.582 C 10.638 19.581 6.603 19.61 3.81 22.373 C 2.108 24.056 1.245 26.327 1.245 29.125 C 1.245 34.31 5.138 38.209 12.818 40.715 C 19.137 42.777 28.237 43.951 39.915 44.215 L 40.87 42.843 C 40.916 40.658 40.994 38.561 41.102 36.548" style="fill: rgb(226, 226, 227); fill-opacity: 1; clip-path: url(#clippath6);"/>
      <path d="M 75.947 46.026 C 70.223 43.05 62.277 41.27 52.268 40.715 C 66.529 27.861 76.625 23.233 81.065 27.673 C 82.49 29.097 83.079 30.575 82.877 32.162 C 81.183 30.974 78.832 31.133 77.318 32.647 C 75.622 34.343 75.622 37.093 77.318 38.789 C 79.014 40.486 81.764 40.486 83.461 38.789 C 83.516 38.734 83.564 38.675 83.616 38.618 C 83.822 38.413 86.655 35.539 86.676 31.611 C 86.69 29.217 85.694 27 83.716 25.023 C 80.049 21.356 74.538 21.352 67.336 25.011 C 62.386 27.525 56.497 31.858 49.771 37.92 C 49.698 39.441 49.641 41.012 49.604 42.644 L 50.577 43.322 L 52.274 44.504 C 67.081 45.466 81.667 49.565 81.667 58.795 C 81.667 61.017 80.985 62.439 80.094 63.354 C 79.631 61.454 77.922 60.042 75.879 60.042 C 73.48 60.042 71.535 61.987 71.535 64.385 C 71.535 66.784 73.48 68.729 75.879 68.729 C 75.964 68.729 76.047 68.721 76.131 68.716 L 76.131 68.738 C 76.223 68.737 85.415 68.587 85.415 58.795 C 85.415 55.865 84.184 50.31 75.947 46.026" style="fill: rgb(226, 226, 227); fill-opacity: 1; clip-path: url(#clippath6);"/>
      <path d="M 39.8 48.736 L 39.017 48.19 C 27.449 58.941 12.843 67.884 5.868 60.91 C 4.297 59.338 3.773 57.851 3.757 56.574 C 5.428 57.59 7.635 57.38 9.08 55.935 C 10.776 54.239 10.776 51.489 9.08 49.793 C 7.384 48.097 4.633 48.097 2.937 49.793 C 2.877 49.853 2.824 49.917 2.768 49.98 L 2.753 49.965 C 2.688 50.031 -3.705 56.636 3.218 63.559 C 5.29 65.631 10.088 68.69 18.942 65.894 C 25.448 63.84 32.766 59.076 40.738 51.724 C 40.767 50.96 40.79 50.196 40.801 49.433 L 39.8 48.736" style="fill: rgb(226, 226, 227); fill-opacity: 1; clip-path: url(#clippath6);"/>
      <path d="M 49.503 50.835 C 59.245 61.963 66.591 75.11 60.085 81.616 C 58.514 83.187 57.027 83.71 55.749 83.727 C 56.765 82.056 56.556 79.849 55.111 78.404 C 53.415 76.708 50.665 76.708 48.968 78.404 C 47.272 80.1 47.272 82.85 48.968 84.547 C 49.029 84.607 49.093 84.66 49.155 84.716 L 49.14 84.731 C 49.206 84.796 55.812 91.189 62.735 84.265 C 64.807 82.194 67.866 77.395 65.07 68.541 C 63.033 62.091 58.331 54.842 51.086 46.949 L 49.534 49.177 C 49.528 49.737 49.515 50.285 49.503 50.835" style="fill: rgb(226, 226, 227); fill-opacity: 1; clip-path: url(#clippath6);"/>
      <path d="M 47.089 43.927 C 47.473 20.45 51.473 7.578 58.455 7.578 C 60.469 7.578 61.931 8.206 62.91 9.471 C 60.872 9.829 59.322 11.604 59.322 13.745 C 59.322 16.144 61.267 18.088 63.666 18.088 C 66.065 18.088 68.009 16.144 68.009 13.745 C 68.009 13.667 68.002 13.591 67.998 13.514 C 67.999 13.223 67.969 9.188 65.207 6.395 C 63.524 4.693 61.252 3.83 58.455 3.83 C 53.27 3.83 49.37 7.724 46.864 15.403 C 44.737 21.926 43.557 31.42 43.346 43.646 L 41.223 46.692 L 43.305 48.142 C 43.244 64.896 39.418 84.252 28.784 84.252 C 26.562 84.252 25.14 83.571 24.225 82.68 C 26.126 82.216 27.538 80.507 27.538 78.464 C 27.538 76.065 25.594 74.121 23.195 74.121 C 20.796 74.121 18.851 76.065 18.851 78.464 C 18.851 78.549 18.859 78.632 18.863 78.716 L 18.843 78.716 C 18.843 78.809 18.993 88 28.784 88 C 31.715 88 37.27 86.77 41.554 78.532 C 45.145 71.627 46.99 61.482 47.05 48.387 L 49.154 45.366 L 47.089 43.927" style="fill: rgb(255, 83, 67); fill-opacity: 1;"/>
    </g>
  </g>
</svg>