<?xml version="1.0" encoding="utf-8"?>
<svg viewBox="0 0.43 97.558 97.57" xmlns="http://www.w3.org/2000/svg">
  <defs>
    <clipPath id="clippath5">
      <path d="M 0.06 97.57 L 368.894 97.57 L 368.894 0 L 0.06 0 Z" style="fill: none; clip-rule: nonzero;"/>
    </clipPath>
  </defs>
  <g>
    <g>
      <path d="M 43.63 41.43 C 43.468 41.268 43.288 41.047 43.109 40.777 C 42.472 39.817 41.712 38.202 40.901 36.083 L 46.214 39.716 C 46.065 40.273 45.933 40.677 45.766 40.948 C 45.484 41.402 45.041 41.561 43.891 41.608 L 43.63 41.43" style="fill: rgb(166, 210, 89); fill-opacity: 1;"/>
      <path d="M 11.726 49.771 L 26.059 29.414 L 11.726 19.612 L 11.726 49.771 Z M 8.853 20.603 C 9.922 19.129 11.049 17.736 12.205 16.46 L 27.713 27.064 L 28.925 25.343 C 29.706 27.603 30.462 30.189 31.127 32.88 L 28.431 31.036 L 14.522 50.777 L 8.856 52.714 L 8.853 20.603" style="fill: rgb(166, 210, 89); fill-opacity: 1;"/>
      <path d="M 47.278 4.269 L 36.217 19.979 C 36.109 19.507 36.002 19.033 35.899 18.556 C 37.26 16.72 37.756 14.966 37.375 13.341 L 46.433 0.478 C 47.071 0.452 47.711 0.43 48.356 0.43 L 48.777 0.441 L 49.202 0.43 C 49.847 0.43 50.487 0.452 51.125 0.478 L 69.629 26.758 C 69.295 26.745 68.96 26.738 68.623 26.738 C 67.897 26.738 67.117 26.775 66.182 26.854 L 50.28 4.269 L 50.28 32.457 C 49.653 32.973 49.096 33.539 48.624 34.137 C 48.082 34.834 47.641 35.57 47.278 36.382 L 47.278 4.269 Z M 83.293 51.214 L 77.405 42.794 C 78.065 41.879 78.622 41.03 79.102 40.211 L 85.832 49.771 L 85.832 19.612 L 74.369 27.451 C 73.037 27.108 71.655 26.887 70.242 26.792 L 85.352 16.46 C 86.507 17.735 87.635 19.128 88.705 20.603 L 88.699 52.871 L 83.293 51.214" style="fill: rgb(166, 210, 89); fill-opacity: 1;"/>
      <path d="M 43.82 41.611 L 43.872 41.652 C 43.855 41.641 43.837 41.627 43.82 41.611" style="fill: rgb(166, 210, 89); fill-opacity: 1; clip-path: url(#clippath5);"/>
      <path d="M 85.832 78.389 L 72.337 72.753 L 85.832 56.105 L 85.832 78.389 Z M 69.574 71.599 L 53.22 64.768 L 83.509 54.407 L 69.574 71.599 Z M 50.28 95.399 L 50.28 66.654 L 67.688 73.924 L 50.28 95.399 Z M 47.278 95.399 L 29.869 73.924 L 47.278 66.654 L 47.278 95.399 Z M 14.049 54.407 L 39.959 63.271 L 44.074 64.878 L 27.984 71.599 L 14.049 54.407 Z M 11.726 78.389 L 11.726 56.105 L 25.221 72.753 L 11.726 78.389 Z M 62.55 33.602 C 62.737 33.004 63.385 31.945 64.63 31.779 L 64.732 31.773 L 64.744 31.773 C 65.227 31.773 65.638 32.13 65.7 32.602 C 65.735 32.856 65.668 33.107 65.513 33.311 C 65.358 33.514 65.132 33.645 64.878 33.678 C 64.54 33.724 64.378 34.174 64.378 34.174 C 64.252 34.576 63.885 34.846 63.464 34.846 C 63.368 34.846 63.273 34.831 63.178 34.802 C 62.934 34.726 62.735 34.559 62.615 34.333 C 62.497 34.106 62.474 33.846 62.55 33.602 Z M 88.887 52.674 L 88.804 52.601 L 88.651 52.595 L 73.608 47.522 C 72.948 48.258 72.241 49.018 71.503 49.808 L 71.478 49.835 L 80.237 52.787 L 61.856 59.058 C 62.871 55.839 65.885 51.95 68.619 49.005 L 69.52 48.039 C 70.058 47.462 70.584 46.899 71.085 46.351 C 71.691 45.689 72.262 45.047 72.762 44.44 C 73.452 43.601 74.254 42.61 75.034 41.55 C 73.687 41.189 72.519 41.11 71.757 41.11 C 71.264 41.11 70.964 41.143 70.928 41.148 L 70.813 41.155 C 70.33 41.155 69.918 40.798 69.855 40.325 C 69.82 40.071 69.887 39.819 70.043 39.616 C 70.198 39.413 70.424 39.282 70.681 39.248 C 70.752 39.239 71.14 39.195 71.76 39.195 C 72.513 39.195 73.699 39.262 75.078 39.585 C 75.44 39.669 75.81 39.766 76.191 39.887 C 76.681 39.132 77.106 38.389 77.453 37.676 C 77.486 37.61 77.508 37.551 77.539 37.486 C 77.032 37.458 76.491 37.386 75.904 37.241 C 75.254 37.081 71.971 36.188 71.222 34.372 C 70.546 32.735 71.683 31.022 72.202 30.363 C 72.364 30.156 72.543 29.968 72.724 29.783 C 72.436 29.728 72.15 29.671 71.851 29.627 C 70.813 29.473 69.727 29.395 68.623 29.395 C 67.912 29.395 67.119 29.438 66.2 29.524 C 64.897 29.647 63.593 29.852 62.326 30.134 C 61.369 31.285 60.9 32.475 60.673 33.276 C 60.512 33.845 60.47 34.218 60.469 34.222 C 60.43 34.714 60.014 35.1 59.446 35.1 C 59.444 35.1 59.441 35.1 59.439 35.1 C 59.042 35.069 58.712 34.798 58.6 34.411 C 58.565 34.291 58.551 34.179 58.56 34.068 C 58.574 33.904 58.714 32.536 59.542 30.885 C 57.513 31.526 55.576 32.34 53.779 33.306 C 52.452 34.018 51.435 34.847 50.667 35.841 C 49.705 37.087 49.304 38.409 49.002 39.553 L 48.914 39.896 C 48.72 40.643 48.537 41.348 48.253 41.936 C 48.001 42.758 47.674 43.55 47.253 44.356 C 46.013 46.73 44.526 47.997 44.512 48.008 C 44.34 48.156 44.119 48.238 43.891 48.238 C 43.611 48.238 43.346 48.116 43.164 47.904 C 42.82 47.505 42.866 46.9 43.266 46.554 C 43.277 46.545 44.25 45.676 45.188 44.123 C 44.806 44.192 44.373 44.24 43.869 44.265 L 43.561 44.277 C 42.621 44.277 41.66 43.442 40.622 41.723 C 40.159 40.957 39.677 39.999 39.187 38.875 C 38.529 37.366 37.849 35.55 37.169 33.477 C 35.937 29.719 34.879 25.683 34.209 22.958 C 33.734 21.02 33.384 19.474 33.201 18.642 L 33.033 17.857 L 33.106 17.775 C 34.794 15.898 35.271 14.281 34.447 13.223 C 34.221 12.933 33.96 12.792 33.65 12.792 C 33.615 12.792 33.574 12.801 33.446 12.829 C 33.342 12.848 33.24 12.874 33.116 12.922 C 33.058 12.946 32.999 12.97 32.948 12.998 C 32.83 13.062 32.695 13.141 32.584 13.242 C 31.459 14.273 31.454 16.667 31.454 16.766 C 31.459 17.021 31.365 17.262 31.187 17.446 C 31.009 17.63 30.77 17.735 30.497 17.739 C 29.979 17.739 29.549 17.318 29.54 16.801 C 29.536 16.624 29.486 12.517 32.142 11.238 C 31.85 5.655 31.022 2.145 29.923 1.838 C 29.788 1.8 29.661 1.78 29.547 1.78 C 29.274 1.78 29.056 1.888 28.881 2.109 C 27.633 3.691 29.082 9.824 29.097 9.885 L 29.198 10.309 L 28.8 10.133 C 28.466 9.986 28.153 9.911 27.867 9.911 C 26.673 9.911 26.278 11.227 26.262 11.283 L 26.197 11.505 L 25.98 11.426 C 25.626 11.297 25.296 11.231 24.999 11.231 C 23.494 11.231 23.189 12.926 23.176 12.998 L 23.101 13.439 L 22.802 13.106 C 22.748 13.046 17.362 7.074 15.122 7.074 C 14.811 7.074 14.601 7.197 14.463 7.461 C 13.196 9.873 18.913 13.066 23.506 15.632 C 26.438 17.269 28.97 18.683 29.532 19.757 C 29.92 20.549 30.328 21.503 30.746 22.59 C 31.188 23.739 31.638 25.038 32.085 26.449 C 32.487 27.721 32.873 29.043 33.233 30.378 C 33.665 31.983 34.059 33.602 34.402 35.191 C 35.092 38.386 35.529 41.227 35.663 43.405 C 35.739 44.635 35.719 45.647 35.605 46.412 L 35.505 46.995 C 34.753 51.327 32.834 56.27 32.264 57.682 L 32.188 57.871 L 17.321 52.787 L 32.682 47.61 C 32.797 47.069 32.899 46.535 32.976 46.017 C 33.037 45.612 33.061 45.088 33.047 44.455 L 15.233 50.46 L 8.838 52.606 L 8.818 52.606 L 8.818 52.625 L 0 55.601 C 0.133 56.624 0.282 57.569 0.456 58.48 L 8.853 55.646 L 8.853 77.828 C 9.789 79.118 10.77 80.345 11.772 81.483 L 27.107 75.079 L 45.619 97.918 C 46.613 97.973 47.51 98 48.356 98 L 48.782 97.989 L 49.202 98 C 50.047 98 50.944 97.973 51.938 97.918 L 70.451 75.079 L 85.786 81.483 C 86.788 80.345 87.769 79.118 88.705 77.828 L 88.705 55.646 L 97.101 58.48 C 97.273 57.584 97.423 56.638 97.558 55.601 L 88.887 52.674" style="fill: rgb(74, 193, 135); fill-opacity: 1; clip-path: url(#clippath5);"/>
      <path d="M 73.616 31.476 C 73.096 32.137 72.63 33.065 72.886 33.685 C 73.149 34.323 74.882 35.135 76.335 35.493 C 76.925 35.639 77.455 35.713 77.913 35.713 C 77.914 35.713 77.915 35.713 77.917 35.713 C 77.991 35.713 78.063 35.711 78.134 35.708 C 74.646 30.475 79.169 31.746 74.646 30.475 C 74.273 30.748 73.922 31.089 73.616 31.476" style="fill: rgb(74, 193, 135); fill-opacity: 1;"/>
    </g>
  </g>
</svg>