<?xml version="1.0" encoding="utf-8"?>
<svg viewBox="1.172 301.302 137.256 190.42" xmlns="http://www.w3.org/2000/svg">
  <defs>
    <clipPath id="clippath0">
      <path d="M 0 299 L 612 299 L 612 493 L 0 493 Z" style="fill: none; clip-rule: nonzero;"/>
    </clipPath>
  </defs>
  <g>
    <path d="M 125.394 438.304 C 121.126 431.33 113.896 423.742 105.038 416.38 C 103.006 418.006 100.928 419.6 98.818 421.154 C 110.164 430.452 117.448 439.068 120.432 445.16 C 120.14 446.048 119.974 446.994 119.974 447.98 L 119.974 448.448 C 119.974 448.676 119.992 448.902 120.01 449.126 L 75.276 474.952 C 74.13 474.13 72.782 473.576 71.32 473.37 C 65.664 464.004 60.24 442.786 60.24 413.93 C 60.24 409.456 60.376 405.178 60.616 401.086 C 58.064 399.8 55.592 398.624 53.224 397.568 C 52.83 402.946 52.63 408.442 52.63 413.93 C 52.63 437.152 56.188 460.544 63.088 474.214 L 21.864 450.414 C 29.556 450.408 39.578 448.034 50.772 443.666 C 50.418 441.108 50.118 438.492 49.862 435.842 C 35.118 441.814 23.778 443.654 17.754 442.446 C 16.834 441.272 15.632 440.328 14.246 439.728 L 14.246 388.132 C 15.636 387.528 16.842 386.582 17.762 385.404 C 26.976 383.568 48.598 388.848 75.758 405.076 C 79.386 407.244 82.796 409.434 86.014 411.618 C 88.31 410.014 90.476 408.422 92.514 406.858 C 88.37 403.964 84.058 401.172 79.662 398.544 C 57.356 385.218 35.788 377.462 21.868 377.444 L 63.082 353.648 C 59.462 360.828 56.76 370.682 55.014 381.792 C 57.382 382.768 59.798 383.832 62.25 384.978 C 64.334 370.866 67.778 360.358 71.314 354.492 C 72.778 354.286 74.128 353.732 75.276 352.91 L 120.01 378.736 C 119.992 378.96 119.974 379.184 119.974 379.414 L 119.974 379.882 C 119.974 380.874 120.142 381.828 120.442 382.724 C 115.752 392.264 100.488 408.006 75.758 422.784 C 71.91 425.084 68.176 427.158 64.566 429.028 C 64.768 431.876 65.02 434.594 65.316 437.18 C 70.018 434.834 74.822 432.208 79.662 429.314 C 99.37 417.538 117.482 402.498 125.394 389.576 L 125.394 438.304 Z M 138.428 379.882 L 138.428 379.414 C 138.428 374.448 134.4 370.422 129.436 370.422 L 128.966 370.422 C 127.016 370.422 125.216 371.048 123.744 372.104 L 79.012 346.278 C 79.028 346.052 79.046 345.828 79.046 345.598 L 79.046 345.13 C 79.046 340.164 75.02 336.138 70.054 336.138 L 69.588 336.138 C 64.62 336.138 60.596 340.164 60.596 345.13 L 60.596 345.598 C 60.596 345.828 60.612 346.052 60.628 346.278 L 15.898 372.104 C 15.384 371.736 14.83 371.424 14.246 371.17 L 14.246 319.02 C 17.466 317.566 19.71 314.334 19.71 310.574 C 19.71 305.452 15.56 301.302 10.442 301.302 C 5.322 301.302 1.172 305.452 1.172 310.574 C 1.172 314.334 3.416 317.566 6.636 319.02 L 6.636 371.162 C 3.448 372.544 1.216 375.716 1.216 379.414 L 1.216 379.882 C 1.216 383.578 3.448 386.748 6.636 388.132 L 6.636 439.728 C 3.448 441.11 1.216 444.284 1.216 447.98 L 1.216 448.448 C 1.216 453.412 5.242 457.44 10.208 457.44 L 10.676 457.44 C 12.626 457.44 14.424 456.814 15.898 455.758 L 60.628 481.584 C 60.612 481.808 60.596 482.032 60.596 482.262 L 60.596 482.73 C 60.596 487.696 64.62 491.722 69.588 491.722 L 70.054 491.722 C 75.02 491.722 79.046 487.696 79.046 482.73 L 79.046 482.262 C 79.046 482.032 79.028 481.808 79.012 481.584 L 123.744 455.758 C 125.216 456.814 127.016 457.44 128.966 457.44 L 129.436 457.44 C 134.4 457.44 138.428 453.412 138.428 448.448 L 138.428 447.98 C 138.428 444.284 136.194 441.11 133.004 439.728 L 133.004 388.132 C 136.194 386.75 138.428 383.578 138.428 379.882" style="fill: rgb(47, 169, 164); fill-opacity: 1; clip-path: url(#clippath0);"/>
  </g>
</svg>