<?xml version="1.0" encoding="utf-8"?>
<!-- Generator: Adobe Illustrator 25.3.1, SVG Export Plug-In . SVG Version: 6.00 Build 0)  -->
<svg version="1.1" id="Layer_1" xmlns="http://www.w3.org/2000/svg" xmlns:xlink="http://www.w3.org/1999/xlink" x="0px" y="0px"
	 viewBox="0 0 368.9 97.6" style="enable-background:new 0 0 368.9 97.6;" xml:space="preserve">
<style type="text/css">
	.st0{fill:#24272A;}
	.st1{fill:#AAD14F;}
	.st2{fill:none;}
	.st3{fill:#46BA86;}
</style>
<g>
	<g>
		<polygon class="st0" points="122.6,22 131.3,22 131.4,30.8 135.8,30.8 135.7,10.4 131.3,10.5 131.3,18 122.6,18.1 122.5,10.5 
			118.1,10.5 118.2,30.8 122.7,30.8 		"/>
		<polygon class="st0" points="146.7,30.8 151.2,30.8 151.1,22.1 158.7,10.5 153.4,10.5 148.9,18.1 144.5,10.5 138.9,10.6 
			146.6,22.2 		"/>
		<path class="st0" d="M166.4,30.8l0-7.9l3.3,0c1.1,0,2.1-0.1,3-0.3c0.9-0.2,1.7-0.5,2.4-1c0.7-0.5,1.2-1.1,1.6-1.9
			c0.4-0.8,0.6-1.8,0.6-3c0-1.2-0.2-2.2-0.6-3c-0.4-0.8-1-1.4-1.7-1.9c-0.7-0.5-1.5-0.8-2.5-1c-0.9-0.2-1.9-0.3-3-0.3l-7.6,0
			l0.1,20.3L166.4,30.8z M168.6,14.3c0.4,0,0.9,0,1.3,0.1c0.5,0,0.9,0.2,1.3,0.3c0.4,0.2,0.7,0.4,0.9,0.7c0.2,0.3,0.4,0.7,0.4,1.2
			c0,0.5-0.1,0.9-0.3,1.2c-0.2,0.3-0.4,0.6-0.7,0.8c-0.3,0.2-0.6,0.3-1,0.4c-0.4,0.1-0.8,0.1-1.2,0.1l-3,0l0-4.8L168.6,14.3z"/>
		<polygon class="st0" points="194.7,30.8 194.7,26.6 184.8,26.7 184.8,22.5 193.6,22.5 193.6,18.4 184.8,18.4 184.8,14.6 
			194.1,14.6 194.1,10.4 180.3,10.5 180.4,30.8 		"/>
		<path class="st0" d="M208.8,30.8l5.4,0l-5.2-8.6c1.4-0.3,2.5-0.9,3.3-1.9c0.7-1,1.1-2.2,1.1-3.7c0-1.2-0.2-2.2-0.6-3
			c-0.4-0.8-1-1.4-1.7-1.9c-0.7-0.5-1.5-0.8-2.4-1c-0.9-0.2-1.9-0.3-2.9-0.3l-7.9,0l0.1,20.3l4.5,0l0-8.1l2.2,0L208.8,30.8z
			 M202.3,18.9l0-4.6l2.9,0c0.4,0,0.8,0,1.2,0.1c0.4,0.1,0.8,0.2,1.1,0.3c0.3,0.2,0.6,0.4,0.8,0.7c0.2,0.3,0.3,0.7,0.3,1.2
			c0,0.6-0.1,1-0.4,1.3c-0.2,0.3-0.5,0.5-0.9,0.7c-0.4,0.1-0.8,0.2-1.2,0.3c-0.4,0-0.9,0-1.3,0L202.3,18.9z"/>
		<polygon class="st0" points="230.1,30.7 230.1,26.6 221.8,26.6 221.7,10.5 217.2,10.5 217.3,30.8 		"/>
		<polygon class="st0" points="247.6,30.7 247.6,26.6 237.8,26.7 237.7,22.5 246.6,22.5 246.5,18.4 237.7,18.4 237.7,14.6 247,14.6 
			247,10.4 233.2,10.5 233.3,30.8 		"/>
		<path class="st0" d="M266.1,28.1c1-0.9,1.9-1.9,2.5-3.2c0.6-1.3,0.9-2.7,0.9-4.4c0-1.9-0.3-3.4-1-4.7c-0.6-1.3-1.5-2.3-2.6-3.2
			c-1.1-0.8-2.4-1.4-3.8-1.7c-1.5-0.4-3-0.5-4.6-0.5l-6.7,0l0.1,20.3l7.3,0c1.5,0,3-0.2,4.3-0.7C263.9,29.6,265.1,29,266.1,28.1z
			 M257.6,26.6l-2.3,0l-0.1-12.1l2.6,0c0.9,0,1.8,0.1,2.7,0.3c0.8,0.2,1.6,0.6,2.2,1.1c0.6,0.5,1.1,1.1,1.5,1.8
			c0.4,0.7,0.6,1.6,0.6,2.6c0,1.1-0.2,2.1-0.5,2.9c-0.4,0.8-0.9,1.4-1.5,1.9c-0.6,0.5-1.4,0.8-2.3,1.1
			C259.6,26.5,258.7,26.6,257.6,26.6z"/>
		<path class="st0" d="M284.2,18.7l0,4.1l3.6,0l0,3.3c-0.4,0.2-1,0.5-1.7,0.7c-0.7,0.2-1.5,0.3-2.5,0.3c-1,0-1.8-0.2-2.6-0.5
			c-0.8-0.3-1.4-0.8-2-1.4c-0.6-0.6-1-1.3-1.3-2.1c-0.3-0.8-0.5-1.7-0.5-2.6c0-0.9,0.1-1.8,0.4-2.6c0.3-0.8,0.7-1.5,1.3-2.1
			c0.6-0.6,1.2-1,2-1.4c0.8-0.3,1.6-0.5,2.6-0.5c1.1,0,2.1,0.2,2.9,0.5c0.8,0.3,1.5,0.8,2.1,1.4l3.1-3.5c-1-1-2.2-1.6-3.6-2
			c-1.4-0.4-2.9-0.6-4.5-0.6c-1.6,0-3.1,0.3-4.4,0.8c-1.3,0.5-2.5,1.2-3.5,2.2c-1,0.9-1.7,2.1-2.3,3.4c-0.5,1.3-0.8,2.8-0.8,4.4
			c0,1.6,0.3,3.1,0.8,4.4c0.6,1.3,1.3,2.4,2.3,3.4c1,0.9,2.1,1.6,3.5,2.1c1.3,0.5,2.8,0.7,4.4,0.7c1.5,0,3-0.2,4.4-0.5
			c1.4-0.3,2.8-0.8,4.1-1.5l-0.1-10.6L284.2,18.7z"/>
		<polygon class="st0" points="309.7,30.3 309.7,26.1 299.9,26.2 299.8,22.1 308.7,22 308.6,17.9 299.8,17.9 299.8,14.1 309.1,14.1 
			309.1,10 295.3,10 295.4,30.4 		"/>
		<path class="st0" d="M317.4,30.3l0-8.1l2.2,0l4.3,8.1l5.4,0l-5.2-8.6c1.4-0.3,2.5-0.9,3.3-1.9c0.7-1,1.1-2.2,1.1-3.7
			c0-1.2-0.2-2.2-0.6-3c-0.4-0.8-1-1.4-1.7-1.9c-0.7-0.5-1.5-0.8-2.4-1c-0.9-0.2-1.9-0.3-2.9-0.3l-7.9,0l0.1,20.3L317.4,30.3z
			 M320.3,13.8c0.4,0,0.8,0,1.2,0.1c0.4,0.1,0.8,0.2,1.1,0.3c0.3,0.2,0.6,0.4,0.8,0.7c0.2,0.3,0.3,0.7,0.3,1.2c0,0.6-0.1,1-0.4,1.3
			c-0.2,0.3-0.5,0.5-0.9,0.7c-0.4,0.1-0.8,0.2-1.2,0.3c-0.5,0-0.9,0-1.3,0l-2.6,0l0-4.6L320.3,13.8z"/>
	</g>
	<g>
		<path class="st1" d="M118.3,45.4h14.5c7.2,0,12.7,3.4,12.7,10.4c0,4.8-2.9,7.8-7.2,9.2v0.1c5,0.4,9,4.8,9,10.4
			c0,7.5-6.5,11.6-14.7,11.6h-14.3V45.4z M123.9,62.7h7.7c4.3,0,7.8-1.7,7.8-6.2c0-3.3-2.1-6.1-6.6-6.1h-8.9V62.7z M123.9,82.1h8.3
			c3.4,0,9-1.2,9-7.1c0-4.9-3.5-7.4-8.9-7.4h-8.4V82.1z"/>
		<path class="st1" d="M160.2,45.4v25.5c0,5.2,2.6,11.9,10.5,11.9c7.9,0,10.5-6.7,10.5-11.9V45.4h5.7v26.4c0,9.7-7,16.3-16.1,16.3
			s-16.1-6.7-16.1-16.3V45.4H160.2z"/>
		<path class="st1" d="M196.8,45.4h14.7c10.7,0,13.4,6.4,13.4,11.7c0,5.3-3.9,10.3-10.2,11l11.8,19h-7.1l-10.6-18.4h-6.3v18.4h-5.7
			V45.4z M202.4,63.7h7.4c4.5,0,8.9-1.1,8.9-6.7s-4.5-6.7-8.9-6.7h-7.4V63.7z"/>
		<path class="st1" d="M232.8,45.4h14.7c10.7,0,13.4,6.4,13.4,11.7c0,5.3-3.9,10.3-10.2,11l11.8,19h-7.1l-10.6-18.4h-6.3v18.4h-5.7
			V45.4z M238.4,63.7h7.4c4.5,0,8.9-1.1,8.9-6.7s-4.5-6.7-8.9-6.7h-7.4V63.7z"/>
		<path class="st1" d="M266.1,66.2c0-12.4,9-21.9,21.7-21.9c12.7,0,21.7,9.5,21.7,21.9c0,12.4-9,21.9-21.7,21.9
			C275.1,88.1,266.1,78.6,266.1,66.2z M303.6,66.2c0-9.1-6.2-16.6-15.7-16.6c-9.5,0-15.7,7.5-15.7,16.6s6.2,16.6,15.7,16.6
			C297.4,82.8,303.6,75.3,303.6,66.2z"/>
		<path class="st1" d="M312.4,45.4h5.9l9.2,33.3h0.1l9.8-33.3h6.5l9.8,33.3h0.1l9.2-33.3h5.9l-12.1,41.7h-5.9l-10.1-34h-0.1
			l-10.1,34h-5.9L312.4,45.4z"/>
	</g>
	<g>
		<path class="st1" d="M43.6,41c-0.2-0.2-0.3-0.4-0.5-0.7c-0.6-1-1.4-2.6-2.2-4.7l5.3,3.6c-0.1,0.6-0.3,1-0.4,1.2
			c-0.3,0.5-0.7,0.6-1.9,0.7L43.6,41z"/>
		<path class="st1" d="M8.9,20.2c1.1-1.5,2.2-2.9,3.4-4.1l15.5,10.6l1.2-1.7c0.8,2.3,1.5,4.8,2.2,7.5l-2.7-1.8L14.5,50.3l-5.7,1.9
			L8.9,20.2z M11.7,49.3L26.1,29l-14.3-9.8V49.3z"/>
		<path class="st1" d="M83.3,50.8l-5.9-8.4c0.7-0.9,1.2-1.8,1.7-2.6l6.7,9.6V19.2L74.4,27c-1.3-0.3-2.7-0.6-4.1-0.7L85.4,16
			c1.2,1.3,2.3,2.7,3.4,4.1l0,32.3L83.3,50.8z M47.3,3.8L36.2,19.5c-0.1-0.5-0.2-0.9-0.3-1.4c1.4-1.8,1.9-3.6,1.5-5.2L46.4,0
			c0.6,0,1.3,0,1.9,0l0.4,0l0.4,0c0.6,0,1.3,0,1.9,0l18.5,26.3c-0.3,0-0.7,0-1,0c-0.7,0-1.5,0-2.4,0.1L50.3,3.8V32
			c-0.6,0.5-1.2,1.1-1.7,1.7c-0.5,0.7-1,1.4-1.3,2.2V3.8z"/>
		<path class="st1" d="M43.8,41.2L43.8,41.2C43.9,41.2,43.8,41.2,43.8,41.2z"/>
		<polygon class="st2" points="40,62.8 14,54 28,71.2 44.1,64.4 		"/>
		<polygon class="st2" points="47.3,95 47.3,66.2 29.9,73.5 		"/>
		<polygon class="st2" points="50.3,95 67.7,73.5 50.3,66.2 		"/>
		<path class="st2" d="M63.2,34.4c0.1,0,0.2,0,0.3,0c0.4,0,0.8-0.3,0.9-0.7c0,0,0.2-0.5,0.5-0.5c0.3,0,0.5-0.2,0.6-0.4
			c0.2-0.2,0.2-0.5,0.2-0.7c-0.1-0.5-0.5-0.8-1-0.8h0l-0.1,0c-1.2,0.2-1.9,1.2-2.1,1.8c-0.1,0.2-0.1,0.5,0.1,0.7
			C62.7,34.1,62.9,34.3,63.2,34.4z"/>
		<polygon class="st2" points="11.7,78 25.2,72.3 11.7,55.7 		"/>
		<polygon class="st2" points="53.2,64.3 69.6,71.2 83.5,54 		"/>
		<polygon class="st2" points="85.8,78 85.8,55.7 72.3,72.3 		"/>
		<polygon class="st2" points="11.7,78 25.2,72.3 11.7,55.7 		"/>
		<polygon class="st2" points="40,62.8 14,54 28,71.2 44.1,64.4 		"/>
		<path class="st2" d="M63.2,34.4c0.1,0,0.2,0,0.3,0c0.4,0,0.8-0.3,0.9-0.7c0,0,0.2-0.5,0.5-0.5c0.3,0,0.5-0.2,0.6-0.4
			c0.2-0.2,0.2-0.5,0.2-0.7c-0.1-0.5-0.5-0.8-1-0.8h0l-0.1,0c-1.2,0.2-1.9,1.2-2.1,1.8c-0.1,0.2-0.1,0.5,0.1,0.7
			C62.7,34.1,62.9,34.3,63.2,34.4z"/>
		<polygon class="st2" points="47.3,95 47.3,66.2 29.9,73.5 		"/>
		<polygon class="st2" points="85.8,78 85.8,55.7 72.3,72.3 		"/>
		<polygon class="st2" points="50.3,95 67.7,73.5 50.3,66.2 		"/>
		<polygon class="st2" points="53.2,64.3 69.6,71.2 83.5,54 		"/>
		<path class="st3" d="M88.9,52.2L88.9,52.2l-0.2-0.1l-15-5.1c-0.7,0.7-1.4,1.5-2.1,2.3l0,0l8.8,3l-18.4,6.3c1-3.2,4-7.1,6.8-10.1
			l0.9-1c0.5-0.6,1.1-1.1,1.6-1.7c0.6-0.7,1.2-1.3,1.7-1.9c0.7-0.8,1.5-1.8,2.3-2.9c-1.3-0.4-2.5-0.4-3.3-0.4c-0.5,0-0.8,0-0.8,0
			l-0.1,0c-0.5,0-0.9-0.4-1-0.8c0-0.3,0-0.5,0.2-0.7c0.2-0.2,0.4-0.3,0.6-0.4c0.1,0,0.5-0.1,1.1-0.1c0.8,0,1.9,0.1,3.3,0.4
			c0.4,0.1,0.7,0.2,1.1,0.3c0.5-0.8,0.9-1.5,1.3-2.2c0-0.1,0.1-0.1,0.1-0.2c-0.5,0-1-0.1-1.6-0.2c-0.7-0.2-3.9-1.1-4.7-2.9
			c-0.7-1.6,0.5-3.3,1-4c0.2-0.2,0.3-0.4,0.5-0.6c-0.3-0.1-0.6-0.1-0.9-0.2c-1-0.2-2.1-0.2-3.2-0.2c-0.7,0-1.5,0-2.4,0.1
			c-1.3,0.1-2.6,0.3-3.9,0.6c-1,1.2-1.4,2.3-1.7,3.1c-0.2,0.6-0.2,0.9-0.2,0.9c0,0.5-0.5,0.9-1,0.9c0,0,0,0,0,0
			c-0.4,0-0.7-0.3-0.8-0.7c0-0.1,0-0.2,0-0.3c0-0.2,0.2-1.5,1-3.2c-2,0.6-4,1.5-5.8,2.4c-1.3,0.7-2.3,1.5-3.1,2.5
			c-1,1.2-1.4,2.6-1.7,3.7l-0.1,0.3c-0.2,0.7-0.4,1.5-0.7,2c-0.3,0.8-0.6,1.6-1,2.4c-1.2,2.4-2.7,3.6-2.7,3.7
			c-0.2,0.1-0.4,0.2-0.6,0.2c-0.3,0-0.5-0.1-0.7-0.3c-0.3-0.4-0.3-1,0.1-1.4c0,0,1-0.9,1.9-2.4c-0.4,0.1-0.8,0.1-1.3,0.1l-0.3,0
			c-0.9,0-1.9-0.8-2.9-2.6c-0.5-0.8-0.9-1.7-1.4-2.8c-0.7-1.5-1.3-3.3-2-5.4c-1.2-3.8-2.3-7.8-3-10.5c-0.5-1.9-0.8-3.5-1-4.3
			L33,17.4l0.1-0.1c1.7-1.9,2.2-3.5,1.3-4.6c-0.2-0.3-0.5-0.4-0.8-0.4c0,0-0.1,0-0.2,0c-0.1,0-0.2,0-0.3,0.1c-0.1,0-0.1,0-0.2,0.1
			c-0.1,0.1-0.3,0.1-0.4,0.2c-1.1,1-1.1,3.4-1.1,3.5c0,0.3-0.1,0.5-0.3,0.7c-0.2,0.2-0.4,0.3-0.7,0.3c-0.5,0-0.9-0.4-1-0.9
			c0-0.2-0.1-4.3,2.6-5.6c-0.3-5.6-1.1-9.1-2.2-9.4c-0.1,0-0.3-0.1-0.4-0.1c-0.3,0-0.5,0.1-0.7,0.3c-1.2,1.6,0.2,7.7,0.2,7.8
			l0.1,0.4l-0.4-0.2c-0.3-0.1-0.6-0.2-0.9-0.2c-1.2,0-1.6,1.3-1.6,1.4l-0.1,0.2L26,11c-0.4-0.1-0.7-0.2-1-0.2
			c-1.5,0-1.8,1.7-1.8,1.8L23.1,13l-0.3-0.3c-0.1-0.1-5.4-6-7.7-6c-0.3,0-0.5,0.1-0.7,0.4c-1.3,2.4,4.5,5.6,9,8.2
			c2.9,1.6,5.5,3.1,6,4.1c0.4,0.8,0.8,1.7,1.2,2.8c0.4,1.1,0.9,2.4,1.3,3.9c0.4,1.3,0.8,2.6,1.1,3.9c0.4,1.6,0.8,3.2,1.2,4.8
			c0.7,3.2,1.1,6,1.3,8.2c0.1,1.2,0.1,2.2-0.1,3l-0.1,0.6c-0.8,4.3-2.7,9.3-3.2,10.7l-0.1,0.2l-14.9-5.1l15.4-5.2
			c0.1-0.5,0.2-1.1,0.3-1.6c0.1-0.4,0.1-0.9,0.1-1.6l-17.8,6l-6.4,2.1h0v0l-8.8,3c0.1,1,0.3,2,0.5,2.9l8.4-2.8v22.2
			c0.9,1.3,1.9,2.5,2.9,3.7l15.3-6.4l18.5,22.8c1,0.1,1.9,0.1,2.7,0.1l0.4,0l0.4,0c0.8,0,1.7,0,2.7-0.1l18.5-22.8l15.3,6.4
			c1-1.1,2-2.4,2.9-3.7V55.2l8.4,2.8c0.2-0.9,0.3-1.8,0.5-2.9L88.9,52.2z M62.5,33.2c0.2-0.6,0.8-1.7,2.1-1.8l0.1,0h0
			c0.5,0,0.9,0.4,1,0.8c0,0.3,0,0.5-0.2,0.7c-0.2,0.2-0.4,0.3-0.6,0.4c-0.3,0-0.5,0.5-0.5,0.5c-0.1,0.4-0.5,0.7-0.9,0.7
			c-0.1,0-0.2,0-0.3,0c-0.2-0.1-0.4-0.2-0.6-0.5C62.5,33.7,62.5,33.4,62.5,33.2z M11.7,78V55.7l13.5,16.6L11.7,78z M14,54L40,62.8
			l4.1,1.6L28,71.2L14,54z M47.3,95L29.9,73.5l17.4-7.3V95z M50.3,95V66.2l17.4,7.3L50.3,95z M69.6,71.2l-16.4-6.8L83.5,54
			L69.6,71.2z M85.8,78l-13.5-5.6l13.5-16.6V78z"/>
		<path class="st3" d="M73.6,31c-0.5,0.7-1,1.6-0.7,2.2c0.3,0.6,2,1.4,3.4,1.8c0.6,0.1,1.1,0.2,1.6,0.2c0,0,0,0,0,0
			c0.1,0,0.1,0,0.2,0c0,0,1-4-3.5-5.2C74.3,30.3,73.9,30.7,73.6,31z"/>
	</g>
</g>
</svg>
