<?xml version="1.0" encoding="utf-8"?>
<svg viewBox="0.06 0.62 98.512 80.76" xmlns="http://www.w3.org/2000/svg">
  <defs>
    <clipPath id="clippath4">
      <path d="M 0.06 81.38 L 327.871 81.38 L 327.871 0 L 0.06 0 Z" style="fill: none; clip-rule: nonzero;"/>
    </clipPath>
  </defs>
  <g>
    <path d="M 68.022 6.761 C 69.376 5.017 69.43 2.7 69.821 0.62 C 70.012 2.718 69.767 5.18 71.347 6.842 C 73.21 8.677 76.035 8.377 78.451 8.523 C 76.126 8.886 73.546 8.859 71.602 10.34 C 69.712 12.039 69.975 14.809 69.812 17.117 C 69.422 14.846 69.448 12.256 67.814 10.467 C 66.178 9.05 63.88 9.014 61.872 8.577 C 63.98 8.35 66.487 8.496 68.022 6.761" style="fill: rgb(157, 46, 90); fill-opacity: 1; clip-path: url(#clippath4);"/>
    <path d="M 35.156 67.779 C 32.848 72.458 29.533 76.545 25.681 80.034 C 29.006 79.952 32.339 79.916 35.665 79.797 C 37.027 78.525 38.499 77.39 40.043 76.345 C 39.089 73.147 37.309 70.304 35.156 67.779 Z M 65.733 79.852 C 68.931 79.916 72.137 79.988 75.344 80.006 C 76.625 78.752 77.979 77.563 79.368 76.427 C 76.434 72.04 70.666 71.04 67.523 66.807 C 64.253 70.414 65.624 75.473 65.733 79.852 Z M 49.436 66.053 C 49.618 70.659 49.309 75.301 48.11 79.77 C 50.036 79.743 51.98 79.843 53.905 79.634 C 55.414 78.825 56.703 77.635 58.148 76.718 C 56.377 73.893 54.051 71.431 52.615 68.388 C 55.686 67.715 58.747 66.916 61.636 65.644 C 57.567 65.753 53.506 66.226 49.436 66.053 Z M 33.712 15.69 C 37.172 16.517 40.479 14.809 43.831 14.237 C 44.394 16.962 45.067 19.923 43.859 22.576 C 42.096 25.001 39.289 26.809 38.644 29.916 C 37.59 33.832 39.625 37.538 41.669 40.717 C 40.906 37.51 40.47 34.222 40.842 30.934 C 47.183 31.715 52.761 35.503 55.904 41.035 C 55.205 38.364 54.106 35.812 52.715 33.422 C 59.12 32.85 65.979 33.205 71.583 36.675 C 77.697 40.29 81.412 47.349 81.131 54.425 C 81.031 60.548 83.02 66.78 87.399 71.176 C 87.408 74.392 87.39 77.617 87.653 80.824 C 91.296 80.906 94.938 80.96 98.572 81.187 C 92.776 81.668 86.963 81.105 81.158 81.214 C 54.106 81.196 27.044 81.269 0 81.206 C 3.824 80.978 7.649 80.77 11.464 80.406 C 13.326 77.726 17.196 77.417 18.613 74.365 C 21.103 70.223 22.047 65.363 22.247 60.584 C 24.863 62.355 27.725 63.728 30.768 64.59 C 25.627 60.639 20.73 55.951 18.559 49.665 C 14.689 40.408 16.651 29.362 22.719 21.495 C 21.857 20.514 19.722 19.487 20.921 17.961 C 22.329 15.772 24.945 17.071 26.708 17.998 C 28.915 16.953 31.113 15.1 33.712 15.69" style="fill: rgb(157, 46, 90); fill-opacity: 1; clip-path: url(#clippath4);"/>
  </g>
</svg>