<?xml version="1.0" encoding="utf-8"?>
<!-- Generator: Adobe Illustrator 25.3.1, SVG Export Plug-In . SVG Version: 6.00 Build 0)  -->
<svg version="1.1" id="Layer_1" xmlns="http://www.w3.org/2000/svg" xmlns:xlink="http://www.w3.org/1999/xlink" x="0px" y="0px"
	 viewBox="0 0 325.7 93.7" style="enable-background:new 0 0 325.7 93.7;" xml:space="preserve">
<style type="text/css">
	.st0{fill:#FFFFFF;}
	.st1{fill:#24272A;}
	.st2{fill:#845778;}
	.st3{fill:none;}
	.st4{fill:#F38064;}
	.st5{fill:#F9BD89;}
	.st6{fill:#57C4C2;}
	.st7{fill:#978BA4;}
	.st8{fill:#90D1C2;}
	.st9{fill:#BF97BA;}
	.st10{fill:#BDE3DB;}
	.st11{fill:#FDDED2;}
	.st12{fill:#F59399;}
	.st13{fill:#F2B3BC;}
	.st14{fill:#FCCAB5;}
	.st15{fill:#52797D;}
	.st16{fill:#82C88F;}
	.st17{fill:#EDDAD9;}
	.st18{fill:#F8E0C1;}
	.st19{fill:#F1DDA6;}
	.st20{fill:#E7ECD7;}
</style>
<g>
	<rect x="61.3" y="28.8" class="st0" width="3.8" height="3.6"/>
	<rect x="28.8" y="61.3" class="st0" width="3.7" height="3.6"/>
	<rect x="28.8" y="28.8" class="st0" width="3.7" height="3.6"/>
	<rect x="61.3" y="61.3" class="st0" width="3.7" height="3.6"/>
	<polygon class="st1" points="115.2,9.3 119.6,9.2 119.7,16.8 128.4,16.7 128.3,9.2 132.8,9.2 132.9,29.4 128.4,29.4 128.4,20.7 
		119.7,20.7 119.8,29.5 115.3,29.5 	"/>
	<polygon class="st1" points="143.7,20.9 136,9.3 141.5,9.3 145.9,16.8 150.4,9.2 155.7,9.2 148.1,20.8 148.2,29.5 143.7,29.5 	"/>
	<path class="st1" d="M158.8,9.2l7.5,0c1,0,2,0.1,3,0.3c0.9,0.2,1.8,0.5,2.5,1c0.7,0.5,1.3,1.1,1.7,1.9c0.4,0.8,0.6,1.8,0.6,3
		c0,1.2-0.2,2.2-0.6,3c-0.4,0.8-0.9,1.4-1.6,1.9c-0.7,0.5-1.5,0.8-2.4,1c-0.9,0.2-1.9,0.3-3,0.3l-3.3,0l0,7.9l-4.5,0L158.8,9.2z
		 M163.3,17.8l3,0c0.4,0,0.8,0,1.2-0.1c0.4-0.1,0.7-0.2,1-0.4c0.3-0.2,0.5-0.4,0.7-0.7c0.2-0.3,0.3-0.7,0.3-1.2
		c0-0.5-0.1-0.9-0.4-1.2c-0.2-0.3-0.5-0.6-0.9-0.7c-0.4-0.2-0.8-0.3-1.2-0.3c-0.5,0-0.9-0.1-1.3-0.1l-2.3,0L163.3,17.8z"/>
	<polygon class="st1" points="177.2,9.3 190.9,9.2 191,13.3 181.6,13.4 181.7,17.1 190.5,17.1 190.5,21.2 181.7,21.2 181.7,25.4 
		191.5,25.3 191.6,29.4 177.3,29.5 	"/>
	<path class="st1" d="M194.6,9.2l7.8,0c1,0,2,0.1,2.9,0.3c0.9,0.2,1.7,0.5,2.4,1c0.7,0.5,1.3,1.1,1.7,1.9c0.4,0.8,0.6,1.8,0.6,3
		c0,1.4-0.4,2.6-1.1,3.7c-0.7,1-1.8,1.6-3.3,1.9l5.2,8.5l-5.4,0l-4.3-8.1l-2.2,0l0,8.1l-4.5,0L194.6,9.2z M199.2,17.6l2.6,0
		c0.4,0,0.8,0,1.3,0c0.4,0,0.9-0.1,1.2-0.3c0.4-0.1,0.7-0.4,0.9-0.7c0.2-0.3,0.4-0.7,0.4-1.3c0-0.5-0.1-0.9-0.3-1.2
		c-0.2-0.3-0.5-0.5-0.8-0.7c-0.3-0.2-0.7-0.3-1.1-0.3c-0.4-0.1-0.8-0.1-1.2-0.1l-2.9,0L199.2,17.6z"/>
	<polygon class="st1" points="214,9.2 218.5,9.2 218.5,25.3 226.8,25.3 226.8,29.4 214.1,29.5 	"/>
	<polygon class="st1" points="229.9,9.2 243.7,9.2 243.7,13.3 234.4,13.3 234.4,17.1 243.2,17.1 243.3,21.2 234.5,21.2 234.5,25.4 
		244.3,25.3 244.3,29.4 230,29.5 	"/>
	<path class="st1" d="M247.4,9.2l6.7,0c1.6,0,3.2,0.2,4.6,0.5c1.5,0.4,2.7,0.9,3.8,1.7c1.1,0.8,2,1.9,2.6,3.1c0.6,1.3,1,2.9,1,4.7
		c0,1.6-0.3,3.1-0.9,4.3c-0.6,1.3-1.4,2.3-2.5,3.2c-1,0.9-2.3,1.5-3.6,1.9c-1.4,0.4-2.8,0.7-4.3,0.7l-7.3,0L247.4,9.2z M252,25.3
		l2.3,0c1,0,2-0.1,2.9-0.3c0.9-0.2,1.7-0.6,2.3-1.1c0.6-0.5,1.2-1.1,1.5-1.9c0.4-0.8,0.5-1.8,0.5-2.9c0-1-0.2-1.9-0.6-2.6
		c-0.4-0.7-0.9-1.3-1.5-1.8c-0.6-0.5-1.4-0.8-2.2-1.1c-0.9-0.2-1.7-0.3-2.7-0.3l-2.6,0L252,25.3z"/>
	<path class="st1" d="M288.7,28c-1.3,0.7-2.7,1.2-4.1,1.5c-1.4,0.3-2.9,0.5-4.4,0.5c-1.6,0-3-0.2-4.4-0.7c-1.3-0.5-2.5-1.2-3.5-2.1
		c-1-0.9-1.7-2-2.3-3.3c-0.6-1.3-0.8-2.8-0.8-4.4c0-1.6,0.3-3.1,0.8-4.4c0.5-1.3,1.3-2.4,2.3-3.4c1-0.9,2.1-1.6,3.5-2.1
		c1.3-0.5,2.8-0.8,4.4-0.8c1.6,0,3.1,0.2,4.5,0.6c1.4,0.4,2.6,1.1,3.6,2l-3.1,3.4c-0.6-0.6-1.3-1.1-2.1-1.4
		c-0.8-0.3-1.7-0.5-2.9-0.5c-1,0-1.8,0.2-2.6,0.5c-0.8,0.3-1.4,0.8-2,1.4c-0.5,0.6-1,1.3-1.3,2.1c-0.3,0.8-0.4,1.7-0.4,2.6
		c0,1,0.2,1.8,0.5,2.6c0.3,0.8,0.7,1.5,1.3,2.1c0.6,0.6,1.2,1,2,1.4c0.8,0.3,1.6,0.5,2.6,0.5c1,0,1.8-0.1,2.5-0.3
		c0.7-0.2,1.3-0.4,1.7-0.7l0-3.3l-3.6,0l0-4.1l7.9,0L288.7,28z"/>
	<polygon class="st1" points="291.8,8.8 305.6,8.7 305.6,12.8 296.3,12.9 296.3,16.6 305.1,16.6 305.2,20.7 296.4,20.8 296.4,24.9 
		306.2,24.8 306.2,29 291.9,29 	"/>
	<path class="st1" d="M309.3,8.8l7.8,0c1,0,2,0.1,2.9,0.3c0.9,0.2,1.7,0.5,2.4,1c0.7,0.5,1.3,1.1,1.7,1.9c0.4,0.8,0.6,1.8,0.6,3
		c0,1.4-0.4,2.6-1.1,3.7c-0.7,1-1.8,1.6-3.3,1.9l5.2,8.5l-5.4,0l-4.3-8.1l-2.2,0l0,8.1l-4.5,0L309.3,8.8z M313.8,17.1l2.6,0
		c0.4,0,0.8,0,1.3,0c0.4,0,0.9-0.1,1.2-0.3c0.4-0.1,0.7-0.4,0.9-0.7c0.2-0.3,0.4-0.7,0.4-1.3c0-0.5-0.1-0.9-0.3-1.2
		c-0.2-0.3-0.5-0.5-0.8-0.7c-0.3-0.2-0.7-0.3-1.1-0.3c-0.4-0.1-0.8-0.1-1.2-0.1l-2.9,0L313.8,17.1z"/>
	<g>
		<path class="st2" d="M161,85.7h-24c-2.9,0-5.7-0.5-8.3-1.6c-2.6-1.1-4.9-2.5-6.9-4.4c-2-1.9-3.5-4.1-4.6-6.7
			c-1.1-2.6-1.7-5.5-1.7-8.6c0-3.1,0.5-5.9,1.6-8.5c1.1-2.6,2.6-4.9,4.6-6.8c1.9-1.9,4.2-3.4,6.8-4.5c2.6-1.1,5.4-1.6,8.5-1.6
			c2.9,0,5.7,0.5,8.3,1.6c2.6,1.1,4.8,2.5,6.7,4.4c1.9,1.9,3.4,4.1,4.6,6.6c1.1,2.5,1.7,5.3,1.7,8.3c0,1.8-0.2,3.5-0.6,5.2
			c-0.4,1.7-1,3.3-1.8,4.8c-0.8,1.5-1.8,2.8-3,4c-1.2,1.2-2.6,2.1-4.1,2.8v0.1H161V85.7z M136.8,80.4c2.3,0,4.4-0.4,6.3-1.3
			c1.9-0.8,3.5-2,4.9-3.5c1.4-1.5,2.4-3.2,3.1-5.2c0.7-2,1.1-4.1,1.1-6.4c0-2.2-0.4-4.3-1.1-6.2c-0.8-1.9-1.8-3.6-3.2-5
			s-3-2.5-4.9-3.4s-3.9-1.2-6.2-1.2c-2.2,0-4.2,0.4-6.1,1.2c-1.9,0.8-3.5,1.9-4.9,3.4c-1.4,1.4-2.5,3.1-3.2,5
			c-0.8,1.9-1.2,3.9-1.2,6.1c0,2.3,0.4,4.4,1.1,6.4c0.7,2,1.8,3.7,3.1,5.2c1.4,1.5,3,2.7,4.9,3.5C132.4,80,134.5,80.4,136.8,80.4z"
			/>
		<path class="st2" d="M170.7,44.1v25.5c0,1.3,0.2,2.6,0.5,4c0.4,1.4,0.9,2.7,1.8,3.9c0.8,1.2,1.9,2.1,3.2,2.9
			c1.3,0.7,3,1.1,4.9,1.1s3.6-0.4,4.9-1.1c1.3-0.7,2.4-1.7,3.2-2.9c0.8-1.2,1.4-2.5,1.8-3.9c0.4-1.4,0.5-2.7,0.5-4V44.1h5.6v26.4
			c0,2.4-0.4,4.6-1.2,6.6c-0.8,2-2,3.7-3.4,5.1c-1.5,1.5-3.2,2.6-5.1,3.4c-2,0.8-4.1,1.2-6.4,1.2s-4.4-0.4-6.3-1.2
			c-2-0.8-3.7-1.9-5.1-3.4c-1.5-1.4-2.6-3.2-3.4-5.1c-0.8-2-1.2-4.2-1.2-6.6V44.1H170.7z"/>
		<path class="st2" d="M206.4,44.1h5.6v41.6h-5.6V44.1z"/>
		<path class="st2" d="M221.5,44.1h5.6v36.3h19.1v5.3h-24.8V44.1z"/>
		<path class="st2" d="M255,49.3h-13.4v-5.3h32.5v5.3h-13.4v36.3H255V49.3z"/>
	</g>
	<g>
		<polygon class="st3" points="61.3,28.8 61.3,28.8 61.3,28.8 61.3,32.4 32.6,32.4 32.6,61.3 61.3,61.3 61.3,32.4 65,32.4 65,28.8 
			65,28.8 		"/>
		<polygon class="st3" points="61.4,64.9 65,64.9 65,61.4 65,61.3 61.4,61.3 		"/>
		<polygon class="st3" points="32.5,28.8 32.5,28.8 28.8,28.8 28.8,32.4 32.5,32.4 		"/>
		<rect x="28.8" y="61.3" class="st3" width="3.7" height="3.6"/>
		<rect x="65" y="0" class="st4" width="28.8" height="28.8"/>
		<rect x="65" y="32.4" class="st5" width="28.8" height="28.8"/>
		<rect x="32.5" y="64.9" class="st6" width="28.8" height="28.8"/>
		<polygon class="st2" points="28.8,0 0,0 0,28.8 0,28.8 28.8,28.8 		"/>
		<polygon class="st7" points="28.8,32.4 0,32.4 0,32.4 0,61.3 28.8,61.3 		"/>
		<rect x="28.8" y="64.9" class="st8" width="3.7" height="28.8"/>
		<rect x="0" y="28.8" class="st9" width="28.8" height="3.6"/>
		<polygon class="st10" points="28.8,64.9 28.8,61.3 0,61.3 0,64.9 28.8,64.9 		"/>
		<polygon class="st11" points="32.6,32.4 61.3,32.4 61.3,28.8 32.6,28.8 32.5,28.8 32.5,32.4 		"/>
		<polygon class="st12" points="61.3,28.8 61.3,28.8 61.3,0 32.6,0 32.6,28.8 		"/>
		<polygon class="st13" points="32.5,28.8 32.5,28.8 32.6,28.8 32.6,0 32.5,0 28.8,0 28.8,28.8 		"/>
		<polygon class="st14" points="61.3,28.8 65,28.8 65,28.8 65,0 65,0 61.3,0 61.3,0 61.3,28.8 		"/>
		<polygon class="st15" points="28.8,64.9 0,64.9 0,93.7 28.8,93.7 28.8,93.7 28.8,64.9 		"/>
		<rect x="65" y="64.9" class="st16" width="28.8" height="28.8"/>
		<polygon class="st17" points="32.5,61.3 32.6,61.3 32.6,32.4 32.5,32.4 28.8,32.4 28.8,61.3 32.5,61.3 		"/>
		<rect x="61.4" y="64.9" class="st10" width="3.7" height="28.8"/>
		<polygon class="st18" points="93.8,28.8 65,28.8 65,32.4 65,32.4 93.9,32.4 93.9,28.8 		"/>
		<polygon class="st19" points="65,61.3 65,61.4 65,64.9 93.9,64.9 93.9,61.4 93.9,61.3 65,61.3 		"/>
		<polygon class="st11" points="61.3,61.3 61.4,61.3 61.4,61.3 65,61.3 65,61.3 65,32.4 65,32.4 61.3,32.4 		"/>
		<polygon class="st20" points="61.4,61.3 61.3,61.3 32.6,61.3 32.5,61.3 32.5,61.3 32.5,64.9 61.4,64.9 61.4,61.3 		"/>
	</g>
</g>
</svg>
