<?xml version="1.0" encoding="utf-8"?>
<svg viewBox="0 0.401 98.599 98.599" xmlns="http://www.w3.org/2000/svg">
  <defs>
    <clipPath id="clippath7">
      <path d="M 0 0 L 342.542 0 L 342.542 98.599 L 0 98.599 Z" style="fill: none; clip-rule: nonzero;"/>
    </clipPath>
  </defs>
  <g>
    <g>
      <path d="M 14.767 36.084 L 14.767 48.151 L 23.115 48.151 L 40.602 77.007 L 40.602 48.151 L 57.997 48.151 L 57.997 77.007 L 75.484 48.151 L 83.833 48.151 L 83.833 36.084 L 60.167 36.084 L 60.167 1.618 C 56.669 0.83 53.036 0.401 49.3 0.401 C 45.564 0.401 41.931 0.83 38.433 1.618 L 38.433 36.084 L 14.767 36.084" style="fill: rgb(255, 157, 71); fill-opacity: 1; clip-path: url(#clippath7);"/>
      <path d="M 63.767 2.562 L 63.767 32.484 L 87.433 32.484 L 87.433 51.75 L 77.512 51.75 L 54.398 89.894 L 54.398 51.75 L 44.202 51.75 L 44.202 89.894 L 21.088 51.75 L 11.167 51.75 L 11.167 32.484 L 34.833 32.484 L 34.833 2.562 C 14.666 8.745 0 27.508 0 49.701 C 0 76.928 22.072 99 49.3 99 C 76.527 99 98.599 76.928 98.599 49.701 C 98.599 27.508 83.934 8.745 63.767 2.562" style="fill: rgb(255, 157, 71); fill-opacity: 1; clip-path: url(#clippath7);"/>
    </g>
  </g>
</svg>