<?xml version="1.0" encoding="utf-8"?>
<!-- Generator: Adobe Illustrator 25.3.1, SVG Export Plug-In . SVG Version: 6.00 Build 0)  -->
<svg version="1.1" id="Layer_1" xmlns="http://www.w3.org/2000/svg" xmlns:xlink="http://www.w3.org/1999/xlink" x="0px" y="0px"
	 viewBox="0 0 405.4 91" style="enable-background:new 0 0 405.4 91;" xml:space="preserve">
<style type="text/css">
	.st0{fill:#24272A;}
	.st1{fill:#5BC5C2;}
</style>
<g>
	<polygon class="st0" points="121.4,8.7 125.8,8.7 125.9,16.2 134.6,16.2 134.5,8.6 139,8.6 139.1,28.8 134.6,28.9 134.6,20.1 
		125.9,20.2 125.9,28.9 121.5,28.9 	"/>
	<polygon class="st0" points="149.9,20.3 142.2,8.7 147.7,8.7 152.1,16.2 156.6,8.6 161.9,8.6 154.3,20.3 154.4,28.9 149.9,28.9 	
		"/>
	<path class="st0" d="M165,8.6l7.5,0c1,0,2,0.1,3,0.3c0.9,0.2,1.8,0.5,2.5,1c0.7,0.5,1.3,1.1,1.7,1.9c0.4,0.8,0.6,1.8,0.6,3
		c0,1.2-0.2,2.2-0.6,3c-0.4,0.8-0.9,1.4-1.6,1.9c-0.7,0.5-1.5,0.8-2.4,1c-0.9,0.2-1.9,0.3-3,0.3l-3.3,0l0,7.9l-4.5,0L165,8.6z
		 M169.5,17.2l3,0c0.4,0,0.8,0,1.2-0.1c0.4-0.1,0.7-0.2,1-0.4c0.3-0.2,0.5-0.4,0.7-0.7c0.2-0.3,0.3-0.7,0.3-1.2
		c0-0.5-0.1-0.9-0.4-1.2c-0.2-0.3-0.5-0.6-0.9-0.7c-0.4-0.2-0.8-0.3-1.2-0.3c-0.5,0-0.9-0.1-1.3-0.1l-2.3,0L169.5,17.2z"/>
	<polygon class="st0" points="183.4,8.7 197.1,8.6 197.1,12.7 187.8,12.8 187.9,16.5 196.7,16.5 196.7,20.6 187.9,20.7 187.9,24.8 
		197.7,24.7 197.7,28.8 183.5,28.9 	"/>
	<path class="st0" d="M200.8,8.7l7.8,0c1,0,2,0.1,2.9,0.3c0.9,0.2,1.7,0.5,2.4,1c0.7,0.5,1.3,1.1,1.7,1.9c0.4,0.8,0.6,1.8,0.6,3
		c0,1.4-0.4,2.6-1.1,3.7c-0.7,1-1.8,1.6-3.3,1.9l5.2,8.5l-5.4,0l-4.3-8.1l-2.2,0l0,8.1l-4.5,0L200.8,8.7z M205.3,17l2.6,0
		c0.4,0,0.8,0,1.3,0c0.4,0,0.9-0.1,1.2-0.3c0.4-0.1,0.7-0.4,0.9-0.7c0.2-0.3,0.4-0.7,0.4-1.3c0-0.5-0.1-0.9-0.3-1.2
		c-0.2-0.3-0.5-0.5-0.8-0.7c-0.3-0.2-0.7-0.3-1.1-0.3c-0.4-0.1-0.8-0.1-1.2-0.1l-2.9,0L205.3,17z"/>
	<polygon class="st0" points="220.2,8.6 224.7,8.6 224.7,24.7 233,24.7 233,28.8 220.3,28.9 	"/>
	<polygon class="st0" points="236.1,8.7 249.9,8.6 249.9,12.7 240.6,12.8 240.6,16.5 249.4,16.5 249.4,20.6 240.7,20.6 240.7,24.8 
		250.5,24.7 250.5,28.8 236.2,28.9 	"/>
	<path class="st0" d="M253.6,8.6l6.7,0c1.6,0,3.2,0.2,4.6,0.5c1.5,0.4,2.7,0.9,3.8,1.7c1.1,0.8,2,1.9,2.6,3.1c0.6,1.3,1,2.9,1,4.7
		c0,1.6-0.3,3.1-0.9,4.3c-0.6,1.3-1.4,2.3-2.5,3.2c-1,0.9-2.3,1.5-3.6,1.9c-1.4,0.4-2.8,0.7-4.3,0.7l-7.3,0L253.6,8.6z M258.2,24.8
		l2.3,0c1,0,2-0.1,2.9-0.3c0.9-0.2,1.7-0.6,2.3-1.1c0.6-0.5,1.2-1.1,1.5-1.9c0.4-0.8,0.5-1.8,0.5-2.9c0-1-0.2-1.9-0.6-2.6
		c-0.4-0.7-0.9-1.3-1.5-1.8c-0.6-0.5-1.4-0.8-2.2-1.1c-0.9-0.2-1.7-0.3-2.7-0.3l-2.6,0L258.2,24.8z"/>
	<path class="st0" d="M294.9,27.4c-1.3,0.7-2.7,1.2-4.1,1.5c-1.4,0.3-2.9,0.5-4.4,0.5c-1.6,0-3-0.2-4.4-0.7
		c-1.3-0.5-2.5-1.2-3.5-2.1c-1-0.9-1.7-2-2.3-3.3c-0.6-1.3-0.8-2.8-0.8-4.4c0-1.6,0.3-3.1,0.8-4.4c0.5-1.3,1.3-2.4,2.3-3.4
		c1-0.9,2.1-1.6,3.5-2.1c1.3-0.5,2.8-0.8,4.4-0.8c1.6,0,3.1,0.2,4.5,0.6c1.4,0.4,2.6,1.1,3.6,2l-3.1,3.4c-0.6-0.6-1.3-1.1-2.1-1.4
		c-0.8-0.3-1.7-0.5-2.9-0.5c-1,0-1.8,0.2-2.6,0.5c-0.8,0.3-1.4,0.8-2,1.4c-0.5,0.6-1,1.3-1.3,2.1c-0.3,0.8-0.4,1.7-0.4,2.6
		c0,1,0.2,1.8,0.5,2.6c0.3,0.8,0.7,1.5,1.3,2.1c0.6,0.6,1.2,1,2,1.4c0.8,0.3,1.6,0.5,2.6,0.5c1,0,1.8-0.1,2.5-0.3
		c0.7-0.2,1.3-0.4,1.7-0.7l0-3.3l-3.6,0l0-4.1l7.9,0L294.9,27.4z"/>
	<polygon class="st0" points="298,8.2 311.8,8.1 311.8,12.2 302.5,12.3 302.5,16.1 311.3,16 311.3,20.1 302.6,20.2 302.6,24.3 
		312.4,24.2 312.4,28.4 298.1,28.4 	"/>
	<path class="st0" d="M315.5,8.2l7.8,0c1,0,2,0.1,2.9,0.3c0.9,0.2,1.7,0.5,2.4,1c0.7,0.5,1.3,1.1,1.7,1.9c0.4,0.8,0.6,1.8,0.6,3
		c0,1.4-0.4,2.6-1.1,3.7c-0.7,1-1.8,1.6-3.3,1.9l5.2,8.5l-5.4,0l-4.3-8.1l-2.2,0l0,8.1l-4.5,0L315.5,8.2z M320,16.5l2.6,0
		c0.4,0,0.8,0,1.3,0c0.4,0,0.9-0.1,1.2-0.3c0.4-0.1,0.7-0.4,0.9-0.7c0.2-0.3,0.4-0.7,0.4-1.3c0-0.5-0.1-0.9-0.3-1.2
		c-0.2-0.3-0.5-0.5-0.8-0.7c-0.3-0.2-0.7-0.3-1.1-0.3c-0.4-0.1-0.8-0.1-1.2-0.1l-2.9,0L320,16.5z"/>
	<g>
		<g>
			<path class="st1" d="M121.5,43.6h26.8v5.3h-21.2v12.4h19.7v5.3h-19.7v13.3h22.2v5.3h-27.9V43.6z"/>
			<path class="st1" d="M167.7,63.3l-14-19.7h7.2l10.8,16l10.7-16h7l-13.8,19.7l15.3,21.9h-7.4l-11.9-18l-12,18h-7L167.7,63.3z"/>
			<path class="st1" d="M195.4,43.6H210c2.7,0,4.8,0.4,6.6,1.1c1.7,0.7,3.1,1.6,4.1,2.8c1,1.1,1.7,2.4,2.1,3.8
				c0.4,1.4,0.6,2.7,0.6,4s-0.2,2.6-0.6,4c-0.4,1.4-1.1,2.6-2.1,3.8c-1,1.1-2.4,2-4.1,2.8c-1.7,0.7-3.9,1.1-6.6,1.1h-9v18.3h-5.6
				V43.6z M201.1,61.9h7.4c1.1,0,2.2-0.1,3.3-0.3c1.1-0.2,2-0.5,2.9-1c0.8-0.5,1.5-1.1,2-2c0.5-0.9,0.8-2,0.8-3.4
				c0-1.4-0.3-2.6-0.8-3.4c-0.5-0.9-1.2-1.6-2-2c-0.8-0.5-1.8-0.8-2.9-1c-1.1-0.2-2.2-0.3-3.3-0.3h-7.4V61.9z"/>
			<path class="st1" d="M228.6,43.6h5.6v36.3h19.1v5.3h-24.7V43.6z"/>
			<path class="st1" d="M275.5,86.2c-3.2,0-6.1-0.6-8.7-1.7c-2.7-1.1-4.9-2.6-6.8-4.6c-1.9-2-3.4-4.3-4.5-6.9
				c-1.1-2.7-1.6-5.5-1.6-8.6c0-3.1,0.5-6,1.6-8.6c1.1-2.7,2.6-5,4.5-6.9c1.9-2,4.2-3.5,6.8-4.6c2.7-1.1,5.6-1.7,8.7-1.7
				c3.2,0,6.1,0.6,8.7,1.7c2.7,1.1,4.9,2.7,6.8,4.6c1.9,2,3.4,4.3,4.5,6.9c1.1,2.7,1.6,5.5,1.6,8.6c0,3.1-0.5,6-1.6,8.6
				c-1.1,2.7-2.6,5-4.5,6.9c-1.9,2-4.2,3.5-6.8,4.6C281.6,85.6,278.7,86.2,275.5,86.2z M275.5,80.9c2.4,0,4.5-0.4,6.5-1.3
				c1.9-0.9,3.6-2.1,4.9-3.5c1.4-1.5,2.4-3.2,3.2-5.3c0.7-2,1.1-4.2,1.1-6.4c0-2.3-0.4-4.4-1.1-6.4c-0.7-2-1.8-3.8-3.2-5.3
				c-1.4-1.5-3-2.7-4.9-3.5c-1.9-0.9-4.1-1.3-6.5-1.3s-4.5,0.4-6.5,1.3c-1.9,0.9-3.6,2.1-4.9,3.5c-1.4,1.5-2.4,3.2-3.2,5.3
				c-0.7,2-1.1,4.2-1.1,6.4c0,2.3,0.4,4.4,1.1,6.4c0.7,2,1.8,3.8,3.2,5.3c1.4,1.5,3,2.7,4.9,3.5C271,80.5,273.2,80.9,275.5,80.9z"/>
			<path class="st1" d="M303,43.6h14.6c2.7,0,4.8,0.4,6.6,1.1c1.7,0.7,3.1,1.6,4.1,2.8c1,1.1,1.7,2.4,2.1,3.8c0.4,1.4,0.6,2.7,0.6,4
				c0,1.3-0.2,2.6-0.7,3.8s-1.1,2.3-2,3.3c-0.9,1-2,1.8-3.2,2.5c-1.3,0.7-2.7,1.1-4.3,1.3l11.8,18.9h-7l-10.6-18.3h-6.3v18.3H303
				V43.6z M308.6,61.9h7.4c1.1,0,2.2-0.1,3.3-0.3c1.1-0.2,2-0.5,2.9-1c0.8-0.5,1.5-1.1,2-2c0.5-0.9,0.8-2,0.8-3.4
				c0-1.4-0.3-2.6-0.8-3.4c-0.5-0.9-1.2-1.6-2-2c-0.8-0.5-1.8-0.8-2.9-1c-1.1-0.2-2.2-0.3-3.3-0.3h-7.4V61.9z"/>
			<path class="st1" d="M338,43.6h26.8v5.3h-21.2v12.4h19.7v5.3h-19.7v13.3h22.2v5.3H338V43.6z"/>
			<path class="st1" d="M372.3,43.6h14.6c2.7,0,4.8,0.4,6.6,1.1c1.7,0.7,3.1,1.6,4.1,2.8c1,1.1,1.7,2.4,2.1,3.8
				c0.4,1.4,0.6,2.7,0.6,4c0,1.3-0.2,2.6-0.7,3.8s-1.1,2.3-2,3.3c-0.9,1-2,1.8-3.2,2.5c-1.3,0.7-2.7,1.1-4.3,1.3l11.8,18.9h-7
				l-10.6-18.3H378v18.3h-5.6V43.6z M378,61.9h7.4c1.1,0,2.2-0.1,3.3-0.3c1.1-0.2,2-0.5,2.9-1c0.8-0.5,1.5-1.1,2-2
				c0.5-0.9,0.8-2,0.8-3.4c0-1.4-0.3-2.6-0.8-3.4c-0.5-0.9-1.2-1.6-2-2c-0.8-0.5-1.8-0.8-2.9-1c-1.1-0.2-2.2-0.3-3.3-0.3H378V61.9z"
				/>
		</g>
	</g>
	<polygon class="st0" points="81,12.2 81,26.2 98.6,19 	"/>
	<polygon class="st0" points="4.5,74.2 25.8,82.7 25.8,30.7 4.5,22.2 	"/>
	<polygon class="st1" points="76.6,12.1 59.2,18.8 76.6,26.2 	"/>
	<polygon class="st1" points="8.5,19.1 25.9,26 25.9,12.7 	"/>
	<polygon class="st0" points="30.2,12.7 30.2,26 47.1,18.8 	"/>
	<polygon class="st1" points="30.2,82.6 51.3,73.8 51.3,21.7 30.2,30.7 	"/>
	<polygon class="st1" points="81.1,82.7 102.3,73.6 102.3,22.2 81.1,30.8 	"/>
	<polygon class="st0" points="55.6,73.8 76.7,82.6 76.7,30.9 55.6,22 	"/>
</g>
</svg>
