<?xml version="1.0" encoding="UTF-8" standalone="no"?>
<svg
   xmlns:dc="http://purl.org/dc/elements/1.1/"
   xmlns:cc="http://creativecommons.org/ns#"
   xmlns:rdf="http://www.w3.org/1999/02/22-rdf-syntax-ns#"
   xmlns:svg="http://www.w3.org/2000/svg"
   xmlns="http://www.w3.org/2000/svg"
   xmlns:sodipodi="http://sodipodi.sourceforge.net/DTD/sodipodi-0.dtd"
   xmlns:inkscape="http://www.inkscape.org/namespaces/inkscape"
   version="1.1"
   id="Layer_1"
   x="0px"
   y="0px"
   viewBox="0 0 299.44809 297.35999"
   xml:space="preserve"
   sodipodi:docname="hyp-cactus.svg"
   inkscape:version="1.0.1 (c497b03c, 2020-09-10)"
   width="299.44809"
   height="297.35999"><metadata
   id="metadata85"><rdf:RDF><cc:Work
       rdf:about=""><dc:format>image/svg+xml</dc:format><dc:type
         rdf:resource="http://purl.org/dc/dcmitype/StillImage" /><dc:title></dc:title></cc:Work></rdf:RDF></metadata><defs
   id="defs83" /><sodipodi:namedview
   pagecolor="#ffffff"
   bordercolor="#666666"
   borderopacity="1"
   objecttolerance="10"
   gridtolerance="10"
   guidetolerance="10"
   inkscape:pageopacity="0"
   inkscape:pageshadow="2"
   inkscape:window-width="1968"
   inkscape:window-height="898"
   id="namedview81"
   showgrid="false"
   inkscape:zoom="0.65663066"
   inkscape:cx="531.41674"
   inkscape:cy="209.59705"
   inkscape:window-x="0"
   inkscape:window-y="25"
   inkscape:window-maximized="0"
   inkscape:current-layer="Layer_1"
   fit-margin-top="0"
   fit-margin-left="0"
   fit-margin-right="0"
   fit-margin-bottom="0" />
<style
   type="text/css"
   id="style10">
	.st0{fill:none;}
	.st1{fill:#24272A;}
	.st2{fill:#AA9F84;}
	.st3{fill:#A8D04B;}
	.st4{fill:#80C88D;}
	.st5{fill:#FFFFFF;}
</style>
<g
   id="g290"
   transform="translate(-4.6532555,-1.32)"><path
     class="st3"
     d="m 89.92,230.32 c 4.51,1.63 9.12,2.58 13.46,2.58 1.93,0 3.81,-0.2 5.61,-0.6 0.08,-0.37 0.15,-0.76 0.24,-1.12 2.57,-10.77 8.54,-19.93 16.59,-26.52 -0.15,-10.45 -3.48,-21.51 -8.68,-28.77 -2.93,-4.09 -6.66,-7.24 -10.81,-9.46 l 2.84,-5.95 0.65,-1.36 c 0.78,-1.64 0.09,-3.6 -1.55,-4.39 -1.64,-0.78 -3.61,-0.09 -4.39,1.55 l -0.79,1.65 -2.88,6.03 c -2.89,-0.84 -5.87,-1.32 -8.88,-1.32 -6.38,0 -12.83,1.92 -18.41,5.92 -14.24,10.18 -17.52,29.98 -7.34,44.22 0.22,0.3 0.46,0.6 0.69,0.9 l -4.69,2.48 c -0.42,0.22 -0.76,0.52 -1.04,0.87 -0.79,0.99 -0.96,2.39 -0.33,3.58 0.59,1.11 1.73,1.75 2.91,1.75 0.52,0 1.05,-0.12 1.54,-0.38 l 0.07,-0.04 6.11,-3.24 c 3.57,3.34 7.9,6.36 12.54,8.75 l -0.16,7.26 -0.02,0.91 c -0.04,1.82 1.4,3.32 3.22,3.36 0.02,0 0.05,0 0.07,0 1.3,0 2.43,-0.76 2.96,-1.87 0.2,-0.41 0.32,-0.86 0.33,-1.34 z m 11.82,-16.84 c -2.07,0 -3.74,-1.67 -3.74,-3.74 0,-2.07 1.68,-3.74 3.74,-3.74 2.07,0 3.74,1.68 3.74,3.74 0.01,2.07 -1.67,3.74 -3.74,3.74 z M 98,178.27 c 2.07,0 3.74,1.68 3.74,3.74 0,2.07 -1.68,3.74 -3.74,3.74 -2.07,0 -3.74,-1.68 -3.74,-3.74 0,-2.07 1.68,-3.74 3.74,-3.74 z m -21.88,24.01 c -2.07,0 -3.74,-1.68 -3.74,-3.74 0,-2.07 1.67,-3.74 3.74,-3.74 2.07,0 3.74,1.67 3.74,3.74 0,2.06 -1.68,3.74 -3.74,3.74 z"
     id="path56" /><path
     class="st3"
     d="m 259.65,215.63 c 4.09,-10.51 2.43,-22.87 -5.4,-32.06 -6.27,-7.36 -15.18,-11.15 -24.15,-11.15 -1.48,0 -2.96,0.13 -4.43,0.34 l -2.57,-6.26 -0.28,-0.67 c -0.69,-1.68 -2.61,-2.49 -4.29,-1.8 -1.66,0.68 -2.46,2.57 -1.81,4.24 0.01,0.02 0.01,0.04 0.02,0.05 l 2.47,6.03 c -3.43,1.26 -6.7,3.12 -9.64,5.63 -7.75,6.6 -14.39,18.53 -16.38,29.98 6.73,7.55 11.06,17.11 12.17,27.34 3.77,1.55 8.1,2.28 12.64,2.28 5.47,0 11.21,-1.04 16.59,-2.79 l 2.08,5.8 c 0.05,0.14 0.15,0.26 0.21,0.39 0.57,1.1 1.68,1.79 2.88,1.79 0.37,0 0.74,-0.06 1.11,-0.19 1.61,-0.58 2.48,-2.29 2.06,-3.92 -0.03,-0.1 -0.04,-0.2 -0.07,-0.29 l -2.14,-5.97 c 3.76,-1.73 7.18,-3.81 9.93,-6.15 2.29,-1.95 4.2,-4.16 5.79,-6.54 l 6.88,1.34 1.18,0.23 c 0.21,0.04 0.43,0.06 0.64,0.06 1.54,0 2.92,-1.09 3.22,-2.66 0.32,-1.66 -0.67,-3.25 -2.24,-3.75 -0.12,-0.04 -0.23,-0.08 -0.36,-0.11 z m -41.34,-19.77 c -2.07,0 -3.74,-1.67 -3.74,-3.74 0,-2.07 1.68,-3.74 3.74,-3.74 2.07,0 3.74,1.67 3.74,3.74 0,2.07 -1.67,3.74 -3.74,3.74 z m 10.56,29.73 c -2.07,0 -3.74,-1.68 -3.74,-3.74 0,-2.07 1.67,-3.74 3.74,-3.74 2.07,0 3.74,1.68 3.74,3.74 0,2.06 -1.67,3.74 -3.74,3.74 z M 247.77,206 c -2.07,0 -3.74,-1.68 -3.74,-3.74 0,-2.07 1.67,-3.74 3.74,-3.74 2.07,0 3.74,1.67 3.74,3.74 0,2.06 -1.67,3.74 -3.74,3.74 z"
     id="path58" /><path
     class="st3"
     d="m 50.53,137.26 c 5.28,8.6 13.97,18.77 21.93,23.82 5.32,-3.04 11.23,-4.73 17.38,-4.97 1.27,-3.9 1.85,-8.84 1.95,-14.01 l 6.6,-1.3 0.41,-0.08 c 1.78,-0.35 2.94,-2.08 2.59,-3.87 -0.31,-1.55 -1.66,-2.63 -3.18,-2.65 -0.22,0 -0.45,0.01 -0.68,0.06 l -5.84,1.16 c -0.39,-7.77 -1.6,-15.25 -2.88,-19.7 -2.01,-7.03 -7.19,-12.28 -13.54,-14.68 l 0.2,-6.29 c 0.01,-0.2 -0.01,-0.39 -0.04,-0.58 -0.22,-1.55 -1.52,-2.77 -3.14,-2.82 -1.25,-0.01 -2.39,0.69 -2.97,1.73 -0.24,0.43 -0.4,0.92 -0.42,1.45 l -0.16,5.1 c -0.43,-0.03 -0.86,-0.05 -1.29,-0.05 -2.02,0 -4.08,0.28 -6.11,0.86 -11.81,3.37 -18.65,15.67 -15.28,27.48 0.27,0.93 0.66,1.97 1.15,3.08 l -6.78,0.73 -2.35,0.25 c -1.81,0.19 -3.11,1.82 -2.92,3.62 0.18,1.69 1.61,2.94 3.27,2.94 0.12,0 0.24,-0.01 0.36,-0.02 l 4.6,-0.49 z M 78.55,144 c 0,2.07 -1.68,3.74 -3.74,3.74 -2.07,0 -3.74,-1.68 -3.74,-3.74 0,-2.07 1.67,-3.74 3.74,-3.74 2.06,0 3.74,1.67 3.74,3.74 z m -6.17,-22.74 c -2.07,0 -3.74,-1.68 -3.74,-3.74 0,-2.07 1.68,-3.74 3.74,-3.74 2.07,0 3.74,1.68 3.74,3.74 0,2.07 -1.68,3.74 -3.74,3.74 z"
     id="path60" /><path
     class="st3"
     d="m 107.49,57.54 c -4.29,9.04 -4.29,19.95 1.02,29.32 5.66,9.99 18.23,19.89 30.53,23.13 6.69,-5.61 15.27,-8.92 24.57,-8.92 v 0 c 0.34,0 0.68,0.05 1.02,0.06 7.5,-12.38 6.12,-33.39 -0.8,-45.59 -5.85,-10.33 -16.61,-16.13 -27.69,-16.13 -1.18,0 -2.36,0.08 -3.54,0.21 l -0.09,-6.6 -0.04,-2.96 c -0.02,-1.8 -1.49,-3.25 -3.29,-3.25 -0.01,0 -0.03,0 -0.04,0 -1.82,0.02 -3.27,1.52 -3.25,3.33 l 0.05,4.08 0.09,6.84 c -1.88,0.64 -3.74,1.45 -5.53,2.47 -3.77,2.13 -6.93,4.93 -9.43,8.15 l -6.8,-1.8 -3.32,-0.88 c -1.74,-0.46 -3.56,0.58 -4.02,2.34 -0.46,1.76 0.58,3.56 2.34,4.02 l 1.77,0.47 z m 41.55,0.02 c 2.07,0 3.74,1.68 3.74,3.74 0,2.07 -1.68,3.74 -3.74,3.74 -2.07,0 -3.74,-1.68 -3.74,-3.74 0,-2.06 1.68,-3.74 3.74,-3.74 z m -10.86,26.4 c 2.07,0 3.74,1.67 3.74,3.74 0,2.07 -1.68,3.74 -3.74,3.74 -2.07,0 -3.74,-1.68 -3.74,-3.74 -0.01,-2.06 1.67,-3.74 3.74,-3.74 z M 120.72,70.95 c 0,2.07 -1.68,3.74 -3.74,3.74 -2.07,0 -3.74,-1.68 -3.74,-3.74 0,-2.07 1.67,-3.74 3.74,-3.74 2.07,0 3.74,1.67 3.74,3.74 z"
     id="path62" /><path
     class="st3"
     d="m 201.35,88.2 c -1.39,0.92 -2.71,1.99 -3.9,3.26 -4.27,4.5 -7.67,11.73 -8.86,18.9 6.62,5.71 11.14,13.57 12.71,22.22 1.12,0.17 2.28,0.25 3.47,0.25 9.04,0 19.51,-4.64 25.14,-10.56 6.31,-6.64 7.72,-16.14 4.39,-24.08 l 5.7,-3.36 0.93,-0.55 c 1.57,-0.92 2.09,-2.94 1.16,-4.51 -0.92,-1.56 -2.94,-2.08 -4.51,-1.16 l -1,0.59 -5.71,3.36 c -0.56,-0.67 -1.14,-1.32 -1.79,-1.93 -4.33,-4.11 -9.87,-6.15 -15.4,-6.14 -2.13,0 -4.26,0.31 -6.32,0.92 l -1.87,-5.72 c -0.06,-0.18 -0.14,-0.34 -0.22,-0.51 -0.73,-1.4 -2.38,-2.11 -3.93,-1.6 -1.73,0.56 -2.67,2.42 -2.11,4.15 l 0.02,0.06 z m 9.68,9.38 c 2.07,0 3.74,1.67 3.74,3.74 0,2.07 -1.68,3.74 -3.74,3.74 -2.07,0 -3.74,-1.68 -3.74,-3.74 -0.01,-2.06 1.67,-3.74 3.74,-3.74 z"
     id="path64" /><path
     class="st4"
     d="m 170.76,108.47 c -2.4,-0.55 -4.79,-0.82 -7.15,-0.82 -14.43,0 -27.48,9.92 -30.86,24.58 -3.11,13.47 1.6,47.29 12.11,62.86 3.82,-0.95 7.79,-1.47 11.88,-1.47 v 0 c 3.81,0 7.64,0.45 11.37,1.34 0.66,0.16 1.31,0.34 1.95,0.52 11.63,-12.53 21.71,-37.14 24.45,-49.02 3.94,-17.04 -6.7,-34.06 -23.75,-37.99 z m -21.64,49.93 c -2.07,0 -3.74,-1.68 -3.74,-3.74 0,-2.07 1.67,-3.74 3.74,-3.74 2.07,0 3.74,1.67 3.74,3.74 0,2.07 -1.68,3.74 -3.74,3.74 z m 10.71,-30.22 c -2.07,0 -3.74,-1.67 -3.74,-3.74 0,-2.07 1.68,-3.74 3.74,-3.74 2.07,0 3.74,1.67 3.74,3.74 0,2.07 -1.67,3.74 -3.74,3.74 z m 20.89,22.26 c -2.07,0 -3.74,-1.67 -3.74,-3.74 0,-2.07 1.68,-3.74 3.74,-3.74 2.07,0 3.74,1.68 3.74,3.74 0,2.07 -1.67,3.74 -3.74,3.74 z"
     id="path66" /><path
     class="st4"
     d="m 186.97,274.75 c 5.27,-7.18 9.2,-15.09 10.95,-22.42 5.42,-22.72 -8.61,-45.54 -31.33,-50.96 -3.3,-0.79 -6.6,-1.16 -9.85,-1.16 -19.13,0 -36.48,13.07 -41.11,32.49 -1.61,6.73 -1.8,14.73 -0.71,22.79 l -5.59,-3.35 c -0.44,-0.26 -0.92,-0.4 -1.4,-0.44 -1.22,-0.11 -2.44,0.46 -3.11,1.57 -0.93,1.56 -0.43,3.58 1.13,4.51 l 2.97,1.78 7.68,4.6 c 4.06,16.05 13.27,30.62 26.84,33.85 1.92,0.46 3.86,0.67 5.81,0.67 11.17,0 22.7,-7.09 31.83,-16.85 l 9.29,-0.79 2.93,-0.25 c 1.81,-0.15 3.15,-1.75 3,-3.56 -0.09,-1.01 -0.64,-1.87 -1.42,-2.41 -0.61,-0.42 -1.35,-0.66 -2.14,-0.59 z m -4.89,-22.25 c 2.07,0 3.74,1.68 3.74,3.74 0,2.07 -1.67,3.74 -3.74,3.74 -2.07,0 -3.74,-1.68 -3.74,-3.74 0,-2.07 1.67,-3.74 3.74,-3.74 z m -46.43,10.31 c -2.07,0 -3.74,-1.67 -3.74,-3.74 0,-2.07 1.68,-3.74 3.74,-3.74 2.07,0 3.74,1.68 3.74,3.74 0,2.06 -1.68,3.74 -3.74,3.74 z m 7.48,-35.28 c -2.07,0 -3.74,-1.67 -3.74,-3.74 0,-2.07 1.68,-3.74 3.74,-3.74 2.07,0 3.74,1.67 3.74,3.74 0,2.07 -1.67,3.74 -3.74,3.74 z m 16.38,57.01 c -2.07,0 -3.74,-1.68 -3.74,-3.74 0,-2.07 1.67,-3.74 3.74,-3.74 2.07,0 3.74,1.67 3.74,3.74 0.01,2.07 -1.67,3.74 -3.74,3.74 z m 3.75,-48.36 c -2.07,0 -3.74,-1.68 -3.74,-3.74 0,-2.07 1.67,-3.74 3.74,-3.74 2.07,0 3.74,1.68 3.74,3.74 0,2.07 -1.68,3.74 -3.74,3.74 z"
     id="path68" /><path
     class="st4"
     d="m 21.29,198.32 c 0.4,0.21 0.8,0.43 1.22,0.61 3.94,1.73 8.94,2.65 14.03,2.65 5.99,0 12.08,-1.28 16.73,-3.96 -0.27,-3.15 -0.19,-6.35 0.34,-9.55 0.81,-4.86 2.52,-9.42 5,-13.52 -3.72,-7.62 -10.83,-14.64 -17.62,-17.63 -3.01,-1.32 -6.14,-1.95 -9.23,-1.95 -6.51,0 -12.79,2.81 -17.16,7.73 l -4.12,-4.99 c -0.04,-0.04 -0.08,-0.08 -0.12,-0.12 -1.18,-1.28 -3.15,-1.45 -4.51,-0.33 -1.4,1.16 -1.6,3.23 -0.45,4.63 l 0.9,1.09 4.54,5.51 c -0.03,0.07 -0.07,0.13 -0.11,0.2 -3.98,9.05 -1.63,19.26 5.09,25.74 l -4.79,4.53 -0.74,0.7 c -1.32,1.25 -1.38,3.33 -0.13,4.65 0.65,0.69 1.52,1.03 2.39,1.03 0.81,0 1.62,-0.3 2.26,-0.9 l 1.47,-1.39 z m 18.32,-13.68 c 2.07,0 3.74,1.67 3.74,3.74 0,2.07 -1.67,3.74 -3.74,3.74 -2.07,0 -3.74,-1.68 -3.74,-3.74 0,-2.07 1.67,-3.74 3.74,-3.74 z m -6.73,-17.3 c 2.07,0 3.74,1.68 3.74,3.74 0,2.07 -1.67,3.74 -3.74,3.74 -2.07,0 -3.74,-1.67 -3.74,-3.74 -0.01,-2.06 1.67,-3.74 3.74,-3.74 z"
     id="path70" /><path
     class="st4"
     d="m 20.59,113.77 c 2.65,0.77 5.65,1.18 8.7,1.18 3.69,0 7.43,-0.6 10.68,-1.84 1.7,-5.33 4.92,-10.11 9.3,-13.67 -1,-8.37 -8.91,-17.57 -16.36,-20.84 -2.45,-1.08 -5,-1.59 -7.51,-1.59 -2.31,0 -4.57,0.47 -6.69,1.29 L 16.4,72.63 c -0.06,-0.16 -0.15,-0.3 -0.23,-0.44 -0.82,-1.37 -2.52,-1.99 -4.06,-1.37 -1.68,0.69 -2.49,2.6 -1.81,4.29 l 0.11,0.26 2.59,6.37 c -1.96,1.73 -3.59,3.9 -4.71,6.44 -3.58,8.14 -0.88,17.44 5.98,22.52 l -4.57,4.34 c -0.09,0.08 -0.12,0.19 -0.2,0.28 -1.07,1.26 -1.09,3.14 0.08,4.37 0.65,0.68 1.52,1.03 2.39,1.03 0.81,0 1.63,-0.3 2.26,-0.9 l 1.03,-0.97 z m 7.46,-26.06 c 2.07,0 3.74,1.67 3.74,3.74 0,2.07 -1.68,3.74 -3.74,3.74 -2.07,0 -3.74,-1.67 -3.74,-3.74 0,-2.07 1.68,-3.74 3.74,-3.74 z"
     id="path72" /><path
     class="st4"
     d="m 301.2,165.18 -4.53,-0.54 c 0.77,-0.86 1.49,-1.68 2.07,-2.42 7.63,-9.62 6.01,-23.61 -3.61,-31.23 -1.42,-1.13 -2.94,-2.04 -4.52,-2.77 l 1.25,-6.09 c 0.03,-0.16 0.04,-0.32 0.05,-0.49 0.09,-1.6 -0.99,-3.07 -2.61,-3.4 -1.46,-0.3 -2.9,0.44 -3.57,1.7 -0.14,0.27 -0.26,0.55 -0.32,0.86 l -1.14,5.58 c -0.97,-0.13 -1.95,-0.21 -2.93,-0.21 -6.55,0 -13.05,2.89 -17.44,8.42 -1.86,2.35 -3.83,6.16 -5.62,10.68 l -4.36,-4.6 c -0.19,-0.2 -0.43,-0.32 -0.66,-0.47 -1.24,-0.78 -2.88,-0.71 -3.99,0.34 -1.32,1.25 -1.37,3.33 -0.12,4.65 l 1.54,1.63 5.17,5.45 c -2.07,6.86 -3.51,14.37 -3.55,20.69 2.54,1.81 4.9,3.9 6.96,6.33 2.08,2.45 3.76,5.1 5.13,7.86 8.09,-1.68 18.67,-9.46 26.39,-16.59 l 8.38,1 1.26,0.15 c 0.13,0.02 0.26,0.02 0.39,0.02 1.64,0 3.06,-1.23 3.26,-2.9 0.09,-0.78 -0.11,-1.52 -0.5,-2.14 -0.51,-0.8 -1.35,-1.39 -2.38,-1.51 z m -32.46,-1.57 c -2.07,0 -3.74,-1.67 -3.74,-3.74 0,-2.07 1.68,-3.74 3.74,-3.74 2.07,0 3.74,1.67 3.74,3.74 0,2.07 -1.67,3.74 -3.74,3.74 z m 7.48,-22.2 c -2.07,0 -3.74,-1.67 -3.74,-3.74 0,-2.07 1.68,-3.74 3.74,-3.74 2.07,0 3.74,1.68 3.74,3.74 0,2.07 -1.67,3.74 -3.74,3.74 z m 19.83,9.04 c 0,2.07 -1.68,3.74 -3.74,3.74 -2.07,0 -3.74,-1.68 -3.74,-3.74 0,-2.07 1.68,-3.74 3.74,-3.74 2.06,0 3.74,1.68 3.74,3.74 z"
     id="path74" /><path
     class="st4"
     d="m 165.78,28.29 c -1.46,5.02 -2.57,10.34 -3.04,15.25 2.65,2.54 4.97,5.47 6.82,8.75 1.68,2.97 3.08,6.43 4.17,10.17 8.62,-1.35 20.46,-10.27 28.5,-17.95 0.13,0 0.27,-0.01 0.41,-0.03 l 10.01,-1.34 3.61,-0.48 c 1.8,-0.24 3.07,-1.9 2.83,-3.7 -0.15,-1.13 -0.86,-2.05 -1.82,-2.51 -0.56,-0.28 -1.21,-0.4 -1.88,-0.31 l -6.18,0.83 c 5.48,-7.21 5.9,-16.73 1.75,-24.22 l 4.88,-4.62 0.18,-0.17 c 1.32,-1.25 1.38,-3.33 0.13,-4.65 -1.18,-1.25 -3.08,-1.32 -4.4,-0.28 -0.08,0.06 -0.17,0.09 -0.25,0.16 l -4.57,4.33 c -0.5,-0.48 -1.03,-0.95 -1.59,-1.39 -4.09,-3.24 -8.96,-4.81 -13.8,-4.81 -6.55,0 -13.05,2.89 -17.44,8.42 -2.02,2.55 -4.17,6.81 -6.06,11.84 l -3.4,-2.9 c -0.65,-0.55 -1.45,-0.8 -2.25,-0.77 -0.89,0.03 -1.77,0.41 -2.39,1.15 -1.17,1.37 -1.01,3.42 0.34,4.6 0.01,0.01 0.02,0.03 0.04,0.04 z m 24.8,-15.72 c 2.07,0 3.74,1.67 3.74,3.74 0,2.07 -1.68,3.74 -3.74,3.74 -2.07,0 -3.74,-1.68 -3.74,-3.74 0,-2.07 1.67,-3.74 3.74,-3.74 z m -7.49,27.7 c 2.07,0 3.74,1.67 3.74,3.74 0,2.07 -1.67,3.74 -3.74,3.74 -2.07,0 -3.74,-1.67 -3.74,-3.74 0,-2.07 1.68,-3.74 3.74,-3.74 z"
     id="path76" /></g>
</svg>
