<?xml version="1.0" encoding="utf-8"?>
<!-- Generator: Adobe Illustrator 23.0.6, SVG Export Plug-In . SVG Version: 6.00 Build 0)  -->
<svg version="1.1" id="Õ_xBA__x2264__x201E__x5F_1"
	 xmlns="http://www.w3.org/2000/svg" xmlns:xlink="http://www.w3.org/1999/xlink" x="0px" y="0px" viewBox="0 0 1133.9 694.5"
	 style="enable-background:new 0 0 1133.9 694.5;" xml:space="preserve">
<style type="text/css">
	.st0{fill:#20D6F5;}
	.st1{fill:#333333;}
</style>
<g>
	<path class="st0" d="M419.4,370.8c-1.4-1.9-9.4-11.8-23.5-29.1c5.6-7,19.3-23,19.7-24c7.1-8,14.6-15.5,22.6-23l4.2-3.8h-33.8
		l-0.5,1.4c-4.2,8.5-9.9,16.9-16,24c-5.2,6.1-10.3,12.2-15.5,18.3v-16.5c0-8.5,1.4-16.9,3.8-24.9l0.9-2.8h-29.6l0.5,2.8
		c2.4,8.9,3.8,18.3,3.3,27.7v49.8c0.5,9.9-0.9,19.7-3.8,29.6l-0.9,2.8h29.6l-0.9-2.8c-2.4-9.4-3.8-18.8-3.8-28.2v-21.6l21.6,27.3
		c2.8,3.8,5.6,7.5,8.5,11.3c2.4,3.8,4.2,8,5.6,12.2l0.5,1.4h34.8l-3.3-3.3C437.2,391.9,428.8,382,419.4,370.8z"/>
	<path class="st0" d="M494.6,322.8c-11.3-0.5-21.6,4.7-29.1,13.2c-7.1,8.5-10.8,19.3-10.3,30.1c-0.5,9.9,2.8,19.7,9.4,27.7
		c6.6,8,16.5,12.2,26.8,12.2c10.8,0,21.6-4.7,28.2-13.6c7-8.5,10.3-18.8,10.3-29.6c0.5-9.9-2.8-19.7-8.9-27.7
		C514.3,327,504.9,322.3,494.6,322.8z M498.3,390.5h-2.8c-6.6,0-12.7-3.8-15.5-9.9c-3.8-6.1-5.6-13.2-5.6-20.2
		c0-11.3,3.8-18.8,11.8-23c0.9,0,1.9-0.5,2.8,0c6.6,0,12.7,3.8,15.5,9.4c3.8,5.6,5.6,12.2,5.6,19.3
		C510.5,375.5,506.3,384.9,498.3,390.5z"/>
	<path class="st0" d="M653.4,378.7V352c0.5-6.6-0.5-13.2-2.8-19.3c-2.8-6.6-9.9-10.8-16.9-10.3c-5.6,0-11.3,1.9-15.5,5.6l-8.5,9.4
		c-1.9-8.9-9.9-15-19.3-14.6c-5.6,0-10.8,1.4-15,5.2c-0.5,0.5-1.4,1.9-6.6,7.5v-11.3h-23l0.9,2.8c1.9,8.5,3.3,17.4,2.8,26.3v25.9
		c0,7.5-0.9,15-2.8,22.1l-0.9,2.8h26.8l-0.9-2.8c-1.9-6.6-2.8-13.2-2.8-19.7v-35.2c4.2-2.8,8.9-4.7,14.1-5.2c4.2,0,6.6,1.4,8,3.8
		c0.9,3.8,1.4,7.5,1.4,11.3v25.4c0.5,6.6-0.5,13.2-2.8,19.7l-1.4,2.8h26.8l-0.9-2.8c-1.4-5.2-2.4-10.3-2.8-15.5v-39.5
		c3.8-2.8,8.5-4.7,13.6-5.2c3.3-0.5,6.1,0.9,8,3.3c1.4,2.8,1.9,6.6,1.9,9.9v26.3c0,7-0.9,14.1-2.8,20.7l-0.9,2.8h26.3l-0.5-2.8
		C654.4,393.8,653.4,386.3,653.4,378.7z"/>
	<path class="st0" d="M716.4,322.8c-4.7,0-9.4,1.4-13.2,4.7h-0.5c-1.9,1.9-3.3,4.2-5.2,6.1v-9.4h-23l0.9,2.8
		c1.9,7.5,2.8,15,2.8,22.6v52.6c0,7.5-0.9,15-2.8,22.6l-0.9,2.8h26.8l-0.9-2.8c-1.9-5.6-2.8-11.8-2.8-17.9v-7
		c5.2,3.8,11.3,5.6,17.9,5.6c9.9,0.5,18.8-4.2,24-12.7c4.7-8,6.6-17.4,6.6-26.3c0-9.9-1.9-19.3-6.1-28.2
		C734.3,328,726.7,322.8,716.4,322.8z M722.5,348.2c2.8,4.7,3.8,9.9,3.8,15c0,17.4-5.6,25.9-16.9,25.9c-4.2,0-8.5-1.9-11.3-5.6v-39
		C709.4,338.8,717.3,339.3,722.5,348.2z"/>
	<path class="st0" d="M777,320.5c3.8,0,7-1.9,8.9-4.7c1.9-2.8,2.8-5.6,2.8-8.9c0-3.3-0.9-6.6-3.3-9.4c-1.9-2.8-5.2-4.7-8.9-4.7
		c-3.8,0-7,1.9-8.9,4.7c-1.9,2.8-3.3,6.1-2.8,9.4c0,3.3,0.9,6.6,2.8,9.4C770,319,773.3,320.5,777,320.5z"/>
	<path class="st0" d="M786.4,379.2v-29.1c0-6.1,0-9.9,0-11.8c0.5-3.8,1.4-8,2.8-11.8l0.5-2.8h-26.3l0.9,2.8
		c1.4,3.8,2.3,7.5,2.8,11.8c0,1.9,0,6.1,0,12.7v28.2c0,7.5-0.9,14.6-2.8,21.6l-0.9,2.8h26.8l-0.9-2.8
		C786.9,393.8,786,386.7,786.4,379.2z"/>
	<path class="st1" d="M803.4,314.4l4.2-1.4c5.2-1.9,10.8-3.3,16.4-3.8c3.3-0.5,8.5-0.9,15-1.4v57.3c0.5,12.2-0.9,24.4-3.8,36.2
		l-0.9,2.8H864l-0.9-2.8c-2.8-11.8-4.2-23.5-3.8-35.7v-58.3c4.2,0,8.5,0,12.7,0.9c4.7,0.9,9.4,2.8,13.6,4.7l1.9,0.9l6.6-22.6h-84.1
		L803.4,314.4z"/>
	<path class="st1" d="M947.2,389.5c-11.8,0-18.8-7-21.2-21.1h41.8V359c0.5-8.5-1.9-16.9-6.6-24.4c-4.7-7.5-13.6-11.8-22.6-11.8
		c-10.3-0.5-20.2,4.7-25.8,13.6c-5.2,8.5-8,18.3-8,28.2c-0.5,10.8,2.8,21.1,9.9,29.1c7.1,8,17.4,12.2,28.2,11.8
		c5.2,0,9.9-0.9,15-2.4h0.9l8.5-19.7l-4.7,1.9C958.5,387.7,952.8,389.1,947.2,389.5z M939.2,337.9c3.8,0,7,1.4,9.4,4.7
		c2.3,3.3,3.3,7.1,3.3,10.8l0,0h-25.4c0-3.8,1.4-7,3.3-10.3C931.2,339.3,935,337.4,939.2,337.9L939.2,337.9z"/>
	<path class="st1" d="M1025.7,389.5c-6.6,0.5-12.7-2.8-16.5-8c-3.8-5.6-5.6-12.7-5.2-19.3c-0.5-6.1,1.4-12.2,4.7-16.9
		c3.3-4.7,8.9-7.5,14.6-7.5c2.8,0,5.6,0.5,8.5,1.9c2.3,1.9,5.2,3.8,7.5,5.6l2.8,2.8l0.9-23.5l-1.4-0.5c-5.2-1.4-9.9-1.9-15-1.9
		c-11.8-0.5-22.6,3.8-31,11.8c-8,8.5-12.2,19.7-11.8,31c-0.5,10.3,3.3,20.7,9.9,28.7c7.5,7.5,17.9,11.8,28.2,11.3
		c5.2,0,10.3-0.9,15.5-2.8h0.9l8.5-20.7l-5.2,2.8C1036.9,387.7,1031.3,389.1,1025.7,389.5z"/>
	<path class="st1" d="M1103.7,400.8l-0.9,2.8h26.3l-0.9-2.8c-2.4-8-3.3-16-3.3-24.4c0-1.9,0-5.2,0.5-9.4c0.5-4.2,0-7.5,0-9.4
		c0.5-7.5-0.5-15-2.3-22.1c-2.3-8-9.9-13.6-18.3-13.2c-4.2,0.5-8.9,1.4-12.7,3.8h-0.5l-8.5,10.3v-20.2c0-7.5,0.9-14.6,2.8-21.6
		l0.9-3.3l-26.3,5.2l0.5,1.9c1.9,6.6,2.8,13.2,2.8,20.2v57.8c0.5,8.5-0.5,16.9-2.8,24.9l-0.9,2.8h26.8l-0.9-2.8
		c-2.4-8.5-3.3-17.4-2.8-26.3v-27.7c3.8-3.3,8.5-5.6,13.6-6.1c5.6,0,7,2.3,8,4.2c0.9,3.8,1.4,7.5,1.4,11.3v24.4
		C1107,387.7,1105.6,394.7,1103.7,400.8z"/>
	<path class="st1" d="M123.7,417.8c-11.8,0-21.2-9.4-21.2-21.1v-40.4c0-11.8,9.4-21.1,21.2-21.1h59.7v-25.4c0-5.6-4.2-10.3-9.9-10.3
		l0,0H15.2c-5.6,0-10.3,4.2-10.3,9.9l0,0v133.5c0,5.6,4.2,10.3,9.9,10.3l0,0h158.4c5.6,0,10.3-4.7,10.3-9.9l0,0v-25.4H123.7z"/>
	<path class="st0" d="M298.6,241.5H140.7c-5.6,0-10.3,4.2-10.3,9.9l0,0v25.4h72.9c11.8,0,21.2,9.4,21.2,21.1v40
		c0,11.8-9.4,21.1-21.2,21.1h-72.9v25.4c0,5.6,4.7,10.3,9.9,10.3l0,0h157.9c5.6,0,10.3-4.7,10.3-10.3l0,0V251.8
		C308.9,246.2,304.7,242,298.6,241.5L298.6,241.5z"/>
</g>
</svg>
