<?xml version="1.0" encoding="utf-8"?>
<!-- Generator: Adobe Illustrator 24.0.3, SVG Export Plug-In . SVG Version: 6.00 Build 0)  -->
<svg version="1.1" id="Layer_1" xmlns="http://www.w3.org/2000/svg" xmlns:xlink="http://www.w3.org/1999/xlink" x="0px" y="0px"
	 viewBox="0 0 400 245" style="enable-background:new 0 0 400 245;" xml:space="preserve">
<style type="text/css">
	.st0{fill:#6146FF;}
	.st1{fill:#10121F;}
</style>
<title>kompitech_platform_color</title>
<g id="Vrstva_2">
	<g id="Vrstva_1-2">
		<g id="kompitech_platform_color">
			<g id="Logo">
				<path class="st0" d="M75.5,82.1H32c-16.7,0-30.3,13.6-30.3,30.3v43.5c0,3.9,3.2,7,7,7l0,0h43.5c16.7,0,30.3-13.6,30.3-30.3V89.1
					C82.5,85.2,79.4,82.1,75.5,82.1z M67.7,114H50.6V131h17.1c0,9.4-7.6,17.1-17.1,17.1V131H33.6v17.1H21.5c-2.8,0-5-2.2-5-5V114
					c0-9.4,7.6-17.1,17-17.1c0,0,0,0,0,0V114h17.1V96.9h12.2c2.7,0,4.8,2.2,4.9,4.8c0,0,0,0,0,0V114z"/>
			</g>
			<path class="st1" d="M116.5,105.1l-4.8-6.4h-1.8v6.4h-2.5V90.5h2.5v6h1.8l4.4-6h3.1l-5.2,7.1l5.7,7.6H116.5z"/>
			<path class="st1" d="M128.4,104.6c-2,1-4.4,1-6.5,0c-0.9-0.5-1.7-1.2-2.3-2.1c-1.1-1.9-1.1-4.2,0-6.1c0.5-0.9,1.3-1.6,2.3-2.1
				c2-1,4.4-1,6.5,0c2.9,1.5,3.9,5.1,2.4,7.9c0,0.1-0.1,0.2-0.1,0.2C130.1,103.4,129.3,104.1,128.4,104.6z M122.4,102.1
				c1.6,1.4,4,1.4,5.6,0c0.7-0.7,1.1-1.7,1.1-2.7c0-1-0.4-2-1.1-2.7c-1.6-1.4-4-1.4-5.6,0c-0.7,0.7-1.1,1.7-1.1,2.7
				C121.3,100.5,121.7,101.4,122.4,102.1z"/>
			<path class="st1" d="M146.7,93.5c1.1,0,2.2,0.4,3,1.2c0.8,0.9,1.2,2,1.2,3.1v7.2h-2.4v-6.6c0-0.7-0.2-1.5-0.6-2.1
				c-0.4-0.5-1.1-0.8-1.7-0.7c-0.8,0-1.5,0.3-2,1c-0.5,0.6-0.8,1.5-0.8,2.3v6.2H141v-6.6c0-0.7-0.2-1.5-0.6-2.1
				c-0.4-0.5-1.1-0.8-1.7-0.7c-0.8,0-1.5,0.3-2,1c-0.6,0.7-0.8,1.5-0.8,2.4v6.2h-2.4V93.8h1.7l0.4,1.5c0.9-1.1,2.3-1.7,3.7-1.7
				c0.7,0,1.5,0.2,2.1,0.5c0.6,0.3,1.1,0.8,1.4,1.5C143.7,94.3,145.2,93.5,146.7,93.5z"/>
			<path class="st1" d="M160,93.5c1.1,0,2.2,0.2,3.2,0.8c0.9,0.5,1.7,1.2,2.2,2.1c0.5,0.9,0.8,2,0.8,3c0,1.6-0.6,3.1-1.7,4.2
				c-2.3,2.1-5.9,2.3-8.3,0.3v5.1h-2.4V93.8h1.6l0.5,1.4c0.5-0.5,1.2-1,1.9-1.2C158.4,93.7,159.2,93.5,160,93.5z M157,102.1
				c0.8,0.7,1.8,1.1,2.8,1.1c1,0,2-0.3,2.8-1.1c0.7-0.7,1.1-1.7,1.1-2.7c0-1-0.4-2-1.1-2.7c-1.6-1.4-4-1.4-5.6,0
				C155.5,98.2,155.5,100.6,157,102.1C156.9,102.1,157,102.1,157,102.1L157,102.1z"/>
			<path class="st1" d="M168,92.1v-2.4h2.5v2.4H168z M168.1,105.1V93.8h2.4v11.3H168.1z"/>
			<path class="st1" d="M183.4,90.5v2.2h-4.5v12.4h-2.5V92.7h-4.5v-2.2H183.4z"/>
			<path class="st1" d="M194.6,99.5c0,0.3,0,0.5-0.1,0.8h-9.7c0.1,0.8,0.5,1.6,1.2,2.2c0.7,0.5,1.6,0.8,2.4,0.8
				c0.7,0,1.3-0.1,1.9-0.4c0.5-0.3,1-0.7,1.3-1.2h2.6c-0.4,1.1-1.2,2.1-2.3,2.8c-1,0.7-2.3,1-3.5,1c-1.6,0-3.2-0.6-4.4-1.7
				c-1.2-1.1-1.8-2.6-1.8-4.2c0-1.1,0.3-2.1,0.8-3c0.5-0.9,1.3-1.6,2.2-2.1c1-0.5,2-0.8,3.1-0.8c1.1,0,2.2,0.3,3.2,0.8
				c0.9,0.5,1.6,1.3,2.1,2.2C194.4,97.4,194.6,98.4,194.6,99.5z M188.5,95.6c-0.8,0-1.7,0.2-2.3,0.7c-0.6,0.5-1.1,1.2-1.3,2h7.2
				c-0.2-0.8-0.6-1.5-1.3-2C190.2,95.9,189.4,95.6,188.5,95.6L188.5,95.6z"/>
			<path class="st1" d="M201.9,105.4c-1.1,0-2.2-0.3-3.2-0.8c-2.9-1.6-3.9-5.2-2.3-8.1c0,0,0-0.1,0.1-0.1c0.5-0.9,1.3-1.6,2.2-2.1
				c1-0.5,2.1-0.8,3.2-0.8c1.4,0,2.7,0.4,3.8,1.2c1,0.8,1.8,1.9,2.1,3.1h-2.4c-0.3-0.6-0.8-1.2-1.4-1.5c-0.6-0.4-1.4-0.6-2.1-0.6
				c-1,0-2,0.4-2.7,1.1c-1.4,1.5-1.4,3.8,0,5.3c0.7,0.7,1.7,1.1,2.7,1.1c0.7,0,1.5-0.2,2.1-0.6c0.6-0.4,1.1-0.9,1.4-1.6h2.5
				c-0.3,1.3-1.1,2.4-2.1,3.2C204.6,105,203.2,105.4,201.9,105.4z"/>
			<path class="st1" d="M215.8,93.5c1.2-0.1,2.4,0.4,3.3,1.3c0.8,1,1.3,2.2,1.2,3.5v6.8h-2.4v-6.3c0.1-0.8-0.2-1.7-0.7-2.3
				c-0.5-0.6-1.3-0.9-2-0.8c-0.9,0-1.7,0.3-2.3,1c-0.6,0.7-0.9,1.6-0.9,2.5v6h-2.4V89.8h2.4v5.3c0.5-0.5,1.1-0.9,1.7-1.1
				C214.4,93.7,215.1,93.5,215.8,93.5z"/>
			<path class="st1" d="M131.1,136.4c1.7,0.8,3.1,2.1,4.1,3.6c1,1.6,1.5,3.5,1.4,5.3c0,3-1.2,5.6-3.7,7.7c-2.5,2.1-5.6,3.3-8.8,3.2
				h-16.8v-37.7h16.4c3.4,0,6.3,0.9,8.5,2.8c2.2,1.6,3.4,4.2,3.4,6.9c0,1.6-0.4,3.2-1.2,4.6C133.6,134.3,132.5,135.5,131.1,136.4z
				 M126,132.4c0.8-0.8,1.2-1.8,1.2-2.9c0-1.1-0.4-2.2-1.2-2.9c-0.9-0.8-2-1.2-3.2-1.1h-7.2v8h7.2C124,133.6,125.1,133.2,126,132.4z
				 M123.3,148.8c1.2,0.1,2.5-0.4,3.4-1.2c1.7-1.6,1.7-4.3,0.1-6c0,0-0.1-0.1-0.1-0.1c-0.9-0.8-2.2-1.2-3.4-1.2h-7.6v8.4H123.3z"/>
			<path class="st1" d="M140.7,156.3v-39.6h8.3v39.6H140.7z"/>
			<path class="st1" d="M169.2,157.1c-2.9,0-5.9-0.7-8.5-2c-2.4-1.3-4.5-3.2-5.9-5.5c-4.3-7.1-2.1-16.3,4.9-20.6
				c0.3-0.2,0.7-0.4,1-0.6c5.3-2.6,11.6-2.6,16.9,0c2.4,1.3,4.5,3.2,5.9,5.5c2.9,4.8,2.9,10.9,0,15.7c-1.4,2.3-3.5,4.2-5.9,5.5
				C175,156.4,172.1,157.1,169.2,157.1z M163.3,147.5c3.4,3,8.4,3,11.7,0c3.1-3.2,3.1-8.3,0-11.5c-3.4-3-8.4-3-11.7,0
				C160.3,139.2,160.3,144.3,163.3,147.5z"/>
			<path class="st1" d="M203.6,157.1c-2.2,0-4.4-0.4-6.4-1.2c-1.9-0.7-3.7-1.8-5.2-3.2c-1.5-1.4-2.6-3.1-3.4-4.9
				c-0.8-1.9-1.3-4-1.2-6.1c0-2.1,0.4-4.1,1.2-6c0.8-1.8,1.9-3.5,3.4-4.9c1.5-1.4,3.3-2.5,5.2-3.2c2.1-0.8,4.3-1.2,6.5-1.2
				c3.9,0,7.3,1.1,10.2,3.3c2.8,2.1,4.7,5.2,5.4,8.7H211c-0.6-1.4-1.7-2.6-3-3.3c-1.3-0.8-2.9-1.2-4.4-1.2c-2.1-0.1-4.1,0.8-5.6,2.3
				c-1.5,1.5-2.3,3.5-2.3,5.6c0,2.1,0.8,4.2,2.3,5.7c1.5,1.5,3.5,2.4,5.6,2.3c1.6,0,3.1-0.4,4.4-1.3c1.3-0.9,2.3-2.1,3-3.6h8.3
				c-0.6,3.5-2.6,6.7-5.4,8.9C211,156,207.3,157.2,203.6,157.1z"/>
			<path class="st1" d="M251.4,156.3h-10l-9.8-13.9v13.9h-8.3v-39.6h8.3v23.4l9.2-12.9h9.5L239.9,141L251.4,156.3z"/>
			<path class="st1" d="M265.8,157.1c-2.2,0-4.4-0.4-6.4-1.2c-1.9-0.7-3.7-1.8-5.2-3.2c-4.6-4.4-5.9-11.2-3.4-17
				c0.8-1.8,1.9-3.5,3.4-4.9c1.5-1.4,3.3-2.5,5.2-3.2c2.1-0.8,4.3-1.2,6.5-1.2c3.9,0,7.3,1.1,10.2,3.3c2.8,2.1,4.7,5.2,5.4,8.7h-8.2
				c-0.6-1.4-1.7-2.6-3-3.3c-1.3-0.8-2.9-1.2-4.4-1.2c-2.1-0.1-4.1,0.8-5.6,2.3c-1.5,1.5-2.3,3.5-2.3,5.6c0,2.1,0.8,4.2,2.3,5.7
				c1.5,1.5,3.5,2.4,5.6,2.3c1.6,0,3.1-0.4,4.4-1.3c1.3-0.9,2.3-2.1,3-3.6h8.3c-0.6,3.5-2.6,6.7-5.4,8.9
				C273.2,156,269.5,157.2,265.8,157.1z"/>
			<path class="st1" d="M302.2,126.5c3.5,0,6.2,1.1,8.2,3.3c2,2.2,3,5.1,3,8.8v17.7h-8.3v-16.4c0-2.2-0.4-3.8-1.3-4.9
				c-0.9-1.1-2.2-1.6-4.1-1.6c-1.9-0.1-3.7,0.7-5,2c-1.2,1.4-1.9,3.2-1.9,5.6v15.3h-8.3v-39.6h8.3v13.2
				C295.5,127.6,298.6,126.5,302.2,126.5z"/>
			<path class="st1" d="M343.7,127.1h6.2v29.1h-6.5l-0.7-2.6c-2.8,2.3-6.3,3.5-9.9,3.5c-2.9,0-5.7-0.7-8.2-2
				c-2.4-1.3-4.4-3.2-5.8-5.5c-1.4-2.4-2.1-5.1-2.1-7.9c0-2.7,0.7-5.5,2.1-7.8c1.4-2.3,3.4-4.2,5.8-5.5c2.5-1.3,5.4-2,8.2-2
				c3.7-0.1,7.2,1.2,10,3.5L343.7,127.1z M327.5,147.4c3.4,3,8.5,3,11.9,0c3.1-3.2,3.1-8.2,0-11.4c-3.4-3-8.5-3-11.9,0
				C324.4,139.1,324.3,144.2,327.5,147.4C327.5,147.4,327.5,147.4,327.5,147.4L327.5,147.4z"/>
			<path class="st1" d="M355.6,123.3V116h8.2v7.3H355.6z M355.6,156.3v-29.1h8.3v29.1H355.6z"/>
			<path class="st1" d="M387,126.5c3.5,0,6.2,1.1,8.3,3.3c2.1,2.2,3.1,5.2,3.1,8.8v17.6H390v-16.4c0-4.4-1.8-6.5-5.3-6.5
				c-2.1,0-3.8,0.7-5,2c-1.2,1.4-1.8,3.2-1.8,5.6v15.3h-8.3v-29.1h5.7l1.6,3.6c1.2-1.4,2.7-2.4,4.4-3.1
				C383,126.9,385,126.5,387,126.5z"/>
		</g>
	</g>
</g>
</svg>
