<?xml version="1.0" encoding="utf-8"?>
<!-- Generator: Adobe Illustrator 24.3.0, SVG Export Plug-In . SVG Version: 6.00 Build 0)  -->
<svg version="1.1" xmlns="http://www.w3.org/2000/svg" xmlns:xlink="http://www.w3.org/1999/xlink" x="0px" y="0px"
	 viewBox="0 0 400 245" style="enable-background:new 0 0 400 245;" xml:space="preserve">
<style type="text/css">
	.st0{fill:#6D6E71;}
	.st1{fill:#C00C3F;}
	.st2{fill:#FFFFFF;}
</style>
<g id="Layer_1">
</g>
<g id="Layer_3">
</g>
<g id="레이어_1">
	<g>
		<path class="st0" d="M288.1,99c-5.3-5.9-13.9-8.1-21.8-8.1c-18.1,0-29.1,10.8-29.1,31.6c0,19.9,8.5,31.6,28.9,31.6
			c7.6,0,15.6-1.8,21.1-5l-3-10.2c-4.4,2.2-10.9,3.6-17.1,3.6c-12.9,0-16.2-8.2-16.2-20.2c0-13.9,6.3-20.6,16-20.6
			c5.7,0,10.6,2.5,13.9,5.9L288.1,99z M335.4,91.9v49.9h-1.5l-17.6-49.9h-23.9v61.3h12.9v-50.6h1.7l17.4,50.6h23.8V91.9H335.4z
			 M398,95.9c-5.7-3.4-14.5-5-20.6-5c-16.3,0-23.8,7.3-23.8,17.7c0,9,6.8,14.4,14.1,17.2c3.6,1.4,7.7,2.7,10.7,3.5
			c4.9,1.4,6.8,3.7,6.8,7.1c0,4.2-3,6.8-10.7,6.8c-5.3,0-12.3-2.1-17.2-5l-4.6,10.3c6.3,3.6,14.9,5.6,22,5.6
			c15.2,0,24.1-7.6,24.1-18.2c0-10-5.3-13.5-11.2-16.1c-2.3-0.9-6.6-2.3-8.9-3c-7.6-2.1-11.7-4.1-11.7-9c0-3.7,2.5-6.6,10.8-6.6
			c6,0,11.9,2,16,4.4L398,95.9z"/>
		<g>
			<g>
				<path class="st1" d="M48.4,169.6c26,0,47.1-21.1,47.1-47.1c0-26-21.1-47.1-47.1-47.1c-26,0-47.1,21.1-47.1,47.1
					C1.3,148.5,22.4,169.6,48.4,169.6"/>
				<polygon class="st2" points="46.5,101.8 46.5,143.1 59.7,143.1 59.7,139.4 50.3,139.4 50.3,101.8 				"/>
				<path class="st2" d="M33.4,113.1c3.1,0,5.6-2.5,5.6-5.6c0-3.1-2.5-5.6-5.6-5.6c-3.1,0-5.6,2.5-5.6,5.6
					C27.7,110.6,30.3,113.1,33.4,113.1"/>
				<path class="st2" d="M50.3,83.1c-0.5,0-1.4,0-1.9,0C26.7,83.1,9,100.8,9,122.5c0,10.5,4.1,20.4,11.5,27.9
					c7.4,7.4,17.3,11.5,27.9,11.5c10.5,0,20.4-4.1,27.9-11.5c7.4-7.4,11.5-17.3,11.5-27.9v-1.8l-1.6,0H59.7v3.7H84v0.5
					c-1.3,18.6-16.8,33.3-35.7,33.3c-9.5,0-18.5-3.7-25.2-10.5c-6.8-6.7-10.5-15.7-10.5-25.3c0-9.5,3.7-18.5,10.5-25.3
					c6.7-6.7,15.7-10.5,25.2-10.5c0.4,0,1.4,0,1.9,0V83.1z"/>
			</g>
			<path class="st0" d="M130.9,91.9h-14.2v61.3h43.5v-11.9h-29.3V91.9z M191.4,129.8h11.5v10.7c-2.1,0.8-6.3,1.6-10.2,1.6
				c-12.7,0-17-6.5-17-19.6c0-12.5,4-19.9,16.8-19.9c7.1,0,11.1,2.2,14.5,6.5l8.8-8.1c-5.4-7.7-14.8-10-23.6-10
				c-19.8,0-30.2,10.8-30.2,31.4c0,20.5,9.4,31.7,30.1,31.7c9.5,0,18.8-2.4,23.9-6v-29.7h-24.6V129.8z"/>
		</g>
	</g>
</g>
</svg>
