<?xml version="1.0" encoding="utf-8"?>
<!-- Generator: Adobe Illustrator 24.0.1, SVG Export Plug-In . SVG Version: 6.00 Build 0)  -->
<svg version="1.1" id="Layer_1" xmlns="http://www.w3.org/2000/svg" xmlns:xlink="http://www.w3.org/1999/xlink" x="0px" y="0px"
	 viewBox="0 0 400 245" style="enable-background:new 0 0 400 245;" xml:space="preserve">
<style type="text/css">
	.st0{fill:#171E28;}
	.st1{fill:#28EB9B;}
</style>
<g>
	<g>
		<path class="st0" d="M294.4,106.7c2.9-1.5,6.4-2.2,9.8-2.2c7,0,13.9,3,13.9,12.3v26.7h-4.6V117c0-6.4-4.2-8.9-9.8-8.9
			c-3.3,0-6.6,0.8-9.2,2.1v33.3h-4.6V90.7h4.6L294.4,106.7z"/>
		<path class="st0" d="M363.7,94.5c0,1.4-0.9,2.6-2.5,2.6c-1.5,0-2.6-1.1-2.6-2.6c0-1.6,1.2-2.5,2.6-2.5
			C362.7,92,363.7,93,363.7,94.5 M358.8,105.1h4.6v38.4h-4.6V105.1z"/>
		<path class="st0" d="M374.4,108.1c3.1-1.7,7.9-3.6,11.4-3.6c7.2,0,13,3.2,13,12.3v26.7h-4.6V117c0-6.3-3.4-8.8-9-8.8
			c-3.2,0-7.5,1.9-10,3.1v32.2h-4.6v-38.4h3.7L374.4,108.1z"/>
		<g>
			<polygon class="st0" points="119.3,89.2 111.4,89.2 111.4,143.2 140.7,143.2 140.7,135.7 119.3,135.7 			"/>
			<path class="st0" d="M149.5,88.5c-2.4,0-4.2,1.7-4.2,4.1s1.8,4.2,4.2,4.2s4.1-1.8,4.1-4.2C153.6,90.2,151.9,88.5,149.5,88.5z"/>
			<rect x="145.6" y="105" class="st0" width="7.8" height="38.2"/>
			<path class="st0" d="M198.4,104.4c-4.1,0-8.7,1.3-12.3,3.4c-2.3-2.2-5-3.4-9.3-3.4c-2.8,0-6.8,1.2-9.5,2.3l-0.1-1.7h-6.8v38.2
				h7.8v-30.5c2.1-0.9,5.7-1.4,8-1.4c5.8,0,5.6,3.3,5.6,5.7v26.2h7.8V119c0-2-0.1-3.1-0.3-5.6c4-1.9,6-2.1,8.2-2.1
				c4.2,0,5.4,2.4,5.4,7.4v24.5h7.8v-24.9C210.5,110,206.4,104.4,198.4,104.4z"/>
			<g>
				<path class="st0" d="M246.5,127.9v-9c0-9.1-5.6-14.6-15-14.6c-9.7,0-15.8,5.7-15.8,14.8v12.8c0,8.4,5.5,12.1,14.6,12.1
					c5.3,0,9.9-1.5,13.7-4.5l-4.7-4.7c-2.5,1.6-5.4,2.4-8.6,2.4c-6.5,0-7.3-3.5-7.3-6.2v-3.1L246.5,127.9L246.5,127.9z M223.6,118.9
					c0-6.7,4.9-7.7,7.9-7.7c3.4,0,7.5,1.3,7.5,7.5v2.7h-15.4V118.9z"/>
			</g>
			<path class="st0" d="M271.4,140c-7.7,0-13.1-4.1-13.1-12.8v-18.7c0-8.6,5.4-12.8,13.1-12.8c4.5,0,8.2,1.6,10.3,4.5l2.9-2.9
				c-2.8-3.7-7.4-5.9-13.5-5.9c-10.3,0-17.5,5.7-17.5,17.1v18.7c0,11.4,7.2,17.1,17.5,17.1c5.9,0,10.4-2.1,13.2-5.6l-2.9-2.9
				C279.2,138.6,275.7,140,271.4,140z"/>
		</g>
		<g>
			<path class="st0" d="M336.3,104.5c-4.3,0-7.4,1-9.7,2.4l2.7,2.7c1.8-0.8,4-1.2,6.6-1.2c9.6,0,11.1,4.8,11.2,9.7
				c-2.9-0.4-6-0.7-8.6-0.7c-8,0-15.6,2.4-15.6,12.3c0,9.4,5.7,14.7,13.6,14.7c4.8,0,8.4-2.1,11.4-3.7l0.1,3.1h3.7v-23.9
				C351.6,112.2,350.1,104.5,336.3,104.5z M347.1,137.2c-2.5,1.3-4.8,2.9-10,3.3c-6.1,0.5-10-4.2-10-10.9c0-7.1,5.5-8.9,12-8.9
				c2.6,0,5.3,0.3,8,0.6V137.2z"/>
		</g>
	</g>
	<g>
		<path class="st1" d="M76.2,111.1c0-15-5.2-22.3-12.2-27.4l18.2-19.5H69.7L7.4,130.8l-0.2,3.1c0,15,5.2,22.3,12.2,27.4L1.2,180.8
			h12.6l62.3-66.5L76.2,111.1z M25.3,154.9c-5.5-3.8-9-9-9.2-19.8L58.2,90c5.5,3.8,9,9,9.2,19.8L25.3,154.9z"/>
		<path class="st1" d="M49.3,176.6l4.9-7.9c7.2-3.4,16.4-10.1,20.2-22.8c1.2-4,1.8-14.8,1.8-19.7v-6.5l-8.9,9.7
			c0,0.3-0.1,0.9-0.1,1.2c-0.3,3.6-1.1,13-2.3,15.7c-2.9,6.7-8.4,12.1-15.8,15.4c-0.8,0.4-1.5,0.9-1.9,1.7l-5.4,8.9l-5.6-9.2
			l-6.2,6.7l4.3,6.9c1.6,2.6,4.4,4.1,7.5,4.1C44.9,180.8,47.7,179.2,49.3,176.6z"/>
		<path class="st1" d="M34.1,68.4l-4.9,7.9C22.1,79.7,12.9,86.4,9,99.1c-1.2,4-1.8,14.8-1.8,19.7v6.5l8.9-9.7c0-0.3,0.1-0.9,0.1-1.2
			c0.3-3.6,1.1-13,2.3-15.7c2.9-6.7,8.4-12.1,15.8-15.4c0.8-0.4,1.5-0.9,1.9-1.7l5.4-8.9l5.6,9.2l6.2-6.7l-4.3-6.9
			c-1.6-2.6-4.4-4.1-7.5-4.1C38.5,64.3,35.7,65.8,34.1,68.4z"/>
	</g>
</g>
</svg>
