<svg id="Layer_1" data-name="Layer 1" xmlns="http://www.w3.org/2000/svg" viewBox="0 0 1080 1080"><defs><style>.cls-1{fill:#d6a329;}.cls-2{fill:#cc5a28;}.cls-3{fill:#c86528;}.cls-4{fill:#eb6324;}.cls-5{font-size:120.83px;font-family:SFCompactDisplay-Heavy, SF Compact Display;font-weight:800;}.cls-6{letter-spacing:0.03em;}.cls-7{letter-spacing:0.04em;}.cls-8{font-size:84.79px;fill:#c60;letter-spacing:0.12em;}.cls-12,.cls-8{font-family:SFUIDisplay-Bold, SF UI Display;font-weight:700;}.cls-9{letter-spacing:0.12em;}.cls-10{letter-spacing:0.1em;}.cls-11{letter-spacing:0em;}.cls-12{font-size:84.81px;}.cls-13{letter-spacing:0.02em;}.cls-14{letter-spacing:0.12em;}.cls-15{letter-spacing:0.12em;}</style></defs><title>Artboard 1</title><polygon class="cls-1" points="250.27 335.68 388.05 418.05 335.87 447.58 198.09 365.51 250.27 335.68"/><polygon class="cls-2" points="388.16 417.84 389.06 478.59 336.54 510.2 335.62 447.95 388.16 417.84"/><polygon class="cls-2" points="212.8 413.11 160.42 444.23 108.94 414.9 163.12 383.77 212.8 413.11"/><polygon class="cls-1" points="109.54 415.29 161.02 444.15 161.02 606.07 108.94 575.24 109.54 415.29"/><polygon class="cls-2" points="193.94 565.22 246.71 596.94 246.71 655.9 193.94 624.18 193.94 565.22"/><polygon class="cls-1" points="246.71 597.32 390.05 514.31 391.59 576.72 246.71 657 246.71 597.32"/><polygon class="cls-3" points="192.15 463.22 247.97 495.54 247.97 557.8 192.15 526.67 192.15 463.22"/><polygon class="cls-4" points="248.28 432.26 303.49 466.26 248.28 496.31 192.45 463.53 248.28 432.26"/><polygon class="cls-1" points="303.1 466.26 303.1 526.54 247.58 558.57 247.89 496.31 303.1 466.26"/><text class="cls-5" transform="translate(421.71 500.73) scale(1.04 1)"><tspan class="cls-6">S</tspan><tspan class="cls-7" x="78.1" y="0">N</tspan><tspan class="cls-6" x="164.81" y="0">APPE</tspan><tspan x="473.59" y="0">R</tspan></text><text class="cls-8" transform="translate(426.46 574.46)">Fu<tspan class="cls-9" x="116.64" y="0">t</tspan><tspan x="157.5" y="0">u</tspan><tspan class="cls-10" x="217.56" y="0">r</tspan><tspan class="cls-11" x="257.63" y="0">e</tspan></text><text class="cls-12" transform="translate(769.15 574.26)"><tspan class="cls-13">T</tspan><tspan class="cls-14" x="53.47" y="0">e</tspan><tspan class="cls-15" x="111.77" y="0">c</tspan><tspan x="169.24" y="0">h</tspan></text></svg>