<?xml version="1.0" encoding="utf-8"?>
<!-- Generator: Adobe Illustrator 24.2.1, SVG Export Plug-In . SVG Version: 6.00 Build 0)  -->
<svg version="1.1"
	 id="svg2" xmlns:cc="http://creativecommons.org/ns#" xmlns:dc="http://purl.org/dc/elements/1.1/" xmlns:rdf="http://www.w3.org/1999/02/22-rdf-syntax-ns#"
	 xmlns="http://www.w3.org/2000/svg" xmlns:xlink="http://www.w3.org/1999/xlink" x="0px" y="0px" viewBox="0 0 400 245"
	 style="enable-background:new 0 0 400 245;" xml:space="preserve">
<style type="text/css">
	.st0{fill:#152168;}
	.st1{fill:url(#path7180_1_);stroke:#999999;stroke-width:0.1933;}
	.st2{fill:url(#path8011_1_);stroke:#4D4D4D;stroke-width:0.1933;}
	.st3{fill:url(#path8031_1_);stroke:#000000;stroke-width:7.730202e-02;}
	.st4{fill:url(#path7153_1_);stroke:#999999;stroke-width:0.3865;}
	.st5{fill:url(#path7161_1_);}
	.st6{fill:url(#path7186_1_);}
	.st7{fill:#FFFFFF;}
</style>
<g>
	<path id="path3212" class="st0" d="M231.4,242.9c-9.2,0-15.2-4.6-15.2-15.6c0-9.3,5.1-16.5,16.5-16.5c2.4,0,5.5,0.5,7.6,1.3
		l-1.7,6.5c-1.8-0.6-3.6-1.1-5.6-1.1c-5.8,0-8.2,3.8-8.2,9.5c0,5.5,2.2,9.2,7.8,9.2c2.7,0,4.5-0.6,6.3-1.4l0.9,6.4
		C238.2,242.1,234.9,242.9,231.4,242.9L231.4,242.9z M157.1,207.4c2.8,0,5.1-2.2,5.1-4.9c0-2.7-2.3-4.8-5.1-4.8
		c-2.6,0-4.9,2.1-4.9,4.8C152.2,205.3,154.5,207.4,157.1,207.4z M152.8,242.4h8v-31c-3.7-0.4-8,0.6-8,6.5V242.4L152.8,242.4z
		 M257,217.5c-3.6,0-7,2.7-7,9.5c0,5.9,2.2,9.2,6.9,9.2c3.9,0,7-3.2,7-9.5C263.9,220.7,261.7,217.5,257,217.5L257,217.5z M256.7,243
		c-8.8,0-15-4.8-15-15.6c0-9.7,6.5-16.7,15.9-16.7c8.8,0,14.4,4.9,14.4,15.5C272,236.3,265.9,243,256.7,243L256.7,243z M97.6,218
		c-1.7-0.6-4.4-1.3-6.5-1.3c-2.5,0-4.4,0.6-4.4,2.9c0,5.4,13.7,2.1,13.7,13.1c0,7.5-6.1,10.3-12.9,10.3c-3.1,0-6.3-0.5-9.1-1.4
		l0.5-6.5c0,0,4.5,1.5,8.3,1.5c2.6,0,4.8-0.8,4.8-3.1c0-5.7-13.8-2.1-13.8-13c0-6.9,5.8-9.7,12.2-9.7c3.8,0,6.8,0.7,8.7,1.4
		L97.6,218L97.6,218z M149.1,211.3c-1.7,9.2-6.2,23.7-9,31h-8.4l-6-20.7h-0.1l-6,20.7h-8.4c-2.7-7.2-7.6-22.2-9-31h8l5.3,21.3h0.1
		l6.3-21.3h8l6.1,21.2h0.1l5.3-21.2H149.1L149.1,211.3z M312.3,210.7c6,0,9.5,3.2,9.5,10.3v21.3h-8v-19.7c0-3.2-0.9-5.3-4.3-5.3
		s-6.4,3-6.4,8.3v16.7h-7.8v-19.7c0-3-1-5.3-4.4-5.3c-3.6,0-6.3,3.3-6.3,8.7v16.3h-8.1v-31c5.3-0.6,7.3,1.5,7.5,5
		c1.9-3.5,5.3-5.6,9.7-5.6c5.6,0,7.8,3.1,8.6,6C303.6,213.6,307.1,210.7,312.3,210.7z M184.8,218c-1.8-0.6-4.4-1.3-6.5-1.3
		c-2.5,0-4.5,0.6-4.5,2.9c0,5.4,13.9,2.1,13.9,13.1c0,7.5-6.1,10.3-12.9,10.3c-3.1,0-6.3-0.5-9.3-1.4l0.6-6.5c0,0,4.5,1.5,8.3,1.5
		c2.5,0,4.8-0.8,4.8-3.1c0-5.7-13.9-2.1-13.9-13c0-6.9,5.8-9.7,12.2-9.7c3.8,0,6.9,0.7,8.8,1.4L184.8,218L184.8,218z M210,218
		c-1.7-0.6-4.4-1.3-6.5-1.3c-2.5,0-4.4,0.6-4.4,2.9c0,5.4,13.8,2.1,13.8,13.1c0,7.5-6.1,10.3-12.9,10.3c-3.1,0-6.3-0.5-9.1-1.4
		l0.5-6.5c0,0,4.5,1.5,8.3,1.5c2.7,0,4.8-0.8,4.8-3.1c0-5.7-13.8-2.1-13.8-13c0-6.9,5.8-9.7,12.2-9.7c3.8,0,6.9,0.7,8.7,1.4L210,218
		"/>
	<g id="g8049">
		
			<linearGradient id="path7180_1_" gradientUnits="userSpaceOnUse" x1="191.196" y1="93.289" x2="169.3349" y2="119.5795" gradientTransform="matrix(1 0 0 -1 0 245.64)">
			<stop  offset="0" style="stop-color:#0019CE"/>
			<stop  offset="1" style="stop-color:#00A4CE;stop-opacity:0.498"/>
		</linearGradient>
		<path id="path7180" class="st1" d="M174.2,104c-34,29.2-11.9,50.6,18.1,63.1l0.2-33.3C177.9,130.7,186.4,111.3,174.2,104
			L174.2,104z"/>
		
			<linearGradient id="path8011_1_" gradientUnits="userSpaceOnUse" x1="226.0268" y1="104.0736" x2="154.6307" y2="184.0139" gradientTransform="matrix(1 0 0 -1 0 245.64)">
			<stop  offset="0" style="stop-color:#040D1A"/>
			<stop  offset="1" style="stop-color:#FD110D;stop-opacity:0.9944"/>
		</linearGradient>
		<path id="path8011" class="st2" d="M175.6,20.4c-0.7,0-15,10.7-21.3,15.8c-19.7,16-25.8,28.2-21.3,42c2.3,7,6.3,11.8,19.2,22.9
			c9.7,8.4,14.8,13.5,18.9,18.9c0.4,0.6,0.9,1.2,1.3,1.8c0.1,0.2,0.2,0.3,0.4,0.5c0,0,0,0,0,0c0.1,0.2,0.2,0.3,0.3,0.5
			c0.7,1,1.3,2,1.8,2.9c0.6,1.1,1.2,2.1,1.7,3.2c0,0.1,0,0.1,0.1,0.2c0.2,0.4,0.3,0.8,0.5,1.2c0.1,0.4,0.3,0.7,0.4,1.1
			c0,0,0,0.1,0,0.1c0.1,0.4,0.3,0.8,0.4,1.2c0,0,0,0.1,0,0.1c0.2,0.4,0.3,0.9,0.5,1.4c0,0,0,0,0,0c0.9,2.9,1.8,6.5,2.8,11.2
			c0.2,0.2,0.2,0.3,0.4,0.6c0.1,0.3,0.2,0.6,0.2,0.9c2.3,9.4,4.6,15,7.6,18.1c0.2,0.3,1,0.8,1.7,1.1c0.7,0.4,1.5,0.6,1.6,0.6
			c0.4-0.1,0.5-32.1,0.1-33.1c-2.4-0.2-4.8-1.6-6.5-3.4c-1-1.1-1.9-2.8-2.7-5c0-0.1-0.1-0.1-0.1-0.2c0-0.1-0.1-0.3-0.1-0.4
			c-0.5-1.7-1-3.8-1.6-6.8c-1.9-9.4-3.2-11.4-12-17.6c-6.2-4.4-9-7.1-10.4-10c-1-2-1-2.3-1-5.2c0-2.5,0.1-3.3,0.7-4.6
			c1.5-3.2,3.7-4.7,11-7.6c7.8-3.1,9-4.5,12.6-14c3.2-7,4.8-7.5,10.6-10.2C193.2,48.9,181.4,29.7,175.6,20.4L175.6,20.4z"/>
		
			<linearGradient id="path8031_1_" gradientUnits="userSpaceOnUse" x1="185.2232" y1="147.6413" x2="215.2782" y2="161.2542" gradientTransform="matrix(1 0 0 -1 0 245.64)">
			<stop  offset="0" style="stop-color:#000000"/>
			<stop  offset="1" style="stop-color:#000000;stop-opacity:0"/>
		</linearGradient>
		<path id="path8031" class="st3" d="M192.7,167.3c16.8-24.8,34.3-29.8,50.2-85.2l-62.1-54.8l12.8,22.2L192.7,167.3z"/>
		
			<linearGradient id="path7153_1_" gradientUnits="userSpaceOnUse" x1="326.0822" y1="147.9351" x2="215.0996" y2="200.4502" gradientTransform="matrix(1 0 0 -1 0 245.64)">
			<stop  offset="0" style="stop-color:#040D1A"/>
			<stop  offset="1" style="stop-color:#FD110D;stop-opacity:0.9944"/>
		</linearGradient>
		<path id="path7153" class="st4" d="M202.7,19.2c-3.5,0.2-6.9,0.3-9.9,1.8c0-0.1,0-0.2,0.1,18.7l49.8,42.5c0,0,1.1-1.8,1.7-5.9
			c0.9-6,1-10.6,0.6-15c-0.9-9.3-3.4-16.6-8-23.4c-2.2-3.2-8-8.9-11.3-11.1c-5-3.3-11.2-5.9-16.8-7.1
			C207.1,19.4,204.9,19.2,202.7,19.2L202.7,19.2z"/>
		
			<linearGradient id="path7161_1_" gradientUnits="userSpaceOnUse" x1="198.7804" y1="126.8147" x2="217.6807" y2="153.8781" gradientTransform="matrix(1 0 0 -1 0 245.64)">
			<stop  offset="0" style="stop-color:#0019CE"/>
			<stop  offset="1" style="stop-color:#00A4CE;stop-opacity:0.498"/>
		</linearGradient>
		<path id="path7161" class="st5" d="M192.6,186c0.1-0.1,1-136.9,0.7-137.1l-14.3-23.2c-0.4,2.4,43.7,38.7,64,56.7l3.6,3.5
			c8.7,8.6,14.3,15.5,17.9,23c3.3,6.8,4.3,11.7,4,19c-0.3,7.6-2.5,14.9-6.5,21.8c-3.7,6.4-11,13.9-18,18.8
			c-12.1,8.3-28.5,14.5-45,17C194.8,186.2,192.9,186.3,192.6,186L192.6,186z"/>
		
			<linearGradient id="path7186_1_" gradientUnits="userSpaceOnUse" x1="185.9328" y1="211.346" x2="182.9025" y2="244.767" gradientTransform="matrix(1 0 0 -1 0 245.64)">
			<stop  offset="0" style="stop-color:#0B4AD0"/>
			<stop  offset="1" style="stop-color:#0BB7D0;stop-opacity:0"/>
		</linearGradient>
		<path id="path7186" class="st6" d="M175.5,19.7c0-0.3-0.2-1.1-0.5-2c-1-3.2-0.3-7,1.8-9.7c1.1-1.4,3.9-3.3,6.1-4.2
			c4.4-1.6,9.4-2.4,9.7-1.5c0,0,0.1,37.6,0.3,37.6C193.2,40.5,176.5,25.8,175.5,19.7L175.5,19.7z"/>
	</g>
	<path id="path8057" class="st7" d="M192.9,133.9l0.4-85.1c-3.5,1.7-7,1.5-11.1,11.5c-3.2,8.5-4.7,10-13.3,13.3
		c-15,4.4-14.7,17.3,1.2,27.1c8.9,5.8,10.5,9.5,12.2,19.5C183.8,127.1,185.7,132.5,192.9,133.9L192.9,133.9z"/>
</g>
</svg>
