<?xml version="1.0" encoding="utf-8"?>
<!-- Generator: Adobe Illustrator 23.0.4, SVG Export Plug-In . SVG Version: 6.00 Build 0)  -->
<svg version="1.1" id="Layer_1" xmlns="http://www.w3.org/2000/svg" xmlns:xlink="http://www.w3.org/1999/xlink" x="0px" y="0px"
	 viewBox="0 0 1036.29 125.17" style="enable-background:new 0 0 1036.29 125.17;" xml:space="preserve">
<style type="text/css">
	.st0{fill:#041F41;}
	.st1{fill:#08F27B;}
	.st2{font-family:'Bogle-Regular';}
	.st3{font-size:100.4354px;}
</style>
<g>
	<path class="st0" d="M306.45,66.29c0-12.32-5.26-23.16-23.05-23.16c-9.13,0-16.38,2.57-20.34,4.85l2.9,9.9
		c3.61-2.28,9.38-4.17,14.83-4.17c9.02-0.02,10.5,5.11,10.5,8.4v0.78c-19.67-0.03-32.1,6.78-32.1,20.66
		c0,8.47,6.33,16.41,17.34,16.41c6.77,0,12.43-2.7,15.82-7.03h0.34c0,0,2.25,9.4,14.63,5.8c-0.65-3.91-0.86-8.08-0.86-13.1V66.29z
		 M291.77,79.31c0,1-0.09,2.04-0.36,2.94c-1.14,3.77-5.04,6.95-9.92,6.95c-4.07,0-7.3-2.31-7.3-7.19c0-7.47,8.22-9.54,17.59-9.49
		V79.31z M16.26,26.35c1.52,7.67,5.84,29.9,5.84,29.9c1.81,9.15,3.48,18.73,4.74,26.31h0.22c1.23-8.05,3.15-15.68,5.21-25.13
		l7.27-31.09h16.08l6.8,31.9c1.79,8.87,3.2,15.71,4.32,23.96h0.22c1.23-8.33,2.82-15.45,4.57-24.56l6.53-31.3H93.5L74.38,98.74
		c-12.18,2.67-16.85-2.23-18.53-10.02c-1.67-7.79-4.94-22.61-4.94-22.61c-1.67-8.11-2.98-13.84-3.9-22.17h-0.23
		c-1.31,8.25-2.67,14.03-4.71,22.14l-8.03,32.66c-12.44,2.48-16.75-1.2-19.14-11.17C12.85,79.02,0,26.35,0,26.35H16.26z
		 M137.37,66.29c0-12.32-5.26-23.16-23.05-23.16c-9.14,0-16.39,2.57-20.34,4.85l2.89,9.9c3.62-2.28,9.38-4.17,14.83-4.17
		c9.03-0.02,10.51,5.11,10.51,8.4v0.78c-19.68-0.03-32.1,6.78-32.1,20.66c0,8.47,6.33,16.41,17.33,16.41
		c6.77,0,12.44-2.7,15.83-7.03h0.33c0,0,2.25,9.4,14.63,5.8c-0.65-3.91-0.86-8.08-0.86-13.1V66.29z M122.69,79.31
		c0,1-0.09,2.04-0.36,2.94c-1.14,3.77-5.04,6.95-9.92,6.95c-4.07,0-7.3-2.31-7.3-7.19c0-7.47,8.22-9.54,17.58-9.49V79.31z
		 M161.88,98.74h-14.7V26.35h14.7V98.74z M368.7,26.35v17.12h12.8v13.85h-12.8v20.43c0,6.61,1.68,9.82,6.69,9.82
		c2.36,0,4.08-0.29,5.58-0.66l0.19,11.49c-2.02,0.75-6.29,1.58-10.64,1.58c-5.11,0-9.38-1.78-11.97-4.54
		c-2.96-3.15-4.35-8.31-4.35-15.67c0,0,0-46.46,0-53.4H368.7z M329.56,44.36v10.26h0.41c2.7-7.83,9.14-11.48,14.8-11.48
		c1.42,0,2.2,0.11,3.34,0.34V57.7c-1.36-0.2-2.62-0.39-4.38-0.39c-6.4,0-10.86,3.73-11.99,9.56c-0.24,1.2-0.33,2.51-0.33,4.01v27.84
		h-15.16V44.36H329.56z M186.2,44.36v7.39h0.22c2.51-3.96,6.64-8.62,15.84-8.62c7.16,0,12.65,3.87,14.99,9.73h0.22
		c2.01-2.95,4.32-5.19,6.89-6.77c3.06-1.88,6.44-2.95,10.73-2.95c9.68,0,18.26,6.69,18.26,23.58v32.03h-14.77c0-6.82,0-29.8,0-29.8
		c0-8.56-2.9-13.51-8.95-13.51c-4.43,0-7.65,2.97-8.87,6.62c-0.42,1.26-0.62,2.98-0.62,4.41v32.28h-14.76V67.74
		c0-7.27-2.79-12.32-8.75-12.32c-4.77,0-7.76,3.76-8.98,6.97c-0.52,1.38-0.69,2.96-0.69,4.45v31.89h-14.78V44.36H186.2z"/>
	<g>
		<path class="st1" d="M407.43,35.65c0.45-1.36,0.76-2.78,1.37-4.06c0.99-2.09,2.53-3.73,4.66-4.75c1.96-0.94,3.81-0.9,5.7,0.37
			c10.93,7.33,21.89,14.6,32.84,21.89c2.03,1.35,4.09,2.65,6.11,4.01c6.57,4.39,6.54,14.04-0.04,18.43
			c-12.02,8.01-24.03,16.02-36.04,24.03c-1.01,0.68-2.04,1.33-3.03,2.04c-1.46,1.06-3.03,1.18-4.67,0.58
			c-2.72-1-4.48-3.01-5.71-5.54c-0.97-1.98-1.38-4.07-0.9-6.26c0.34-1.56,1.2-2.7,2.66-3.43c12.84-6.39,25.66-12.8,38.49-19.21
			c0.91-0.45,1.81-0.92,2.79-1.42c-0.2-0.13-0.33-0.23-0.48-0.3c-13.7-6.8-27.39-13.6-41.09-20.4c-1.46-0.72-2.15-1.98-2.5-3.49
			c-0.05-0.21-0.1-0.42-0.15-0.63C407.43,36.89,407.43,36.27,407.43,35.65z"/>
		<path class="st1" d="M518.75,36.92c-0.17,0.69-0.31,1.65-0.63,2.55c-0.39,1.08-1.2,1.82-2.27,2.3
			c-8.49,3.84-16.97,7.69-25.44,11.56c-1.41,0.65-2.69,0.53-3.98-0.23c-2.42-1.44-3.95-4.66-3.45-7.26
			c0.18-0.93,0.62-1.67,1.41-2.24c7.7-5.53,15.39-11.09,23.09-16.61c1.77-1.27,3.66-0.97,5.4,0.02
			C516.59,29.12,518.39,32.44,518.75,36.92z"/>
		<path class="st1" d="M518.63,88.56c-0.27,4.28-2.11,7.63-5.97,9.67c-1.94,1.02-3.84,0.89-5.73-0.48
			c-7.31-5.31-14.66-10.57-22.06-15.77c-1.77-1.24-2.27-2.79-1.9-4.76c0.42-2.28,1.6-4.06,3.62-5.23c1.15-0.67,2.35-0.77,3.62-0.19
			c8.53,3.86,17.06,7.7,25.6,11.53c1.77,0.79,2.55,2.23,2.8,4.05C518.67,87.76,518.63,88.16,518.63,88.56z"/>
		<path class="st1" d="M462.99,125.17c-2.63-0.02-5.05-0.65-6.98-2.55c-1.12-1.1-1.58-2.42-1.41-4.03c0.51-4.73,0.93-9.48,1.4-14.21
			c0.42-4.32,0.82-8.64,1.29-12.96c0.31-2.86,1.9-4.31,4.8-4.56c1.69-0.14,3.32,0.05,4.79,0.98c1.06,0.68,1.72,1.6,1.85,2.91
			c0.48,5.05,0.99,10.09,1.5,15.14c0.42,4.16,0.81,8.33,1.29,12.49c0.26,2.22-0.63,3.82-2.36,5.06
			C467.48,124.62,465.5,125.16,462.99,125.17z"/>
		<path class="st1" d="M462.95,0.01c2.59-0.09,4.89,0.55,6.83,2.22c1.32,1.14,1.91,2.56,1.7,4.37c-0.44,3.85-0.76,7.71-1.14,11.57
			c-0.42,4.3-0.85,8.59-1.27,12.89c-0.11,1.08-0.25,2.16-0.3,3.24c-0.06,1.21-0.62,2.1-1.56,2.79c-2.22,1.65-6.04,1.65-8.27,0.02
			c-0.88-0.64-1.44-1.46-1.55-2.58c-0.36-3.75-0.75-7.49-1.13-11.23c-0.43-4.21-0.85-8.41-1.28-12.62c-0.15-1.5-0.32-2.99-0.44-4.49
			c-0.17-2.05,0.92-3.44,2.48-4.54C458.66,0.49,460.53,0.01,462.95,0.01z"/>
	</g>
	<text transform="matrix(1 0 0 1 538.1344 96.7939)" class="st0 st2 st3">Global Tech</text>
</g>
</svg>
