<?xml version="1.0" encoding="utf-8"?>
<!-- Generator: Adobe Illustrator 24.0.1, SVG Export Plug-In . SVG Version: 6.00 Build 0)  -->
<svg version="1.1" id="Layer_1" xmlns="http://www.w3.org/2000/svg" xmlns:xlink="http://www.w3.org/1999/xlink" x="0px" y="0px"
	 viewBox="0 0 400 245" style="enable-background:new 0 0 400 245;" xml:space="preserve">
<style type="text/css">
	.st0{fill:#626363;}
	.st1{fill:#F05928;}
</style>
<g>
	<g>
		<path class="st0" d="M211.8,72l42.1,0.9c0,0,38.6,6.3,44.2,48c3.7,39.9-36.3,51.7-36.3,51.7c-13.5,3.5-59.3-0.2-59.3-0.2
			s-46.4-8.6-40.9-60.6l21.3,0.7c0,0,5.9,2.3,7,8.7c0,0,1.7,10.5,4.4,15c4.2,6.9,12.4,7.8,12.4,7.8l46.2,0.5c0,0,17.5-5.7,16.2-22
			s-16.8-20.1-16.8-20.1l-17.7-0.6C234.7,101.6,229.3,85.7,211.8,72z"/>
		<path class="st0" d="M228.2,134.2c0,0,9.4-42.9-35.4-59.7c0,0-13.7-3.8-27.2-3l-29.9-0.3c0,0-41.1,5.4-43.6,48
			c0.4,34.8,27.9,46.9,27.9,46.9s9.6,6,22.8,6.6S178,173,178,173s-19.9-16.1-22.4-29.2l-15.9-0.6c0,0-16.8-3.3-19.1-20.6
			c0,0-1.3-16.3,17.1-22l44.4,0.5c0,0,17.7,3.3,18.2,21.5c0,0,0.7,11.3,12.5,11.4S228.2,134.2,228.2,134.2z"/>
	</g>
	<path class="st1" d="M373.8,71.1v7.3c-0.4-0.2-0.7-0.5-1.1-0.7c-7.9-4.5-16.4-6.8-25.4-6.8c-12.5,0-23.5,4.3-33.1,13
		c-11,10-16.4,22.4-16.4,37.3c0,13.9,4.8,25.8,14.5,35.5c9.7,9.8,21.4,14.6,35.1,14.6c9.3,0,17.8-2.2,25.6-6.6
		c0.3-0.2,0.6-0.4,0.9-0.5v7.8H398V71.1H373.8z M366.3,141.3c-5,5.2-11.2,7.8-18.7,7.8s-13.7-2.6-18.6-7.7s-7.4-11.9-7.4-20.2
		c0-8.1,2.5-14.7,7.4-19.9c5-5.2,11.2-7.8,18.6-7.8c7.6,0,13.9,2.6,18.8,7.7s7.4,11.8,7.4,20C373.8,129.4,371.3,136.1,366.3,141.3z"
		/>
	<polygon class="st1" points="75.4,113.9 107.7,71.5 78.8,71.5 60.6,95.2 	"/>
	<polygon class="st1" points="69.6,121.5 55.1,102.4 31.5,71.5 2.1,71.5 40.4,121.8 2.1,172.4 31,172.4 54.9,140.8 79,172.4 
		108.4,172.4 	"/>
</g>
</svg>
