<?xml version="1.0" encoding="utf-8"?>
<!-- Generator: Adobe Illustrator 24.0.1, SVG Export Plug-In . SVG Version: 6.00 Build 0)  -->
<svg version="1.1" id="图层_1" xmlns="http://www.w3.org/2000/svg" xmlns:xlink="http://www.w3.org/1999/xlink" x="0px" y="0px"
	 viewBox="0 0 400 245" style="enable-background:new 0 0 400 245;" xml:space="preserve">
<style type="text/css">
	.st0{fill:#EA4335;}
</style>
<g>
	<g>
		<g>
			<g>
				<path class="st0" d="M51.3,70.7L51.3,70.7c-0.5-0.2-1-0.2-1.5,0L2.6,85.6c-0.6,0.2-0.9,0.7-0.8,1.3l2.8,25.5
					c0,0.1,0,0.1,0.1,0.2l16.2,40.9c0.1,0.2,0.2,0.4,0.4,0.5l27.7,19.8c1,0.7,2.3,0.7,3.2,0l28.6-20.2c0.2-0.1,0.3-0.3,0.3-0.4
					l15.8-40.6c0-0.1,0-0.1,0.1-0.2l2.5-25.5c0.1-0.6-0.3-1.1-0.9-1.3L51.3,70.7z M25,150.2l-12.4-31c-0.2-0.6,0.5-1.2,1-0.8
					l34.2,19.3c0.2,0.1,0.3,0.3,0.3,0.6v28.3c0,0.2-0.3,0.4-0.4,0.2l-22.2-15.8C25.2,150.6,25.1,150.4,25,150.2z M48.1,77.8v18.7
					c0,0.9-0.6,1.7-1.4,1.9l-36,12.1c-0.5,0.2-1-0.2-1.1-0.7L7.3,90.5c-0.1-0.6,0.3-1.1,0.8-1.3L47,77
					C47.5,76.8,48.1,77.2,48.1,77.8z M53.2,166.4V138c0-0.2,0.1-0.3,0.2-0.4l34-19c0.7-0.4,1.5,0.3,1.2,1l-11.7,30.3
					c-0.1,0.2-0.3,0.4-0.5,0.6l-22.9,16.1C53.4,166.7,53.2,166.6,53.2,166.4z M91.7,110.1L51,133c-0.3,0.2-0.6,0.2-0.9,0l-34.1-18.1
					c-0.6-0.4-0.5-1.3,0.2-1.5L50,102.7c0.4-0.1,0.8-0.1,1.2,0l26.4,8.8c0.8,0.2,1.6-0.2,1.8-1l0.6-2.1c0.2-0.8-0.2-1.6-1-1.8
					l-24.4-8.2c-0.9-0.3-1.5-1.1-1.5-2V77.8c0-0.6,0.5-1,1.1-0.8l38.9,12.2c0.6,0.2,0.9,0.7,0.9,1.3l-1.9,18.9
					C92.1,109.7,91.9,110,91.7,110.1z"/>
			</g>
		</g>
		<g>
			<g>
				<path class="st0" d="M128.6,148.8h5.5l1.6,8c0.3,1.7,0.5,3.5,0.7,5.3h0.2c0.3-1.8,0.6-3.6,1-5.3l1.8-8h4.8l1.9,8
					c0.4,1.7,0.7,3.5,1.1,5.3h0.2c0.3-1.8,0.4-3.6,0.8-5.3l1.5-8h5.1l-4.2,17.8h-6.5l-1.5-6.8c-0.3-1.7-0.6-3.3-0.9-5.2h-0.2
					c-0.3,1.9-0.5,3.6-0.8,5.2l-1.4,6.8H133L128.6,148.8z"/>
				<path class="st0" d="M157.1,148.8h5.5l1.6,8c0.3,1.7,0.5,3.5,0.7,5.3h0.2c0.3-1.8,0.6-3.6,1-5.3l1.8-8h4.8l1.9,8
					c0.4,1.7,0.7,3.5,1.1,5.3h0.2c0.3-1.8,0.4-3.6,0.8-5.3l1.5-8h5.2l-4.2,17.8h-6.5l-1.5-6.8c-0.3-1.7-0.6-3.3-0.9-5.2h-0.2
					c-0.3,1.9-0.5,3.6-0.8,5.2l-1.4,6.8h-6.3L157.1,148.8z"/>
				<path class="st0" d="M185.7,148.8h5.5l1.6,8c0.3,1.7,0.5,3.5,0.7,5.3h0.2c0.3-1.8,0.6-3.6,1-5.3l1.8-8h4.8l1.9,8
					c0.4,1.7,0.7,3.5,1.1,5.3h0.2c0.3-1.8,0.4-3.6,0.8-5.3l1.5-8h5.1l-4.2,17.8h-6.5l-1.5-6.8c-0.3-1.7-0.6-3.3-0.9-5.2h-0.2
					c-0.3,1.9-0.5,3.6-0.8,5.2l-1.4,6.8H190L185.7,148.8z"/>
				<path class="st0" d="M212.3,163.5c0-1.9,1.4-3.4,3.3-3.4c1.9,0,3.3,1.5,3.3,3.4c0,1.9-1.4,3.5-3.3,3.5
					C213.7,167,212.3,165.5,212.3,163.5z"/>
				<path class="st0" d="M223,163.6l7.2-10.5h-6.4v-4.3h13.3v3l-7.2,10.5h7.4v4.3H223V163.6z"/>
				<path class="st0" d="M241.1,141.6h5.5v6l-0.2,3.2c1.3-1.2,3-2.4,5.4-2.4c3.9,0,5.5,2.8,5.5,7.2v11h-5.6v-10.3
					c0-2.4-0.7-3.2-2.1-3.2c-1.2,0-2,0.6-3.1,1.6v11.9h-5.5V141.6z"/>
				<path class="st0" d="M261.7,143.5c0-1.7,1.3-2.9,3.2-2.9c1.8,0,3.2,1.2,3.2,2.9c0,1.7-1.3,2.8-3.2,2.8
					C263,146.3,261.7,145.1,261.7,143.5z M262.1,148.8h5.5v17.8h-5.5V148.8z"/>
				<path class="st0" d="M271.6,169.5c0-1.5,0.9-2.6,2.5-3.5v-0.2c-0.9-0.6-1.6-1.6-1.6-3.1c0-1.2,0.8-2.5,2-3.3v-0.1
					c-1.2-0.9-2.4-2.5-2.4-4.6c0-4.3,3.6-6.5,7.4-6.5c1,0,2,0.2,2.8,0.4h6.5v4h-2.7c0.3,0.5,0.5,1.3,0.5,2.2c0,4.2-3.2,6-7.1,6
					c-0.6,0-1.3-0.1-2.1-0.3c-0.4,0.4-0.6,0.7-0.6,1.2c0,0.8,0.7,1.2,2.6,1.2h2.8c4.4,0,6.8,1.3,6.8,4.6c0,3.7-3.9,6.4-10,6.4
					C275,174,271.6,172.7,271.6,169.5z M283.8,168.6c0-1.1-0.9-1.3-2.6-1.3h-1.7c-1.3,0-2-0.1-2.5-0.2c-0.6,0.5-0.8,1-0.8,1.6
					c0,1.2,1.5,1.9,3.8,1.9C282.2,170.6,283.8,169.7,283.8,168.6z M281.8,154.8c0-1.8-0.9-2.7-2.2-2.7c-1.3,0-2.2,0.9-2.2,2.7
					c0,1.8,1,2.8,2.2,2.8C280.8,157.6,281.8,156.7,281.8,154.8z"/>
				<path class="st0" d="M292.3,159.8v-11h5.6v10.3c0,2.5,0.7,3.2,2.1,3.2c1.2,0,2-0.5,3-1.8v-11.6h5.6v17.8h-4.5l-0.4-2.4h-0.1
					c-1.5,1.7-3.1,2.9-5.6,2.9C294,167,292.3,164.2,292.3,159.8z"/>
				<path class="st0" d="M313,143.5c0-1.7,1.3-2.9,3.2-2.9c1.8,0,3.1,1.2,3.1,2.9c0,1.7-1.3,2.8-3.1,2.8
					C314.3,146.3,313,145.1,313,143.5z M313.4,148.8h5.5v17.8h-5.5V148.8z"/>
				<path class="st0" d="M324,163.5c0-1.9,1.4-3.4,3.3-3.4c1.9,0,3.3,1.5,3.3,3.4c0,1.9-1.4,3.5-3.3,3.5
					C325.3,167,324,165.5,324,163.5z"/>
				<path class="st0" d="M334.2,157.7c0-5.9,4.4-9.3,9.3-9.3c2.2,0,3.8,0.7,5.2,1.9l-2.6,3.6c-0.8-0.7-1.5-1-2.3-1
					c-2.4,0-4,1.9-4,4.8c0,2.9,1.6,4.8,3.8,4.8c1.1,0,2.2-0.5,3.1-1.2l2.1,3.7c-1.7,1.5-4,2.1-5.8,2.1
					C338,167,334.2,163.6,334.2,157.7z"/>
				<path class="st0" d="M350.4,157.7c0-5.9,4.2-9.3,8.7-9.3c4.5,0,8.7,3.4,8.7,9.3c0,5.9-4.2,9.3-8.7,9.3
					C354.6,167,350.4,163.6,350.4,157.7z M362.1,157.7c0-3-0.9-4.8-3-4.8c-2.1,0-3,1.9-3,4.8c0,2.9,0.9,4.8,3,4.8
					C361.2,162.5,362.1,160.6,362.1,157.7z"/>
				<path class="st0" d="M371.9,148.8h4.5l0.4,2.3h0.1c1.5-1.5,3-2.7,5.4-2.7c2.5,0,4,1,4.9,2.9c1.5-1.6,3.2-2.9,5.6-2.9
					c3.9,0,5.6,2.8,5.6,7.2v11h-5.6v-10.3c0-2.4-0.6-3.2-2-3.2c-0.8,0-1.8,0.5-2.8,1.6v11.9h-5.6v-10.3c0-2.4-0.6-3.2-2-3.2
					c-0.8,0-1.8,0.5-2.8,1.6v11.9h-5.5V148.8z"/>
			</g>
		</g>
		<g>
			<g>
				<path class="st0" d="M146.8,95.2h-3.7c-0.3,0-0.5,0.1-0.6,0.3l-3.3,4.7l-5.1,0c-0.1,0-0.3-0.1-0.4-0.2c-0.1-0.1-0.1-0.2,0-0.4
					l5.7-12.9c0.1-0.2,0.2-0.5,0-0.7c-0.1-0.2-0.4-0.3-0.7-0.3l-3.3-0.1c-0.3,0-0.5,0.1-0.6,0.3l-7,17c-0.1,0.2-0.1,0.5,0,0.7
					c0.1,0.2,0.4,0.3,0.6,0.3c0,0,0,0,0,0l8.4-0.2L129,115c-0.1,0.2-0.1,0.5,0,0.7c0.1,0.2,0.4,0.3,0.6,0.3c0,0,0.1,0,0.1,0l16.2-4
					c0.4,0,0.6-0.3,0.6-0.7l0-2.8c0-0.2-0.1-0.4-0.3-0.5c-0.2-0.1-0.4-0.2-0.6-0.2l-7,2c-0.2,0-0.3,0-0.4-0.2
					c-0.1-0.1-0.1-0.3,0-0.4l9.2-13.1c0.1-0.2,0.1-0.5,0-0.7C147.3,95.3,147.1,95.2,146.8,95.2z"/>
				<path class="st0" d="M146.4,117.7c-0.2-0.1-0.5-0.1-0.7,0l-16.4,7.5c-0.3,0.1-0.4,0.3-0.4,0.6v2.9c0,0.2,0.1,0.4,0.3,0.6
					c0.1,0.1,0.3,0.1,0.4,0.1c0.1,0,0.2,0,0.3-0.1l16.4-7.7c0.3-0.1,0.4-0.3,0.4-0.6v-2.7C146.8,118,146.6,117.8,146.4,117.7z"/>
				<path class="st0" d="M183.2,103.3l-10.9,0L171,90.4l11.1-0.6c0.4,0,0.7-0.3,0.7-0.7v-2.4c0-0.2-0.1-0.4-0.2-0.5
					s-0.4-0.2-0.6-0.2l-29.2,1.9c-0.4,0-0.7,0.3-0.7,0.7v35.1l-3.4,1.3c-0.3,0.1-0.4,0.3-0.4,0.6v2.9c0,0.2,0.1,0.4,0.3,0.6
					c0.1,0.1,0.3,0.1,0.4,0.1c0.1,0,0.2,0,0.3-0.1L166,122c0.3-0.1,0.4-0.3,0.4-0.6v-2.9c0-0.2-0.1-0.4-0.3-0.6
					c-0.2-0.1-0.5-0.1-0.7,0l-8.9,4.1v-15.5l12.9,0l10.3,21.8c0.1,0.3,0.4,0.4,0.7,0.4h2.7c0.4,0,0.7-0.2,0.7-0.6v-11.7
					c0-0.2,0-0.4-0.2-0.5c-0.1-0.1-0.3-0.2-0.6-0.2c0,0,0,0,0,0l-2.1,0c-0.4,0-0.7,0.3-0.7,0.6l0,5.9l-7-15.8l9.9,0l0,0
					c0.4,0,0.7-0.3,0.7-0.7v-2C184,103.6,183.6,103.3,183.2,103.3z M156.5,103.2V91.5c0-0.2,0.2-0.3,0.4-0.4l10.4-0.5l1.3,12.6
					L156.5,103.2z"/>
				<path class="st0" d="M255.5,101.8H230v-4.6H250c0.4,0,0.7-0.2,0.7-0.5V88c0-0.3-0.3-0.5-0.7-0.5H230v-1.3c0-0.8-0.3-0.8-0.9-0.8
					h-3.2c-0.5,0-0.9,0-0.9,0.8v1.3h-19.7c-0.4,0-0.7,0.2-0.7,0.5v8.6c0,0.3,0.3,0.5,0.7,0.5h19.7v4.6h-25.3c-0.4,0-0.7,0.2-0.7,0.5
					v2.1c0,0.3,0.3,0.5,0.7,0.5h55.8c0.4,0,0.7-0.2,0.7-0.5v-2.1C256.1,102,255.8,101.8,255.5,101.8z M230,90.2h16.7
					c0.2,0,0.3,0.1,0.3,0.2V94c0,0.1-0.1,0.2-0.3,0.2H230V90.2z M224.9,94.2h-16.4c-0.2,0-0.3-0.1-0.3-0.2v-3.5
					c0-0.1,0.1-0.2,0.3-0.2h16.4V94.2z"/>
				<path class="st0" d="M247.6,120.7h2.8c0.4,0,0.7-0.2,0.7-0.5v-12.3c0-0.3-0.3-0.5-0.7-0.5h-45.5c-0.4,0-0.7,0.2-0.7,0.5v12.3
					c0,0.3,0.3,0.5,0.7,0.5h2.8c0.4,0,0.7-0.2,0.7-0.5v-9.7c0-0.1,0.1-0.2,0.3-0.2h38.1c0.2,0,0.3,0.1,0.3,0.2v9.7
					C246.9,120.5,247.2,120.7,247.6,120.7z"/>
				<path class="st0" d="M253.3,125.3l-22.8-6.9c-0.2,0-0.4,0-0.5,0v-5.7c0-0.3-0.3-0.5-0.7-0.5h-3.7c-0.2,0-0.3,0.1-0.5,0.2
					c-0.1,0.1-0.2,0.2-0.2,0.4l0,4.8c0,0.1-0.1,0.2-0.2,0.2l-22.9,7.5c-0.3,0.1-0.4,0.3-0.4,0.5v3.1c0,0.2,0.1,0.3,0.3,0.4
					c0.1,0.1,0.2,0.1,0.4,0.1c0.1,0,0.2,0,0.2,0l26.8-9.1c0,0,0,0,0,0v1.4c0,0.2,0.2,0.4,0.4,0.5l23.2,7.2l0,0c0.1,0,0.1,0,0.2,0
					c0.1,0,0.3,0,0.4-0.1c0.2-0.1,0.3-0.3,0.3-0.4l0-3.1C253.7,125.5,253.5,125.3,253.3,125.3z"/>
				<path class="st0" d="M285.7,103.6c-0.1-0.2-0.4-0.4-0.7-0.4l-0.7,0v-2.1h5.4c0.4,0,0.8-0.3,0.8-0.7v-1.9c0-0.4-0.3-0.7-0.8-0.7
					l-5.4,0v-8.1l5.2-0.3c0.4,0,0.7-0.3,0.7-0.7l0-1.9c0-0.2-0.1-0.4-0.2-0.5c-0.2-0.1-0.4-0.2-0.6-0.2l-16.6,0.8
					c-0.4,0-0.7,0.3-0.7,0.7v2c0,0.2,0.1,0.4,0.2,0.5c0.1,0.1,0.3,0.2,0.5,0.2c0,0,0,0,0,0l6.6-0.4v7.8l-7.7,0
					c-0.4,0-0.8,0.3-0.8,0.7v1.9c0,0.4,0.3,0.7,0.8,0.7h6.1l-6.3,15.2c-0.1,0.2,0,0.4,0.1,0.6c0.1,0.2,0.4,0.3,0.6,0.3h2.5
					c0.3,0,0.6-0.2,0.7-0.4l3.9-9.9v21.9c0,0.4,0.3,0.7,0.8,0.7h3.3c0.4,0,0.8-0.3,0.8-0.7v-20.1l2.3,4.1c0.1,0.2,0.4,0.4,0.7,0.4
					h2.6c0.3,0,0.5-0.1,0.6-0.3c0.1-0.2,0.2-0.4,0-0.6L285.7,103.6z"/>
				<path class="st0" d="M324.8,110.5h-5.6V87.3c0-0.4-0.3-0.7-0.8-0.7h-3.3c-0.4,0-0.8,0.3-0.8,0.7v23.2h-18.9
					c-0.4,0-0.8,0.3-0.8,0.7v1.9c0,0.4,0.3,0.7,0.8,0.7h18.9v15c0,0.4,0.3,0.7,0.8,0.7h3.3c0.4,0,0.8-0.3,0.8-0.7v-15h5.6
					c0.4,0,0.8-0.3,0.8-0.7v-1.9C325.6,110.8,325.2,110.5,324.8,110.5z"/>
				<path class="st0" d="M307,98c0.1,0.1,0.3,0.2,0.5,0.2c0.1,0,0.2,0,0.3-0.1c0.3-0.1,0.4-0.3,0.4-0.6v-2.3c0-0.2-0.1-0.4-0.3-0.5
					l-8.4-6.2c-0.2-0.2-0.5-0.2-0.8-0.1c-0.3,0.1-0.4,0.3-0.4,0.6v2.2c0,0.2,0.1,0.4,0.3,0.5L307,98z"/>
				<path class="st0" d="M307,107c0.1,0.1,0.3,0.2,0.5,0.2c0.1,0,0.2,0,0.3-0.1c0.3-0.1,0.4-0.3,0.4-0.6v-2.3c0-0.2-0.1-0.4-0.3-0.5
					l-8.4-6.2c-0.2-0.2-0.5-0.2-0.8-0.1c-0.3,0.1-0.4,0.3-0.4,0.6v2.2c0,0.2,0.1,0.4,0.3,0.5L307,107z"/>
				<path class="st0" d="M359.1,95.8h-4.9V87c0-0.3-0.3-0.6-0.7-0.6H350c-0.4,0-0.7,0.3-0.7,0.6l0,8.7l-8.4,0.1
					c-0.4,0-0.7,0.3-0.7,0.6v2c0,0.3,0.3,0.6,0.7,0.6l8.4-0.1v9.2l-8.8,4.1c-0.2,0.1-0.3,0.3-0.3,0.5l0,2.3c0,0.2,0.1,0.4,0.4,0.5
					c0.1,0,0.2,0.1,0.3,0.1c0.1,0,0.3,0,0.4-0.1l8.1-3.7V125l-4.5-3.7c-0.1-0.1-0.3-0.2-0.5-0.2l-3.1,0c0,0,0,0,0,0
					c-0.3,0-0.5,0.1-0.6,0.3c-0.1,0.2-0.1,0.4,0.1,0.6l8.4,7.1c0.3,0.3,0.7,0.3,0.9,0.3h3.6c0.4,0,0.7-0.3,0.7-0.6l0-19l5-2.3
					c0.2-0.1,0.3-0.3,0.3-0.5v-2.3c0-0.2-0.1-0.4-0.4-0.5c-0.2-0.1-0.5-0.1-0.7,0l-4.3,1.9v-7.3h4.9c0.4,0,0.7-0.3,0.7-0.6v-2
					C359.8,96,359.5,95.8,359.1,95.8z"/>
				<path class="st0" d="M396.6,126.3l-13.7-7.9l12.1-6.5c0.9-0.6,0.9-0.6,0.9-1.8v-4.8v-1.2c0-1.1-0.8-2-1.8-2l-12.3,0
					c-0.2,0-0.3-0.1-0.3-0.3l0-6.5c0-0.2,0.1-0.3,0.3-0.3h14.1c0.4,0,0.7-0.3,0.7-0.5v-2.1c0-0.3-0.3-0.6-0.7-0.6h0l-7.4,0h-6.7
					c-0.2,0-0.3-0.1-0.3-0.3l0-4.4c0-0.3-0.3-0.6-0.7-0.6h-3.6c-0.4,0-0.7,0.3-0.7,0.6v4.4c0,0.2-0.1,0.3-0.3,0.3h-12.9
					c-0.4,0-0.7,0.3-0.7,0.6v2.1c0,0.3,0.3,0.6,0.7,0.6h12.9c0.2,0,0.3,0.1,0.3,0.3v6.5c0,0.2-0.1,0.3-0.3,0.3h-11.9
					c-0.5,0-0.9,0.4-0.9,0.9v1.3c0,0.5,0.4,0.9,0.9,0.9H390c0.7,0,1.3,0.6,1.3,1.4v1.6c0,0.7-0.4,1.3-0.8,1.5l-11.7,6.3l-14.5-8.4
					c-0.4-0.2-0.9,0.1-0.9,0.6l0,3.1c0,0.2,0.1,0.4,0.3,0.6l11.1,6.3l-11.4,6.2c-0.3,0.1-0.5,0.4-0.5,0.7v2.9c0,0.6,0.6,0.9,1.1,0.7
					l14.9-8.1l17,9.7c0.4,0.2,0.9-0.1,0.9-0.5l0.1-2.8C396.9,126.7,396.8,126.5,396.6,126.3z"/>
			</g>
		</g>
	</g>
</g>
</svg>
