<?xml version="1.0" encoding="utf-8"?>
<!-- Generator: Adobe Illustrator 24.0.1, SVG Export Plug-In . SVG Version: 6.00 Build 0)  -->
<svg version="1.1" id="图层_1" xmlns="http://www.w3.org/2000/svg" xmlns:xlink="http://www.w3.org/1999/xlink" x="0px" y="0px"
	 viewBox="0 0 400 245" style="enable-background:new 0 0 400 245;" xml:space="preserve">
<style type="text/css">
	.st0{fill:#DF4A42;}
</style>
<g>
	<g>
		<g>
			<path class="st0" d="M128.2,108.7h-3.9c-0.3,0-0.5,0.1-0.7,0.3l-3.5,5h-5.5c-0.1,0-0.3-0.1-0.4-0.2c-0.1-0.1-0.1-0.3,0-0.4
				l6.1-13.8c0.2-0.2,0.2-0.5,0-0.7c-0.2-0.2-0.4-0.4-0.7-0.4l-3.5-0.1c-0.3,0-0.5,0.1-0.7,0.3L108,117c-0.2,0.2-0.2,0.5,0,0.7
				c0.2,0.2,0.4,0.4,0.7,0.3l9-0.2l-8.4,11.9c-0.2,0.2-0.2,0.5,0,0.7c0.2,0.2,0.4,0.3,0.7,0.3h0.1l17.3-4.3c0.4,0,0.7-0.3,0.7-0.7
				v-3c0-0.2-0.1-0.4-0.3-0.5c-0.2-0.1-0.4-0.2-0.6-0.2l-7.5,2.1c-0.2,0-0.3,0-0.4-0.2c-0.1-0.1-0.1-0.3,0-0.4l9.8-14.1
				c0.1-0.2,0.1-0.5,0-0.7C128.8,108.8,128.5,108.6,128.2,108.7z"/>
			<path class="st0" d="M127.9,132.8c-0.2-0.1-0.5-0.1-0.8,0l-17.5,8.1c-0.3,0.1-0.5,0.4-0.5,0.6v3c0,0.2,0.1,0.5,0.4,0.6
				c0.1,0.1,0.3,0.1,0.4,0.1c0.1,0,0.2,0,0.3,0l17.5-8.3c0.3-0.1,0.4-0.4,0.5-0.6v-2.9C128.3,133.2,128.1,132.9,127.9,132.8z"/>
			<path class="st0" d="M167.3,117.4h-11.7l-1.4-13.7l11.9-0.6c0.4,0,0.7-0.3,0.7-0.7v-2.5c0-0.2-0.1-0.4-0.2-0.5
				c-0.2-0.1-0.4-0.2-0.6-0.2l-31.3,2c-0.4,0-0.7,0.3-0.7,0.7v37.5l-3.6,1.4c-0.3,0.1-0.5,0.4-0.5,0.6v3.1c0,0.3,0.2,0.5,0.4,0.6
				c0.1,0.1,0.3,0.1,0.4,0.1c0.1,0,0.2,0,0.3,0l17.8-7.7c0.3-0.1,0.5-0.4,0.5-0.6v-3.1c0-0.3-0.1-0.5-0.4-0.6
				c-0.2-0.1-0.5-0.1-0.7,0l-9.5,4.4v-16.7h13.8l11.1,23.4c0.1,0.3,0.4,0.5,0.8,0.5h2.9c0.4,0,0.7-0.2,0.8-0.6v-12.5
				c0-0.2,0-0.4-0.2-0.6c-0.2-0.2-0.4-0.2-0.6-0.2H165c-0.4,0-0.7,0.3-0.8,0.6v6.3l-7.5-16.8h10.6c0.2,0,0.4-0.1,0.5-0.2
				c0.2-0.1,0.2-0.3,0.3-0.5V118C168.1,117.6,167.7,117.3,167.3,117.4z M138.7,117.4v-12.5c0-0.2,0.2-0.4,0.4-0.4l11.1-0.6l1.4,13.5
				L138.7,117.4z"/>
			<path class="st0" d="M244.6,115.7h-27.3v-5h21.5c0.3,0,0.7-0.2,0.7-0.6V101c0-0.2-0.1-0.3-0.2-0.4s-0.3-0.2-0.5-0.1h-21.5V99
				c0-0.9-0.4-0.9-0.9-0.9h-3.5c-0.6,0-1,0-1,0.9v1.4h-21.1c-0.2,0-0.3,0-0.5,0.1c-0.1,0.1-0.2,0.3-0.2,0.4v9.2
				c0,0.3,0.4,0.6,0.7,0.6h21.1v5h-27.1c-0.3,0-0.7,0.2-0.7,0.6v2.2c0,0.3,0.4,0.6,0.7,0.6h59.8c0.3,0,0.7-0.2,0.7-0.6v-2.2
				C245.2,115.9,244.9,115.7,244.6,115.7z M217.3,103.4h17.9c0.1,0,0.1,0,0.2,0.1c0.1,0,0.1,0.1,0.1,0.2v3.8c0,0.2-0.1,0.3-0.3,0.3
				h-17.9V103.4z M211.9,107.7h-17.5c-0.1,0-0.2,0-0.2-0.1c-0.1,0-0.1-0.1-0.1-0.2v-3.8c0-0.2,0.2-0.3,0.3-0.2h17.5L211.9,107.7z"/>
			<path class="st0" d="M236.1,136h2.9c0.3,0,0.7-0.2,0.7-0.6v-13.2c0-0.3-0.3-0.6-0.7-0.6h-48.7c-0.3,0-0.7,0.2-0.7,0.6v13.2
				c0,0.3,0.3,0.6,0.7,0.6h2.9c0.3,0,0.7-0.2,0.7-0.6v-10.4c0-0.2,0.2-0.3,0.3-0.2h40.8c0.1,0,0.1,0,0.2,0.1c0.1,0,0.1,0.1,0.1,0.2
				v10.4C235.5,135.8,235.8,136,236.1,136z"/>
			<path class="st0" d="M242.2,140.9l-24.4-7.4c-0.2-0.1-0.4-0.1-0.5,0v-6.1c0-0.3-0.4-0.6-0.7-0.6h-4c-0.2,0-0.4,0.1-0.5,0.2
				c-0.1,0.1-0.2,0.3-0.2,0.4v5.2c0,0.1-0.1,0.2-0.2,0.2l-24.5,8c-0.2,0.1-0.4,0.3-0.4,0.5v3.4c0,0.2,0.1,0.4,0.3,0.5
				c0.1,0.1,0.3,0.1,0.4,0.1c0.1,0,0.2,0,0.3,0l28.7-9.7v1.5c0,0.3,0.2,0.5,0.5,0.5l24.8,7.7c0.1,0,0.2,0,0.2,0c0.1,0,0.3,0,0.4-0.1
				c0.2-0.1,0.3-0.3,0.3-0.5v-3.3C242.6,141.2,242.4,140.9,242.2,140.9z"/>
			<path class="st0" d="M276.9,117.7c-0.2-0.3-0.4-0.4-0.7-0.4h-0.8V115h5.8c0.4,0,0.8-0.3,0.8-0.7v-2c0-0.4-0.4-0.7-0.8-0.7h-5.8
				V103l5.5-0.3c0.4,0,0.7-0.3,0.8-0.7v-2c0-0.2-0.1-0.4-0.3-0.5c-0.2-0.1-0.4-0.2-0.6-0.2l-17.8,0.9c-0.4,0-0.7,0.3-0.8,0.7v2.2
				c0,0.2,0.1,0.4,0.3,0.5c0.2,0.1,0.4,0.2,0.6,0.2l7.1-0.4v8.3H262c-0.4,0-0.8,0.3-0.8,0.7v2c0,0.4,0.4,0.7,0.8,0.7h6.6l-6.8,16.3
				c-0.1,0.2,0,0.5,0.1,0.6c0.2,0.2,0.4,0.3,0.7,0.3h2.7c0.3,0,0.6-0.2,0.8-0.5l4.2-10.6v23.4c0,0.4,0.4,0.7,0.8,0.7h3.5
				c0.4,0,0.8-0.3,0.8-0.7v-21.5l2.5,4.4c0.2,0.3,0.4,0.4,0.7,0.4h2.8c0.3,0,0.5-0.1,0.7-0.3c0.1-0.2,0.1-0.5,0-0.7L276.9,117.7z"/>
			<path class="st0" d="M318.8,125.1h-6v-24.9c0-0.4-0.4-0.7-0.8-0.7h-3.5c-0.4,0-0.8,0.3-0.8,0.7v24.9h-20.3
				c-0.4,0-0.8,0.3-0.8,0.7v2c0,0.4,0.4,0.7,0.8,0.7h20.3v16.1c0,0.4,0.4,0.7,0.8,0.7h3.5c0.4,0,0.8-0.3,0.8-0.7v-16.1h6
				c0.4,0,0.8-0.3,0.8-0.7v-2c0-0.2-0.1-0.4-0.3-0.5C319.2,125.1,319,125,318.8,125.1z"/>
			<path class="st0" d="M299.7,111.7c0.2,0.1,0.3,0.2,0.5,0.2c0.1,0,0.2,0,0.3-0.1c0.3-0.1,0.5-0.3,0.5-0.6v-2.4
				c0-0.2-0.1-0.4-0.3-0.5l-9-6.6c-0.3-0.2-0.6-0.2-0.9-0.1c-0.3,0.1-0.5,0.3-0.5,0.6v2.3c0,0.2,0.1,0.4,0.3,0.5L299.7,111.7z"/>
			<path class="st0" d="M299.7,121.3c0.2,0.1,0.3,0.2,0.5,0.2c0.1,0,0.2,0,0.3-0.1c0.3-0.1,0.5-0.4,0.5-0.6v-2.4
				c0-0.2-0.1-0.4-0.3-0.5l-9-6.6c-0.3-0.2-0.6-0.2-0.9-0.1c-0.3,0.1-0.5,0.4-0.5,0.6v2.4c0,0.2,0.1,0.4,0.3,0.5L299.7,121.3z"/>
			<path class="st0" d="M355.5,109.3h-5.2v-9.4c0-0.4-0.4-0.6-0.7-0.6h-3.9c-0.4,0-0.7,0.2-0.7,0.6v9.3l-9,0.1
				c-0.4,0-0.7,0.2-0.7,0.6v2.2c0,0.4,0.4,0.6,0.7,0.6l9-0.1v9.9l-9.4,4.4c-0.2,0.1-0.3,0.3-0.3,0.5v2.5c0,0.2,0.2,0.5,0.4,0.5
				c0.1,0.1,0.2,0.1,0.3,0.1c0.1,0,0.3,0,0.4-0.1l8.6-4v14.2l-4.8-4c-0.1-0.1-0.3-0.2-0.5-0.2h-3.3c-0.3,0-0.5,0.1-0.7,0.4
				c-0.1,0.2-0.1,0.5,0.1,0.7l9,7.6c0.3,0.2,0.6,0.3,0.9,0.3h3.8c0.2,0,0.4,0,0.5-0.1c0.1-0.1,0.2-0.3,0.2-0.5v-20.3l5.4-2.5
				c0.2-0.1,0.3-0.3,0.3-0.5v-2.4c0-0.2-0.2-0.4-0.4-0.5c-0.2-0.1-0.5-0.1-0.7,0l-4.6,2.1v-7.8h5.2c0.4,0,0.7-0.2,0.7-0.6v-2.2
				c0-0.2-0.1-0.3-0.2-0.5C355.8,109.3,355.7,109.3,355.5,109.3z"/>
			<path class="st0" d="M395.6,142l-14.6-8.4l12.9-7c1-0.6,1-0.6,1-2v-6.5c0-1.1-0.9-2-2-2h-13.2c-0.1,0-0.2,0-0.2-0.1
				c-0.1-0.1-0.1-0.2-0.1-0.2v-6.9c0-0.2,0.1-0.3,0.3-0.3h15.1c0.4,0,0.7-0.3,0.7-0.6v-2.3c0-0.2-0.1-0.3-0.2-0.5
				c-0.1-0.1-0.3-0.2-0.5-0.2h-15.1c-0.1,0-0.2,0-0.2-0.1c-0.1-0.1-0.1-0.2-0.1-0.2V100c0-0.4-0.3-0.6-0.7-0.6h-3.9
				c-0.4,0-0.7,0.2-0.7,0.6v4.7c0,0.1,0,0.2-0.1,0.2c-0.1,0.1-0.1,0.1-0.2,0.1h-13.8c-0.4,0-0.7,0.2-0.7,0.6v2.2
				c0,0.4,0.4,0.6,0.7,0.6h13.8c0.1,0,0.2,0,0.2,0.1c0.1,0.1,0.1,0.2,0.1,0.2v6.9c0,0.1,0,0.2-0.1,0.2c-0.1,0.1-0.1,0.1-0.2,0.1H361
				c-0.5,0-0.9,0.5-0.9,1v1.4c0,0.5,0.4,1,0.9,1h27.5c0.4,0,0.8,0.2,1,0.5c0.3,0.3,0.4,0.7,0.4,1.1v1.7c0,0.7-0.3,1.3-0.9,1.6
				l-12.5,6.7l-15.6-9c-0.2-0.1-0.4-0.1-0.6,0c-0.2,0.1-0.3,0.3-0.3,0.6v3.3c0,0.2,0.1,0.5,0.4,0.6l11.9,6.8l-12.2,6.6
				c-0.3,0.1-0.5,0.4-0.6,0.8v3.1c0,0.3,0.1,0.6,0.4,0.7c0.2,0.2,0.6,0.2,0.8,0l16-8.7l18.2,10.3c0.2,0.1,0.4,0.1,0.6,0
				c0.2-0.1,0.3-0.3,0.3-0.5v-3C395.9,142.3,395.8,142.1,395.6,142z"/>
			<path class="st0" d="M40.5,84.5c-0.4-0.1-0.8-0.1-1.1,0l-34.6,11c-0.4,0.1-0.7,0.5-0.6,0.9l2.1,18.7v0.2l11.9,30.1
				c0.1,0.1,0.2,0.2,0.3,0.3l20.4,14.6c0.7,0.5,1.7,0.5,2.4,0l21-14.8c0.1-0.1,0.2-0.2,0.2-0.3L74,115.3c0-0.1,0-0.1,0-0.2l1.8-18.7
				c0.1-0.4-0.2-0.8-0.5-0.9L40.5,84.5z M21.1,142.8L12,120c-0.1-0.2,0-0.4,0.1-0.6s0.4-0.2,0.6,0l25.1,14.2
				c0.1,0.1,0.2,0.2,0.2,0.4v20.7c0,0.1,0,0.1-0.1,0.2c-0.1,0-0.1,0-0.2,0l-16.3-11.6C21.3,143.2,21.2,143,21.1,142.8L21.1,142.8z
				 M38.1,89.7v13.7c0,0.6-0.4,1.2-1,1.4l-26.4,8.9c-0.2,0.1-0.4,0-0.5-0.1c-0.2-0.1-0.3-0.3-0.3-0.4L8.3,99c-0.1-0.4,0.2-0.8,0.6-1
				l28.5-9c0.2,0,0.4,0,0.5,0.2C38.1,89.3,38.1,89.5,38.1,89.7L38.1,89.7z M41.9,154.7v-20.8c0-0.1,0.1-0.2,0.2-0.3l25-13.9
				c0.2-0.1,0.5-0.1,0.7,0c0.2,0.2,0.3,0.4,0.2,0.7l-8.6,22.2c-0.1,0.2-0.2,0.3-0.3,0.4l-16.8,11.9c-0.1,0-0.1,0-0.2,0
				C41.9,154.8,41.9,154.8,41.9,154.7L41.9,154.7z M70.2,113.4l-29.9,16.8c-0.2,0.1-0.4,0.1-0.6,0l-25-13.3
				c-0.2-0.1-0.3-0.4-0.3-0.6c0-0.2,0.2-0.4,0.4-0.5l24.8-7.9c0.3-0.1,0.6-0.1,0.9,0l19.4,6.5c0.6,0.1,1.1-0.2,1.3-0.7l0.5-1.5
				c0.1-0.6-0.2-1.1-0.7-1.3L43,104.8c-0.6-0.2-1.1-0.8-1.1-1.4V89.7c0-0.2,0.1-0.4,0.2-0.5s0.4-0.2,0.5-0.1l28.5,9
				c0.4,0.1,0.7,0.5,0.6,1l-1.4,13.9C70.5,113.1,70.4,113.3,70.2,113.4L70.2,113.4z"/>
		</g>
	</g>
</g>
</svg>
