<svg xmlns="http://www.w3.org/2000/svg" role="img" viewBox="-4.35 19.15 408.20 206.45"><title>Ant Finanical logo</title><style>svg {enable-background:new 0 0 400 245}</style><style>.st0{fill:#3f3b3a}</style><path d="M81.89 183.24s21.14 17.56 33.49 27.61c0 0 1.29 1.01 2.15 0 0 0 10.91-10.48 13.21-10.05 0 0 .67-.09-.29 1.87 0 0-2.25 4.69-10.48 13.78 0 0-2.63 2.87-5.59.29 0 0-34.2-28.76-35.64-29.91 0 0-1.91-1.72-.38-3.64 0 0 1.44-1.53 3.53.05zm-29.13 0s-21.14 17.56-33.49 27.61c0 0-1.29 1.01-2.15 0 0 0-10.91-10.48-13.21-10.05 0 0-.67-.09.28 1.87 0 0 2.25 4.69 10.48 13.78 0 0 2.63 2.87 5.6.29 0 0 34.19-28.76 35.63-29.91 0 0 1.91-1.72.38-3.64.01 0-1.42-1.53-3.52.05zm24.67-33.22s2.39-2.42 21.21-11.46c0 0 .95-.51 1.54.39 0 0 5.86 6.65 12.73 6.31 0 0 1.16-.07 1.68-1.37.91-2.29-5.36-4.98-5.36-4.98-2.94-1.3-2.56-4.11-2.56-4.11.19-1.81-1.06-2.8-1.06-2.8-2.22-1.77-9.63 2.96-9.63 2.96-11.19 5.97-20.35 11.31-20.35 11.31s-2.53 1.18-1.49 3.18c-.02 0 .77 1.8 3.29.57zm-19.78.79s-2.54-2.27-21.9-10.09c0 0-.98-.46-1.51.48 0 0-5.43 7.01-12.3 7.1 0 0-1.16 0-1.77-1.26-1.05-2.22 5.04-5.31 5.04-5.31 2.86-1.48 2.29-4.27 2.29-4.27-.3-1.79.88-2.86.88-2.86 2.1-1.91 9.8 2.34 9.8 2.34 11.55 5.25 21.03 10 21.03 10s2.6 1.02 1.7 3.08c.01.01-.67 1.86-3.26.79z" class="st0"/><linearGradient id="SVGID_1_" x1="66.934" x2="66.934" y1="135.576" y2="204.84" gradientUnits="userSpaceOnUse"><stop offset="0" stop-color="#0097e0"/><stop offset=".252" stop-color="#00aaeb"/><stop offset="1" stop-color="#00b9ef"/></linearGradient><path fill="url(#SVGID_1_)" d="M85.74 180.09c0 14.3-8.42 25.89-18.81 25.89-10.39 0-18.81-11.59-18.81-25.89s8.42-25.89 18.81-25.89c10.39-.01 18.81 11.59 18.81 25.89z"/><linearGradient id="SVGID_2_" x1="67.172" x2="67.172" y1="135.576" y2="204.84" gradientUnits="userSpaceOnUse"><stop offset="0" stop-color="#0097e0"/><stop offset=".252" stop-color="#00aaeb"/><stop offset="1" stop-color="#00b9ef"/></linearGradient><path fill="url(#SVGID_2_)" d="M78.37 144.96c0 7.11-5.01 12.88-11.2 12.88-6.18 0-11.2-5.76-11.2-12.88 0-7.11 5.01-12.87 11.2-12.87 6.19 0 11.2 5.76 11.2 12.87z"/><path d="M41.19 85.27S34.83 61.46 52.73 37.4l1.46 2.28s-12.34 15.46-9.08 41.71l-3.92 3.88z" class="st0"/><path d="M65.16 28.87c2.16 2.53 1.1 6.98-2.36 9.94-3.47 2.96-8.03 3.32-10.19.78-2.16-2.53-1.11-6.98 2.36-9.94 3.47-2.96 8.03-3.31 10.19-.78zM78.67 78.5s9.14-22.88 37.87-31.47l-.2 2.7s-19.13 5.01-32.22 28.01l-5.45.76z" class="st0"/><path d="M132.07 47.4c.22 3.32-3.29 6.26-7.84 6.56-4.55.3-8.42-2.15-8.64-5.47-.22-3.32 3.29-6.25 7.84-6.56 4.55-.29 8.42 2.16 8.64 5.47z" class="st0"/><linearGradient id="SVGID_3_" x1="53.339" x2="53.339" y1="174.752" y2="105.143" gradientTransform="rotate(1.072 2349.65 768.248)" gradientUnits="userSpaceOnUse"><stop offset="0" stop-color="#00a1e9"/><stop offset=".683" stop-color="#00afec"/><stop offset="1" stop-color="#00b9ef"/></linearGradient><path fill="url(#SVGID_3_)" d="M24.54 98.97c1.25-28.77 25.82-22.49 36.55-38.9 8.8 14.85 41.9 1.27 45.09 38.58 1.76 20.5-13.32 34.39-39.97 35.84-23.49 1.27-42.83-8.7-41.67-35.52z"/><linearGradient id="SVGID_4_" x1="63.238" x2="63.238" y1="133.38" y2="107.469" gradientUnits="userSpaceOnUse"><stop offset="0" stop-color="#00a1e9"/><stop offset=".203" stop-color="#00a4ea"/><stop offset=".594" stop-color="#00b1ed"/><stop offset="1" stop-color="#55c3f1"/></linearGradient><path fill="url(#SVGID_4_)" d="M90.41 109.6c-1.25.84-27.64 22.93-65.64-3.31.14 1.24.34 2.44.58 3.59.05.25.11.5.16.76 4.21 18.07 20.99 24.92 40.7 23.85 16.3-.88 28.24-6.45 34.68-15.31 3.1-5.85-3.13-14.5-10.48-9.58z"/><path fill="#008cd6" d="M64.57 109.02C34.34 111 35.33 92.94 35.33 92.94c.5-16.88 27.18-17.35 27.18-17.35s31.12-2.09 31.36 15.94c-.01 0 1.08 15.94-29.3 17.49z"/><path fill="#fff" d="M64.54 110.18c-30.86 1.46-29.19-16.06-29.19-16.06.51-16.84 27.13-16.92 27.13-16.92s31.06-2.48 31.3 15.52c0 0 1.4 16.05-29.24 17.46z"/><linearGradient id="SVGID_5_" x1="30.424" x2="73.57" y1="159.324" y2="159.324" gradientTransform="rotate(1.072 2349.65 768.248)" gradientUnits="userSpaceOnUse"><stop offset="0" stop-color="#fff" stop-opacity=".95"/><stop offset="1" stop-color="#fff" stop-opacity="0"/></linearGradient><path fill="url(#SVGID_5_)" d="M84.89 115.14c-15.77 11.01-37.52 5.13-40.54 3.31-3.01-1.82-1.43-4.66 1.17-3.89 0 0 19.45 6.25 39.14-2.94"/><path d="M64.62 87.77a8.62 8.62 0 0 0-7.89 9.3s.02.79 1.16.7c1.13-.09 7.3-1.6 15.22-1.24.86-.06.8-.86.8-.86-.38-4.75-4.55-8.28-9.29-7.9z" class="st0"/><g opacity=".2"><radialGradient id="SVGID_6_" cx="53.363" cy="130.353" r="8.363" gradientTransform="rotate(1.072 2349.65 768.248)" gradientUnits="userSpaceOnUse"><stop offset="0" stop-color="#bae3f9"/><stop offset="1" stop-color="#1c95d4" stop-opacity="0"/></radialGradient><path fill="url(#SVGID_6_)" d="M64.71 88.23a6.839 6.839 0 0 0-6.26 7.38s.02.63.92.56c.9-.07 5.79-1.27 12.08-.99.68-.05.64-.68.64-.68-.31-3.77-3.62-6.57-7.38-6.27z"/></g><g><path d="M198.26 149.47c0 .94-.42 1.41-1.26 1.41h-18.73l1.26 4.82h17.94c2.02 0 3.4-.45 4.36-1.43 1.02-1.03 1.42-2.21 1.42-4.19v-21.91c0-1.94-.47-3.27-1.49-4.19-.64-.6-1.37-.95-2.29-1.16v-20.98c0-1.94-.47-3.27-1.48-4.2-1.08-.98-2.3-1.36-4.37-1.36h-22.1v4.82h21.47c.97 0 1.46.39 1.46 1.2v20.31h-14.54c-.97 0-1.56-.35-1.46-1.2l1.48-16h-5.01l-1.5 16.45c-.18 1.91.48 3.26 1.49 4.19 1.08.99 2.29 1.37 4.36 1.37h17.48c.97 0 1.47.41 1.47 1.21v6.71h-28.19v4.82h28.2v9.31zm-30.22 3.08c.26 1.19.53 2.29.82 3.15h5.17c-1.18-3.5-2.21-10.67-2.56-13.27h-5.11c.15 1.13.43 3.16.78 5.36-1.72.62-4.84.94-7.7 1.08v-13.16h4.09c2.07 0 3.29-.38 4.37-1.37 1.01-.93 1.47-2.26 1.47-4.2v-22.31c0-1.93-.47-3.26-1.47-4.2-1.08-.98-2.3-1.37-4.37-1.37h-4.09v-6.2h-5.02v6.2h-4.09c-2.06 0-3.29.38-4.37 1.37-1.01.93-1.48 2.26-1.48 4.2v22.31c0 1.94.47 3.27 1.48 4.2 1.08.98 2.3 1.37 4.37 1.37h4.09V149h-11.11v4.83h11.26c3.57 0 10.63 0 13.47-1.28zm-8.58-45.46h3.46c.98 0 1.46.41 1.46 1.21v21.39c0 .8-.49 1.22-1.46 1.22h-3.46v-23.82zm-5.02 23.82h-3.45c-.98 0-1.47-.42-1.47-1.22V108.3c0-.8.49-1.21 1.47-1.21h3.45v23.82zm136.84-28.07c.84-1.29 1.62-1.62 4.06-1.62h16c2.43 0 3.21.34 4.06 1.62 2.38 3.63 7.44 11.64 9.69 14.93h6.9c-2.41-3.56-8.73-13.56-11.15-17.08-1.99-2.9-4.42-4.28-7.85-4.28h-1.28a.956.956 0 0 0-.08-.47l-1.13-2.54c3.54-1.22 5.81-4.02 5.14-6.5-.72-2.67-4.51-3.95-8.47-2.88-2.93.79-5.13 2.65-5.8 4.63a3.22 3.22 0 0 0-2.78-1.74c.15-.48.24-.98.23-1.51a4.969 4.969 0 0 0-4.05-4.8l-.09-3.97c-.01-.59-.5-1.06-1.09-1.05h-.05c-.59.01-1.06.5-1.05 1.1l.09 4.01c-.63.16-1.19.44-1.69.81l-2.55-2.89c-.21-.25-.52-.38-.82-.37-.26.01-.5.1-.7.26l-.03.03c-.21.19-.34.45-.36.74-.01.28.07.56.26.78l2.77 3.13c-.37.72-.61 1.53-.59 2.41a4.973 4.973 0 0 0 5.08 4.87c.45-.01.87-.09 1.28-.21.02.9.41 1.7 1.02 2.28l-1.84 3.55c-.05.1-.07.21-.09.32h-.6c-3.43 0-5.86 1.38-7.85 4.28-2.43 3.52-8.75 13.52-11.16 17.08h6.9c2.22-3.29 7.28-11.3 9.67-14.92zm17.02-8.94l1.12 2.5h-2.73l-.31-2.43a9.6 9.6 0 0 0 1.92-.07zm-6-1.47c.48.46 1.1.82 1.81 1.08l.37 2.9h-2.58l.4-3.98zm-4.06.96c.1.02.2.03.3.03.55-.02 1.05-.17 1.5-.42l-.35 3.39h-3l1.55-3zm-47.5 45.12c-4.87 7.4-11.4 17.19-11.4 17.19h6.76s3.94-5.77 8.14-11.99c4.18 6.22 8.13 11.99 8.13 11.99h6.75s-6.52-9.79-11.39-17.19c.37-.58.76-1.15 1.13-1.7 4.24-6.41 7.88-8.92 10.76-38.44h-5.32c-2.79 23.88-4.61 26.32-9.02 33.24-.27.43-.63.98-1.02 1.59-.4-.61-.76-1.16-1.03-1.59-4.42-6.92-6.24-9.36-9.03-33.24h-5.32c2.89 29.52 6.52 32.03 10.76 38.44.34.56.72 1.12 1.1 1.7zm93.3 4.26v-6.57h11.71v13.27c0 .94-.42 1.41-1.26 1.41h-6.23v4.82h6.71c2.01 0 3.4-.45 4.36-1.43 1.02-1.03 1.41-2.21 1.41-4.19v-48.43c0-1.94-.48-3.28-1.48-4.2-1.07-.98-2.3-1.37-4.36-1.37h-10.03c-2.07 0-3.29.39-4.37 1.37-1.01.93-1.48 2.26-1.48 4.2v41.12c0 9.46-1.7 12.58-1.89 12.93h4.81c.21 0 2.1-1.11 2.1-12.93zm0-40.66c0-.81.49-1.22 1.46-1.22h8.76c.97 0 1.48.41 1.48 1.22v10.62h-11.71v-10.62zm0 15.37h11.71v13.98h-11.71v-13.98zm-11.86 33.41h-11.96c.28-.72.54-1.61.69-2.71.22-1.62.84-7.16 1.01-8.77h-5.01c-.17 1.59-.8 7.03-1 8.77a9.93 9.93 0 0 1-.69 2.71h-9.28v-17.64h21.34v-4.81h-21.34v-10.67h13.35v-4.83H287.4v4.83h13.35v10.67H279.4v4.81h21.35v17.64h-9.28c-.31-.7-.57-1.59-.7-2.71-.2-1.74-.83-7.18-1-8.77h-5.02c.17 1.62.78 7.15 1.01 8.77.15 1.1.41 2 .69 2.71h-11.96v4.82h57.7v-4.82zm-74.04-37.91l-3.07-16.89h-5.22l3.08 16.89h5.21zm81.68 68.38c-1.21.08-2.57.17-3.95.17-3.3 0-5.19-.51-5.77-1.57-.69-1.3-1.07-3.2-1.07-5.36 0-1.94.34-3.81.92-5.16.67-1.41 2.55-2.09 5.8-2.09 1.25 0 2.67.07 4.24.2l1.13.12-.01-3.4-.77-.07c-1.73-.13-3.19-.19-4.58-.19-3.25 0-7.77.42-9.41 4.17-.79 1.69-1.22 3.96-1.22 6.42 0 2.35.59 5.02 1.49 6.78 1.27 2.4 4.22 3.51 9.28 3.51 1.33 0 2.75-.08 4.01-.16l1.23-.06-.01-3.39-1.31.08zm-55.38-17.69l-9.46 20.92h4.17l2.85-6.23h7.85l2.76 6.23h4.14l-9.29-20.92h-3.02zm-.9 11.32l.07-.15c.77-1.68 1.53-3.35 2.25-4.94l.1-.22 2.39 5.31h-4.81zm32-10.46c0 2.66 0 5.34-.01 8.01l-.01 1.19v4.55l-11.19-14.58h-3.2v20.9h3.92v-.73c0-2.58-.01-5.17-.02-7.78 0-1.72-.01-3.43-.01-5.16v-.31l10.81 13.97h3.61v-20.81h-3.89v.75zm31.08 20.05h3.89v-20.54h-3.89v20.54zm39.88-41.56c5.99-8.91 8.33-14.84 8.84-16.62.74-2.57-.59-5.77-4.23-5.77h-21.98v-18.51c0-.81.49-1.22 1.47-1.22h16.98c.98 0 1.48.41 1.48 1.22v7.75c0 .93-.42 1.41-1.27 1.41h-10.63v4.82h11.11c2.02 0 3.4-.45 4.36-1.42 1.02-1.03 1.41-2.21 1.41-4.2v-8.82c0-1.94-.47-3.28-1.48-4.2-1.07-.98-2.3-1.37-4.37-1.37h-18.24c-2.06 0-3.29.39-4.37 1.37-.99.9-1.45 2.21-1.47 4.08-.01.01-.01.03-.01.04v54.13h5.02v-30.6h19.59c.66 0 1.08.62.83 1.41-1.05 3.33-3.4 7.6-6.13 11.87-2.26-3.56-4.31-7.22-5.7-10.52H372c1.24 2.93 3.88 8.79 8.16 15.38-3.89 5.58-7.82 10.51-9.49 12.45h6.24c2.38-2.84 4.47-5.52 6.3-8.02 1.97 2.68 4.19 5.4 6.68 8.02h6.41c-1.42-1.53-5.6-6.63-9.8-12.68zm-233.71 20.65l-9.46 20.92h4.16l2.85-6.23h7.86l2.76 6.23h4.14l-9.29-20.92h-3.02zm-.89 11.32l.07-.15c.83-1.84 1.54-3.38 2.24-4.95l.1-.22 2.39 5.31h-4.8zm212.36-11.32l-9.46 20.92h4.16l2.85-6.23h7.86l2.77 6.23h4.13l-9.28-20.92h-3.03zm-.91 11.32l.07-.15c.75-1.65 1.5-3.3 2.24-4.95l.1-.22 2.38 5.31h-4.79zm21.11 4.73v-15.96h-3.89v15.96c0 5.13 4.79 5.13 6.37 5.13h7.99v-3.36h-7.99c-2.09 0-2.48-.62-2.48-1.77zm-117.74-15.19c0 1.09-.01 2.19-.01 3.29l-.03 10.46-11.18-14.58h-3.2v20.9h3.92v-.73c0-2.26 0-4.52-.01-6.8l-.01-2.26c0-1.3-.01-2.59-.01-3.88v-.31L267 184.58h3.6v-20.81h-3.88v.76zm-73.63 3.04h6.98v17.05h3.88v-17.05h7.14v-3.35H193.1v3.35zm-9.17-3.04c0 2.34-.01 4.88-.03 7.96 0 1.79-.01 3.57-.01 5.37v.31l-11.18-14.48h-3.2v20.9h3.93l-.03-11.47c0-.73-.01-1.46-.01-2.19v-.31l.2.25 10.63 13.73h3.6v-20.81h-3.88v.74zm42.1 5.53c-.01-.94.27-1.69.81-2.18.49-.44 1.19-.66 2.04-.66h7.98v-3.35h-7.98c-2 0-3.69.56-4.89 1.63-1.23 1.11-1.87 2.68-1.84 4.56v14.53h3.87v-8.71h11.05v-3.35h-11.05v-2.47zm16.43 14.53h3.89v-20.56h-3.89v20.56zm-6.25-42.16h-5.1c.16 1.23.47 3.52.88 5.94-1.6.25-3.48.41-5.27.5v-13.16h4.1c2.06 0 3.29-.38 4.37-1.37 1.01-.93 1.48-2.26 1.48-4.2v-22.31c0-1.93-.47-3.26-1.48-4.2-1.08-.98-2.3-1.37-4.37-1.37h-4.1v-6.2h-5.01v6.2h-4.09c-2.06 0-3.29.38-4.37 1.37-1 .93-1.48 2.26-1.48 4.2v22.31c0 1.94.48 3.27 1.48 4.2 1.08.98 2.3 1.37 4.37 1.37h4.09V149h-11.11v4.83h11.26c2.77 0 7.69 0 11.07-.61.21.93.44 1.79.67 2.49h5.17c-1.18-3.5-2.21-10.68-2.56-13.28zm-9.49-35.34h3.46c.97 0 1.46.41 1.46 1.21v21.39c0 .8-.49 1.22-1.46 1.22h-3.46v-23.82zm-5.01 23.82h-3.46c-.97 0-1.47-.42-1.47-1.22V108.3c0-.8.49-1.21 1.47-1.21h3.46v23.82z" class="st0"/></g></svg>