<svg xmlns="http://www.w3.org/2000/svg" role="img" viewBox="-18.40 -18.40 956.80 403.30"><title>Antchain (member) logo</title><style>svg {enable-background:new 0 0 920.5 366.9}</style><style>.st1{fill:#21b6f9}.st3{fill:#3e3a39}.st5{fill:#fffeff}</style><path fill="#217af8" d="M319.6 283.8c-8.4-7.1-18.5-11.3-29.5-11.8-.1-59.2 0-118.4 0-177.5 9.9-1.4 19.1-5.1 26.7-11.7 4.2-3.9 7.9-8.3 10.4-13.5 4.8-9.3 6.9-19.9 4.9-30.3-1.6-8.9-5.8-17.2-11.8-23.9-7.7-8-17.6-13.5-28.7-14.8-7.1-.3-13.9-.6-20.8 1.8-10.8 3.4-20.4 10.8-26.2 20.6-2.7 4.7-4.7 9.7-6.1 14.9-1.1 7.2-1.3 15.2 1 22.3.8 2.6 1.5 5.2 2 7.9-4.4 2.2-8.7 4.7-12.9 7.2-43.4 25-86.7 50-130.1 75-3.4 2.1-6.7 4.2-10.3 5.9-5.7-9.1-14.3-15.7-24.2-19.8-4.8-1.9-10.4-2.5-15.5-2.8-10.2.3-20.8 3.1-29 9.4-16.6 11.8-23.9 34.7-16.8 53.8 6.2 18.2 23.7 31 42.8 31.8 14.4.7 29-5.5 38.2-16.6 6.1 2.7 11.7 6.6 17.7 10 47.3 27.2 94.6 54.6 141.9 81.8-2.6 8.4-3.7 17.1-1.6 25.7 1 6.1 3.6 11.6 6.9 16.7 10 15.1 29 23.5 46.8 20.4 10.2-1.5 19.6-6.5 26.8-13.7 7.9-8.2 12.7-19.4 13.4-30.8.5-9.1-2.1-17.6-5.9-25.7-2.7-4.5-6.1-8.8-10.1-12.3zM67.3 205.6c-5.7 4.5-12.5 7.1-19.8 6.8-8.6.4-16.4-3.4-22.5-9.2-8.5-8.6-11.6-21.9-7.1-33.3 3.1-9.3 11-16.4 20.2-19.3 13.8-4.3 29.5 1.3 36.8 13.9 8.1 13.1 4.8 31.9-7.6 41.1zM261.1 26.3c4.5-4.7 10.4-8.6 16.8-10 14.5-3.6 30.3 4.2 36.2 17.9 6.3 13.3 1.8 30.6-10.5 38.8-5.8 4.2-12 6-19.1 5.6-13.8.5-26.3-9.7-29.9-22.8-3-10.2-.2-21.5 6.5-29.5zM150.6 249.1c.3.2.4.3.4.3s-.1-.1-.4-.3zm100.5 40.5c-4.9-2.5-9.6-5.4-14.4-8.1-46.9-27-93.8-54.1-140.8-81.2-1.1-.8-2.7-1.5-3.3-2.7.4-4.7 2.5-9.1 2.5-13.9.5-4.5-.9-9.1-.2-13.5 2.7-2.1 5.8-3.5 8.7-5.2 48.2-27.8 96.5-55.6 144.7-83.5.8-.5 1.6-.9 2.3-1.3 3.8 3.1 7.4 6.3 11.7 8.6 3.7 2.1 7.8 3.3 11.8 4.6 2.5 1.6 1.3 5.8 1.6 8.3-.1 52.3 0 104.7-.1 157 0 4.9.2 10-.2 14.9l-1.4.5c-8.8 2.8-17 8.3-22.9 15.5zm57.4 54.2c-10.3 9-26.8 9.8-38 2-12-7.7-17.3-23.7-12.1-37 2.9-9.1 10.8-16.2 19.6-19.4 5.2-1.7 11.2-1.6 16.6-1 9.5 1.9 18 8.3 22.1 17.2 6.5 12.6 2.9 29.4-8.2 38.2z"/><path d="M92.8 86.1c7.3-9.3 16.3-17 26-23.8 20.5-14.8 44.6-23.9 69.7-27.1 10.3-.5 20.7-.3 31-.2 6.5 0 12.4 1.7 18.9 2.5 1.5-5.2 3.5-10.2 6.1-14.9-8.2-.9-16.8-3.3-25.1-3.5-9-.2-18-.2-27 0-25.7 2-50.8 10.3-72.8 23.7-7.8 5-15.6 10.3-22.6 16.4-6.1 5.9-12.3 11.8-17.7 18.4-13.9 16.2-24.5 35.2-31 55.5 5.2.4 10.7.9 15.5 2.8 6.6-18.2 16.2-35.2 29-49.8z" class="st1"/><path fill="#20b6f9" d="M352.3 104.8c-5.5-10-12.2-19.5-19.8-28.1-2-2.4-4.4-4.4-5.4-7.5-2.5 5.2-6.2 9.7-10.4 13.5 7.2 7.5 13.5 15.9 19 24.8 10.7 18.4 18 39.2 20.2 60.4 2.5 20 .5 40.7-5.2 59.9-6.3 20.4-16.6 40.2-31.1 56 4 3.5 7.4 7.8 10.2 12.2 16.5-17.5 28-38.8 35.4-61.6 4.4-14.1 7.2-29 7.2-43.8 0-7 .1-14-.4-21-1.8-22.8-9-44.5-19.7-64.8z"/><path d="M502.3 230c-2.1-12.6-4.7-25.1-7.1-37.7H479c.8 5 1.9 10 2.7 15-5.6.9-11.1.8-16.8 1 0-10-.1-19.9.1-29.9 6.3-.4 15.1 1.4 20.2-3 4.1-3.1 5.1-7.8 5.2-12.6v-55c0-3.6-.1-6.9-1.6-10.2-2-3.8-5.8-6.7-10.1-7.2-4.5-.5-9.1-.2-13.6-.2-.1-5.3-.1-10.6-.1-15.9-5.3.1-10.7-.2-16.1.1-.3 5.3.1 10.6-.3 15.9-6 .2-14.1-1.1-19.3 2.4-4.5 2.9-5.9 8.1-5.9 13.2v56c0 3.2.2 6.6 1.7 9.5 1.7 3.4 5.1 5.8 8.8 6.8 4.8.7 9.7.4 14.5.4.7 5.5.4 10.9.4 16.4 0 5.1.3 10.1-.6 15.2-9.3.1-18.6.1-27.9 1.3.1 5 .1 10.1.1 15.2 6.4-.2 12.8-.3 19.2-1 6.7-.2 13.3-.5 20-1.1 8.5 0 16.8-1.2 25.3-1.2.4 2.3.9 4.6 1.4 6.9 5.2-.3 10.6-.3 16-.3zm-62.5-66.9c-.6-13.8-.1-27.6-.3-41.3 0-5.5-.2-10.9.3-16.3 2.9 0 5.9-.1 8.8-.1v57.8c-2.9-.1-5.9-.1-8.8-.1zm25.3-57.6c3-.4 6-.1 9 .4v56.8c-3 .5-6.1.5-9.2.5-.1-17.5 0-35-.1-52.4 0-1.8 0-3.6.3-5.3zm257.1 75.6c-.8-1.6-2.2-2.8-.9-4.5 5.8-9.6 11.2-19.2 15.3-29.6 8.2-21.5 13.2-44.6 13.5-67.7h-16.3c-.7 21.2-5 42.2-12.7 62-3 7.5-6.8 14.3-10.7 21.3-3.8-6.8-7.6-13.8-10.6-21-7.7-19.9-12.2-41-12.8-62.3h-16.4c.4 23.6 5.6 47.3 14.2 69.2 4.3 10.2 9.7 20.1 15.6 29.4-7.8 12.6-16.2 24.9-24.2 37.4-3 4.8-6.5 9.3-8.9 14.3-2.1-12.5-4.5-25-7.1-37.4-5.1.1-10.1.1-15.2.1.9 5.3 2 10.5 2.9 15.7l-6.6.3c.2-10-.5-20.1.4-30 6.2-.2 14.6 1.4 19.7-2.8 4.2-3.1 5.2-7.9 5.3-12.8v-56c0-3.5-.3-6.9-2.1-10-2.2-4-6.7-6.3-11.1-6.5-4.1-.2-8.2-.1-12.3-.2V74.1c-5.4.1-10.7-.2-16.1.1-.3 5.3 0 10.6-.2 15.8-5.8.2-13.2-1-18.4 1.8-4.7 2.7-6.9 7.5-7 12.8-.1 18.3 0 36.7-.1 55 0 3.6 0 7.2 1.3 10.6 1.5 3.7 5 6.5 8.8 7.5 5 .8 10.2.5 15.3.5.2 10.2 0 20.5.1 30.8-9.4 1.2-18.7 1.1-28.1 1.4-.4 5.3-.2 10.5-.3 15.8 5.6-.2 11.2-.2 16.7-.8 5.4-.6 10.8-.3 16.2-.8 7.1-.8 14.3-.8 21.4-.9.3 1.9.7 3.9 1 5.8 10.5.5 21.1.1 31.7.2 1.9.2 2.5-1.3 3.5-2.6 7.7-11.5 15.5-22.9 23.2-34.4 7.6 11.4 15.3 22.6 22.9 34 .8.9 1.6 2.7 2.9 2.9 5.8.4 11.7 0 17.6.1-1.7-3.4-3.8-6.5-5.8-9.6-8.5-12.8-17-26-25.6-39zm-81-75.8c3 0 5.9 0 8.9.1.7 6.7.2 13.6.3 20.3-.2 12.4.3 24.9-.3 37.4h-8.9v-57.8zM625 163.1c-3 0-6 0-9-.1-.5-16.1 0-32.2-.2-48.3 0-3-.3-6.2.5-9.1 2.9-.4 5.8-.2 8.7-.3.1 19.3 0 38.6 0 57.8z" class="st3"/><path d="M721.1 115.2l-5.7-41.1c-5.5.1-11.1-.2-16.6.1 1.6 13.7 3.8 27.3 5.6 41h16.7zM576 220.3c.7-2.5.8-5 .9-7.6v-58c-.1-4-.6-7.8-3.3-11-1.7-2-3.9-2.9-6.2-4 .4-16.3 1.2-32.6 1.6-49 .1-4.8-1-9.4-4.8-12.7-3.1-2.9-6.7-3-10.6-3.6-20.3-.2-40.6 0-60.9-.1-.3 5.3-.2 10.5-.2 15.8h60c.2 2.2.3 4.3.2 6.5-.6 14.1-1 28.2-1.6 42.3h-22.5c-5 0-10 .3-15-.4 1-13.5 2.6-27 3.9-40.5-5.4 0-10.8 0-16.2.1-1.2 13.5-2.6 27.1-4 40.6-1 8.2 6 15.7 14.3 15.5 16.2.2 32.5 0 48.7.1 1 6.6.4 13.4.5 20-21-.1-42.1 0-63.1 0 .9 5.3 2.1 10.5 3.1 15.8h60.1c-.2 8 .4 16.1-.4 24.1-17.7-.1-35.4 0-53.1 0 1.2 5.4 2 10.7 3.6 15.9 14.9-.2 29.8 0 44.7-.1 3.3 0 6.7-.4 10-.8 4.6-.6 8.9-4.3 10.3-8.9zm205-105.1c.7-3.4 1.3-6.8 2-10.2h30.3c.1-5.2.1-10.5 0-15.7h-27.2c.9-4.8 1.9-9.5 2.8-14.3h-16.4c-2.6 13.4-5.2 26.8-7.7 40.2H781zm59.3-7.2c-1.9-11-4.2-22-6.2-33h-16.4l6.3 33h16.3zm6.4 82.1c6.3-1 12.4-.5 18.8-.6 4.1-.1 8.1.2 12.1.6v19h16.1c0-6.5-.1-13.1.2-19.6 7.7-.2 15.4.6 23.1.5.2-5.2.1-10.5.1-15.7h-23.4c0-6.6-.1-13.2.1-19.9 7.8.1 15.5 0 23.3 0v-15.2h-23.4v-24h-16.1c-.1 8 0 16 0 24.1h-10.9c2.2-11.4 4.5-22.8 6.7-34.3h43.7c.1-5.2.1-10.5 0-15.7h-40.6c.9-4.8 1.8-9.5 2.8-14.3h-16.4c-.9 4.8-1.9 9.5-2.8 14.3h-13.8c0 4.5-.2 9 0 13.5 0 .8.2 1.5.7 2 3.3.2 6.6.1 9.9 0-3.1 16.5-6.4 33-9.6 49.5h30c.6 6.6.2 13.2.3 19.9h-31.3c0 5.5-.4 10.6.4 15.9z" class="st3"/><path fill="#3a77d1" d="M274.2 274.1l1.4-.5c.4-4.9.2-10 .2-14.9 0-52.3-.1-104.7.1-157-.2-2.5.9-6.8-1.6-8.3-.2 60.2 0 120.5-.1 180.7z"/><path d="M464.9 163.2c3.1 0 6.1 0 9.2-.5v-56.8c-3-.5-6-.8-9-.4-.2 1.7-.2 3.5-.2 5.3 0 17.4-.1 34.9 0 52.4zm151.3-57.6c-.8 2.9-.4 6.1-.5 9.1.2 16.1-.3 32.3.2 48.3 3 .1 6 .1 9 .1 0-19.3.1-38.5 0-57.8-2.8.1-5.8-.1-8.7.3zm34.2 20.1c-.1-6.8.3-13.6-.3-20.3-2.9-.1-5.9-.1-8.9-.1v57.8h8.9c.7-12.4.2-24.9.3-37.4z" class="st5"/><path d="M797 175.5h15.6c0-5.1 0-10.1-.1-15.2h-15.6v-25h14.7v-15.2c-13.9.1-27.9-.2-41.8.1-.3 5 0 10.1-.1 15.1h11v25h-11c-.1 5.1-.1 10.1 0 15.2 3.5 0 7 0 10.6-.1.3 2.1.5 4.2.5 6.4-.1 11 0 22-.1 33-.4 7 5.5 14.3 12.7 14.5 6.7.3 13.4 0 20.1.1v-15.2c-5.5 0-11 0-16.5-.1-.2-12.8-.1-25.7 0-38.6zm44.1 38.6c-.3-31.3 0-62.7-.1-94-8 .1-16-.2-24 .1-.3 5 0 10.1-.1 15.1h7.9c.1 26.8 0 53.7 0 80.4 0 5.2 3.4 10.2 8.1 12.4 2.4 1.2 4.9 1.1 7.5 1.2h80.1v-15.2c-26.4.1-52.9.2-79.4 0z" class="st3"/><path fill="none" stroke="#526ead" stroke-linecap="round" stroke-linejoin="round" stroke-width="0" d="M150.6 249.1c.3.2.4.3.4.3"/><path fill="#227af7" d="M116.8 293.1c3.9-4.1 5-10.2 2.8-15.4-1.2-3.5-3.8-5.3-6.5-7.5 1-3.9 1.8-7.9 2.8-11.8-.4-.8-.9-1.5-1.3-2.2-1.1 0-2.2.1-3.3.2-1.3 4.2-2.1 8.5-3.2 12.7-2.1.1-4.1.1-6.2.2-2-3.6-3.7-7.6-6-11-1.2-1.8-2.6-.2-4.2 0 .9 4.8 3.8 8.7 5.7 13.3-2.5 3.5-5 6.6-5.2 11.1-.2 3.7 1.6 6.7 3.2 9.9-1.8 2.1-3.2 4.2-4.5 6.6-4.9-2.9-9.8-2.3-15.3-2.3-6.9 0-14 2.9-18.9 7.9-3.3 3.6-4.8 9-1.2 13 5.9 6.9 17.3 7.4 25.5 5.4.9 3.3 1.7 6.7 2.5 10.1 1.2 0 2.4.1 3.6 0 1.4-1.5.7-2.8.5-4.5-.4-2.4-1-4.7-1.5-7 2.7-1.5 5.9-3.1 8.1-5.5 1.6-1.7 2.5-4.2 3.4-6.3 1.9.1 3.9 0 5.8.3 4.8 2.4 8.6 8.2 14.1 8.2-.1-1.4.1-2.9-.3-4.2-2.6-2.8-6.9-4.4-9.1-7.5.8-3.1 1.5-6 1.4-9.3 2.6-1.1 5.2-2.1 7.3-4.4z"/><path d="M439.1 262.5c-6.9 18.2-13.4 36.6-20.1 54.9h11.1c1-3.1 2.1-6.3 3.2-9.4H453c1 3.1 2.1 6.3 3.1 9.4h11.2c-6.8-18.3-13.2-36.8-20.2-55-2.7.1-5.4.1-8 .1zm-2.6 36.6c2.1-6.9 4.6-13.6 6.9-20.4 2.2 6.8 4.6 13.5 6.7 20.3-4.6.1-9.1.1-13.6.1zm98.3-34.5c.1-.9-.2-1.5-1-2-3.1-.3-6.2-.2-9.3-.2-1 11.3-.1 22.8-.5 34.1-7.3-11.4-14.5-22.9-22.1-34-3 .1-6 .1-9.1 0-.3 18.3-.1 36.6-.1 55h10.7c0-11.2-.1-22.4.1-33.6 7 11.3 14.5 22.3 21.5 33.6 3.2 0 6.5 0 9.7-.1 0-17.6.2-35.3.1-52.8zm27.4-2.1c-.1 3.2-.1 6.4-.1 9.7h14.3v45.2h10.7v-45.2h14.4c0-3.2-.1-6.5-.3-9.7-12.9 0-26-.1-39 0zm93.1 38.5c-1.6 3.1-2.7 5.9-6.2 7.1-3.1.5-6.9.8-9.3-1.5-2.4-2-3.1-4.8-3.3-7.8-.4-6-.5-12.1.1-18.1.3-3.6 1.9-7.1 5.5-8.4 2.4-.5 5.4-.6 7.8.1 2.9 1.4 4.1 4.2 5.5 7h10.8c-1.4-5.9-4.4-11.2-9.6-14.4-8.4-4.4-19.5-3.5-26 3.8-5.4 5.3-4.7 14-5 21 .3 6.8-.4 16.1 4.7 21.4 6.6 7.7 18.3 8.7 26.9 3.8 4.9-3.3 7.7-8.3 9.2-13.9-3.9-.1-7.5-.1-11.1-.1zm78-38.6c-2.9.4-7.8-.8-10.1 1-.3 7.3 0 14.5-.1 21.8h-18.6c-.1-7.6.2-15.2-.2-22.7h-10.4c-.3 18.3 0 36.6-.1 55h10.7c.1-7.7-.1-15.4.2-23h18.4c.2 7.7.1 15.3.1 23 3.5 0 7.1 0 10.6.1.2-15.9 0-31.8.1-47.7 0-2.6-.2-5.1-.6-7.5zm53.9 0c-2.7.1-5.3.1-8 .1-6.7 18.3-13.4 36.6-20 54.9h11.1c1-3.1 2.1-6.2 3.2-9.4h19.7c1 3.1 2.1 6.3 3.1 9.4h11.1c-5-13.6-9.9-27.2-14.9-40.8-1.7-4.8-3.2-9.6-5.3-14.2zM776.7 299c2.2-6.8 4.6-13.5 6.9-20.3 2.2 6.8 4.6 13.5 6.7 20.3-4.5.1-9.1.1-13.6 0zm56.4-36.5c-.2 18.3 0 36.6-.1 54.9h10.7v-42.7c.1-4.1.1-8.2-.4-12.4-3.4.2-6.8.2-10.2.2zm83.9-.1h-10.3c-.6 11.3-.1 22.7-.3 34-6.4-10.4-13.3-20.5-19.8-30.8-.8-1-1.5-2.7-2.7-3-2.9-.3-5.8-.1-8.7-.1-.2 18.3 0 36.6-.1 54.9h10.7c0-11.2-.1-22.4 0-33.6 7.1 11.3 14.5 22.4 21.7 33.7h9.6c0-18.4.2-36.7-.1-55.1z" class="st3"/><path d="M436.5 299.1h13.6c-2.1-6.8-4.5-13.5-6.7-20.3-2.3 6.7-4.8 13.4-6.9 20.3z" class="st5"/><path fill="#fffefe" d="M776.7 299h13.6c-2.1-6.8-4.5-13.5-6.7-20.3-2.3 6.8-4.8 13.5-6.9 20.3z"/><path d="M241.1 331.9c-6.3.5-12.4 2-18.7 2.6-6 .9-11.9.8-17.9.8-14.9.3-30-2.7-44.2-7-4.2-1.2-8.1-3.6-12.3-.9-4.3 2.5-4.8 8.7-1.2 12.1 2.3 1.9 5.5 2.9 8.3 3.8 17.1 5 34.5 8.2 52.4 7.9 14 .2 27.5-2.4 41.2-5.2-3.3-5.2-5.9-10.6-6.9-16.7-.3.8-.5 1.7-.7 2.6z" class="st1"/></svg>