<svg xmlns="http://www.w3.org/2000/svg" role="img" viewBox="-5.36 -5.36 278.46 157.46"><title>Chamber of Digital Commerce logo</title><path d="M35 52h1v1h-1zm0 1h1v1h-1zm4 1h1v1h-1zm-4 48h1v2h-1zm0 2h1v1h-1zm62 3h1v1h-1zm-9 1h1v1h-1zm-42 2h1v1h-1z" fill="#40c4df"/><path d="M25 69h1v1h-1zm-2 29h1v1h-1z" fill="#0078c3"/><path fill="#0078bf" d="M78 117h1v1h-1z"/><path fill="#05f" d="M50 122h1v1h-1z"/><path d="M22 55h1v1h-1zm2 1h1v1h-1z" fill="#07c"/><path d="M23 84h1v1h-1zm0 30h1v1h-1zm82 5h1v1h-1zm-13 2h1v1h-1z" fill="#0079c2"/><g fill="#fff"><path d="M57 0h1v1h-1zm1 0h1v1h-1zm1 0h1v1h-1zm1 0h1v1h-1zm1 0h3v1h-3zm3 0h1v1h-1zm1 0h1v1h-1zm1 0h1v1h-1zm1 0h1v1h-1zm10 0h1v1h-1zm1 0h1v1h-1zm1 0h1v1h-1zm11 0h1v1h-1zm1 0h1v1h-1zm1 0h1v1h-1zm15 0h1v1h-1zm1 0h1v1h-1zm1 0h1v1h-1zm1 0h1v1h-1zm14 0h1v1h-1zm1 0h2v1h-2zm2 0h1v1h-1zm1 0h1v1h-1zm13 0h1v1h-1zm1 0h2v1h-2zm2 0h1v1h-1zm1 0h1v1h-1zm9 0h1v1h-1zm1 0h9v1h-9zm9 0h1v1h-1zm1 0h1v1h-1zm1 0h1v1h-1zm10 0h1v1h-1zm1 0h10v1h-10zm10 0h1v1h-1zm1 0h1v1h-1zm9 0h1v1h-1zm1 0h9v1h-9zm9 0h1v1h-1zm1 0h1v1h-1zm1 0h1v1h-1zm25 0h1v1h-1zm1 0h1v1h-1zm1 0h1v1h-1zm1 0h1v1h-1zm1 0h3v1h-3zm3 0h1v1h-1zm1 0h1v1h-1zm1 0h1v1h-1zm1 0h1v1h-1zm1 0h1v1h-1zm10 0h1v1h-1zm1 0h10v1h-10zm10 0h1v1h-1zm1 0h1v1h-1zM55 1h1v1h-1zm1 0h1v1h-1zm1 0h2v1h-2zm2 0h1v1h-1zm1 0h1v1h-1zm1 0h3v1h-3zm3 0h1v1h-1zm1 0h2v1h-2zm2 0h1v1h-1zm1 0h1v1h-1zm9 0h1v17h-1zm1 0h1v17h-1zm1 0h1v17h-1zm11 0h1v6h-1zm1 0h1v17h-1zm1 0h1v17h-1zm14 0h1v1h-1zm1 0h2v1h-2zm2 0h1v1h-1zm1 0h1v1h-1zm14 0h1v17h-1zm1 0h3v1h-3zm3 0h1v2h-1zm1 0h1v1h-1zm12 0h1v1h-1zm1 0h2v1h-2zm2 0h1v17h-1zm1 0h1v17h-1zm9 0h1v17h-1zm1 0h11v1h-11zm11 0h1v1h-1zm1 0h1v1h-1zm9 0h1v17h-1zm1 0h10v1h-10zm10 0h1v1h-1zm1 0h1v1h-1zm9 0h1v17h-1zm1 0h11v1h-11zm11 0h1v1h-1zm1 0h1v1h-1zm23 0h1v1h-1zm1 0h2v1h-2zm2 0h1v1h-1zm1 0h1v1h-1zm1 0h3v1h-3zm3 0h1v1h-1zm1 0h2v1h-2zm2 0h1v1h-1zm1 0h1v1h-1zm1 0h1v1h-1zm9 0h1v17h-1zm1 0h10v1h-10zm10 0h1v1h-1zm1 0h1v1h-1zM55 2h1v1h-1zm1 0h1v14h-1zm1 0h1v1h-1zm1 0h1v1h-1zm8 0h1v1h-1zm1 0h1v1h-1zm1 0h1v3h-1zm1 0h1v1h-1zm37 0h1v1h-1zm1 0h1v1h-1zm1 0h1v1h-1zm1 0h1v1h-1zm1 0h1v2h-1zm1 0h1v1h-1zm14 0h1v16h-1zm1 0h2v1h-2zm3 0h1v1h-1zm11 0h1v1h-1zm1 0h1v2h-1zm1 0h1v1h-1zm1 0h1v16h-1zm12 0h1v16h-1zm1 0h1v5h-1zm8 0h1v1h-1zm1 0h1v1h-1zm1 0h1v1h-1zm1 0h1v4h-1zm1 0h1v1h-1zm9 0h1v16h-1zm1 0h1v16h-1zm20 0h1v16h-1zm1 0h1v6h-1zm8 0h1v1h-1zm1 0h1v1h-1zm1 0h1v1h-1zm1 0h1v6h-1zm1 0h1v1h-1zm21 0h1v1h-1zm1 0h1v3h-1zm1 0h1v1h-1zm1 0h1v1h-1zm8 0h1v1h-1zm1 0h1v1h-1zm1 0h1v1h-1zm1 0h1v1h-1zm10 0h1v16h-1zm1 0h1v16h-1zM55 3h1v11h-1zm2 0h1v1h-1zm10 0h1v1h-1zm2 0h1v1h-1zm37 0h1v1h-1zm1 0h1v1h-1zm1 0h1v1h-1z"/><path d="M109 3h2v1h-2zm2 0h1v1h-1zm15 0h2v1h-2zm2 0h1v1h-1zm1 0h1v1h-1zm11 0h1v1h-1zm2 0h1v1h-1zm24 0h1v1h-1zm2 0h1v1h-1zm41 0h1v1h-1zm2 0h1v1h-1zm21 0h1v1h-1zm2 0h1v1h-1zm11 0h1v1h-1zm1 0h1v12h-1zm1 0h1v1h-1zM54 4h1v8h-1zm13 0h2v1h-2zm2 0h1v1h-1zm36 0h1v1h-1zm1 0h1v2h-1zm1 0h1v1h-1zm2 0h1v1h-1zm1 0h1v1h-1zm1 0h1v1h-1zm15 0h1v14h-1zm2 0h1v1h-1zm1 0h1v2h-1zm1 0h1v1h-1zm9 0h1v1h-1zm1 0h1v2h-1zm1 0h1v1h-1zm1 0h1v1h-1zm24 0h2v1h-2zm2 0h1v1h-1zm41 0h2v1h-2zm2 0h1v2h-1zm21 0h1v9h-1zm2 0h1v1h-1zm11 0h1v1h-1zm2 0h1v1h-1zM67 5h2v1h-2zm2 0h1v1h-1z"/><path d="M105 5h2v1h-2zm2 0h1v1h-1zm3 0h1v1h-1zm1 0h1v2h-1zm1 0h1v1h-1zm16 0h1v1h-1zm2 0h1v1h-1zm9 0h1v1h-1zm2 0h2v1h-2zm25 0h1v1h-1zm2 0h1v1h-1zm41 0h2v1h-2zm22 0h1v1h-1zm2 0h1v1h-1zm12 0h1v6h-1zm2 0h1v1h-1zM105 6h1v1h-1zm1 0h1v1h-1zm1 0h1v1h-1zm3 0h1v1h-1zm2 0h1v1h-1zm16 0h1v1h-1zm1 0h1v1h-1zm1 0h1v2h-1zm1 0h1v1h-1zm8 0h1v1h-1zm1 0h1v1h-1zm1 0h1v1h-1zm25 0h1v1h-1zm1 0h1v1h-1zm1 0h1v1h-1zm41 0h2v1h-2zm2 0h1v1h-1zm20 0h1v5h-1zm2 0h1v1h-1zm14 0h1v1h-1zM90 7h1v1h-1zm14 0h1v1h-1zm1 0h1v2h-1zm1 0h1v1h-1zm4 0h1v1h-1zm1 0h1v1h-1zm1 0h1v2h-1zm1 0h1v1h-1zm16 0h1v1h-1zm2 0h1v1h-1zm7 0h1v1h-1zm1 0h1v2h-1zm1 0h1v1h-1zm16 0h1v1h-1zm9 0h1v1h-1zm1 0h1v1h-1zm1 0h1v1h-1zm42 0h1v1h-1zm2 0h1v1h-1zm22 0h1v4h-1zm14 0h1v4h-1zM80 8h9v1h-9zm9 0h1v1h-1zm1 0h1v1h-1zm14 0h1v1h-1zm2 0h1v1h-1zm5 0h1v1h-1zm2 0h1v1h-1zm16 0h1v1h-1zm1 0h1v1h-1zm1 0h1v1h-1zm7 0h1v1h-1zm2 0h1v1h-1zm16 0h1v1h-1zm1 0h5v1h-5zm5 0h1v1h-1zm1 0h1v1h-1zm1 0h1v1h-1zm1 0h1v1h-1zm1 0h1v1h-1zm1 0h1v1h-1zm12 0h8v1h-8zm8 0h1v1h-1zm1 0h1v1h-1zm11 0h1v1h-1zm9 0h1v1h-1zm1 0h1v1h-1zm1 0h1v1h-1zm1 0h1v1h-1zm47 0h8v1h-8zm8 0h1v1h-1zM80 9h12v1H80zm23 0h1v1h-1zm1 0h1v3h-1zm1 0h1v1h-1zm1 0h1v1h-1zm5 0h1v1h-1zm1 0h1v1h-1zm1 0h1v1h-1zm17 0h1v1h-1zm1 0h1v1h-1zm1 0h1v1h-1zm5 0h1v1h-1zm1 0h1v2h-1zm1 0h1v1h-1zm1 0h1v1h-1zm16 0h9v1h-9zm9 0h1v1h-1zm1 0h1v1h-1zm1 0h1v1h-1zm12 0h8v1h-8zm8 0h1v1h-1zm1 0h1v1h-1zm11 0h1v1h-1zm1 0h6v1h-6zm6 0h1v1h-1zm1 0h1v1h-1zm1 0h1v1h-1zm1 0h1v4h-1zm1 0h1v1h-1zm48 0h8v1h-8zm8 0h1v1h-1zM80 10h9v1h-9zm9 0h1v1h-1zm1 0h1v1h-1zm13 0h1v1h-1zm2 0h1v1h-1zm6 0h1v1h-1zm1 0h1v1h-1zm1 0h1v4h-1zm1 0h1v1h-1zm16 0h1v1h-1zm1 0h1v1h-1zm1 0h1v1h-1zm5 0h1v1h-1zm2 0h1v1h-1zm17 0h1v1h-1zm1 0h7v1h-7zm7 0h1v1h-1zm1 0h1v1h-1zm1 0h1v1h-1zm1 0h1v1h-1zm1 0h1v1h-1zm11 0h8v1h-8zm8 0h1v1h-1zm1 0h1v1h-1zm11 0h8v1h-8zm8 0h1v1h-1zm1 0h1v1h-1zm50 0h8v1h-8zm8 0h1v1h-1zM90 11h1v7h-1zm13 0h1v1h-1zm2 0h1v1h-1zm7 0h1v1h-1zm2 0h1v1h-1zm16 0h1v1h-1zm1 0h1v1h-1zm1 0h1v2h-1zm1 0h1v1h-1zm4 0h1v1h-1zm1 0h1v1h-1zm1 0h1v1h-1zm17 0h1v5h-1zm10 0h1v1h-1zm1 0h1v5h-1zm1 0h1v1h-1zm31 0h1v1h-1zm1 0h5v1h-5zm5 0h1v1h-1zm1 0h1v1h-1zm1 0h1v1h-1zm1 0h1v1h-1zm2 0h1v1h-1zm21 0h1v1h-1zm2 0h1v1h-1zm12 0h1v1h-1zm2 0h1v1h-1zM54 12h1v1h-1zm13 0h1v1h-1zm1 0h1v1h-1zm1 0h1v1h-1zm33 0h1v1h-1zm1 0h1v2h-1zm1 0h1v2h-1zm1 0h1v1h-1zm7 0h1v1h-1zm2 0h1v1h-1z"/><path d="M131 12h2v1h-2zm2 0h1v1h-1zm3 0h1v1h-1zm1 0h1v1h-1zm1 0h1v1h-1zm28 0h1v1h-1zm2 0h1v1h-1zm31 0h1v6h-1zm9 0h1v1h-1zm2 0h1v1h-1zm1 0h1v1h-1zm20 0h1v1h-1zm2 0h1v1h-1zm12 0h1v1h-1zm2 0h1v1h-1zM54 13h1v1h-1zm3 0h1v1h-1zm10 0h1v1h-1zm1 0h1v3h-1zm1 0h1v1h-1zm33 0h1v1h-1zm3 0h7v1h-7zm7 0h1v1h-1zm2 0h1v2h-1zm1 0h1v1h-1zm16 0h1v1h-1zm1 0h1v1h-1zm1 0h1v1h-1zm1 0h1v1h-1zm2 0h1v1h-1zm1 0h1v1h-1zm1 0h1v1h-1zm30 0h1v1h-1zm41 0h1v1h-1zm1 0h1v5h-1zm1 0h1v5h-1zm21 0h1v1h-1zm1 0h1v3h-1zm12 0h2v1h-2zm2 0h1v1h-1zM55 14h1v1h-1zm2 0h1v1h-1zm10 0h1v1h-1zm2 0h1v1h-1zm33 0h1v1h-1zm1 0h11v1h-11zm12 0h1v1h-1zm17 0h1v1h-1zm1 0h1v1h-1zm1 0h1v1h-1zm1 0h1v1h-1zm1 0h1v2h-1zm1 0h1v1h-1zm1 0h1v1h-1zm30 0h1v1h-1zm41 0h1v4h-1zm23 0h1v1h-1zm13 0h1v1h-1zm2 0h1v1h-1zM55 15h1v1h-1zm2 0h1v1h-1zm10 0h1v1h-1zm2 0h1v1h-1zm32 0h1v1h-1zm1 0h1v2h-1zm1 0h1v1h-1zm10 0h1v1h-1zm1 0h1v1h-1zm1 0h1v3h-1zm1 0h1v1h-1zm16 0h1v1h-1zm1 0h1v1h-1zm1 0h1v1h-1zm1 0h1v1h-1zm2 0h1v1h-1zm29 0h1v1h-1zm2 0h1v1h-1zm64 0h1v1h-1zm2 0h1v1h-1zm11 0h1v1h-1zm1 0h1v1h-1zm1 0h1v1h-1zM55 16h1v1h-1zm1 0h1v1h-1zm1 0h1v1h-1zm1 0h1v1h-1zm8 0h1v1h-1zm1 0h1v1h-1zm1 0h1v1h-1zm1 0h1v1h-1z"/><path d="M101 16h2v1h-2zm2 0h1v1h-1zm11 0h1v1h-1zm2 0h1v1h-1zm17 0h1v1h-1zm1 0h2v2h-2zm2 0h1v1h-1zm1 0h1v1h-1zm19 0h1v1h-1zm9 0h1v1h-1zm1 0h1v1h-1zm1 0h1v1h-1zm1 0h1v1h-1zm64 0h1v1h-1zm1 0h1v1h-1zm1 0h1v1h-1zm1 0h1v1h-1zm9 0h1v1h-1zm1 0h1v1h-1zm1 0h1v1h-1zM55 17h1v1h-1zm1 0h1v1h-1zm1 0h1v1h-1zm1 0h1v1h-1zm1 0h1v1h-1zm1 0h4v1h-4zm4 0h1v1h-1zm1 0h1v1h-1zm1 0h1v1h-1zm1 0h1v1h-1zm1 0h1v1h-1zm1 0h1v1h-1zm32 0h1v1h-1zm1 0h1v1h-1zm1 0h1v1h-1zm11 0h1v1h-1zm2 0h1v1h-1zm17 0h1v1h-1zm3 0h1v1h-1zm20 0h1v1h-1zm1 0h4v1h-4zm4 0h1v1h-1zm1 0h1v1h-1zm1 0h3v1h-3zm3 0h1v1h-1zm1 0h1v1h-1zm1 0h1v1h-1zm11 0h8v1h-8zm8 0h1v1h-1zm1 0h1v1h-1zm44 0h1v1h-1zm1 0h1v1h-1zm1 0h1v1h-1zm1 0h1v1h-1zm1 0h1v1h-1zm1 0h4v1h-4zm4 0h1v1h-1zm1 0h1v1h-1zm1 0h2v1h-2zm2 0h1v1h-1zm1 0h1v1h-1zM56 18h1v1h-1zm1 0h1v1h-1zm1 0h1v1h-1zm1 0h1v1h-1zm1 0h5v1h-5zm5 0h1v1h-1zm1 0h1v1h-1zm1 0h1v1h-1zm1 0h1v1h-1zm9 0h1v1h-1zm1 0h1v1h-1zm1 0h1v1h-1zm11 0h1v1h-1zm1 0h1v1h-1zm1 0h1v1h-1zm8 0h1v1h-1zm1 0h1v1h-1zm1 0h1v1h-1zm12 0h1v1h-1zm1 0h1v1h-1zm1 0h1v1h-1zm1 0h1v1h-1zm7 0h1v1h-1zm1 0h1v1h-1zm1 0h1v1h-1zm7 0h1v1h-1zm1 0h1v1h-1zm1 0h1v1h-1zm1 0h1v1h-1zm7 0h1v1h-1zm1 0h1v1h-1zm1 0h1v1h-1zm9 0h1v1h-1zm1 0h8v1h-8zm8 0h1v1h-1zm1 0h1v1h-1zm1 0h1v1h-1zm1 0h1v1h-1zm1 0h1v1h-1zm9 0h1v1h-1zm1 0h10v1h-10zm10 0h1v1h-1zm1 0h1v1h-1zm9 0h1v1h-1zm1 0h1v1h-1zm1 0h1v1h-1zm10 0h1v1h-1zm1 0h1v1h-1zm1 0h1v1h-1zm22 0h1v1h-1zm1 0h1v1h-1zm1 0h1v1h-1zm1 0h1v1h-1zm1 0h5v1h-5zm5 0h1v1h-1zm1 0h1v1h-1zm1 0h1v1h-1zm1 0h1v1h-1zm10 0h1v1h-1zm1 0h1v1h-1zm1 0h1v1h-1zM0 22h1v1H0zm0 1h1v19H0zm1 0h1v1H1zm1 0h1v1H2zm-1 1h1v19H1zm1 0h1v1H2zm1 0h1v1H3zm-1 1h1v18H2zm1 0h1v1H3zm1 0h1v1H4zm-1 1h1v18H3zm1 0h1v1H4zm1 0h1v1H5zm-1 1h1v17H4zm1 0h1v1H5zm1 0h1v1H6zm1 0h1v1H7zm-2 1h1v17H5zm1 0h1v17H6zm1 0h1v1H7zm1 0h1v1H8zm-1 1h1v17H7zm1 0h1v1H8zm1 0h1v1H9zm-1 1h1v16H8zm1 0h1v1H9zm1 0h1v1h-1zm-1 1h1v16H9zm1 0h1v1h-1zm1 0h1v1h-1zm-1 1h1v15h-1zm1 0h1v16h-1zm1 0h1v1h-1zm1 0h1v1h-1zm-1 1h1v15h-1zm1 0h1v9h-1zm43 0h1v1h-1zm1 0h14v1H57zm14 0h1v1h-1zm1 0h1v1h-1zm1 0h1v1h-1zm21 0h1v1h-1zm1 0h3v1h-3zm3 0h1v1h-1zm1 0h1v1h-1zm21 0h1v1h-1zm1 0h1v1h-1zm1 0h1v1h-1zm1 0h1v1h-1zm1 0h6v3h-6zm6 0h1v3h-1zm1 0h1v1h-1zm1 0h1v1h-1zm1 0h1v1h-1zm1 0h1v1h-1zm1 0h1v1h-1zm19 0h1v1h-1zm1 0h3v1h-3zm3 0h1v1h-1zm1 0h1v1h-1zm15 0h1v1h-1zm1 0h19v1h-19zm19 0h1v1h-1zm22 0h1v1h-1zm1 0h5v1h-5zm5 0h1v1h-1zm1 0h1v1h-1zm24 0h1v1h-1zm1 0h3v1h-3zm3 0h1v1h-1zm1 0h1v1h-1zM56 34h17v2H56zm17 0h1v4h-1zm1 0h1v1h-1zm1 0h1v1h-1zm19 0h1v24h-1zm1 0h4v24h-4zm4 0h1v24h-1zm19 0h1v1h-1zm1 0h1v1h-1z"/><path d="M120 34h15v2h-15zm15 0h1v6h-1zm1 0h1v1h-1zm1 0h1v1h-1zm17 0h1v24h-1zm1 0h3v24h-3zm3 0h1v24h-1zm1 0h1v24h-1zm15 0h1v2h-1zm1 0h19v2h-19zm19 0h1v2h-1zm21 0h1v1h-1zm1 0h7v2h-7zm7 0h1v11h-1zm1 0h1v1h-1zm23 0h1v20h-1zm1 0h3v25h-3zm3 0h1v25h-1zm1 0h1v20h-1zM74 35h1v23h-1zm1 0h1v22h-1zm1 0h1v1h-1zm41 0h1v1h-1zm1 0h1v1h-1z"/><path d="M119 35h17v1h-17zm17 0h1v5h-1zm1 0h1v1h-1zm78 0h1v1h-1zm9 0h1v1h-1zM56 36h20v1H56zm20 0h1v20h-1zm1 0h1v1h-1zm40 0h1v1h-1z"/><path d="M118 36h19v1h-19zm19 0h1v4h-1zm1 0h1v1h-1zm36 0h1v1h-1zm1 0h19v1h-19zm19 0h1v1h-1zm21 0h1v1h-1zm1 0h7v1h-7zm8 0h1v1h-1zM56 37h4v22h-4zm4 0h1v22h-1zm1 0h8v1h-8zm8 0h1v1h-1zm1 0h1v1h-1zm1 0h1v1h-1zm1 0h5v1h-5zm5 0h1v17h-1zm1 0h1v1h-1zm38 0h1v1h-1zm1 0h5v1h-5zm5 0h1v1h-1zm1 0h1v1h-1zm1 0h1v1h-1zm1 0h1v1h-1zm1 0h3v1h-3zm3 0h1v1h-1zm1 0h1v1h-1zm1 0h1v1h-1zm1 0h1v1h-1zm1 0h4v1h-4zm5 0h1v1h-1zm36 0h1v1h-1zm1 0h6v1h-6zm6 0h1v1h-1zm1 0h4v22h-4zm4 0h1v22h-1zm1 0h7v1h-7zm7 0h1v1h-1zm20 0h1v1h-1zm1 0h3v5h-3zm3 0h1v2h-1zm1 0h1v1h-1zm1 0h1v1h-1zm1 0h3v2h-3zm3 0h1v11h-1zm1 0h1v1h-1zM72 38h1v1h-1zm1 0h4v1h-4zm5 0h1v1h-1zm38 0h1v1h-1zm1 0h3v17h-3zm3 0h1v5h-1zm1 0h1v1h-1zm1 0h1v1h-1zm11 0h1v1h-1zm1 0h3v2h-3zm4 0h1v1h-1zm76 0h1v1h-1zm5 0h1v1h-1zm1 0h1v1h-1zm5 0h1v1h-1zM73 39h1v1h-1zm5 0h1v1h-1zm38 0h1v1h-1zm5 0h1v1h-1zm12 0h1v1h-1zm5 0h1v1h-1zm76 0h1v1h-1zm4 0h1v1h-1zm1 0h1v1h-1zm1 0h1v1h-1zm1 0h3v1h-3zm4 0h1v1h-1zM73 40h1v1h-1zm5 0h1v1h-1z"/><path d="M116 40h4v12h-4zm5 0h1v1h-1zm12 0h1v1h-1zm1 0h4v1h-4zm4 0h1v1h-1zm75 0h1v1h-1zm1 0h3v5h-3zm4 0h1v1h-1zm3 0h1v1h-1zm1 0h3v2h-3zm3 0h1v13h-1zm1 0h1v1h-1zM73 41h1v1h-1zm5 0h1v9h-1zm55 0h1v1h-1zm1 0h4v1h-4zm4 0h1v1h-1zm75 0h1v1h-1zm5 0h1v1h-1zm3 0h1v1h-1zm5 0h1v1h-1zM0 42h12v1H0zm13 0h1v1h-1zm60 0h1v1h-1zm6 0h1v1h-1zm134 0h1v1h-1zm4 0h1v1h-1zm1 0h1v1h-1zm3 0h1v1h-1zm1 0h3v1h-3zm4 0h1v1h-1zM0 43h1v1H0zm1 0h11v1H1zm12 0h1v1h-1zm66 0h1v2h-1zm36 0h1v8h-1zm5 0h1v1h-1zm92 0h1v1h-1z"/><path d="M213 43h3v5h-3zm4 0h1v1h-1zm5 0h1v1h-1zm4 0h1v11h-1zm1 0h1v1h-1zM0 44h1v1H0zm1 0h1v1H1zm1 0h1v1H2zm1 0h9v1H3zm10 0h1v5h-1zm107 0h1v1h-1zm92 0h1v1h-1zm5 0h1v1h-1zm5 0h1v1h-1zm5 0h1v1h-1zM2 45h1v1H2zm1 0h1v1H3zm1 0h1v1H4zm1 0h7v1H5zm74 0h1v1h-1zm41 0h1v1h-1zm7 0h1v1h-1zm1 0h10v1h-10zm10 0h1v1h-1zm74 0h1v1h-1zm4 0h1v1h-1zm1 0h1v1h-1zm5 0h1v1h-1zm1 0h3v1h-3zm4 0h1v1h-1zM4 46h1v1H4zm1 0h1v1H5zm1 0h1v1H6zm1 0h5v1H7zm72 0h1v1h-1zm41 0h1v1h-1zm7 0h1v2h-1zm1 0h10v2h-10zm10 0h1v6h-1zm73 0h1v1h-1z"/><path d="M212 46h3v7h-3zm4 0h1v1h-1zm7 0h1v1h-1zm4 0h1v11h-1zm1 0h1v1h-1zM6 47h1v1H6zm1 0h1v1H7zm1 0h1v1H8zm1 0h3v1H9zm111 0h1v1h-1zm91 0h1v1h-1zm5 0h1v1h-1zm7 0h1v1h-1zm5 0h1v1h-1zM8 48h1v1H8zm1 0h1v1H9zm1 0h1v1h-1zm1 0h1v1h-1zm1 0h1v1h-1zm108 0h1v10h-1zm7 0h1v1h-1zm1 0h10v1h-10zm83 0h1v1h-1zm4 0h1v1h-1zm1 0h1v1h-1zm7 0h1v1h-1zm1 0h3v1h-3zm4 0h1v1h-1zM10 49h1v1h-1zm1 0h1v1h-1zm1 0h1v1h-1zm1 0h1v1h-1zm114 0h1v1h-1zm1 0h5v1h-5zm5 0h1v1h-1zm1 0h4v7h-4zm76 0h1v1h-1z"/><path d="M211 49h3v6h-3zm4 0h1v1h-1zm9 0h1v1h-1zm4 0h1v10h-1zm1 0h1v1h-1zM12 50h1v1h-1zm1 0h1v1h-1zm60 0h1v1h-1zm5 0h1v1h-1zm132 0h1v1h-1zm5 0h1v1h-1zm9 0h1v1h-1zm5 0h1v1h-1zM73 51h1v1h-1zm5 0h1v1h-1zm37 0h1v1h-1zm18 0h1v1h-1zm77 0h1v1h-1zm5 0h13v2h-13zm14 0h1v1h-1zM73 52h1v1h-1zm5 0h1v1h-1zm38 0h4v1h-4zm5 0h1v1h-1zm12 0h1v1h-1zm5 0h1v1h-1zm71 0h1v1h-1z"/><path d="M210 52h19v1h-19zm19 0h1v7h-1zm1 0h1v1h-1zM73 53h1v1h-1zm5 0h1v1h-1zm38 0h1v1h-1zm5 0h1v1h-1zm12 0h1v1h-1zm5 0h1v1h-1zm71 0h1v1h-1zm1 0h19v1h-19zm20 0h1v1h-1zM72 54h1v1h-1zm1 0h4v2h-4zm4 0h1v1h-1zm1 0h1v1h-1zm38 0h1v1h-1zm5 0h1v1h-1zm1 0h1v1h-1zm10 0h1v1h-1zm1 0h1v1h-1zm5 0h1v1h-1zm71 0h1v1h-1zm1 0h3v4h-3zm4 0h1v1h-1zm1 0h9v1h-9zm9 0h1v1h-1zm1 0h1v1h-1zm1 0h3v1h-3zm4 0h1v1h-1zm17 0h1v5h-1zm5 0h1v1h-1zM61 55h8v1h-8zm8 0h1v1h-1zm1 0h1v1h-1zm1 0h1v1h-1z"/><path d="M72 55h4v2h-4zm5 0h1v1h-1zm1 0h1v1h-1zm38 0h1v1h-1zm1 0h4v1h-4zm4 0h1v3h-1zm1 0h1v1h-1zm1 0h1v1h-1zm1 0h1v1h-1zm1 0h4v1h-4zm4 0h1v1h-1zm1 0h1v1h-1zm1 0h1v1h-1zm1 0h1v1h-1zm1 0h4v2h-4zm5 0h1v1h-1zm70 0h1v1h-1zm1 0h4v3h-4zm4 0h1v1h-1zm1 0h1v1h-1zm12 0h1v1h-1zm4 0h1v4h-1zm1 0h1v1h-1zm21 0h1v1h-1zm1 0h10v1h-10zm10 0h1v1h-1zm1 0h1v1h-1z"/><path d="M61 56h15v1H61zm15 0h1v1h-1zm1 0h1v1h-1zm39 0h1v1h-1zm1 0h1v1h-1zm1 0h19v1h-19zm19 0h1v1h-1zm1 0h1v1h-1zm70 0h1v1h-1zm5 0h1v1h-1zm13 0h1v1h-1zm5 0h1v1h-1zm21 0h11v3h-11zm11 0h1v3h-1zm1 0h1v3h-1zM61 57h14v1H61zm14 0h1v1h-1zm1 0h1v1h-1zm1 0h1v1h-1zm40 0h1v1h-1zm1 0h18v1h-18zm18 0h1v1h-1zm1 0h1v1h-1zm71 0h1v1h-1zm5 0h1v1h-1zm13 0h1v1h-1zm1 0h3v1h-3zm4 0h1v1h-1zM61 58h13v1H61zm13 0h1v1h-1zm1 0h1v1h-1zm1 0h1v1h-1zm18 0h1v1h-1zm1 0h4v1h-4zm4 0h1v1h-1zm19 0h1v1h-1zm1 0h1v1h-1zm1 0h15v1h-15zm15 0h1v1h-1zm1 0h1v1h-1zm1 0h1v1h-1zm17 0h1v1h-1zm1 0h3v1h-3zm3 0h1v1h-1zm1 0h1v1h-1zm48 0h1v1h-1zm1 0h4v1h-4zm4 0h1v1h-1zm1 0h1v1h-1zm14 0h1v1h-1zm4 0h1v1h-1zm1 0h1v1h-1zM56 59h12v1H56zm12 0h1v1h-1zm1 0h1v1h-1zm1 0h1v1h-1zm1 0h1v1h-1zm1 0h1v1h-1zm1 0h1v1h-1zm1 0h1v1h-1zm20 0h1v1h-1zm1 0h3v1h-3zm3 0h1v1h-1zm1 0h1v1h-1zm21 0h1v1h-1zm1 0h1v1h-1zm1 0h1v1h-1zm1 0h1v1h-1zm1 0h6v1h-6zm6 0h1v1h-1zm1 0h1v1h-1zm1 0h1v1h-1zm1 0h1v1h-1zm1 0h1v1h-1zm1 0h1v1h-1zm19 0h1v1h-1zm1 0h3v1h-3zm3 0h1v1h-1zm1 0h1v1h-1zm23 0h4v1h-4zm4 0h1v1h-1zm21 0h1v1h-1zm1 0h3v1h-3zm3 0h1v1h-1zm1 0h1v1h-1zm15 0h1v1h-1zm1 0h3v1h-3zm3 0h1v1h-1zm1 0h1v1h-1zm15 0h1v1h-1zm1 0h15v1h-15zm15 0h1v1h-1zm1 0h1v1h-1zM0 64h1v1H0zm1 0h1v1H1zm1 0h1v1H2zm-2 1h1v20H0zm1 0h1v20H1zm1 0h1v1H2zm1 0h1v1H3zm1 0h1v1H4zm1 0h1v1H5zm1 0h1v1H6zm1 0h1v1H7zm-5 1h4v19H2zm4 0h1v19H6zm1 0h1v1H7zm1 0h1v1H8zm1 0h1v1H9zm1 0h1v1h-1zm1 0h1v1h-1zm-4 1h4v17H7zm4 0h1v17h-1zm1 0h1v1h-1zm1 0h1v1h-1zm-1 1h1v16h-1zm1 0h1v16h-1zm44 7h1v1h-1zm1 0h1v1h-1zm1 0h1v1h-1zm1 0h5v1h-5zm5 0h1v1h-1zm1 0h1v1h-1zm1 0h1v1h-1zm15 0h1v1h-1zm1 0h1v1h-1zm1 0h1v1h-1zm1 0h1v1h-1zm1 0h4v1h-4zm4 0h1v1h-1zm1 0h1v1h-1zm1 0h1v1h-1zm1 0h1v1h-1zm15 0h1v1h-1zm1 0h1v1h-1zm1 0h1v1h-1zm1 0h1v1h-1zm13 0h1v1h-1zm1 0h2v1h-2zm2 0h1v1h-1zm1 0h1v1h-1zm13 0h1v1h-1zm1 0h2v1h-2zm2 0h1v1h-1zm1 0h1v1h-1zm12 0h1v1h-1zm1 0h3v1h-3zm3 0h1v1h-1zm13 0h1v1h-1zm1 0h10v1h-10zm10 0h1v1h-1zm13 0h1v1h-1zm1 0h9v1h-9zm9 0h1v1h-1zm1 0h1v1h-1zm1 0h1v1h-1zm16 0h1v1h-1zm1 0h1v1h-1zm1 0h1v1h-1zm1 0h1v1h-1zm1 0h4v1h-4zm4 0h1v1h-1zm1 0h1v1h-1zm1 0h1v1h-1zm1 0h1v1h-1zm13 0h1v1h-1zm1 0h10v1h-10zm10 0h1v1h-1zM55 76h1v1h-1zm1 0h1v1h-1zm1 0h2v1h-2zm2 0h1v1h-1zm1 0h1v1h-1zm1 0h3v1h-3zm3 0h1v1h-1zm1 0h1v1h-1zm1 0h1v1h-1zm1 0h1v1h-1zm1 0h1v1h-1zm13 0h1v1h-1zm1 0h1v1h-1zm1 0h1v1h-1zm1 0h1v1h-1zm1 0h1v1h-1zm1 0h4v1h-4zm4 0h1v1h-1zm1 0h2v1h-2zm2 0h1v1h-1zm1 0h1v1h-1zm1 0h1v1h-1zm13 0h1v16h-1zm1 0h2v1h-2zm2 0h1v2h-1zm1 0h1v1h-1zm12 0h1v1h-1zm1 0h2v1h-2zm2 0h1v16h-1zm1 0h1v16h-1zm13 0h1v16h-1zm1 0h2v1h-2zm2 0h1v1h-1zm1 0h1v1h-1zm12 0h1v1h-1zm1 0h3v1h-3zm3 0h1v16h-1zm13 0h11v1h-11zm11 0h1v1h-1zm13 0h11v1h-11zm11 0h1v1h-1zm1 0h1v1h-1zm1 0h1v1h-1zm14 0h1v1h-1zm1 0h2v1h-2zm2 0h1v1h-1zm1 0h1v1h-1zm1 0h3v1h-3zm3 0h1v1h-1zm1 0h1v1h-1zm1 0h1v1h-1zm1 0h1v1h-1zm1 0h1v1h-1zm1 0h1v1h-1zm12 0h11v1h-11zm11 0h1v1h-1zM55 77h1v1h-1zm1 0h1v14h-1zm1 0h1v1h-1zm1 0h1v1h-1zm8 0h1v1h-1zm1 0h1v1h-1zm1 0h1v2h-1zm1 0h1v1h-1zm12 0h1v1h-1zm1 0h1v1h-1zm1 0h1v1h-1zm1 0h1v1h-1zm8 0h1v1h-1zm1 0h1v1h-1zm1 0h1v1h-1zm1 0h1v1h-1zm14 0h2v1h-2zm3 0h1v1h-1zm11 0h1v1h-1zm1 0h1v2h-1zm1 0h2v1h-2zm17 0h2v1h-2zm2 0h1v1h-1zm1 0h1v1h-1zm1 0h1v1h-1zm11 0h1v1h-1zm1 0h3v1h-3zm16 0h1v15h-1zm1 0h1v15h-1zm23 0h1v15h-1zm1 0h1v15h-1zm9 0h1v1h-1zm1 0h1v1h-1zm1 0h1v1h-1zm1 0h1v1h-1zm13 0h1v1h-1zm1 0h1v14h-1zm1 0h1v1h-1zm1 0h1v1h-1zm8 0h1v1h-1zm1 0h1v1h-1zm1 0h1v2h-1zm1 0h1v1h-1zm12 0h1v15h-1zm1 0h1v15h-1zm1 0h1v5h-1zM55 78h1v11h-1zm2 0h1v1h-1zm10 0h1v1h-1zm2 0h1v1h-1zm11 0h1v1h-1zm1 0h1v12h-1zm1 0h1v1h-1zm11 0h1v1h-1zm1 0h1v1h-1zm1 0h1v1h-1zm14 0h2v1h-2zm2 0h1v1h-1zm1 0h1v1h-1zm1 0h1v1h-1z"/><path d="M123 78h2v1h-2zm2 0h1v1h-1zm1 0h2v1h-2zm16 0h1v14h-1zm1 0h1v14h-1zm1 0h1v1h-1zm1 0h1v1h-1zm1 0h1v1h-1zm10 0h1v1h-1zm1 0h1v2h-1zm1 0h1v1h-1zm1 0h1v1h-1zm1 0h1v14h-1zm50 0h1v1h-1zm1 0h1v4h-1zm1 0h1v1h-1zm12 0h1v1h-1zm2 0h1v1h-1zm10 0h1v1h-1zm2 0h1v1h-1zM54 79h1v8h-1zm13 0h2v1h-2zm2 0h1v1h-1zm11 0h1v1h-1zm2 0h1v1h-1zm12 0h1v1h-1zm1 0h1v10h-1zm14 0h1v13h-1zm2 0h1v1h-1zm1 0h1v1h-1zm1 0h1v1h-1zm9 0h1v1h-1zm1 0h1v1h-1zm1 0h1v1h-1zm1 0h1v1h-1zm1 0h2v1h-2zm18 0h1v1h-1zm1 0h1v1h-1zm1 0h1v1h-1z"/><path d="M156 79h2v1h-2zm2 0h1v1h-1zm1 0h1v13h-1zm51 0h1v2h-1zm2 0h1v3h-1zm12 0h1v1h-1zm2 0h1v1h-1zm10 0h1v1h-1zm1 0h1v1h-1zm1 0h1v1h-1zM67 80h2v1h-2zm2 0h1v1h-1zm11 0h2v1h-2zm2 0h1v1h-1zm12 0h1v7h-1zm2 0h1v1h-1zm15 0h1v1h-1zm1 0h1v1h-1zm1 0h1v1h-1zm9 0h1v1h-1zm1 0h1v1h-1zm1 0h1v1h-1zm2 0h2v1h-2zm18 0h1v1h-1zm1 0h1v1h-1zm1 0h1v2h-1zm1 0h1v1h-1zm8 0h1v1h-1zm1 0h1v2h-1zm1 0h1v1h-1zm1 0h1v1h-1zm66 0h1v6h-1zm2 0h1v7h-1zm10 0h1v1h-1zm1 0h1v1h-1zm1 0h1v1h-1zM80 81h1v4h-1zm2 0h1v1h-1zm14 0h1v6h-1zm16 0h1v1h-1zm1 0h1v2h-1zm1 0h1v1h-1zm8 0h1v1h-1zm1 0h1v1h-1zm1 0h1v1h-1zm2 0h2v1h-2z"/><path d="M145 81h2v1h-2zm2 0h1v1h-1zm8 0h1v1h-1zm2 0h1v1h-1zm53 0h1v1h-1zM82 82h1v1h-1zm30 0h1v1h-1zm2 0h1v1h-1zm7 0h1v1h-1zm1 0h1v2h-1zm1 0h1v1h-1zm1 0h1v1h-1zm2 0h2v1h-2zm19 0h1v1h-1zm1 0h1v1h-1zm1 0h1v2h-1zm1 0h1v1h-1zm7 0h1v1h-1zm1 0h1v1h-1zm1 0h1v1h-1zm53 0h1v1h-1zm1 0h1v1h-1zm1 0h1v1h-1zm40 0h1v1h-1zM82 83h1v2h-1zm30 0h1v1h-1zm1 0h1v1h-1zm1 0h1v2h-1zm1 0h1v1h-1zm6 0h1v1h-1zm2 0h1v1h-1zm3 0h2v1h-2zm20 0h1v1h-1zm2 0h1v1h-1zm6 0h1v1h-1zm1 0h1v2h-1zm1 0h1v1h-1zm20 0h8v1h-8zm8 0h1v1h-1zm1 0h1v1h-1zm24 0h1v1h-1zm1 0h1v1h-1zm1 0h1v1h-1zm41 0h1v1h-1zm1 0h7v1h-7zm7 0h1v1h-1zm1 0h1v1h-1zM7 84h5v1H7zm5 0h1v1h-1zm1 0h1v1h-1zm100 0h1v1h-1zm2 0h1v1h-1zm5 0h1v1h-1zm1 0h1v2h-1zm1 0h1v1h-1zm1 0h1v1h-1zm3 0h2v1h-2zm20 0h1v1h-1zm1 0h1v1h-1zm1 0h1v1h-1zm6 0h1v1h-1zm2 0h1v1h-1zm20 0h8v1h-8zm8 0h1v1h-1zm1 0h1v1h-1zm15 0h6v1h-6zm6 0h1v1h-1zm1 0h1v1h-1zm1 0h1v1h-1zm1 0h1v2h-1zm1 0h1v1h-1zm1 0h1v1h-1zm41 0h8v1h-8zm8 0h1v1h-1zm1 0h1v1h-1zM0 85h7v1H0zm7 0h1v1H7zm1 0h1v1H8zm1 0h1v1H9zm1 0h1v1h-1zm1 0h1v1h-1zm1 0h1v1h-1zm1 0h1v1h-1zm67 0h1v1h-1zm2 0h1v1h-1zm31 0h1v1h-1zm1 0h1v1h-1zm1 0h1v1h-1zm5 0h1v1h-1zm2 0h1v1h-1zm4 0h2v1h-2zm21 0h1v1h-1zm1 0h1v2h-1zm1 0h1v1h-1zm4 0h1v1h-1zm1 0h1v2h-1zm1 0h1v1h-1zm1 0h1v1h-1zm44 0h8v1h-8zm8 0h1v1h-1zm2 0h1v1h-1zm42 0h1v6h-1zM0 86h1v1H0zm1 0h1v1H1zm1 0h1v1H2zm1 0h1v1H3zm1 0h1v1H4zm1 0h1v1H5zm1 0h1v1H6zm1 0h1v1H7zm73 0h1v1h-1zm2 0h1v1h-1zm32 0h1v1h-1zm1 0h1v2h-1zm1 0h1v1h-1zm4 0h1v1h-1zm1 0h1v1h-1zm1 0h1v1h-1zm4 0h2v1h-2zm21 0h1v1h-1zm2 0h1v1h-1zm4 0h1v1h-1zm2 0h1v1h-1zm45 0h6v1h-6zm6 0h1v1h-1zm1 0h1v1h-1zm1 0h1v1h-1zm1 0h1v1h-1zm1 0h1v6h-1zm1 0h1v1h-1zm13 0h1v1h-1zM54 87h1v1h-1zm13 0h1v1h-1zm1 0h1v1h-1zm1 0h1v1h-1zm11 0h2v1h-2zm2 0h1v1h-1zm12 0h1v1h-1zm2 0h1v1h-1zm18 0h1v1h-1zm2 0h1v1h-1zm3 0h1v1h-1zm1 0h1v2h-1zm1 0h1v1h-1zm5 0h2v1h-2zm21 0h1v1h-1zm1 0h1v1h-1zm1 0h1v2h-1zm1 0h1v1h-1zm3 0h1v1h-1zm1 0h1v1h-1zm1 0h1v1h-1zm54 0h1v1h-1zm2 0h1v1h-1zm13 0h1v1h-1zm2 0h1v1h-1zm11 0h1v1h-1zm1 0h1v1h-1zm1 0h1v1h-1zM54 88h1v1h-1zm3 0h1v1h-1zm10 0h1v1h-1zm1 0h1v3h-1zm1 0h1v1h-1zm11 0h2v1h-2zm2 0h1v1h-1zm12 0h1v1h-1zm20 0h1v1h-1zm1 0h1v1h-1zm1 0h1v2h-1zm1 0h1v1h-1zm2 0h1v1h-1zm2 0h1v1h-1zm5 0h2v1h-2zm22 0h1v1h-1zm2 0h1v1h-1zm2 0h1v1h-1zm1 0h1v2h-1zm1 0h1v1h-1zm55 0h1v1h-1zm2 0h1v4h-1zm13 0h1v1h-1zm2 0h1v1h-1zm11 0h1v4h-1zm1 0h1v2h-1zm1 0h1v1h-1zM55 89h1v1h-1zm2 0h1v1h-1zm10 0h1v1h-1zm2 0h1v1h-1zm11 0h1v1h-1zm2 0h1v1h-1zm12 0h1v2h-1zm1 0h1v1h-1zm20 0h1v1h-1zm2 0h1v1h-1zm1 0h1v1h-1zm1 0h1v2h-1zm1 0h1v1h-1zm1 0h1v1h-1zm5 0h2v1h-2zm22 0h1v1h-1zm1 0h1v1h-1zm1 0h1v1h-1zm2 0h1v1h-1zm2 0h1v1h-1zm70 0h1v1h-1zm2 0h1v1h-1zM55 90h1v1h-1zm2 0h1v1h-1zm10 0h1v1h-1zm2 0h1v1h-1zm11 0h1v1h-1zm1 0h1v1h-1zm1 0h1v1h-1zm11 0h1v1h-1zm2 0h1v1h-1zm20 0h1v1h-1zm1 0h1v1h-1zm1 0h1v1h-1zm1 0h1v1h-1zm2 0h1v1h-1zm6 0h2v1h-2zm23 0h1v1h-1zm1 0h3v1h-3zm3 0h1v1h-1zm1 0h1v1h-1zm70 0h1v1h-1zm2 0h1v1h-1zm10 0h1v1h-1zm2 0h1v1h-1zM55 91h1v1h-1zm1 0h1v1h-1zm1 0h1v1h-1zm1 0h1v1h-1zm8 0h1v1h-1zm1 0h1v1h-1zm1 0h1v1h-1zm1 0h1v1h-1zm12 0h1v1h-1zm1 0h1v1h-1zm1 0h1v1h-1zm1 0h1v1h-1zm8 0h1v1h-1zm1 0h1v1h-1zm1 0h1v1h-1zm1 0h1v1h-1zm21 0h1v1h-1zm1 0h2v1h-2zm2 0h1v1h-1zm1 0h1v1h-1zm6 0h2v1h-2zm23 0h1v1h-1zm1 0h2v1h-2zm2 0h1v1h-1zm1 0h1v1h-1zm71 0h1v1h-1zm1 0h1v1h-1zm1 0h1v1h-1zm1 0h1v1h-1zm1 0h1v1h-1zm7 0h1v1h-1zm1 0h1v1h-1zm2 0h1v1h-1zm14 0h1v1h-1zM55 92h1v1h-1zm1 0h1v1h-1zm1 0h2v1h-2zm2 0h1v1h-1zm1 0h4v1h-4zm4 0h1v1h-1zm1 0h2v1h-2zm2 0h1v1h-1zm1 0h1v1h-1zm1 0h1v1h-1zm12 0h1v1h-1zm1 0h2v1h-2zm2 0h1v1h-1zm1 0h1v1h-1zm1 0h4v1h-4zm4 0h1v1h-1zm1 0h2v1h-2zm2 0h1v1h-1zm1 0h1v1h-1zm1 0h1v1h-1zm13 0h1v1h-1zm1 0h1v1h-1zm7 0h1v1h-1zm1 0h1v1h-1zm1 0h1v1h-1zm1 0h1v1h-1zm7 0h2v1h-2zm2 0h1v1h-1zm13 0h1v1h-1zm1 0h1v1h-1zm1 0h1v1h-1zm6 0h1v1h-1zm1 0h1v1h-1zm1 0h1v1h-1zm1 0h1v1h-1zm1 0h1v1h-1zm6 0h1v1h-1zm1 0h1v1h-1zm1 0h1v1h-1zm13 0h11v1h-11zm11 0h1v1h-1zm13 0h1v1h-1zm1 0h1v1h-1zm11 0h1v1h-1zm1 0h1v1h-1zm14 0h1v1h-1zm1 0h2v1h-2zm2 0h1v1h-1zm1 0h1v1h-1zm1 0h3v1h-3zm3 0h1v1h-1zm1 0h1v1h-1zm1 0h2v1h-2zm2 0h1v1h-1zm1 0h1v1h-1zm12 0h11v1h-11zm11 0h1v1h-1zM56 93h1v1h-1zm1 0h1v1h-1zm1 0h1v1h-1zm1 0h1v1h-1zm1 0h4v1h-4zm4 0h1v1h-1zm1 0h1v1h-1zm1 0h1v1h-1zm1 0h1v1h-1zm1 0h1v1h-1zm14 0h1v1h-1zm1 0h1v1h-1zm1 0h1v1h-1zm1 0h1v1h-1zm1 0h4v1h-4zm4 0h1v1h-1zm1 0h1v1h-1zm1 0h1v1h-1zm1 0h1v1h-1zm1 0h1v1h-1zm14 0h1v1h-1zm1 0h1v1h-1zm8 0h1v1h-1zm1 0h1v1h-1zm1 0h1v1h-1zm7 0h2v1h-2zm2 0h1v1h-1zm13 0h1v1h-1zm1 0h1v1h-1zm1 0h1v1h-1zm7 0h1v1h-1zm1 0h1v1h-1zm1 0h1v1h-1zm7 0h1v1h-1zm1 0h1v1h-1zm1 0h1v1h-1zm13 0h11v1h-11zm11 0h1v1h-1zm13 0h1v1h-1zm1 0h1v1h-1zm11 0h1v1h-1zm1 0h1v1h-1zm15 0h1v1h-1zm1 0h1v1h-1zm1 0h1v1h-1zm1 0h4v1h-4zm4 0h1v1h-1zm1 0h1v1h-1zm1 0h1v1h-1zm1 0h1v1h-1zm1 0h1v1h-1zm13 0h11v1h-11zm11 0h1v1h-1zM11 103h1v1h-1zm1 0h1v1h-1zm1 0h1v1h-1zm-4 1h1v1H9zm1 0h1v1h-1zm1 0h1v1h-1zm1 0h1v17h-1zm1 0h1v4h-1zm-7 1h1v1H6zm1 0h1v1H7zm1 0h1v1H8zm1 0h3v16H9zm-5 1h1v1H4zm1 0h1v1H5zm1 0h1v1H6z"/><path d="M7 106h5v15H7zm-6 1h1v1H1zm1 0h1v1H2zm1 0h1v1H3zm1 0h1v1H4z"/><path d="M5 107h7v14H5zm-5 1h1v1H0zm1 0h1v1H1z"/><path d="M2 108h10v13H2zm11 0h1v1h-1z"/><path d="M0 109h12v12H0zm13 0h1v11h-1zm0 11h1v1h-1zm-13 1h12v1H0zm12 0h1v1h-1zm1 0h1v1h-1zm-13 1h10v1H0zm10 0h1v1h-1zm1 0h1v1h-1zm1 0h1v1h-1zm-12 1h9v1H0zm9 0h1v1H9zm1 0h1v1h-1zm1 0h1v1h-1zm-11 1h7v1H0zm7 0h1v1H7zm1 0h1v1H8zm1 0h1v1H9zm1 0h1v1h-1zm-10 1h6v1H0zm6 0h1v1H6zm1 0h1v1H7zm1 0h1v1H8zm-8 1h5v1H0zm5 0h1v1H5zm1 0h1v1H6zm1 0h1v1H7zm-7 1h3v1H0zm3 0h1v1H3zm1 0h1v1H4zm1 0h1v1H5zm1 0h1v1H6zm-6 1h2v1H0zm2 0h1v1H2zm1 0h1v1H3zm1 0h1v1H4zm-4 1h1v1H0zm1 0h1v1H1zm1 0h1v1H2zm1 0h1v1H3zm-3 1h1v1H0zm1 0h1v1H1zm-1 1h1v1H0zm24 2h1v1h-1zm1 0h17v1H25zm17 0h1v1h-1zm1 0h1v1h-1zm18 0h1v1h-1zm1 0h16v1H62zm16 0h1v1h-1zm1 0h1v1h-1zm17 0h1v1h-1zm1 0h1v1h-1zm1 0h15v1H98zm15 0h1v1h-1zm1 0h1v1h-1zm-91 1h1v1h-1zm1 0h17v2H24zm17 0h1v1h-1zm1 0h1v1h-1zm18 0h1v1h-1zm1 0h1v1h-1zm1 0h16v11H62zm16 0h1v11h-1zm1 0h1v1h-1zm18 0h1v1h-1zm1 0h16v1H98zm16 0h1v11h-1zm1 0h1v1h-1zm-93 1h1v1h-1zm1 0h1v1h-1zm18 0h1v1h-1zm1 0h1v1h-1zm18 0h1v1h-1z"/><path d="M61 135h17v10H61zm18 0h1v1h-1zm18 0h1v1h-1zm1 0h16v1H98zm17 0h1v1h-1zm1 0h1v1h-1zm-95 1h1v1h-1zm1 0h1v1h-1zm1 0h17v2H23zm17 0h1v1h-1zm1 0h1v1h-1zm19 0h1v1h-1zm19 0h1v1h-1zm18 0h1v1h-1zm1 0h1v1h-1zm1 0h16v2H99zm16 0h1v9h-1zm1 0h1v1h-1zm-96 1h1v1h-1zm1 0h1v1h-1z"/><path d="M22 137h17v2H22zm18 0h1v1h-1zm1 0h1v1h-1zm19 0h1v1h-1zm19 0h1v1h-1zm19 0h1v1h-1zm18 0h1v8h-1zm1 0h1v1h-1zm-98 1h1v1h-1zm1 0h1v1h-1z"/><path d="M21 138h18v1H21zm18 0h1v1h-1zm1 0h1v1h-1zm19 0h1v1h-1zm1 0h1v1h-1zm19 0h1v1h-1zm19 0h1v1h-1zm1 0h17v1H99zm18 0h1v1h-1zm1 0h1v1h-1zm-100 1h1v1h-1zm1 0h1v1h-1zm1 0h18v2H20zm18 0h1v1h-1zm1 0h1v1h-1zm20 0h1v1h-1zm1 0h18v6H60zm19 0h1v1h-1zm19 0h1v1h-1zm1 0h1v1h-1zm1 0h17v2h-17zm17 0h1v6h-1zm1 0h1v1h-1zm-101 1h1v1h-1zm1 0h1v1h-1z"/><path d="M19 140h18v3H19zm19 0h1v1h-1zm1 0h1v1h-1zm20 0h1v1h-1zm20 0h1v1h-1zm20 0h1v1h-1zm19 0h1v5h-1zm1 0h1v1h-1zm-103 1h1v1h-1zm1 0h1v1h-1z"/><path d="M18 141h19v2H18zm19 0h1v1h-1zm1 0h1v1h-1zm20 0h1v1h-1zm1 0h1v1h-1zm20 0h1v1h-1zm20 0h1v1h-1zm1 0h18v1h-18zm19 0h1v1h-1zm1 0h1v1h-1zm-105 1h1v1h-1zm1 0h1v1h-1z"/><path d="M17 142h19v2H17zm20 0h1v1h-1zm1 0h1v1h-1zm20 0h1v1h-1zm1 0h19v3H59zm20 0h1v1h-1zm20 0h1v1h-1zm1 0h1v1h-1zm1 0h18v2h-18zm18 0h1v3h-1zm1 0h1v1h-1zm-106 1h1v1h-1zm1 0h1v1h-1z"/><path d="M16 143h20v1H16zm20 0h1v1h-1zm1 0h1v1h-1zm21 0h1v1h-1zm21 0h1v1h-1zm21 0h1v1h-1zm20 0h1v2h-1zm1 0h1v1h-1zm-108 1h1v1h-1zm1 0h1v1h-1zm1 0h20v1H15zm20 0h1v1h-1zm1 0h1v1h-1zm22 0h1v1h-1zm21 0h1v1h-1zm21 0h1v1h-1zm1 0h19v1h-19zm20 0h1v1h-1zm1 0h1v1h-1zm-109 1h1v1h-1zm1 0h20v1H14zm20 0h1v1h-1zm1 0h1v1h-1zm1 0h1v1h-1zm21 0h1v1h-1zm1 0h1v1h-1zm1 0h19v1H59zm19 0h1v1h-1zm1 0h1v1h-1zm21 0h1v1h-1zm1 0h1v1h-1zm1 0h19v1h-19zm19 0h1v1h-1zm1 0h1v1h-1zm-110 1h1v1h-1zm1 0h21v1H13zm21 0h1v1h-1zm1 0h1v1h-1zm22 0h1v1h-1zm1 0h20v1H58zm20 0h1v1h-1zm1 0h1v1h-1zm22 0h1v1h-1zm1 0h20v1h-20zm20 0h1v1h-1zm1 0h1v1h-1z"/></g><path d="M24 41h1v1h-1zm3 70h1v1h-1zm64 7h1v1h-1zm-27 3h1v1h-1zm43 1h1v1h-1zm-59 2h1v1h-1zm30 0h1v1h-1z" fill="#007ac2"/><path d="M37 52h1v1h-1zm-1 9h1v1h-1zm22 46h1v1h-1zm10 0h1v1h-1zm10 0h1v2h-1zm-10 1h1v2h-1zm-22 1h1v1h-1zm11 0h1v1h-1zm21 0h1v1h-1zm10 0h1v1h-1zm-41 1h9v1h-9zm9 0h1v1h-1zm12 0h9v1h-9zm9 0h1v1h-1zm12 0h9v1h-9zm9 0h1v1h-1zm1 0h1v1h-1z" fill="#40c3df"/><path d="M21 70h1v1h-1zm4 14h1v1h-1zm-4 26h1v1h-1z" fill="#0076c4"/><path d="M40 117h11v1H40zm11 0h1v1h-1zm15 0h11v1H66zm11 0h1v1h-1zm15 0h11v1H92zm11 0h1v1h-1zm-70 6h1v1h-1zm75 1h1v1h-1z" fill="#007cc3"/><path fill="#00f" d="M63 123h1v1h-1z"/><path fill="#40bfdf" d="M35 50h1v1h-1z"/><path d="M38 52h1v1h-1zm2 20h1v1h-1z" fill="#0ff"/><path d="M40 55h1v5h-1zm0 5h1v1h-1zm0 13h1v8h-1zm0 8h1v1h-1zm0 13h1v7h-1zm0 7h1v1h-1z" fill="#33cce6"/><path fill="#43c8e9" d="M36 62h1v1h-1z"/><path d="M50 106h8v1h-8zm8 0h1v1h-1zm11 0h8v1h-8zm8 0h1v1h-1zm11 0h8v1h-8zm8 0h1v1h-1z" fill="#41c6e3"/><path d="M39 82h1v1h-1zm10 24h1v1h-1zm-1 1h1v1h-1zm39 0h1v1h-1zm-40 1h1v1h-1zm20 2h1v1h-1zm11 0h1v1h-1z" fill="#40c5df"/><path d="M24 84h1v1h-1zm67 33h1v1h-1zm-57 5h1v1h-1z" fill="#0079c3"/><path fill="#3fc5e1" d="M39 102h1v1h-1z"/><path d="M23 41h1v1h-1zm5 4h1v1h-1zm-5 24h1v1h-1zm3 1h1v1h-1zm1 0h1v1h-1zm1 0h1v1h-1zm-2 13h1v1h-1zm-1 15h1v1h-1zm1 13h1v1h-1zm-1 1h1v1h-1zm-3 2h1v1h-1zm43 5h1v1h-1zm-30 2h1v1h-1zm0 1h1v1h-1zm14 0h1v1h-1zm44 0h1v1h-1zm-59 1h1v1h-1z" fill="#007bc0"/><path fill="#0071c6" d="M28 44h1v1h-1z"/><path d="M21 40h1v4h-1zm0 4h1v1h-1zm0 1h1v1h-1zm0 9h1v1h-1zm0 15h1v1h-1zm0 14h1v1h-1zm0 1h1v1h-1zm0 27h1v3h-1zm4 2h1v1h-1zm-4 1h1v1h-1zm0 1h1v1h-1zm70 4h1v1h-1zm-40 1h1v1h-1zm12 4h1v1h-1z" fill="#0080bf"/><g fill="#40c4e0"><path d="M36 53h1v7h-1zm1 0h1v8h-1zm-2 1h1v1h-1zm3 0h1v7h-1zm1 1h1v7h-1z"/><path d="M36 60h3v1h-3zm1 1h2v1h-2zm2 1h1v1h-1zm-3 11h3v8h-3zm3 0h1v8h-1zm-3 8h3v1h-3zm3 0h1v1h-1zm-2 1h1v1h-1zm1 11h1v8h-1zm1 0h1v8h-1z"/><path d="M36 94h3v7h-3zm0 7h3v1h-3zm3 0h1v1h-1zm-3 1h1v1h-1zm1 0h1v1h-1zm-1 1h1v1h-1zm1 0h1v1h-1zm-1 1h1v1h-1zm13 3h8v2h-8zm8 0h1v1h-1zm12 0h8v2h-8zm8 0h1v2h-1zm11 0h8v1h-8zm8 0h1v2h-1z"/><path d="M48 108h9v1h-9zm9 0h1v1h-1zm32 0h7v1h-7zm-42 1h9v1h-9zm9 0h1v1h-1zm13 0h8v1h-8zm8 0h1v1h-1zm12 0h8v1h-8zm8 0h1v1h-1zm1 0h1v1h-1z"/></g><path fill="#46d1e8" d="M40 63h1v1h-1z"/><path d="M35 72h1v1h-1zm1 0h1v1h-1zm3 20h1v1h-1z" fill="#3fc4df"/><path fill="#40c4e1" d="M35 82h1v1h-1z"/><path d="M26 84h1v1h-1zm6 40h1v1h-1z" fill="#0080ff"/><path fill="#3bc4eb" d="M40 61h1v1h-1z"/><path fill="#41c4e1" d="M38 103h1v1h-1z"/><path d="M35 51h1v1h-1zm1 1h1v1h-1zm2 20h1v1h-1zm0 30h1v1h-1z" fill="#3fc4e0"/><path fill="#40c5e0" d="M39 63h1v1h-1z"/><path fill="#3fc4e1" d="M36 93h1v1h-1z"/><path fill="#006ddb" d="M25 97h1v1h-1z"/><path d="M38 53h1v1h-1zm-3 2h1v5h-1zm0 5h1v1h-1zm0 1h1v1h-1zm2 1h1v1h-1zm1 0h1v1h-1zm-3 11h1v8h-1zm0 8h1v1h-1zm3 1h1v1h-1zm-3 12h1v7h-1zm0 7h1v1h-1zm62 7h1v1h-1z" fill="#40c3e0"/><path fill="#39c6e3" d="M38 63h1v1h-1z"/><path d="M24 69h1v1h-1zm-2 15h1v1h-1zm2 14h1v1h-1zm12 22h1v1h-1zm14 1h1v1h-1z" fill="#007bc2"/><path fill="#3fc3e1" d="M38 92h1v1h-1z"/><path fill="#0076bf" d="M64 120h1v1h-1z"/><path fill="#007abf" d="M93 124h1v1h-1z"/><path d="M21 46h1v7h-1zm0 7h1v1h-1zm5 4h1v1h-1zm-5 14h1v11h-1zm0 11h1v1h-1zm0 18h1v9h-1zm0 9h1v1h-1z" fill="#0074d1"/><path d="M40 54h1v1h-1zm0 28h1v1h-1zm-3 10h1v1h-1z" fill="#3cf"/><path d="M40 62h1v1h-1zm0 30h1v1h-1zm0 1h1v1h-1zm28 13h1v1h-1zm10 0h1v1h-1zm-11 3h1v1h-1zm-22 1h1v1h-1zm12 0h1v1h-1z" fill="#40cfdf"/><path d="M26 112h1v1h-1zm-4 3h1v1h-1z" fill="#007cc5"/><path fill="#0079bf" d="M52 117h1v1h-1z"/><path fill="#40c3e1" d="M36 51h1v1h-1z"/><path fill="#42c5e6" d="M35 71h1v1h-1z"/><path fill="#40c6df" d="M35 105h1v1h-1z"/><path fill="#0080c5" d="M65 117h1v1h-1z"/><path fill="#0080d5" d="M23 40h1v1h-1z"/><path d="M24 42h1v1h-1zm4 4h1v7h-1zm0 7h1v1h-1zm-3 3h1v1h-1zm3 1h1v1h-1zm0 14h1v11h-1zm0 11h1v1h-1zm-1 1h1v1h-1zm1 0h1v1h-1zm-1 14h1v1h-1zm-5 2h1v1h-1zm6 1h1v9h-1zm0 9h1v1h-1zm0 1h1v1h-1zm-4 3h1v1h-1zm14 5h1v1h-1zm27 0h1v1h-1zm13 0h1v1h-1zm0 1h1v1h-1zm14 0h1v1h-1zm-42 1h1v1h-1zm15 0h1v1h-1zm40 0h1v1h-1zm-27 2h1v1h-1zm0 1h1v1h-1zm-45 1h1v1h-1zm1 0h13v1H34zm13 0h1v1h-1zm17 0h13v1H64zm13 0h1v1h-1zm17 0h13v1H94zm13 0h1v1h-1z" fill="#007ac1"/><path fill="#37c8ed" d="M39 53h1v1h-1z"/><path fill="#2bd5ff" d="M36 71h1v1h-1z"/><path d="M37 72h1v1h-1zm-1 10h1v1h-1z" fill="#3fc3df"/><path fill="#3fc3e0" d="M37 93h1v1h-1z"/><path d="M22 40h1v1h-1zm0 14h1v1h-1zm2 1h1v1h-1zm2 1h1v1h-1zm-4 13h1v1h-1zm6 30h1v1h-1zm24 19h1v1h-1zm12 5h1v1h-1z" fill="#007ac0"/><g fill="#007bc1"><path d="M22 41h1v12h-1zm1 1h1v12h-1zm1 1h1v11h-1zm1 0h1v1h-1zm0 1h1v11h-1zm1 0h1v11h-1zm1 0h1v1h-1zm0 1h1v11h-1z"/><path d="M22 53h5v1h-5zm1 1h4v1h-4zm5 0h1v1h-1zm-5 1h1v1h-1zm2 0h2v1h-2zm3 0h1v1h-1zm-1 1h1v1h-1zm1 0h1v1h-1zm-1 1h1v1h-1zm-5 13h3v13h-3zm3 0h1v13h-1zm1 1h1v11h-1zm1 0h1v11h-1zm-1 11h1v1h-1zm1 0h1v1h-1zm-5 1h3v1h-3zm3 0h1v1h-1zm1 14h1v1h-1zm2 0h1v1h-1zm-2 1h1v12h-1zm1 0h1v12h-1zm1 0h1v1h-1z"/><path d="M23 99h4v11h-4z"/><path d="M22 100h5v10h-5zm0 10h5v1h-5zm5 0h1v1h-1zm-5 1h3v1h-3zm3 0h1v1h-1zm-3 1h2v1h-2zm2 0h1v1h-1zm-2 1h1v1h-1zm1 0h1v1h-1zm16 5h12v1H39zm12 0h1v1h-1zm15 0h11v5H66zm11 0h1v5h-1zm15 0h11v1H92zm11 0h1v5h-1zm1 0h1v1h-1zm-67 1h1v1h-1zm1 0h12v2H38zm12 0h1v1h-1zm1 0h1v1h-1z"/><path d="M93 119h11v2H93zm11 0h1v4h-1zm-67 1h12v3H37zm41 0h1v1h-1zm14 0h1v1h-1zm-56 1h1v1h-1zm13 0h1v1h-1zm16 0h12v2H65zm13 0h1v1h-1z"/><path d="M93 121h12v1H93zm12 0h1v2h-1zm1 0h1v1h-1zm-70 1h12v1H36zm28 0h1v1h-1z"/><path d="M94 122h12v1H94zm12 0h1v1h-1zm-71 1h13v1H35zm13 0h1v1h-1zm17 0h12v1H65zm12 0h1v1h-1zm16 0h1v1h-1zm1 0h12v1H94zm12 0h1v1h-1zm1 0h1v1h-1z"/></g><path d="M25 42h1v1h-1zm14 75h1v1h-1zm10 6h1v1h-1z" fill="#007bbf"/><path fill="#40c5e1" d="M39 72h1v1h-1z"/><path d="M87 106h1v1h-1zm-29 2h1v1h-1zm40 0h1v1h-1zm-10 2h1v1h-1z" fill="#40c7df"/><path fill="#0080c8" d="M104 117h1v1h-1z"/><path fill="#40cadf" d="M35 93h1v1h-1z"/><path d="M28 96h1v1h-1zm78 24h1v1h-1zm2 3h1v1h-1z" fill="#0080c6"/><path fill="#40bfea" d="M37 104h1v1h-1z"/><path fill="#0079c0" d="M26 43h1v1h-1z"/><path d="M26 69h1v1h-1zm-5 30h1v1h-1zm71 23h1v1h-1z" fill="#06c"/></svg>