<svg xmlns="http://www.w3.org/2000/svg" role="img" viewBox="-1.70 -1.57 88.27 33.02"><title>Colored Coins logo</title><g fill="none" fill-rule="evenodd"><path fill="#FCD665" d="M82.20459 24.24857c-1.52773 0-2.77916 1.25143-2.77916 2.77915 0 1.52773 1.25143 2.77916 2.77916 2.77916 1.52772 0 2.77916-1.25143 2.77916-2.77916 0-1.54397-1.25144-2.77915-2.77916-2.77915"/><path fill="#00C99E" d="M52.75526 23.63098c-.66635.43881-1.47897.60133-1.99905.53632-1.26768-.16252-1.96654-1.15392-1.96654-2.29158V8.66252c0-5.99713-1.23518-9.08508-7.97992-8.43499v5.55832c1.80402.26004 2.43786 1.78776 2.45411 2.7304v14.02582c0 5.81835 5.10325 7.1998 7.00478 7.1998 2.0803 0 3.7868-1.0239 4.61568-1.62524-.42256-.48757-.79637-1.00764-1.12141-1.60898-.48758-.84513-.79637-1.88528-1.00765-2.87667m-42.1912.3413c-2.51913-.14628-5.00574-2.3241-5.00574-5.4283 0-3.33174 2.64914-5.24952 5.07074-5.3958 2.40536-.16252 3.9981.79637 4.38815 1.0564l2.48661-4.1606c-.91013-.79637-3.20172-2.40536-6.87476-2.40536-5.86711 0-10.5803 4.84322-10.5803 10.98662 0 5.98088 4.42065 10.66157 10.53155 10.87285 4.58317.16252 7.34608-1.93404 8.79254-3.20172-1.08891-1.3327-1.86903-2.84417-2.30784-4.4044-.73136.6826-3.12046 2.29159-6.50096 2.0803"/><path fill="#00C99E" d="M29.43308 24.03728c-2.99044-.065-5.68834-2.3891-5.68834-5.37954 0-2.99044 2.43786-5.4283 5.4283-5.4283 3.21797 0 5.44455 2.40536 5.44455 5.3958 0 .97514-.065 1.93403-.3088 3.1042 1.73901-.7151 4.63194-2.74665 5.3633-4.24187 0-.01625.01625-.01625.01625-.0325-.60134-6.1109-5.16826-9.93021-10.67782-9.93021-5.89962 0-11.05163 5.05449-10.90536 11.49044 0 4.76195 3.96559 10.19024 11.05163 10.69407 6.761.21128 11.36042-3.81931 12.69311-5.93212v-6.53346c-3.7218 4.5019-7.58986 7.06979-12.41682 6.7935m43.19885-2.40536l.01625-12.30306h-5.62332v9.84895c0 2.17782-.39006 5.087-3.78681 5.087-1.65774 0-2.7304-.63384-3.31549-1.91778-.48757-1.08891-.48757-2.37285-.48757-3.16922V9.32887h-5.62333v10.5803s0 3.6568 1.23519 5.93213c1.46271 2.68164 4.19311 3.94933 8.20745 3.94933 2.94168 0 5.41205-.94264 6.97228-2.37285 0 0 2.17782 3.31549 6.15965 1.96654v-4.82696c-2.3891.01625-3.7543-1.00765-3.7543-2.92543"/></g></svg>