<svg xmlns="http://www.w3.org/2000/svg" role="img" viewBox="-6.70 87.56 413.14 69.64"><title>Creativehill (member) logo</title><style>svg {enable-background:new 0 0 400 245}</style><switch><g><path fill="#3c3d3d" d="M11 147c-3-1.6-5.4-3.8-7.1-6.7-1.7-2.8-2.6-6.1-2.6-9.7 0-3.6.8-6.8 2.6-9.7 1.7-2.8 4.1-5.1 7.1-6.7 3-1.6 6.5-2.4 10.3-2.4 3.8 0 7 .8 9.9 2.4s4.9 3.9 6.1 6.9l-8 4.4c-1.9-3.3-4.5-5-8-5-2.7 0-4.9.9-6.7 2.7-1.8 1.8-2.7 4.3-2.7 7.4 0 3.1.9 5.6 2.7 7.4s4 2.7 6.7 2.7c3.5 0 6.2-1.7 8-5l8 4.5c-1.3 2.9-3.3 5.1-6.1 6.8-2.8 1.6-6.1 2.4-9.9 2.4-3.8 0-7.3-.8-10.3-2.4zm47.1-33.7c2.1-.9 4.5-1.4 7.3-1.4v9.8c-1.1-.1-1.9-.1-2.3-.1-3 0-5.3.8-7 2.5-1.7 1.7-2.5 4.2-2.5 7.6v17.2H43.2v-36.5h9.9v4.8c1.3-1.7 2.9-3 5-3.9zm47.9 20.3H79c.5 2.3 1.6 4 3.5 5.3 1.8 1.3 4.1 2 6.8 2 1.9 0 3.5-.3 4.9-.8 1.4-.6 2.8-1.5 4-2.7l5.5 6.1c-3.4 3.9-8.3 5.9-14.7 5.9-4 0-7.6-.8-10.7-2.4-3.1-1.6-5.5-3.8-7.2-6.7-1.7-2.8-2.5-6.1-2.5-9.7 0-3.6.8-6.8 2.5-9.7 1.7-2.9 3.9-5.1 6.8-6.7s6.1-2.4 9.7-2.4c3.5 0 6.7.8 9.5 2.3 2.8 1.5 5.1 3.7 6.7 6.6 1.6 2.9 2.4 6.2 2.4 10 0 .2 0 1.2-.2 2.9zm-24.2-11.7c-1.6 1.4-2.6 3.2-2.9 5.6h17.6c-.3-2.3-1.3-4.1-2.9-5.5-1.6-1.4-3.5-2.1-5.8-2.1-2.4 0-4.4.7-6 2zm57.5-6c3 2.7 4.4 6.7 4.4 12.2v20.8H134v-4.5c-2 3.4-5.6 5.1-10.9 5.1-2.7 0-5.1-.5-7.1-1.4-2-.9-3.5-2.3-4.6-3.9-1.1-1.7-1.6-3.6-1.6-5.7 0-3.4 1.2-6.1 3.7-8 2.5-1.9 6.4-2.9 11.6-2.9h8.2c0-2.3-.7-4.1-2.1-5.3-1.4-1.2-3.4-1.9-6.2-1.9-1.9 0-3.8.3-5.6.9-1.8.6-3.4 1.4-4.7 2.5l-3.7-7.4c2-1.4 4.3-2.5 7-3.3 2.7-.8 5.5-1.1 8.4-1.1 5.7-.1 9.9 1.2 12.9 3.9zm-8.9 25.2c1.4-.8 2.3-2.1 2.9-3.7v-3.7h-7.1c-4.2 0-6.4 1.4-6.4 4.3 0 1.4.5 2.4 1.6 3.2 1 .8 2.5 1.2 4.3 1.2 1.8-.1 3.4-.5 4.7-1.3zm45.7 6c-1 .8-2.3 1.3-3.8 1.7-1.5.4-3 .6-4.7.6-4.2 0-7.5-1.1-9.8-3.3-2.3-2.2-3.5-5.5-3.5-9.8v-15h-5.5v-8.1h5.5v-8.9h10.4v8.9h8.9v8.1h-8.9v14.8c0 1.5.4 2.7 1.2 3.6.8.8 1.9 1.3 3.3 1.3 1.6 0 3-.5 4.2-1.4l2.7 7.5zm6.4-41.4c-1.2-1.1-1.8-2.5-1.8-4.2s.6-3.1 1.8-4.2c1.2-1.1 2.8-1.7 4.6-1.7 1.9 0 3.5.5 4.6 1.6 1.2 1.1 1.8 2.4 1.8 4.1 0 1.8-.6 3.2-1.8 4.4-1.2 1.1-2.7 1.7-4.6 1.7-1.9 0-3.4-.6-4.6-1.7zm-.5 6.7h10.4v36.4H182v-36.4zm55.4 0l-15.1 36.4h-10.7l-15-36.4h10.7l9.9 24.8 10.2-24.8h10zm38 21.2h-27c.5 2.3 1.6 4 3.4 5.3 1.8 1.3 4.1 2 6.8 2 1.9 0 3.5-.3 4.9-.8 1.4-.6 2.8-1.5 4-2.7l5.5 6.1c-3.4 3.9-8.3 5.9-14.7 5.9-4 0-7.6-.8-10.7-2.4-3.1-1.6-5.5-3.8-7.2-6.7-1.7-2.8-2.5-6.1-2.5-9.7 0-3.6.8-6.8 2.5-9.7 1.7-2.9 3.9-5.1 6.8-6.7 2.9-1.6 6.1-2.4 9.7-2.4 3.5 0 6.7.8 9.5 2.3 2.8 1.5 5.1 3.7 6.7 6.6 1.6 2.9 2.4 6.2 2.4 10 .1.2 0 1.2-.1 2.9zm-24.2-11.7c-1.6 1.4-2.6 3.2-2.9 5.6h17.6c-.3-2.3-1.3-4.1-2.9-5.5-1.6-1.4-3.5-2.1-5.8-2.1-2.5 0-4.4.7-6 2zm63.7-5.9c2.7 2.7 4.1 6.7 4.1 12.1V149h-10.4v-19.2c0-2.9-.6-5.1-1.9-6.5-1.2-1.4-3-2.1-5.4-2.1-2.6 0-4.7.8-6.2 2.5-1.6 1.6-2.3 4.1-2.3 7.3v18h-10.4V98.6h10.4v17.6c1.4-1.4 3-2.5 5-3.2 2-.7 4.1-1.1 6.4-1.1 4.4 0 8 1.4 10.7 4.1zm14-10.3c-1.2-1.1-1.8-2.5-1.8-4.2s.6-3.1 1.8-4.2c1.2-1.1 2.8-1.7 4.6-1.7 1.9 0 3.5.5 4.6 1.6 1.2 1.1 1.8 2.4 1.8 4.1 0 1.8-.6 3.2-1.8 4.4-1.2 1.1-2.7 1.7-4.6 1.7-1.9 0-3.4-.6-4.6-1.7zm-.5 6.7h10.4v36.4h-10.4v-36.4zm19.9-13.8h10.4v50.3h-10.4V98.6zm20 0h10.4v50.3h-10.4V98.6z"/><path fill="#bd9e7c" d="M387.6 147.5c-1.2-1.3-1.9-2.8-1.9-4.7 0-1.9.6-3.5 1.9-4.7 1.2-1.2 2.8-1.8 4.6-1.8 1.8 0 3.3.6 4.6 1.8 1.2 1.2 1.9 2.8 1.9 4.7 0 1.9-.6 3.5-1.9 4.7-1.2 1.3-2.8 1.9-4.6 1.9s-3.3-.6-4.6-1.9z"/></g></switch></svg>