<svg xmlns="http://www.w3.org/2000/svg" role="img" viewBox="17.84 27.84 164.06 144.06"><title>Easy Visible Supply Chain Management Company Limited logo</title><path d="M78 35h1v1h-1zm-4 7h1v1h-1zm-4 7h1v1h-1zm22 5h1v1h-1zm-26 2h1v1h-1zm30 5h1v1h-1z" fill="#e28a5e"/><path d="M63 66h1v1h-1zm30 6h1v1h-1zm-24 5h1v1h-1zm20 2h1v1h-1zm-16 5h1v1h-1zm12 2h1v1h-1zm-8 5h1v1h-1zm4 2h1v1h-1zm-54 26h5v1h-5zm5 0h1v1h-1zm15 0h6v1h-6zm6 0h1v1h-1zm6 0h6v1h-6zm6 0h1v1h-1zm12 0h1v1h-1zm19 0h6v1h-6zm6 0h1v1h-1zm8 0h10v1h-10zm10 0h1v1h-1zm17 0h6v1h-6zm6 0h1v1h-1zm14 0h15v1h-15zm15 0h1v1h-1zm1 1h1v4h-1zm-46 1h1v1h-1zm-74 1h1v1h-1zm75 0h1v1h-1zm45 2h1v1h-1zm-128 1h1v1h-1zm7 0h1v1h-1zm70 1h1v1h-1zm-71 2h1v1h-1zm27 1h1v1h-1zm-28 2h1v1h-1zm67 0h2v1h-2zm2 0h1v1h-1zm45 0h8v1h-8zm8 0h1v1h-1zm-123 3h1v1h-1zm25 0h1v1h-1zm4 2h1v1h-1zm-30 1h1v1h-1zm74 0h1v1h-1zm-31 2h1v1h-1zm-44 1h1v1h-1zm37 0h1v1h-1zm-7 1h1v1h-1zm-31 2h1v1h-1zm24 0h1v1h-1zm21 0h1v1h-1zm82 1h1v5h-1zm-128 2h1v1h-1zm45 0h1v1h-1zm-18 1h1v1h-1zm1 1h1v1h-1zm-29 1h1v1h-1zm81 0h1v1h-1zm48 0h1v1h-1zm-95 1h1v1h-1zm-53 9h1v1h-1zm41 0h1v1h-1zm74 0h1v1h-1zm-116 1h1v1h-1zm25 0h1v1h-1zm18 0h1v1h-1zm26 0h1v1h-1zm15 0h2v2h-2zm2 0h1v1h-1zm6 0h1v1h-1zm23 0h1v1h-1zm9 0h1v1h-1zm-126 1h1v1h-1zm83 0h1v1h-1zm9 0h1v1h-1zm11 0h1v2h-1zm36 0h1v1h-1zm-57 1h1v1h-1zm4 0h1v1h-1zm1 0h1v1h-1zm14 0h2v1h-2zm-85 1h1v1h-1zm43 0h1v1h-1zm13 0h1v1h-1zm16 0h1v3h-1zm15 0h1v1h-1zm8 0h1v1h-1zm20 0h2v1h-2zm15 0h1v1h-1zm-143 1h1v1h-1zm13 0h1v1h-1zm7 0h1v1h-1zm10 0h1v2h-1zm86 0h1v1h-1zm12 0h1v1h-1zm-130 1h1v1h-1zm9 0h1v1h-1zm33 0h1v1h-1zm81 0h1v1h-1zm-120 1h1v1h-1zm23 0h1v1h-1zm6 0h1v1h-1zm14 0h1v1h-1zm41 0h1v1h-1z" fill="#2a5576"/><path d="M94 71h1v1h-1zM76 90h1v1h-1zm-30 30h1v1h-1zm110 1h1v27h-1zm-85 2h1v1h-1zm11 2h1v1h-1zm1 1h1v1h-1zm47 0h1v1h-1zm0 1h1v1h-1zm-60 2h1v1h-1zm10 1h1v1h-1zm93 2h1v4h-1zm-96 4h1v1h-1zm96 0h1v1h-1zm-52 7h1v1h-1zm35 5h1v1h-1zm-47 2h1v1h-1zm11 0h1v1h-1zm-42 9h1v1h-1zm30 0h1v1h-1zm33 0h1v1h-1zm9 1h1v6h-1zm8 0h1v6h-1zm-132 1h1v1h-1zm126 2h1v1h-1zm4 0h2v1h-2zm-16 1h1v1h-1zm3 0h1v1h-1zm-5 1h1v1h-1zm-74 1h1v1h-1zm66 0h1v1h-1zm20 0h1v1h-1zm8 0h1v1h-1zm-126 1h1v1h-1zm36 0h1v1h-1zm17 0h1v1h-1zm27 0h1v1h-1zm17 0h1v1h-1z" fill="#6c89a0"/><path d="M83 31h36v1H83zm36 0h1v1h-1zm1 1h1v1h-1zm-43 3h1v1h-1zm8 2h1v1h-1zm-1 1h1v1h-1zm2 1h1v1h-1zm38 0h1v1h-1zm-51 3h1v1h-1zm16 2h1v1h-1zm-1 1h1v1h-1zm2 1h1v1h-1zm38 0h1v1h-1zm1 2h1v1h-1zm-60 1h1v1h-1zm24 2h1v1h-1zm-1 1h1v1h-1zm2 1h1v1h-1zm38 0h1v1h-1zm-39 1h1v1h-1zm40 1h1v1h-1zm-68 1h1v1h-1zm33 4h1v1h-1zm38 0h1v1h-1zm-39 1h1v1h-1zm40 1h1v1h-1zm-37 1h1v1h-1zm37 0h1v1h-1z" fill="#fef5ef"/><path d="M78 34h1v1h-1zm6 5h1v1h-1zm-10 2h1v1h-1zm14 5h1v1h-1zm4 7h1v1h-1zm-27 4h1v1h-1zm31 3h1v1h-1z" fill="#f1c7b2"/><path d="M79 34h1v1h-1zm3 3h1v1h-1zm1 2h1v1h-1zm-8 2h1v1h-1zm12 5h1v1h-1zm-16 2h1v1h-1zm20 5h1v1h-1zm-24 2h1v1h-1zm-1 2h1v1h-1zm29 3h1v2h-1zm-31 2h32v1H64zm32 0h1v1h-1z" fill="#da6930"/><path d="M100 66h1v1h-1zm33 6h1v1h-1zm-37 1h1v1h-1zm33 6h1v1h-1zm-37 1h1v1h-1zm33 6h1v1h-1zm-37 1h1v1h-1zm33 6h1v1h-1zm-37 1h1v1h-1zm-1 2h1v1h-1z" fill="#7eb7dc"/><path d="M96 67h1v1h-1zm-4 7h1v1h-1zM74 86h1v1h-1zm4 7h1v1h-1zm-52 26h1v1h-1zm59 0h1v1h-1zm24 0h1v1h-1zm13 0h1v1h-1zm-76 2h1v1h-1zm27 0h1v1h-1zm-1 1h1v1h-1zm18 1h1v1h-1zm1 4h1v1h-1zm-20 4h1v1h-1zm59 5h1v1h-1zm-50 1h1v1h-1zm37 0h1v1h-1zm4 0h1v1h-1zm-39 1h1v1h-1zm49 0h1v1h-1zm-61 2h1v1h-1zm61 3h1v1h-1zm-44 6h1v1h-1zm-54 10h1v1h-1zm3 0h1v1h-1zm18 0h1v1h-1zm4 0h1v1h-1zm10 0h1v1h-1zm5 0h1v1h-1zm16 0h1v1h-1zm8 0h1v1h-1zm6 0h1v1h-1zm45 0h1v1h-1zm8 0h1v1h-1zm7 0h1v1h-1zm-67 1h1v1h-1zm26 0h1v1h-1zm4 0h1v6h-1zm44 0h1v1h-1zm7 0h1v1h-1zm-112 1h1v1h-1zm5 0h1v1h-1zm18 0h1v5h-1zm58 0h1v1h-1zm24 0h1v2h-1zm-146 1h1v1h-1zm50 0h2v1h-2zm2 0h1v1h-1zm80 0h1v1h-1zm-109 1h1v1h-1zm62 0h1v1h-1zm7 0h1v1h-1zm54 0h1v1h-1zm-131 1h1v1h-1zm77 0h1v1h-1zm-21 1h1v1h-1zm74 0h1v1h-1zm-83 1h2v1h-2zm2 0h1v1h-1zm19 0h1v1h-1zm19 0h1v1h-1zm13 1h1v1h-1z" fill="#3c6381"/><g fill="#0071ba"><path d="M101 67h34v1h-34zm34 0h1v1h-1zm-35 1h34v2h-34zm34 0h1v1h-1zm-35 2h34v2H99zm34 0h1v1h-1z"/><path d="M98 71h34v2H98zm34 1h1v1h-1zm-35 1h34v2H97zm34 0h1v1h-1zm-35 2h34v2H96zm34 0h1v1h-1zm-35 2h34v2H95zm34 0h1v1h-1z"/><path d="M94 78h34v3H94zm34 1h1v1h-1z"/><path d="M93 80h34v2H93zm34 1h1v1h-1zm-35 1h34v2H92zm34 0h1v1h-1zm-35 2h34v2H91zm34 0h1v1h-1zm-35 2h34v2H90zm34 0h1v1h-1z"/><path d="M89 87h34v2H89zm34 1h1v1h-1zm-35 1h34v2H88zm34 0h1v1h-1zm-35 2h34v2H87zm34 0h1v1h-1z"/><path d="M86 92h34v3H86zm34 1h1v1h-1z"/><path d="M85 94h34v1H85zm0 1h34v1H85zm34 0h1v1h-1z"/></g><path d="M97 72h1v1h-1zm35 1h1v1h-1zm-39 6h1v1h-1zm35 1h1v1h-1zm-39 6h1v1h-1zm35 1h1v1h-1zm-39 6h1v1h-1zm35 1h1v1h-1z" fill="#2e8bc6"/><g fill="#fff"><path d="M0 0h199v30H0zm199 0h1v199h-1zM0 30h199v1H0zm0 1h82v1H0zm82 0h1v3h-1zm38 0h79v1h-79zM0 32h78v2H0zm78 0h1v1h-1zm3 0h1v1h-1zm40 0h78v1h-78zm-43 1h1v1h-1zm43 0h78v1h-78zM0 34h77v2H0zm77 0h1v1h-1zm5 0h1v1h-1zm1 0h1v2h-1zm39 0h77v1h-77zm0 1h77v1h-77zM0 36h76v2H0zm76 0h1v1h-1zm7 0h1v1h-1zm1 0h1v1h-1zm39 0h76v1h-76zm-39 1h1v1h-1zm39 0h76v1h-76zM0 38h75v2H0zm75 0h1v1h-1zm10 0h1v1h-1zm39 0h75v1h-75zm-39 1h1v1h-1zm40 0h74v1h-74zM0 40h74v1H0zm74 0h1v1h-1zm12 0h1v1h-1zm39 0h74v1h-74zM0 41h73v2H0zm73 0h1v1h-1zm13 0h1v1h-1zm1 0h1v2h-1zm39 0h73v1h-73zm0 1h73v1h-73zM0 43h72v2H0zm72 0h1v1h-1zm15 0h1v1h-1zm1 0h1v1h-1zm39 0h72v1h-72zm-39 1h1v1h-1zm39 0h72v1h-72zM0 45h71v2H0zm71 0h1v1h-1zm18 0h1v1h-1zm39 0h71v1h-71zm-39 1h1v1h-1zm40 0h70v1h-70zM0 47h70v1H0zm70 0h1v1h-1zm20 0h1v1h-1zm39 0h70v1h-70zM0 48h69v2H0zm69 0h1v1h-1zm21 0h1v1h-1zm1 0h1v2h-1zm39 0h69v1h-69zm0 1h69v1h-69zM0 50h68v2H0zm68 0h1v1h-1zm23 0h1v1h-1zm1 0h1v1h-1zm39 0h68v1h-68zm-39 1h1v1h-1zm39 0h68v1h-68zM0 52h67v2H0zm67 0h1v1h-1zm26 0h1v1h-1zm39 0h67v1h-67zm-39 1h1v1h-1zm40 0h66v1h-66zM0 54h66v1H0zm66 0h1v1h-1zm28 0h1v1h-1zm39 0h66v1h-66zM0 55h65v2H0zm65 0h1v1h-1zm29 0h1v1h-1zm1 0h1v2h-1zm39 0h65v1h-65zm0 1h65v1h-65zM0 57h64v2H0zm64 0h1v1h-1zm31 0h1v1h-1zm1 0h1v2h-1zm39 0h64v1h-64zm0 1h64v1h-64zM0 59h63v2H0zm63 0h1v1h-1zm33 0h1v1h-1zm1 0h1v1h-1zm39 0h63v1h-63zm-39 1h1v1h-1zm40 0h62v1h-62zM0 61h62v56H0zm62 0h1v1h-1zm36 0h1v6h-1zm39 0h62v1h-62zm-38 1h1v4h-1zm39 0h61v55h-61z"/><path d="M62 64h137v1H62zm37 2h1v1h-1zm-1 1h1v1h-1zm39 0h62v50h-62zm-75 1h1v49h-1zm35 0h1v1h-1zm-34 1h1v48h-1zm34 0h1v1h-1z"/><path d="M136 69h63v48h-63zm-40 1h1v1h-1zm-32 1h1v46h-1zm32 0h1v1h-1z"/><path d="M135 71h64v46h-64zm-40 1h1v1h-1z"/><path d="M134 72h65v45h-65zm-69 1h1v44h-1zm29 0h1v1h-1zm1 0h1v1h-1zm-1 1h1v1h-1z"/><path d="M133 74h66v43h-66zm-67 1h1v42h-1zm27 0h1v1h-1zm-26 1h1v81h-1zm26 0h1v1h-1z"/><path d="M132 76h67v41h-67zm-40 1h1v1h-1zm-24 1h1v79h-1zm24 0h1v1h-1z"/><path d="M131 78h68v39h-68zm-40 1h1v1h-1z"/><path d="M130 79h69v38h-69zm-61 1h1v46h-1zm21 0h1v1h-1zm1 0h1v1h-1zm-1 1h1v1h-1z"/><path d="M129 81h70v36h-70zm-59 1h1v40h-1zm19 0h1v1h-1zm-18 1h1v38h-1zm18 0h1v1h-1z"/><path d="M128 83h71v34h-71zm-40 1h1v1h-1zm-16 1h1v35h-1zm16 0h1v1h-1z"/><path d="M127 85h72v32h-72zm-40 1h1v1h-1z"/><path d="M126 86h73v31h-73zm-53 1h1v32h-1zm13 0h1v1h-1zm1 0h1v1h-1zm-1 1h1v1h-1z"/><path d="M125 88h74v29h-74zm-51 1h1v29h-1zm11 0h1v1h-1zm-10 1h1v28h-1zm10 0h1v1h-1z"/><path d="M124 90h75v27h-75zm-40 1h1v1h-1zm-8 1h1v25h-1zm8 0h1v1h-1z"/><path d="M123 92h76v25h-76zm-40 1h1v1h-1z"/><path d="M122 93h77v24h-77zm-45 1h1v23h-1zm5 0h1v23h-1zm1 0h1v1h-1z"/><path d="M121 95h78v22h-78zm-43 1h1v21h-1zm3 0h1v21h-1z"/><path d="M79 97h3v20h-3zm41 0h79v20h-79z"/><path d="M83 98h116v19H83zM0 117h199v1H0zm0 1h24v39H0zm24 0h1v39h-1zm11 0h10v2H35zm10 0h1v2h-1zm11 0h1v40h-1zm1 0h1v1h-1zm17 0h1v1h-1zm1 0h1v1h-1zm11 0h8v1h-8zm8 0h1v41h-1zm10 0h3v39h-3zm3 0h1v40h-1zm17 0h11v1h-11zm11 0h1v1h-1zm10 0h10v24h-10zm10 0h1v40h-1zm19 0h25v1h-25zm-101 1h1v1h-1zm15 0h6v1h-6zm39 0h7v1h-7zm7 0h1v43h-1zm41 0h24v38h-24zm-140 1h10v1H35zm10 0h1v1h-1zm27 0h1v1h-1zm17 0h5v1h-5zm39 0h6v1h-6zm-103 1h1v36h-1zm11 0h8v3h-8zm8 0h1v2h-1zm11 0h1v37h-1zm16 0h1v1h-1zm19 0h4v1h-4zm39 0h5v1h-5zm-59 1h1v1h-1zm21 0h3v1h-3zm39 0h4v1h-4zm-86 1h1v1h-1zm48 0h2v2h-2zm39 0h3v12h-3zm-105 1h1v34h-1zm10 0h7v1h-7zm7 0h1v3h-1z"/><path d="M54 124h2v33h-2zm-17 1h6v2h-6zm55 0h2v1h-2zm-23 1h1v1h-1zm11 0h1v3h-1zm1 0h1v3h-1zm12 0h1v31h-1zm-66 1h1v31h-1zm10 0h6v1h-6zm6 0h1v1h-1z"/><path d="M53 127h3v30h-3zm26 0h3v1h-3zm3 0h1v3h-1zm35 0h4v2h-4zm4 0h1v2h-1zm44 0h34v2h-34zm-127 1h4v3h-4zm4 0h1v2h-1zm37 0h3v1h-3zm-10 1h1v9h-1z"/><path d="M80 129h14v1H80zm37 0h4v1h-4zm4 0h1v1h-1zm44 0h34v1h-34zm-137 1h1v27h-1zm14 0h1v1h-1zm10 0h4v27h-4zm30 0h12v1H82zm92 0h25v12h-25zm-136 1h3v1h-3zm3 0h1v3h-1zm44 0h9v1h-9zm45 0h4v3h-4zm-91 1h2v2h-2zm31 0h1v6h-1zm17 0h7v1h-7zm-58 1h1v24h-1z"/><path d="M51 133h5v24h-5zm20 0h1v5h-1zm17 0h6v1h-6zm41 0h5v1h-5zm-90 1h2v1h-2zm2 0h1v1h-1zm49 0h4v1h-4zm40 0h4v1h-4zm-90 1h1v2h-1zm32 0h1v3h-1zm1 0h1v3h-1zm18 0h3v1h-3zm40 0h3v1h-3zm-101 1h1v21h-1z"/><path d="M50 136h6v21h-6zm24 0h1v2h-1zm18 0h2v1h-2zm40 0h2v1h-2zm-92 1h1v1h-1zm35 0h2v1h-2zm2 0h1v1h-1zm15 0h2v1h-2zm40 0h2v1h-2zm-63 1h10v1H69zm10 0h1v4h-1zm54 0h1v21h-1zm-102 1h1v25h-1z"/><path d="M49 139h7v18h-7zm29 0h3v1h-3zm3 0h1v4h-1zm36 0h5v3h-5zm5 0h1v2h-1zm43 0h34v3h-34z"/><path d="M80 140h2v2h-2zm2 0h1v2h-1zm40 1h1v1h-1zm-90 1h1v15h-1zm16 0h8v15h-8zm31 0h3v1h-3zm3 0h1v1h-1zm35 0h4v1h-4zm4 0h1v1h-1zm24 0h10v1h-10zm20 0h34v1h-34zm-84 1h1v1h-1zm73 0h1v1h-1zm-22 1h2v13h-2zm-99 1h1v12h-1z"/><path d="M47 145h9v12h-9zm22 0h1v13h-1zm23 0h2v12h-2zm39 1h3v11h-3zm-61 1h1v11h-1z"/><path d="M91 147h3v10h-3zm-57 1h1v9h-1zm12 0h10v9H46zm25 0h1v10h-1zm59 0h4v9h-4zm-58 1h1v8h-1z"/><path d="M89 149h5v8h-5zm39 0h6v8h-6zm-55 1h1v7h-1z"/><path d="M88 150h6v7h-6zm39 0h7v7h-7zm-92 1h41v6H35zm41 0h1v6h-1z"/><path d="M85 151h114v6H85z"/><path d="M77 152h122v5H77zm-77 5h199v1H0zm0 1h22v1H0zm22 0h1v1h-1zm4 0h1v1h-1zm1 0h1v1h-1zm13 0h1v1h-1zm1 0h1v1h-1zm6 0h1v1h-1zm1 0h1v1h-1zm3 0h1v1h-1zm4 0h1v1h-1zm1 0h1v1h-1zm4 0h4v1h-4zm4 0h1v1h-1zm5 0h2v1h-2zm2 0h1v1h-1zm8 0h2v1h-2zm2 0h1v1h-1zm4 0h2v1h-2zm2 0h1v1h-1zm8 0h1v1h-1zm3 0h3v1h-3zm3 0h1v41h-1zm5 0h1v1h-1zm1 0h1v1h-1zm4 0h2v1h-2zm2 0h1v2h-1zm4 0h2v1h-2zm2 0h1v6h-1zm4 0h1v1h-1zm1 0h1v1h-1zm3 0h2v1h-2zm2 0h1v1h-1zm6 0h2v1h-2zm2 0h1v1h-1zm4 0h2v1h-2zm2 0h1v1h-1zm10 0h2v1h-2zm2 0h1v1h-1zm4 0h1v1h-1zm9 0h1v1h-1zm1 0h1v1h-1zm9 0h21v1h-21zM0 159h21v40H0zm21 0h1v1h-1zm39 0h3v2h-3zm3 0h1v1h-1zm12 0h1v2h-1zm5 0h1v3h-1zm1 0h1v1h-1zm4 0h1v1h-1zm1 0h1v3h-1zm8 0h1v1h-1zm5 0h2v40h-2zm7 0h1v1h-1zm6 0h1v3h-1zm5 0h2v1h-2zm6 0h1v1h-1zm5 0h1v3h-1zm1 0h1v1h-1zm4 0h2v1h-2zm2 0h1v1h-1zm8 0h1v1h-1zm11 0h1v1h-1zm14 0h1v1h-1zm11 0h20v40h-20zm-127 1h1v4h-1zm61 0h1v1h-1zm5 0h1v1h-1zm17 0h1v1h-1zm19 0h1v1h-1zm-95 1h3v38h-3zm3 0h1v1h-1zm13 0h1v1h-1zm43 0h1v1h-1z"/><path d="M178 161h21v38h-21zm-112 1h1v2h-1zm1 0h1v2h-1zm13 0h1v1h-1zm6 0h1v1h-1zm26 0h1v1h-1zm16 0h1v1h-1zm6 0h1v1h-1zm39 0h1v37h-1z"/><path d="M177 162h22v37h-22zm-124 1h1v1h-1zm5 0h3v36h-3zm10 0h2v1h-2zm2 0h1v1h-1zm-39 1h1v1h-1zm21 0h1v1h-1zm1 0h1v1h-1zm9 0h1v35h-1zm4 0h1v1h-1zm1 0h1v1h-1zm52 0h1v1h-1zm-79 1h1v34h-1zm1 0h1v34h-1zm6 0h1v34h-1z"/><path d="M38 166h3v33h-3zm7 0h2v33h-2zm30 0h1v33h-1zm19 0h1v33h-1zm29 0h1v33h-1zm45 0h1v33h-1zm-147 1h1v32h-1zm6 0h1v32h-1zm1 0h1v32h-1zm6 0h1v32h-1zm29 0h1v32h-1zm7 0h1v32h-1zm13 0h1v32h-1zm32 0h1v32h-1zm16 0h1v32h-1zm5 0h1v32h-1zm7 0h1v32h-1zm-121 1h1v31h-1zm1 0h1v31h-1z"/><path d="M26 168h3v31h-3zm3 0h1v31h-1zm3 0h33v31H32zm33 0h1v31h-1zm3 0h70v31H68zm70 0h1v31h-1zm3 0h58v31h-58z"/><path d="M24 169h175v30H24zM0 199h199v1H0zm199 0h1v1h-1z"/></g><path d="M79 33h1v1h-1zm4 5h1v1h-1zm-8 2h1v1h-1zm12 5h1v1h-1zm-16 2h1v1h-1zm20 5h1v1h-1zm4 7h1v1h-1z" fill="#e59770"/><path d="M81 34h1v1h-1zm-5 4h1v1h-1zm9 3h1v1h-1zm-13 4h1v1h-1zm-4 7h1v1h-1zm-4 7h1v1h-1z" fill="#ecb295"/><path d="M83 33h1v1h-1zm40 5h1v1h-1zm-36 2h1v1h-1zm40 5h1v1h-1zm-36 2h1v1h-1zm40 5h1v1h-1zm-36 2h1v1h-1zm40 5h1v1h-1zm-36 2h1v1h-1zm2 2h35v1h-35zm35 0h1v1h-1z" fill="#fadcc6"/><path d="M82 36h1v1h-1zm4 7h1v1h-1zm4 7h1v1h-1zm-23 4h1v1h-1zm27 3h1v1h-1zm-31 4h1v1h-1z" fill="#e8a27f"/><path d="M101 65h35v1h-35zm35 0h1v1h-1zm-15 29h1v1h-1zm-38 1h1v1h-1z" fill="#d6e8f4"/><path d="M95 69h1v1h-1zm-4 7h1v1h-1zm-20 5h1v1h-1zm4 7h1v1h-1zm4 7h1v1h-1zm-25 25h1v1h-1zm4 0h1v29h-1zm68 0h1v1h-1zm10 0h1v29h-1zm-83 3h1v1h-1zm76 0h1v1h-1zm-84 1h1v1h-1zm7 2h1v1h-1zm64 0h1v1h-1zm-46 1h1v1h-1zm0 1h1v1h-1zm-19 1h1v1h-1zm65 1h1v1h-1zm-66 2h1v1h-1zm34 0h1v1h-1zm2 1h1v1h-1zm5 5h1v1h-1zm-51 2h1v1h-1zm37 0h1v1h-1zm47 1h1v1h-1zm-41 2h1v1h-1zm61 0h1v1h-1zm9 1h1v5h-1zm-95 5h1v1h-1zm78 0h1v1h-1zm17 0h1v1h-1zM46 159h1v1h-1zm3 0h1v1h-1zm4 0h1v1h-1zm4 0h1v1h-1zm53 0h1v1h-1zm67 0h1v1h-1zm-99 1h1v6h-1zm6 0h1v1h-1zm46 0h1v1h-1zm12 0h1v1h-1zm-120 2h1v1h-1zm41 0h1v1h-1zm54 0h1v1h-1zm20 0h1v1h-1zm10 0h1v1h-1zm15 0h1v1h-1zm-139 1h1v1h-1zm81 0h1v1h-1zm4 0h1v1h-1zm5 0h1v1h-1zm11 0h1v1h-1zm19 0h1v1h-1zm-97 1h1v1h-1zm22 1h1v1h-1zm12 0h1v1h-1zm54 0h1v1h-1zm19 0h1v1h-1zm-120 1h1v1h-1zm45 0h1v1h-1zm-53 1h1v1h-1zm5 0h1v1h-1zm36 0h1v1h-1zm52 0h1v1h-1zm22 0h1v1h-1zm26 0h1v1h-1z" fill="#50738e"/><path d="M99 69h1v1h-1zm35 0h1v1h-1zm-3 5h1v1h-1zm-36 2h1v1h-1zm35 0h1v1h-1zm-39 7h1v1h-1zm35 0h1v1h-1zm-36 2h1v1h-1zm32 5h1v1h-1z" fill="#0b77bd"/><path d="M64 67h1v1h-1zm31 0h1v1h-1zm-1 2h1v1h-1zm-28 1h1v1h-1zm27 1h1v1h-1zm-26 1h1v1h-1zm1 2h1v1h-1zm23 0h1v1h-1zm-1 2h1v1h-1zm-20 1h1v1h-1zm19 1h1v1h-1zm-18 1h1v1h-1zm1 2h1v1h-1zm15 0h1v1h-1zm-1 2h1v1h-1zm-12 1h1v1h-1zm11 1h1v1h-1zm-10 1h1v1h-1zm1 2h1v1h-1zm7 0h1v1h-1zm-6 2h1v1h-1zm5 0h1v1h-1zm-1 2h1v1h-1zm-2 1h1v1h-1zm1 26h2v1h-2zm2 0h1v1h-1zm-55 1h6v1h-6zm6 0h1v1h-1zm14 0h6v1h-6zm6 0h1v1h-1zm6 0h6v1h-6zm6 0h1v1h-1zm11 0h1v1h-1zm1 0h1v1h-1zm19 0h6v1h-6zm6 0h1v29h-1zm8 0h14v1h-14zm14 0h1v1h-1zm13 0h5v1h-5zm5 0h1v1h-1zm15 0h15v1h-15zm15 0h1v4h-1zm-139 1h1v1h-1zm14 0h1v1h-1zm12 0h1v28h-1zm15 0h1v1h-1zm13 0h1v1h-1zm9 0h1v28h-1zm30 0h1v1h-1zm11 0h1v28h-1zm20 0h1v28h-1zm-84 1h1v1h-1zm54 0h1v1h-1zm-81 1h1v1h-1zm26 0h1v1h-1zm17 0h1v1h-1zm39 0h1v1h-1zm-94 1h1v1h-1zm12 0h1v1h-1zm33 0h1v1h-1zm93 0h1v1h-1zm-138 1h1v1h-1zm56 0h1v1h-1zm39 0h1v3h-1zm-58 1h1v3h-1zm13 0h1v1h-1zm6 0h1v1h-1zm25 0h1v4h-1zm-80 1h1v1h-1zm10 0h1v1h-1zm-10 1h1v1h-1zm10 0h1v1h-1zm84 0h1v1h-1zm-58 1h1v1h-1zm-27 1h1v1h-1zm71 0h1v1h-1zm13 0h1v1h-1zm-92 1h1v1h-1zm8 0h1v1h-1zm28 0h1v1h-1zm8 0h1v1h-1zm-44 1h1v1h-1zm46 0h1v1h-1zm35 0h2v1h-2zm2 0h1v1h-1zm46 0h7v1h-7zm7 0h1v4h-1zm-98 1h1v1h-1zm10 0h1v1h-1zm-47 1h1v1h-1zm6 0h1v1h-1zm32 0h1v1h-1zm11 0h1v1h-1zm-49 1h1v1h-1zm6 0h1v1h-1zm34 0h1v1h-1zm51 0h1v1h-1zm-11 1h4v1h-4zm4 0h1v1h-1zm8 0h1v1h-1zm43 0h1v1h-1zm-130 1h1v1h-1zm40 0h1v1h-1zm-44 1h1v1h-1zm4 0h1v1h-1zm48 0h1v1h-1zm25 0h1v4h-1zm-77 1h1v1h-1zm87 0h1v2h-1zm-54 2h5v1h-5zm5 0h1v1h-1zm49 0h1v1h-1zm-10 1h1v1h-1zm-44 1h1v1h-1zm6 0h1v1h-1zm53 0h1v1h-1zm-59 1h1v1h-1zm46 0h5v1h-5zm5 0h1v1h-1zm8 0h1v1h-1zm14 0h8v1h-8zm8 0h1v5h-1zm12 0h8v1h-8zm8 0h1v5h-1zm-92 1h2v1h-2zm2 0h1v1h-1zm-10 1h1v1h-1zm17 0h1v1h-1zm-16 1h1v1h-1zm1 1h1v1h-1zm13 0h1v1h-1zm39 0h1v1h-1zm-89 1h6v1h-6zm6 0h1v1h-1zm16 0h6v1h-6zm6 0h1v1h-1zm11 0h1v1h-1zm1 0h1v1h-1zm7 0h1v1h-1zm1 0h1v1h-1zm11 0h6v1h-6zm6 0h1v1h-1zm8 0h12v1h-12zm12 0h1v1h-1zm15 0h15v1h-15zm15 0h1v1h-1zm5 0h15v1h-15zm15 0h1v1h-1zM23 160h1v2h-1zm6 0h1v5h-1zm14 0h1v1h-1zm3 0h1v1h-1zm8 0h1v1h-1zm11 0h1v1h-1zm12 0h1v3h-1zm6 0h1v1h-1zm9 0h1v1h-1zm12 0h1v1h-1zm11 0h1v1h-1zm6 0h1v1h-1zm10 0h1v1h-1zm10 0h1v1h-1zm10 0h1v1h-1zm5 0h1v1h-1zm1 0h1v1h-1zm9 0h1v6h-1zm-126 1h1v1h-1zm24 0h1v1h-1zm29 0h1v1h-1zm28 0h1v1h-1zm30 0h1v1h-1zm16 0h1v1h-1zm8 0h1v5h-1zm-152 1h1v1h-1zm17 0h1v1h-1zm24 0h1v2h-1zm72 0h1v1h-1zm-93 1h1v1h-1zm3 0h1v1h-1zm10 0h1v1h-1zm21 0h1v1h-1zm59 0h1v1h-1zm-93 1h1v2h-1zm21 0h1v1h-1zm53 0h1v1h-1zm-91 1h1v1h-1zm3 0h1v1h-1zm40 0h1v1h-1zm12 0h1v1h-1zm4 0h1v1h-1zm11 0h1v1h-1zm21 0h1v1h-1zm8 0h1v1h-1zm4 0h1v1h-1zm4 0h1v1h-1zm21 0h1v1h-1zm16 0h1v1h-1zm-147 1h2v1h-2zm2 0h1v1h-1zm5 0h2v1h-2zm2 0h1v1h-1zm4 0h1v1h-1zm7 0h1v1h-1zm7 0h1v1h-1zm1 0h1v1h-1zm17 0h1v1h-1zm9 0h1v1h-1zm36 0h1v1h-1zm12 0h1v1h-1zm13 0h1v1h-1zm8 0h1v1h-1zm1 0h1v1h-1zm7 0h1v1h-1zm3 0h1v1h-1zm4 0h1v1h-1zm1 0h1v1h-1zm4 0h1v1h-1zm9 0h1v1h-1z" fill="#06385e"/><path d="M65 70h1v1h-1zm23 11h1v1h-1zm-4 7h1v1h-1zm-4 7h1v1h-1zm-47 24h1v1h-1zm88 0h1v1h-1zm-34 1h1v1h-1zm-52 5h1v1h-1zm138 0h1v1h-1zm-129 3h1v1h-1zm78 2h1v1h-1zm7 0h1v1h-1zm-92 2h1v1h-1zm5 3h1v1h-1zm87 0h1v1h-1zm-90 4h1v1h-1zm32 1h5v1h-5zm5 0h1v1h-1zm8 1h1v1h-1zm-6 2h1v1h-1zm38 0h1v1h-1zm-34 1h1v1h-1zm2 6h1v1h-1zm-55 9h1v1h-1zm8 0h1v1h-1zm1 0h1v1h-1zm5 0h2v1h-2zm2 0h1v1h-1zm32 0h1v1h-1zm6 0h1v1h-1zm9 0h1v1h-1zm12 0h1v1h-1zm5 0h1v1h-1zm6 0h1v1h-1zm6 0h1v1h-1zm10 0h1v1h-1zm7 0h1v1h-1zm8 0h1v1h-1zm1 0h1v1h-1zm4 0h1v1h-1zm6 0h1v1h-1zm4 0h1v1h-1zm1 0h1v1h-1zm4 0h1v1h-1zm8 0h2v1h-2zm2 0h1v1h-1zm-94 1h1v1h-1zm6 0h1v1h-1zm44 0h1v1h-1zm41 0h1v1h-1zm-127 1h1v1h-1zm3 0h1v2h-1zm61 0h1v1h-1zm32 0h1v1h-1zm-96 1h1v1h-1zm11 0h1v1h-1zm53 0h1v1h-1zm42 0h1v1h-1zm1 0h2v1h-2zm2 0h1v2h-1zm-106 1h1v2h-1zm33 0h1v1h-1zm14 0h1v1h-1zm9 0h1v1h-1zm27 0h1v1h-1zm-50 1h1v1h-1zm27 0h1v2h-1zm23 0h1v1h-1zm14 0h1v1h-1zm9 0h1v1h-1zm-106 1h1v1h-1zm87 0h1v1h-1zm-27 1h1v1h-1zm19 0h1v1h-1z" fill="#325b7b"/><path d="M80 33h1v1h-1zm-3 4h1v1h-1zm7 3h1v1h-1zm-11 4h1v1h-1zm15 3h1v1h-1zm-19 4h1v1h-1zm24 5h1v1h-1zm-28 2h1v1h-1z" fill="#df8050"/><g fill="#ed7923"><path d="M85 33h34v1H85zm34 0h1v28h-1zm-34 1h34v1H85z"/><path d="M86 35h34v1H86zm34 0h1v26h-1zm-34 1h34v1H86z"/><path d="M87 37h34v1H87zm34 0h1v24h-1zm-33 1h33v1H88z"/><path d="M88 39h34v1H88zm34 0h1v22h-1zm-33 1h33v1H89z"/><path d="M89 41h34v1H89zm34 0h1v20h-1z"/><path d="M90 42h34v1H90zm34 0h1v19h-1zm-34 1h34v1H90z"/><path d="M91 44h34v1H91zm34 0h1v17h-1zm-33 1h33v1H92z"/><path d="M92 46h34v1H92zm34 0h1v15h-1zm-33 1h33v1H93z"/><path d="M93 48h34v1H93zm34 0h1v13h-1z"/><path d="M94 49h34v1H94zm34 0h1v12h-1zm-34 1h34v1H94z"/><path d="M95 51h34v1H95zm34 0h1v10h-1zm-33 1h33v1H96z"/><path d="M96 53h34v1H96zm34 0h1v8h-1zm-33 1h33v1H97z"/><path d="M97 55h34v1H97zm34 0h1v6h-1z"/><path d="M98 56h34v1H98zm34 0h1v5h-1zm-34 1h34v1H98z"/><path d="M99 58h34v1H99zm34 0h1v3h-1zm-33 1h33v1h-33z"/><path d="M100 60h34v1h-34zm34 0h1v1h-1zm-33 1h33v1h-33zm33 0h1v1h-1z"/></g><path d="M77 36h1v1h-1zm-4 7h1v1h-1zm16 5h1v1h-1zm-20 2h1v1h-1zm24 5h1v1h-1zm4 7h1v1h-1z" fill="#eebca2"/><path d="M96 72h1v1h-1zm37 1h1v1h-1zm-41 6h1v1h-1zm37 1h1v1h-1zm-41 6h1v1h-1zm37 1h1v1h-1zm-41 6h1v1h-1zm36 3h1v1h-1zm-37 1h35v1H83zm35 0h1v1h-1z" fill="#e1eff7"/><path d="M63 67h1v1h-1zm4 7h1v1h-1zm15 18h1v1h-1zm-6 27h1v1h-1zm47 0h1v1h-1zm-44 6h1v1h-1zm-1 1h1v1h-1zm-36 8h1v1h-1zm86 0h1v1h-1zm-79 1h1v1h-1zm26 0h1v1h-1zm14 0h1v1h-1zm-50 3h1v1h-1zm9 0h1v1h-1zm68 0h1v1h-1zm-69 3h1v1h-1zm117 2h1v1h-1zm-118 1h1v1h-1zm24 0h1v1h-1zm10 0h1v1h-1zm-35 3h1v1h-1zm29 2h1v1h-1zm52 0h1v1h-1zm-41 1h1v1h-1zm3 9h1v1h-1zm38 0h1v1h-1zm44 0h1v1h-1zm-142 1h1v1h-1zm14 0h1v6h-1zm11 0h1v1h-1zm67 0h1v6h-1zm-92 1h1v3h-1zm9 0h2v1h-2zm2 0h1v1h-1zm17 0h1v1h-1zm99 0h1v1h-1zm-118 1h1v1h-1zm126 0h1v1h-1zm-70 1h1v1h-1zm13 0h1v1h-1zm61 0h1v1h-1zm-139 1h1v1h-1zm35 0h1v1h-1zm41 0h1v2h-1zm-74 1h1v1h-1zm7 0h1v1h-1zm118 0h1v1h-1zm-113 1h1v1h-1zm62 0h1v1h-1zm16 0h1v1h-1zm-84 1h1v1h-1zm7 0h1v1h-1zm7 0h2v1h-2zm2 0h1v1h-1zm21 0h1v1h-1zm4 0h1v1h-1zm3 0h1v1h-1zm12 0h1v1h-1zm11 0h1v1h-1zm18 0h1v1h-1zm13 0h1v1h-1zm4 0h1v1h-1zm8 0h1v1h-1zm1 0h1v1h-1zm4 0h1v1h-1zm6 0h1v1h-1zm4 0h2v1h-2zm2 0h1v1h-1z" fill="#5e7e97"/><path d="M66 73h1v1h-1zm4 7h1v1h-1zm4 7h1v1h-1zm4 7h1v1h-1zm2 2h1v1h-1zm-34 23h1v1h-1zm20 0h1v1h-1zm78 0h1v1h-1zm-56 1h1v1h-1zm3 4h1v1h-1zm-11 1h1v1h-1zm1 0h1v1h-1zm49 4h1v1h-1zm-60 1h1v1h-1zm1 2h1v1h-1zm93 6h1v1h-1zm-94 7h1v1h-1zm18 4h1v1h-1zm-2 1h1v1h-1zm-2 9h1v1h-1zm7 0h1v1h-1zm31 0h1v1h-1zm8 0h1v1h-1zm35 0h1v1h-1zm-135 1h1v4h-1zm5 0h1v6h-1zm21 0h1v1h-1zm20 0h1v1h-1zm96 0h1v1h-1zm-96 1h1v1h-1zm57 0h1v1h-1zm-108 1h1v1h-1zm44 0h1v1h-1zm1 0h1v1h-1zm25 0h1v1h-1zm11 0h1v1h-1zm63 0h1v1h-1zm-86 1h1v1h-1zm32 0h1v1h-1zm16 0h1v1h-1zm-107 1h1v1h-1zm3 0h1v1h-1zm3 0h1v1h-1zm92 0h1v1h-1zm13 0h1v1h-1zm12 0h1v1h-1zm-123 1h1v1h-1zm3 0h1v1h-1zm4 0h1v1h-1zm32 0h1v1h-1zm80 0h1v1h-1zm5 0h1v1h-1zm4 0h1v1h-1zm4 0h1v1h-1zm7 0h1v1h-1zm-128 1h1v1h-1zm41 0h1v1h-1zm60 0h1v1h-1zm20 0h1v1h-1zm8 0h1v1h-1zm-135 1h1v1h-1zm64 0h1v1h-1zm74 0h1v1h-1zm7 0h2v1h-2zm2 0h1v1h-1z" fill="#a9bac7"/><path d="M84 33h1v1h-1zm38 5h1v1h-1zm-34 2h1v1h-1zm38 5h1v1h-1zm-34 2h1v1h-1zm38 5h1v1h-1zm-34 2h1v1h-1zm38 5h1v1h-1zm-34 2h1v1h-1z" fill="#ee8334"/><path d="M136 66h1v1h-1zm-1 2h1v1h-1zm-37 2h1v1h-1zm33 5h1v1h-1zm-37 2h1v1h-1zm33 5h1v1h-1zm-37 2h1v1h-1zm33 5h1v1h-1zm-37 2h1v1h-1zm33 5h1v1h-1z" fill="#4597cd"/><path d="M93 73h1v1h-1zm-4 7h1v1h-1zM77 92h1v1h-1zm9 27h1v1h-1zm38 0h1v1h-1zm-90 1h1v1h-1zm61 0h1v29h-1zm-50 3h1v1h-1zm85 2h1v1h-1zm-52 3h1v1h-1zm-35 2h1v1h-1zm130 1h1v1h-1zm-94 6h1v1h-1zm52 0h1v1h-1zm-40 8h1v1h-1zm37 3h1v1h-1zm-33 1h1v1h-1zm-59 1h1v1h-1zm46 9h1v1h-1zm11 0h1v1h-1zm39 0h1v1h-1zm18 0h1v1h-1zm8 0h1v1h-1zm9 0h1v1h-1zm9 3h1v4h-1zm-111 2h1v1h-1zm9 0h1v1h-1zm9 0h1v1h-1zm11 0h1v1h-1zm37 0h1v1h-1zm36 0h1v2h-1zm1 0h1v1h-1zm-15 2h1v1h-1zm14 0h1v1h-1zm9 0h1v1h-1zm-104 1h1v1h-1zm45 0h1v1h-1z" fill="#869eb1"/><path d="M119 32h1v1h-1zm-35 2h1v1h-1zm38 3h1v1h-1zm-34 4h1v1h-1zm38 3h1v1h-1zm-34 4h1v1h-1zm38 3h1v1h-1zm-34 4h1v1h-1zm38 3h1v1h-1zm-34 4h1v1h-1z" fill="#f5b280"/><path d="M62 66h1v1h-1zm33 4h1v1h-1zm-4 7h1v1h-1zm-4 7h1v1h-1zm-4 7h1v1h-1zm-5 27h1v1h-1zm50 3h1v1h-1zm-38 1h1v1h-1zm40 2h1v1h-1zm-94 2h1v1h-1zm47 1h1v1h-1zm1 1h6v1h-6zm6 0h1v1h-1zm-47 1h1v1h-1zm36 0h1v1h-1zm85 1h1v1h-1zm-79 2h1v1h-1zm-47 1h1v1h-1zm49 0h1v1h-1zm-46 3h1v1h-1zm-1 3h1v1h-1zm29 2h1v1h-1zm3 7h1v1h-1zm23 2h1v1h-1zm29 0h1v1h-1zm-94 9h1v1h-1zm5 0h1v1h-1zm41 0h1v1h-1zm38 0h1v1h-1zm50 0h1v1h-1zm-130 1h1v4h-1zm40 0h1v1h-1zm90 0h1v1h-1zm-140 1h1v1h-1zm24 0h1v1h-1zm5 0h1v1h-1zm21 0h1v1h-1zm7 0h1v1h-1zm26 0h1v1h-1zm33 0h1v1h-1zm3 0h1v1h-1zm-95 1h1v1h-1zm92 0h1v1h-1zm3 0h1v1h-1zm-78 1h1v1h-1zm-31 1h1v1h-1zm114 0h1v1h-1zm15 0h1v1h-1zm-96 1h1v1h-1zm7 0h2v1h-2zm2 0h1v1h-1zm32 0h1v1h-1zm14 0h1v1h-1zm-78 1h1v1h-1zm30 0h1v1h-1zm48 0h1v1h-1zm30 0h1v1h-1zm-126 1h1v1h-1zm53 0h1v1h-1zm12 0h1v1h-1zm28 0h1v1h-1zm18 0h1v1h-1zm28 0h1v1h-1z" fill="#b6c5d0"/><path d="M96 68h1v1h-1zm-4 7h1v1h-1zm-4 7h1v1h-1zm-4 7h1v1h-1zm-1 29h1v1h-1zm-17 2h1v29h-1zm78 0h1v22h-1zm-90 1h1v1h-1zm-19 2h1v1h-1zm18 1h1v1h-1zm-9 2h1v1h-1zm120 0h1v1h-1zm-112 1h1v1h-1zm26 0h1v1h-1zm44 0h1v2h-1zm0 2h1v1h-1zm-85 1h1v1h-1zm14 0h1v1h-1zm70 0h1v1h-1zm8 1h1v1h-1zm-87 2h1v1h-1zm8 0h1v1h-1zm23 1h1v1h-1zm-24 2h1v1h-1zm-10 1h1v1h-1zm52 0h1v1h-1zm-10 1h1v1h-1zm-33 1h1v1h-1zm-1 3h1v1h-1zm31 0h1v1h-1zm66 0h1v1h-1zm9 1h1v1h-1zm-107 2h1v1h-1zm44 2h1v1h-1zm-45 1h1v1h-1zm21 1h1v1h-1zm37 1h1v1h-1zm53 0h1v1h-1zm-116 9h1v1h-1zm29 0h1v1h-1zm1 1h1v1h-1zm83 0h1v1h-1zm-109 1h1v1h-1zm14 0h1v1h-1zm33 0h1v4h-1zm26 0h1v1h-1zm21 0h1v1h-1zm-94 1h1v1h-1zm21 0h1v1h-1zm48 0h1v1h-1zm22 0h1v1h-1zm6 0h1v1h-1zm-87 1h1v1h-1zm26 1h1v1h-1zm54 0h1v1h-1zm28 0h1v1h-1zm-118 1h1v1h-1zm8 0h1v1h-1zm14 0h1v1h-1zm25 0h1v1h-1zm14 0h1v1h-1zm42 0h1v1h-1zm-94 1h1v1h-1zm42 0h1v1h-1zm74 0h1v1h-1zm-132 1h1v1h-1zm104 0h1v1h-1zm9 0h1v1h-1zm8 0h1v1h-1z" fill="#9db1c0"/><path d="M136 67h1v1h-1zm-39 4h1v1h-1zm35 3h1v1h-1zm-39 4h1v1h-1zm35 3h1v1h-1zm-39 4h1v1h-1zm35 3h1v1h-1zm-39 4h1v1h-1zm35 3h1v1h-1z" fill="#93c3e2"/><path d="M64 69h1v1h-1zm4 7h1v1h-1zm4 7h1v1h-1zm13 4h1v1h-1zm-4 7h1v1h-1zm-1 24h2v1h-2zm2 0h1v1h-1zm21 1h1v1h-1zm53 0h1v1h-1zm-120 8h1v1h-1zm94 1h1v1h-1zm-2 4h1v1h-1zm-90 2h1v1h-1zm50 0h1v1h-1zm-47 3h1v1h-1zm132 0h1v1h-1zm-50 1h1v1h-1zm-6 5h3v1h-3zm3 0h1v1h-1zm25 0h7v1h-7zm7 0h1v1h-1zm13 0h7v1h-7zm7 0h1v1h-1zm-41 1h1v1h-1zm-1 2h1v1h-1zm-54 4h1v1h-1zm45 0h1v1h-1zm1 0h1v1h-1zm51 0h1v1h-1zm-145 9h1v1h-1zm14 0h1v1h-1zm74 0h1v1h-1zm4 0h1v1h-1zm16 1h1v1h-1zm-68 1h1v1h-1zm108 0h1v1h-1zm-69 1h1v1h-1zm67 0h1v4h-1zm-117 1h1v1h-1zm80 0h1v1h-1zm-68 1h1v1h-1zm1 0h1v1h-1zm6 0h1v1h-1zm32 0h1v1h-1zm7 0h1v1h-1zm-87 1h1v1h-1zm23 0h1v1h-1zm35 0h1v1h-1zm42 0h1v1h-1zm-46 1h1v1h-1zm34 0h1v1h-1zm8 0h1v1h-1zm8 0h1v1h-1zm10 0h1v1h-1zm32 0h1v1h-1zm-125 1h1v1h-1zm6 0h1v1h-1zm26 0h1v1h-1zm7 0h1v1h-1zm8 0h1v1h-1zm10 0h1v1h-1zm3 0h1v1h-1zm1 0h1v1h-1zm16 0h1v1h-1zm7 0h1v1h-1zm37 0h1v1h-1z" fill="#7893a8"/><path d="M81 33h1v1h-1zm40 1h1v1h-1zm-45 3h1v1h-1zm9 3h1v1h-1zm40 1h1v1h-1zm-53 3h1v1h-1zm17 3h1v1h-1zm-21 4h1v1h-1zm-4 7h1v1h-1zm33 0h1v1h-1zm-35 5h1v1h-1z" fill="#faece5"/><path d="M84 35h1v1h-1zm38 1h1v1h-1zm-36 6h2v1h-2zm2 0h1v1h-1zm38 1h1v1h-1zm-36 6h2v1h-2zm2 0h1v1h-1zm38 1h1v1h-1zm-36 6h2v1h-2zm2 0h1v1h-1zm38 1h1v1h-1zm-37 6h1v1h-1z" fill="#fceadd"/><path d="M87 39h1v1h-1zm36 0h1v1h-1zm-32 7h1v1h-1zm36 0h1v1h-1zm-32 7h1v1h-1zm36 0h1v1h-1zm-32 7h1v1h-1zm36 0h1v1h-1zm1 2h1v1h-1z" fill="#f2a164"/><path d="M65 71h1v1h-1zm4 7h1v1h-1zm4 7h1v1h-1zm6 33h1v1h-1zm16 1h1v1h-1zm-69 2h1v1h-1zm63 0h1v1h-1zm-62 3h1v1h-1zm43 1h1v1h-1zm51 1h1v1h-1zm-93 1h1v1h-1zm1 3h1v1h-1zm1 3h1v1h-1zm42 0h1v1h-1zm-41 3h1v1h-1zm1 3h1v1h-1zm1 3h1v1h-1zm90 0h1v1h-1zm50 1h1v1h-1zm-139 2h1v1h-1zm1 3h1v1h-1zm54 0h1v1h-1zm-45 2h1v1h-1zm14 0h1v1h-1zm65 0h1v1h-1zm13 0h1v1h-1zm17 0h1v1h-1zm-127 9h1v1h-1zm79 0h1v1h-1zm32 0h1v1h-1zm-82 1h1v1h-1zm36 0h1v1h-1zm64 0h1v1h-1zm10 0h1v6h-1zm-140 1h1v1h-1zm16 0h1v1h-1zm22 0h1v1h-1zm60 0h1v1h-1zm-82 1h1v1h-1zm44 0h1v1h-1zm44 0h1v1h-1zm13 0h1v1h-1zm-7 1h1v1h-1zm-95 1h1v1h-1zm53 0h1v2h-1zm25 0h1v1h-1zm21 0h1v1h-1zm13 0h1v1h-1zm4 0h1v1h-1zm-44 1h1v1h-1zm28 0h1v1h-1zm22 0h1v1h-1zm-79 1h1v1h-1zm8 0h2v1h-2zm2 0h1v1h-1zm22 0h1v1h-1zm16 0h1v1h-1zm24 0h1v1h-1zm10 0h1v1h-1zm-123 1h1v1h-1zm23 0h1v1h-1zm13 0h1v1h-1zm26 0h1v1h-1zm3 0h1v1h-1zm13 0h1v1h-1z" fill="#91a7b8"/><path d="M64 66h32v1H64zm32 0h1v1h-1zm-32 2h1v1h-1zm4 7h1v1h-1zm4 7h1v1h-1zm4 7h1v1h-1zm33 31h1v29h-1zm-82 2h1v1h-1zm7 0h1v1h-1zm37 2h1v1h-1zm-43 1h1v1h-1zm135 2h1v2h-1zm-134 1h1v1h-1zm7 1h1v1h-1zm127 0h1v1h-1zm-133 2h1v1h-1zm51 0h1v1h-1zm39 0h1v1h-1zm-77 1h1v1h-1zm-12 2h1v1h-1zm96 0h1v1h-1zm-89 2h1v1h-1zm-6 1h1v1h-1zm84 0h1v1h-1zm49 0h7v1h-7zm7 0h1v1h-1zm-131 2h1v1h-1zm90 0h1v1h-1zm32 0h1v3h-1zm-130 1h1v1h-1zm37 2h1v1h-1zm14 0h1v1h-1zm47 0h1v1h-1zm32 0h1v1h-1zm-129 1h1v1h-1zm45 1h1v1h-1zm51 1h1v1h-1zm-95 1h1v1h-1zm92 2h1v1h-1zm-18 1h1v1h-1zm-30 1h1v1h-1zm4 0h1v1h-1zm-59 9h1v1h-1zm43 0h1v1h-1zm72 0h1v1h-1zm-113 1h1v1h-1zm12 0h2v1h-2zm2 0h1v1h-1zm26 0h1v1h-1zm59 0h1v1h-1zm22 0h1v1h-1zm13 0h3v1h-3zm3 0h1v1h-1zm4 0h1v1h-1zm4 0h1v6h-1zm-121 1h1v3h-1zm34 0h1v1h-1zm46 0h1v1h-1zm6 0h1v1h-1zm24 0h1v5h-1zm-66 1h1v1h-1zm11 0h1v1h-1zm41 0h1v1h-1zm-102 1h1v1h-1zm1 0h1v1h-1zm72 0h1v1h-1zm6 0h1v1h-1zm25 0h1v1h-1zm-104 1h1v1h-1zm6 0h1v1h-1zm34 0h1v1h-1zm29 0h1v1h-1zm17 0h1v1h-1zm24 0h1v1h-1zm7 0h1v1h-1zm-139 1h1v1h-1zm85 0h1v1h-1zm17 0h1v1h-1zm17 0h1v1h-1zm20 0h1v1h-1zm-132 1h1v1h-1zm51 0h1v1h-1zm26 0h1v1h-1zm11 0h1v1h-1zm17 0h1v1h-1zm3 0h1v1h-1zm23 0h1v1h-1zm11 0h1v1h-1z" fill="#1c4a6d"/><path d="M90 78h1v1h-1zm-4 7h1v1h-1zm-28 34h1v1h-1zm78 0h1v1h-1zm-62 1h1v1h-1zm29 0h1v29h-1zm53 0h1v1h-1zm-121 4h1v1h-1zm56 1h1v1h-1zm-21 1h1v1h-1zm-26 1h1v1h-1zm72 0h1v2h-1zm0 2h1v1h-1zm-79 2h1v1h-1zm45 0h1v1h-1zm45 2h1v1h-1zm-37 3h1v1h-1zm-7 3h1v1h-1zm33 0h1v3h-1zm8 1h1v1h-1zm-8 2h1v1h-1zm-35 2h1v1h-1zm48 3h1v1h-1zm-26 2h1v1h-1zm53 0h1v1h-1zm-119 1h6v1h-6zm6 0h1v1h-1zm16 0h6v1h-6zm6 0h1v1h-1zm31 0h6v1h-6zm6 0h1v1h-1zm8 0h9v1h-9zm9 0h1v1h-1zm18 0h15v1h-15zm15 0h1v1h-1zm5 0h15v1h-15zm15 0h1v1h-1zm-140 9h1v1h-1zm33 0h1v1h-1zm7 0h1v1h-1zm24 0h1v1h-1zm18 1h1v1h-1zm-20 1h1v1h-1zm59 0h1v1h-1zm15 0h1v1h-1zm6 0h1v1h-1zm-135 1h1v1h-1zm42 0h1v1h-1zm52 0h1v1h-1zm15 0h1v1h-1zm-122 1h1v1h-1zm96 0h1v1h-1zm-17 1h1v1h-1zm18 0h1v1h-1zm-86 2h1v1h-1zm47 0h1v1h-1zm30 0h1v1h-1zm-91 1h1v1h-1zm33 0h1v1h-1zm30 0h1v1h-1zm3 0h1v1h-1zm8 0h1v1h-1zm16 0h1v1h-1zm12 0h1v1h-1zm3 0h1v1h-1zm17 0h1v1h-1zm3 0h1v1h-1zm12 0h1v1h-1zm11 0h1v1h-1z" fill="#65849b"/><path d="M62 65h1v1h-1zm75 1h1v1h-1zm-40 4h1v1h-1zm-32 2h1v1h-1zm28 5h1v1h-1zm-24 2h1v1h-1zm59 3h1v1h-1zm-40 1h1v1h-1zm-15 3h1v1h-1zm51 3h1v1h-1zm-40 1h1v1h-1zm-7 3h1v1h-1zm42 4h1v1h-1zm-61 21h1v1h-1zm27 0h1v1h-1zm18 0h1v1h-1zm18 0h1v1h-1zm15 0h1v1h-1zm20 0h1v1h-1zm18 1h1v1h-1zm-129 2h1v1h-1zm46 2h1v1h-1zm-48 5h1v1h-1zm130 2h1v1h-1zm-103 1h1v1h-1zm58 2h1v1h-1zm-39 1h1v1h-1zm1 1h1v1h-1zm-50 3h1v1h-1zm40 0h1v1h-1zm52 0h1v1h-1zm-62 1h7v1h-7zm7 0h1v1h-1zm6 2h1v1h-1zm39 1h1v1h-1zm10 1h1v1h-1zm42 0h1v1h-1zm-104 3h1v1h-1zm60 1h1v1h-1zm-43 3h1v1h-1zm87 0h1v1h-1zm-90 1h1v1h-1zm-61 7h1v1h-1zm9 0h1v1h-1zm1 0h1v1h-1zm3 0h2v1h-2zm2 0h1v1h-1zm5 0h2v1h-2zm2 0h1v1h-1zm4 0h1v1h-1zm1 0h1v1h-1zm3 0h1v1h-1zm1 0h1v1h-1zm3 0h1v1h-1zm1 0h1v1h-1zm10 0h1v1h-1zm4 0h1v1h-1zm1 0h1v1h-1zm15 0h1v1h-1zm1 0h1v1h-1zm7 0h1v1h-1zm1 0h1v1h-1zm6 0h1v1h-1zm1 0h1v1h-1zm5 0h1v1h-1zm1 0h1v1h-1zm15 0h1v1h-1zm1 0h1v1h-1zm12 0h1v1h-1zm7 0h3v1h-3zm3 0h1v1h-1zm3 0h1v1h-1zm1 0h1v1h-1zm4 0h1v1h-1zm1 0h1v1h-1zm3 0h3v1h-3zm3 0h1v1h-1zm7 0h1v1h-1zm1 0h6v1h-6zm6 0h1v1h-1zm-90 1h1v6h-1zm24 0h1v1h-1zm-52 1h1v1h-1zm22 0h1v1h-1zm42 0h1v1h-1zm4 0h1v3h-1zm16 0h1v1h-1zm-48 1h1v1h-1zm44 0h1v1h-1zm30 0h1v1h-1zm-101 1h1v1h-1zm-41 1h1v1h-1zm84 0h1v2h-1zm16 0h1v2h-1zm11 0h1v1h-1zm-90 1h1v2h-1zm116 0h1v1h-1zm-125 1h1v1h-1zm15 0h1v1h-1zm33 0h1v1h-1zm24 0h1v1h-1zm16 0h1v1h-1zm22 0h1v1h-1zm19 0h1v1h-1zm-147 1h1v1h-1zm27 0h1v1h-1zm6 0h1v1h-1zm10 1h1v1h-1zm20 0h1v1h-1zm11 0h1v1h-1zm10 0h1v1h-1zm3 0h1v1h-1zm22 0h1v1h-1z" fill="#ecf0f3"/><path d="M97 65h1v2h-1zm0 2h1v1h-1zm-4 7h1v1h-1zm-4 7h1v1h-1zm-4 7h1v1h-1zm-59 30h7v1h-7zm7 0h1v1h-1zm14 0h7v1h-7zm7 0h1v1h-1zm5 0h6v1h-6zm6 0h1v1h-1zm31 0h6v1h-6zm6 0h1v1h-1zm7 0h11v1h-11zm11 0h1v1h-1zm17 0h6v1h-6zm6 0h1v1h-1zm14 0h16v1h-16zm16 0h1v1h-1zm1 2h1v5h-1zm-103 2h1v1h-1zm-35 3h1v1h-1zm138 0h1v1h-1zm-56 5h1v1h-1zm1 0h1v1h-1zm11 0h1v1h-1zm35 0h7v1h-7zm7 0h1v1h-1zm-134 2h1v1h-1zm3 3h1v1h-1zm90 1h1v1h-1zm42 2h1v1h-1zm-91 1h1v1h-1zm-4 2h1v1h-1zm-9 2h1v1h-1zm105 1h1v5h-1zm0 5h1v1h-1zm-66 1h1v1h-1zm-83 8h1v1h-1zm115 0h1v1h-1zm-88 1h1v1h-1zm4 0h1v1h-1zm86 0h1v1h-1zm17 0h1v1h-1zm19 0h1v1h-1zm-115 1h1v1h-1zm44 0h1v1h-1zm4 0h1v2h-1zm22 0h1v1h-1zm45 0h1v1h-1zm-111 1h1v1h-1zm57 0h1v1h-1zm49 0h1v1h-1zm4 0h1v1h-1zm-139 1h1v1h-1zm20 0h1v1h-1zm13 0h1v1h-1zm40 0h1v1h-1zm38 0h1v1h-1zm-69 1h1v1h-1zm54 0h1v1h-1zm-66 1h1v1h-1zm70 0h1v1h-1zm-100 1h1v1h-1zm7 0h1v1h-1zm49 0h1v1h-1zm70 0h1v1h-1zm-66 2h1v1h-1zm16 0h1v1h-1zm10 0h1v1h-1zm35 0h1v1h-1zm13 0h1v1h-1z" fill="#e0e6eb"/><path d="M100 65h1v1h-1zm37 0h1v1h-1zm-75 2h1v1h-1zm36 1h1v1h-1zm38 0h1v1h-1zm-40 1h1v1h-1zm39 1h1v1h-1zm-40 1h1v1h-1zm-29 3h1v1h-1zm28 1h1v1h-1zm38 0h1v1h-1zm-40 1h1v1h-1zm39 1h1v1h-1zm-40 1h1v1h-1zm-21 3h1v1h-1zm20 1h1v1h-1zm-1 2h1v1h-1zm38 0h1v1h-1zm-40 1h1v1h-1zm-13 3h1v1h-1zm12 1h1v1h-1zm-1 2h1v1h-1zm38 0h1v1h-1zm-40 1h1v1h-1zm-5 3h1v1h-1zm-53 23h1v2h-1zm9 0h1v1h-1zm12 0h1v1h-1zm9 0h1v2h-1zm11 0h1v1h-1zm10 0h1v1h-1zm19 0h1v1h-1zm13 0h1v1h-1zm14 0h1v1h-1zm1 0h1v1h-1zm21 0h1v1h-1zm-87 1h1v31h-1zm17 0h1v1h-1zm52 0h1v1h-1zm9 0h1v31h-1zm-110 1h1v1h-1zm30 0h2v1h-2zm-20 1h1v1h-1zm-9 2h1v1h-1zm28 0h1v1h-1zm16 0h1v1h-1zm60 0h1v1h-1zm-86 1h1v1h-1zm-17 2h1v1h-1zm26 0h1v1h-1zm26 0h1v1h-1zm3 0h1v1h-1zm10 0h1v2h-1zm82 0h1v1h-1zm-105 1h1v1h-1zm-32 1h1v1h-1zm32 0h1v1h-1zm14 0h1v1h-1zm9 0h1v1h-1zm-64 1h1v1h-1zm24 0h1v1h-1zm-10 2h1v1h-1zm42 0h1v1h-1zm-55 1h1v1h-1zm22 0h1v1h-1zm35 0h1v1h-1zm43 0h1v1h-1zm-57 2h1v1h-1zm-42 1h1v1h-1zm9 0h1v1h-1zm11 0h1v1h-1zm25 1h1v1h-1zm16 0h1v1h-1zm-60 2h1v1h-1zm18 0h1v1h-1zm43 0h1v1h-1zm25 0h4v1h-4zm4 0h1v1h-1zm-52 1h1v1h-1zm54 0h1v2h-1zm-45 1h1v1h-1zm-46 1h1v1h-1zm16 0h1v1h-1zm75 0h1v1h-1zm-43 2h1v1h-1zm-47 1h1v1h-1zm14 0h1v1h-1zm22 0h1v1h-1zm23 0h1v1h-1zm62 0h1v6h-1zm-120 3h1v1h-1zm12 0h1v1h-1zm44 1h1v1h-1zm39 0h1v1h-1zm-94 2h1v1h-1zm10 0h1v1h-1zm12 0h1v1h-1zm17 0h1v1h-1zm52 0h1v1h-1zm9 0h1v1h-1zm19 0h1v1h-1zm-77 1h1v1h-1zm-49 7h2v1h-2zm2 0h1v1h-1zm4 0h1v1h-1zm1 0h1v1h-1zm4 0h1v1h-1zm3 0h1v1h-1zm4 0h1v1h-1zm6 0h1v1h-1zm7 0h1v1h-1zm6 0h1v1h-1zm9 0h2v1h-2zm2 0h2v1h-2zm2 0h1v1h-1zm4 0h2v1h-2zm2 0h1v1h-1zm6 0h1v1h-1zm1 0h2v1h-2zm2 0h1v1h-1zm9 0h1v1h-1zm3 0h1v1h-1zm3 0h1v1h-1zm6 0h2v1h-2zm2 0h1v1h-1zm4 0h2v1h-2zm2 0h1v1h-1zm8 0h2v1h-2zm2 0h1v1h-1zm12 0h1v1h-1zm5 0h1v1h-1zm1 0h1v1h-1zm8 0h1v1h-1zm6 0h1v1h-1zm1 0h2v1h-2zm2 0h1v1h-1zm-140 1h1v1h-1zm14 0h1v1h-1zm7 0h1v1h-1zm22 0h1v1h-1zm1 0h1v1h-1zm8 0h1v4h-1zm16 0h1v1h-1zm12 0h1v1h-1zm20 0h1v1h-1zm9 0h1v1h-1zm33 0h1v1h-1zm-148 1h1v2h-1zm50 0h1v1h-1zm14 0h1v1h-1zm10 0h1v1h-1zm11 0h1v1h-1zm23 0h1v1h-1zm40 0h1v1h-1zm-20 1h1v1h-1zm5 0h1v1h-1zm10 0h1v1h-1zm-143 1h1v2h-1zm5 0h1v1h-1zm1 0h1v1h-1zm26 0h1v1h-1zm9 0h1v1h-1zm56 0h1v1h-1zm20 0h1v1h-1zm-76 1h1v1h-1zm9 0h1v1h-1zm8 0h1v2h-1zm7 0h1v1h-1zm26 0h1v1h-1zm16 0h1v1h-1zm-107 1h1v1h-1zm20 0h1v1h-1zm108 0h1v1h-1zm-103 1h1v1h-1zm33 0h1v1h-1zm40 0h1v1h-1zm-85 1h1v1h-1zm29 0h1v1h-1zm8 0h1v1h-1zm72 0h1v1h-1zm-95 1h1v1h-1zm6 0h1v1h-1zm17 0h1v1h-1zm11 0h1v1h-1zm34 0h1v1h-1zm16 0h1v1h-1zm10 0h1v1h-1zm27 0h1v1h-1zm-145 1h1v1h-1zm1 0h1v1h-1zm5 0h1v1h-1zm1 0h1v1h-1zm35 0h1v1h-1zm1 0h1v1h-1zm72 0h1v1h-1zm1 0h1v1h-1z" fill="#f6f8f9"/><path d="M94 70h1v1h-1zm-27 3h1v1h-1zm23 4h1v1h-1zm-4 7h1v1h-1zm-4 7h1v1h-1zm2 28h1v1h-1zm-9 1h1v1h-1zm50 0h1v1h-1zm-37 1h1v1h-1zm-42 1h1v1h-1zm43 0h1v1h-1zm40 2h1v1h-1zm-46 1h1v1h-1zm80 1h1v1h-1zm-79 1h1v1h-1zm39 1h1v1h-1zm-79 1h1v1h-1zm35 1h1v1h-1zm84 0h1v1h-1zm-47 1h1v1h-1zm-44 1h1v1h-1zm11 0h1v1h-1zm44 0h1v1h-1zm-42 1h1v1h-1zm2 1h1v1h-1zm-11 1h1v1h-1zm88 2h1v1h-1zm-1 1h1v1h-1zm-124 2h1v1h-1zm52 0h1v2h-1zm40 1h1v1h-1zm-40 1h1v1h-1zm33 0h1v1h-1zm-36 6h1v1h-1zm-52 1h1v1h-1zm39 0h1v1h-1zm5 1h2v1h-2zm2 0h1v1h-1zm-38 10h1v1h-1zm1 0h1v1h-1zm5 0h1v1h-1zm53 0h1v4h-1zm37 0h1v1h-1zm5 0h1v6h-1zm-98 1h1v1h-1zm42 0h1v4h-1zm8 0h1v5h-1zm40 0h1v1h-1zm-90 1h1v1h-1zm46 0h1v1h-1zm23 0h1v1h-1zm45 0h1v1h-1zm7 0h1v1h-1zm-131 1h1v1h-1zm3 0h1v1h-1zm44 0h1v1h-1zm46 0h1v1h-1zm33 0h1v1h-1zm-126 1h1v1h-1zm19 0h1v2h-1zm29 0h1v1h-1zm18 0h1v1h-1zm3 0h1v1h-1zm1 0h1v1h-1zm7 0h1v1h-1zm15 0h1v1h-1zm-96 1h1v1h-1zm56 0h1v1h-1zm-33 1h1v1h-1zm25 0h1v1h-1zm16 0h1v1h-1zm21 0h1v1h-1zm15 0h1v1h-1zm12 0h1v1h-1zm3 0h1v1h-1z" fill="#164569"/><path d="M66 72h1v1h-1zm4 7h1v1h-1zm17 4h1v1h-1zm-4 7h1v1h-1zm-29 29h1v1h-1zm119 0h1v1h-1zm-147 1h1v1h-1zm8 1h1v1h-1zm-7 2h1v1h-1zm1 3h1v1h-1zm63 0h1v1h-1zm-55 2h1v1h-1zm-7 1h1v1h-1zm14 2h1v1h-1zm-13 1h1v1h-1zm1 3h1v1h-1zm7 0h1v1h-1zm80 2h2v1h-2zm2 0h1v1h-1zm-88 1h1v1h-1zm9 0h1v1h-1zm83 1h1v1h-1zm-91 2h1v1h-1zm89 2h1v1h-1zm-88 1h1v1h-1zm57 0h1v1h-1zm-20 2h1v1h-1zm-36 1h1v1h-1zm42 3h1v1h-1zm-54 9h1v1h-1zm16 0h1v1h-1zm11 0h1v1h-1zm75 0h1v1h-1zm20 0h1v1h-1zm7 0h1v1h-1zm8 0h1v1h-1zm11 0h2v1h-2zm2 0h1v1h-1zm-151 1h1v1h-1zm10 0h1v4h-1zm15 0h1v1h-1zm11 0h1v1h-1zm6 0h1v1h-1zm8 0h1v6h-1zm33 0h1v1h-1zm-50 1h1v1h-1zm41 0h1v1h-1zm45 0h1v1h-1zm-87 1h1v1h-1zm29 0h1v1h-1zm13 0h1v1h-1zm19 0h1v1h-1zm16 0h1v1h-1zm-68 1h1v1h-1zm22 0h1v1h-1zm10 0h1v1h-1zm12 0h1v1h-1zm22 0h1v1h-1zm10 0h1v1h-1zm30 0h1v1h-1zm-137 1h1v1h-1zm105 0h1v1h-1zm-112 1h1v1h-1zm45 0h2v1h-2zm48 0h1v1h-1zm-96 1h1v1h-1zm50 0h1v1h-1zm40 0h1v1h-1zm-88 1h1v1h-1zm7 0h1v1h-1zm36 0h1v1h-1z" fill="#456a87"/><path d="M81 35h1v1h-1zm-5 4h1v1h-1zm9 3h1v1h-1zm1 2h1v1h-1zm-14 2h1v1h-1zm17 3h1v1h-1zm1 2h1v1h-1zm-22 2h1v1h-1zm26 5h1v1h-1zm-30 2h1v1h-1zm-1 2h1v1h-1z" fill="#dc733e"/><path d="M63 65h33v1H63zm33 0h1v1h-1zm-32 5h1v1h-1zm4 7h1v1h-1zm4 7h1v1h-1zm4 7h1v1h-1zm5 4h1v1h-1zm-4 23h1v1h-1zm10 1h1v1h-1zm21 0h1v29h-1zm-35 1h1v1h-1zm-38 2h1v1h-1zm19 0h1v1h-1zm-10 3h1v1h-1zm9 0h1v1h-1zm-1 3h1v1h-1zm-15 1h1v1h-1zm80 1h1v1h-1zm3 0h1v1h-1zm-69 1h1v1h-1zm-1 3h1v1h-1zm-1 3h1v1h-1zm29 0h1v1h-1zm44 1h1v1h-1zm43 0h1v1h-1zm-73 1h1v1h-1zm40 0h1v1h-1zm-84 1h1v1h-1zm35 0h1v1h-1zm49 2h1v1h-1zm-85 1h1v1h-1zm35 0h1v1h-1zm10 0h1v1h-1zm-46 3h1v1h-1zm45 0h1v1h-1zm17 2h1v1h-1zm-63 1h1v1h-1zm80 1h1v1h-1zm-47 1h1v1h-1zm5 0h1v1h-1zm-59 7h1v1h-1zm42 0h1v1h-1zm1 0h1v1h-1zm72 0h1v1h-1zm-88 1h1v1h-1zm4 0h1v1h-1zm9 0h1v1h-1zm26 0h1v1h-1zm8 0h1v1h-1zm26 0h1v1h-1zm20 0h1v1h-1zm9 0h1v1h-1zm-105 1h1v1h-1zm69 0h1v1h-1zm7 0h1v1h-1zm35 0h1v6h-1zm-88 1h1v1h-1zm35 0h1v1h-1zm7 0h1v1h-1zm16 0h1v1h-1zm19 0h1v1h-1zm15 0h1v1h-1zm1 1h1v1h-1zm-142 1h1v1h-1zm26 0h1v1h-1zm70 0h1v1h-1zm31 0h1v1h-1zm-95 1h1v1h-1zm17 0h1v1h-1zm41 0h1v1h-1zm-59 1h1v1h-1zm82 0h1v1h-1zm-108 1h1v1h-1zm81 0h1v1h-1zm3 0h1v1h-1zm16 0h1v1h-1zm32 0h1v1h-1zm-137 1h1v1h-1zm11 0h1v1h-1zm24 0h1v1h-1zm33 0h1v1h-1zm12 0h1v1h-1zm42 0h1v1h-1zm5 0h1v1h-1zm3 0h1v1h-1z" fill="#d7dfe5"/><path d="M99 67h1v1h-1zm35 4h1v1h-1zm-39 3h1v1h-1zm35 4h1v1h-1zm-39 3h1v1h-1zm35 4h1v1h-1zm-39 3h1v1h-1zm35 4h1v1h-1z" fill="#c5dfef"/><path d="M87 38h1v1h-1zm36 2h1v1h-1zm-32 5h1v1h-1zm36 2h1v1h-1zm-32 5h1v1h-1zm36 2h1v1h-1zm-32 5h1v1h-1zm36 2h1v1h-1zm-34 1h34v1h-34zm34 0h1v1h-1z" fill="#ee7f2c"/><path d="M101 66h34v1h-34zm34 0h1v1h-1zm-35 1h1v1h-1zm33 4h1v1h-1zm-37 3h1v1h-1zm33 4h1v1h-1zm-37 3h1v1h-1zm33 4h1v1h-1zm-37 3h1v1h-1zm-1 2h1v1h-1zm34 2h1v1h-1zm-37 3h1v1h-1zm0 1h34v1H84zm34 0h1v1h-1z" fill="#1d81c2"/><g fill="#0a3b61"><path d="M65 67h29v2H65zm29 0h1v1h-1zm0 1h1v1h-1zm-29 1h28v1H65zm28 0h1v1h-1zm-26 1h26v1H67zm26 0h1v1h-1zm-27 1h26v1H66zm26 0h1v2h-1zm-24 1h23v1H68zm23 0h1v1h-1zm-23 1h24v1H68zm24 0h1v1h-1zm-23 1h21v2H69zm21 0h1v1h-1zm0 1h1v1h-1zm-21 1h20v1H69zm20 0h1v1h-1zm-18 1h18v1H71zm18 0h1v1h-1zm-19 1h18v1H70zm18 0h1v2h-1zm-16 1h16v1H72zm0 1h16v1H72zm16 0h1v1h-1zm-15 1h13v2H73zm13 0h1v1h-1zm0 1h1v1h-1zm-13 1h12v1H73zm12 0h1v1h-1zm-10 1h10v1H75zm10 0h1v1h-1zm-11 1h10v1H74zm10 0h1v2h-1zm-8 1h8v1h-8zm0 1h8v1h-8zm8 0h1v1h-1zm-7 1h5v1h-5zm5 0h1v1h-1zm-5 1h5v1h-5zm5 0h1v1h-1zm-4 1h3v2h-3zm3 0h1v1h-1zm0 1h1v1h-1zm-3 1h2v1h-2zm2 0h1v2h-1zm0 2h1v1h-1zm-1 25h1v4h-1zm4 0h1v5h-1z"/><path d="M78 120h6v3h-6zm6 0h2v5h-2zm2 0h1v6h-1zm57 0h1v28h-1zm-116 1h5v1h-5zm5 0h1v13h-1zm16 0h5v1h-5zm5 0h1v1h-1zm7 0h5v27h-5zm5 0h1v27h-1z"/><path d="M75 121h11v2H75zm22 0h4v27h-4zm4 0h1v27h-1zm9 0h15v3h-15zm15 0h1v17h-1zm13 0h5v27h-5zm20 0h13v3h-13zm13 0h1v3h-1zm-143 1h5v2h-5zm5 0h1v15h-1zm14 0h5v3h-5zm5 0h1v2h-1z"/><path d="M74 122h14v1H74zm14 0h1v4h-1zm38 0h1v25h-1zm-92 1h1v1h-1zm39 0h15v1H73zm54 0h1v8h-1zm-99 1h5v1h-5zm24 0h1v1h-1zm20 0h6v1h-6zm6 0h1v1h-1z"/><path d="M82 124h7v1h-7zm7 0h1v2h-1zm21 0h18v1h-18zm18 0h1v5h-1zm30 0h13v1h-13zm13 0h1v1h-1zm-142 1h4v2h-4zm17 0h5v3h-5zm5 0h1v2h-1zm20 0h6v1h-6zm6 0h1v9h-1zm7 0h5v1h-5zm26 0h6v1h-6zm6 0h1v1h-1zm5 0h7v1h-7zm37 0h5v23h-5zm5 0h1v1h-1zm-129 1h1v14h-1z"/><path d="M45 126h5v1h-5zm27 0h4v4h-4zm4 0h1v8h-1zm9 0h4v1h-4zm4 0h1v1h-1zm21 0h4v22h-4zm4 0h1v22h-1zm9 0h5v1h-5zm-94 1h5v1h-5zm22 0h1v1h-1zm72 0h5v1h-5zm-93 1h4v2h-4zm16 0h4v3h-4zm4 0h1v2h-1zm74 0h4v3h-4zm-89 1h1v14h-1z"/><path d="M45 129h4v5h-4zm83 0h1v1h-1zm1 0h1v1h-1zm-99 1h6v1h-6zm6 0h1v1h-1zm14 0h1v1h-1zm22 0h6v1h-6zm6 0h1v5h-1zm45 0h4v7h-4zm-92 1h4v2h-4zm18 0h1v2h-1z"/><path d="M73 131h6v1h-6zm6 0h1v5h-1zm36 0h1v6h-1zm7 0h5v5h-5zm5 0h1v1h-1zm36 0h1v6h-1zm-119 1h4v5h-4z"/><path d="M73 132h8v1h-8zm8 0h1v4h-1zm35 0h1v4h-1zm4 0h6v3h-6zm44 0h1v4h-1zm-133 1h5v1h-5zm5 0h1v13h-1zm7 0h6v1h-6zm6 0h1v1h-1z"/><path d="M75 133h8v1h-8zm8 0h1v5h-1zm34 0h9v2h-9zm48 0h6v3h-6zm6 0h1v3h-1zm-139 1h4v2h-4zm16 0h1v2h-1z"/><path d="M76 134h9v1h-9zm9 0h1v6h-1z"/><path d="M78 135h10v1H78zm10 0h1v12h-1zm29 0h10v1h-10zm10 0h1v12h-1zm-95 1h5v1h-5zm5 0h1v12h-1zm6 0h5v1h-5zm5 0h1v1h-1z"/><path d="M79 136h10v1H79zm10 0h1v9h-1zm27 0h1v1h-1zm6 0h6v1h-6zm6 0h1v11h-1zm36 0h7v1h-7zm7 0h1v1h-1zm-138 1h5v2h-5zm5 0h1v1h-1zm5 0h4v3h-4zm4 0h1v2h-1zm37 0h5v2h-5zm31 0h1v1h-1z"/><path d="M123 137h7v1h-7zm7 0h1v5h-1zm33 0h1v1h-1zm-80 1h6v1h-6zm42 0h4v1h-4zm4 0h1v8h-1zm-96 1h4v1h-4zm9 0h5v1h-5zm5 0h1v1h-1zm37 0h6v1h-6zm6 0h1v4h-1zm-56 1h4v2h-4zm4 0h1v8h-1zm4 0h4v3h-4zm4 0h1v2h-1zm39 0h5v5h-5z"/><path d="M39 141h6v5h-6z"/><path d="M34 142h12v1H34zm12 0h1v1h-1zm25 0h5v1h-5zm5 0h1v6h-1zm49 0h5v4h-5zm5 0h1v1h-1zm-95 1h10v2H35zm10 0h1v2h-1zm27 0h4v2h-4zm12 0h6v2h-6zm6 0h1v2h-1zm25 0h1v5h-1z"/><path d="M124 143h5v4h-5zm-47 1h1v4h-1zm1 0h1v5h-1zm5 0h6v3h-6zm33 0h1v4h-1z"/><path d="M123 144h6v3h-6zm40 0h1v4h-1zm-128 1h10v1H35zm10 0h1v1h-1zm27 0h7v1h-7zm7 0h1v4h-1zm10 0h1v1h-1zm1 0h1v1h-1z"/><path d="M117 145h12v2h-12zm27 0h7v3h-7zm7 0h1v3h-1zm13 0h7v3h-7zm7 0h1v3h-1zm-135 1h8v2h-8zm8 0h1v2h-1zm29 0h15v1H73zm56 0h1v1h-1zm-55 1h14v1H74zm14 0h1v1h-1zm29 0h11v1h-11zm11 0h1v1h-1zm-92 1h8v1h-8zm8 0h1v1h-1zm16 0h5v1h-5zm5 0h1v1h-1zm10 0h11v1H75zm11 0h1v1h-1zm11 0h4v1h-4zm4 0h1v1h-1zm9 0h15v1h-15zm15 0h1v1h-1zm13 0h13v1h-13zm13 0h1v1h-1zm7 0h13v1h-13zm13 0h1v1h-1zm-93 1h5v1h-5zm5 0h1v1h-1zm40 0h1v1h-1zm-90 11h1v1h-1zm3 0h1v5h-1zm21 0h1v1h-1zm11 0h1v1h-1zm5 0h1v2h-1zm64 0h1v1h-1zm9 0h1v1h-1zm6 0h1v1h-1zm-109 1h1v1h-1zm14 0h1v1h-1zm12 0h1v1h-1zm14 0h1v1h-1zm9 0h1v4h-1zm12 0h1v1h-1zm11 0h1v1h-1zm1 0h1v1h-1zm6 0h1v1h-1zm9 0h1v1h-1zm21 0h1v1h-1zm5 0h1v1h-1zm-114 1h1v1h-1zm30 0h1v2h-1zm11 0h1v1h-1zm30 0h1v1h-1zm7 0h1v1h-1zm9 0h1v1h-1zm-105 1h1v1h-1zm14 0h1v1h-1zm16 0h1v1h-1zm85 0h1v1h-1zm6 0h1v1h-1zm1 0h1v1h-1zm14 0h1v1h-1zm1 0h1v1h-1zm-136 1h1v1h-1zm47 0h1v2h-1zm4 0h1v1h-1zm4 0h1v1h-1zm14 0h1v1h-1zm29 0h1v1h-1zm1 0h1v1h-1zm8 0h1v1h-1zm3 0h1v1h-1zm-100 1h1v1h-1zm41 0h1v1h-1zm5 0h2v1h-2zm2 0h1v1h-1zm8 0h1v1h-1zm14 0h1v1h-1zm7 0h3v1h-3zm3 0h1v1h-1zm5 0h1v1h-1zm9 0h2v1h-2zm2 0h1v1h-1zm5 0h1v1h-1zm-85 1h1v1h-1zm13 0h1v1h-1zm1 0h1v1h-1zm7 0h1v1h-1zm12 0h1v1h-1zm11 0h1v1h-1zm25 0h1v1h-1zm8 0h1v1h-1zm11 0h1v1h-1zm1 0h1v1h-1zm10 0h1v1h-1zm12 0h1v1h-1zm7 0h1v1h-1z"/></g><path d="M63 68h1v1h-1zm31 4h1v1h-1zm-27 3h1v1h-1zm23 4h1v1h-1zm-4 7h1v1h-1zm-4 7h1v1h-1zm45 27h1v1h-1zm-55 1h1v1h-1zm-46 1h1v1h-1zm44 2h1v1h-1zm-43 1h1v1h-1zm146 1h1v1h-1zm-9 1h1v2h-1zm-136 1h1v1h-1zm136 1h1v1h-1zm-83 1h1v1h-1zm-52 1h1v1h-1zm13 1h1v1h-1zm-12 2h1v1h-1zm99 0h1v1h-1zm-55 1h1v1h-1zm-35 1h1v1h-1zm-8 1h1v1h-1zm135 1h6v1h-6zm6 0h1v1h-1zm-8 1h1v3h-1zm-132 1h1v1h-1zm100 0h1v1h-1zm0 1h1v1h-1zm-63 1h1v1h-1zm14 0h1v1h-1zm81 0h1v1h-1zm-131 1h1v1h-1zm98 2h1v1h-1zm-97 1h1v1h-1zm1 3h1v1h-1zm38 0h1v1h-1zm35 0h1v1h-1zm-29 2h1v1h-1zm-45 8h1v1h-1zm13 0h1v1h-1zm12 0h1v1h-1zm15 0h1v1h-1zm28 0h1v1h-1zm47 0h1v1h-1zm6 0h1v1h-1zm-128 1h1v1h-1zm24 0h1v4h-1zm39 0h1v6h-1zm4 0h1v1h-1zm4 0h1v6h-1zm46 0h1v2h-1zm5 0h1v1h-1zm19 0h1v1h-1zm-141 1h1v1h-1zm18 0h1v1h-1zm21 0h1v1h-1zm19 0h1v1h-1zm50 0h1v1h-1zm12 0h1v1h-1zm25 0h1v5h-1zm-127 1h1v1h-1zm94 0h1v1h-1zm5 0h1v4h-1zm-122 2h1v1h-1zm29 0h1v1h-1zm35 0h1v1h-1zm42 0h1v1h-1zm-107 1h1v1h-1zm13 0h1v1h-1zm23 0h1v1h-1zm66 0h1v1h-1zm-66 1h1v1h-1zm22 0h1v1h-1zm11 0h1v1h-1zm8 0h1v1h-1zm7 0h1v1h-1zm30 0h1v1h-1zm9 0h1v1h-1zm5 0h1v1h-1zm23 0h1v1h-1zm-137 1h1v1h-1zm9 0h1v1h-1zm25 0h1v1h-1zm5 0h2v1h-2zm2 0h1v1h-1zm11 0h1v1h-1zm24 0h1v1h-1zm11 0h1v1h-1zm5 0h1v1h-1zm26 0h3v1h-3zm3 0h1v1h-1zm8 0h1v1h-1z" fill="#cad5dd"/><path d="M83 32h1v1h-1zm38 3h1v1h-1zm-36 1h1v1h-1zm40 6h1v1h-1zm-36 1h1v1h-1zm40 6h1v1h-1zm-36 1h1v1h-1zm40 6h1v1h-1zm-36 1h1v1h-1z" fill="#f6be95"/><path d="M84 32h34v1H84zm34 0h1v1h-1zm2 2h1v1h-1zm-34 3h1v1h-1zm38 4h1v1h-1zm-34 3h1v1h-1zm38 4h1v1h-1zm-34 3h1v1h-1zm38 4h1v1h-1zm-34 3h1v1h-1z" fill="#f1944f"/><g fill="#d86227"><path d="M80 34h1v27h-1zm-1 1h1v26h-1z"/><path d="M78 36h3v25h-3zm3 0h1v25h-1z"/><path d="M77 38h5v23h-5zm5 0h1v23h-1z"/><path d="M76 40h7v21h-7zm7 0h1v21h-1zm1 1h1v20h-1z"/><path d="M75 42h9v19h-9z"/><path d="M74 43h11v18H74zm11 0h1v18h-1z"/><path d="M73 45h13v16H73zm13 0h1v16h-1z"/><path d="M72 47h15v14H72zm15 0h1v14h-1zm1 1h1v13h-1z"/><path d="M71 49h17v12H71z"/><path d="M70 50h19v11H70zm19 0h1v11h-1z"/><path d="M69 52h21v9H69zm21 0h1v9h-1z"/><path d="M68 54h23v7H68zm23 0h1v7h-1zm1 1h1v6h-1z"/><path d="M67 56h25v5H67zm26 1h1v4h-1z"/><path d="M66 58h27v3H66z"/><path d="M65 59h29v2H65zm29 0h1v2h-1zm-30 2h31v1H64z"/></g><path d="M95 68h1v1h-1zm-4 7h1v1h-1zm-20 5h1v1h-1zm16 2h1v1h-1zm-12 5h1v1h-1zm8 2h1v1h-1zm-4 5h1v1h-1zm-1 25h1v1h-1zm2 5h1v1h-1zm1 0h1v1h-1zm9 0h1v1h-1zm-12 1h1v1h-1zm39 0h3v1h-3zm3 0h1v1h-1zm44 0h8v1h-8zm8 0h1v1h-1zm-137 1h1v1h-1zm50 1h5v1h-5zm5 0h1v1h-1zm33 2h1v1h-1zm-52 1h1v1h-1zm50 1h1v1h-1zm7 0h1v1h-1zm-91 2h1v1h-1zm36 0h1v1h-1zm-31 3h1v1h-1zm39 1h1v1h-1zm9 0h1v1h-1zm34 1h1v1h-1zm-83 2h1v1h-1zm90 0h1v1h-1zm-61 1h1v1h-1zm7 1h1v1h-1zm46 1h1v1h-1zm40 0h1v1h-1zm-92 2h1v1h-1zm18 2h1v1h-1zm-3 2h1v1h-1zm38 0h1v1h-1zm-99 11h1v1h-1zm12 0h1v1h-1zm32 0h1v1h-1zm20 0h1v1h-1zm8 0h1v1h-1zm41 0h1v1h-1zm36 0h2v1h-2zm2 0h1v1h-1zm-143 1h1v3h-1zm21 0h1v1h-1zm28 0h1v1h-1zm50 0h1v1h-1zm24 0h1v1h-1zm-101 1h1v1h-1zm1 0h1v1h-1zm26 0h1v1h-1zm40 0h1v1h-1zm10 0h1v1h-1zm19 0h1v3h-1zm6 0h1v3h-1zm10 0h1v1h-1zm-143 1h1v1h-1zm50 0h2v1h-2zm2 0h1v1h-1zm38 0h1v1h-1zm7 0h1v1h-1zm20 0h1v1h-1zm1 0h1v2h-1zm-109 1h1v1h-1zm63 0h1v1h-1zm25 0h1v1h-1zm48 0h1v1h-1zm1 0h1v1h-1zm-120 1h1v1h-1zm14 0h1v1h-1zm39 0h1v1h-1zm39 0h1v1h-1zm9 0h1v1h-1zm6 0h1v1h-1zm-90 1h1v1h-1zm22 0h1v1h-1zm14 0h1v1h-1zm36 0h1v1h-1z" fill="#104065"/><path d="M99 68h1v1h-1zm35 2h1v1h-1zm-39 5h1v1h-1zm35 2h1v1h-1zm-39 5h1v1h-1zm35 2h1v1h-1zm-39 5h1v1h-1zm35 2h1v1h-1z" fill="#58a2d2"/><path d="M98 69h1v1h-1zm37 0h1v1h-1zm-41 7h1v1h-1zm37 0h1v1h-1zm-41 7h1v1h-1zm37 0h1v1h-1zm-41 7h1v1h-1zm37 0h1v1h-1z" fill="#b6d6eb"/><path d="M71 82h1v1h-1zm4 7h1v1h-1zm4 7h1v1h-1zm5 22h1v1h-1zm-50 1h1v1h-1zm41 0h1v1h-1zm50 0h1v1h-1zm-80 3h1v1h-1zm84 0h1v1h-1zm-12 4h3v1h-3zm3 0h1v1h-1zm45 0h7v1h-7zm7 0h1v1h-1zm-81 2h1v1h-1zm-8 3h1v1h-1zm47 4h1v1h-1zm-54 1h1v1h-1zm-7 4h1v1h-1zm23 0h1v2h-1zm0 2h1v1h-1zm-13 1h1v1h-1zm-8 4h1v1h-1zm56 2h1v1h-1zm-61 1h1v1h-1zm9 0h1v1h-1zm5 1h2v1h-2zm2 0h1v1h-1zm-60 8h1v1h-1zm19 1h1v1h-1zm61 0h1v6h-1zm60 1h1v1h-1zm-121 2h1v1h-1zm123 0h1v1h-1zm-141 1h1v1h-1zm24 0h1v1h-1zm10 0h1v1h-1zm18 0h1v1h-1zm64 1h1v1h-1zm-111 1h1v1h-1zm42 0h1v1h-1zm32 0h1v1h-1zm17 0h1v1h-1zm-66 1h1v1h-1zm82 0h1v1h-1z" fill="#c0cdd6"/><path d="M79 32h1v1h-1zm1 0h1v1h-1zm2 3h1v1h-1zm1 2h1v1h-1zm-8 2h1v1h-1zm12 5h1v1h-1zm-16 2h1v1h-1zm-1 2h1v1h-1zm21 3h1v1h-1zm-24 2h1v1h-1zm-1 2h1v1h-1zm29 3h1v1h-1zm-32 2h1v1h-1zm-1 2h1v1h-1zm1 1h33v1H63zm33 0h1v1h-1z" fill="#f5d6c7"/><path d="M120 33h1v1h-1zm-34 5h1v1h-1zm38 2h1v1h-1zm-34 5h1v1h-1zm38 2h1v1h-1zm-34 5h1v1h-1zm38 2h1v1h-1zm-34 5h1v1h-1zm38 2h1v1h-1z" fill="#f9d1b4"/><path d="M85 35h1v1h-1zm36 1h1v1h-1zm-32 6h1v1h-1zm36 1h1v1h-1zm-32 6h1v1h-1zm36 1h1v1h-1zm-32 6h1v1h-1zm36 1h1v1h-1z" fill="#f08d43"/></svg>