<svg xmlns="http://www.w3.org/2000/svg" role="img" viewBox="-10.63 -11.63 552.76 331.76"><title>Espeo Blockchain (HCSP) logo</title><g data-name="Layer 2"><g data-name="Layer 1"><path fill="#212725" d="M247 229.64v9.41h-28.44v-45.43h28.1V203h-18v7.14h16.22v9.15h-16.26v10.32zm3.29 7.26l3.7-8c3.25 1.88 6.95 3.44 10.64 3.44 1.76 0 2.73-.39 2.73-1.37 0-1.16-1.17-1.36-2.08-1.75l-5.28-2.11c-4.93-1.89-7.33-4.81-7.33-9.28 0-6.17 4.21-9.74 12.84-9.74a35.52 35.52 0 0 1 10.84 1.82l-2.73 7.92a26 26 0 0 0-8.88-2.21c-1.95 0-2.41.52-2.41 1.3s.78 1.3 2.27 1.88l5.2 1.95c4.54 1.68 7.26 4.08 7.26 9.15 0 7.13-5.25 10.12-13.23 10.12a31.21 31.21 0 0 1-13.54-3.12zm31.15-27.83h9.8v4.09h.13c1.88-3 5-5.07 9.8-5.07 7.78 0 14.21 5.45 14.21 16s-6.43 16-14.21 16c-4.8 0-7.92-2-9.8-5.06h-.13V252h-9.8zm23.88 15a6.91 6.91 0 1 0-6.88 7 6.64 6.64 0 0 0 6.88-7.01zm44.12.12v2.2H328c.65 3.77 3.63 5.45 7.65 5.45a16.44 16.44 0 0 0 8.7-2.72l3.57 7.39a23.31 23.31 0 0 1-12.4 3.51c-10.05 0-16.74-6.3-16.74-15.83 0-10.13 6.62-16 15.84-16 8.99-.03 14.82 5.16 14.82 16zM328 220.62h12a5.4 5.4 0 0 0-5.71-5.52c-3.29 0-5.8 1.62-6.29 5.52zm58.24 3.44c0 9.6-7.14 16-16.87 16s-16.81-6.36-16.81-16 7.14-16 16.81-16 16.87 6.39 16.87 16zm-23.88 0a7 7 0 1 0 7-7 6.74 6.74 0 0 0-7 7zm-108.89 71.85c0 9.35-7.27 12.79-15.44 12.79h-19.47v-45.43h18.82c8 0 14 3.38 14 11.29 0 5.26-2.47 8.5-7.21 10.06v.13c5.15.85 9.3 3.64 9.3 11.16zm-24.85-23.49v8.89h7.53c3 0 5.12-1.68 5.12-4.54s-2.14-4.35-5.06-4.35zm14.38 22.2c0-3.31-2.47-4.94-6.56-4.94h-7.85v9.87h7.92c3.86 0 6.49-1.63 6.49-4.93zm25.66 14.08h-9.8v-45.43h9.8zm38.67-14.99c0 9.6-7.14 16-16.87 16s-16.81-6.36-16.81-16 7.14-16 16.81-16 16.87 6.39 16.87 16zm-23.88 0a7 7 0 1 0 7-7 6.74 6.74 0 0 0-7 7zm27.26 0c0-9.67 7.07-16 16.67-16a20.69 20.69 0 0 1 10.84 2.92l-4 7.86a11 11 0 0 0-6.36-1.82c-3.9 0-7.34 2.53-7.34 7s3.44 7 7.34 7a11 11 0 0 0 6.36-1.81l4 7.85a20.69 20.69 0 0 1-10.84 2.92c-9.6.04-16.67-6.25-16.67-15.92zm51.58 14.99l-10.18-13.76v13.76h-9.8v-45.43h9.8v27.26l8.76-11.81H373l-11.88 13.62L375 308.7zm14.99-14.99c0-9.67 7.07-16 16.68-16a20.69 20.69 0 0 1 10.84 2.92l-4 7.86a11 11 0 0 0-6.36-1.82c-3.89 0-7.33 2.53-7.33 7s3.44 7 7.33 7a11 11 0 0 0 6.36-1.81l4 7.85a20.69 20.69 0 0 1-10.8 2.96c-9.65 0-16.72-6.29-16.72-15.96zm41.4-11.03h.13a10.84 10.84 0 0 1 9.6-4.94c6.62 0 11.3 3.83 11.3 12.4v18.56h-9.8v-15.84c0-4.47-1.88-6.49-5.45-6.49-3.31 0-5.78 1.95-5.78 7.27v15.06h-9.8v-45.43h9.8zm25.7 11.03c0-10.52 6.42-16 14.21-16 4.86 0 7.92 2 9.8 5.07h.13v-4.09h9.79v30h-9.79v-4.09h-.13c-1.88 3.05-4.94 5.06-9.8 5.06-7.79.01-14.21-5.44-14.21-15.95zm23.88 0a6.91 6.91 0 1 0-6.95 7 6.66 6.66 0 0 0 6.95-7zm26.6-20.51h-10.51v-9.86h10.51zm-10.12 5.52h9.8v30h-9.8zM532 290.14v18.56h-9.74v-15.84c0-4.47-1.88-6.49-5.51-6.49-3.31 0-5.78 1.95-5.78 7.27v15.06h-9.79v-30h9.6v4.54h.13a11.05 11.05 0 0 1 9.8-5.52c6.6.02 11.29 3.85 11.29 12.42zM23.49 150.11A23.47 23.47 0 0 0 .11 173.64 23.42 23.42 0 0 0 23.6 197 23.46 23.46 0 0 0 47 173.51a23.47 23.47 0 0 0-23.5-23.4zm112.39-90.22l-23.63 40.54a49.93 49.93 0 0 1-33.37 92.38c-.51-.11-1-.2-1.54-.28h-.12A23.44 23.44 0 0 0 62.12 236a23.28 23.28 0 0 0 9.11 3 96.8 96.8 0 0 0 64.65-179.11z"/><path fill="#741bda" d="M135.86 59.92a96.65 96.65 0 0 0-89-4.44v-32A23.44 23.44 0 1 0 0 23.44v84.07a23.42 23.42 0 0 0 41.87 14 23.05 23.05 0 0 0 2.2-3.38c.84-1.27 1.7-2.58 2.18-3.28C60.63 93.67 89.45 87.3 112 100.31l.24.15a23.45 23.45 0 0 0 23.57-40.55z"/></g></g></svg>