<svg xmlns="http://www.w3.org/2000/svg" role="img" viewBox="-3.52 304.73 183.04 182.29"><title>Hyperledger Quilt logo</title><defs><clipPath id="b"><path fill="none" d="M 0 307.767 L 612 307.767 L 612 484.233 L 0 484.233 Z"/></clipPath><clipPath id="c" clip-path="url(#a)"><path fill="none" d="M 0 307.767 L 612 307.767 L 612 484.233 L 0 484.233 Z"/></clipPath><clipPath id="a"><path fill="none" d="M 0.112638 483.6699 L 611.4087 483.6699 L 611.4087 307.7669 L 0.112638 307.7669 Z"/></clipPath><clipPath id="d"><path fill="none" d="M 0 307.767 L 612 307.767 L 612 484.233 L 0 484.233 Z"/></clipPath></defs><g><path fill="#fff" d="M115.02 362.374L122.199 362.374 122.199 369.213 115.02 369.213zM54.096 423.358L61.131 423.358 61.131 430.197 54.096 430.197zM54.096 362.462L61.131 362.462 61.131 369.301 54.096 369.301zM115.109 423.358L122.141 423.358 122.141 430.197 115.109 430.197z" clip-path="url(#b)"/><path fill="#ff7c60" d="M 122.066 308.33 L 176.123 308.33 L 176.123 362.451 L 122.066 362.451 Z" clip-path="url(#c)"/><path fill="#ffbd8a" d="M 122.066 369.237 L 176.187 369.237 L 176.187 423.326 L 122.066 423.326 Z" clip-path="url(#c)"/><path fill="#58cdc6" d="M 61.065 430.112 L 115.184 430.112 L 115.184 484.233 L 61.065 484.233 Z" clip-path="url(#c)"/><path fill="#7b537a" d="M 0 362.449 L 54.119 362.449 L 54.119 308.328 L 0 308.328 Z" clip-path="url(#c)"/><path fill="#8e8fa9" d="M 0 423.358 L 54.119 423.358 L 54.119 369.239 L 0 369.239 Z" clip-path="url(#c)"/><path fill="#8bd8c5" d="M 54.119 430.112 L 61.065 430.112 L 61.065 484.233 L 54.119 484.233 Z" clip-path="url(#c)"/><path fill="#be9cc2" d="M 0.113 362.449 L 54.119 362.449 L 54.119 369.237 L 0.113 369.237 Z" clip-path="url(#c)"/><path fill="#bae8de" d="M 0 430.112 L 54.119 430.112 L 54.119 423.356 L 0 423.356 Z" clip-path="url(#c)"/><path fill="#ffe0d6" d="M 61.127 369.237 L 115.028 369.237 L 115.028 362.449 L 61.097 362.449 L 61.097 369.237 L 61.127 369.237" clip-path="url(#c)"/><path fill="#ff939c" d="M 115.028 362.449 L 115.058 362.449 L 115.058 308.33 L 61.127 308.33 L 61.127 362.449 L 115.028 362.449" clip-path="url(#c)"/><path fill="#fab6c2" d="M 61.001 362.449 L 61.127 362.449 L 61.127 308.33 L 54.119 308.33 L 54.119 362.449 L 61.001 362.449" clip-path="url(#c)"/><path fill="#ffcbb8" d="M 115.12 362.449 L 122.066 362.449 L 122.066 308.33 L 115.058 308.33 L 115.058 362.449 L 115.12 362.449" clip-path="url(#c)"/><path fill="#467d7e" d="M 54.057 430.112 L 0 430.112 L 0 484.233 L 54.119 484.233 L 54.119 430.112 L 54.057 430.112" clip-path="url(#c)"/><path fill="#7cce91" d="M 122.066 430.112 L 176.187 430.112 L 176.187 484.233 L 122.066 484.233 Z" clip-path="url(#c)"/><path fill="#f1dede" d="M 61.065 423.326 L 61.127 423.326 L 61.127 369.237 L 54.119 369.237 L 54.119 423.358 L 61.065 423.358 L 61.065 423.326" clip-path="url(#c)"/><path fill="#bae8de" d="M 115.184 430.112 L 122.066 430.112 L 122.066 484.233 L 115.184 484.233 Z" clip-path="url(#c)"/><path fill="#fde2c4" d="M 176.123 362.449 L 122.066 362.449 L 122.066 369.237 L 176.187 369.237 L 176.187 362.449 L 176.123 362.449" clip-path="url(#d)"/><path fill="#f6dfa9" d="M 122.066 423.409 L 122.066 430.112 L 176.187 430.112 L 176.187 423.326 L 122.066 423.326 L 122.066 423.409" clip-path="url(#d)"/><path fill="#ffe0d6" d="M 115.058 423.326 L 115.184 423.326 L 115.184 423.409 L 122.066 423.409 L 122.066 369.187 L 115.058 369.187 L 115.058 423.326" clip-path="url(#d)"/><path fill="#e8f0db" d="M 61.065 430.112 L 115.184 430.112 L 115.184 423.326 L 61.065 423.326 Z" clip-path="url(#d)"/></g></svg>