<svg xmlns="http://www.w3.org/2000/svg" role="img" viewBox="223.44 -1.43 106.86 95.86"><title>Hyperledger Aries logo</title><defs id="defs81"><style id="style79" type="text/css"/></defs><g id="g85"><path id="path83" fill="#35813f" d="M327.38 11.9c-.69-1.87-1.81-3.66-3.25-5.11-1.43-1.46-3.1-2.61-4.84-3.47-1.74-.85-3.53-1.44-5.31-1.85-1.78-.4-3.54-.62-5.29-.74-1.88-.11-3.84.01-5.72.35-3.78.66-7.32 2.16-10.38 4.07-3.09 1.9-5.78 4.18-8.18 6.61-2.43 2.42-4.52 5.05-6.46 7.73-1.24 1.73-2.4 3.5-3.49 5.3-1.18-1.68-2.47-3.3-3.89-4.82-4.72-5-10.65-9.01-17.29-11.22-1.66-.56-3.35-1.01-5.14-1.31-.44-.08-.91-.14-1.38-.2l-.76-.08-.45-.03-.34-.01c-.9-.04-1.84-.04-2.77.02-1.87.12-3.79.45-5.68 1.1-1.89.64-3.77 1.62-5.36 2.99-1.61 1.34-2.9 3.04-3.82 4.81-.91 1.78-1.44 3.62-1.74 5.41-.31 1.79-.38 3.54-.3 5.23.08 1.7.23 3.31.6 5.04.37 1.69.91 3.4 1.77 4.99.84 1.59 2.02 3.07 3.45 4.18 1.43 1.12 3.08 1.87 4.74 2.24 1.68.34 3.31.42 4.98.09l-.1-1.26c-1.38-.2-2.81-.64-3.99-1.31-1.2-.65-2.24-1.48-2.99-2.49-1.52-2.01-2.08-4.52-2.11-7.16.01-1.3.07-2.74.24-4.08.17-1.35.44-2.64.82-3.81.78-2.37 2.03-4.14 3.65-5.12 1.6-1.01 3.71-1.45 6.07-1.34.59.02 1.17.07 1.79.15l.23.03c.12.01.02.01.11.03l.37.09c.27.07.56.14.86.23 1.18.36 2.4.8 3.59 1.32 4.75 2.13 9.07 5.28 12.58 9.24 2.33 2.61 4.4 5.49 6.3 8.57-.02.05-.05.1-.07.15-2.58 5.87-4.64 11.91-6.27 18.08-.8 3.09-1.51 6.21-2.08 9.4-.56 3.2-1.02 6.41-1.14 9.97-.08 1.84.1 3.71.45 5.6.36 1.89.95 3.82 1.94 5.7.98 1.87 2.38 3.71 4.35 5.12.99.69 2.1 1.28 3.3 1.64 1.21.36 2.49.5 3.72.38 2.48-.22 4.59-1.39 6.04-2.81 1.48-1.42 2.45-3.04 3.18-4.65 1.43-3.25 1.93-6.51 2.27-9.74.18-1.62.29-3.25.25-4.77 0-1.55.09-3.11.03-4.66.01-3.12-.1-6.25-.27-9.41-.34-5.3-1.07-10.68-2.53-15.98 2.13-4.68 4.48-9.23 7.14-13.44 2.98-4.68 6.4-8.99 10.34-12.02 1.97-1.51 4.04-2.65 6.2-3.33 1.09-.33 2.18-.55 3.34-.66 1.3-.1 2.58-.12 3.81-.04 4.95.31 8.79 2.3 9.79 7.19.48 2.37.29 5.15-.56 7.8-.8 2.68-2.21 5.27-4.1 7.59l.83.96c2.72-1.67 5.06-4.04 6.84-6.87 1.73-2.84 3-6.18 3.07-9.9-.01-1.89-.29-3.83-.99-5.71zm-55.73 71.72c-.3-.64-.54-1.45-.72-2.39-.17-.94-.27-2-.28-3.13-.02-1.14.1-2.33.19-3.52.26-2.52.82-5.33 1.5-8.09.69-2.77 1.48-5.56 2.38-8.31.51-1.59 1.05-3.17 1.62-4.75.01.02.01.05.02.07.42 1.56 6.46 24.22.64 30.31-.53.5-1.1.91-1.67 1.16-.97.4-1.87.38-2.45.06-.58-.3-.91-.79-1.23-1.41z"/></g></svg>