<svg xmlns="http://www.w3.org/2000/svg" role="img" viewBox="-1.97 -1.34 102.31 84.56"><title>Hyperledger Ursa logo</title><defs><clipPath id="a"><path fill="none" d="M.06 81.38h327.811V0H.06z"/></clipPath></defs><path d="M68.022 6.761C69.376 5.017 69.43 2.7 69.821.62c.191 2.098-.054 4.56 1.526 6.222 1.863 1.835 4.688 1.535 7.104 1.681-2.325.363-4.905.336-6.849 1.817-1.89 1.699-1.627 4.469-1.79 6.777-.39-2.271-.364-4.861-1.998-6.65-1.636-1.417-3.934-1.453-5.942-1.89 2.108-.227 4.615-.081 6.15-1.816M35.156 67.779c-2.308 4.679-5.623 8.766-9.475 12.255 3.325-.082 6.658-.118 9.984-.237 1.362-1.272 2.834-2.407 4.378-3.452-.954-3.198-2.734-6.041-4.887-8.566zm30.577 12.073c3.198.064 6.404.136 9.611.154 1.281-1.254 2.635-2.443 4.024-3.579-2.934-4.387-8.702-5.387-11.845-9.62-3.27 3.607-1.899 8.666-1.79 13.045zM49.436 66.053c.182 4.606-.127 9.248-1.326 13.717 1.926-.027 3.87.073 5.795-.136 1.509-.809 2.798-1.999 4.243-2.916-1.771-2.825-4.097-5.287-5.533-8.33 3.071-.673 6.132-1.472 9.021-2.744-4.069.109-8.13.582-12.2.409zM33.712 15.69c3.46.827 6.767-.881 10.119-1.453.563 2.725 1.236 5.686.028 8.339-1.763 2.425-4.57 4.233-5.215 7.34-1.054 3.916.981 7.622 3.025 10.801-.763-3.207-1.199-6.495-.827-9.783 6.341.781 11.919 4.569 15.062 10.101-.699-2.671-1.798-5.223-3.189-7.613 6.405-.572 13.264-.217 18.868 3.253 6.114 3.615 9.829 10.674 9.548 17.75-.1 6.123 1.889 12.355 6.268 16.751.009 3.216-.009 6.441.254 9.648 3.643.082 7.285.136 10.919.363-5.796.481-11.609-.082-17.414.027-27.052-.018-54.114.055-81.158-.008 3.824-.228 7.649-.436 11.464-.8 1.862-2.68 5.732-2.989 7.149-6.041 2.49-4.142 3.434-9.002 3.634-13.781 2.616 1.771 5.478 3.144 8.521 4.006-5.141-3.951-10.038-8.639-12.209-14.925-3.87-9.257-1.908-20.303 4.16-28.17-.862-.981-2.997-2.008-1.798-3.534 1.408-2.189 4.024-.89 5.787.037 2.207-1.045 4.405-2.898 7.004-2.308" clip-path="url(#a)" fill="#9d2e5a"/></svg>