<svg xmlns="http://www.w3.org/2000/svg" role="img" viewBox="-1.60 -1.85 95.58 96.33"><title>Hyperledger Transact logo</title><defs id="defs593"><style id="style591" type="text/css">.st3{fill:#cc4599}.st4{fill:#ef4c84}</style></defs><g id="g607"><path id="path595" fill="none" d="M41.5 42.96l-5.53 10.56c-.64 1.22-2.15 1.69-3.37 1.05-1.22-.64-1.69-2.15-1.05-3.37l9.88-18.85 30.13 55.4h4.16L58.11 54.91 41.5 24.43 24.44 55.75l-17.43 32h58.85L41.5 42.96zm5.47-.45l1.6 2.98-1.61-2.97.01-.01z"/><path id="path597" d="M81.06 92.99h.06-.17.11z" class="st3"/><path id="polygon599" d="M46.97 42.51l-.01.01 1.61 2.97z" class="st3"/><path id="path601" d="M31.54 51.2c-.64 1.22-.17 2.73 1.05 3.37 1.22.64 2.73.17 3.37-1.05l5.53-10.56 24.36 44.79h5.69l-30.13-55.4-9.87 18.85z" class="st4"/><path id="path603" d="M54.67 18.97l4.05-7.33c.67-1.21.23-2.73-.98-3.39-1.21-.67-2.73-.23-3.39.98l-5.38 9.74 37.72 68.8h-5l.66 1.21c.95 1.74-.43 3.78-2.55 3.78h-.03 7.94c1.61 0 3.1-.84 3.89-2.19.76-1.29.78-2.85.05-4.14L54.67 18.97z" class="st4"/><path id="path605" d="M82.35 88.97l-.66-1.21-18.74-34.39-.44-.8L44.48 18.9l8.29-15.13c.66-1.21.22-2.73-.99-3.39-1.21-.66-2.73-.22-3.39.99l-9.58 17.5.02.04-18.78 34.46L.66 88.97c-.95 1.74.43 3.78 2.55 3.78H79.8c2.12 0 3.49-2.04 2.55-3.78zM7.01 87.75l17.43-32L41.5 24.43l16.6 30.48 17.61 32.85H7.01z" class="st3"/></g></svg>