<svg xmlns="http://www.w3.org/2000/svg" role="img" viewBox="-1.95 2.92 101.66 74.53"><title>Hyperledger Explorer logo</title><defs><clipPath id="a"><path fill="none" d="M.06 78.057h397.273V.06H.06z"/></clipPath></defs><path fill="#212527" d="M76.497 4.984v14.009l17.629-7.162-17.629-6.847M0 67.009l21.297 8.552V23.482L0 14.996v52.013" clip-path="url(#a)"/><path fill="#5acdc6" d="M72.144 4.928l-17.431 6.68 17.431 7.411V4.928M3.95 11.883l17.397 6.932V5.547L3.95 11.883"/><path fill="#212527" d="M25.701 5.533v13.278L42.572 11.6 25.701 5.533"/><path fill="#5acdc6" d="M25.65 75.463l21.095-8.874V14.551L25.65 23.568v51.895m50.898.028l21.296-9.055V15.02l-21.296 8.652v51.819"/><path fill="#212527" d="M51.099 66.669l21.096 8.804V23.772l-21.096-8.97v51.867"/></svg>