<svg xmlns="http://www.w3.org/2000/svg" role="img" viewBox="-3.48 305.77 180.96 180.21"><title>Hyperledger Grid logo</title><defs><clipPath id="b"><path fill="none" d="M0 308.706h612v174.589H0z"/></clipPath><clipPath id="c" clip-path="url(#a)"><path fill="none" d="M0 308.706h612v174.589H0z"/></clipPath><clipPath id="a"><path fill="none" d="M.11264 482.7688H611.3955V308.7055H.11264z"/></clipPath></defs><path fill="#202527" d="M91.712 329.316h26.731v27.608H91.712zm36.089 0h26.177v27.608h-26.177zM20.085 366.282h27.001v25.905H20.085zm71.627 0h26.731v25.905H91.712zm-35.265 71.357h25.906v25.57H56.447zm0-108.323h25.906v27.608H56.447zm71.354 36.966h26.177v25.905h-26.177zm-71.354 0h25.906v25.905H56.447zm0 35.265h25.906v26.733H56.447z" clip-path="url(#b)"/><path fill="#ff6d21" d="M91.712 401.547h26.731v26.733H91.712zm-71.627-72.231h27.001v27.608H20.085z" clip-path="url(#b)"/><path fill="#202527" d="M20.085 437.639h27.001v25.57H20.085z" clip-path="url(#b)"/><path fill="#202527" d="M20.085 401.547h27.001v26.733H20.085z" clip-path="url(#c)"/><path fill="#ff6d21" d="M0 483.295h174.063V309.231H0zm9.424-164.64h155.215v155.217H9.424z" clip-path="url(#c)"/></svg>