<svg xmlns="http://www.w3.org/2000/svg" role="img" viewBox="-7.63 -7.38 383.76 112.26"><title>Hyperledger Burrow logo</title><style>svg {enable-background:new 0 0 368.9 97.6}</style><style>.st1{fill:#aad14f}.st2{fill:none}.st3{fill:#46ba86}</style><path fill="#24272a" d="M122.6 22h8.7l.1 8.8h4.4l-.1-20.4-4.4.1V18l-8.7.1-.1-7.6h-4.4l.1 20.3h4.5zm24.1 8.8h4.5l-.1-8.7 7.6-11.6h-5.3l-4.5 7.6-4.4-7.6-5.6.1 7.7 11.6zm19.7 0v-7.9h3.3c1.1 0 2.1-.1 3-.3.9-.2 1.7-.5 2.4-1s1.2-1.1 1.6-1.9c.4-.8.6-1.8.6-3s-.2-2.2-.6-3c-.4-.8-1-1.4-1.7-1.9s-1.5-.8-2.5-1c-.9-.2-1.9-.3-3-.3h-7.6l.1 20.3h4.4zm2.2-16.5c.4 0 .9 0 1.3.1.5 0 .9.2 1.3.3.4.2.7.4.9.7.2.3.4.7.4 1.2s-.1.9-.3 1.2c-.2.3-.4.6-.7.8-.3.2-.6.3-1 .4-.4.1-.8.1-1.2.1h-3v-4.8h2.3zm26.1 16.5v-4.2l-9.9.1v-4.2h8.8v-4.1h-8.8v-3.8h9.3v-4.2l-13.8.1.1 20.3zm14.1 0h5.4l-5.2-8.6c1.4-.3 2.5-.9 3.3-1.9.7-1 1.1-2.2 1.1-3.7 0-1.2-.2-2.2-.6-3-.4-.8-1-1.4-1.7-1.9s-1.5-.8-2.4-1c-.9-.2-1.9-.3-2.9-.3h-7.9l.1 20.3h4.5v-8.1h2.2l4.1 8.2zm-6.5-11.9v-4.6h2.9c.4 0 .8 0 1.2.1.4.1.8.2 1.1.3.3.2.6.4.8.7.2.3.3.7.3 1.2 0 .6-.1 1-.4 1.3-.2.3-.5.5-.9.7l-1.2.3h-3.8zm27.8 11.8v-4.1h-8.3l-.1-16.1h-4.5l.1 20.3zm17.5 0v-4.1l-9.8.1-.1-4.2h8.9l-.1-4.1h-8.8v-3.8h9.3v-4.2l-13.8.1.1 20.3zm18.5-2.6c1-.9 1.9-1.9 2.5-3.2.6-1.3.9-2.7.9-4.4 0-1.9-.3-3.4-1-4.7-.6-1.3-1.5-2.3-2.6-3.2-1.1-.8-2.4-1.4-3.8-1.7-1.5-.4-3-.5-4.6-.5h-6.7l.1 20.3h7.3c1.5 0 3-.2 4.3-.7 1.4-.4 2.6-1 3.6-1.9zm-8.5-1.5h-2.3l-.1-12.1h2.6c.9 0 1.8.1 2.7.3.8.2 1.6.6 2.2 1.1.6.5 1.1 1.1 1.5 1.8.4.7.6 1.6.6 2.6 0 1.1-.2 2.1-.5 2.9-.4.8-.9 1.4-1.5 1.9s-1.4.8-2.3 1.1c-.9.3-1.8.4-2.9.4zm26.6-7.9v4.1h3.6v3.3c-.4.2-1 .5-1.7.7-.7.2-1.5.3-2.5.3s-1.8-.2-2.6-.5-1.4-.8-2-1.4c-.6-.6-1-1.3-1.3-2.1-.3-.8-.5-1.7-.5-2.6 0-.9.1-1.8.4-2.6.3-.8.7-1.5 1.3-2.1.6-.6 1.2-1 2-1.4.8-.3 1.6-.5 2.6-.5 1.1 0 2.1.2 2.9.5.8.3 1.5.8 2.1 1.4l3.1-3.5c-1-1-2.2-1.6-3.6-2-1.4-.4-2.9-.6-4.5-.6s-3.1.3-4.4.8c-1.3.5-2.5 1.2-3.5 2.2-1 .9-1.7 2.1-2.3 3.4-.5 1.3-.8 2.8-.8 4.4 0 1.6.3 3.1.8 4.4.6 1.3 1.3 2.4 2.3 3.4 1 .9 2.1 1.6 3.5 2.1 1.3.5 2.8.7 4.4.7 1.5 0 3-.2 4.4-.5 1.4-.3 2.8-.8 4.1-1.5l-.1-10.6-7.7.2zm25.5 11.6v-4.2l-9.8.1-.1-4.1 8.9-.1-.1-4.1h-8.8v-3.8h9.3V10h-13.8l.1 20.4zm7.7 0v-8.1h2.2l4.3 8.1h5.4l-5.2-8.6c1.4-.3 2.5-.9 3.3-1.9.7-1 1.1-2.2 1.1-3.7 0-1.2-.2-2.2-.6-3-.4-.8-1-1.4-1.7-1.9s-1.5-.8-2.4-1c-.9-.2-1.9-.3-2.9-.3H313l.1 20.3 4.3.1zm2.9-16.5c.4 0 .8 0 1.2.1.4.1.8.2 1.1.3.3.2.6.4.8.7.2.3.3.7.3 1.2 0 .6-.1 1-.4 1.3-.2.3-.5.5-.9.7l-1.2.3H317.3v-4.6h3z"/><path d="M118.3 45.4h14.5c7.2 0 12.7 3.4 12.7 10.4 0 4.8-2.9 7.8-7.2 9.2v.1c5 .4 9 4.8 9 10.4 0 7.5-6.5 11.6-14.7 11.6h-14.3V45.4zm5.6 17.3h7.7c4.3 0 7.8-1.7 7.8-6.2 0-3.3-2.1-6.1-6.6-6.1h-8.9v12.3zm0 19.4h8.3c3.4 0 9-1.2 9-7.1 0-4.9-3.5-7.4-8.9-7.4h-8.4v14.5zm36.3-36.7v25.5c0 5.2 2.6 11.9 10.5 11.9s10.5-6.7 10.5-11.9V45.4h5.7v26.4c0 9.7-7 16.3-16.1 16.3s-16.1-6.7-16.1-16.3V45.4h5.5zm36.6 0h14.7c10.7 0 13.4 6.4 13.4 11.7 0 5.3-3.9 10.3-10.2 11l11.8 19h-7.1l-10.6-18.4h-6.3v18.4h-5.7V45.4zm5.6 18.3h7.4c4.5 0 8.9-1.1 8.9-6.7s-4.5-6.7-8.9-6.7h-7.4v13.4zm30.4-18.3h14.7c10.7 0 13.4 6.4 13.4 11.7 0 5.3-3.9 10.3-10.2 11l11.8 19h-7.1l-10.6-18.4h-6.3v18.4h-5.7V45.4zm5.6 18.3h7.4c4.5 0 8.9-1.1 8.9-6.7s-4.5-6.7-8.9-6.7h-7.4v13.4zm27.7 2.5c0-12.4 9-21.9 21.7-21.9s21.7 9.5 21.7 21.9c0 12.4-9 21.9-21.7 21.9s-21.7-9.5-21.7-21.9zm37.5 0c0-9.1-6.2-16.6-15.7-16.6s-15.7 7.5-15.7 16.6 6.2 16.6 15.7 16.6 15.7-7.5 15.7-16.6zm8.8-20.8h5.9l9.2 33.3h.1l9.8-33.3h6.5l9.8 33.3h.1l9.2-33.3h5.9l-12.1 41.7h-5.9l-10.1-34h-.1l-10.1 34h-5.9l-12.3-41.7z" class="st1"/><path d="M43.6 41c-.2-.2-.3-.4-.5-.7-.6-1-1.4-2.6-2.2-4.7l5.3 3.6c-.1.6-.3 1-.4 1.2-.3.5-.7.6-1.9.7l-.3-.1zM8.9 20.2c1.1-1.5 2.2-2.9 3.4-4.1l15.5 10.6L29 25c.8 2.3 1.5 4.8 2.2 7.5l-2.7-1.8-14 19.6-5.7 1.9.1-32zm2.8 29.1L26.1 29l-14.3-9.8v30.1zm71.6 1.5l-5.9-8.4c.7-.9 1.2-1.8 1.7-2.6l6.7 9.6V19.2L74.4 27c-1.3-.3-2.7-.6-4.1-.7L85.4 16c1.2 1.3 2.3 2.7 3.4 4.1v32.3l-5.5-1.6zm-36-47L36.2 19.5c-.1-.5-.2-.9-.3-1.4 1.4-1.8 1.9-3.6 1.5-5.2l9-12.9H51l18.5 26.3h-1c-.7 0-1.5 0-2.4.1L50.3 3.8V32c-.6.5-1.2 1.1-1.7 1.7-.5.7-1 1.4-1.3 2.2V3.8zm-3.5 37.4c.1 0 0 0 0 0z" class="st1"/><path d="M40 62.8L14 54l14 17.2 16.1-6.8zM47.3 95V66.2l-17.4 7.3zm3 0l17.4-21.5-17.4-7.3zm12.9-60.6h.3c.4 0 .8-.3.9-.7 0 0 .2-.5.5-.5s.5-.2.6-.4c.2-.2.2-.5.2-.7-.1-.5-.5-.8-1-.8h-.1c-1.2.2-1.9 1.2-2.1 1.8-.1.2-.1.5.1.7.1.3.3.5.6.6zM11.7 78l13.5-5.7-13.5-16.6zm41.5-13.7l16.4 6.9L83.5 54zM85.8 78V55.7L72.3 72.3z" class="st2"/><path d="M11.7 78l13.5-5.7-13.5-16.6zM40 62.8L14 54l14 17.2 16.1-6.8zm23.2-28.4h.3c.4 0 .8-.3.9-.7 0 0 .2-.5.5-.5s.5-.2.6-.4c.2-.2.2-.5.2-.7-.1-.5-.5-.8-1-.8h-.1c-1.2.2-1.9 1.2-2.1 1.8-.1.2-.1.5.1.7.1.3.3.5.6.6zM47.3 95V66.2l-17.4 7.3zm38.5-17V55.7L72.3 72.3zM50.3 95l17.4-21.5-17.4-7.3zm2.9-30.7l16.4 6.9L83.5 54z" class="st2"/><path d="M88.9 52.2l-.2-.1-15-5.1c-.7.7-1.4 1.5-2.1 2.3l8.8 3L62 58.6c1-3.2 4-7.1 6.8-10.1l.9-1c.5-.6 1.1-1.1 1.6-1.7.6-.7 1.2-1.3 1.7-1.9.7-.8 1.5-1.8 2.3-2.9-1.3-.4-2.5-.4-3.3-.4h-.9c-.5 0-.9-.4-1-.8 0-.3 0-.5.2-.7.2-.2.4-.3.6-.4.1 0 .5-.1 1.1-.1.8 0 1.9.1 3.3.4.4.1.7.2 1.1.3.5-.8.9-1.5 1.3-2.2 0-.1.1-.1.1-.2-.5 0-1-.1-1.6-.2-.7-.2-3.9-1.1-4.7-2.9-.7-1.6.5-3.3 1-4 .2-.2.3-.4.5-.6-.3-.1-.6-.1-.9-.2-1-.2-2.1-.2-3.2-.2-.7 0-1.5 0-2.4.1-1.3.1-2.6.3-3.9.6-1 1.2-1.4 2.3-1.7 3.1-.2.6-.2.9-.2.9 0 .5-.5.9-1 .9-.4 0-.7-.3-.8-.7v-.3c0-.2.2-1.5 1-3.2-2 .6-4 1.5-5.8 2.4-1.3.7-2.3 1.5-3.1 2.5-1 1.2-1.4 2.6-1.7 3.7l-.1.3c-.2.7-.4 1.5-.7 2-.3.8-.6 1.6-1 2.4-1.2 2.4-2.7 3.6-2.7 3.7-.2.1-.4.2-.6.2-.3 0-.5-.1-.7-.3-.3-.4-.3-1 .1-1.4 0 0 1-.9 1.9-2.4-.4.1-.8.1-1.3.1h-.3c-.9 0-1.9-.8-2.9-2.6-.5-.8-.9-1.7-1.4-2.8-.7-1.5-1.3-3.3-2-5.4-1.2-3.8-2.3-7.8-3-10.5-.5-1.9-.8-3.5-1-4.3l-.6-.4.1-.1c1.7-1.9 2.2-3.5 1.3-4.6-.2-.3-.5-.4-.8-.4h-.2c-.1 0-.2 0-.3.1-.1 0-.1 0-.2.1s-.3.1-.4.2c-1.1 1-1.1 3.4-1.1 3.5 0 .3-.1.5-.3.7-.2.2-.4.3-.7.3-.5 0-.9-.4-1-.9 0-.2-.1-4.3 2.6-5.6-.3-5.6-1.1-9.1-2.2-9.4-.1 0-.3-.1-.4-.1-.3 0-.5.1-.7.3-1.2 1.6.2 7.7.2 7.8l.1.4-.4-.2c-.3-.1-.6-.2-.9-.2-1.2 0-1.6 1.3-1.6 1.4l-.1.2v.1c-.4-.1-.7-.2-1-.2-1.5 0-1.8 1.7-1.8 1.8l-.1.4-.3-.3c-.1-.1-5.4-6-7.7-6-.3 0-.5.1-.7.4-1.3 2.4 4.5 5.6 9 8.2 2.9 1.6 5.5 3.1 6 4.1.4.8.8 1.7 1.2 2.8.4 1.1.9 2.4 1.3 3.9.4 1.3.8 2.6 1.1 3.9l1.2 4.8c.7 3.2 1.1 6 1.3 8.2.1 1.2.1 2.2-.1 3l-.1.6c-.8 4.3-2.7 9.3-3.2 10.7l-.1.2-14.9-5.1 15.4-5.2c.1-.5.2-1.1.3-1.6.1-.4.1-.9.1-1.6l-17.8 6-6.4 2.1-8.8 3c.1 1 .3 2 .5 2.9l8.4-2.8v22.2c.9 1.3 1.9 2.5 2.9 3.7L27 74.7l18.5 22.8c1 .1 1.9.1 2.7.1h.8c.8 0 1.7 0 2.7-.1l18.5-22.8 15.3 6.4c1-1.1 2-2.4 2.9-3.7V55.2l8.4 2.8c.2-.9.3-1.8.5-2.9l-8.4-2.9zm-26.4-19c.2-.6.8-1.7 2.1-1.8h.1c.5 0 .9.4 1 .8 0 .3 0 .5-.2.7-.2.2-.4.3-.6.4-.3 0-.5.5-.5.5-.1.4-.5.7-.9.7h-.3c-.2-.1-.4-.2-.6-.5-.1-.3-.1-.6-.1-.8zM11.7 78V55.7l13.5 16.6L11.7 78zM14 54l26 8.8 4.1 1.6L28 71.2 14 54zm33.3 41L29.9 73.5l17.4-7.3V95zm3 0V66.2l17.4 7.3L50.3 95zm19.3-23.8l-16.4-6.8L83.5 54 69.6 71.2zM85.8 78l-13.5-5.6 13.5-16.6V78z" class="st3"/><path d="M73.6 31c-.5.7-1 1.6-.7 2.2.3.6 2 1.4 3.4 1.8.6.1 1.1.2 1.6.2h.2s1-4-3.5-5.2l-1 1z" class="st3"/></svg>