<svg xmlns="http://www.w3.org/2000/svg" role="img" viewBox="-2.63 328.25 136.76 136.76"><title>Hyperledger Sawtooth logo</title><defs><clipPath id="a"><path fill="none" d="M0 329.57h612v132.859H0z"/></clipPath></defs><path fill="#0079c1" d="M131.446 393.05l-38.23 27.908v-40.282l-55.18 40.282v-40.282L.937 407.758c5.278 31.038 32.295 54.672 64.835 54.672 36.326 0 65.773-29.448 65.773-65.773 0-1.211-.034-2.412-.099-3.607" clip-path="url(#a)"/><path fill="#5ad3ec" d="M130.451 384.658c-5.643-30.596-32.452-53.773-64.679-53.773C29.448 330.885 0 360.332 0 396.657c0 .879.023 1.753.057 2.624l45.345-33.102v40.282l55.179-40.282v40.282l29.87-21.803" clip-path="url(#a)"/></svg>