<svg xmlns="http://www.w3.org/2000/svg" role="img" viewBox="-1.95 -1.58 101.40 101.03"><title>Hyperledger Burrow logo</title><defs><clipPath id="a"><path fill="none" d="M.06 97.57h368.834V0H.06z"/></clipPath></defs><path fill="#a6d259" d="M43.63 41.43c-.162-.162-.342-.383-.521-.653-.637-.96-1.397-2.575-2.208-4.694l5.313 3.633c-.149.557-.281.961-.448 1.232-.282.454-.725.613-1.875.66l-.261-.178m-31.904 8.341l14.333-20.357-14.333-9.802v30.159zM8.853 20.603c1.069-1.474 2.196-2.867 3.352-4.143l15.508 10.604 1.212-1.721c.781 2.26 1.537 4.846 2.202 7.537l-2.696-1.844-13.909 19.741-5.666 1.937-.003-32.111M47.278 4.269l-11.061 15.71c-.108-.472-.215-.946-.318-1.423 1.361-1.836 1.857-3.59 1.476-5.215L46.433.478C47.071.452 47.711.43 48.356.43l.421.011.425-.011c.645 0 1.285.022 1.923.048l18.504 26.28c-.334-.013-.669-.02-1.006-.02-.726 0-1.506.037-2.441.116L50.28 4.269v28.188c-.627.516-1.184 1.082-1.656 1.68-.542.697-.983 1.433-1.346 2.245V4.269zm36.015 46.945l-5.888-8.42c.66-.915 1.217-1.764 1.697-2.583l6.73 9.56V19.612l-11.463 7.839c-1.332-.343-2.714-.564-4.127-.659l15.11-10.332c1.155 1.275 2.283 2.668 3.353 4.143l-.006 32.268-5.406-1.657"/><path fill="#a6d259" d="M43.82 41.611l.052.041a.37255.37255 0 0 1-.052-.041" clip-path="url(#a)"/><path fill="#4ac187" d="M85.832 78.389l-13.495-5.636 13.495-16.648v22.284zm-16.258-6.79L53.22 64.768l30.289-10.361-13.935 17.192zm-19.294 23.8V66.654l17.408 7.27L50.28 95.399zm-3.002 0L29.869 73.924l17.409-7.27v28.745zM14.049 54.407l25.91 8.864 4.115 1.607-16.09 6.721-13.935-17.192zm-2.323 23.982V56.105l13.495 16.648-13.495 5.636zM62.55 33.602c.187-.598.835-1.657 2.08-1.823l.102-.006h.012c.483 0 .894.357.956.829.035.254-.032.505-.187.709-.155.203-.381.334-.635.367-.338.046-.5.496-.5.496-.126.402-.493.672-.914.672-.096 0-.191-.015-.286-.044-.244-.076-.443-.243-.563-.469-.118-.227-.141-.487-.065-.731zm26.337 19.072l-.083-.073-.153-.006-15.043-5.073c-.66.736-1.367 1.496-2.105 2.286l-.025.027 8.759 2.952-18.381 6.271c1.015-3.219 4.029-7.108 6.763-10.053l.901-.966c.538-.577 1.064-1.14 1.565-1.688.606-.662 1.177-1.304 1.677-1.911.69-.839 1.492-1.83 2.272-2.89-1.347-.361-2.515-.44-3.277-.44-.493 0-.793.033-.829.038l-.115.007c-.483 0-.895-.357-.958-.83-.035-.254.032-.506.188-.709.155-.203.381-.334.638-.368.071-.009.459-.053 1.079-.053.753 0 1.939.067 3.318.39.362.084.732.181 1.113.302.49-.755.915-1.498 1.262-2.211.033-.066.055-.125.086-.19-.507-.028-1.048-.1-1.635-.245-.65-.16-3.933-1.053-4.682-2.869-.676-1.637.461-3.35.98-4.009.162-.207.341-.395.522-.58-.288-.055-.574-.112-.873-.156-1.038-.154-2.124-.232-3.228-.232-.711 0-1.504.043-2.423.129-1.303.123-2.607.328-3.874.61-.957 1.151-1.426 2.341-1.653 3.142-.161.569-.203.942-.204.946-.039.492-.455.878-1.023.878h-.007c-.397-.031-.727-.302-.839-.689-.035-.12-.049-.232-.04-.343.014-.164.154-1.532.982-3.183-2.029.641-3.966 1.455-5.763 2.421-1.327.712-2.344 1.541-3.112 2.535-.962 1.246-1.363 2.568-1.665 3.712l-.088.343c-.194.747-.377 1.452-.661 2.04-.252.822-.579 1.614-1 2.42-1.24 2.374-2.727 3.641-2.741 3.652-.172.148-.393.23-.621.23-.28 0-.545-.122-.727-.334-.344-.399-.298-1.004.102-1.35.011-.009.984-.878 1.922-2.431-.382.069-.815.117-1.319.142l-.308.012c-.94 0-1.901-.835-2.939-2.554-.463-.766-.945-1.724-1.435-2.848-.658-1.509-1.338-3.325-2.018-5.398-1.232-3.758-2.29-7.794-2.96-10.519-.475-1.938-.825-3.484-1.008-4.316l-.168-.785.073-.082c1.688-1.877 2.165-3.494 1.341-4.552-.226-.29-.487-.431-.797-.431-.035 0-.076.009-.204.037-.104.019-.206.045-.33.093-.058.024-.117.048-.168.076-.118.064-.253.143-.364.244-1.125 1.031-1.13 3.425-1.13 3.524.005.255-.089.496-.267.68-.178.184-.417.289-.69.293-.518 0-.948-.421-.957-.938-.004-.177-.054-4.284 2.602-5.563-.292-5.583-1.12-9.093-2.219-9.4-.135-.038-.262-.058-.376-.058-.273 0-.491.108-.666.329-1.248 1.582.201 7.715.216 7.776l.101.424-.398-.176c-.334-.147-.647-.222-.933-.222-1.194 0-1.589 1.316-1.605 1.372l-.065.222-.217-.079c-.354-.129-.684-.195-.981-.195-1.505 0-1.81 1.695-1.823 1.767l-.075.441-.299-.333c-.054-.06-5.44-6.032-7.68-6.032-.311 0-.521.123-.659.387-1.267 2.412 4.45 5.605 9.043 8.171 2.932 1.637 5.464 3.051 6.026 4.125.388.792.796 1.746 1.214 2.833.442 1.149.892 2.448 1.339 3.859.402 1.272.788 2.594 1.148 3.929.432 1.605.826 3.224 1.169 4.813.69 3.195 1.127 6.036 1.261 8.214.076 1.23.056 2.242-.058 3.007l-.1.583c-.752 4.332-2.671 9.275-3.241 10.687l-.076.189-14.867-5.084 15.361-5.177c.115-.541.217-1.075.294-1.593.061-.405.085-.929.071-1.562L15.233 50.46l-6.395 2.146h-.02v.019L0 55.601c.133 1.023.282 1.968.456 2.879l8.397-2.834v22.182c.936 1.29 1.917 2.517 2.919 3.655l15.335-6.404 18.512 22.839c.994.055 1.891.082 2.737.082l.426-.011.42.011c.845 0 1.742-.027 2.736-.082l18.513-22.839 15.335 6.404c1.002-1.138 1.983-2.365 2.919-3.655V55.646l8.396 2.834c.172-.896.322-1.842.457-2.879l-8.671-2.927" clip-path="url(#a)"/><path fill="#4ac187" d="M73.616 31.476c-.52.661-.986 1.589-.73 2.209.263.638 1.996 1.45 3.449 1.808.59.146 1.12.22 1.578.22h.004c.074 0 .146-.002.217-.005-3.488-5.233 1.035-3.962-3.488-5.233-.373.273-.724.614-1.03 1.001"/></svg>