<svg xmlns="http://www.w3.org/2000/svg" role="img" viewBox="-1.97 -1.59 102.44 102.06"><title>Hyperledger Caliper logo</title><defs><clipPath id="a"><path fill="none" d="M0 0h342.542v98.599H0z"/></clipPath></defs><g fill="#ff9d47"><path d="M14.767 36.084v12.067h8.348l17.487 28.856V48.151h17.395v28.856l17.487-28.856h8.349V36.084H60.167V1.618C56.669.83 53.036.401 49.3.401c-3.736 0-7.369.429-10.867 1.217v34.466H14.767" clip-path="url(#a)"/><path d="M63.767 2.562v29.922h23.666V51.75h-9.921L54.398 89.894V51.75H44.202v38.144L21.088 51.75h-9.921V32.484h23.666V2.562C14.666 8.745 0 27.508 0 49.701 0 76.928 22.072 99 49.3 99c27.227 0 49.299-22.072 49.299-49.299 0-22.193-14.665-40.956-34.832-47.139" clip-path="url(#a)"/></g></svg>