<svg xmlns="http://www.w3.org/2000/svg" role="img" viewBox="-3.45 0.05 413.14 93.89"><title>Hyperledger Explorer logo</title><style>svg {enable-background:new 0 0 405.4 91}</style><style>.st0{fill:#24272a}.st1{fill:#5bc5c2}</style><path d="M121.4 8.7h4.4l.1 7.5h8.7l-.1-7.6h4.5l.1 20.2-4.5.1v-8.8l-8.7.1v8.7h-4.4zm28.5 11.6l-7.7-11.6h5.5l4.4 7.5 4.5-7.6h5.3l-7.6 11.7.1 8.6h-4.5zM165 8.6h7.5c1 0 2 .1 3 .3.9.2 1.8.5 2.5 1s1.3 1.1 1.7 1.9c.4.8.6 1.8.6 3s-.2 2.2-.6 3c-.4.8-.9 1.4-1.6 1.9-.7.5-1.5.8-2.4 1-.9.2-1.9.3-3 .3h-3.3v7.9h-4.5l.1-20.3zm4.5 8.6h3c.4 0 .8 0 1.2-.1.4-.1.7-.2 1-.4.3-.2.5-.4.7-.7.2-.3.3-.7.3-1.2s-.1-.9-.4-1.2c-.2-.3-.5-.6-.9-.7-.4-.2-.8-.3-1.2-.3-.5 0-.9-.1-1.3-.1h-2.3l-.1 4.7zm13.9-8.5l13.7-.1v4.1l-9.3.1.1 3.7h8.8v4.1l-8.8.1v4.1l9.8-.1v4.1l-14.2.1zm17.4 0h7.8c1 0 2 .1 2.9.3.9.2 1.7.5 2.4 1s1.3 1.1 1.7 1.9c.4.8.6 1.8.6 3 0 1.4-.4 2.6-1.1 3.7-.7 1-1.8 1.6-3.3 1.9L217 29h-5.4l-4.3-8.1h-2.2V29h-4.5l.2-20.3zm4.5 8.3H209.2c.4 0 .9-.1 1.2-.3.4-.1.7-.4.9-.7.2-.3.4-.7.4-1.3 0-.5-.1-.9-.3-1.2-.2-.3-.5-.5-.8-.7-.3-.2-.7-.3-1.1-.3-.4-.1-.8-.1-1.2-.1h-2.9l-.1 4.6zm14.9-8.4h4.5v16.1h8.3v4.1l-12.7.1zm15.9.1l13.8-.1v4.1l-9.3.1v3.7h8.8v4.1h-8.7v4.2l9.8-.1v4.1l-14.3.1zm17.5-.1h6.7c1.6 0 3.2.2 4.6.5 1.5.4 2.7.9 3.8 1.7 1.1.8 2 1.9 2.6 3.1.6 1.3 1 2.9 1 4.7 0 1.6-.3 3.1-.9 4.3-.6 1.3-1.4 2.3-2.5 3.2-1 .9-2.3 1.5-3.6 1.9-1.4.4-2.8.7-4.3.7h-7.3l-.1-20.1zm4.6 16.2h2.3c1 0 2-.1 2.9-.3.9-.2 1.7-.6 2.3-1.1.6-.5 1.2-1.1 1.5-1.9.4-.8.5-1.8.5-2.9 0-1-.2-1.9-.6-2.6-.4-.7-.9-1.3-1.5-1.8s-1.4-.8-2.2-1.1c-.9-.2-1.7-.3-2.7-.3h-2.6l.1 12zm36.7 2.6c-1.3.7-2.7 1.2-4.1 1.5-1.4.3-2.9.5-4.4.5-1.6 0-3-.2-4.4-.7-1.3-.5-2.5-1.2-3.5-2.1-1-.9-1.7-2-2.3-3.3-.6-1.3-.8-2.8-.8-4.4 0-1.6.3-3.1.8-4.4.5-1.3 1.3-2.4 2.3-3.4 1-.9 2.1-1.6 3.5-2.1 1.3-.5 2.8-.8 4.4-.8 1.6 0 3.1.2 4.5.6 1.4.4 2.6 1.1 3.6 2l-3.1 3.4c-.6-.6-1.3-1.1-2.1-1.4-.8-.3-1.7-.5-2.9-.5-1 0-1.8.2-2.6.5s-1.4.8-2 1.4c-.5.6-1 1.3-1.3 2.1-.3.8-.4 1.7-.4 2.6 0 1 .2 1.8.5 2.6s.7 1.5 1.3 2.1c.6.6 1.2 1 2 1.4.8.3 1.6.5 2.6.5s1.8-.1 2.5-.3c.7-.2 1.3-.4 1.7-.7v-3.3h-3.6v-4.1h7.9l-.1 10.3zM298 8.2l13.8-.1v4.1l-9.3.1v3.8l8.8-.1v4.1l-8.7.1v4.1l9.8-.1v4.2h-14.3zm17.5 0h7.8c1 0 2 .1 2.9.3.9.2 1.7.5 2.4 1s1.3 1.1 1.7 1.9c.4.8.6 1.8.6 3 0 1.4-.4 2.6-1.1 3.7-.7 1-1.8 1.6-3.3 1.9l5.2 8.5h-5.4l-4.3-8.1h-2.2v8.1h-4.5l.2-20.3zm4.5 8.3H323.9c.4 0 .9-.1 1.2-.3.4-.1.7-.4.9-.7.2-.3.4-.7.4-1.3 0-.5-.1-.9-.3-1.2-.2-.3-.5-.5-.8-.7-.3-.2-.7-.3-1.1-.3-.4-.1-.8-.1-1.2-.1h-2.9l-.1 4.6z" class="st0"/><path d="M121.5 43.6h26.8v5.3h-21.2v12.4h19.7v5.3h-19.7v13.3h22.2v5.3h-27.9V43.6zm46.2 19.7l-14-19.7h7.2l10.8 16 10.7-16h7l-13.8 19.7 15.3 21.9h-7.4l-11.9-18-12 18h-7l15.1-21.9zm27.7-19.7H210c2.7 0 4.8.4 6.6 1.1 1.7.7 3.1 1.6 4.1 2.8 1 1.1 1.7 2.4 2.1 3.8.4 1.4.6 2.7.6 4s-.2 2.6-.6 4c-.4 1.4-1.1 2.6-2.1 3.8-1 1.1-2.4 2-4.1 2.8-1.7.7-3.9 1.1-6.6 1.1h-9v18.3h-5.6V43.6zm5.7 18.3h7.4c1.1 0 2.2-.1 3.3-.3 1.1-.2 2-.5 2.9-1 .8-.5 1.5-1.1 2-2 .5-.9.8-2 .8-3.4s-.3-2.6-.8-3.4c-.5-.9-1.2-1.6-2-2-.8-.5-1.8-.8-2.9-1-1.1-.2-2.2-.3-3.3-.3h-7.4v13.4zm27.5-18.3h5.6v36.3h19.1v5.3h-24.7V43.6zm46.9 42.6c-3.2 0-6.1-.6-8.7-1.7-2.7-1.1-4.9-2.6-6.8-4.6-1.9-2-3.4-4.3-4.5-6.9-1.1-2.7-1.6-5.5-1.6-8.6 0-3.1.5-6 1.6-8.6 1.1-2.7 2.6-5 4.5-6.9 1.9-2 4.2-3.5 6.8-4.6 2.7-1.1 5.6-1.7 8.7-1.7 3.2 0 6.1.6 8.7 1.7 2.7 1.1 4.9 2.7 6.8 4.6 1.9 2 3.4 4.3 4.5 6.9 1.1 2.7 1.6 5.5 1.6 8.6 0 3.1-.5 6-1.6 8.6-1.1 2.7-2.6 5-4.5 6.9-1.9 2-4.2 3.5-6.8 4.6-2.6 1.1-5.5 1.7-8.7 1.7zm0-5.3c2.4 0 4.5-.4 6.5-1.3 1.9-.9 3.6-2.1 4.9-3.5 1.4-1.5 2.4-3.2 3.2-5.3.7-2 1.1-4.2 1.1-6.4 0-2.3-.4-4.4-1.1-6.4-.7-2-1.8-3.8-3.2-5.3-1.4-1.5-3-2.7-4.9-3.5-1.9-.9-4.1-1.3-6.5-1.3s-4.5.4-6.5 1.3c-1.9.9-3.6 2.1-4.9 3.5-1.4 1.5-2.4 3.2-3.2 5.3-.7 2-1.1 4.2-1.1 6.4 0 2.3.4 4.4 1.1 6.4.7 2 1.8 3.8 3.2 5.3 1.4 1.5 3 2.7 4.9 3.5 2 .9 4.2 1.3 6.5 1.3zM303 43.6h14.6c2.7 0 4.8.4 6.6 1.1 1.7.7 3.1 1.6 4.1 2.8 1 1.1 1.7 2.4 2.1 3.8.4 1.4.6 2.7.6 4 0 1.3-.2 2.6-.7 3.8s-1.1 2.3-2 3.3c-.9 1-2 1.8-3.2 2.5-1.3.7-2.7 1.1-4.3 1.3l11.8 18.9h-7L315 66.8h-6.3v18.3H303V43.6zm5.6 18.3h7.4c1.1 0 2.2-.1 3.3-.3 1.1-.2 2-.5 2.9-1 .8-.5 1.5-1.1 2-2 .5-.9.8-2 .8-3.4s-.3-2.6-.8-3.4c-.5-.9-1.2-1.6-2-2-.8-.5-1.8-.8-2.9-1-1.1-.2-2.2-.3-3.3-.3h-7.4v13.4zM338 43.6h26.8v5.3h-21.2v12.4h19.7v5.3h-19.7v13.3h22.2v5.3H338V43.6zm34.3 0h14.6c2.7 0 4.8.4 6.6 1.1 1.7.7 3.1 1.6 4.1 2.8 1 1.1 1.7 2.4 2.1 3.8.4 1.4.6 2.7.6 4 0 1.3-.2 2.6-.7 3.8s-1.1 2.3-2 3.3c-.9 1-2 1.8-3.2 2.5-1.3.7-2.7 1.1-4.3 1.3l11.8 18.9h-7l-10.6-18.3H378v18.3h-5.6V43.6zm5.7 18.3h7.4c1.1 0 2.2-.1 3.3-.3 1.1-.2 2-.5 2.9-1 .8-.5 1.5-1.1 2-2 .5-.9.8-2 .8-3.4s-.3-2.6-.8-3.4c-.5-.9-1.2-1.6-2-2-.8-.5-1.8-.8-2.9-1-1.1-.2-2.2-.3-3.3-.3H378v13.4z" class="st1"/><path d="M81 12.2v14L98.6 19zm-76.5 62l21.3 8.5v-52L4.5 22.2z" class="st0"/><path d="M76.6 12.1l-17.4 6.7 17.4 7.4zm-68.1 7L25.9 26V12.7z" class="st1"/><path d="M30.2 12.7V26l16.9-7.2z" class="st0"/><path d="M30.2 82.6l21.1-8.8V21.7l-21.1 9zm50.9.1l21.2-9.1V22.2l-21.2 8.6z" class="st1"/><path d="M55.6 73.8l21.1 8.8V30.9L55.6 22z" class="st0"/></svg>