<svg xmlns="http://www.w3.org/2000/svg" role="img" viewBox="-2.80 297.44 144.86 197.86"><title>Hyperledger Besu logo</title><defs><clipPath id="a"><path fill="none" d="M0 299h612v194H0z"/></clipPath></defs><path fill="#2fa9a4" d="M125.394 438.304c-4.268-6.974-11.498-14.562-20.356-21.924-2.032 1.626-4.11 3.22-6.22 4.774 11.346 9.298 18.63 17.914 21.614 24.006-.292.888-.458 1.834-.458 2.82v.468c0 .228.018.454.036.678l-44.734 25.826c-1.146-.822-2.494-1.376-3.956-1.582-5.656-9.366-11.08-30.584-11.08-59.44 0-4.474.136-8.752.376-12.844-2.552-1.286-5.024-2.462-7.392-3.518-.394 5.378-.594 10.874-.594 16.362 0 23.222 3.558 46.614 10.458 60.284l-41.224-23.8c7.692-.006 17.714-2.38 28.908-6.748-.354-2.558-.654-5.174-.91-7.824-14.744 5.972-26.084 7.812-32.108 6.604-.92-1.174-2.122-2.118-3.508-2.718v-51.596c1.39-.604 2.596-1.55 3.516-2.728 9.214-1.836 30.836 3.444 57.996 19.672 3.628 2.168 7.038 4.358 10.256 6.542 2.296-1.604 4.462-3.196 6.5-4.76-4.144-2.894-8.456-5.686-12.852-8.314-22.306-13.326-43.874-21.082-57.794-21.1l41.214-23.796c-3.62 7.18-6.322 17.034-8.068 28.144 2.368.976 4.784 2.04 7.236 3.186 2.084-14.112 5.528-24.62 9.064-30.486 1.464-.206 2.814-.76 3.962-1.582l44.734 25.826c-.018.224-.036.448-.036.678v.468c0 .992.168 1.946.468 2.842-4.69 9.54-19.954 25.282-44.684 40.06-3.848 2.3-7.582 4.374-11.192 6.244.202 2.848.454 5.566.75 8.152 4.702-2.346 9.506-4.972 14.346-7.866 19.708-11.776 37.82-26.816 45.732-39.738v48.728zm13.034-58.422v-.468c0-4.966-4.028-8.992-8.992-8.992h-.47c-1.95 0-3.75.626-5.222 1.682l-44.732-25.826c.016-.226.034-.45.034-.68v-.468c0-4.966-4.026-8.992-8.992-8.992h-.466c-4.968 0-8.992 4.026-8.992 8.992v.468c0 .23.016.454.032.68l-44.73 25.826c-.514-.368-1.068-.68-1.652-.934v-52.15c3.22-1.454 5.464-4.686 5.464-8.446 0-5.122-4.15-9.272-9.268-9.272-5.12 0-9.27 4.15-9.27 9.272 0 3.76 2.244 6.992 5.464 8.446v52.142c-3.188 1.382-5.42 4.554-5.42 8.252v.468c0 3.696 2.232 6.866 5.42 8.25v51.596c-3.188 1.382-5.42 4.556-5.42 8.252v.468c0 4.964 4.026 8.992 8.992 8.992h.468c1.95 0 3.748-.626 5.222-1.682l44.73 25.826c-.016.224-.032.448-.032.678v.468c0 4.966 4.024 8.992 8.992 8.992h.466c4.966 0 8.992-4.026 8.992-8.992v-.468c0-.23-.018-.454-.034-.678l44.732-25.826c1.472 1.056 3.272 1.682 5.222 1.682h.47c4.964 0 8.992-4.028 8.992-8.992v-.468c0-3.696-2.234-6.87-5.424-8.252v-51.596c3.19-1.382 5.424-4.554 5.424-8.25" clip-path="url(#a)"/></svg>