<svg xmlns="http://www.w3.org/2000/svg" role="img" viewBox="-1.74 -0.99 90.11 90.61"><title>Hyperledger Cello logo</title><defs><clipPath id="a"><path fill="none" d="M0 0h322.779v87.193H0z"/></clipPath></defs><path fill="#e2e2e3" d="M41.102 36.548c-13.774-14.965-18.83-25.553-14.254-30.13 1.425-1.423 2.903-2.013 4.49-1.811-1.188 1.694-1.029 4.045.484 5.559 1.697 1.696 4.447 1.696 6.143 0 1.696-1.696 1.696-4.447 0-6.143-.055-.055-.114-.104-.171-.155-.205-.206-3.079-3.039-7.008-3.061-2.393-.013-4.61.983-6.587 2.961-3.667 3.667-3.671 9.177-.013 16.379 2.851 5.613 8.036 12.429 15.433 20.309-22.383-.549-34.626-4.522-34.626-11.331 0-2.014.628-3.476 1.893-4.456.358 2.038 2.133 3.589 4.273 3.589 2.399 0 4.344-1.945 4.344-4.344s-1.945-4.343-4.344-4.343c-.078 0-.153.007-.231.011-.29-.001-4.325.028-7.118 2.791-1.702 1.683-2.565 3.954-2.565 6.752 0 5.185 3.893 9.084 11.573 11.59 6.319 2.062 15.419 3.236 27.097 3.5l.955-1.372c.046-2.185.124-4.282.232-6.295m34.845 9.478c-5.724-2.976-13.67-4.756-23.679-5.311 14.261-12.854 24.357-17.482 28.797-13.042 1.425 1.424 2.014 2.902 1.812 4.489-1.694-1.188-4.045-1.029-5.559.485-1.696 1.696-1.696 4.446 0 6.142 1.696 1.697 4.446 1.697 6.143 0 .055-.055.103-.114.155-.171.206-.205 3.039-3.079 3.06-7.007.014-2.394-.982-4.611-2.96-6.588-3.667-3.667-9.178-3.671-16.38-.012-4.95 2.514-10.839 6.847-17.565 12.909-.073 1.521-.13 3.092-.167 4.724l.973.678 1.697 1.182c14.807.962 29.393 5.061 29.393 14.291 0 2.222-.682 3.644-1.573 4.559-.463-1.9-2.172-3.312-4.215-3.312-2.399 0-4.344 1.945-4.344 4.343 0 2.399 1.945 4.344 4.344 4.344.085 0 .168-.008.252-.013v.022c.092-.001 9.284-.151 9.284-9.943 0-2.93-1.231-8.485-9.468-12.769M39.8 48.736l-.783-.546C27.449 58.941 12.843 67.884 5.868 60.91c-1.571-1.572-2.095-3.059-2.111-4.336 1.671 1.016 3.878.806 5.323-.639 1.696-1.696 1.696-4.446 0-6.142-1.696-1.696-4.447-1.696-6.143 0-.06.06-.113.124-.169.187l-.015-.015c-.065.066-6.458 6.671.465 13.594 2.072 2.072 6.87 5.131 15.724 2.335 6.506-2.054 13.824-6.818 21.796-14.17.029-.764.052-1.528.063-2.291l-1.001-.697m9.703 2.099c9.742 11.128 17.088 24.275 10.582 30.781-1.571 1.571-3.058 2.094-4.336 2.111 1.016-1.671.807-3.878-.638-5.323-1.696-1.696-4.446-1.696-6.143 0-1.696 1.696-1.696 4.446 0 6.143.061.06.125.113.187.169l-.015.015c.066.065 6.672 6.458 13.595-.466 2.072-2.071 5.131-6.87 2.335-15.724-2.037-6.45-6.739-13.699-13.984-21.592l-1.552 2.228c-.006.56-.019 1.108-.031 1.658" clip-path="url(#a)"/><path fill="#ff5343" d="M47.089 43.927c.384-23.477 4.384-36.349 11.366-36.349 2.014 0 3.476.628 4.455 1.893-2.038.358-3.588 2.133-3.588 4.274 0 2.399 1.945 4.343 4.344 4.343s4.343-1.944 4.343-4.343c0-.078-.007-.154-.011-.231.001-.291-.029-4.326-2.791-7.119-1.683-1.702-3.955-2.565-6.752-2.565-5.185 0-9.085 3.894-11.591 11.573-2.127 6.523-3.307 16.017-3.518 28.243l-2.123 3.046 2.082 1.45c-.061 16.754-3.887 36.11-14.521 36.11-2.222 0-3.644-.681-4.559-1.572 1.901-.464 3.313-2.173 3.313-4.216 0-2.399-1.944-4.343-4.343-4.343s-4.344 1.944-4.344 4.343c0 .085.008.168.012.252h-.02c0 .093.15 9.284 9.941 9.284 2.931 0 8.486-1.23 12.77-9.468 3.591-6.905 5.436-17.05 5.496-30.145l2.104-3.021-2.065-1.439"/></svg>