<svg xmlns="http://www.w3.org/2000/svg" role="img" viewBox="-5.98 -5.98 311.22 309.22"><title>Hyperledger Cactus logo</title><style>.st3{fill:#a8d04b}.st4{fill:#80c88d}</style><style>.st3{fill:#a8d04b}.st4{fill:#80c88d}</style><style>.st3{fill:#a8d04b}.st4{fill:#80c88d}</style><style>.st3{fill:#a8d04b}.st4{fill:#80c88d}</style><style id="style10" type="text/css">.st3{fill:#a8d04b}.st4{fill:#80c88d}</style><g id="g290" transform="translate(-4.653 -1.32)"><path id="path56" d="M89.92 230.32c4.51 1.63 9.12 2.58 13.46 2.58 1.93 0 3.81-.2 5.61-.6.08-.37.15-.76.24-1.12 2.57-10.77 8.54-19.93 16.59-26.52-.15-10.45-3.48-21.51-8.68-28.77-2.93-4.09-6.66-7.24-10.81-9.46l2.84-5.95.65-1.36c.78-1.64.09-3.6-1.55-4.39-1.64-.78-3.61-.09-4.39 1.55l-.79 1.65-2.88 6.03c-2.89-.84-5.87-1.32-8.88-1.32-6.38 0-12.83 1.92-18.41 5.92-14.24 10.18-17.52 29.98-7.34 44.22.22.3.46.6.69.9l-4.69 2.48c-.42.22-.76.52-1.04.87-.79.99-.96 2.39-.33 3.58.59 1.11 1.73 1.75 2.91 1.75.52 0 1.05-.12 1.54-.38l.07-.04 6.11-3.24c3.57 3.34 7.9 6.36 12.54 8.75l-.16 7.26-.02.91c-.04 1.82 1.4 3.32 3.22 3.36h.07c1.3 0 2.43-.76 2.96-1.87.2-.41.32-.86.33-1.34zm11.82-16.84c-2.07 0-3.74-1.67-3.74-3.74 0-2.07 1.68-3.74 3.74-3.74 2.07 0 3.74 1.68 3.74 3.74.01 2.07-1.67 3.74-3.74 3.74zM98 178.27c2.07 0 3.74 1.68 3.74 3.74 0 2.07-1.68 3.74-3.74 3.74-2.07 0-3.74-1.68-3.74-3.74 0-2.07 1.68-3.74 3.74-3.74zm-21.88 24.01c-2.07 0-3.74-1.68-3.74-3.74 0-2.07 1.67-3.74 3.74-3.74 2.07 0 3.74 1.67 3.74 3.74 0 2.06-1.68 3.74-3.74 3.74z" class="st3"/><path id="path58" d="M259.65 215.63c4.09-10.51 2.43-22.87-5.4-32.06-6.27-7.36-15.18-11.15-24.15-11.15-1.48 0-2.96.13-4.43.34l-2.57-6.26-.28-.67c-.69-1.68-2.61-2.49-4.29-1.8-1.66.68-2.46 2.57-1.81 4.24.01.02.01.04.02.05l2.47 6.03c-3.43 1.26-6.7 3.12-9.64 5.63-7.75 6.6-14.39 18.53-16.38 29.98 6.73 7.55 11.06 17.11 12.17 27.34 3.77 1.55 8.1 2.28 12.64 2.28 5.47 0 11.21-1.04 16.59-2.79l2.08 5.8c.05.14.15.26.21.39.57 1.1 1.68 1.79 2.88 1.79.37 0 .74-.06 1.11-.19 1.61-.58 2.48-2.29 2.06-3.92-.03-.1-.04-.2-.07-.29l-2.14-5.97c3.76-1.73 7.18-3.81 9.93-6.15 2.29-1.95 4.2-4.16 5.79-6.54l6.88 1.34 1.18.23c.21.04.43.06.64.06 1.54 0 2.92-1.09 3.22-2.66.32-1.66-.67-3.25-2.24-3.75-.12-.04-.23-.08-.36-.11zm-41.34-19.77c-2.07 0-3.74-1.67-3.74-3.74 0-2.07 1.68-3.74 3.74-3.74 2.07 0 3.74 1.67 3.74 3.74 0 2.07-1.67 3.74-3.74 3.74zm10.56 29.73c-2.07 0-3.74-1.68-3.74-3.74 0-2.07 1.67-3.74 3.74-3.74 2.07 0 3.74 1.68 3.74 3.74 0 2.06-1.67 3.74-3.74 3.74zm18.9-19.59c-2.07 0-3.74-1.68-3.74-3.74 0-2.07 1.67-3.74 3.74-3.74 2.07 0 3.74 1.67 3.74 3.74 0 2.06-1.67 3.74-3.74 3.74z" class="st3"/><path id="path60" d="M50.53 137.26c5.28 8.6 13.97 18.77 21.93 23.82 5.32-3.04 11.23-4.73 17.38-4.97 1.27-3.9 1.85-8.84 1.95-14.01l6.6-1.3.41-.08c1.78-.35 2.94-2.08 2.59-3.87-.31-1.55-1.66-2.63-3.18-2.65-.22 0-.45.01-.68.06l-5.84 1.16c-.39-7.77-1.6-15.25-2.88-19.7-2.01-7.03-7.19-12.28-13.54-14.68l.2-6.29c.01-.2-.01-.39-.04-.58-.22-1.55-1.52-2.77-3.14-2.82-1.25-.01-2.39.69-2.97 1.73-.24.43-.4.92-.42 1.45l-.16 5.1c-.43-.03-.86-.05-1.29-.05-2.02 0-4.08.28-6.11.86-11.81 3.37-18.65 15.67-15.28 27.48.27.93.66 1.97 1.15 3.08l-6.78.73-2.35.25c-1.81.19-3.11 1.82-2.92 3.62.18 1.69 1.61 2.94 3.27 2.94.12 0 .24-.01.36-.02l4.6-.49zM78.55 144c0 2.07-1.68 3.74-3.74 3.74-2.07 0-3.74-1.68-3.74-3.74 0-2.07 1.67-3.74 3.74-3.74 2.06 0 3.74 1.67 3.74 3.74zm-6.17-22.74c-2.07 0-3.74-1.68-3.74-3.74 0-2.07 1.68-3.74 3.74-3.74 2.07 0 3.74 1.68 3.74 3.74 0 2.07-1.68 3.74-3.74 3.74z" class="st3"/><path id="path62" d="M107.49 57.54c-4.29 9.04-4.29 19.95 1.02 29.32 5.66 9.99 18.23 19.89 30.53 23.13 6.69-5.61 15.27-8.92 24.57-8.92.34 0 .68.05 1.02.06 7.5-12.38 6.12-33.39-.8-45.59-5.85-10.33-16.61-16.13-27.69-16.13-1.18 0-2.36.08-3.54.21l-.09-6.6-.04-2.96c-.02-1.8-1.49-3.25-3.29-3.25h-.04c-1.82.02-3.27 1.52-3.25 3.33l.05 4.08.09 6.84c-1.88.64-3.74 1.45-5.53 2.47-3.77 2.13-6.93 4.93-9.43 8.15l-6.8-1.8-3.32-.88c-1.74-.46-3.56.58-4.02 2.34-.46 1.76.58 3.56 2.34 4.02l1.77.47zm41.55.02c2.07 0 3.74 1.68 3.74 3.74 0 2.07-1.68 3.74-3.74 3.74-2.07 0-3.74-1.68-3.74-3.74 0-2.06 1.68-3.74 3.74-3.74zm-10.86 26.4c2.07 0 3.74 1.67 3.74 3.74 0 2.07-1.68 3.74-3.74 3.74-2.07 0-3.74-1.68-3.74-3.74-.01-2.06 1.67-3.74 3.74-3.74zm-17.46-13.01c0 2.07-1.68 3.74-3.74 3.74-2.07 0-3.74-1.68-3.74-3.74 0-2.07 1.67-3.74 3.74-3.74 2.07 0 3.74 1.67 3.74 3.74z" class="st3"/><path id="path64" d="M201.35 88.2c-1.39.92-2.71 1.99-3.9 3.26-4.27 4.5-7.67 11.73-8.86 18.9 6.62 5.71 11.14 13.57 12.71 22.22 1.12.17 2.28.25 3.47.25 9.04 0 19.51-4.64 25.14-10.56 6.31-6.64 7.72-16.14 4.39-24.08l5.7-3.36.93-.55c1.57-.92 2.09-2.94 1.16-4.51-.92-1.56-2.94-2.08-4.51-1.16l-1 .59-5.71 3.36c-.56-.67-1.14-1.32-1.79-1.93-4.33-4.11-9.87-6.15-15.4-6.14-2.13 0-4.26.31-6.32.92l-1.87-5.72c-.06-.18-.14-.34-.22-.51-.73-1.4-2.38-2.11-3.93-1.6-1.73.56-2.67 2.42-2.11 4.15l.02.06zm9.68 9.38c2.07 0 3.74 1.67 3.74 3.74 0 2.07-1.68 3.74-3.74 3.74-2.07 0-3.74-1.68-3.74-3.74-.01-2.06 1.67-3.74 3.74-3.74z" class="st3"/><path id="path66" d="M170.76 108.47c-2.4-.55-4.79-.82-7.15-.82-14.43 0-27.48 9.92-30.86 24.58-3.11 13.47 1.6 47.29 12.11 62.86 3.82-.95 7.79-1.47 11.88-1.47 3.81 0 7.64.45 11.37 1.34.66.16 1.31.34 1.95.52 11.63-12.53 21.71-37.14 24.45-49.02 3.94-17.04-6.7-34.06-23.75-37.99zm-21.64 49.93c-2.07 0-3.74-1.68-3.74-3.74 0-2.07 1.67-3.74 3.74-3.74 2.07 0 3.74 1.67 3.74 3.74 0 2.07-1.68 3.74-3.74 3.74zm10.71-30.22c-2.07 0-3.74-1.67-3.74-3.74 0-2.07 1.68-3.74 3.74-3.74 2.07 0 3.74 1.67 3.74 3.74 0 2.07-1.67 3.74-3.74 3.74zm20.89 22.26c-2.07 0-3.74-1.67-3.74-3.74 0-2.07 1.68-3.74 3.74-3.74 2.07 0 3.74 1.68 3.74 3.74 0 2.07-1.67 3.74-3.74 3.74z" class="st4"/><path id="path68" d="M186.97 274.75c5.27-7.18 9.2-15.09 10.95-22.42 5.42-22.72-8.61-45.54-31.33-50.96-3.3-.79-6.6-1.16-9.85-1.16-19.13 0-36.48 13.07-41.11 32.49-1.61 6.73-1.8 14.73-.71 22.79l-5.59-3.35c-.44-.26-.92-.4-1.4-.44-1.22-.11-2.44.46-3.11 1.57-.93 1.56-.43 3.58 1.13 4.51l2.97 1.78 7.68 4.6c4.06 16.05 13.27 30.62 26.84 33.85 1.92.46 3.86.67 5.81.67 11.17 0 22.7-7.09 31.83-16.85l9.29-.79 2.93-.25c1.81-.15 3.15-1.75 3-3.56-.09-1.01-.64-1.87-1.42-2.41-.61-.42-1.35-.66-2.14-.59zm-4.89-22.25c2.07 0 3.74 1.68 3.74 3.74 0 2.07-1.67 3.74-3.74 3.74-2.07 0-3.74-1.68-3.74-3.74 0-2.07 1.67-3.74 3.74-3.74zm-46.43 10.31c-2.07 0-3.74-1.67-3.74-3.74 0-2.07 1.68-3.74 3.74-3.74 2.07 0 3.74 1.68 3.74 3.74 0 2.06-1.68 3.74-3.74 3.74zm7.48-35.28c-2.07 0-3.74-1.67-3.74-3.74 0-2.07 1.68-3.74 3.74-3.74 2.07 0 3.74 1.67 3.74 3.74 0 2.07-1.67 3.74-3.74 3.74zm16.38 57.01c-2.07 0-3.74-1.68-3.74-3.74 0-2.07 1.67-3.74 3.74-3.74 2.07 0 3.74 1.67 3.74 3.74.01 2.07-1.67 3.74-3.74 3.74zm3.75-48.36c-2.07 0-3.74-1.68-3.74-3.74 0-2.07 1.67-3.74 3.74-3.74 2.07 0 3.74 1.68 3.74 3.74 0 2.07-1.68 3.74-3.74 3.74z" class="st4"/><path id="path70" d="M21.29 198.32c.4.21.8.43 1.22.61 3.94 1.73 8.94 2.65 14.03 2.65 5.99 0 12.08-1.28 16.73-3.96-.27-3.15-.19-6.35.34-9.55.81-4.86 2.52-9.42 5-13.52-3.72-7.62-10.83-14.64-17.62-17.63-3.01-1.32-6.14-1.95-9.23-1.95-6.51 0-12.79 2.81-17.16 7.73l-4.12-4.99-.12-.12c-1.18-1.28-3.15-1.45-4.51-.33-1.4 1.16-1.6 3.23-.45 4.63l.9 1.09 4.54 5.51c-.03.07-.07.13-.11.2-3.98 9.05-1.63 19.26 5.09 25.74l-4.79 4.53-.74.7c-1.32 1.25-1.38 3.33-.13 4.65.65.69 1.52 1.03 2.39 1.03.81 0 1.62-.3 2.26-.9l1.47-1.39zm18.32-13.68c2.07 0 3.74 1.67 3.74 3.74 0 2.07-1.67 3.74-3.74 3.74-2.07 0-3.74-1.68-3.74-3.74 0-2.07 1.67-3.74 3.74-3.74zm-6.73-17.3c2.07 0 3.74 1.68 3.74 3.74 0 2.07-1.67 3.74-3.74 3.74-2.07 0-3.74-1.67-3.74-3.74-.01-2.06 1.67-3.74 3.74-3.74z" class="st4"/><path id="path72" d="M20.59 113.77c2.65.77 5.65 1.18 8.7 1.18 3.69 0 7.43-.6 10.68-1.84 1.7-5.33 4.92-10.11 9.3-13.67-1-8.37-8.91-17.57-16.36-20.84-2.45-1.08-5-1.59-7.51-1.59-2.31 0-4.57.47-6.69 1.29l-2.31-5.67c-.06-.16-.15-.3-.23-.44-.82-1.37-2.52-1.99-4.06-1.37-1.68.69-2.49 2.6-1.81 4.29l.11.26L13 81.74c-1.96 1.73-3.59 3.9-4.71 6.44-3.58 8.14-.88 17.44 5.98 22.52l-4.57 4.34c-.09.08-.12.19-.2.28-1.07 1.26-1.09 3.14.08 4.37.65.68 1.52 1.03 2.39 1.03.81 0 1.63-.3 2.26-.9l1.03-.97zm7.46-26.06c2.07 0 3.74 1.67 3.74 3.74 0 2.07-1.68 3.74-3.74 3.74-2.07 0-3.74-1.67-3.74-3.74 0-2.07 1.68-3.74 3.74-3.74z" class="st4"/><path id="path74" d="M301.2 165.18l-4.53-.54c.77-.86 1.49-1.68 2.07-2.42 7.63-9.62 6.01-23.61-3.61-31.23-1.42-1.13-2.94-2.04-4.52-2.77l1.25-6.09c.03-.16.04-.32.05-.49.09-1.6-.99-3.07-2.61-3.4-1.46-.3-2.9.44-3.57 1.7-.14.27-.26.55-.32.86l-1.14 5.58c-.97-.13-1.95-.21-2.93-.21-6.55 0-13.05 2.89-17.44 8.42-1.86 2.35-3.83 6.16-5.62 10.68l-4.36-4.6c-.19-.2-.43-.32-.66-.47-1.24-.78-2.88-.71-3.99.34-1.32 1.25-1.37 3.33-.12 4.65l1.54 1.63 5.17 5.45c-2.07 6.86-3.51 14.37-3.55 20.69 2.54 1.81 4.9 3.9 6.96 6.33 2.08 2.45 3.76 5.1 5.13 7.86 8.09-1.68 18.67-9.46 26.39-16.59l8.38 1 1.26.15c.13.02.26.02.39.02 1.64 0 3.06-1.23 3.26-2.9.09-.78-.11-1.52-.5-2.14-.51-.8-1.35-1.39-2.38-1.51zm-32.46-1.57c-2.07 0-3.74-1.67-3.74-3.74 0-2.07 1.68-3.74 3.74-3.74 2.07 0 3.74 1.67 3.74 3.74 0 2.07-1.67 3.74-3.74 3.74zm7.48-22.2c-2.07 0-3.74-1.67-3.74-3.74 0-2.07 1.68-3.74 3.74-3.74 2.07 0 3.74 1.68 3.74 3.74 0 2.07-1.67 3.74-3.74 3.74zm19.83 9.04c0 2.07-1.68 3.74-3.74 3.74-2.07 0-3.74-1.68-3.74-3.74 0-2.07 1.68-3.74 3.74-3.74 2.06 0 3.74 1.68 3.74 3.74z" class="st4"/><path id="path76" d="M165.78 28.29c-1.46 5.02-2.57 10.34-3.04 15.25 2.65 2.54 4.97 5.47 6.82 8.75 1.68 2.97 3.08 6.43 4.17 10.17 8.62-1.35 20.46-10.27 28.5-17.95.13 0 .27-.01.41-.03l10.01-1.34 3.61-.48c1.8-.24 3.07-1.9 2.83-3.7-.15-1.13-.86-2.05-1.82-2.51-.56-.28-1.21-.4-1.88-.31l-6.18.83c5.48-7.21 5.9-16.73 1.75-24.22l4.88-4.62.18-.17c1.32-1.25 1.38-3.33.13-4.65-1.18-1.25-3.08-1.32-4.4-.28-.08.06-.17.09-.25.16l-4.57 4.33c-.5-.48-1.03-.95-1.59-1.39-4.09-3.24-8.96-4.81-13.8-4.81-6.55 0-13.05 2.89-17.44 8.42-2.02 2.55-4.17 6.81-6.06 11.84l-3.4-2.9c-.65-.55-1.45-.8-2.25-.77-.89.03-1.77.41-2.39 1.15-1.17 1.37-1.01 3.42.34 4.6.01.01.02.03.04.04zm24.8-15.72c2.07 0 3.74 1.67 3.74 3.74 0 2.07-1.68 3.74-3.74 3.74-2.07 0-3.74-1.68-3.74-3.74 0-2.07 1.67-3.74 3.74-3.74zm-7.49 27.7c2.07 0 3.74 1.67 3.74 3.74 0 2.07-1.67 3.74-3.74 3.74-2.07 0-3.74-1.67-3.74-3.74 0-2.07 1.68-3.74 3.74-3.74z" class="st4"/></g></svg>