<svg xmlns="http://www.w3.org/2000/svg" role="img" viewBox="-1.88 -1.88 97.76 93.14"><title>Hyperledger Avalon logo</title><defs><style>.cls-2{fill:#00b37e}</style></defs><path d="M39.16 48.924c-.2 1.48-1.022 2.804-2.26 3.64 1.1 1.37 2.07 2.51 2.68 3.11.146.187.363.307.6.33.93 0 1.28-2.72 1.09-5.85-.79-.239-1.513-.66-2.11-1.23zm14.29 8.08c.238-.005.474-.045.7-.12 6.48-2 8.08-4.79 8.39-6.55-2.36 2.271-6.204 1.839-8-.9-.882.606-1.93.924-3 .91h-.16c-.18 3.02-.06 6.66 2.07 6.66z" class="cls-2"/><path d="M94.07 46.184c-.52-13.09-5.53-24.92-14.12-33.29C71.131 4.473 59.362-.154 47.17.004c-36.258 0-58.919 39.25-40.79 70.65 3.935 6.815 9.515 12.536 16.23 16.64h.06c1.07.598 2.213 1.055 3.4 1.36 2.018.581 4.177.425 6.09-.44 1.615-.835 2.868-2.233 3.52-3.93.438-1.08.73-2.213.87-3.37 1.76-7.83 2.12-17.06 1.33-20.43-.46-2-2-4.49-3.79-7h-.13c.01.167.01.333 0 .5.004 4.041-4.368 6.572-7.87 4.554-.536-.308-1.014-.709-1.41-1.184-2.588 3.104-7.566 2.243-8.96-1.55-1.191-3.239 1.014-6.726 4.45-7.04-.62-2.019.035-4.212 1.66-5.56-2.54-3.143-.725-7.858 3.267-8.486.269-.042.541-.064.813-.064h.28c-1.099-3.232 1.137-6.636 4.54-6.91-.258-.635-.39-1.314-.39-2-.003-4.041 4.37-6.57 7.872-4.552.094.054.187.112.278.172 1.536-3.072 5.566-3.854 8.14-1.58 1.269-3.837 6.216-4.862 8.904-1.844.642.72 1.073 1.604 1.246 2.554h.08c2.899 0 5.25 2.351 5.25 5.25-.001.404-.048.807-.14 1.2 1.117.363 2.081 1.088 2.74 2.06 3.406-1.138 6.921 1.41 6.9 5 .004.686-.129 1.366-.39 2 2.082.75 3.47 2.726 3.47 4.94-.007.356-.048.711-.12 1.06.248-.041.499-.061.75-.06 4.041 0 6.567 4.375 4.547 7.875-.938 1.624-2.671 2.625-4.547 2.625-1.179.007-2.326-.388-3.25-1.12-1.451 2.53-4.69 3.385-7.2 1.9-4 8-12.68 4.41-12.78 16.32 0 3.36 1.29 8.53 3 13.18.1.28.2.56.31.83.671 1.8 1.874 3.352 3.45 4.45.242.16.492.307.75.44h.06c.18.1.36.18.54.26h.13c.163.07.33.131.5.18l.24.12.47.13h.23c.154.041.311.071.47.09h.24l.51.05h.97c.368.057.738.098 1.11.12.31 0 .63-.07 1-.13 6.06-1.09 13.29-6.58 18.85-14.36 6.31-8.79 9.57-18.99 9.15-28.72zm-28.84 38.39c-2.91.52-4.7-.53-5.61-3.33-1.55-4.07-2.79-8.74-2.76-11.66 0-4.21.93-4.7 3.91-6.32 2.319-1.123 4.405-2.674 6.15-4.57h.62c2 .011 3.958-.577 5.62-1.69.709.16 1.433.24 2.16.24 7.698.048 12.56-8.256 8.753-14.946-1.141-2.005-2.941-3.554-5.093-4.384-.508-1.597-1.408-3.042-2.62-4.2-.149-5.269-4.363-9.517-9.63-9.71-.629-3.545-3.116-6.479-6.51-7.68-3.19-5.354-10.446-6.518-15.15-2.43-.613-.12-1.236-.18-1.86-.18-2.226.004-4.386.75-6.14 2.12-.47-.068-.945-.102-1.42-.1-5.117-.032-9.432 3.805-10 8.89-2.212 1.481-3.753 3.773-4.29 6.38-3.347 1.71-5.452 5.152-5.45 8.91-.002.931.13 1.857.39 2.75-.473.892-.81 1.849-1 2.84-6.646 3.884-6.596 13.506.091 17.32 2.844 1.623 6.303 1.75 9.259.34 2.801 1.223 6.006 1.106 8.71-.32.227 4.598-.065 9.207-.87 13.74-.325 2.024-.769 4.028-1.33 6-.21.591-.615 1.092-1.15 1.42-1.54.78-4.14-.29-5-.74C-2.826 66.309-1.869 25.578 26.732 9.949c6.267-3.424 13.297-5.208 20.438-5.185 10.964-.167 21.555 3.973 29.5 11.53 7.71 7.52 12.22 18.21 12.68 30.08.77 19.78-15.18 36.63-24.12 38.2z" class="cls-2"/></svg>