<svg xmlns="http://www.w3.org/2000/svg" role="img" viewBox="-5.59 -5.59 316.68 107.18"><title>Hyperledger Besu logo</title><style>svg {enable-background:new 0 0 305.7 96.5}</style><style>.st0{fill:#19a1a1}</style><g><g><path d="M98.5 22.1L107.2 22 107.2 30.8 111.7 30.8 111.6 10.5 107.1 10.5 107.2 18.1 98.5 18.1 98.4 10.5 94 10.5 94.1 30.9 98.5 30.8zM122.6 30.8L127.1 30.8 127 22.2 134.6 10.5 129.3 10.5 124.7 18.1 120.4 10.5 114.8 10.6 122.5 22.2zM142.3 30.8l0-7.9 3.3 0c1.1 0 2.1-.1 3-.3.9-.2 1.7-.5 2.4-1 .7-.5 1.2-1.1 1.6-1.9.4-.8.6-1.8.6-3 0-1.2-.2-2.2-.6-3-.4-.8-1-1.4-1.7-1.9-.7-.5-1.5-.8-2.5-1-.9-.2-1.9-.3-3-.3l-7.6 0 .1 20.3L142.3 30.8zM144.5 14.3c.4 0 .9 0 1.3.1.5 0 .9.2 1.3.3.4.2.7.4.9.7.2.3.4.7.4 1.2 0 .5-.1.9-.3 1.2-.2.3-.4.6-.7.8-.3.2-.6.3-1 .4-.4.1-.8.1-1.2.1l-3 0 0-4.8L144.5 14.3zM170.6 30.8L170.6 26.6 160.7 26.7 160.7 22.6 169.5 22.5 169.5 18.4 160.7 18.4 160.6 14.6 170 14.6 170 10.5 156.1 10.5 156.2 30.9zM184.7 30.8l5.4 0-5.2-8.6c1.4-.3 2.5-.9 3.3-1.9.7-1 1.1-2.2 1.1-3.7 0-1.2-.2-2.2-.6-3-.4-.8-1-1.4-1.7-1.9-.7-.5-1.5-.8-2.4-1-.9-.2-1.9-.3-2.9-.3l-7.9 0 .1 20.3 4.5 0 0-8.1 2.2 0L184.7 30.8zM178.2 18.9l0-4.6 2.9 0c.4 0 .8 0 1.2.1.4.1.8.2 1.1.3.3.2.6.4.8.7.2.3.3.7.3 1.2 0 .6-.1 1-.4 1.3-.2.3-.5.5-.9.7-.4.1-.8.2-1.2.3-.4 0-.9 0-1.3 0L178.2 18.9zM206 30.8L206 26.6 197.7 26.7 197.6 10.5 193.1 10.5 193.2 30.8zM223.5 30.8L223.5 26.6 213.6 26.7 213.6 22.6 222.4 22.5 222.4 18.4 213.6 18.4 213.6 14.6 222.9 14.6 222.9 10.5 209.1 10.5 209.2 30.8zM242 28.2c1-.9 1.9-1.9 2.5-3.2.6-1.3.9-2.7.9-4.4 0-1.9-.3-3.4-1-4.7-.6-1.3-1.5-2.3-2.6-3.2-1.1-.8-2.4-1.4-3.8-1.7-1.5-.4-3-.5-4.6-.5l-6.7 0 .1 20.3 7.3 0c1.5 0 3-.2 4.3-.7C239.8 29.7 241 29 242 28.2zM233.5 26.7l-2.3 0-.1-12.1 2.6 0c.9 0 1.8.1 2.7.3.8.2 1.6.6 2.2 1.1.6.5 1.1 1.1 1.5 1.8.4.7.6 1.6.6 2.6 0 1.1-.2 2.1-.5 2.9-.4.8-.9 1.4-1.5 1.9-.6.5-1.4.8-2.3 1.1C235.5 26.6 234.5 26.7 233.5 26.7zM260.1 18.8l0 4.1 3.6 0 0 3.3c-.4.2-1 .5-1.7.7-.7.2-1.5.3-2.5.3-1 0-1.8-.2-2.6-.5-.8-.3-1.4-.8-2-1.4-.6-.6-1-1.3-1.3-2.1-.3-.8-.5-1.7-.5-2.6 0-.9.1-1.8.4-2.6.3-.8.7-1.5 1.3-2.1.6-.6 1.2-1 2-1.4.8-.3 1.6-.5 2.6-.5 1.1 0 2.1.2 2.9.5.8.3 1.5.8 2.1 1.4l3.1-3.5c-1-1-2.2-1.6-3.6-2-1.4-.4-2.9-.6-4.5-.6-1.6 0-3.1.3-4.4.8-1.3.5-2.5 1.2-3.5 2.2-1 .9-1.7 2.1-2.3 3.4-.5 1.3-.8 2.8-.8 4.4 0 1.6.3 3.1.8 4.4.6 1.3 1.3 2.4 2.3 3.4 1 .9 2.1 1.6 3.5 2.1 1.3.5 2.8.7 4.4.7 1.5 0 3-.2 4.4-.5 1.4-.3 2.8-.8 4.1-1.5L268 18.7 260.1 18.8zM285.6 30.3L285.6 26.2 275.7 26.2 275.7 22.1 284.5 22 284.5 17.9 275.7 18 275.7 14.2 285 14.1 285 10 271.2 10.1 271.3 30.4zM293.3 30.3l0-8.1 2.2 0 4.3 8.1 5.4 0-5.2-8.6c1.4-.3 2.5-.9 3.3-1.9.7-1 1.1-2.2 1.1-3.7 0-1.2-.2-2.2-.6-3-.4-.8-1-1.4-1.7-1.9-.7-.5-1.5-.8-2.4-1-.9-.2-1.9-.3-2.9-.3l-7.9 0 .1 20.3L293.3 30.3zM296.1 13.8c.4 0 .8 0 1.2.1.4.1.8.2 1.1.3.3.2.6.4.8.7.2.3.3.7.3 1.2 0 .6-.1 1-.4 1.3-.2.3-.5.5-.9.7-.4.1-.8.2-1.2.3-.5 0-.9 0-1.3 0l-2.6 0 0-4.6L296.1 13.8z"/></g><g><g><path d="M94.4 46.3h18.3c7.1 0 11.5 4.3 11.5 10.5 0 5.2-3.4 8.6-7.2 9.4 4.4.7 8 5.2 8 10.1 0 6.6-4.4 11.1-11.9 11.1H94.4V46.3zM111.8 64c4.6 0 7.1-2.8 7.1-6.6 0-3.7-2.5-6.6-7.1-6.6H99.5V64H111.8zM112.1 82.7c4.8 0 7.6-2.7 7.6-7.1 0-3.8-2.6-7.1-7.6-7.1H99.5v14.1H112.1zM131.9 46.3h26.9v4.5H137V64h21.3v4.5H137v14.1h21.8v4.5h-26.9V46.3zM166.2 77.6c2.7 3 7.1 5.8 12.9 5.8 7.3 0 9.7-3.9 9.7-7.1 0-4.9-5-6.3-10.4-7.7-6.6-1.7-13.9-3.6-13.9-11.6 0-6.8 6-11.4 14.1-11.4 6.3 0 11.1 2.1 14.6 5.7l-3.1 3.8c-3.1-3.4-7.4-4.9-11.9-4.9-4.9 0-8.4 2.6-8.4 6.5 0 4.1 4.7 5.3 10 6.8 6.7 1.8 14.3 3.9 14.3 12.5 0 6-4.1 12-15.1 12-7.1 0-12.4-2.7-15.7-6.5L166.2 77.6zM200.4 46.3h5.1v25c0 7.5 4.1 12.2 11.6 12.2 7.6 0 11.6-4.7 11.6-12.2v-25h5.1v25c0 10.2-5.6 16.7-16.7 16.7-11.1 0-16.7-6.6-16.7-16.7V46.3z" class="st0"/></g></g><path d="M69.2,39.9v-0.2c0-2.5-2-4.5-4.5-4.5h-0.2c-1,0-1.9,0.3-2.6,0.8L39.5,23.1c0-0.1,0-0.2,0-0.3v-0.2 c0-2.5-2-4.5-4.5-4.5h-0.2c-2.5,0-4.5,2-4.5,4.5v0.2c0,0.1,0,0.2,0,0.3L7.9,36c-0.3-0.2-0.5-0.3-0.8-0.5V9.5 c1.6-0.7,2.7-2.3,2.7-4.2c0-2.6-2.1-4.6-4.6-4.6S0.6,2.7,0.6,5.3c0,1.9,1.1,3.5,2.7,4.2v26.1c-1.6,0.7-2.7,2.3-2.7,4.1v0.2 c0,1.8,1.1,3.4,2.7,4.1v25.8c-1.6,0.7-2.7,2.3-2.7,4.1v0.2c0,2.5,2,4.5,4.5,4.5h0.2c1,0,1.9-0.3,2.6-0.8l22.4,12.9 c0,0.1,0,0.2,0,0.3v0.2c0,2.5,2,4.5,4.5,4.5H35c2.5,0,4.5-2,4.5-4.5v-0.2c0-0.1,0-0.2,0-0.3l22.4-12.9c0.7,0.5,1.6,0.8,2.6,0.8h0.2 c2.5,0,4.5-2,4.5-4.5V74c0-1.8-1.1-3.4-2.7-4.1V44.1C68.1,43.4,69.2,41.8,69.2,39.9z M62.7,69.1c-2.1-3.5-5.7-7.3-10.2-11 c-1,0.8-2.1,1.6-3.1,2.4c5.7,4.6,9.3,9,10.8,12C60.1,73,60,73.5,60,74v0.2c0,0.1,0,0.2,0,0.3L37.6,87.5c-0.6-0.4-1.2-0.7-2-0.8 C32.8,82,30.1,71.4,30.1,57c0-2.2,0.1-4.4,0.2-6.4c-1.3-0.6-2.5-1.2-3.7-1.8c-0.2,2.7-0.3,5.4-0.3,8.2c0,11.6,1.8,23.3,5.2,30.1 L10.9,75.2c3.8,0,8.9-1.2,14.5-3.4c-0.2-1.3-0.3-2.6-0.5-3.9c-7.4,3-13,3.9-16.1,3.3c-0.5-0.6-1.1-1.1-1.8-1.4V44.1 c0.7-0.3,1.3-0.8,1.8-1.4c4.6-0.9,15.4,1.7,29,9.8c1.8,1.1,3.5,2.2,5.1,3.3c1.1-0.8,2.2-1.6,3.3-2.4c-2.1-1.4-4.2-2.8-6.4-4.2 c-11.2-6.7-21.9-10.5-28.9-10.6l20.6-11.9c-1.8,3.6-3.2,8.5-4,14.1c1.2,0.5,2.4,1,3.6,1.6c1-7.1,2.8-12.3,4.5-15.2 c0.7-0.1,1.4-0.4,2-0.8L60,39.4c0,0.1,0,0.2,0,0.3v0.2c0,0.5,0.1,1,0.2,1.4c-2.3,4.8-10,12.6-22.3,20c-1.9,1.2-3.8,2.2-5.6,3.1 c0.1,1.4,0.2,2.8,0.4,4.1c2.4-1.2,4.8-2.5,7.2-3.9c9.9-5.9,18.9-13.4,22.9-19.9V69.1z" class="st0"/></g></svg>