<svg xmlns="http://www.w3.org/2000/svg" role="img" viewBox="-6.51 -6.51 338.26 106.51"><title>Hyperledger Quilt logo</title><style>svg {enable-background:new 0 0 325.7 93.7}</style><style>.st2{fill:#845778}.st10{fill:#bde3db}.st11{fill:#fdded2}</style><g><path fill="#fff" d="M61.3 28.8H65.1V32.4H61.3zM28.8 61.3H32.5V64.89999999999999H28.8zM28.8 28.8H32.5V32.4H28.8zM61.3 61.3H65V64.89999999999999H61.3z"/><path fill="#24272a" d="M115.2 9.3L119.6 9.2 119.7 16.8 128.4 16.7 128.3 9.2 132.8 9.2 132.9 29.4 128.4 29.4 128.4 20.7 119.7 20.7 119.8 29.5 115.3 29.5zM143.7 20.9L136 9.3 141.5 9.3 145.9 16.8 150.4 9.2 155.7 9.2 148.1 20.8 148.2 29.5 143.7 29.5zM158.8 9.2l7.5 0c1 0 2 .1 3 .3.9.2 1.8.5 2.5 1 .7.5 1.3 1.1 1.7 1.9.4.8.6 1.8.6 3 0 1.2-.2 2.2-.6 3-.4.8-.9 1.4-1.6 1.9-.7.5-1.5.8-2.4 1-.9.2-1.9.3-3 .3l-3.3 0 0 7.9-4.5 0L158.8 9.2zM163.3 17.8l3 0c.4 0 .8 0 1.2-.1.4-.1.7-.2 1-.4.3-.2.5-.4.7-.7.2-.3.3-.7.3-1.2 0-.5-.1-.9-.4-1.2-.2-.3-.5-.6-.9-.7-.4-.2-.8-.3-1.2-.3-.5 0-.9-.1-1.3-.1l-2.3 0L163.3 17.8zM177.2 9.3L190.9 9.2 191 13.3 181.6 13.4 181.7 17.1 190.5 17.1 190.5 21.2 181.7 21.2 181.7 25.4 191.5 25.3 191.6 29.4 177.3 29.5zM194.6 9.2l7.8 0c1 0 2 .1 2.9.3.9.2 1.7.5 2.4 1 .7.5 1.3 1.1 1.7 1.9.4.8.6 1.8.6 3 0 1.4-.4 2.6-1.1 3.7-.7 1-1.8 1.6-3.3 1.9l5.2 8.5-5.4 0-4.3-8.1-2.2 0 0 8.1-4.5 0L194.6 9.2zM199.2 17.6l2.6 0c.4 0 .8 0 1.3 0 .4 0 .9-.1 1.2-.3.4-.1.7-.4.9-.7.2-.3.4-.7.4-1.3 0-.5-.1-.9-.3-1.2-.2-.3-.5-.5-.8-.7-.3-.2-.7-.3-1.1-.3-.4-.1-.8-.1-1.2-.1l-2.9 0L199.2 17.6zM214 9.2L218.5 9.2 218.5 25.3 226.8 25.3 226.8 29.4 214.1 29.5zM229.9 9.2L243.7 9.2 243.7 13.3 234.4 13.3 234.4 17.1 243.2 17.1 243.3 21.2 234.5 21.2 234.5 25.4 244.3 25.3 244.3 29.4 230 29.5zM247.4 9.2l6.7 0c1.6 0 3.2.2 4.6.5 1.5.4 2.7.9 3.8 1.7 1.1.8 2 1.9 2.6 3.1.6 1.3 1 2.9 1 4.7 0 1.6-.3 3.1-.9 4.3-.6 1.3-1.4 2.3-2.5 3.2-1 .9-2.3 1.5-3.6 1.9-1.4.4-2.8.7-4.3.7l-7.3 0L247.4 9.2zM252 25.3l2.3 0c1 0 2-.1 2.9-.3.9-.2 1.7-.6 2.3-1.1.6-.5 1.2-1.1 1.5-1.9.4-.8.5-1.8.5-2.9 0-1-.2-1.9-.6-2.6-.4-.7-.9-1.3-1.5-1.8-.6-.5-1.4-.8-2.2-1.1-.9-.2-1.7-.3-2.7-.3l-2.6 0L252 25.3zM288.7 28c-1.3.7-2.7 1.2-4.1 1.5-1.4.3-2.9.5-4.4.5-1.6 0-3-.2-4.4-.7-1.3-.5-2.5-1.2-3.5-2.1-1-.9-1.7-2-2.3-3.3-.6-1.3-.8-2.8-.8-4.4 0-1.6.3-3.1.8-4.4.5-1.3 1.3-2.4 2.3-3.4 1-.9 2.1-1.6 3.5-2.1 1.3-.5 2.8-.8 4.4-.8 1.6 0 3.1.2 4.5.6 1.4.4 2.6 1.1 3.6 2l-3.1 3.4c-.6-.6-1.3-1.1-2.1-1.4-.8-.3-1.7-.5-2.9-.5-1 0-1.8.2-2.6.5-.8.3-1.4.8-2 1.4-.5.6-1 1.3-1.3 2.1-.3.8-.4 1.7-.4 2.6 0 1 .2 1.8.5 2.6.3.8.7 1.5 1.3 2.1.6.6 1.2 1 2 1.4.8.3 1.6.5 2.6.5 1 0 1.8-.1 2.5-.3.7-.2 1.3-.4 1.7-.7l0-3.3-3.6 0 0-4.1 7.9 0L288.7 28zM291.8 8.8L305.6 8.7 305.6 12.8 296.3 12.9 296.3 16.6 305.1 16.6 305.2 20.7 296.4 20.8 296.4 24.9 306.2 24.8 306.2 29 291.9 29zM309.3 8.8l7.8 0c1 0 2 .1 2.9.3.9.2 1.7.5 2.4 1 .7.5 1.3 1.1 1.7 1.9.4.8.6 1.8.6 3 0 1.4-.4 2.6-1.1 3.7-.7 1-1.8 1.6-3.3 1.9l5.2 8.5-5.4 0-4.3-8.1-2.2 0 0 8.1-4.5 0L309.3 8.8zM313.8 17.1l2.6 0c.4 0 .8 0 1.3 0 .4 0 .9-.1 1.2-.3.4-.1.7-.4.9-.7.2-.3.4-.7.4-1.3 0-.5-.1-.9-.3-1.2-.2-.3-.5-.5-.8-.7-.3-.2-.7-.3-1.1-.3-.4-.1-.8-.1-1.2-.1l-2.9 0L313.8 17.1z"/><g><path d="M161 85.7h-24c-2.9 0-5.7-.5-8.3-1.6-2.6-1.1-4.9-2.5-6.9-4.4-2-1.9-3.5-4.1-4.6-6.7-1.1-2.6-1.7-5.5-1.7-8.6 0-3.1.5-5.9 1.6-8.5 1.1-2.6 2.6-4.9 4.6-6.8 1.9-1.9 4.2-3.4 6.8-4.5 2.6-1.1 5.4-1.6 8.5-1.6 2.9 0 5.7.5 8.3 1.6 2.6 1.1 4.8 2.5 6.7 4.4 1.9 1.9 3.4 4.1 4.6 6.6 1.1 2.5 1.7 5.3 1.7 8.3 0 1.8-.2 3.5-.6 5.2-.4 1.7-1 3.3-1.8 4.8-.8 1.5-1.8 2.8-3 4-1.2 1.2-2.6 2.1-4.1 2.8v.1H161V85.7zM136.8 80.4c2.3 0 4.4-.4 6.3-1.3 1.9-.8 3.5-2 4.9-3.5 1.4-1.5 2.4-3.2 3.1-5.2.7-2 1.1-4.1 1.1-6.4 0-2.2-.4-4.3-1.1-6.2-.8-1.9-1.8-3.6-3.2-5s-3-2.5-4.9-3.4-3.9-1.2-6.2-1.2c-2.2 0-4.2.4-6.1 1.2-1.9.8-3.5 1.9-4.9 3.4-1.4 1.4-2.5 3.1-3.2 5-.8 1.9-1.2 3.9-1.2 6.1 0 2.3.4 4.4 1.1 6.4.7 2 1.8 3.7 3.1 5.2 1.4 1.5 3 2.7 4.9 3.5C132.4 80 134.5 80.4 136.8 80.4zM170.7 44.1v25.5c0 1.3.2 2.6.5 4 .4 1.4.9 2.7 1.8 3.9.8 1.2 1.9 2.1 3.2 2.9 1.3.7 3 1.1 4.9 1.1s3.6-.4 4.9-1.1c1.3-.7 2.4-1.7 3.2-2.9.8-1.2 1.4-2.5 1.8-3.9.4-1.4.5-2.7.5-4V44.1h5.6v26.4c0 2.4-.4 4.6-1.2 6.6-.8 2-2 3.7-3.4 5.1-1.5 1.5-3.2 2.6-5.1 3.4-2 .8-4.1 1.2-6.4 1.2s-4.4-.4-6.3-1.2c-2-.8-3.7-1.9-5.1-3.4-1.5-1.4-2.6-3.2-3.4-5.1-.8-2-1.2-4.2-1.2-6.6V44.1H170.7zM206.4 44.1h5.6v41.6h-5.6V44.1zM221.5 44.1h5.6v36.3h19.1v5.3h-24.8V44.1zM255 49.3h-13.4v-5.3h32.5v5.3h-13.4v36.3H255V49.3z" class="st2"/></g><g><path fill="none" d="M61.3 28.8L61.3 28.8 61.3 28.8 61.3 32.4 32.6 32.4 32.6 61.3 61.3 61.3 61.3 32.4 65 32.4 65 28.8 65 28.8zM61.4 64.9L65 64.9 65 61.4 65 61.3 61.4 61.3zM32.5 28.8L32.5 28.8 28.8 28.8 28.8 32.4 32.5 32.4zM28.8 61.3H32.5V64.89999999999999H28.8z"/><path fill="#f38064" d="M65 0H93.8V28.8H65z"/><path fill="#f9bd89" d="M65 32.4H93.8V61.2H65z"/><path fill="#57c4c2" d="M32.5 64.9H61.3V93.7H32.5z"/><path d="M28.8 0L0 0 0 28.8 0 28.8 28.8 28.8z" class="st2"/><path fill="#978ba4" d="M28.8 32.4L0 32.4 0 32.4 0 61.3 28.8 61.3z"/><path fill="#90d1c2" d="M28.8 64.9H32.5V93.7H28.8z"/><path fill="#bf97ba" d="M0 28.8H28.8V32.4H0z"/><path d="M28.8 64.9L28.8 61.3 0 61.3 0 64.9 28.8 64.9z" class="st10"/><path d="M32.6 32.4L61.3 32.4 61.3 28.8 32.6 28.8 32.5 28.8 32.5 32.4z" class="st11"/><path fill="#f59399" d="M61.3 28.8L61.3 28.8 61.3 0 32.6 0 32.6 28.8z"/><path fill="#f2b3bc" d="M32.5 28.8L32.5 28.8 32.6 28.8 32.6 0 32.5 0 28.8 0 28.8 28.8z"/><path fill="#fccab5" d="M61.3 28.8L65 28.8 65 28.8 65 0 65 0 61.3 0 61.3 0 61.3 28.8z"/><path fill="#52797d" d="M28.8 64.9L0 64.9 0 93.7 28.8 93.7 28.8 93.7 28.8 64.9z"/><path fill="#82c88f" d="M65 64.9H93.8V93.7H65z"/><path fill="#eddad9" d="M32.5 61.3L32.6 61.3 32.6 32.4 32.5 32.4 28.8 32.4 28.8 61.3 32.5 61.3z"/><path d="M61.4 64.9H65.1V93.7H61.4z" class="st10"/><path fill="#f8e0c1" d="M93.8 28.8L65 28.8 65 32.4 65 32.4 93.9 32.4 93.9 28.8z"/><path fill="#f1dda6" d="M65 61.3L65 61.4 65 64.9 93.9 64.9 93.9 61.4 93.9 61.3 65 61.3z"/><path d="M61.3 61.3L61.4 61.3 61.4 61.3 65 61.3 65 61.3 65 32.4 65 32.4 61.3 32.4z" class="st11"/><path fill="#e7ecd7" d="M61.4 61.3L61.3 61.3 32.6 61.3 32.5 61.3 32.5 61.3 32.5 64.9 61.4 64.9 61.4 61.3z"/></g></g></svg>