<svg xmlns="http://www.w3.org/2000/svg" role="img" viewBox="-18.48 218.52 1168.96 256.96"><title>KompiTech (member) logo</title><style>svg {enable-background:new 0 0 1133.9 694.5}</style><style>.st0{fill:#20d6f5}</style><path d="M419.4 370.8c-1.4-1.9-9.4-11.8-23.5-29.1 5.6-7 19.3-23 19.7-24 7.1-8 14.6-15.5 22.6-23l4.2-3.8h-33.8l-.5 1.4c-4.2 8.5-9.9 16.9-16 24-5.2 6.1-10.3 12.2-15.5 18.3v-16.5c0-8.5 1.4-16.9 3.8-24.9l.9-2.8h-29.6l.5 2.8c2.4 8.9 3.8 18.3 3.3 27.7v49.8c.5 9.9-.9 19.7-3.8 29.6l-.9 2.8h29.6l-.9-2.8c-2.4-9.4-3.8-18.8-3.8-28.2v-21.6l21.6 27.3c2.8 3.8 5.6 7.5 8.5 11.3 2.4 3.8 4.2 8 5.6 12.2l.5 1.4h34.8l-3.3-3.3c-6.2-7.5-14.6-17.4-24-28.6zm75.2-48c-11.3-.5-21.6 4.7-29.1 13.2-7.1 8.5-10.8 19.3-10.3 30.1-.5 9.9 2.8 19.7 9.4 27.7 6.6 8 16.5 12.2 26.8 12.2 10.8 0 21.6-4.7 28.2-13.6 7-8.5 10.3-18.8 10.3-29.6.5-9.9-2.8-19.7-8.9-27.7-6.7-8.1-16.1-12.8-26.4-12.3zm3.7 67.7h-2.8c-6.6 0-12.7-3.8-15.5-9.9-3.8-6.1-5.6-13.2-5.6-20.2 0-11.3 3.8-18.8 11.8-23 .9 0 1.9-.5 2.8 0 6.6 0 12.7 3.8 15.5 9.4 3.8 5.6 5.6 12.2 5.6 19.3.4 9.4-3.8 18.8-11.8 24.4zm155.1-11.8V352c.5-6.6-.5-13.2-2.8-19.3-2.8-6.6-9.9-10.8-16.9-10.3-5.6 0-11.3 1.9-15.5 5.6l-8.5 9.4c-1.9-8.9-9.9-15-19.3-14.6-5.6 0-10.8 1.4-15 5.2-.5.5-1.4 1.9-6.6 7.5v-11.3h-23l.9 2.8c1.9 8.5 3.3 17.4 2.8 26.3v25.9c0 7.5-.9 15-2.8 22.1l-.9 2.8h26.8l-.9-2.8c-1.9-6.6-2.8-13.2-2.8-19.7v-35.2c4.2-2.8 8.9-4.7 14.1-5.2 4.2 0 6.6 1.4 8 3.8.9 3.8 1.4 7.5 1.4 11.3v25.4c.5 6.6-.5 13.2-2.8 19.7l-1.4 2.8H615l-.9-2.8c-1.4-5.2-2.4-10.3-2.8-15.5v-39.5c3.8-2.8 8.5-4.7 13.6-5.2 3.3-.5 6.1.9 8 3.3 1.4 2.8 1.9 6.6 1.9 9.9v26.3c0 7-.9 14.1-2.8 20.7l-.9 2.8h26.3l-.5-2.8c-2.5-7.6-3.5-15.1-3.5-22.7zm63-55.9c-4.7 0-9.4 1.4-13.2 4.7h-.5c-1.9 1.9-3.3 4.2-5.2 6.1v-9.4h-23l.9 2.8c1.9 7.5 2.8 15 2.8 22.6v52.6c0 7.5-.9 15-2.8 22.6l-.9 2.8h26.8l-.9-2.8c-1.9-5.6-2.8-11.8-2.8-17.9v-7c5.2 3.8 11.3 5.6 17.9 5.6 9.9.5 18.8-4.2 24-12.7 4.7-8 6.6-17.4 6.6-26.3 0-9.9-1.9-19.3-6.1-28.2-5.7-10.3-13.3-15.5-23.6-15.5zm6.1 25.4c2.8 4.7 3.8 9.9 3.8 15 0 17.4-5.6 25.9-16.9 25.9-4.2 0-8.5-1.9-11.3-5.6v-39c11.3-5.7 19.2-5.2 24.4 3.7zm54.5-27.7c3.8 0 7-1.9 8.9-4.7 1.9-2.8 2.8-5.6 2.8-8.9 0-3.3-.9-6.6-3.3-9.4-1.9-2.8-5.2-4.7-8.9-4.7-3.8 0-7 1.9-8.9 4.7-1.9 2.8-3.3 6.1-2.8 9.4 0 3.3.9 6.6 2.8 9.4 2.4 2.7 5.7 4.2 9.4 4.2zm9.4 58.7v-29.1-11.8c.5-3.8 1.4-8 2.8-11.8l.5-2.8h-26.3l.9 2.8c1.4 3.8 2.3 7.5 2.8 11.8v40.9c0 7.5-.9 14.6-2.8 21.6l-.9 2.8h26.8l-.9-2.8c-2.4-7-3.3-14.1-2.9-21.6z" class="st0"/><path fill="#333" d="M803.4 314.4l4.2-1.4c5.2-1.9 10.8-3.3 16.4-3.8 3.3-.5 8.5-.9 15-1.4v57.3c.5 12.2-.9 24.4-3.8 36.2l-.9 2.8H864l-.9-2.8c-2.8-11.8-4.2-23.5-3.8-35.7v-58.3c4.2 0 8.5 0 12.7.9 4.7.9 9.4 2.8 13.6 4.7l1.9.9 6.6-22.6H810l-6.6 23.2zm143.8 75.1c-11.8 0-18.8-7-21.2-21.1h41.8V359c.5-8.5-1.9-16.9-6.6-24.4-4.7-7.5-13.6-11.8-22.6-11.8-10.3-.5-20.2 4.7-25.8 13.6-5.2 8.5-8 18.3-8 28.2-.5 10.8 2.8 21.1 9.9 29.1 7.1 8 17.4 12.2 28.2 11.8 5.2 0 9.9-.9 15-2.4h.9l8.5-19.7-4.7 1.9c-4.1 2.4-9.8 3.8-15.4 4.2zm-8-51.6c3.8 0 7 1.4 9.4 4.7 2.3 3.3 3.3 7.1 3.3 10.8h-25.4c0-3.8 1.4-7 3.3-10.3 1.4-3.8 5.2-5.7 9.4-5.2zm86.5 51.6c-6.6.5-12.7-2.8-16.5-8-3.8-5.6-5.6-12.7-5.2-19.3-.5-6.1 1.4-12.2 4.7-16.9 3.3-4.7 8.9-7.5 14.6-7.5 2.8 0 5.6.5 8.5 1.9 2.3 1.9 5.2 3.8 7.5 5.6l2.8 2.8.9-23.5-1.4-.5c-5.2-1.4-9.9-1.9-15-1.9-11.8-.5-22.6 3.8-31 11.8-8 8.5-12.2 19.7-11.8 31-.5 10.3 3.3 20.7 9.9 28.7 7.5 7.5 17.9 11.8 28.2 11.3 5.2 0 10.3-.9 15.5-2.8h.9l8.5-20.7-5.2 2.8c-4.7 3.4-10.3 4.8-15.9 5.2zm78 11.3l-.9 2.8h26.3l-.9-2.8c-2.4-8-3.3-16-3.3-24.4 0-1.9 0-5.2.5-9.4s0-7.5 0-9.4c.5-7.5-.5-15-2.3-22.1-2.3-8-9.9-13.6-18.3-13.2-4.2.5-8.9 1.4-12.7 3.8h-.5l-8.5 10.3v-20.2c0-7.5.9-14.6 2.8-21.6l.9-3.3-26.3 5.2.5 1.9c1.9 6.6 2.8 13.2 2.8 20.2v57.8c.5 8.5-.5 16.9-2.8 24.9l-.9 2.8h26.8l-.9-2.8c-2.4-8.5-3.3-17.4-2.8-26.3v-27.7c3.8-3.3 8.5-5.6 13.6-6.1 5.6 0 7 2.3 8 4.2.9 3.8 1.4 7.5 1.4 11.3v24.4c.8 6.6-.6 13.6-2.5 19.7zm-980 17c-11.8 0-21.2-9.4-21.2-21.1v-40.4c0-11.8 9.4-21.1 21.2-21.1h59.7v-25.4c0-5.6-4.2-10.3-9.9-10.3H15.2c-5.6 0-10.3 4.2-10.3 9.9v133.5c0 5.6 4.2 10.3 9.9 10.3h158.4c5.6 0 10.3-4.7 10.3-9.9v-25.4h-59.8z"/><path d="M298.6 241.5H140.7c-5.6 0-10.3 4.2-10.3 9.9v25.4h72.9c11.8 0 21.2 9.4 21.2 21.1v40c0 11.8-9.4 21.1-21.2 21.1h-72.9v25.4c0 5.6 4.7 10.3 9.9 10.3h157.9c5.6 0 10.3-4.7 10.3-10.3V251.8c.4-5.6-3.8-9.8-9.9-10.3z" class="st0"/></svg>