<svg xmlns="http://www.w3.org/2000/svg" role="img" viewBox="-6.70 67.30 413.40 110.15"><title>LG CNS (member) logo</title><style>svg {enable-background:new 0 0 400 245}</style><style>.st0{fill:#6d6e71}.st2{fill:#fff}</style><g id="레이어_1"><path d="M288.1 99c-5.3-5.9-13.9-8.1-21.8-8.1-18.1 0-29.1 10.8-29.1 31.6 0 19.9 8.5 31.6 28.9 31.6 7.6 0 15.6-1.8 21.1-5l-3-10.2c-4.4 2.2-10.9 3.6-17.1 3.6-12.9 0-16.2-8.2-16.2-20.2 0-13.9 6.3-20.6 16-20.6 5.7 0 10.6 2.5 13.9 5.9l7.3-8.6zm47.3-7.1v49.9h-1.5l-17.6-49.9h-23.9v61.3h12.9v-50.6h1.7l17.4 50.6h23.8V91.9h-12.8zm62.6 4c-5.7-3.4-14.5-5-20.6-5-16.3 0-23.8 7.3-23.8 17.7 0 9 6.8 14.4 14.1 17.2 3.6 1.4 7.7 2.7 10.7 3.5 4.9 1.4 6.8 3.7 6.8 7.1 0 4.2-3 6.8-10.7 6.8-5.3 0-12.3-2.1-17.2-5l-4.6 10.3c6.3 3.6 14.9 5.6 22 5.6 15.2 0 24.1-7.6 24.1-18.2 0-10-5.3-13.5-11.2-16.1-2.3-.9-6.6-2.3-8.9-3-7.6-2.1-11.7-4.1-11.7-9 0-3.7 2.5-6.6 10.8-6.6 6 0 11.9 2 16 4.4l4.2-9.7z" class="st0"/><path fill="#c00c3f" d="M48.4 169.6c26 0 47.1-21.1 47.1-47.1S74.4 75.4 48.4 75.4 1.3 96.5 1.3 122.5s21.1 47.1 47.1 47.1"/><path d="M46.5 101.8v41.3h13.2v-3.7h-9.4v-37.6zm-13.1 11.3c3.1 0 5.6-2.5 5.6-5.6 0-3.1-2.5-5.6-5.6-5.6-3.1 0-5.6 2.5-5.6 5.6-.1 3.1 2.5 5.6 5.6 5.6" class="st2"/><path d="M50.3 83.1h-1.9C26.7 83.1 9 100.8 9 122.5c0 10.5 4.1 20.4 11.5 27.9 7.4 7.4 17.3 11.5 27.9 11.5 10.5 0 20.4-4.1 27.9-11.5 7.4-7.4 11.5-17.3 11.5-27.9v-1.8H59.7v3.7H84v.5c-1.3 18.6-16.8 33.3-35.7 33.3-9.5 0-18.5-3.7-25.2-10.5-6.8-6.7-10.5-15.7-10.5-25.3 0-9.5 3.7-18.5 10.5-25.3 6.7-6.7 15.7-10.5 25.2-10.5h1.9v-3.5z" class="st2"/><path d="M130.9 91.9h-14.2v61.3h43.5v-11.9h-29.3V91.9zm60.5 37.9h11.5v10.7c-2.1.8-6.3 1.6-10.2 1.6-12.7 0-17-6.5-17-19.6 0-12.5 4-19.9 16.8-19.9 7.1 0 11.1 2.2 14.5 6.5l8.8-8.1c-5.4-7.7-14.8-10-23.6-10-19.8 0-30.2 10.8-30.2 31.4 0 20.5 9.4 31.7 30.1 31.7 9.5 0 18.8-2.4 23.9-6v-29.7h-24.6v11.4z" class="st0"/></g></svg>