<svg xmlns="http://www.w3.org/2000/svg" role="img" viewBox="-3.20 -3.20 147.27 166.27"><title>Mercy Corps logo</title><path d="M53 32h1v2h-1zm0 2h1v1h-1zm1 0h1v1h-1zm42 3h1v1h-1zm-29 2h1v1h-1zm16 2h1v1h-1zm-1 5h1v1h-1zm-13 4h1v1h-1zm28 2h1v1h-1zm-25 4h1v1h-1zm-26 1h1v1h-1zm39 5h1v1h-1zm-1 1h1v1h-1zm-27 3h1v1h-1zm-6 3h1v1h-1zm33 1h1v1h-1zm-22 3h1v1h-1zm6 0h1v1h-1zm-15 4h1v1h-1zM38 93h1v1h-1zm14 0h1v1h-1zm38 1h1v1h-1zm7 0h1v1h-1zm-54 2h1v1h-1zm25 0h1v1h-1zm18 0h1v1h-1zm-4 1h1v1h-1zm-25 2h2v1h-2zm2 0h1v1h-1zm16 0h1v1h-1zm21 0h1v1h-1zm-39 6h1v1h-1zm-18 1h1v1h-1zm36 1h1v1h-1zm-23 1h1v1h-1zm-16 5h1v1h-1zm10 1h1v1h-1zm5 0h1v1h-1zm26 0h1v1h-1zm-27 1h1v1h-1zm-6 2h1v1h-1zm34 1h1v1h-1zm19 3h1v1h-1zm-7 1h1v1h-1zm-36 2h1v1h-1zm45 1h1v1h-1zm-26 1h1v1h-1zm20 0h1v1h-1zm-48 1h1v1h-1zm16 0h1v1h-1zm33 0h1v1h-1zm-56 1h1v1h-1zm58 0h1v1h-1z" fill="#ebacaf"/><path d="M50 36h1v1h-1zm7 1h1v1h-1zm8 5h1v1h-1zm22 1h1v1h-1zm-15 4h1v1h-1zm1 24h1v1h-1zM53 86h1v1h-1zm52 11h1v1h-1zm-65 1h1v1h-1zm33 4h1v1h-1zm-35 2h1v1h-1zm30 0h1v1h-1zm-31 4h1v1h-1zm49 1h1v1h-1zm9 0h1v1h-1zm1 0h1v1h-1zm-42 3h1v1h-1zm13 0h1v1h-1zm6 0h1v1h-1zm8 0h1v1h-1zm6 0h1v1h-1zm-16 4h1v1h-1zm-26 1h1v1h-1zm28 2h1v1h-1zm-20 3h1v1h-1z" fill="#db646a"/><path d="M55 36h1v1h-1zm2 3h1v1h-1zm-7 1h1v1h-1zm6 0h1v1h-1zm31 0h1v1h-1zm-17 3h1v1h-1zm-1 1h1v1h-1zm10 4h1v1h-1zm-33 3h1v1h-1zm12 2h1v1h-1zm7 2h1v1h-1zm30 1h1v1h-1zm-37 2h1v2h-1zm0 2h1v1h-1zm30 6h1v1h-1zm-18 7h1v1h-1zM53 83h1v1h-1zm11 12h1v11h-1zm27 1h1v1h-1zm7 0h1v1h-1zm3 0h1v1h-1zm-6 1h1v1h-1zm-31 9h1v1h-1zm15 0h1v1h-1zm2 7h1v1h-1zm8 0h1v1h-1zm7 0h1v1h-1zm-56 2h1v1h-1zm1 0h1v1h-1zm29 1h1v1h-1zm14 0h1v1h-1zm-48 2h1v1h-1zm58 0h1v1h-1zm-10 1h1v1h-1zm4 0h1v1h-1zm13 0h1v1h-1zm-26 4h1v1h-1zm9 0h1v1h-1zm-39 1h1v1h-1zm10 1h1v1h-1z" fill="#fae7e8"/><g fill="#fff"><path d="M51 37h1v1h-1zm5 1h1v1h-1zm-6 1h1v1h-1zm19 0h1v4h-1zm1 0h1v3h-1zm-13 1h1v3h-1z"/><path d="M68 40h2v3h-2zm21 0h1v1h-1zm1 0h1v1h-1zm-41 1h1v1h-1z"/><path d="M67 41h3v2h-3zm19 0h2v1h-2zm2 0h1v1h-1zm-39 1h1v1h-1zm21 0h1v1h-1zm13 0h3v1h-3zm3 0h1v1h-1zm-38 1h1v2h-1zm9 0h1v1h-1zm1 0h1v6h-1zm9 0h2v1h-2zm2 0h1v1h-1zm12 0h4v1h-4zm4 0h1v1h-1zm-17 1h1v1h-1zm11 0h4v1h-4zm4 0h1v1h-1zm-35 1h1v1h-1zm11 0h1v31h-1zm18 0h5v1h-5zm5 0h1v1h-1zm-6 1h5v1h-5zm5 0h1v1h-1zm16 0h1v2h-1zm-50 1h1v11h-1zm27 0h5v1h-5zm5 0h1v1h-1zm-19 1h1v27h-1zm13 0h5v1h-5zm5 0h1v1h-1zm18 0h1v4h-1zm1 0h1v1h-1z"/><path d="M58 49h2v1h-2zm13 0h6v1h-6zm6 0h1v1h-1zm-6 1h5v1h-5zm5 0h1v1h-1zm19 0h1v5h-1zm-34 1h1v21h-1zm8 0h6v1h-6zm6 0h1v1h-1z"/><path d="M94 51h2v4h-2zm-25 1h5v1h-5zm5 0h1v1h-1zm22 0h1v1h-1zm-29 1h6v1h-6zm6 0h1v1h-1z"/><path d="M93 53h2v4h-2zm-26 1h5v2h-5zm5 0h1v1h-1z"/><path d="M66 55h5v2h-5zm26 0h3v2h-3zm3 0h1v1h-1z"/><path d="M65 56h6v1h-6zm6 0h1v1h-1zm20 0h3v3h-3zm-27 1h6v1h-6zm6 0h1v1h-1z"/><path d="M90 57h4v2h-4zm4 0h1v1h-1zm-47 1h1v1h-1zm15 0h7v1h-7zm7 0h1v1h-1zm-21 1h1v3h-1zm14 0h6v2h-6zm6 0h1v1h-1zm21 0h4v1h-4zm4 0h1v1h-1zm-5 1h4v2h-4zm4 0h1v1h-1zm-43 1h1v3h-1zm13 0h5v1h-5zm5 0h1v1h-1z"/><path d="M87 61h4v2h-4zm-39 1h1v1h-1zm14 0h4v2h-4zm4 0h1v1h-1zm25 0h1v1h-1zm-6 1h5v1h-5zm5 0h1v1h-1zm-41 1h1v1h-1zm1 0h1v2h-1zm12 0h3v2h-3zm3 0h1v1h-1zm20 0h4v1h-4zm4 0h1v1h-1zm-38 1h1v2h-1z"/><path d="M58 65h6v3h-6zm25 0h5v1h-5zm5 0h1v1h-1zm-38 1h1v1h-1zm14 0h1v1h-1zm19 0h4v1h-4zm4 0h1v1h-1zm-36 1h1v1h-1zm1 0h1v2h-1zm29 0h5v1h-5zm5 0h1v1h-1zm-33 1h1v2h-1zm5 0h5v1h-5zm5 0h1v1h-1zm17 0h5v1h-5zm5 0h1v1h-1z"/><path d="M52 69h2v1h-2zm2 0h1v2h-1zm3 0h5v3h-5zm5 0h1v1h-1zm17 0h4v1h-4zm4 0h1v1h-1z"/><path d="M53 70h8v1h-8zm25 0h4v1h-4zm4 0h1v1h-1zm-28 1h7v1h-7zm22 0h5v1h-5zm5 0h1v1h-1zm-26 1h6v3h-6zm6 0h1v3h-1zm13 0h6v1h-6zm6 0h1v1h-1zm-9 1h7v1h-7zm7 0h1v1h-1zm-10 1h8v1h-8zm8 0h1v1h-1zm-21 1h18v1H55zm18 0h1v1h-1zm-18 1h4v2h-4zm4 0h1v1h-1zm3 0h8v1h-8zm8 0h1v1h-1z"/><path d="M54 77h4v5h-4zm4 1h1v1h-1zm-4 4h3v2h-3zm3 0h1v1h-1zm-3 2h2v1h-2zm2 0h1v1h-1zm-2 1h1v1h-1zm1 0h1v1h-1zm0 1h1v1h-1zm-21 8h3v4h-3zm3 0h1v4h-1zm8 0h3v4h-3zm3 0h1v13h-1zm5 0h7v1h-7zm7 0h1v1h-1zm5 0h7v1h-7zm7 0h1v7h-1zm9 0h7v1h-7zm7 0h1v2h-1zm6 0h2v1h-2zm2 0h1v3h-1zm7 0h2v2h-2zm2 0h1v1h-1zm-52 1h7v1h-7zm7 0h1v1h-1z"/><path d="M65 95h8v1h-8zm8 0h1v5h-1zm7 0h10v1H80zm10 0h1v1h-1zm4 0h2v1h-2zm11 0h1v1h-1zm-67 1h1v3h-1zm6 0h4v2h-4zm9 0h2v11h-2zm2 0h1v11h-1zm10 0h1v11h-1zm1 0h1v11h-1z"/><path d="M71 96h3v1h-3zm3 0h1v3h-1zm5 0h3v1h-3zm3 0h1v1h-1zm6 0h2v1h-2zm2 0h1v1h-1zm5 0h2v1h-2zm2 0h1v3h-1zm5 0h2v2h-2zm2 0h1v1h-1zm-25 1h2v2h-2zm2 0h1v1h-1z"/><path d="M96 97h2v1h-2zm2 0h1v3h-1zm3 0h2v3h-2zm-67 1h4v1h-4zm10 0h4v1h-4zm34 0h2v6h-2z"/><path d="M99 98h4v2h-4zm4 0h1v1h-1zm-69 1h1v8h-1zm1 0h1v8h-1zm3 0h1v1h-1zm1 0h1v4h-1zm4 0h1v5h-1zm1 0h1v1h-1zm3 0h1v8h-1zm27 0h1v1h-1zm6 0h1v1h-1z"/><path d="M97 99h5v1h-5zm-41 1h4v1h-4zm4 0h1v1h-1zm13 0h1v1h-1zm25 0h4v1h-4zm4 0h1v1h-1zm-46 1h4v1h-4zm4 0h1v1h-1zm7 0h5v1h-5zm5 0h1v1h-1zm27 0h2v2h-2zm2 0h1v1h-1zm-34 1h4v1h-4zm4 0h1v4h-1zm9 0h1v4h-1z"/><path d="M98 102h2v3h-2zm-59 1h1v1h-1zm1 0h3v3h-3zm30 0h1v1h-1zm30 0h1v1h-1zm-57 1h1v1h-1zm27 0h2v1h-2zm2 0h1v3h-1zm6 0h3v1h-3zm3 0h1v3h-1z"/><path d="M97 104h2v2h-2zm-18 1h2v1h-2zm9 0h1v2h-1zm1 0h1v1h-1zm10 0h1v1h-1zm-59 1h2v1h-2zm2 0h1v1h-1zm14 0h4v1h-4zm4 0h1v1h-1zm11 0h2v1h-2zm2 0h1v1h-1zm7 0h3v1h-3zm3 0h1v1h-1z"/><path d="M87 106h3v1h-3zm3 0h1v1h-1zm6 0h2v2h-2zm2 0h1v1h-1zm-64 1h1v1h-1zm1 0h1v1h-1zm5 0h1v1h-1zm1 0h1v1h-1zm5 0h2v1h-2zm2 0h1v1h-1zm5 0h7v1h-7zm7 0h1v1h-1zm5 0h1v1h-1zm1 0h1v1h-1zm6 0h2v1h-2zm2 0h1v1h-1zm7 0h7v1h-7zm7 0h1v1h-1z"/><path d="M95 107h2v1h-2zm-11 1h2v1h-2zm2 0h1v1h-1zm9 0h2v1h-2zm2 0h1v1h-1zm-59 5h5v1h-5zm5 0h1v2h-1zm12 0h3v1h-3zm3 0h1v1h-1zm10 0h1v14h-1zm14 0h1v14h-1zm15 0h4v1h-4zm4 0h1v1h-1z"/><path d="M36 114h9v1h-9zm9 0h1v1h-1zm7 0h9v1h-9zm9 0h1v4h-1zm8 0h7v1h-7zm7 0h1v6h-1zm7 0h7v1h-7zm7 0h1v7h-1zm6 0h6v1h-6zm-61 1h3v1h-3zm3 0h1v1h-1zm5 0h3v1h-3zm3 0h1v1h-1zm5 0h3v1h-3zm3 0h1v1h-1z"/><path d="M59 115h3v1h-3zm3 0h1v10h-1zm7 0h1v12h-1zm5 0h3v1h-3zm3 0h1v4h-1zm6 0h1v12h-1zm1 0h1v1h-1zm4 0h2v1h-2zm7 0h2v4h-2zm2 0h1v1h-1zm-63 1h3v1h-3zm3 0h1v1h-1zm7 0h1v1h-1zm7 0h2v1h-2zm2 0h1v1h-1z"/><path d="M60 116h3v1h-3zm3 0h1v8h-1zm12 0h2v4h-2zm14 0h2v5h-2zm2 0h1v4h-1zm-57 1h2v7h-2zm2 0h1v1h-1zm14 0h2v7h-2zm2 0h1v1h-1z"/><path d="M33 118h2v4h-2zm28 0h2v1h-2zm36 0h1v2h-1zm-48 1h2v2h-2zm28 0h1v1h-1z"/><path d="M95 119h4v1h-4zm4 0h1v1h-1zm-25 1h2v1h-2zm2 0h1v1h-1zm11 0h4v1h-4zm4 0h1v1h-1zm6 0h5v1h-5zm5 0h1v6h-1zm-53 1h2v1h-2zm21 0h4v1h-4zm4 0h1v5h-1zm10 0h6v1h-6zm6 0h1v1h-1z"/><path d="M100 121h3v1h-3zm3 0h1v4h-1zm-70 1h2v1h-2zm28 0h2v3h-2zm11 0h2v1h-2zm12 0h1v1h-1zm17 0h2v1h-2zm-49 1h1v3h-1zm21 0h1v1h-1zm-39 1h2v1h-2zm2 0h1v2h-1zm8 0h1v2h-1zm6 0h2v1h-2z"/><path d="M60 124h3v1h-3zm3 0h1v1h-1zm10 0h2v1h-2zm2 0h1v3h-1zm-40 1h2v1h-2zm2 0h1v2h-1zm6 0h3v1h-3zm3 0h1v1h-1zm5 0h3v1h-3zm3 0h1v2h-1zm5 0h3v1h-3zm3 0h1v1h-1zm14 0h1v2h-1zm19 0h1v2h-1zm6 0h2v1h-2zm2 0h1v1h-1z"/><path d="M36 126h9v1h-9zm9 0h1v1h-1zm7 0h9v1h-9zm9 0h1v1h-1zm13 0h2v1h-2zm20 0h8v1h-8zm8 0h1v1h-1zm-65 1h6v1h-6zm6 0h1v1h-1zm11 0h5v1h-5zm5 0h1v1h-1zm9 0h1v1h-1zm1 0h1v1h-1zm6 0h2v1h-2zm2 0h1v1h-1zm5 0h1v1h-1zm1 0h1v1h-1zm12 0h6v1h-6zm6 0h1v1h-1z"/></g><path d="M54 30h1v1h-1zm-4 4h1v1h-1zm49 1h1v1h-1zm-5 1h1v1h-1zm1 0h1v1h-1zm-24 1h1v1h-1zm19 0h1v1h-1zm-42 1h1v1h-1zm6 0h1v2h-1zm18 0h1v1h-1zm15 0h1v1h-1zm1 0h1v1h-1zm-29 1h1v1h-1zm25 0h1v1h-1zm15 0h1v1h-1zm-47 1h2v1h-2zm2 0h1v1h-1zm29 0h1v1h-1zm13 0h1v1h-1zm-32 1h1v2h-1zm17 0h1v1h-1zm-21 1h1v1h-1zm4 1h1v1h-1zm8 0h1v1h-1zm4 0h1v1h-1zm-15 1h1v1h-1zm12 1h1v1h-1zm22 0h1v1h-1zm5 0h1v1h-1zm-55 1h1v1h-1zm10 0h1v1h-1zm12 0h1v1h-1zm1 0h1v1h-1zm26 1h1v1h-1zm-45 1h1v1h-1zm21 0h1v1h-1zm-7 2h1v1h-1zm4 0h1v1h-1zm31 2h1v1h-1zm-42 1h1v1h-1zm9 0h1v1h-1zm-9 1h1v1h-1zm41 2h1v1h-1zm-41 2h1v2h-1zm16 0h1v1h-1zm24 0h1v1h-1zm-40 2h1v1h-1zm13 1h1v1h-1zm15 0h1v1h-1zm-1 2h1v1h-1zm-4 3h1v1h-1zm-13 1h1v1h-1zm-16 3h1v1h-1zm36 0h1v1h-1zm-16 1h1v1h-1zm15 0h1v1h-1zm-33 4h1v1h-1zm27 0h1v1h-1zm-27 1h1v1h-1zm23 1h1v1h-1zm-14 1h2v1h-2zm2 0h1v1h-1zm7 0h1v1h-1zm-19 2h1v1h-1zm9 0h1v1h-1zm-2 5h1v1h-1zm-6 1h1v1h-1zm2 2h2v1h-2zm2 0h1v1h-1zm17 4h1v1h-1zm24 0h1v1h-1zm10 0h1v1h-1zm-33 1h1v1h-1zm24 0h1v1h-1zm-58 1h1v1h-1zm38 0h1v1h-1zm-28 1h1v11h-1zm26 0h1v1h-1zm1 0h1v1h-1zm-1 1h1v1h-1zm16 1h1v1h-1zm1 0h1v1h-1zm13 0h1v1h-1zm-45 1h1v1h-1zm22 0h1v1h-1zm22 0h1v1h-1zm-10 2h1v1h-1zm-20 1h1v1h-1zm8 2h1v1h-1zm4 0h1v1h-1zm5 1h1v1h-1zm-15 1h1v1h-1zm16 0h1v1h-1zm-43 1h1v1h-1zm26 0h1v1h-1zm25 0h1v1h-1zm-9 1h1v1h-1zm-1 1h1v1h-1zm1 0h1v1h-1zm-11 1h1v1h-1zm8 0h1v1h-1zm10 0h1v1h-1zm-16 1h1v1h-1zm4 0h1v1h-1zm7 0h3v1h-3zm3 0h1v1h-1zm-23 1h1v1h-1zm14 0h1v1h-1zm14 0h1v1h-1zm-68 2h1v1h-1zm31 0h1v1h-1zm14 0h1v1h-1zm-14 1h1v1h-1zm13 0h1v1h-1zm-14 1h1v1h-1zm-33 2h1v1h-1zm25 0h1v1h-1zm1 0h1v1h-1zm42 0h1v1h-1zm-56 1h1v1h-1zm11 1h1v1h-1zm5 0h1v1h-1zm46 1h1v1h-1zm-27 1h1v1h-1zm1 0h1v4h-1zm-41 1h1v1h-1zm5 0h2v1h-2zm2 0h1v1h-1zm32 0h2v1h-2zm-46 1h1v1h-1zm8 0h1v1h-1zm50 1h1v1h-1zm-57 1h1v1h-1zm47 0h1v1h-1zm-14 1h1v1h-1zm21 0h1v1h-1zm19 0h1v1h-1zm-71 1h1v1h-1zm13 0h1v1h-1zm3 0h1v1h-1zm13 0h2v1h-2zm2 0h1v1h-1zm21 0h1v1h-1zm18 0h1v1h-1zm-65 2h1v1h-1zm5 0h1v1h-1zm9 0h1v1h-1zm5 0h2v1h-2zm2 0h1v1h-1z" fill="#cf1727"/><path d="M52 31h1v1h-1zm3 0h1v1h-1zm1 1h1v1h-1zm1 2h1v1h-1zm41 1h1v1h-1zm-5 1h1v1h-1zm3 0h1v1h-1zm-47 1h1v1h-1zm18 0h1v1h-1zm34 0h1v1h-1zm-48 1h1v1h-1zm13 0h1v1h-1zm-1 1h1v1h-1zm8 0h1v1h-1zm-8 1h1v1h-1zm-5 1h1v1h-1zm34 0h1v1h-1zm-48 1h1v1h-1zm27 0h1v1h-1zm23 0h1v2h-1zm-45 1h1v1h-1zm45 1h1v1h-1zm-10 1h1v1h-1zm-25 1h1v1h-1zm8 0h1v2h-1zm-19 1h1v1h-1zm33 0h1v1h-1zm-27 1h1v1h-1zm13 0h1v1h-1zm-3 3h1v1h-1zm-1 1h1v1h-1zm-1 1h1v1h-1zm27 0h1v1h-1zm6 1h1v1h-1zm-41 1h1v2h-1zm32 1h1v1h-1zm-38 1h1v1h-1zm6 0h1v1h-1zm14 3h1v1h-1zm25 0h1v1h-1zm-25 1h1v1h-1zm13 1h1v1h-1zm-1 1h1v1h-1zm-30 1h1v1h-1zm29 0h1v1h-1zm-34 1h1v1h-1zm33 0h1v1h-1zm-24 1h1v1h-1zm-8 1h1v1h-1zm16 2h1v1h-1zm-12 4h1v1h-1zm9 4h1v1h-1zm11 0h1v1h-1zm-1 1h1v1h-1zm-20 1h1v1h-1zm0 5h1v1h-1zm8 0h1v1h-1zm-1 2h1v1h-1zm25 5h1v1h-1zm4 0h1v1h-1zm-48 1h1v1h-1zm69 1h1v1h-1zm-66 1h1v1h-1zm8 0h1v1h-1zm13 0h1v2h-1zm37 0h1v1h-1zm8 0h1v1h-1zm-45 2h1v1h-1zm44 0h1v1h-1zm-45 1h1v1h-1zm29 0h1v1h-1zm-15 2h1v1h-1zm12 0h1v1h-1zm-47 1h1v1h-1zm63 0h1v1h-1zm0 1h1v1h-1zm-29 1h1v1h-1zm13 0h1v1h-1zm3 1h1v1h-1zm12 0h1v1h-1zm-41 1h1v1h-1zm21 0h1v1h-1zm-20 1h1v2h-1zm-13 2h1v1h-1zm13 0h1v1h-1zm-13 1h1v1h-1zm49 0h1v1h-1zm-19 1h1v1h-1zm10 0h2v1h-2zm2 0h1v1h-1zm-59 1h3v1h-3zm3 0h1v1h-1zm4 0h2v1h-2zm2 0h1v1h-1zm4 0h3v1h-3zm3 0h1v1h-1zm4 0h8v1h-8zm8 0h1v1h-1zm3 0h3v1h-3zm3 0h1v1h-1zm5 0h3v1h-3zm3 0h1v1h-1zm7 0h1v1h-1zm11 0h1v1h-1zm5 0h1v1h-1zm-61 1h1v1h-1zm59 0h1v1h-1zm-61 1h1v1h-1zm18 0h1v1h-1zm36 0h1v1h-1zm15 0h1v1h-1zm-57 1h1v1h-1zm15 0h1v1h-1zm1 0h1v1h-1zm-16 1h2v1h-2zm2 0h1v1h-1zm15 0h1v1h-1zm28 0h1v1h-1zm-60 1h1v1h-1zm17 0h1v1h-1zm55 1h1v1h-1zm-58 1h1v1h-1zm-8 2h1v1h-1zm66 0h1v1h-1zm-67 1h1v1h-1zm17 0h1v1h-1zm5 0h1v1h-1zm-5 1h1v1h-1zm5 0h1v1h-1zm35 0h1v1h-1zm-2 1h2v1h-2zm2 0h1v1h-1zm3 0h1v1h-1zm-4 1h1v1h-1zm4 0h1v1h-1zm1 0h1v1h-1zm-66 1h1v1h-1zm54 1h1v1h-1zm-38 1h1v1h-1zm-2 2h1v1h-1zm5 0h1v1h-1zm11 0h1v1h-1zm31 0h1v1h-1zm-38 1h1v1h-1zm42 0h1v1h-1zm5 0h1v1h-1z" fill="#cf1a29"/><path d="M54 31h1v1h-1zm0 5h1v1h-1zm44 0h1v1h-1zm2 1h1v1h-1zm-29 1h1v1h-1zm19 0h1v1h-1zm-6 2h1v1h-1zm13 2h1v1h-1zm-28 3h1v1h-1zm-7 5h1v1h-1zm34 6h1v1h-1zm-39 3h1v1h-1zm0 1h1v1h-1zm9 5h1v1h-1zm13 9h1v1h-1zm-19 3h1v1h-1zm26 15h1v1h-1zm14 14h1v1h-1zm-12 6h1v1h-1zm14 0h1v1h-1zm-22 1h1v14h-1zm-39 3h1v1h-1zm-9 1h1v1h-1zm22 0h1v1h-1zm17 0h1v1h-1zm-6 1h1v1h-1zm1 0h1v1h-1zm5 0h1v1h-1zm-18 1h1v1h-1zm7 0h1v1h-1zm17 2h1v1h-1zm-11 1h1v1h-1zm23 1h1v1h-1zm-42 1h1v1h-1zm8 0h1v1h-1zm16 0h1v3h-1zm-38 1h1v1h-1zm45 1h2v1h-2zm-7 1h2v1h-2zm2 0h1v1h-1zm7 0h1v1h-1zm-36 1h1v1h-1zm9 0h1v1h-1zm7 0h1v1h-1zm19 0h1v1h-1z" fill="#d5464e"/><path d="M54 33h1v1h-1zm42 5h1v1h-1zm-6 1h1v1h-1zm-33 7h1v1h-1zm16 1h1v1h-1zm-11 6h1v1h-1zm12 0h1v1h-1zm-16 1h1v3h-1zm-12 1h1v1h-1zm12 2h1v1h-1zm12 1h1v1h-1zm18 1h1v1h-1zm-21 3h1v1h-1zm-19 1h1v1h-1zm1 2h1v1h-1zm3 1h1v1h-1zm0 4h1v1h-1zm9 6h1v1h-1zm-8 4h1v1h-1zM34 93h1v1h-1zm3 0h1v1h-1zm8 0h1v1h-1zm3 0h1v1h-1zm5 0h1v1h-1zm7 0h1v1h-1zm33 0h1v1h-1zm13 0h1v1h-1zm-68 1h1v1h-1zm23 1h1v1h-1zm-24 4h1v1h-1zm8 0h1v1h-1zm58 0h1v1h-1zm-65 2h1v1h-1zm18 1h1v1h-1zm-22 6h1v1h-1zm7 0h1v1h-1zm7 0h1v1h-1zm5 0h1v1h-1zm7 0h1v1h-1zm5 0h1v1h-1zm9 0h1v1h-1zm-30 5h1v1h-1zm23 0h1v14h-1zm31 2h1v1h-1zm-55 1h1v1h-1zm45 0h1v1h-1zm-55 1h1v1h-1zm27 0h1v1h-1zm10 1h1v1h-1zm0 1h1v1h-1zm4 0h1v1h-1zm-13 1h1v1h-1zm-25 2h1v1h-1zm53 0h1v1h-1zm-50 3h1v1h-1zm31 0h1v2h-1zm-3 2h1v1h-1zm3 0h1v1h-1zm4 0h1v1h-1zm10 0h1v1h-1z" fill="#f9e2e3"/><path d="M99 36h1v1h-1zm-5 1h1v1h-1zm-7 2h1v1h-1zm-36 1h1v1h-1zm14 1h1v1h-1zm-19 5h1v1h-1zm48 3h1v1h-1zm4 1h1v1h-1zm-34 5h1v1h-1zm7 3h1v1h-1zm-25 1h1v1h-1zm11 2h1v1h-1zm-4 5h1v1h-1zm36 0h1v1h-1zm-1 1h1v1h-1zm-1 1h1v1h-1zm-12 2h1v1h-1zm7 2h1v1h-1zm-29 3h1v1h-1zm17 2h1v1h-1zm-18 6h1v1h-1zm33 9h1v1h-1zm-12 1h1v1h-1zm2 2h1v1h-1zm29 4h1v1h-1zm-59 3h1v4h-1zm47 3h1v1h-1zm-47 1h1v2h-1zm23 0h1v1h-1zm0 1h1v1h-1zm11 0h1v1h-1zm-36 1h2v1h-2zm2 0h1v1h-1zm48 0h1v1h-1zm-10 1h1v1h-1zm-49 5h1v1h-1zm60 0h1v1h-1zm4 2h1v1h-1zm3 0h1v1h-1zm-30 3h1v1h-1zm32 0h1v1h-1zm1 1h1v1h-1zm-39 2h1v1h-1zm-33 1h1v1h-1zm44 0h1v1h-1zm-41 4h1v1h-1zm68 0h1v1h-1z" fill="#d8535b"/><path d="M57 38h1v1h-1zm40 0h1v1h-1zm-49 3h1v1h-1zm42 0h1v1h-1zm-2 1h1v1h-1zm-11 2h1v1h-1zm-20 4h1v1h-1zm38 0h1v1h-1zm-47 2h1v1h-1zm20 1h1v1h-1zm-6 1h1v1h-1zm-14 3h1v1h-1zm-1 6h1v1h-1zm21 0h1v1h-1zm6 10h1v1h-1zm-2 1h1v1h-1zm-18 1h1v1h-1zm19 3h1v1h-1zm-20 9h1v1h-1zm-20 8h1v1h-1zm11 0h1v1h-1zm-5 3h1v1h-1zm18 0h2v1h-2zm2 0h1v1h-1zm12 1h1v2h-1zm29 0h1v1h-1zm-23 1h1v1h-1zm-17 1h1v1h-1zm11 0h1v1h-1zm-10 1h1v1h-1zm9 0h1v1h-1zm-9 1h1v1h-1zm7 2h1v1h-1zm9 0h1v1h-1zm24 0h1v1h-1zm-43 2h2v1h-2zm2 0h1v1h-1zm-27 3h1v1h-1zm8 4h1v1h-1zm15 0h1v1h-1zm1 0h1v1h-1zm41 0h2v1h-2zm2 0h1v1h-1zm-1 3h1v1h-1zm-61 1h1v1h-1zm54 1h1v1h-1zm-18 1h1v1h-1zm25 0h1v1h-1zm3 1h1v1h-1zm-26 2h1v1h-1zm15 0h1v1h-1zm-58 3h1v1h-1zm19 3h1v1h-1z" fill="#edb3b6"/><path d="M72 39h1v1h-1zm27 1h1v1h-1zm-27 2h1v1h-1zm-22 1h1v1h-1zm36 1h1v1h-1zm-13 2h1v1h-1zm6 3h1v1h-1zm-22 6h1v2h-1zm-8 2h1v1h-1zm8 0h1v1h-1zm29 3h1v1h-1zm8 0h1v1h-1zm-3 4h1v1h-1zm-35 3h1v1h-1zm23 0h1v1h-1zm6 3h1v1h-1zm-15 2h1v1h-1zm1 5h1v1h-1zm26 16h1v1h-1zm-19 2h1v1h-1zm-38 2h2v1h-2zm2 0h1v1h-1zm46 1h1v1h-1zm-15 5h1v1h-1zm15 0h1v1h-1zm-50 2h1v1h-1zm37 1h1v1h-1zm5 2h1v1h-1zm-46 1h2v1h-2zm2 0h1v1h-1zm4 0h2v1h-2zm2 0h1v1h-1zm4 0h2v1h-2zm2 0h1v1h-1zm5 0h8v1h-8zm8 0h1v1h-1zm3 0h3v1h-3zm3 0h1v1h-1zm5 0h2v1h-2zm2 0h1v1h-1zm-39 4h1v1h-1zm68 3h1v1h-1zm-18 1h1v1h-1zm0 1h1v1h-1zm13 4h1v1h-1zm-50 1h1v1h-1zm46 0h1v1h-1zm-55 1h1v1h-1zm46 0h1v1h-1zm-38 2h1v1h-1zm4 1h1v1h-1zm15 1h1v1h-1z" fill="#d33741"/><path d="M55 32h1v1h-1zm1 2h1v1h-1zm44 2h1v1h-1zm-7 1h1v1h-1zm-26 1h1v1h-1zm32 0h1v1h-1zm-5 2h1v1h-1zm-35 1h1v1h-1zm-12 1h1v1h-1zm-1 3h1v1h-1zm22 5h1v1h-1zm9 1h1v1h-1zm21 0h1v1h-1zm-26 6h1v1h-1zm-26 3h1v1h-1zm39 1h1v1h-1zM52 78h1v1h-1zm6 6h1v1h-1zm21 10h1v1h-1zm22 0h1v1h-1zm5 2h1v1h-1zm-12 1h1v1h-1zm-12 1h1v1h-1zm7 0h1v1h-1zm-13 3h1v1h-1zm27 0h1v1h-1zm-21 2h1v1h-1zm7 0h1v1h-1zm-45 2h1v1h-1zm46 3h1v1h-1zm-57 1h1v1h-1zm16 0h1v1h-1zm3 0h1v1h-1zm-15 3h1v1h-1zm67 1h1v1h-1zm-54 1h1v1h-1zm54 0h1v1h-1zm-71 1h1v1h-1zm15 2h1v1h-1zm-11 2h1v1h-1zm35 0h1v1h-1zm-19 1h1v1h-1zm7 0h1v1h-1zm18 0h1v1h-1zm13 2h1v1h-1zm-42 3h1v1h-1zm14 1h1v1h-1zm-1 1h1v1h-1zm31 0h1v1h-1zm-22 1h1v1h-1zm9 0h1v1h-1zm5 0h1v1h-1z" fill="#d2303b"/><path d="M52 33h1v1h-1zm2 2h2v1h-2zm2 0h1v1h-1zm-4 2h1v1h-1zm46 1h1v1h-1zm-43 1h1v1h-1zm17 1h1v1h-1zm21 0h1v1h-1zm-21 1h1v1h-1zm27 0h1v2h-1zm-49 1h1v1h-1zm9 0h1v1h-1zm40 1h1v1h-1zm-29 1h1v1h-1zm-13 7h1v1h-1zm8 3h1v1h-1zm9 0h1v1h-1zm-4 5h1v1h-1zm-20 2h1v1h-1zm-3 1h1v1h-1zm36 9h1v1h-1zm-12 1h1v1h-1zm-7 5h1v1h-1zm5 0h1v1h-1zm33 16h1v1h-1zm-28 1h1v1h-1zm-31 1h1v1h-1zm2 6h1v1h-1zm-8 1h1v1h-1zm40 2h1v1h-1zm-40 1h1v2h-1zm32 0h1v1h-1zm5 0h1v1h-1zm-37 2h1v1h-1zm6 5h1v1h-1zm18 1h1v1h-1zm34 0h1v1h-1zm8 2h1v1h-1zm-54 1h1v1h-1zm49 1h1v1h-1zm-66 1h1v1h-1zm33 1h1v1h-1zm13 0h1v1h-1zm7 0h1v1h-1zm7 1h1v1h-1zm4 1h1v1h-1zm-10 2h1v1h-1zm1 0h1v1h-1zm8 0h1v1h-1zm5 0h1v1h-1zm-66 3h1v1h-1z" fill="#df7379"/><path d="M55 33h1v1h-1zm36 5h1v1h-1zm-44 5h1v1h-1zm50 0h1v1h-1zm-41 1h1v1h-1zm-10 3h1v1h-1zm35 0h1v1h-1zm17 2h1v1h-1zm-36 2h1v1h-1zm5 12h1v1h-1zm-10 1h1v1h-1zm-7 4h1v1h-1zm13 2h1v1h-1zm1 3h1v1h-1zm1 0h1v1h-1zm15 0h1v1h-1zm-27 3h1v1h-1zm21 0h1v1h-1zm-6 1h1v1h-1zm-9 2h1v1h-1zm22 14h1v1h-1zm14 5h1v1h-1zm-34 1h1v1h-1zm8 1h1v1h-1zm12 0h1v1h-1zm0 1h1v1h-1zm16 0h1v1h-1zm5 1h1v1h-1zm-12 2h1v1h-1zm-5 1h1v1h-1zm-46 2h1v1h-1zm60 0h1v1h-1zm-61 5h1v1h-1zm14 1h1v1h-1zm3 3h1v1h-1zm-2 2h1v1h-1zm-5 1h1v1h-1zm17 1h1v1h-1zm0 1h1v1h-1zm-33 1h1v1h-1zm68 2h1v1h-1z" fill="#e17d82"/><path d="M51 34h1v1h-1zm47 6h1v1h-1zm-22 4h1v1h-1zm23 1h1v1h-1zm-43 1h1v1h-1zm-7 1h1v1h-1zm29 3h1v1h-1zm14 2h1v1h-1zm-35 2h1v1h-1zm0 4h1v1h-1zm38 0h1v1h-1zm-47 7h1v1h-1zm6 2h1v1h-1zm32 2h1v1h-1zm-9 6h1v1h-1zm-2 1h1v1h-1zm-13 1h1v1h-1zm-10 2h1v1h-1zm0 5h1v1h-1zm5 2h1v1h-1zm50 8h1v1h-1zm-8 2h1v1h-1zm1 0h1v1h-1zm-13 1h1v1h-1zm9 3h1v1h-1zm-9 4h1v1h-1zm5 2h1v1h-1zm-1 1h1v1h-1zm-16 2h1v1h-1zm18 0h1v1h-1zm5 0h1v1h-1zm-58 7h1v1h-1zm26 3h1v2h-1zm-13 2h1v1h-1zm7 0h1v1h-1zm6 0h1v1h-1zm-23 2h2v1h-2zm2 0h1v1h-1zm40 2h1v2h-1zm19 1h1v1h-1zm-19 1h1v1h-1z" fill="#d53e48"/><path d="M58 39h1v1h-1zm38 0h1v1h-1zm-41 1h1v1h-1zm10 3h1v1h-1zm-5 1h1v1h-1zm36 1h1v1h-1zm-1 2h1v1h-1zm-19 5h1v1h-1zm-19 1h1v1h-1zm18 0h1v1h-1zm-12 2h1v1h-1zm27 0h1v1h-1zm-22 7h1v1h-1zm22 3h1v1h-1zm-12 3h1v1h-1zm-27 2h1v1h-1zm1 10h1v1h-1zm7 0h1v1h-1zm-3 7h1v1h-1zm28 5h1v1h-1zm-45 2h1v1h-1zm53 0h1v1h-1zm-24 3h1v2h-1zm0 2h1v1h-1zm0 6h1v1h-1zm10 1h1v1h-1zm-39 2h1v1h-1zm29 0h1v1h-1zm19 1h1v1h-1zm-13 3h1v1h-1zm-8 1h1v4h-1zm-10 3h1v1h-1zm1 0h1v1h-1zm15 0h1v1h-1zm-13 1h1v1h-1zm7 0h1v1h-1zm35 1h1v1h-1zm-64 4h1v1h-1zm29 1h1v4h-1zm-8 1h1v1h-1zm-8 2h1v1h-1zm16 1h1v1h-1z" fill="#d74b54"/><path d="M63 72h1v1h-1zm-6 25h1v1h-1zm12 0h1v1h-1zm-28 2h1v1h-1zm16 5h1v1h-1zm36 11h1v1h-1zm-14 1h1v2h-1zm20 0h1v1h-1zm-26 2h1v1h-1zm6 0h1v1h-1z" fill="#c00"/><path d="M113 12h1v1h-1zm1 0h1v1h-1zm-1 1h1v1h-1zm1 0h1v1h-1zM53 30h1v1h-1zm-2 2h1v1h-1zm1 0h1v1h-1zm-3 3h1v1h-1zm1 0h1v1h-1zm46 0h1v1h-1zm1 0h1v1h-1zm3 0h1v1h-1zm-42 1h1v2h-1zm10 0h2v1h-2zm2 0h1v1h-1zm22 0h1v1h-1zm9 0h1v1h-1zm-53 1h1v1h-1zm41 0h1v1h-1zm-31 1h1v1h-1zm1 0h1v1h-1zm27 0h1v1h-1zm14 0h1v2h-1zm-53 1h1v1h-1zm36 0h1v1h-1zm-23 1h1v1h-1zm4 0h1v1h-1zm17 0h1v1h-1zm16 0h1v1h-1zm3 0h1v1h-1zm-48 1h2v1h-2zm2 0h1v1h-1zm25 0h1v1h-1zm13 0h1v1h-1zm-38 1h1v1h-1zm23 0h2v1h-2zm2 0h1v1h-1zm13 0h1v1h-1zm-32 1h1v1h-1zm1 0h1v1h-1zm27 0h2v1h-2zm-37 1h1v1h-1zm13 0h1v1h-1zm1 0h1v1h-1zm7 0h2v1h-2zm2 0h1v1h-1zm14 0h1v1h-1zm7 0h1v1h-1zm-50 1h1v1h-1zm20 0h1v1h-1zm1 0h1v1h-1zm5 0h1v1h-1zm-9 1h1v1h-1zm4 0h1v1h-1zm19 0h1v1h-1zm9 0h1v1h-1zm5 0h1v1h-1zm1 0h1v1h-1zm-45 1h1v1h-1zm15 0h1v1h-1zm-20 1h1v1h-1zm5 0h1v1h-1zm27 0h1v1h-1zm11 0h1v1h-1zm-1 2h1v1h-1zm-48 1h1v4h-1zm55 0h1v1h-1zm0 1h1v1h-1zm-9 1h1v1h-1zm-14 1h1v1h-1zm22 0h1v1h-1zm-54 1h1v1h-1zm31 0h1v1h-1zm-25 1h1v1h-1zm37 1h1v1h-1zm-42 3h1v1h-1zm26 0h1v1h-1zm-19 2h1v1h-1zm32 0h1v1h-1zm10 0h1v1h-1zm-48 1h1v1h-1zm7 1h1v1h-1zm15 0h1v1h-1zm-14 1h1v1h-1zm27 0h1v1h-1zm-34 1h1v1h-1zm8 0h1v1h-1zm25 0h1v1h-1zm-3 1h1v1h-1zm-1 1h1v1h-1zm-27 1h1v1h-1zm16 0h1v1h-1zm9 0h1v1h-1zm-2 1h1v1h-1zm-22 1h1v1h-1zm19 0h1v1h-1zm15 1h1v1h-1zm-32 2h1v1h-1zm29 0h1v1h-1zm-5 2h2v1h-2zm2 0h1v1h-1zm-27 1h1v1h-1zm25 0h1v1h-1zm-25 1h1v1h-1zm21 0h1v1h-1zm1 0h1v1h-1zm-14 3h1v1h-1zm1 0h1v1h-1zm0 1h1v1h-1zm-9 3h1v1h-1zm1 2h1v1h-1zm1 1h1v1h-1zm4 0h1v1h-1zm-24 3h5v1h-5zm5 0h1v1h-1zm6 0h5v1h-5zm5 0h1v1h-1zm3 0h9v1h-9zm9 0h1v1h-1zm3 0h6v1h-6zm6 0h1v1h-1zm12 0h1v1h-1zm10 0h4v1h-4zm4 0h1v1h-1zm7 0h4v1h-4zm4 0h1v1h-1zm-64 1h1v1h-1zm7 0h1v1h-1zm1 0h1v17h-1zm11 0h1v1h-1zm1 0h1v1h-1zm11 0h1v1h-1zm6 0h1v1h-1zm7 0h1v1h-1zm3 0h1v1h-1zm18 0h1v1h-1zm-77 1h1v15h-1zm9 0h1v1h-1zm10 0h1v1h-1zm13 0h1v1h-1zm12 0h1v1h-1zm15 0h1v1h-1zm9 1h1v1h-1zm-36 3h1v7h-1zm-1 1h1v1h-1zm29 0h1v1h-1zm15 0h1v1h-1zm-17 1h1v1h-1zm5 0h1v1h-1zm11 1h1v1h-1zm-31 2h1v2h-1zm15 0h1v1h-1zm6 0h1v2h-1zm-37 1h3v1h-3zm3 0h2v1h-2zm2 1h1v1h-1zm11 0h1v1h-1zm1 0h1v1h-1zm19 0h1v1h-1zm1 0h1v1h-1zm-19 1h1v1h-1zm26 0h1v1h-1zm-33 1h1v1h-1zm8 1h1v2h-1zm-46 1h1v1h-1zm32 0h1v1h-1zm7 0h1v1h-1zm30 0h1v1h-1zm-62 1h1v1h-1zm1 0h1v1h-1zm11 0h1v1h-1zm1 0h1v1h-1zm12 0h1v1h-1zm6 0h1v1h-1zm1 0h1v1h-1zm7 0h1v1h-1zm-40 1h2v1h-2zm2 0h1v1h-1zm4 0h2v1h-2zm9 0h1v1h-1zm16 0h1v1h-1zm3 0h1v1h-1zm5 0h1v1h-1zm5 0h1v1h-1zm7 0h1v1h-1zm1 0h1v1h-1zm-45 1h1v1h-1zm9 0h1v1h-1zm7 0h1v1h-1zm6 0h1v1h-1zm9 0h1v1h-1zm5 0h1v1h-1zm9 0h1v1h-1zm14 0h1v1h-1zm-59 1h2v1h-2zm2 0h1v1h-1zm5 0h1v1h-1zm11 0h1v1h-1zm3 0h1v1h-1zm10 0h2v1h-2zm2 0h2v1h-2zm2 0h1v1h-1zm12 0h1v1h-1zm-45 1h1v1h-1zm32 0h1v1h-1zm27 0h1v1h-1zm0 1h1v1h-1zm-2 3h1v1h-1zm1 1h1v1h-1zm-66 2h1v1h-1zm55 1h1v1h-1zm13 0h1v3h-1zm-66 2h1v1h-1zm1 0h1v1h-1zm15 0h1v1h-1zm1 0h2v1h-2zm2 0h1v1h-1zm-28 1h1v1h-1zm47 0h1v1h-1zm28 0h1v1h-1zm-73 3h1v1h-1zm59 0h1v1h-1zm-27 1h1v1h-1zm7 0h1v1h-1zm14 0h1v1h-1zm16 0h1v1h-1zm-66 1h1v1h-1zm16 0h1v1h-1zm14 0h1v1h-1zm5 0h1v1h-1zm8 0h1v1h-1zm1 0h1v1h-1zm5 0h1v1h-1zm9 0h1v1h-1zm-55 1h3v1h-3zm3 0h1v1h-1zm13 0h3v1h-3zm3 0h1v1h-1zm39 0h3v1h-3zm3 0h1v1h-1z" fill="#d01e2c"/><path d="M54 32h1v1h-1zm1 2h1v1h-1zm43 3h1v1h-1zm-5 1h1v1h-1zm-37 3h1v1h-1zm4 5h1v1h-1zm1 3h1v1h-1zm16 1h1v1h-1zm-1 1h1v1h-1zm-30 5h2v1h-2zm2 0h1v1h-1zm15 13h1v1h-1zm-1 2h1v1h-1zm-5 13h1v1h-1zM33 94h1v1h-1zm72 2h1v1h-1zm-49 3h1v1h-1zm-14 1h1v1h-1zm60 1h1v1h-1zm-58 1h1v1h-1zm14 0h2v1h-2zm2 0h1v1h-1zm9 2h1v1h-1zm-13 1h1v1h-1zm35 1h1v1h-1zm-58 1h1v1h-1zm47 0h1v1h-1zm-38 1h1v1h-1zm25 0h1v1h-1zm15 0h1v1h-1zm-47 6h1v1h-1zm19 2h1v1h-1zm-5 1h1v1h-1zm3 3h1v1h-1zm51 0h1v1h-1zm-47 5h1v1h-1zm41 0h1v1h-1zm-46 1h1v1h-1zm52 0h1v1h-1zm-67 1h1v1h-1zm42 0h1v1h-1zm-38 1h1v1h-1zm1 0h1v1h-1zm58 0h1v1h-1z" fill="#f4d1d3"/><path d="M51 35h1v1h-1zm48 2h1v1h-1zm-7 1h1v1h-1zm-26 2h1v1h-1zm30 6h1v1h-1zm-50 2h1v1h-1zm15 0h1v1h-1zm37 0h1v1h-1zm-28 1h1v1h-1zm-22 2h1v1h-1zm19 1h1v1h-1zm28 5h1v1h-1zm-46 2h1v1h-1zm43 3h1v1h-1zm-10 3h1v1h-1zm-17 1h1v1h-1zm16 0h1v1h-1zm-3 8h1v1h-1zm14 19h1v1h-1zm-17 3h1v1h-1zm9 0h1v1h-1zm-42 3h1v1h-1zm55 3h1v1h-1zm-24 2h1v1h-1zm27 1h1v1h-1zm-61 7h1v1h-1zm64 1h1v1h-1zm-41 1h1v1h-1zm1 1h1v1h-1zm15 1h1v1h-1zm10 1h1v1h-1zm0 1h1v1h-1zm4 1h2v1h-2zm2 0h1v1h-1zm-62 1h1v1h-1zm43 2h1v1h-1zm-38 1h1v1h-1zm57 1h1v1h-1zm-47 1h1v1h-1zm51 0h1v1h-1zm-44 3h1v1h-1zm5 0h1v1h-1zm19 0h1v1h-1z" fill="#e9a3a6"/><path d="M49 38h1v1h-1zm-1 2h1v1h-1zm32 2h1v1h-1zm-2 1h1v1h-1zm-11 2h1v1h-1zm-18 1h1v1h-1zm48 7h1v1h-1zm-34 3h1v1h-1zm-14 2h1v1h-1zm39 0h1v1h-1zm-37 5h1v1h-1zm6 0h1v1h-1zm-1 5h1v1h-1zm-4 3h1v1h-1zm10 1h1v1h-1zm27 21h1v1h-1zm-12 4h1v1h-1zm-2 3h1v1h-1zm-38 3h1v1h-1zm0 1h1v1h-1zm47 5h1v1h-1zm1 0h1v1h-1zm9 0h1v1h-1zm3 0h1v1h-1zm-29 3h4v1h-4zm4 0h1v1h-1zm10 0h4v1h-4zm4 0h1v1h-1zm-47 4h1v1h-1zm8 0h1v1h-1zm17 0h1v1h-1zm21 0h1v1h-1zm1 3h1v1h-1zm-38 3h1v1h-1zm12 0h1v1h-1zm39 0h1v1h-1zm-11 1h1v1h-1zm-14 5h1v1h-1z" fill="#dc696e"/><path d="M50 38h1v1h-1zm45 0h1v1h-1zm-39 1h1v1h-1zm12 0h1v1h-1zm23 0h2v1h-2zm2 0h1v1h-1zm-44 1h1v1h-1zm18 0h1v1h-1zm21 0h1v1h-1zm-3 1h1v1h-1zm-27 1h1v1h-1zm-1 2h1v1h-1zm10 0h1v1h-1zm31 0h1v1h-1zm-51 2h1v1h-1zm28 0h1v1h-1zm-15 1h1v1h-1zm35 2h2v1h-2zm2 0h1v1h-1zm-39 1h1v1h-1zm3 0h1v1h-1zm9 0h1v1h-1zm-2 2h1v1h-1zm28 1h1v1h-1zm-4 1h1v1h-1zm-30 2h1v1h-1zm0 1h1v1h-1zm-14 1h1v1h-1zm-1 1h1v1h-1zm21 1h1v1h-1zm24 1h1v1h-1zm-6 1h1v1h-1zm-20 1h1v1h-1zm-8 1h1v1h-1zm26 0h1v1h-1zm-2 2h1v1h-1zm-31 2h1v1h-1zm33 1h1v1h-1zm-22 1h1v1h-1zm15 0h1v1h-1zm6 0h1v1h-1zm-29 2h1v1h-1zm8 2h5v1h-5zm5 0h1v1h-1zm-13 2h1v1h-1zm17 0h1v1h-1zm-13 3h1v1h-1zm-2 6h1v1h-1zm28 8h2v1h-2zm2 0h1v1h-1zm3 1h1v1h-1zm4 0h1v1h-1zm-55 1h1v1h-1zm6 0h1v1h-1zm53 0h1v1h-1zm5 0h1v1h-1zm-35 1h1v1h-1zm11 1h1v1h-1zm26 0h1v1h-1zm-8 1h1v1h-1zm-60 1h1v1h-1zm10 0h1v7h-1zm-8 1h1v1h-1zm6 0h2v1h-2zm30 0h1v1h-1zm6 0h1v1h-1zm0 1h1v1h-1zm-38 1h1v1h-1zm27 1h1v1h-1zm13 2h1v1h-1zm8 0h1v1h-1zm6 0h1v1h-1zm-50 1h1v1h-1zm38 0h2v1h-2zm2 0h1v1h-1zm-44 1h1v1h-1zm47 0h1v1h-1zm9 0h1v1h-1zm-44 6h1v1h-1zm5 0h1v1h-1zm10 0h5v1h-5zm5 0h1v1h-1zm9 0h5v1h-5zm5 0h1v1h-1zm14 0h1v2h-1zm-60 2h1v1h-1zm13 0h1v1h-1zm3 0h1v1h-1zm12 0h1v1h-1zm3 0h1v1h-1zm14 0h1v1h-1zm15 0h1v1h-1zm-52 1h1v1h-1zm14 3h1v2h-1zm36 0h1v1h-1zm-30 1h1v1h-1zm14 0h1v1h-1zm-20 1h1v1h-1zm-15 1h1v1h-1zm36 0h2v1h-2zm2 0h1v1h-1zm-51 1h1v1h-1zm65 0h1v1h-1zm-64 1h1v1h-1zm16 0h1v1h-1zm42 0h1v1h-1zm6 0h1v1h-1zm-63 1h1v1h-1zm58 0h1v1h-1zm-43 2h1v1h-1z" fill="#fefafa"/><path d="M55 38h1v1h-1zm15 0h1v1h-1zm-14 5h1v1h-1zm10 1h1v1h-1zm-9 5h1v1h-1zm-9 3h1v2h-1zm18 1h1v1h-1zm-18 1h1v1h-1zm41 3h1v1h-1zm-6 7h1v1h-1zm-34 2h1v1h-1zm27 9h1v1h-1zM55 87h1v1h-1zm17 6h1v1h-1zm-11 3h1v1h-1zm8 0h1v1h-1zm12 3h1v1h-1zm0 3h1v1h-1zm-43 1h1v1h-1zm44 1h1v1h-1zm-21 1h1v1h-1zm25 0h1v1h-1zm8 2h1v1h-1zm-23 1h1v1h-1zm-29 4h1v1h-1zm13 0h1v1h-1zm36 2h1v1h-1zm-44 1h1v1h-1zm-14 1h1v1h-1zm-1 5h1v1h-1zm72 0h1v1h-1zm-58 3h1v1h-1zm-3 4h1v1h-1zm25 0h1v1h-1zm1 0h1v1h-1zm6 0h2v1h-2zm2 0h1v1h-1zm5 0h1v1h-1zm1 0h1v1h-1z" fill="#e79b9f"/><path d="M51 39h1v1h-1zm47 2h1v1h-1zm-49 4h1v1h-1zm47 10h1v1h-1zm-2 4h1v1h-1zm-25 1h1v1h-1zm-21 4h1v1h-1zm9 1h1v1h-1zm10 8h1v1h-1zm-9 9h1v1h-1zm43 13h1v1h-1zm-16 1h1v1h-1zm-45 3h1v1h-1zm28 1h1v1h-1zm35 0h1v1h-1zm-29 1h1v1h-1zm-18 2h1v1h-1zm28 2h1v1h-1zm-3 3h1v1h-1zm-23 4h1v1h-1zm18 1h1v1h-1zm14 0h1v1h-1zm2 3h1v1h-1zm10 0h1v1h-1zm-70 3h1v1h-1zm55 0h1v1h-1zm-16 4h1v1h-1zm-33 1h1v1h-1zm11 0h1v1h-1zm32 4h1v1h-1z" fill="#e69498"/><g fill="#d0202e"><path d="M0 0h14v159H0zm14 0h126v9H14zm126 0h1v159h-1zM14 9h126v1H14zm0 1h30v2H14zm30 0h20v2H44zm20 0h76v1H64zm0 1h76v1H64zm-50 1h73v2H14zm73 0h25v2H87zm25 0h1v147h-1zm3 0h6v2h-6zm6 0h19v3h-19z"/><path d="M14 14h126v1H14zm0 1h42v1H14zm42 0h42v16H56zm42 0h21v2H98zm21 0h21v25h-21zM14 16h26v74H14z"/><path d="M40 16h58v13H40zm58 1h42v1H98zm0 1h16v16H98zm16 0h26v22h-26z"/><path d="M40 29h100v1H40zm0 1h12v1H40zm12 0h1v1h-1zm3 0h85v1H55zm-15 1h11v2H40zm11 0h1v1h-1zm5 0h84v1H56zm1 1h83v1H57zm-17 1h10v1H40zm10 0h1v1h-1zm7 0h83v1H57zm-17 1h9v2h-9zm9 0h1v1h-1zm9 0h82v1H58zm0 1h37v1H58zm37 0h1v1h-1zm6 0h39v1h-39zm-61 1h8v2h-8zm8 0h1v1h-1zm11 0h8v1h-8zm8 0h1v1h-1zm4 0h20v1H71zm20 0h1v1h-1zm11 0h38v4h-38zm-43 1h7v1h-7zm7 0h1v1h-1zm6 0h16v1H72zm16 0h1v1h-1zm-48 1h7v3h-7zm7 0h1v1h-1zm13 0h5v1h-5zm5 0h1v1h-1zm8 0h12v1H73zm12 0h1v1h-1zm4 0h1v1h-1z"/><path d="M101 38h39v2h-39zm-48 1h1v24h-1zm7 0h4v1h-4zm4 0h1v1h-1zm10 0h8v1h-8zm8 0h1v1h-1zm4 0h1v1h-1zm-25 1h2v2h-2zm2 0h1v8h-1zm11 0h6v1h-6zm6 0h1v1h-1zm21 0h39v5h-39zm-61 1h6v3h-6zm6 0h1v1h-1zm28 0h4v1h-4zm4 0h1v1h-1zm17 0h2v1h-2zm2 0h1v1h-1zm-45 1h1v19h-1zm9 0h2v1h-2zm13 0h2v1h-2zm2 0h1v1h-1zm14 0h1v10h-1zm3 0h2v3h-2zm2 0h1v1h-1zm-41 1h1v21h-1zm8 0h1v2h-1zm11 0h2v1h-2zm2 0h1v1h-1z"/><path d="M91 43h4v2h-4zm4 0h1v1h-1zm-55 1h5v6h-5zm5 0h1v1h-1z"/><path d="M89 44h5v3h-5zm-38 1h3v14h-3zm11 0h2v1h-2zm2 0h1v7h-1zm8 0h1v1h-1z"/><path d="M87 45h7v1h-7zm7 0h1v1h-1zm7 0h39v1h-39zm-36 1h1v5h-1zm5 0h1v1h-1zm1 0h1v1h-1zm15 0h7v3h-7zm15 0h31v10h-31zm31 0h8v10h-8zm-66 1h3v1h-3zm18 0h2v12h-2zm9 0h1v1h-1z"/><path d="M100 47h25v9h-25zm-37 1h5v1h-5zm5 0h1v1h-1zm15 0h9v3h-9zm-33 1h5v6h-5zm5 0h1v16h-1zm7 0h5v1h-5zm5 0h2v1h-2zm2 0h1v1h-1z"/><path d="M81 49h11v2H81zm11 0h1v1h-1zm-52 1h4v28h-4zm4 0h1v1h-1zm22 0h1v1h-1z"/><path d="M80 50h11v2H80zm-15 1h1v1h-1z"/><path d="M79 51h12v1H79zm12 0h1v1h-1zm-27 1h1v1h-1zm14 0h12v2H78zm12 0h1v1h-1z"/><path d="M77 53h12v2H77zm22 0h41v3H99zm-10 1h1v1h-1zm-39 1h5v1h-5zm26 0h12v1H76zm12 0h1v1h-1z"/><path d="M98 55h42v1H98zm-54 1h1v34h-1zm29 0h14v2H73zm14 0h1v1h-1zm11 0h42v4H98z"/><path d="M97 57h12v33H97zm-24 1h13v1H73zm13 0h1v1h-1zm-35 1h4v1h-4zm21 0h13v1H72zm13 0h1v1h-1z"/><path d="M96 59h44v1H96zm-46 1h5v1h-5zm22 0h12v1H72zm12 0h1v1h-1zm12 0h44v1H96zm-51 1h1v29h-1zm7 0h3v1h-3zm19 0h12v1H71zm12 0h1v1h-1zm12 0h26v29H95zm26 0h12v20h-12zm12 0h7v98h-7zm-63 1h12v1H70zm12 0h1v1h-1zm-29 1h2v1h-2zm16 0h12v1H69zm12 0h1v1h-1z"/><path d="M92 63h48v18H92zm-46 1h1v7h-1zm8 0h1v1h-1zm15 0h11v1H69zm11 0h1v1h-1zm-25 1h1v1h-1zm13 0h11v1H68zm11 0h1v1h-1zm-12 1h11v1H67zm11 0h1v1h-1z"/><path d="M91 66h49v15H91zm-44 1h1v3h-1zm20 0h9v1h-9zm9 0h1v1h-1z"/><path d="M90 67h50v14H90zm-42 1h1v22h-1zm7 0h1v1h-1zm11 0h9v1h-9zm9 0h1v1h-1z"/><path d="M89 68h51v13H89zm-39 1h1v1h-1zm16 0h7v1h-7zm7 0h1v1h-1z"/><path d="M88 69h52v12H88zm-41 1h2v1h-2zm2 0h1v20h-1zm16 0h6v1h-6zm6 0h1v1h-1z"/><path d="M87 70h53v11H87zm-41 1h3v19h-3zm19 0h3v1h-3zm3 0h1v1h-1z"/><path d="M86 71h54v10H86zm-36 1h2v4h-2zm2 0h1v1h-1z"/><path d="M85 72h55v9H85z"/><path d="M83 73h57v8H83zm-30 1h1v1h-1z"/><path d="M82 74h58v7H82z"/><path d="M80 75h60v6H80zm-30 1h1v15h-1zm1 0h1v1h-1z"/><path d="M79 76h61v5H79zm-27 1h1v1h-1z"/><path d="M77 77h63v4H77zm-37 1h10v12H40zm20 0h1v1h-1z"/><path d="M74 78h66v3H74z"/><path d="M61 79h79v2H61zm0 2h79v5H61z"/><path d="M60 83h80v3H60zm-8 2h1v1h-1z"/><path d="M59 85h81v1H59zm-8 1h1v5h-1zm8 0h81v4H59z"/><path d="M58 87h66v3H58zm-6 1h1v2h-1z"/><path d="M53 89h87v1H53zm-39 1h126v1H14zm0 1h18v1H14zm18 0h1v17h-1zm7 0h4v1h-4zm4 0h1v1h-1zm7 0h1v1h-1zm1 0h1v1h-1zm11 0h1v1h-1zm1 0h1v1h-1zm8 0h10v1H71zm10 0h1v1h-1zm7 0h3v1h-3zm3 0h1v1h-1zm6 0h5v1h-5zm5 0h1v1h-1zm6 0h32v1h-32zm-94 1h17v67H14zm17 0h1v1h-1zm9 0h2v1h-2zm2 0h1v1h-1zm33 0h4v1h-4zm4 0h1v1h-1zm4 0h1v1h-1zm8 0h1v1h-1zm7 0h3v1h-3zm3 0h1v1h-1zm8 0h31v41h-31zm-68 1h1v2h-1zm1 0h1v1h-1zm34 0h2v1h-2zm2 0h2v1h-2zm2 0h1v1h-1zm19 0h1v1h-1zm1 0h1v1h-1zm-24 1h1v1h-1zm1 0h1v1h-1zm-36 1h1v1h-1z"/><path d="M108 95h32v38h-32zm-46 1h1v1h-1z"/><path d="M107 97h33v36h-33zm-23 1h2v5h-2zm2 0h1v5h-1zm6 0h1v5h-1zm1 0h1v6h-1zm-23 1h1v1h-1z"/><path d="M83 99h4v3h-4zm4 0h1v3h-1zm3 0h3v3h-3zm16 0h34v21h-34z"/><path d="M88 100h6v1h-6zm6 0h1v3h-1z"/><path d="M88 101h7v1h-7zm7 0h1v1h-1zm10 0h35v11h-35zm-29 1h1v1h-1zm7 0h4v1h-4zm4 0h1v1h-1zm3 0h4v1h-4z"/><path d="M104 102h36v9h-36zm-29 1h1v1h-1zm9 0h2v1h-2zm2 0h1v1h-1zm6 0h2v1h-2zm2 0h1v1h-1zm-1 1h1v1h-1z"/><path d="M103 104h37v6h-37zm-41 1h1v1h-1z"/><path d="M102 106h38v4h-38z"/><path d="M101 107h39v3h-39zm-69 1h1v6h-1zm30 0h1v3h-1zm16 0h1v4h-1zm-47 1h1v7h-1zm12 0h2v1h-2zm2 0h1v2h-1zm23 0h1v1h-1zm11 0h1v2h-1z"/><path d="M100 109h40v1h-40zm-50 1h1v2h-1zm1 0h1v1h-1zm12 0h1v2h-1zm6 0h1v1h-1zm1 0h1v1h-1zm7 0h3v1h-3zm3 0h1v1h-1zm10 0h2v1h-2zm2 0h1v2h-1zm7 0h41v1H99zm-66 1h3v1h-3zm3 0h1v1h-1z"/><path d="M45 111h7v1h-7zm7 0h1v1h-1zm9 0h4v1h-4zm4 0h1v1h-1zm11 0h3v1h-3zm3 0h1v1h-1zm11 0h5v1h-5zm5 0h1v1h-1zm9 0h36v1h-36zm-71 1h1v1h-1zm1 0h1v1h-1zm13 0h3v1h-3zm3 0h1v1h-1zm13 0h1v1h-1zm1 0h1v1h-1zm28 0h2v1h-2zm2 0h1v1h-1zm11 0h35v1h-35zm-72 1h1v1h-1zm15 0h1v1h-1zm1 0h2v1h-2zm2 0h1v1h-1zm13 0h1v1h-1zm13 0h1v1h-1zm14 0h2v1h-2zm2 0h1v1h-1zm-61 1h1v1h-1zm73 1h35v4h-35zm-74 1h1v1h-1zm7 1h1v1h-1zm55 0h1v1h-1z"/><path d="M104 117h36v1h-36zm-65 1h3v4h-3zm3 0h1v4h-1zm13 0h3v4h-3zm3 0h1v4h-1zm44 0h1v1h-1zm-59 1h3v2h-3zm3 0h1v3h-1zm59 0h35v1h-35zm1 1h34v1h-34z"/><path d="M37 121h9v1h-9zm2 1h3v1h-3zm3 0h1v1h-1zm4 0h1v1h-1zm9 0h3v1h-3zm3 0h1v1h-1zm47 0h35v1h-35zm-51 1h1v1h-1zm24 0h1v1h-1zm12 0h2v36h-2zm2 0h1v1h-1zm13 0h35v1h-35zm-13 1h1v1h-1zm-61 1h1v34h-1zm33 0h1v34h-1z"/><path d="M87 125h4v34h-4zm19 0h34v8h-34zm-74 1h1v33h-1zm16 1h1v32h-1zm1 0h1v32h-1z"/><path d="M105 127h35v6h-35zm-72 1h1v31h-1zm1 0h1v31h-1zm13 0h3v31h-3zm3 0h1v31h-1zm13 0h1v31h-1zm29 0h1v31h-1z"/><path d="M104 128h36v5h-36zm-69 1h1v30h-1zm5 0h1v30h-1zm1 0h1v30h-1zm4 0h6v30h-6zm6 0h1v30h-1zm10 0h4v30h-4zm4 0h1v30h-1zm7 0h1v30h-1zm1 0h1v30h-1zm13 0h7v30h-7zm7 0h1v30h-1zm6 0h1v30h-1z"/><path d="M103 129h37v4h-37zm-67 1h2v29h-2zm2 0h1v29h-1zm5 0h11v3H43zm11 0h1v29h-1zm5 0h37v29H59zm37 0h1v29h-1z"/><path d="M101 130h39v3h-39z"/><path d="M39 131h101v2H39zm0 2h101v26H39zM0 159h140v1H0zm140 0h1v1h-1z"/></g><path d="M52 35h1v1h-1zm-1 1h1v1h-1zm5 1h1v1h-1zm38 1h1v1h-1zm-23 2h1v1h-1zm20 0h1v1h-1zm-25 1h1v2h-1zm5 0h1v1h-1zm-23 1h1v1h-1zm39 0h1v1h-1zm-21 1h1v1h-1zm14 0h1v1h-1zm18 0h1v1h-1zm-20 1h1v1h-1zm-21 1h1v1h-1zm40 0h1v1h-1zm-49 1h1v1h-1zm32 1h1v1h-1zm16 0h1v1h-1zm-24 1h1v1h-1zm25 2h1v1h-1zm-39 1h1v1h-1zm0 1h1v1h-1zm4 2h1v1h-1zm4 0h1v1h-1zm-4 1h1v1h-1zm10 0h1v1h-1zm17 3h1v1h-1zm5 0h1v1h-1zm-36 4h1v1h-1zm-8 1h1v1h-1zm8 0h1v1h-1zm-1 5h1v1h-1zm18 3h1v1h-1zm2 3h1v1h-1zm-3 1h1v1h-1zm-16 5h1v1h-1zm-1 3h1v1h-1zm26 10h1v1h-1zm23 1h1v1h-1zm-32 1h1v1h-1zm-7 2h1v3h-1zm-28 1h1v1h-1zm4 0h1v1h-1zm-7 2h1v7h-1zm31 0h1v1h-1zm4 0h1v1h-1zm27 1h1v1h-1zm-58 1h1v1h-1zm61 0h1v1h-1zm-34 1h1v4h-1zm30 0h1v1h-1zm-58 1h1v1h-1zm31 1h1v1h-1zm3 0h1v1h-1zm-37 2h1v1h-1zm31 0h1v1h-1zm16 1h1v1h-1zm4 0h1v1h-1zm7 0h1v1h-1zm1 6h1v1h-1zm-56 1h1v1h-1zm47 0h1v1h-1zm5 0h1v1h-1zm-46 1h1v1h-1zm29 0h1v1h-1zm23 1h1v1h-1zm-48 1h1v1h-1zm3 0h1v1h-1zm12 0h1v1h-1zm-3 1h1v1h-1zm24 1h1v1h-1zm1 0h1v1h-1zm10 0h1v1h-1zm3 1h1v1h-1zm-47 1h1v1h-1zm12 0h1v1h-1zm6 0h1v1h-1zm18 0h1v1h-1zm-16 1h1v1h-1zm-30 2h1v1h-1zm31 0h1v1h-1zm21 0h1v1h-1zm-17 1h1v1h-1zm-33 1h1v1h-1zm16 0h1v1h-1z" fill="#fcf3f3"/><path d="M47 41h1v1h-1zm30 2h1v1h-1zm-6 4h1v1h-1zm28 0h1v1h-1zm-54 4h1v1h-1zm4 1h1v1h-1zm0 1h1v1h-1zm14 0h1v1h-1zm-18 1h1v1h-1zm52 1h1v1h-1zm-4 7h1v1h-1zm-46 2h1v1h-1zm18 4h1v1h-1zm-2 3h1v1h-1zm1 21h1v1h-1zm27 2h1v1h-1zm8 1h1v1h-1zm-41 2h2v1h-2zm2 0h1v1h-1zm24 0h1v1h-1zm-43 1h1v1h-1zm17 6h1v1h-1zm1 0h1v1h-1zm25 0h1v1h-1zm-46 3h1v1h-1zm31 0h1v1h-1zm24 0h1v1h-1zm-28 9h1v1h-1zm35 0h1v1h-1zm-35 1h1v1h-1zm21 1h1v1h-1zm7 0h1v1h-1zm-62 1h1v2h-1zm48 0h1v1h-1zm-48 2h1v1h-1zm68 2h1v1h-1zm-47 5h1v1h-1z" fill="#cd0016"/><path d="M84 41h1v1h-1zm-37 4h1v1h-1zm51 1h1v1h-1zm-50 2h1v1h-1zm27 4h1v1h-1zm21 2h1v1h-1zm-33 3h1v1h-1zm-16 3h2v1h-2zm2 0h1v1h-1zm44 0h1v1h-1zm-3 4h1v1h-1zm-1 1h1v1h-1zm-39 2h1v1h-1zm14 0h1v1h-1zm11 8h1v1h-1zm-15 1h1v1h-1zm-7 3h1v1h-1zm0 5h1v1h-1zm-18 9h1v1h-1zm1 0h1v1h-1zm10 0h1v1h-1zm1 0h1v1h-1zm7 0h5v1h-5zm5 0h1v1h-1zm6 0h5v1h-5zm5 0h1v1h-1zm24 0h1v1h-1zm1 0h1v1h-1zm8 0h2v1h-2zm2 0h1v1h-1zm-44 1h1v1h-1zm18 1h1v1h-1zm4 1h1v1h-1zm-44 1h1v1h-1zm50 0h1v1h-1zm8 3h1v1h-1zm-54 5h1v1h-1zm18 1h1v1h-1zm34 0h1v1h-1zm4 0h1v1h-1zm-50 1h1v1h-1zm12 0h1v1h-1zm-26 1h1v1h-1zm11 0h1v1h-1zm1 0h1v1h-1zm7 0h5v1h-5zm5 0h1v1h-1zm7 0h1v1h-1zm6 0h1v1h-1zm1 0h1v1h-1zm-20 5h1v1h-1zm6 3h1v1h-1zm11 1h1v1h-1zm14 0h1v1h-1zm0 1h1v1h-1zm-32 1h1v1h-1zm-3 4h1v1h-1zm15 0h1v1h-1zm6 0h1v1h-1zm0 1h1v1h-1zm14 0h1v2h-1zm0 2h1v1h-1z" fill="#f7dddf"/><path d="M53 31h1v1h-1zm4 5h1v1h-1zm40 0h1v1h-1zm-43 1h1v1h-1zm-2 1h1v1h-1zm-4 1h1v1h-1zm18 0h1v1h-1zm-11 2h1v1h-1zm28 5h1v1h-1zm-27 1h1v1h-1zm11 4h1v1h-1zm-1 1h1v1h-1zm-3 2h1v1h-1zm26 2h1v1h-1zM49 67h1v1h-1zm16 0h1v1h-1zm11 2h1v1h-1zm-4 2h1v1h-1zM39 93h1v1h-1zm23 0h1v2h-1zm-19 1h1v1h-1zm19 1h1v1h-1zm30 0h1v1h-1zm-16 5h1v1h-1zm26 3h1v1h-1zm-11 1h1v1h-1zm-29 2h1v1h-1zm32 0h1v1h-1zm-32 1h1v1h-1zm14 0h1v2h-1zm-39 2h1v1h-1zm34 0h1v1h-1zm5 0h1v1h-1zm6 0h1v1h-1zm6 0h1v1h-1zm-22 3h1v1h-1zm14 0h1v1h-1zm16 0h1v1h-1zm-2 8h1v1h-1zm-2 1h1v1h-1zm3 0h1v1h-1zm-49 6h1v1h-1zm10 2h1v1h-1zm1 0h1v1h-1zm41 0h1v1h-1z" fill="#d22835"/><path d="M45 48h1v2h-1zm54 0h1v1h-1zm-50 1h1v2h-1zm-4 1h1v1h-1zm4 1h1v1h-1zm14 1h1v1h-1zm-14 2h1v1h-1zm-4 1h1v2h-1zm4 0h1v1h-1zm-4 2h1v1h-1zm50 2h1v1h-1zM34 92h3v1h-3zm3 0h1v1h-1zm8 0h3v1h-3zm3 0h1v1h-1zm5 0h7v1h-7zm7 0h1v1h-1zm5 0h5v1h-5zm5 0h2v1h-2zm2 0h1v1h-1zm10 0h1v1h-1zm6 0h1v1h-1zm5 0h3v1h-3zm3 0h1v1h-1zm7 0h3v1h-3zm3 0h1v1h-1zm-29 4h1v1h-1zm16 0h1v1h-1zm-7 1h1v1h-1zm-29 1h1v1h-1zm3 6h1v1h-1zm26 0h1v1h-1zm-13 13h1v1h-1zm14 0h1v1h-1zm-28 1h1v1h-1zm28 0h1v1h-1zm6 6h1v1h-1zm5 0h1v1h-1zm1 0h1v1h-1zm-54 4h1v1h-1zm16 0h1v1h-1zm33 0h1v1h-1z" fill="#ce0011"/><path d="M56 33h1v1h-1zm-7 3h1v1h-1zm4 0h1v1h-1zm15 1h2v1h-2zm2 0h1v1h-1zm22 0h1v1h-1zm-45 3h1v1h-1zm12 0h1v1h-1zm14 0h1v1h-1zm9 0h1v1h-1zm13 0h1v1h-1zm-22 1h1v1h-1zm27 0h1v3h-1zm-9 1h1v1h-1zm-41 2h1v2h-1zm21 0h1v1h-1zm16 0h1v1h-1zm13 0h1v1h-1zm-45 1h1v1h-1zm15 0h1v1h-1zm-20 1h1v1h-1zm22 0h1v1h-1zm12 0h1v1h-1zm-22 1h1v1h-1zm32 1h1v1h-1zm-38 1h1v3h-1zm37 0h1v1h-1zm-14 1h1v1h-1zm14 0h1v1h-1zm6 0h1v1h-1zm-21 1h1v1h-1zm-22 1h1v1h-1zm21 0h1v1h-1zm14 0h1v1h-1zm-46 1h1v1h-1zm31 0h1v1h-1zm22 0h1v1h-1zm-24 2h1v1h-1zm15 0h1v1h-1zm-1 2h1v1h-1zm-38 1h1v1h-1zm-5 1h1v1h-1zm41 0h1v1h-1zm-1 1h1v1h-1zm-29 1h1v4h-1zm38 0h1v1h-1zm-48 1h1v1h-1zm23 0h1v1h-1zm-17 1h1v1h-1zm15 1h1v1h-1zm15 0h1v1h-1zm-26 1h1v1h-1zm11 0h1v1h-1zm-19 1h1v1h-1zm6 0h1v1h-1zm12 0h1v1h-1zm24 0h1v1h-1zm-12 1h1v1h-1zm10 1h1v1h-1zm-13 1h1v1h-1zm-2 1h1v1h-1zm11 1h1v1h-1zm-1 1h1v1h-1zm-2 1h1v1h-1zm1 0h1v1h-1zm-2 1h1v1h-1zm-16 4h3v1h-3zm3 0h2v1h-2zm2 0h1v1h-1zm-9 1h1v1h-1zm-9 2h1v2h-1zm8 1h1v1h-1zm-8 1h1v1h-1zm8 0h1v1h-1zm-6 4h1v1h-1zm4 0h1v1h-1zm27 4h2v1h-2zm2 0h1v1h-1zm6 1h1v1h-1zm10 0h1v1h-1zm-4 2h1v1h-1zm-58 1h1v1h-1zm0 1h2v1h-2zm2 0h1v1h-1zm28 1h1v1h-1zm6 0h1v1h-1zm7 0h1v1h-1zm-14 1h1v1h-1zm7 0h1v1h-1zm11 0h1v1h-1zm-25 1h1v1h-1zm33 0h1v1h-1zm10 0h1v1h-1zm-43 3h1v1h-1zm34 0h1v1h-1zm-20 1h1v1h-1zm14 0h1v1h-1zm-14 1h1v1h-1zm26 0h1v1h-1zm-27 1h1v1h-1zm19 0h1v1h-1zm-56 1h1v1h-1zm39 0h1v1h-1zm16 0h1v1h-1zm-15 1h1v1h-1zm22 0h1v1h-1zm-31 1h1v1h-1zm10 0h1v1h-1zm5 2h2v1h-2zm2 0h1v1h-1zm-43 1h1v1h-1zm11 0h1v1h-1zm5 0h1v1h-1zm8 0h6v1h-6zm6 0h1v1h-1zm8 0h6v1h-6zm6 0h1v1h-1zm-27 1h1v1h-1zm34 1h1v1h-1zm-61 1h1v1h-1zm46 0h1v1h-1zm14 0h1v1h-1zm-28 1h1v1h-1zm39 0h1v1h-1zm-72 1h1v1h-1zm7 1h2v1h-2zm2 0h1v1h-1zm59 0h2v1h-2zm2 0h1v1h-1zm-64 1h1v1h-1zm7 0h2v1h-2zm27 0h1v1h-1zm31 0h1v1h-1zm-24 2h1v1h-1zm26 1h1v1h-1zm-58 1h1v1h-1zm7 0h1v1h-1zm22 0h1v1h-1zm-34 1h1v1h-1zm5 0h1v1h-1zm8 0h1v1h-1zm10 0h1v2h-1zm12 0h1v1h-1zm19 0h1v1h-1zm-48 1h1v1h-1zm39 0h1v1h-1zm1 0h1v1h-1zm17 0h1v1h-1zm-40 1h1v1h-1zm27 0h1v1h-1zm-43 1h1v1h-1zm-14 2h1v1h-1zm2 1h1v1h-1zm5 0h1v1h-1zm28 0h1v1h-1zm4 0h1v1h-1zm21 0h1v1h-1zm5 0h1v1h-1z" fill="#ce1123"/><path d="M52 34h1v1h-1zm-1 4h1v1h-1zm43 1h1v1h-1zm-36 2h1v1h-1zm40 1h1v1h-1zm-20 7h1v1h-1zm-32 1h1v1h-1zm51 1h1v1h-1zM53 67h1v1h-1zm4 0h1v1h-1zm30 0h1v1h-1zm-1 1h1v1h-1zm-4 3h1v1h-1zm-3 2h1v1h-1zm-7 3h1v1h-1zM56 86h1v1h-1zm-7 8h1v12h-1zm7 2h1v1h-1zm-13 1h1v1h-1zm38 1h1v1h-1zm-4 1h1v1h-1zm0 3h1v1h-1zm4 1h1v1h-1zm-42 2h1v1h-1zm48 0h1v1h-1zm-38 1h1v1h-1zm25 0h1v1h-1zm-38 2h1v1h-1zm39 0h1v1h-1zm-15 5h1v1h-1zm-26 2h1v1h-1zm19 2h1v1h-1zm18 3h1v1h-1zm1 0h1v1h-1zm-20 1h1v1h-1zm46 0h1v1h-1zm-58 4h1v1h-1zm1 0h1v1h-1zm16 0h1v1h-1zm45 2h1v1h-1zm-46 1h1v1h-1zm1 0h1v1h-1zm41 0h1v1h-1z" fill="#f6d7d8"/><path d="M97 37h1v1h-1zm-11 6h1v1h-1zm-3 2h1v1h-1zm11 5h1v1h-1zm-30 6h1v1h-1zm23 4h1v1h-1zm-8 8h1v1h-1zm-23 1h1v1h-1zm13 4h1v1h-1zm-16 5h1v1h-1zm11 15h1v1h-1zm18 0h1v1h-1zm14 0h1v1h-1zm6 1h1v1h-1zm-69 1h1v11h-1zm37 1h1v1h-1zm18 1h1v1h-1zm-31 5h1v1h-1zm15 1h1v1h-1zm11 2h1v1h-1zm8 0h1v1h-1zm-58 1h1v1h-1zm7 2h1v1h-1zm24 0h1v1h-1zm24 0h1v1h-1zm-24 9h1v1h-1zm-28 2h1v2h-1zm41 1h1v1h-1zm-41 1h1v1h-1zm64 1h1v1h-1zm-40 1h1v1h-1zm44 0h1v1h-1zm-61 1h1v1h-1zm7 1h1v1h-1zm13 0h1v1h-1zm-1 1h1v1h-1zm-7 2h1v1h-1zm42 0h1v1h-1z" fill="#f2cbcd"/><path d="M89 41h1v1h-1zm-7 1h1v1h-1zm-33 1h1v1h-1zm10 1h1v1h-1zm25 0h1v1h-1zm-8 1h1v1h-1zm22 0h1v1h-1zm-50 2h1v1h-1zm-2 5h1v2h-1zm47 0h1v1h-1zm-47 2h1v1h-1zm27 0h1v1h-1zm18 1h1v1h-1zm-43 2h1v1h-1zm21 2h1v1h-1zm-11 2h1v1h-1zm7 4h1v1h-1zm13 4h1v1h-1zm-25 2h1v1h-1zm20 1h1v1h-1zm-19 3h1v1h-1zm5 2h1v1h-1zm-6 4h1v1h-1zm0 1h1v1h-1zm1 4h1v1h-1zm33 7h1v1h-1zm-43 1h1v1h-1zm20 0h1v1h-1zm9 0h1v1h-1zm14 2h1v1h-1zm-10 4h1v1h-1zm-37 1h2v1h-2zm2 0h2v1h-2zm2 0h1v1h-1zm29 0h1v1h-1zm4 0h1v1h-1zm23 3h1v1h-1zm-36 3h1v1h-1zm7 0h1v1h-1zm-34 6h1v1h-1zm38 0h1v1h-1zm6 1h1v13h-1zm-25 1h1v1h-1zm1 0h1v1h-1zm14 0h1v1h-1zm1 0h1v1h-1zm13 0h1v1h-1zm16 0h1v1h-1zm-7 1h1v1h-1zm3 0h1v1h-1zm-3 1h1v1h-1zm4 1h1v1h-1zm-25 2h1v1h-1zm-12 1h1v1h-1zm14 0h1v1h-1zm-4 1h1v1h-1zm-38 1h1v1h-1zm1 2h1v1h-1zm24 0h1v1h-1zm42 0h1v1h-1zm-65 1h1v1h-1zm46 1h1v1h-1z" fill="#fbeaeb"/><path d="M51 33h1v1h-1zm6 2h1v1h-1zm-4 2h1v1h-1zm38 0h1v1h-1zm-39 2h1v1h-1zm33 0h1v1h-1zm12 0h1v1h-1zm1 0h1v1h-1zm-47 2h1v1h-1zm29 0h1v1h-1zm13 0h1v1h-1zm-42 1h1v1h-1zm4 0h1v2h-1zm-9 1h1v1h-1zm0 1h1v1h-1zm9 0h1v1h-1zm20 0h1v1h-1zm-14 1h1v1h-1zm13 0h1v1h-1zm11 0h1v1h-1zm10 1h1v1h-1zm-50 1h1v1h-1zm37 0h1v1h-1zm-20 1h1v1h-1zm19 0h1v1h-1zm-1 1h1v1h-1zm19 0h1v1h-1zm-36 2h1v1h-1zm29 0h1v1h-1zm-47 1h1v1h-1zm19 2h1v1h-1zm11 0h1v1h-1zm15 0h1v1h-1zm-41 2h1v1h-1zm47 1h1v1h-1zm-51 1h1v1h-1zm42 0h1v1h-1zm-37 1h1v1h-1zm21 0h1v1h-1zm-25 2h1v1h-1zm5 0h1v1h-1zm0 1h1v1h-1zm-4 1h1v1h-1zm21 0h1v1h-1zm-15 2h1v1h-1zm38 0h1v1h-1zm-36 2h1v1h-1zm34 0h1v1h-1zm-40 1h1v1h-1zm28 0h1v1h-1zm10 1h1v1h-1zm-23 1h1v2h-1zm10 0h1v1h-1zm-23 1h1v1h-1zm20 0h1v1h-1zm-7 1h3v1h-3zm3 0h2v1h-2zm2 0h1v1h-1zm-16 1h1v1h-1zm25 2h1v1h-1zm-5 2h1v1h-1zm1 0h1v1h-1zM33 92h1v1h-1zm5 0h1v1h-1zm6 0h1v1h-1zm5 0h1v1h-1zm3 0h1v1h-1zm9 0h1v1h-1zm20 0h1v1h-1zm8 0h1v1h-1zm-46 1h1v1h-1zm48 0h1v1h-1zm10 0h1v1h-1zm-26 1h1v1h-1zm-33 1h1v1h-1zm58 0h1v1h-1zm7 0h1v1h-1zm-46 2h1v1h-1zm24 0h1v1h-1zm-27 1h2v1h-2zm2 0h1v1h-1zm10 0h1v1h-1zm20 0h1v1h-1zm4 0h1v1h-1zm-25 1h1v1h-1zm13 0h1v3h-1zm-20 1h1v1h-1zm0 1h1v1h-1zm34 0h1v1h-1zm-14 1h1v1h-1zm21 0h1v1h-1zm-46 1h1v1h-1zm4 1h1v1h-1zm24 0h1v1h-1zm16 1h1v1h-1zm-57 1h1v2h-1zm-6 2h1v1h-1zm0 3h4v1h-4zm4 0h1v1h-1zm13 0h3v1h-3zm3 0h1v1h-1zm39 0h4v1h-4zm4 0h1v1h-1zm-65 1h1v1h-1zm16 0h1v1h-1zm9 0h1v1h-1zm29 0h1v1h-1zm5 0h1v1h-1zm8 0h1v1h-1zm-40 2h1v1h-1zm-15 1h1v1h-1zm31 0h1v1h-1zm-31 1h1v1h-1zm45 0h1v1h-1zm-51 1h1v1h-1zm5 0h1v4h-1zm8 0h1v1h-1zm3 0h1v1h-1zm14 0h1v1h-1zm14 0h1v1h-1zm-55 1h1v1h-1zm13 0h1v1h-1zm10 0h1v1h-1zm39 2h1v1h-1zm-46 1h1v1h-1zm-16 1h1v1h-1zm28 0h1v1h-1zm36 0h1v1h-1zm1 0h1v1h-1zm-58 1h1v1h-1zm8 0h1v1h-1zm-6 1h1v1h-1zm1 0h1v1h-1zm15 0h1v1h-1zm1 0h1v1h-1zm20 0h1v1h-1zm9 0h1v1h-1zm11 0h1v1h-1zm-49 1h1v1h-1zm30 0h1v1h-1zm27 0h1v1h-1zm-72 1h1v1h-1zm39 0h1v1h-1zm20 0h1v1h-1zm-13 1h1v1h-1zm-43 1h1v1h-1zm37 0h1v1h-1zm30 0h1v1h-1zm-65 1h1v1h-1zm5 0h1v1h-1zm11 0h1v1h-1zm13 0h2v1h-2zm2 0h1v1h-1zm6 0h3v1h-3zm3 0h1v1h-1zm3 0h3v1h-3zm3 0h1v1h-1zm12 0h1v1h-1zm5 0h1v1h-1z" fill="#ce081e"/><path d="M53 35h1v1h-1zm29 6h1v1h-1zm9 0h1v1h-1zm-2 1h1v1h-1zm-18 1h1v1h-1zm28 1h1v1h-1zm-43 1h1v1h-1zm28 0h1v1h-1zm-23 2h1v1h-1zm19 1h1v1h-1zm-23 4h1v1h-1zm30 7h1v1h-1zm6 2h1v1h-1zm-36 1h1v1h-1zm6 15h1v1h-1zm-11 4h1v1h-1zm0 1h1v1h-1zm6 1h1v1h-1zm-4 4h1v1h-1zm38 9h1v1h-1zm-50 2h1v1h-1zm54 5h1v1h-1zm-52 1h1v1h-1zm57 0h1v1h-1zm-31 3h1v1h-1zm-11 5h1v1h-1zm19 3h1v1h-1zm14 0h1v1h-1zm-6 1h1v1h-1zm-43 1h1v1h-1zm-6 1h1v1h-1zm11 0h1v1h-1zm-6 6h1v1h-1zm30 1h1v1h-1zm21 0h1v1h-1zm-56 3h1v1h-1zm58 0h1v1h-1z" fill="#da5e65"/><path d="M52 36h1v1h-1zm3 1h1v1h-1zm14 1h1v1h-1zm20 1h1v1h-1zm-3 1h1v1h-1zm6 0h1v1h-1zm-42 1h1v1h-1zm6 1h1v1h-1zm25 0h1v1h-1zm-22 1h1v1h-1zm-12 1h2v1h-2zm2 0h1v1h-1zm48 0h1v1h-1zm-23 2h1v1h-1zm18 7h1v1h-1zm-2 3h1v1h-1zm-4 5h1v1h-1zm-36 1h1v1h-1zm41 1h1v1h-1zm-11 4h1v1h-1zm-26 1h1v1h-1zm1 1h1v1h-1zm30 0h1v1h-1zm-9 1h1v1h-1zm5 2h1v1h-1zm-23 9h1v1h-1zm-9 12h1v1h-1zm3 1h1v13h-1zm8 2h1v1h-1zm18 0h1v1h-1zm16 0h1v1h-1zm10 2h1v1h-1zm-67 2h1v1h-1zm3 0h1v1h-1zm48 4h1v1h-1zm8 0h1v1h-1zm-53 2h1v1h-1zm27 0h1v1h-1zm-18 1h1v1h-1zm38 0h1v1h-1zm-41 1h1v1h-1zm12 0h1v1h-1zm-21 4h1v1h-1zm54 3h1v1h-1zm6 0h1v1h-1zm-54 1h1v1h-1zm-9 1h1v1h-1zm37 0h1v1h-1zm4 0h1v1h-1zm14 1h1v1h-1zm3 2h1v1h-1zm-42 3h1v1h-1zm6 1h1v1h-1zm13 0h1v1h-1zm32 0h1v1h-1zm-4 4h1v1h-1z" fill="#f0bec0"/><path d="M56 36h1v1h-1zm-6 1h1v1h-1zm-1 2h1v1h-1zm22 0h1v1h-1zm0 3h1v1h-1zm8 1h1v1h-1zm-22 4h1v1h-1zm41 0h1v1h-1zm-52 2h2v1h-2zm2 0h1v1h-1zm23 8h1v1h-1zm-20 7h1v1h-1zm15 0h1v1h-1zM54 74h1v1h-1zm5 4h1v1h-1zm2 15h1v1h-1zm10 0h1v1h-1zm17 0h1v1h-1zm-8 1h1v1h-1zm11 1h1v1h-1zm-16 2h1v1h-1zm24 0h1v1h-1zm-24 1h1v1h-1zm-37 4h1v1h-1zm3 0h1v1h-1zm31 0h1v1h-1zm17 2h1v1h-1zm-11 1h1v1h-1zm20 3h1v1h-1zm5 6h1v1h-1zm1 8h1v1h-1zm-28 2h1v1h-1zm-30 2h1v1h-1zm-7 2h1v1h-1zm3 0h1v1h-1zm16 0h1v1h-1z" fill="#f1c6c8"/><path d="M95 37h1v1h-1zm-7 2h1v1h-1zm-3 1h1v1h-1zm-17 5h1v1h-1zm7 0h1v1h-1zm-4 3h1v1h-1zm-14 2h1v1h-1zm34 4h1v1h-1zm-18 1h1v1h-1zm-27 3h1v1h-1zm18 10h1v1h-1zm13 1h1v1h-1zm-11 4h1v1h-1zm-1 4h2v1h-2zm2 0h1v1h-1zm40 16h1v1h-1zm-68 2h1v1h-1zm54 0h1v1h-1zm5 0h1v1h-1zm-8 2h1v1h-1zm5 8h1v1h-1zm-52 2h1v1h-1zm46 1h1v1h-1zm8 4h1v1h-1zm-52 1h1v1h-1zm-3 3h1v1h-1zm16 0h1v1h-1zm29 0h1v1h-1zm-27 2h1v1h-1zm40 0h1v1h-1zm-52 3h1v1h-1zm37 2h1v1h-1zm-21 1h1v1h-1zm37 4h1v1h-1z" fill="#e2858a"/><path d="M68 38h1v1h-1zm27 1h1v1h-1zm-37 1h1v1h-1zm27 4h1v1h-1zm-25 1h1v1h-1zm33 6h1v1h-1zM52 65h1v1h-1zm1 7h1v1h-1zm10 1h1v1h-1zm-6 12h1v1h-1zm49 10h1v1h-1zm-50 2h1v1h-1zm0 1h1v1h-1zm-19 3h1v1h-1zm24 1h1v1h-1zm-17 1h1v1h-1zm12 1h1v1h-1zm45 8h1v1h-1zm-28 4h1v1h-1zm-25 4h1v1h-1zm48 4h1v1h-1zm-19 1h1v1h-1zm27 0h1v1h-1zm-37 3h1v1h-1zm3 0h1v1h-1zm14 0h1v1h-1z" fill="#e48d91"/></svg>