<svg xmlns="http://www.w3.org/2000/svg" role="img" viewBox="-3.02 -3.02 156.91 57.91"><title>Monetary Authority of Singapore logo</title><path d="M1 0h1v51H1zm0 51h1v1H1z" fill="#00003d"/><path d="M52 0h1v51h-1zm0 51h1v1h-1z" fill="#6d6f82"/><path d="M23 6h1v1h-1zm10 1h1v1h-1zm11 10h1v1h-1zm2 8h1v1h-1zm0 1h1v1h-1zm-2 8h1v1h-1z" fill="#292844"/><path d="M32 7h1v1h-1zM16 9h1v1h-1zM7 22h1v1H7zm0 7h1v1H7zm34 9h1v1h-1zm-2 2h1v1h-1zm-23 2h1v1h-1z" fill="#614f3a"/><path d="M15 10h1v1h-1zm-4 27h1v1h-1zm11 7h1v1h-1z" fill="#92752a"/><path d="M8 19h1v1H8zm-1 4h1v1H7zm0 5h1v1H7zm1 4h1v1H8zm2 4h1v1h-1zm26 6h1v1h-1zm-2 1h1v1h-1zm-13 1h1v1h-1z" fill="#786133"/><path d="M118 32h1v1h-1zm28 0h1v1h-1zm-28 13h1v1h-1z" fill="#8c6100"/><path d="M23 7h6v1h-6zm6 0h1v1h-1zm-9 1h1v1h-1zm12 0h1v1h-1zm1 0h1v1h-1zM17 9h1v1h-1zm1 0h1v1h-1zm17 0h1v1h-1zm-19 1h1v1h-1zm-3 2h1v1h-1zm-1 1h1v1h-1zm29 1h1v1h-1zm2 3h1v1h-1zM9 18h1v1H9zm34 0h1v1h-1zM8 22h1v1H8zm0 7h1v1H8zm1 4h1v1H9zm34 0h1v1h-1zm0 1h1v1h-1zm-32 2h1v1h-1zm30 1h1v1h-1zm-28 2h1v1h-1zm3 2h1v1h-1zm1 1h1v1h-1zm1 0h1v1h-1zm6 2h4v1h-4zm4 0h1v1h-1z" fill="#a28024"/><path d="M31 7h1v1h-1zM9 17h1v1H9zm36 5h1v1h-1zM7 25h1v1H7zm0 1h1v1H7zm38 3h1v1h-1zM9 34h1v1H9zm6 7h1v1h-1z" fill="#8a6e2d"/><path d="M38 11h1v1h-1zm1 1h1v1h-1zm1 1h1v1h-1zm-30 3h1v1h-1zm34 4h1v1h-1zM8 21h1v1H8zm0 9h1v1H8zm36 1h1v1h-1zm-34 4h1v1h-1zm30 3h1v1h-1zm-1 1h1v1h-1zm-1 1h1v1h-1zm-3 2h1v1h-1zm-15 1h1v1h-1z" fill="#a68323"/><path d="M21 18h1v1h-1zm4 0h1v1h-1zm15 0h1v1h-1zm-15 1h1v1h-1zm-4 4h1v1h-1zm16 0h1v1h-1zm2 1h1v1h-1zm-25 2h1v4h-1zm6 1h1v1h-1zm6 0h1v1h-1zm7 2h1v1h-1zm30 0h1v1h-1zm6 0h1v1h-1zm-55 1h1v1h-1zm20 1h1v1h-1zm109 0h1v1h-1zm-62 1h1v1h-1zm11 0h1v1h-1zm10 0h1v1h-1zm41 0h1v1h-1zM39 33h1v1h-1zm36 0h1v1h-1zm68 3h1v1h-1zm-69 8h1v1h-1zm3 2h1v1h-1z" fill="#a28234"/><path d="M16 19h1v1h-1zm15 0h1v1h-1zm-19 1h1v1h-1zm12 1h1v9h-1zm3 1h1v1h-1zm-13 1h1v1h-1zm24 0h1v1h-1zm-19 1h1v1h-1zm15 0h1v1h-1zm-13 2h1v4h-1zm-3 1h1v1h-1zm15 0h1v1h-1zm9 0h1v1h-1zm-22 1h1v1h-1zm8 0h1v1h-1zm1 0h1v1h-1zm4 0h1v1h-1zm9 0h1v1h-1zm-21 2h1v1h-1zm3 0h1v1h-1zm1 0h2v1h-2zm2 0h1v1h-1zm3 0h1v1h-1zm0 1h1v1h-1zm7 0h1v1h-1zm-21 1h1v1h-1zm3 0h1v1h-1zm81 0h1v1h-1zm11 0h1v1h-1zm25 0h1v1h-1zM35 33h1v1h-1zm27 12h1v1h-1zm24 0h1v2h-1zm19 1h1v1h-1zm-19 1h1v1h-1zm19 0h1v1h-1z" fill="#987400"/><path d="M17 26h1v1h-1zm11 1h1v1h-1zm1 0h1v1h-1zm-10 1h1v1h-1zm122 1h1v1h-1zm-56 2h1v1h-1zm8 0h1v1h-1zm39 0h1v1h-1zM14 32h1v1h-1zm7 0h1v1h-1zm58 0h1v1h-1zm31 0h1v1h-1zm25 0h1v1h-1zm4 0h2v1h-2zm2 0h1v3h-1zm-49 1h1v1h-1zm46 0h1v1h-1zm-71 1h1v1h-1zm9 0h1v1h-1zm10 0h1v1h-1zm18 1h1v1h-1zm37 0h1v1h-1zm-28 1h1v1h-1zm4 0h1v1h-1zm16 1h1v1h-1zm14 2h1v1h-1zm-72 1h1v1h-1zm71 0h1v1h-1zm-81 3h1v1h-1zm19 0h2v1h-2zm2 0h1v1h-1zm-7 1h1v1h-1zm35 0h1v1h-1zm3 0h1v1h-1zm-38 4h1v1h-1zm-10 1h1v1h-1zm16 0h1v1h-1zm21 0h1v1h-1zm11 0h1v1h-1zm-27 2h1v1h-1z" fill="#e3dbca"/><path d="M0 0h1v51H0zm0 51h1v1H0z" fill="#9a9ca8"/><g fill="#fff"><path d="M53 0h97v28H53zm97 0h1v30h-1zM14 19h1v1h-1zm8 0h1v1h-1zm18 0h1v1h-1zm-11 1h1v1h-1zm-14 1h1v1h-1zm15 0h1v3h-1zm5 0h1v2h-1zm-20 1h1v1h-1zm20 1h1v1h-1zm-19 1h1v1h-1zm14 0h1v1h-1zm6 0h1v1h-1zm1 0h1v1h-1zm-21 1h1v1h-1zm15 0h1v3h-1zm6 0h1v1h-1zm1 0h1v1h-1zm1 1h1v1h-1zm1 0h1v1h-1zm0 1h1v1h-1zm-23 1h1v1h-1zm14 0h1v1h-1zm10 0h1v1h-1zm12 0h97v1H53zm-36 1h1v1h-1zm24 0h1v1h-1zm12 0h8v22h-8zm8 0h1v16h-1zm4 0h2v1h-2zm2 0h1v1h-1zm5 0h37v1H72zm37 0h1v1h-1zm3 0h10v1h-10zm10 0h1v1h-1zm4 0h13v1h-13zm13 0h1v1h-1zm3 0h8v1h-8zM18 30h1v1h-1zm14 0h1v1h-1zm33 0h2v1h-2zm2 0h1v1h-1zm4 0h17v1H71zm17 0h21v1H88zm21 0h1v1h-1zm3 0h7v1h-7zm7 0h1v6h-1zm3 0h1v1h-1zm1 0h1v5h-1zm3 0h13v1h-13zm13 0h1v1h-1zm3 0h1v1h-1zm3 0h5v1h-5zm5 0h1v1h-1zM32 31h1v1h-1zm3 0h1v1h-1zm31 0h1v2h-1zm5 0h1v1h-1zm1 0h1v1h-1zm3 0h1v1h-1zm7 0h1v5h-1zm1 0h1v1h-1zm8 0h1v1h-1zm4 0h1v1h-1zm12 0h1v5h-1zm1 0h1v3h-1zm4 0h1v1h-1zm4 0h1v5h-1zm12 0h2v1h-2zm2 0h1v1h-1zm3 0h1v1h-1zm1 0h1v1h-1zm7 0h1v1h-1zm-70 1h1v1h-1zm5 0h1v1h-1zm17 0h1v1h-1zm3 0h1v4h-1z"/><path d="M106 32h2v4h-2zm7 0h1v3h-1zm16 0h1v1h-1zm5 0h1v1h-1zm14 0h1v1h-1zm-82 1h2v1h-2zm2 0h1v1h-1zm5 0h1v3h-1zm1 0h1v3h-1zm5 0h1v3h-1zm6 0h1v3h-1zm3 0h2v1h-2zm2 0h1v3h-1zm3 0h1v3h-1zm6 0h2v3h-2zm2 0h1v4h-1zm9 0h1v9h-1zm12 0h1v3h-1zm4 0h1v3h-1zm3 0h1v1h-1zm3 0h1v3h-1zm7 0h1v3h-1zm3 0h1v3h-1zm3 0h1v2h-1zm5 0h1v18h-1zm-82 1h1v2h-1zm20 0h1v9h-1zm3 0h1v1h-1z"/><path d="M105 34h3v2h-3zm3 0h1v1h-1zm29 0h2v2h-2zm-73 1h1v1h-1zm22 0h2v1h-2zm27 0h1v1h-1zm10 0h1v1h-1zm22 0h1v1h-1zm4 0h1v16h-1zm-85 1h1v6h-1zm4 0h1v4h-1zm3 0h3v4h-3zm3 0h2v3h-2zm2 0h1v3h-1zm3 0h1v4h-1zm3 0h1v6h-1zm3 0h1v6h-1zm5 0h1v6h-1zm3 0h1v7h-1zm3 0h1v6h-1zm3 0h2v2h-2zm6 0h2v6h-2zm2 0h1v6h-1zm4 0h1v6h-1zm5 0h1v6h-1zm3 0h1v15h-1zm3 0h1v15h-1zm4 0h1v15h-1zm3 0h1v15h-1zm3 0h1v15h-1zm5 0h2v15h-2zm2 0h1v15h-1zm3 0h1v15h-1zm4 0h1v2h-1zm-63 1h1v5h-1zm4 0h1v11h-1zm14 0h1v1h-1z"/><path d="M102 37h4v1h-4zm18 0h1v14h-1zm14 0h1v14h-1zm-72 1h38v1H62zm38 0h2v1h-2z"/><path d="M102 38h42v1h-42zm42 0h2v1h-2zm2 0h4v1h-4zm-84 1h37v1H62zm37 0h1v3h-1zm5 0h40v3h-40zm40 0h1v12h-1zm4 0h2v12h-2zm-86 1h6v2h-6zm6 0h1v1h-1zm3 0h3v1h-3zm3 0h1v1h-1z"/><path d="M78 40h22v1H78zm22 0h1v2h-1zm3 0h41v2h-41zm44 0h3v11h-3zm-75 1h1v10h-1zm6 0h1v1h-1z"/><path d="M81 41h69v1H81zm-19 1h5v1h-5zm5 0h1v6h-1zm8 0h1v1h-1zm1 0h1v1h-1zm5 0h69v1H81zm-19 1h1v1h-1zm4 0h1v1h-1zm4 0h2v8h-2zm5 0h2v1h-2zm2 0h1v1h-1zm11 0h1v1h-1zm5 0h1v2h-1zm16 0h1v1h-1zm12 0h29v8h-29zm-57 1h1v4h-1zm13 0h1v1h-1zm1 0h1v1h-1zm3 0h1v4h-1zm9 0h1v1h-1zm5 0h1v1h-1zm6 0h1v4h-1zm6 0h1v3h-1zm9 0h1v1h-1zm-55 1h1v6h-1zm13 0h1v2h-1zm4 0h1v1h-1zm6 0h1v3h-1zm6 0h1v1h-1zm8 0h1v3h-1zm-23 1h1v2h-1zm1 0h1v1h-1zm16 0h1v1h-1zm20 0h1v1h-1zm1 0h1v5h-1z"/><path d="M74 47h2v1h-2zm2 0h1v1h-1zm13 0h3v1h-3zm3 0h1v1h-1zm3 0h1v1h-1zm9 0h1v4h-1zm3 0h1v1h-1zm5 0h1v1h-1zm4 0h1v1h-1zm1 0h33v1h-33zm-53 1h1v3h-1zm3 0h1v3h-1zm8 0h1v3h-1zm3 0h1v3h-1zm3 0h1v3h-1zm3 0h1v3h-1zm3 0h1v3h-1zm8 0h1v3h-1zm3 0h1v2h-1zm3 0h1v2h-1zm-39 1h1v2h-1zm4 0h1v2h-1zm27 0h1v2h-1z"/><path d="M103 49h2v2h-2zm2 0h1v2h-1zm4 0h1v2h-1zm5 0h1v2h-1zm4 0h32v2h-32zm-55 1h24v1H63zm26 0h2v1h-2zm2 0h7v1h-7zm7 0h1v1h-1z"/><path d="M101 50h49v1h-49zm-48 1h34v1H53zm34 0h1v1h-1zm6 0h4v1h-4zm4 0h1v1h-1zm5 0h48v1h-48zm48 0h1v1h-1z"/></g><path d="M36 8h1v1h-1zm5 4h1v1h-1zM8 17h1v1H8zm38 5h1v1h-1zM6 25h1v1H6zm0 1h1v1H6zm40 3h1v1h-1zM8 34h1v1H8zm33 5h1v1h-1zm-5 4h1v1h-1zm-14 2h1v1h-1zm8 0h1v1h-1z" fill="#000c49"/><path d="M29 18h1v1h-1zm10 0h1v1h-1zm-18 1h1v1h-1zm3 0h1v1h-1zm17 1h1v1h-1zm-13 1h1v1h-1zm13 0h1v1h-1zm-20 1h1v1h-1zm8 0h2v1h-2zm2 0h1v1h-1zm-3 2h1v1h-1zm-9 2h1v1h-1zm-3 2h1v1h-1zm95 2h1v1h-1zm-96 2h1v1h-1zm79 0h1v1h-1zm31 0h1v1h-1zm-42 1h1v1h-1zm45 0h1v3h-1zm-30 1h1v1h-1zm36 0h1v1h-1zm-50 2h1v1h-1zm10 0h1v1h-1zm34 0h1v1h-1zm-51 1h1v1h-1zm7 0h1v1h-1zm13 0h1v1h-1zm1 0h1v1h-1zm10 0h1v1h-1zm13 0h1v1h-1zm6 0h1v1h-1zm17 0h1v1h-1zm-52 6h1v1h-1zm10 0h1v1h-1zm11 0h1v1h-1zm-51 1h1v1h-1zm35 0h2v1h-2zm2 0h1v6h-1zm-3 1h1v1h-1zm-5 1h1v1h-1zm18 0h1v1h-1zm-32 1h1v1h-1zm16 0h1v1h-1zm10 1h2v1h-2zm2 0h1v1h-1zm-6 2h1v1h-1z" fill="#c5b38d"/><path d="M37 18h1v1h-1zm1 0h1v1h-1zm1 1h1v1h-1zm-26 1h1v1h-1zm1 1h1v1h-1zm2 1h1v1h-1zm23 5h1v1h-1zm-20 2h1v1h-1zm16 0h1v1h-1zm-2 2h1v1h-1zm-3 1h1v1h-1zm47 0h1v1h-1zm18 0h1v1h-1zm35 0h1v1h-1zm-44 1h1v1h-1zm11 0h1v3h-1zm30 0h1v3h-1zm-43 1h1v1h-1zm8 0h2v1h-2zm2 0h1v1h-1zm4 1h1v1h-1zm-1 1h1v1h-1zm1 0h1v1h-1zm29 0h1v1h-1zm-65 1h1v1h-1zm1 0h1v1h-1zm7 0h1v1h-1zm16 0h1v1h-1zm3 0h1v1h-1zm36 0h1v1h-1zm6 0h1v1h-1zm4 0h1v1h-1zm6 0h1v1h-1zm-68 5h1v1h-1zm23 1h1v1h-1zm21 0h1v1h-1zm-41 1h1v1h-1zm20 0h1v1h-1zm-21 1h1v1h-1zm25 0h1v2h-1zm9 0h1v1h-1zm-44 2h1v1h-1zm8 0h1v1h-1zm15 0h1v2h-1zm12 0h1v2h-1zm-37 1h1v1h-1zm39 0h1v1h-1zm-14 1h1v1h-1zm12 0h1v1h-1z" fill="#d0c2a3"/><path d="M23 19h1v1h-1zm7 1h1v1h-1zm-8 1h1v2h-1zm7 0h1v1h-1zm-14 2h1v1h-1zm7 0h1v1h-1zm9 1h1v1h-1zm-14 3h1v1h-1zm10 0h1v1h-1zm-10 3h1v1h-1zm45 0h1v1h-1zm8 0h1v6h-1zm50 0h1v1h-1zM18 31h1v1h-1zm47 0h1v1h-1zm13 0h1v1h-1zm1 0h1v1h-1zm13 0h1v1h-1zm11 0h1v2h-1zm1 0h1v1h-1zm11 0h1v1h-1zm21 0h1v1h-1zm1 0h3v1h-3zm3 0h1v1h-1zm7 0h1v1h-1zm3 0h1v1h-1zM22 32h1v1h-1zm14 0h1v1h-1zm47 0h1v1h-1zm8 0h1v1h-1zm41 0h1v1h-1zm15 0h1v1h-1zm-56 1h1v1h-1zm12 0h2v1h-2zm2 0h1v1h-1zm12 0h1v2h-1zm3 0h1v3h-1zm15 0h1v3h-1zm-71 1h1v1h-1zm44 1h1v1h-1zm9 0h1v1h-1zm12 0h1v1h-1zm-59 1h1v1h-1zm50 0h1v1h-1zm11 0h1v1h-1zm3 0h1v1h-1zm1 0h1v1h-1zm13 1h1v1h-1zm-48 2h1v1h-1zm3 0h1v1h-1zm-33 1h1v1h-1zm75 0h1v1h-1zm-69 1h1v1h-1zm22 2h1v1h-1zm-29 1h1v3h-1zm15 0h1v1h-1zm25 0h1v1h-1zm1 0h1v1h-1zm-25 1h1v2h-1zm17 0h1v2h-1zm-9 1h1v1h-1zm-24 1h1v1h-1zm16 0h1v1h-1zm17 0h1v1h-1zm-26 1h1v1h-1zm40 0h1v1h-1zm1 0h1v1h-1zm-9 1h1v1h-1zm7 0h1v1h-1zm-14 2h1v1h-1z" fill="#f6f3ee"/><path d="M36 19h1v1h-1zm-20 4h1v1h-1zm20 0h1v1h-1zm2 3h1v1h-1zm-6 2h1v1h-1zm-1 1h1v1h-1zm110 1h1v1h-1zm3 0h1v1h-1zm-82 1h1v5h-1zm15 0h1v1h-1zm9 0h2v1h-2zm2 0h2v1h-2zm2 0h1v1h-1zm10 0h2v1h-2zm2 0h1v1h-1zm3 0h1v1h-1zm9 0h1v1h-1zm3 0h1v1h-1zm1 0h1v1h-1zm4 0h1v1h-1zm13 0h1v1h-1zm10 0h1v1h-1zm1 0h1v1h-1zm3 0h1v1h-1zM13 32h1v1h-1zm10 0h1v1h-1zm10 0h1v1h-1zm40 0h1v1h-1zm15 0h2v1h-2zm2 0h1v1h-1zm14 0h1v1h-1zm5 0h1v1h-1zm3 0h1v1h-1zm10 0h1v1h-1zm4 0h1v1h-1zm19 0h1v1h-1zm-69 1h1v1h-1zm-10 1h1v1h-1zm63 0h1v1h-1zm-18 1h1v1h-1zm-49 1h1v1h-1zm82 0h1v1h-1zm1 0h1v1h-1zm-54 1h1v1h-1zm54 0h1v1h-1zm-76 4h2v1h-2zm2 0h1v1h-1zm9 1h1v1h-1zm35 1h1v1h-1zm-30 1h1v1h-1zm-22 1h1v2h-1zm32 1h1v1h-1zm-32 1h1v1h-1zm3 1h1v1h-1zm3 0h1v1h-1zm16 0h1v1h-1zm25 0h1v1h-1zm-45 1h1v1h-1zm25 0h1v1h-1zm1 0h1v1h-1zm1 2h1v1h-1zm6 0h1v1h-1z" fill="#f2eee5"/><path d="M21 21h1v1h-1zm7 1h1v1h-1zm0 1h1v1h-1zm3 0h1v1h-1zm4 1h1v1h-1zm-8 2h1v1h-1zm-8 1h1v1h-1zm-1 2h1v1h-1zm8 0h1v1h-1zm38 0h1v1h-1zm46 0h1v1h-1zm-79 1h1v1h-1zm-14 1h1v1h-1zm23 0h1v1h-1zm23 0h1v1h-1zm5 0h1v1h-1zm12 0h1v1h-1zm64 0h1v1h-1zM18 32h1v1h-1zm6 0h1v1h-1zm3 0h1v1h-1zm10 0h3v1h-3zm3 0h1v1h-1zm27 0h1v1h-1zm13 0h1v1h-1zm19 0h1v1h-1zm32 0h1v1h-1zm6 0h1v1h-1zm7 0h1v1h-1zm-67 1h1v3h-1zm32 0h1v2h-1zm16 0h1v1h-1zm9 0h1v1h-1zm13 0h2v1h-2zm2 0h1v1h-1zm-45 1h1v1h-1zm42 0h1v1h-1zm-75 1h1v1h-1zm13 0h1v1h-1zm10 0h1v1h-1zm8 0h1v1h-1zm7 0h1v1h-1zm39 0h1v1h-1zm-71 1h1v1h-1zm31 0h1v1h-1zm40 0h1v1h-1zm-68 1h2v1h-2zm43 0h1v1h-1zm20 0h1v1h-1zm4 0h1v1h-1zm-45 2h1v1h-1zm44 0h1v1h-1zm-77 1h1v1h-1zm7 0h1v1h-1zm3 1h1v2h-1zm-5 1h1v1h-1zm3 0h1v1h-1zm-8 1h1v1h-1zm10 0h1v1h-1zm1 0h1v1h-1zm3 0h1v1h-1zm6 0h2v1h-2zm2 0h1v1h-1zm3 0h1v1h-1zm1 0h1v1h-1zm15 0h1v1h-1zm-47 1h1v1h-1zm19 0h1v3h-1zm10 0h1v1h-1zm10 0h1v1h-1zm15 1h1v1h-1zm-35 2h1v2h-1zm-8 1h1v1h-1zm32 0h1v1h-1zm-38 1h1v1h-1zm6 0h2v1h-2zm2 0h1v1h-1zm3 0h1v1h-1zm1 0h3v1h-3zm3 0h1v1h-1zm3 0h1v1h-1zm3 0h1v1h-1zm8 0h1v1h-1zm5 0h1v1h-1zm5 0h1v1h-1zm3 0h1v1h-1zm1 0h1v1h-1zm-20 2h1v1h-1z" fill="#dfd5c1"/><path d="M21 24h1v1h-1zm3 7h1v1h-1zm78 2h1v1h-1zm-37 1h1v1h-1zm47 1h1v1h-1zm6 0h1v1h-1zm-29 1h1v1h-1zm29 0h1v1h-1zM68 48h1v1h-1zm18 0h1v1h-1zm3 0h2v1h-2zm2 0h1v1h-1z" fill="#916900"/><g fill="#9e7d26"><path d="M22 7h1v9h-1zm8 0h1v9h-1zM19 8h1v13h-1zm4 0h7v8h-7z"/><path d="M20 9h13v7H20zm13 0h1v11h-1z"/><path d="M17 10h18v6H17zm18 0h2v6h-2zm2 0h1v6h-1z"/><path d="M16 11h21v5H16z"/><path d="M14 12h24v4H14zm24 0h1v4h-1z"/><path d="M13 13h26v3H13zm26 0h1v3h-1z"/><path d="M11 14h29v2H11zm29 0h1v2h-1zm1 1h1v2h-1zm1 0h1v3h-1zm-31 1h30v1H11zm0 1h1v1h-1zm5 0h5v1h-5zm5 0h1v1h-1zm4 0h3v1h-3zm3 0h1v1h-1zm3 0h4v1h-4zm4 0h1v1h-1zm6 0h1v1h-1zm-31 1h1v15h-1zm7 0h3v2h-3zm3 0h1v1h-1zm6 0h1v5h-1zm1 0h1v1h-1zm5 0h2v2h-2zm2 0h1v1h-1zm8 0h1v1h-1zm-15 1h1v1h-1zm16 0h1v13h-1zm1 0h1v1h-1z"/><path d="M8 20h3v1H8zm3 0h1v11h-1zm5 0h3v1h-3zm9 0h1v7h-1zm7 0h1v1h-1zm1 0h1v1h-1zm5 0h1v2h-1zM9 21h2v10H9zm9 0h1v3h-1zm1 0h1v1h-1zm18 0h1v1h-1zm1 1h1v1h-1zm1 0h1v1h-1zm-13 1h1v1h-1zm16 0h3v2h-3zm3 0h1v1h-1zm-27 1h1v1h-1zm15 0h1v1h-1z"/><path d="M41 24h4v1h-4zm4 0h1v1h-1zm-31 1h1v1h-1zm19 0h1v1h-1zm1 0h1v2h-1zm8 0h2v1h-2zm2 0h1v3h-1zm-29 1h1v1h-1zm20 0h1v1h-1zm-10 1h1v1h-1zm9 0h2v1h-2zm2 0h1v1h-1zm9 0h1v1h-1zm-8 1h1v2h-1zm1 0h1v2h-1zm6 0h1v1h-1zm1 0h1v1h-1zm-16 1h1v2h-1zm-14 1h1v1h-1zm13 0h1v1h-1zm9 0h1v1h-1zm1 0h1v1h-1zm31 0h1v1h-1zM8 31h3v1H8zm3 0h1v4h-1zm17 0h1v12h-1zm1 0h1v12h-1zm40 0h1v1h-1zm-27 1h2v1h-2zm2 0h1v1h-1zm77 0h1v3h-1z"/><path d="M10 33h2v1h-2zm2 0h5v3h-5zm5 0h4v8h-4zm4 0h1v9h-1zm3 0h1v10h-1zm3 0h3v10h-3zm3 0h1v11h-1zm4 0h1v8h-1zm7 0h1v3h-1zm1 0h1v1h-1z"/><path d="M22 34h15v6H22zm15 0h5v2h-5zm5 0h1v2h-1zm94 0h1v2h-1z"/><path d="M11 35h30v1H11zm110 0h1v1h-1zM12 36h30v1H12zm30 0h1v1h-1zm70 0h1v1h-1zm24 0h1v1h-1zM13 37h27v1H13zm27 0h1v1h-1zm-27 1h26v1H13zm26 0h1v1h-1zm-25 1h24v1H14zm24 0h1v1h-1zm-22 1h21v1H16zm21 0h1v1h-1zm-20 1h18v1H17zm18 0h2v1h-2zm2 0h1v1h-1zm43 0h1v1h-1zm-61 1h14v1H19zm14 0h1v1h-1zm-14 1h1v1h-1zm3 0h8v1h-8zm8 1h1v1h-1zm81 2h1v1h-1zm0 1h1v1h-1zm4 1h1v1h-1z"/></g><path d="M34 7h1v1h-1zM16 8h1v1h-1zm-4 3h1v1h-1zm-3 4h1v1H9zm36 3h1v1h-1zm1 3h1v1h-1zM6 23h1v1H6zm0 5h1v1H6zm40 2h1v1h-1zM7 32h1v1H7zm38 1h1v1h-1zM9 36h1v1H9zm6 6h1v1h-1zm3 2h1v1h-1zm16 0h1v1h-1zm-13 1h1v1h-1z" fill="#001248"/><path d="M12 17h2v1h-2zm2 0h1v1h-1zm8 0h2v1h-2zm2 0h1v1h-1zm6 0h1v1h-1zm-19 1h1v1h-1zm5 0h1v1h-1zm15 0h1v1h-1zm10 0h1v1h-1zm-30 1h1v1h-1zm17 0h1v1h-1zm14 0h1v1h-1zm-15 1h1v1h-1zm10 0h1v1h-1zm-20 1h1v1h-1zm15 0h1v1h-1zm1 0h1v1h-1zm6 0h1v1h-1zm-20 1h1v1h-1zm14 0h1v1h-1zm-7 2h1v1h-1zm6 1h1v1h-1zm1 1h1v1h-1zm9 0h1v1h-1zm-17 2h1v1h-1zm-10 1h1v1h-1zm24 0h1v1h-1zm3 0h1v1h-1zm-3 1h1v1h-1zm82 1h1v1h-1zm-99 2h1v1h-1zm1 0h1v1h-1zm3 0h1v1h-1zm7 0h1v1h-1zm48 1h1v1h-1zm49 0h1v1h-1zm-49 1h1v1h-1zm20 4h1v1h-1zm-18 5h1v1h-1z" fill="#9c7a1c"/><path d="M12 18h2v1h-2zm2 0h1v1h-1zm8 0h1v1h-1zm1 0h1v1h-1zm7 0h1v1h-1zm-18 1h1v1h-1zm23 0h1v1h-1zm6 0h1v1h-1zm-26 6h1v1h-1zm5 1h1v1h-1zm43 4h1v1h-1zm-43 2h1v1h-1zm52 0h1v1h-1zm12 0h2v1h-2zm2 0h1v1h-1zm9 1h1v3h-1zm3 0h1v1h-1zm-20 1h1v2h-1zm33 0h1v1h-1zm22 0h1v1h-1zm-67 1h1v1h-1zm67 0h1v1h-1zm-67 1h1v1h-1zm12 0h1v1h-1zm17 0h1v1h-1zm-26 1h1v1h-1zm49 0h1v1h-1zm6 0h1v1h-1zm12 0h1v1h-1zm4 0h1v1h-1zm-75 7h1v1h-1zm1 1h1v1h-1zm7 3h1v1h-1zm23 0h1v1h-1zm1 0h1v1h-1zm2 3h1v1h-1z" fill="#b9a270"/><path d="M15 19h1v1h-1zm15 0h1v1h-1zm-16 1h1v1h-1zm9 0h1v11h-1zm17 0h1v1h-1zm-24 7h1v1h-1zm25 0h1v1h-1zm27 2h1v1h-1zm-45 2h1v1h-1zm50 0h1v1h-1zm54 0h1v1h-1zm-96 1h1v1h-1zm86 0h1v1h-1zm-3 1h1v2h-1zm-27 1h1v1h-1zm27 1h1v1h-1zm27 1h1v1h-1zm-24 1h1v1h-1zm-38 8h1v1h-1zm-16 4h1v1h-1zm49 0h1v1h-1zm-24 2h1v1h-1z" fill="#e5ded2"/><path d="M28 20h1v1h-1zm6 2h1v1h-1zm7 0h1v1h-1zm-7 7h1v1h-1zm30 1h1v2h-1zm57 0h1v1h-1zm-57 2h1v1h-1zm51 0h1v1h-1zm18 0h1v1h-1zm-46 1h1v1h-1zm53 0h1v3h-1zm-68 1h1v1h-1zm0 1h1v1h-1zm31 0h1v1h-1zm12 1h1v1h-1zm25 0h1v1h-1zm7 0h1v1h-1zm-73 7h1v1h-1zm34 1h1v1h-1zm5 0h1v1h-1zm5 0h1v1h-1zm-35 1h1v1h-1zm32 2h1v1h-1zm-21 1h1v1h-1z" fill="#ae9459"/><g fill="#131c47"><path d="M2 0h48v4H2zm48 0h1v51h-1zM2 4h48v1H2zm0 1h20v1H2zm20 0h1v1h-1zm8 0h20v1H30zM2 6h17v1H2zm17 0h1v1h-1zm15 0h16v1H34zM2 7h15v1H2zm15 0h2v1h-2zm2 0h1v1h-1zm17 0h14v1H36zM2 8h13v1H2zm13 0h1v1h-1zm22 0h13v1H37zM2 9h11v1H2zm11 0h1v1h-1zm26 0h11v1H39zM2 10h10v1H2zm10 0h1v1h-1zm28 0h10v1H40zM2 11h9v1H2zm9 0h1v1h-1zm30 0h9v1h-9zM2 12h8v2H2zm8 0h1v1h-1zm32 0h8v1h-8zm1 1h7v2h-7zM2 14h7v1H2zm7 0h1v1H9zm-7 1h6v2H2zm6 0h1v1H8zm35 0h7v1h-7zm2 1h5v1h-5zM2 17h5v3H2zm5 0h1v1H7zm39 0h4v2h-4zm0 2h4v1h-4zM2 20h4v31H2zm4 0h1v1H6zm41 0h3v4h-3zm0 4h3v1h-3zm1 1h2v26h-2z"/><path d="M47 27h3v24h-3zM6 31h1v20H6z"/><path d="M46 32h4v19h-4zM7 34h1v17H7z"/><path d="M45 35h5v16h-5zM8 36h1v15H8z"/><path d="M44 36h6v15h-6zM9 37h1v14H9z"/><path d="M43 38h7v13h-7zm-33 1h1v12h-1z"/><path d="M42 39h8v12h-8zm-31 1h1v11h-1z"/><path d="M41 40h9v11h-9zm-29 1h2v10h-2zm2 0h1v10h-1z"/><path d="M40 41h10v10H40z"/><path d="M37 42h13v9H37zm-22 1h1v8h-1zm1 1h1v7h-1zm1 0h1v7h-1zm16 0h1v7h-1z"/><path d="M36 44h14v7H36zm-18 1h1v6h-1zm1 0h1v6h-1zm4 0h1v6h-1z"/><path d="M34 45h16v6H34zm-14 1h3v5h-3z"/><path d="M29 46h21v5H29z"/><path d="M24 47h26v4H24zM2 51h48v1H2zm48 0h1v1h-1z"/></g><path d="M51 0h1v51h-1zm0 51h1v1h-1z" fill="#000d41"/><path d="M23 5h2v1h-2zm2 0h1v1h-1zm3 0h1v1h-1zm1 0h1v1h-1zm4 1h1v1h-1zm2 1h1v1h-1zM14 9h1v1h-1zm-4 4h1v1h-1zm0 1h1v1h-1zm-2 2h1v1H8zm37 1h1v1h-1zM7 18h1v2H7zm0 2h1v1H7zm39 0h1v1h-1zM6 21h1v1H6zm41 4h1v1h-1zm0 1h1v1h-1zM6 30h1v1H6zm40 1h1v1h-1zM7 33h1v1H7zm38 1h1v1h-1zM8 35h1v1H8zm35 1h1v1h-1zm-33 2h1v1h-1zm7 5h1v1h-1zm2 1h1v1h-1zm16 0h1v1h-1zm-15 1h1v1h-1zm4 1h4v1h-4zm4 0h1v1h-1z" fill="#0c1948"/><path d="M26 5h1v1h-1zm1 0h1v1h-1zm-7 1h1v1h-1zm10 0h2v1h-2zm2 0h1v1h-1zM15 9h1v1h-1zm23 0h1v1h-1zm-25 1h1v1h-1zm-2 2h1v1h-1zm34 7h1v1h-1zM6 22h1v1H6zm40 1h1v1h-1zm0 5h1v1h-1zM6 29h1v1H6zm1 2h1v1H7zm38 1h1v1h-1zm-35 5h1v1h-1zm33 0h1v1h-1zm-32 2h1v1h-1zm1 1h1v1h-1zm4 3h1v1h-1zm16 2h1v1h-1z" fill="#031648"/><path d="M29 6h1v1h-1zm-18 7h1v1h-1zm-4 8h1v1H7zm0 9h1v1H7zm4 8h1v1h-1zm24 5h1v1h-1zm-11 2h1v1h-1z" fill="#312e43"/><path d="M21 8h1v1h-1zm10 0h1v1h-1zm3 1h1v1h-1zm-20 2h1v1h-1zm1 0h1v1h-1zm-5 6h1v1h-1zm5 0h1v1h-1zm21 0h1v1h-1zm4 0h1v1h-1zM9 19h1v1H9zm35 2h1v1h-1zm-2 1h2v1h-2zm2 0h1v1h-1zM8 23h1v5H8zm19 0h1v1h-1zm6 0h1v1h-1zm6 0h2v1h-2zm2 0h1v1h-1zm-27 1h1v1h-1zm3 0h1v1h-1zm28 1h1v1h-1zm0 1h1v1h-1zM8 28h1v1H8zm22 0h1v1h-1zm6 0h1v1h-1zm-8 1h1v1h-1zm16 0h1v1h-1zm-24 1h1v1h-1zm24 0h1v1h-1zm-30 1h1v1h-1zm-5 1h1v1H9zm16 1h1v1h-1zm6 0h1v1h-1zm-21 1h1v1h-1zm2 3h1v1h-1zm0 1h1v1h-1zm2 2h1v1h-1zm1 0h1v1h-1zm19 2h1v1h-1zm-13 1h1v1h-1zm10 0h2v1h-2zm2 0h1v1h-1zm-10 1h1v1h-1zm6 0h1v1h-1z" fill="#a07e25"/><path d="M13 19h1v1h-1zm17 6h1v2h-1zm6 0h1v1h-1zm-6 2h1v1h-1zm81 2h1v1h-1zm12 0h2v1h-2zm2 0h1v2h-1zm-90 1h1v1h-1zm39 1h1v1h-1zm20 0h1v1h-1zm5 0h1v1h-1zm21 0h1v1h-1zm5 0h1v1h-1zm1 0h1v1h-1zm5 0h1v1h-1zM25 32h1v1h-1zm1 0h1v1h-1zm37 0h1v2h-1zm11 0h1v1h-1zm13 0h1v1h-1zm33 0h1v1h-1zm-49 1h1v1h-1zm73 0h1v2h-1zm-81 1h1v2h-1zm62 0h1v2h-1zm23 0h1v1h-1zm-72 1h1v1h-1zm68 0h1v1h-1zm-81 1h1v1h-1zm51 0h1v1h-1zm11 0h1v1h-1zm-31 1h1v1h-1zm7 3h1v1h-1zm1 0h1v1h-1zm6 3h1v1h-1zm4 0h1v1h-1zm-46 1h1v1h-1zm22 0h1v2h-1zm18 0h1v1h-1zm6 0h1v1h-1zm-17 1h1v1h-1zm21 0h1v1h-1zm-38 1h1v1h-1zm1 0h1v1h-1zm9 0h2v1h-2zm2 0h1v1h-1zm14 0h1v1h-1zm-26 1h1v1h-1zm1 0h1v1h-1z" fill="#eae4d7"/><path d="M21 6h1v1h-1zm1 0h1v1h-1zm17 4h1v1h-1zm1 1h1v1h-1zm2 2h1v1h-1zm2 3h1v1h-1zM6 24h1v1H6zm0 3h1v1H6zm38 8h1v1h-1zm-2 3h1v1h-1zm-2 2h1v1h-1zm-1 1h1v1h-1zm-8 4h1v1h-1z" fill="#000f49"/><path d="M15 18h1v1h-1zm21 2h1v2h-1zm-5 1h1v1h-1zm3 0h1v1h-1zm-20 1h1v1h-1zm22 0h1v1h-1zm-7 1h1v1h-1zm-10 2h1v1h-1zm-1 3h1v1h-1zm17 0h1v1h-1zm-1 2h1v1h-1zm-9 1h1v1h-1zm53 1h1v1h-1zm60 0h1v1h-1zM38 33h1v1h-1zm27 0h1v1h-1zm13 0h1v1h-1zm33 0h1v1h-1zm-36 1h1v1h-1zm17 1h1v1h-1zm2 9h1v2h-1zm21 0h1v1h-1zm-38 1h1v1h-1zm3 0h1v2h-1zm35 0h1v1h-1zm-49 1h1v1h-1zm28 0h1v1h-1zm-14 1h1v1h-1zm3 1h1v1h-1z" fill="#ab8f4d"/><path d="M24 18h1v1h-1zm16 3h1v1h-1zm-13 3h1v1h-1zm-10 1h1v1h-1zm23 0h1v1h-1zm-8 1h1v1h-1zm5 0h1v1h-1zm-11 2h1v1h-1zm1 0h1v1h-1zm113 1h1v1h-1zm-30 1h1v1h-1zm-79 1h1v1h-1zm79 0h1v1h-1zm-93 1h1v1h-1zm58 0h1v1h-1zm22 0h1v1h-1zm-6 4h1v1h-1zm-13 1h1v1h-1zm17 0h1v1h-1zm17 0h1v1h-1zm1 0h2v1h-2zm2 0h1v1h-1zm13 0h1v1h-1zm-31 8h1v2h-1zm11 0h1v2h-1zm-42 2h1v1h-1zm28 0h1v1h-1zm3 0h1v1h-1zm11 0h1v1h-1zm-8 4h1v1h-1z" fill="#bfaa7f"/><path d="M21 20h1v1h-1zm-8 1h1v10h-1zm7 2h1v2h-1zm-5 1h1v1h-1zm23 0h1v1h-1zm-18 1h1v1h-1zm7 0h1v1h-1zm5 2h1v1h-1zm8 1h1v1h-1zm22 1h1v1h-1zm8 0h1v1h-1zm-2 1h1v1h-1zm72 0h1v1h-1zM13 31h1v1h-1zm13 0h1v1h-1zm15 0h1v1h-1zm-29 1h1v1h-1zm22 0h1v1h-1zm1 0h1v1h-1zm30 0h1v1h-1zm36 0h1v1h-1zm4 0h1v1h-1zm9 0h1v1h-1zm14 0h1v1h-1zm21 0h1v1h-1zm-85 1h1v1h-1zm20 0h1v1h-1zm10 0h1v1h-1zm18 0h1v1h-1zm-41 1h1v1h-1zm32 0h1v1h-1zm-12 1h1v1h-1zm43 0h1v1h-1zm-69 1h1v1h-1zm18 0h1v1h-1zm4 0h1v1h-1zm22 1h1v1h-1zm-46 6h1v1h-1zm1 0h1v1h-1zm9 0h1v1h-1zm9 0h1v1h-1zm17 0h2v1h-2zm2 0h1v1h-1zm5 0h1v1h-1zm1 0h1v1h-1zm4 0h1v1h-1zm5 0h1v1h-1zm-51 2h1v1h-1zm49 0h1v2h-1zm-49 1h1v1h-1zm31 0h1v1h-1zm0 1h1v1h-1zm13 0h1v1h-1zm5 0h1v1h-1zm-52 1h1v1h-1zm30 0h1v2h-1zm1 0h1v1h-1zm25 0h1v1h-1zm-24 1h1v1h-1zm22 0h1v1h-1zm-16 1h1v1h-1zm-11 1h1v1h-1z" fill="#d6cab0"/><path d="M24 20h1v1h-1zm15 0h1v1h-1zm-22 3h1v1h-1zm12 1h1v2h-1zm3 0h1v1h-1zm-11 1h1v1h-1zm-3 1h1v1h-1zm10 0h1v1h-1zm1 0h1v1h-1zm7 0h1v1h-1zm-21 1h1v1h-1zm24 1h1v1h-1zm-23 2h1v1h-1zm20 0h1v1h-1zm6 0h1v1h-1zm-30 1h1v1h-1zm7 0h2v1h-2zm2 0h1v1h-1zm6 0h1v1h-1zm12 0h1v1h-1zm79 2h1v1h-1zm18 0h1v1h-1zm-47 1h1v1h-1zm29 0h1v1h-1zm-29 1h1v1h-1zm-21 7h1v5h-1zm18 2h1v1h-1zm25 0h1v1h-1zm-8 1h1v2h-1zm-41 1h1v1h-1zm6 1h1v1h-1zm35 0h1v1h-1z" fill="#956f00"/><path d="M16 21h1v1h-1zm4 1h1v1h-1zm21 4h1v1h-1zm-1 3h1v1h-1zm-7 1h1v1h-1zm7 0h1v1h-1zm103 0h1v1h-1zM36 31h1v1h-1zm62 1h1v1h-1zm29 0h1v1h-1zm-12 1h1v2h-1zm18 0h1v1h-1zm13 0h1v1h-1zm-63 1h1v1h-1zm19 0h1v1h-1zm10 0h1v1h-1zm35 0h1v1h-1zm-82 1h1v1h-1zm18 0h1v1h-1zm32 0h1v1h-1zm-23 1h1v1h-1zm0 1h1v1h-1zm-3 7h1v2h-1zm11 0h1v1h-1zm3 0h2v1h-2zm2 0h1v1h-1zm-22 2h1v1h-1zm32 0h1v1h-1zm-32 1h1v1h-1zm-18 1h1v1h-1zm12 0h1v1h-1z" fill="#b39b64"/><path d="M24 6h1v1h-1zm4 0h1v1h-1zm-15 5h1v1h-1zm29 3h1v1h-1zm3 6h1v1h-1zm0 11h1v1h-1zM20 44h1v1h-1zm5 1h2v1h-2zm2 0h1v1h-1z" fill="#443b40"/><path d="M21 7h1v1h-1zm13 1h1v1h-1zm2 1h1v1h-1zm-26 6h1v1h-1zm-3 9h1v1H7zm0 3h1v1H7zm24 17h1v1h-1z" fill="#806730"/><path d="M17 8h1v1h-1zm20 1h1v1h-1zm-23 1h1v1h-1zm32 14h1v1h-1zm0 3h1v1h-1zM29 45h1v1h-1z" fill="#1f2345"/><path d="M35 8h1v1h-1zm-23 4h1v1h-1zm-3 4h1v1H9zm-1 2h1v1H8zm0 15h1v1H8zm1 2h1v1H9zm33 2h1v1h-1zm-30 2h1v1h-1zm1 1h1v1h-1zm25 1h1v1h-1zm-10 4h1v1h-1z" fill="#3c3641"/><path d="M39 11h1v1h-1zm1 1h1v1h-1zm1 1h1v1h-1zm-1 26h1v1h-1zm-22 4h1v1h-1z" fill="#675538"/><path d="M36 18h1v1h-1zm1 1h1v1h-1zm3 3h1v1h-1zm-6 1h1v1h-1zm-6 2h1v1h-1zm6 3h1v1h-1zm-18 1h1v1h-1zm11 0h1v1h-1zm-8 1h1v1h-1zm105 0h1v1h-1zm-13 1h1v1h-1zm13 0h1v5h-1zm-87 2h1v1h-1zm35 0h1v1h-1zm71 0h1v2h-1zm-68 2h1v1h-1zm68 0h1v1h-1zm-19 1h1v1h-1zm6 0h1v1h-1zm3 0h1v1h-1zm12 3h1v1h-1zm-77 2h1v1h-1zm9 0h1v1h-1zm3 3h1v1h-1zm11 0h1v1h-1zm0 1h1v1h-1zm-11 3h1v1h-1zm8 2h1v1h-1z" fill="#a6883f"/><path d="M25 6h2v1h-2zm2 0h1v1h-1zm-7 1h1v1h-1zm18 3h1v1h-1zm-6 34h1v1h-1z" fill="#4d423d"/><path d="M18 8h1v1h-1zm25 8h1v1h-1zm1 2h1v1h-1zm1 3h1v1h-1zm0 9h1v1h-1zm-1 3h1v1h-1zm-1 2h1v1h-1z" fill="#715c35"/><path d="M29 17h1v1h-1zm8 0h2v1h-2zm2 0h1v1h-1zm-11 1h1v1h-1zm7 0h1v1h-1zm-15 1h1v2h-1zm14 0h1v1h-1zm4 0h1v1h-1zm-7 1h1v1h-1zm3 0h1v1h-1zm8 0h1v1h-1zm-22 1h1v1h-1zm7 0h1v1h-1zm15 0h1v1h-1zm-10 1h1v1h-1zm5 0h1v1h-1zm-2 3h1v1h-1zm-9 1h1v1h-1zm11 1h1v1h-1zm-17 2h1v1h-1zm16 0h1v1h-1zm-21 2h1v1h-1zm23 0h1v1h-1zm31 1h1v3h-1zm-37 1h1v1h-1zm4 0h1v1h-1zm45 0h1v1h-1zm-12 2h1v1h-1zm61 0h1v1h-1zm17 0h1v1h-1zm-26 1h1v1h-1zm-45 9h1v1h-1zm-14 2h1v1h-1z" fill="#9b7817"/><path d="M29 19h1v1h-1zm-14 1h1v1h-1zm7 0h1v1h-1zm13 0h1v1h-1zm-13 4h1v7h-1zm17 1h1v1h-1zm-23 1h1v1h-1zm16 3h1v1h-1zm39 0h1v1h-1zm-30 1h1v1h-1zm-19 1h1v1h-1zm45 0h1v1h-1zm9 0h1v1h-1zm5 0h1v1h-1zm3 0h1v1h-1zm12 0h2v1h-2zm2 0h1v1h-1zm8 0h1v1h-1zm3 0h1v1h-1zm4 0h1v1h-1zm29 0h1v1h-1zm6 0h1v1h-1zM32 32h1v1h-1zm36 0h1v1h-1zm74 0h1v1h-1zm8 0h1v1h-1zm-70 1h1v3h-1zm51 0h1v2h-1zm6 0h1v1h-1zm12 1h1v1h-1zm-82 1h1v2h-1zm64 0h1v1h-1zm15 0h1v1h-1zm-66 1h1v1h-1zm6 0h1v1h-1zm16 0h2v1h-2zm2 0h1v1h-1zm5 0h1v1h-1zm14 0h1v1h-1zm-58 1h2v1h-2zm2 0h1v1h-1zm63 0h1v1h-1zm-53 3h1v1h-1zm-4 1h2v1h-2zm2 0h1v1h-1zm-6 1h2v1h-2zm2 0h1v1h-1zm7 0h1v1h-1zm0 1h1v1h-1zm3 0h1v1h-1zm16 0h1v1h-1zm6 0h2v1h-2zm2 0h1v1h-1zm9 0h1v1h-1zm4 0h1v1h-1zm-45 1h1v2h-1zm19 1h2v1h-2zm12 0h2v1h-2zm2 0h1v2h-1zm4 0h3v1h-3zm3 0h1v1h-1zm-40 1h1v1h-1zm37 0h1v1h-1zm6 0h2v1h-2zm2 0h1v1h-1zm-12 1h1v1h-1zm4 0h1v1h-1zm-3 1h2v1h-2zm2 0h1v1h-1zm3 0h2v1h-2zm2 0h1v1h-1zm-41 1h1v1h-1zm4 0h1v1h-1zm19 0h1v1h-1z" fill="#fcfbf9"/><path d="M12 21h1v9h-1zm5 1h1v1h-1zm2 1h1v1h-1zm13 0h1v1h-1zm8 1h1v1h-1zm-22 1h1v1h-1zm8 0h1v1h-1zm15 0h1v1h-1zm-3 2h1v1h-1zm-23 1h1v1h-1zm10 1h1v1h-1zm5 0h1v1h-1zm-18 1h1v1h-1zm4 1h1v1h-1zm26 0h1v1h-1zm-1 1h1v1h-1zm-1 1h1v1h-1zm90 0h1v1h-1zm-61 3h1v1h-1zm12 0h1v1h-1zm-6 8h1v1h-1zm36 4h1v1h-1z" fill="#99760f"/></svg>