<svg xmlns="http://www.w3.org/2000/svg" role="img" viewBox="-4.30 7.20 223.34 60.34"><title>National Association of Realtors logo</title><path fill="#010101" d="M70.64 11.89v12.99h-2.37L62.05 17v7.88h-2.86V11.89h2.39l6.21 7.89v-7.89h2.85zm10.08 7.93l-2-5-2 5zm.91 2.28h-5.8l-1.1 2.78h-3l5.56-13h2.85l5.59 13h-3zm6.23-7.76h-3.99v-2.45h10.88v2.45h-4v10.54h-2.89V14.34zm8.56-2.45h2.89v12.99h-2.89zM110.07 22a3.74 3.74 0 0 0 1.4-1.47 4.81 4.81 0 0 0 0-4.31 3.74 3.74 0 0 0-1.4-1.47 4 4 0 0 0-4 0 3.74 3.74 0 0 0-1.4 1.47 4.81 4.81 0 0 0 0 4.31 3.74 3.74 0 0 0 1.4 1.47 4 4 0 0 0 4 0m-5.5 2.22a6.28 6.28 0 0 1-2.45-2.4 6.75 6.75 0 0 1-.88-3.44 6.72 6.72 0 0 1 .88-3.44 6.31 6.31 0 0 1 2.45-2.41 7.48 7.48 0 0 1 7 0A6.49 6.49 0 0 1 114 15a7.09 7.09 0 0 1 0 6.88 6.46 6.46 0 0 1-2.44 2.4 7.48 7.48 0 0 1-7 0M128 11.89v12.99h-2.37L119.41 17v7.88h-2.86V11.89h2.39l6.21 7.89v-7.89H128zm10.08 7.93l-2-5-2 5zm.92 2.28h-5.8l-1.1 2.78h-3l5.56-13h2.85l5.59 13h-3zm5.24-10.21h2.89v10.54h6.43v2.45h-9.32V11.89zM66.5 38.93l-2-5-2 5zm.91 2.28h-5.79L60.51 44h-3l5.57-13H66l5.58 13h-3zm6.82 2.59A6.57 6.57 0 0 1 72 42.71l1-2.26a6.25 6.25 0 0 0 1.91 1 6.79 6.79 0 0 0 2.21.37 3.36 3.36 0 0 0 1.82-.38 1.16 1.16 0 0 0 .59-1 1 1 0 0 0-.35-.77 2.61 2.61 0 0 0-.89-.49c-.37-.12-.86-.26-1.47-.41a19.63 19.63 0 0 1-2.34-.7 3.78 3.78 0 0 1-1.56-1.13 3.12 3.12 0 0 1-.65-2.08 3.64 3.64 0 0 1 .59-2 4 4 0 0 1 1.77-1.46 7 7 0 0 1 2.9-.54 9.14 9.14 0 0 1 2.33.3 6.74 6.74 0 0 1 2 .85L81 34.22a6.76 6.76 0 0 0-3.46-1 3.14 3.14 0 0 0-1.79.4 1.26 1.26 0 0 0-.58 1.08 1 1 0 0 0 .67 1 9.72 9.72 0 0 0 2 .64 20 20 0 0 1 2.34.71 3.87 3.87 0 0 1 1.56 1.11 3.08 3.08 0 0 1 .65 2.06 3.63 3.63 0 0 1-.6 2A4.11 4.11 0 0 1 80 43.68a7.07 7.07 0 0 1-2.91.54 9.75 9.75 0 0 1-2.86-.42m11.24 0a6.54 6.54 0 0 1-2.23-1.09l1-2.26a6.31 6.31 0 0 0 1.9 1 6.89 6.89 0 0 0 2.22.37 3.32 3.32 0 0 0 1.81-.38 1.14 1.14 0 0 0 .59-1 1 1 0 0 0-.35-.77 2.52 2.52 0 0 0-.89-.49c-.36-.12-.85-.26-1.47-.41a19.4 19.4 0 0 1-2.33-.7 3.78 3.78 0 0 1-1.56-1.13 3.13 3.13 0 0 1-.66-2.08 3.72 3.72 0 0 1 .59-2 4.08 4.08 0 0 1 1.78-1.46 7 7 0 0 1 2.9-.54 9.14 9.14 0 0 1 2.33.3 6.86 6.86 0 0 1 2 .85l-.89 2.29a6.79 6.79 0 0 0-3.46-1 3.14 3.14 0 0 0-1.79.4 1.26 1.26 0 0 0-.58 1.08 1 1 0 0 0 .66 1 10.06 10.06 0 0 0 2 .64 19.2 19.2 0 0 1 2.33.71 3.74 3.74 0 0 1 1.63 1 3 3 0 0 1 .65 2.06 3.7 3.7 0 0 1-.59 2 4.09 4.09 0 0 1-1.8 1.46 7 7 0 0 1-2.9.54 9.75 9.75 0 0 1-2.86-.42m17.9-2.64a3.84 3.84 0 0 0 1.4-1.48 4.79 4.79 0 0 0 0-4.3 3.92 3.92 0 0 0-5.39-1.48A3.7 3.7 0 0 0 98 35.35a4.79 4.79 0 0 0 0 4.3 3.7 3.7 0 0 0 1.4 1.48 4 4 0 0 0 4 0m-5.5 2.21a6.26 6.26 0 0 1-2.44-2.4 7.09 7.09 0 0 1 0-6.88 6.26 6.26 0 0 1 2.44-2.4 7.4 7.4 0 0 1 7 0 6.39 6.39 0 0 1 2.44 2.4 7.09 7.09 0 0 1 0 6.88 6.39 6.39 0 0 1-2.44 2.4 7.4 7.4 0 0 1-7 0m14.81.01a6.27 6.27 0 0 1-2.43-2.35 7.24 7.24 0 0 1 0-6.92 6.27 6.27 0 0 1 2.43-2.39 6.89 6.89 0 0 1 3.46-.87 7 7 0 0 1 2.94.6 5.83 5.83 0 0 1 2.2 1.7l-1.85 1.79a3.93 3.93 0 0 0-3.14-1.53 4 4 0 0 0-2.07.53 3.74 3.74 0 0 0-1.42 1.48 4.79 4.79 0 0 0 0 4.3 3.74 3.74 0 0 0 1.42 1.48 4 4 0 0 0 2.07.53 3.94 3.94 0 0 0 3.14-1.54l1.85 1.78a5.74 5.74 0 0 1-2.21 1.72 7 7 0 0 1-2.94.6 6.86 6.86 0 0 1-3.45-.87m10.24-12.38h2.89V44h-2.89zm13.15 7.92l-2-5-2 5zm.91 2.28h-5.8L130.1 44h-3l5.57-13h2.85l5.58 13h-3zm6.23-7.75h-3.99v-2.45h10.88v2.45h-4v10.53h-2.89V33.46zm8.56-2.45h2.89V44h-2.89zm13.65 10.12a3.84 3.84 0 0 0 1.4-1.48 4.87 4.87 0 0 0 0-4.3 3.84 3.84 0 0 0-1.4-1.48 4 4 0 0 0-4 0 3.84 3.84 0 0 0-1.4 1.48 4.79 4.79 0 0 0 0 4.3 3.84 3.84 0 0 0 1.4 1.48 4 4 0 0 0 4 0m-5.51 2.21a6.32 6.32 0 0 1-2.44-2.4 7.16 7.16 0 0 1 0-6.88 6.32 6.32 0 0 1 2.44-2.4 7.09 7.09 0 0 1 3.51-.88 7 7 0 0 1 3.49.88 6.42 6.42 0 0 1 2.45 2.4 7.09 7.09 0 0 1 0 6.88 6.42 6.42 0 0 1-2.45 2.4 6.91 6.91 0 0 1-3.49.88 7 7 0 0 1-3.51-.88m23.44-12.33v12.98h-2.37l-6.23-7.88v7.88h-2.85V31.01h2.39l6.21 7.88v-7.88h2.85zm15.53 10.12a3.76 3.76 0 0 0 1.4-1.48 4.79 4.79 0 0 0 0-4.3 3.76 3.76 0 0 0-1.4-1.48 4 4 0 0 0-4 0 3.76 3.76 0 0 0-1.4 1.48 4.79 4.79 0 0 0 0 4.3 3.76 3.76 0 0 0 1.4 1.48 4 4 0 0 0 4 0m-5.5 2.21a6.32 6.32 0 0 1-2.44-2.4 7.09 7.09 0 0 1 0-6.88 6.32 6.32 0 0 1 2.44-2.4 7.4 7.4 0 0 1 7 0 6.39 6.39 0 0 1 2.44 2.4 7 7 0 0 1 0 6.88 6.39 6.39 0 0 1-2.44 2.4 7.4 7.4 0 0 1-7 0m15.05-9.92v3.43h5.77v2.41h-5.77v4.73h-2.89V31.01H215v2.41h-6.54z"/><path fill="#0e6cb6" d="M66.42 53.15a3 3 0 0 0-2-.58h-2.34v4.53h2.36a2.93 2.93 0 0 0 2-.6 2.43 2.43 0 0 0 0-3.35m.73 10l-2.41-3.62h-2.68v3.62h-2.89v-13h5.41a6.64 6.64 0 0 1 2.88.58 4.29 4.29 0 0 1 1.88 1.63 5 5 0 0 1 0 5 4.28 4.28 0 0 1-1.9 1.6l2.8 4.18zm14.55-2.45v2.41h-9.67V50.12h9.43v2.41h-6.56v2.82h5.8v2.34h-5.8v3.01h6.8zm9.77-2.7l-2-5-2 5zm.91 2.28h-5.79l-1.11 2.83h-3l5.57-13H91l5.58 13h-3zm5.26-10.16h2.89v10.54h6.26v2.45h-9.15V50.12zm11.57 2.45h-4v-2.45h10.88v2.45h-3.99v10.54h-2.89V52.57zm16.01 7.67a3.67 3.67 0 0 0 1.4-1.47 4.81 4.81 0 0 0 0-4.31 3.67 3.67 0 0 0-1.4-1.47 4 4 0 0 0-4 0 3.67 3.67 0 0 0-1.4 1.47 4.81 4.81 0 0 0 0 4.31 3.67 3.67 0 0 0 1.4 1.47 4 4 0 0 0 4 0m-5.5 2.22a6.28 6.28 0 0 1-2.44-2.41 7.16 7.16 0 0 1 0-6.88 6.32 6.32 0 0 1 2.44-2.4 7.08 7.08 0 0 1 3.51-.87 7 7 0 0 1 3.49.87 6.32 6.32 0 0 1 2.44 2.4 7 7 0 0 1 0 6.88 6.28 6.28 0 0 1-2.44 2.41 7 7 0 0 1-3.49.87 7.08 7.08 0 0 1-3.51-.87m19.38-9.31a2.94 2.94 0 0 0-2-.58h-2.35v4.53h2.35a2.89 2.89 0 0 0 2-.6 2.4 2.4 0 0 0 0-3.35m.73 10l-2.41-3.62h-2.65v3.62h-2.89v-13h5.4a6.58 6.58 0 0 1 2.88.58 4.23 4.23 0 0 1 1.88 1.63 4.62 4.62 0 0 1 .66 2.5 4.51 4.51 0 0 1-.67 2.5 4.23 4.23 0 0 1-1.9 1.6l2.8 4.18zm6.21-.24a6.76 6.76 0 0 1-2.22-1.08l1-2.27a6.76 6.76 0 0 0 1.91 1 7.16 7.16 0 0 0 2.21.37 3.45 3.45 0 0 0 1.82-.38 1.15 1.15 0 0 0 .59-1 1 1 0 0 0-.35-.77 2.62 2.62 0 0 0-.89-.5c-.36-.12-.85-.26-1.47-.4a20 20 0 0 1-2.34-.71 3.82 3.82 0 0 1-1.58-1.17 3.16 3.16 0 0 1-.65-2.08 3.75 3.75 0 0 1 .59-2 3.94 3.94 0 0 1 1.78-1.45 6.93 6.93 0 0 1 2.89-.54 9.61 9.61 0 0 1 2.34.29 6.87 6.87 0 0 1 2 .86l-.89 2.28a6.79 6.79 0 0 0-3.46-1 3.19 3.19 0 0 0-1.8.41 1.27 1.27 0 0 0-.58 1.07 1.07 1.07 0 0 0 .67 1 10.73 10.73 0 0 0 2.05.64 19.4 19.4 0 0 1 2.33.7 3.92 3.92 0 0 1 1.56 1.11 3 3 0 0 1 .65 2.06 3.68 3.68 0 0 1-.59 2 4 4 0 0 1-1.8 1.46 7 7 0 0 1-2.9.54 9.87 9.87 0 0 1-2.87-.42m13.17-9.74a.9.9 0 0 0 .57-.17.6.6 0 0 0 .2-.48.63.63 0 0 0-.2-.49.9.9 0 0 0-.57-.17h-.61v1.31zm1.64.13a1.37 1.37 0 0 1-.57.52l.88 1.4h-1.08l-.76-1.24h-.71v1.21h-1.08v-4.16h1.75a1.9 1.9 0 0 1 1.29.4 1.37 1.37 0 0 1 .47 1.09 1.5 1.5 0 0 1-.19.78m-.23 2.52a3 3 0 0 0 1.07-1.13 3.28 3.28 0 0 0 .39-1.59 3.32 3.32 0 0 0-.38-1.58 2.81 2.81 0 0 0-1.05-1.11 2.94 2.94 0 0 0-4.1 1.13 3.27 3.27 0 0 0-.39 1.58 3.22 3.22 0 0 0 .39 1.58 3 3 0 0 0 1.05 1.13 2.87 2.87 0 0 0 1.51.41 2.82 2.82 0 0 0 1.51-.42m.37-6a3.55 3.55 0 0 1 1.32 1.37 4.1 4.1 0 0 1 0 3.87 3.7 3.7 0 0 1-1.33 1.37 3.65 3.65 0 0 1-3.72 0 3.65 3.65 0 0 1-1.28-1.38 4 4 0 0 1-.48-1.93 3.91 3.91 0 0 1 .48-1.92 3.56 3.56 0 0 1 1.33-1.39 3.61 3.61 0 0 1 1.87-.5 3.57 3.57 0 0 1 1.86.49M46.13 11.85H0V63.2h46.13zM19.69 56.1H6.58V18.61h13.14zm10.16-37.45a9.35 9.35 0 0 1 9.51 9.65c0 7.46-6.46 9.12-9.54 9.08H24.7V18.66zM24.7 56.19V37.62l18 18.57z"/></svg>