<svg xmlns="http://www.w3.org/2000/svg" role="img" viewBox="-0.20 10.30 400.40 226.40"><title>Samsung SDS logo</title><style>svg {enable-background:new 0 0 336 235.2}</style><path fill="none" d="M0 0h400v245H0z" pointer-events="none"/><path fill="#034ea2" d="M20.98248 228.99512c-11.49571 0-13.65383-6.7735-13.22648-14.4658h9.35897c0 4.2735.1923 7.82051 5.29914 7.82051a4.44444 4.44444 0 0 0 4.67948-5.04273c0-8.01281-18.71793-8.547-18.71793-21.73075 0-6.94443 3.33333-12.49998 14.63674-12.49998 9.05982 0 13.54699 4.08119 12.92733 13.35468h-8.95298c0-3.31196-.55556-6.68802-4.2735-6.68802a4.2735 4.2735 0 0 0-4.91452 4.72221c0 8.44017 18.69656 7.6923 18.69656 21.66665 0 11.43161-8.4188 12.86323-15.5128 12.86323zm18.46152-.74786l12.30768-44.42303h12.26495L76.132 228.24726h-9.85042l-2.45726-9.82905H51.15339l-2.52136 9.82905zm17.90597-35.87603h-.10684l-4.2735 19.23075h8.86751zm22.58545 35.87603v-44.42303h14.95725l6.88033 30.21364h.10684l7.39315-30.21364h14.4658v44.42303h-8.97435v-34.188l-8.547 34.188h-8.97435l-8.11965-34.188h-.17094v34.188zm63.20506.74786c-11.45298 0-13.58973-6.7735-13.16238-14.4658h9.29486c0 4.2735.17094 7.82051 5.27777 7.82051a4.44444 4.44444 0 0 0 4.67949-5.04273c0-8.01281-18.69656-8.547-18.69656-21.73075 0-6.94443 3.31196-12.49998 14.63673-12.49998 9.05982 0 13.547 4.08119 12.8205 13.35468h-8.93161c0-3.31196-.55556-6.68802-4.2735-6.68802a4.2735 4.2735 0 0 0-4.80769 4.72221c0 8.44017 18.71793 7.6923 18.71793 21.66665-.04273 11.43161-8.4829 12.86323-15.55554 12.86323zm51.88029-45.1709v31.51707c0 6.6453-3.76068 13.65383-15.08545 13.65383-10.21367 0-15.1282-5.29914-15.1282-13.65383v-31.51706h9.29487V214.743c0 5.47008 2.32906 7.6282 5.72649 7.6282 4.05982 0 5.89743-2.71367 5.89743-7.6282v-30.91877zm7.32905 44.42304v-44.42303h12.54272l11.81623 30.7692h.1282v-30.7692h8.67521v44.42303H223.2686l-12.11537-32.4786h-.1282v32.4786zm60.98285-30.7692c0-4.12393-.61966-7.73504-5.53418-7.73504-5.7906 0-5.7906 7.79914-5.7906 16.41024 0 13.91025 1.34616 16.38888 6.6453 16.38888a14.61537 14.61537 0 0 0 4.61538-.87607v-9.85042h-5.04273v-6.81623h14.33759v22.56408a85.08539 85.08539 0 0 1-12.5641 1.47436c-15.61963 0-17.4145-6.41025-17.4145-23.33331 0-11.19657.55555-22.58545 15.76921-22.58545 9.10256 0 14.76494 5.10683 14.20939 14.4017zm42.39312 31.51706c-11.51708 0-13.65383-6.7735-13.16238-14.4658h9.29486c0 4.2735.17094 7.82051 5.27777 7.82051a4.44444 4.44444 0 0 0 4.67949-5.04273c0-8.01281-18.71793-8.547-18.71793-21.73075 0-6.94444 3.33333-12.49999 14.6581-12.49999 9.03845 0 13.547 4.0812 12.8205 13.3547h-9.05982c0-3.31197-.53419-6.68804-4.2735-6.68804a4.2735 4.2735 0 0 0-4.61538 4.72222c0 8.44016 18.71793 7.6923 18.71793 21.66665-.10684 11.43161-8.547 12.86323-15.61964 12.86323zm22.02989-45.1709h15.47007c12.17948 0 14.4658 8.11966 14.4658 21.9658 0 6.8376 1.047 22.45724-14.82905 22.45724h-15.14955zm9.29486 37.6068h4.48718c5.66239 0 6.7735-4.2735 6.7735-15.3846 0-8.18374 0-15.3846-6.41025-15.3846h-4.8077zm39.87176 7.5641c-11.49572 0-13.65383-6.7735-13.16238-14.4658h9.38033c0 4.2735.17094 7.82051 5.27777 7.82051a4.44444 4.44444 0 0 0 4.67949-5.04273c0-8.01281-18.69657-8.547-18.69657-21.73075 0-6.94443 3.31197-12.49998 14.63674-12.49998 9.05982 0 13.547 4.08119 12.92734 13.35468h-9.03845c0-3.31196-.55556-6.68802-4.2735-6.68802a4.2735 4.2735 0 0 0-4.8077 4.72221c0 8.44017 18.71794 7.6923 18.71794 21.66665-.19231 11.43161-8.56837 12.86323-15.64101 12.86323zM353.9095 42.64916c-4.2735-24.18801-76.923-31.73074-162.393-16.85896-35.8974 6.2393-68.376 15.4487-93.50418 25.8333a12.094 12.094 0 0 1 8.547 2.71368 7.5641 7.5641 0 0 1 2.13675 5.57692v2.41452h-8.52563v-2.13675a2.64957 2.64957 0 0 0-2.92735-2.86324 2.60684 2.60684 0 0 0-2.86324 2.13675 4.1453 4.1453 0 0 0 0 1.68803c.89743 3.65384 13.33332 5.9188 14.70084 12.6923a16.3675 16.3675 0 0 1 0 5.40597c-.76923 5.44872-5.55555 7.54273-11.66666 7.54273-8.547 0-11.9658-4.03846-11.9658-9.57264v-2.67094h8.97435v3.2906a2.82051 2.82051 0 0 0 3.16239 2.86324 2.7564 2.7564 0 0 0 3.07692-2.13675 4.03846 4.03846 0 0 0 0-2.35042c-1.66666-4.2735-13.26922-6.1111-14.70084-12.8205a11.49572 11.49572 0 0 1 0-4.44444 8.76067 8.76067 0 0 1 .68376-2.32906C58.65339 69.70041 42.28588 84.1021 44.444 96.53799c4.2735 24.16664 76.923 31.73074 162.393 16.83759 37.5427-6.53845 71.30335-16.32477 97.00845-27.2863h-1.13248c-5.83333 0-11.06836-2.13675-11.60255-8.16238a18.16238 18.16238 0 0 1 0-2.13675V62.0722c0-.59829 0-1.62393.1282-2.13675.68376-5.76922 5.2564-8.16238 11.60256-8.16238 4.87179 0 10.89742 1.41025 11.53845 8.18375a15.70511 15.70511 0 0 1 0 2.02991v1.28205h-8.547v-1.92307a6.58119 6.58119 0 0 0-.10684-1.21795 2.84188 2.84188 0 0 0-3.09829-2.32906 2.90598 2.90598 0 0 0-3.14102 2.3077 7.28632 7.28632 0 0 0-.1282 1.51709v14.95725a6.41025 6.41025 0 0 0 0 1.21794 3.4188 3.4188 0 0 0 6.41024 0 8.3547 8.3547 0 0 0 0-1.21794v-4.65812h-3.14102V66.944h11.7735v11.047a8.547 8.547 0 0 1-1.41026 4.03846c27.07262-12.97007 43.05551-27.13673 40.91876-39.3803zm-221.62371 42.8632l-4.2735-29.1239h-.14957l-4.4017 29.1239h-9.03846l6.06837-32.90595h14.74358l6.047 32.90595zm43.44013 0l-.19231-28.56835h-.14957L170.149 85.51236h-8.547l-5.27777-28.56835h-.17094l-.19231 28.56835h-8.39743l.7265-32.90595h13.52563l3.93162 24.44442h.1282l3.93162-24.44442h13.50426l.7265 32.90595zm39.55124-6.41025c-.87607 6.41025-7.11538 7.47863-11.53845 7.47863-7.32905 0-11.85896-3.11966-11.85896-9.48717V74.5081h8.88888v3.24786a2.77778 2.77778 0 0 0 3.14102 2.8205 2.71367 2.71367 0 0 0 3.05555-2.13674 4.12393 4.12393 0 0 0 0-2.32906c-1.6453-4.0812-13.16238-6.08974-14.57263-12.8205a11.15384 11.15384 0 0 1 0-4.38034c.9829-6.02563 6.75213-7.26495 11.41024-7.26495a12.43589 12.43589 0 0 1 8.86752 2.84188 7.5 7.5 0 0 1 2.0299 5.53418v2.3718h-8.22648v-2.13675a2.64957 2.64957 0 0 0-2.90598-2.84188 2.58547 2.58547 0 0 0-2.86324 2.13675 4.03846 4.03846 0 0 0 0 1.66666c.89743 3.63248 13.22648 5.87607 14.57263 12.5641a15.96152 15.96152 0 0 1 0 5.34187zm30.74783-2.99145v2.13675c-.51282 5.40598-4.2735 8.16239-11.49571 8.16239s-11.00426-2.75641-11.51708-8.16239v-25.641h8.547v24.29485a6.26068 6.26068 0 0 0 0 1.21795 3.16239 3.16239 0 0 0 6.06837 0 6.06837 6.06837 0 0 0 0-1.21795V52.6064h8.547zm36.5598 9.03845h-11.81623l-7.92734-26.04698h-.12821l.44872 26.04698h-8.22649v-32.5427h12.28631l7.32906 25.04271h.17094l-.42735-25.04271h8.29059z" class="cls-1"/></svg>