<svg xmlns="http://www.w3.org/2000/svg" role="img" viewBox="73.13 -3.13 253.50 250.75"><title>Swisscom AG (member) logo</title><style>svg {enable-background:new 0 0 400 245}</style><path fill="#152168" d="M231.4 242.9c-9.2 0-15.2-4.6-15.2-15.6 0-9.3 5.1-16.5 16.5-16.5 2.4 0 5.5.5 7.6 1.3l-1.7 6.5c-1.8-.6-3.6-1.1-5.6-1.1-5.8 0-8.2 3.8-8.2 9.5 0 5.5 2.2 9.2 7.8 9.2 2.7 0 4.5-.6 6.3-1.4l.9 6.4c-1.6.9-4.9 1.7-8.4 1.7zm-74.3-35.5c2.8 0 5.1-2.2 5.1-4.9s-2.3-4.8-5.1-4.8c-2.6 0-4.9 2.1-4.9 4.8 0 2.8 2.3 4.9 4.9 4.9zm-4.3 35h8v-31c-3.7-.4-8 .6-8 6.5v24.5zM257 217.5c-3.6 0-7 2.7-7 9.5 0 5.9 2.2 9.2 6.9 9.2 3.9 0 7-3.2 7-9.5 0-6-2.2-9.2-6.9-9.2zm-.3 25.5c-8.8 0-15-4.8-15-15.6 0-9.7 6.5-16.7 15.9-16.7 8.8 0 14.4 4.9 14.4 15.5 0 10.1-6.1 16.8-15.3 16.8zM97.6 218c-1.7-.6-4.4-1.3-6.5-1.3-2.5 0-4.4.6-4.4 2.9 0 5.4 13.7 2.1 13.7 13.1 0 7.5-6.1 10.3-12.9 10.3-3.1 0-6.3-.5-9.1-1.4l.5-6.5s4.5 1.5 8.3 1.5c2.6 0 4.8-.8 4.8-3.1 0-5.7-13.8-2.1-13.8-13 0-6.9 5.8-9.7 12.2-9.7 3.8 0 6.8.7 8.7 1.4l-1.5 5.8zm51.5-6.7c-1.7 9.2-6.2 23.7-9 31h-8.4l-6-20.7h-.1l-6 20.7h-8.4c-2.7-7.2-7.6-22.2-9-31h8l5.3 21.3h.1l6.3-21.3h8l6.1 21.2h.1l5.3-21.2h7.7zm163.2-.6c6 0 9.5 3.2 9.5 10.3v21.3h-8v-19.7c0-3.2-.9-5.3-4.3-5.3s-6.4 3-6.4 8.3v16.7h-7.8v-19.7c0-3-1-5.3-4.4-5.3-3.6 0-6.3 3.3-6.3 8.7v16.3h-8.1v-31c5.3-.6 7.3 1.5 7.5 5 1.9-3.5 5.3-5.6 9.7-5.6 5.6 0 7.8 3.1 8.6 6 1.3-3.1 4.8-6 10-6zM184.8 218c-1.8-.6-4.4-1.3-6.5-1.3-2.5 0-4.5.6-4.5 2.9 0 5.4 13.9 2.1 13.9 13.1 0 7.5-6.1 10.3-12.9 10.3-3.1 0-6.3-.5-9.3-1.4l.6-6.5s4.5 1.5 8.3 1.5c2.5 0 4.8-.8 4.8-3.1 0-5.7-13.9-2.1-13.9-13 0-6.9 5.8-9.7 12.2-9.7 3.8 0 6.9.7 8.8 1.4l-1.5 5.8zm25.2 0c-1.7-.6-4.4-1.3-6.5-1.3-2.5 0-4.4.6-4.4 2.9 0 5.4 13.8 2.1 13.8 13.1 0 7.5-6.1 10.3-12.9 10.3-3.1 0-6.3-.5-9.1-1.4l.5-6.5s4.5 1.5 8.3 1.5c2.7 0 4.8-.8 4.8-3.1 0-5.7-13.8-2.1-13.8-13 0-6.9 5.8-9.7 12.2-9.7 3.8 0 6.9.7 8.7 1.4L210 218"/><linearGradient id="a" x1="191.196" x2="169.335" y1="93.289" y2="119.579" gradientTransform="matrix(1 0 0 -1 0 245.64)" gradientUnits="userSpaceOnUse"><stop offset="0" stop-color="#0019ce"/><stop offset="1" stop-color="#00a4ce" stop-opacity=".498"/></linearGradient><path fill="url(#a)" stroke="#999" stroke-width=".193" d="M174.2 104c-34 29.2-11.9 50.6 18.1 63.1l.2-33.3c-14.6-3.1-6.1-22.5-18.3-29.8h0z"/><linearGradient id="b" x1="226.027" x2="154.631" y1="104.074" y2="184.014" gradientTransform="matrix(1 0 0 -1 0 245.64)" gradientUnits="userSpaceOnUse"><stop offset="0" stop-color="#040d1a"/><stop offset="1" stop-color="#fd110d" stop-opacity=".994"/></linearGradient><path fill="url(#b)" stroke="#4d4d4d" stroke-width=".193" d="M175.6 20.4c-.7 0-15 10.7-21.3 15.8-19.7 16-25.8 28.2-21.3 42 2.3 7 6.3 11.8 19.2 22.9 9.7 8.4 14.8 13.5 18.9 18.9.4.6.9 1.2 1.3 1.8.1.2.2.3.4.5 0 0 0 0 0 0 .1.2.2.3.3.5.7 1 1.3 2 1.8 2.9.6 1.1 1.2 2.1 1.7 3.2 0 .1 0 .1.1.2.2.4.3.8.5 1.2.1.4.3.7.4 1.1v.1c.1.4.3.8.4 1.2v.1c.2.4.3.9.5 1.4 0 0 0 0 0 0 .9 2.9 1.8 6.5 2.8 11.2.2.2.2.3.4.6.1.3.2.6.2.9 2.3 9.4 4.6 15 7.6 18.1.2.3 1 .8 1.7 1.1.7.4 1.5.6 1.6.6.4-.1.5-32.1.1-33.1-2.4-.2-4.8-1.6-6.5-3.4-1-1.1-1.9-2.8-2.7-5 0-.1-.1-.1-.1-.2s-.1-.3-.1-.4c-.5-1.7-1-3.8-1.6-6.8-1.9-9.4-3.2-11.4-12-17.6-6.2-4.4-9-7.1-10.4-10-1-2-1-2.3-1-5.2 0-2.5.1-3.3.7-4.6 1.5-3.2 3.7-4.7 11-7.6 7.8-3.1 9-4.5 12.6-14 3.2-7 4.8-7.5 10.6-10.2-.2.3-12-18.9-17.8-28.2h0z"/><linearGradient id="c" x1="185.223" x2="215.278" y1="147.641" y2="161.254" gradientTransform="matrix(1 0 0 -1 0 245.64)" gradientUnits="userSpaceOnUse"><stop offset="0"/><stop offset="1" stop-opacity="0"/></linearGradient><path fill="url(#c)" stroke="#000" stroke-width=".077" d="M192.7 167.3c16.8-24.8 34.3-29.8 50.2-85.2l-62.1-54.8 12.8 22.2-.9 117.8z"/><linearGradient id="d" x1="326.082" x2="215.1" y1="147.935" y2="200.45" gradientTransform="matrix(1 0 0 -1 0 245.64)" gradientUnits="userSpaceOnUse"><stop offset="0" stop-color="#040d1a"/><stop offset="1" stop-color="#fd110d" stop-opacity=".994"/></linearGradient><path fill="url(#d)" stroke="#999" stroke-width=".387" d="M202.7 19.2c-3.5.2-6.9.3-9.9 1.8 0-.1 0-.2.1 18.7l49.8 42.5s1.1-1.8 1.7-5.9c.9-6 1-10.6.6-15-.9-9.3-3.4-16.6-8-23.4-2.2-3.2-8-8.9-11.3-11.1-5-3.3-11.2-5.9-16.8-7.1-1.8-.3-4-.5-6.2-.5h0z"/><linearGradient id="e" x1="198.78" x2="217.681" y1="126.815" y2="153.878" gradientTransform="matrix(1 0 0 -1 0 245.64)" gradientUnits="userSpaceOnUse"><stop offset="0" stop-color="#0019ce"/><stop offset="1" stop-color="#00a4ce" stop-opacity=".498"/></linearGradient><path fill="url(#e)" d="M192.6 186c.1-.1 1-136.9.7-137.1L179 25.7c-.4 2.4 43.7 38.7 64 56.7l3.6 3.5c8.7 8.6 14.3 15.5 17.9 23 3.3 6.8 4.3 11.7 4 19-.3 7.6-2.5 14.9-6.5 21.8-3.7 6.4-11 13.9-18 18.8-12.1 8.3-28.5 14.5-45 17-4.2.7-6.1.8-6.4.5z"/><linearGradient id="f" x1="185.933" x2="182.903" y1="211.346" y2="244.767" gradientTransform="matrix(1 0 0 -1 0 245.64)" gradientUnits="userSpaceOnUse"><stop offset="0" stop-color="#0b4ad0"/><stop offset="1" stop-color="#0bb7d0" stop-opacity="0"/></linearGradient><path fill="url(#f)" d="M175.5 19.7c0-.3-.2-1.1-.5-2-1-3.2-.3-7 1.8-9.7 1.1-1.4 3.9-3.3 6.1-4.2 4.4-1.6 9.4-2.4 9.7-1.5 0 0 .1 37.6.3 37.6.3.6-16.4-14.1-17.4-20.2z"/><path fill="#fff" d="M192.9 133.9l.4-85.1c-3.5 1.7-7 1.5-11.1 11.5-3.2 8.5-4.7 10-13.3 13.3-15 4.4-14.7 17.3 1.2 27.1 8.9 5.8 10.5 9.5 12.2 19.5 1.5 6.9 3.4 12.3 10.6 13.7z"/></svg>