<svg xmlns="http://www.w3.org/2000/svg" role="img" viewBox="-2.20 46.81 322.14 65.14"><title>TNO, the Netherlands Organisation for Applied Scientific Research logo</title><path d="M133 53h1v1h-1zm108 8h1v1h-1zm16 0h1v1h-1zm-77 2h1v1h-1zm78 1h1v8h-1zm-51 1h1v9h-1zm27 4h1v1h-1zm47 0h1v1h-1zm-56 1h1v1h-1zm-72 1h1v1h-1zm105 1h1v1h-1zm-51 2h1v1h-1zm-14 1h1v1h-1zM69 87h1v1h-1zm102 0h1v1h-1zm15 1h1v1h-1zm-8 2h1v1h-1zm-7 3h1v10h-1zm0 10h1v1h-1zm54 1h1v1h-1zm-40 1h1v1h-1zm60 0h1v1h-1z" fill="#d8dce6"/><path fill="#727a92" d="M237 64h1v1h-1z"/><path d="M121 54h12v16h-12zm12 0h1v18h-1zm34 0h2v1h-2zm2 0h1v1h-1zm108 0h1v1h-1zM5 55h61v15H5zm61 0h1v48h-1zm18 0h15v47H84zm15 0h1v48h-1z"/><path d="M118 55h18v15h-18zm18 0h1v48h-1zm31 0h2v1h-2zm2 0h1v1h-1zm106 0h2v1h-2zm2 0h1v1h-1zM67 56h1v47h-1z"/><path d="M116 56h23v14h-23zm23 0h1v45h-1zm125 0h1v17h-1zm1 0h1v17h-1zM68 57h1v46h-1zm1 0h1v27h-1zm31 0h1v46h-1z"/><path d="M115 57h25v13h-25zm25 0h1v44h-1zm-70 1h1v26h-1z"/><path d="M112 58h30v12h-30zm30 0h1v42h-1z"/><path d="M111 59h32v11h-32zm32 0h1v40h-1zm-72 1h1v26h-1zm73 0h1v38h-1zm23 0h2v14h-2zm2 0h1v14h-1zm8 0h1v14h-1zm5 0h4v1h-4zm4 0h1v14h-1zm8 0h1v14h-1zm1 0h1v14h-1zm5 0h3v1h-3zm3 0h1v1h-1zm12 0h5v1h-5zm5 0h1v1h-1zm8 0h1v1h-1zm1 0h1v3h-1zm10 0h1v4h-1zm1 0h1v1h-1zm8 0h6v1h-6zm6 0h1v1h-1zm7 0h8v1h-8zm8 0h1v1h-1zm6 0h2v14h-2zm2 0h1v14h-1zm10 0h4v1h-4zm4 0h1v1h-1zm10 0h1v14h-1zm1 0h1v14h-1zm4 0h4v1h-4zm4 0h1v2h-1zM72 61h1v26h-1z"/><path d="M109 61h36v9h-36zm36 0h1v36h-1zm36 0h1v1h-1zm3 0h3v1h-3zm3 0h1v13h-1zm11 0h1v1h-1zm1 0h1v1h-1zm3 0h2v1h-2zm2 0h1v13h-1zm10 0h2v1h-2zm2 0h1v1h-1zm3 0h2v1h-2zm2 0h1v2h-1zm9 0h1v5h-1zm16 0h2v1h-2zm2 0h1v1h-1zm5 0h2v1h-2zm2 0h1v2h-1zm6 0h8v1h-8zm8 0h1v1h-1zm16 0h2v1h-2zm2 0h1v1h-1zm3 0h3v1h-3zm3 0h1v2h-1zm12 0h1v1h-1zm1 0h5v1h-5zm5 0h1v13h-1zM73 62h1v27h-1z"/><path d="M108 62h39v8h-39zm39 0h1v33h-1zm31 0h1v2h-1zm1 0h1v1h-1zm17 0h1v12h-1zm1 0h1v1h-1zm8 0h1v12h-1zm8 0h1v2h-1zm1 0h1v1h-1zm8 0h1v11h-1zm1 0h1v10h-1zm22 0h2v1h-2zm2 0h1v1h-1zm9 0h1v12h-1zm28 0h1v11h-1zm1 0h1v1h-1zm9 0h1v11h-1zm9 0h1v1h-1zm1 0h1v1h-1zm6 0h2v1h-2zm2 0h1v12h-1zm-100 1h1v8h-1z"/><path d="M221 63h2v1h-2zm8 0h2v1h-2zm2 0h1v5h-1zm7 0h1v3h-1zm17 0h1v1h-1zm28 0h2v8h-2zm2 0h1v1h-1zm8 0h1v1h-1zm10 0h1v1h-1zM74 64h1v26h-1zm33 0h41v6h-41zm41 0h1v30h-1zm30 0h1v1h-1zm10 0h1v10h-1zm25 0h1v1h-1zm11 0h1v6h-1zm15 0h1v1h-1zm56 0h1v6h-1zM75 65h1v26h-1z"/><path d="M106 65h43v5h-43zm43 0h1v27h-1zm62 0h1v4h-1zM76 66h1v27h-1z"/><path d="M105 66h44v4h-44zm125 0h2v1h-2zm2 0h1v5h-1zm5 0h1v2h-1zm1 0h1v1h-1zm11 0h7v1h-7zm-99 1h1v24h-1zm97 0h1v1h-1zm1 0h1v1h-1zm7 0h1v5h-1zM77 68h1v26h-1zm154 0h1v1h-1zm6 0h1v1h-1zm8 0h2v5h-2zm2 0h1v1h-1zM78 69h1v27h-1z"/><path d="M104 69h46v1h-46zm107 0h1v1h-1zM5 70h74v1H5zm74 0h1v27h-1zm25 0h47v1h-47zm47 0h1v18h-1zm62 0h1v3h-1zm11 0h1v1h-1zm12 0h1v1h-1zm8 0h2v2h-2zm51 0h1v1h-1zM6 71h73v1H6zm98 0h20v1h-20zm20 0h1v1h-1zm7 0h20v1h-20zm81 0h1v1h-1zm20 0h1v1h-1zm1 0h1v3h-1zm3 0h1v1h-1zm30 0h1v3h-1zm17 0h2v1h-2zm2 0h1v2h-1zm8 0h1v2h-1zM8 72h29v1H8z"/><path d="M37 72h43v1H37zm43 0h1v26h-1zm23 0h19v1h-19zm19 0h1v1h-1zm10 0h19v1h-19zm82 0h1v1h-1zm7 0h2v1h-2zm2 0h1v1h-1zm11 0h1v2h-1zm1 0h1v2h-1zm9 0h2v1h-2zm10 0h2v1h-2zM19 73h18v28H19zm18 0h1v30h-1zm14 0h29v11H51zm52 0h18v1h-18zm18 0h1v1h-1zm13 0h18v1h-18zm18 0h1v12h-1zm61 0h2v1h-2zm2 0h1v1h-1zm5 0h2v1h-2zm2 0h1v1h-1zm23 0h2v1h-2zm2 0h1v1h-1zm5 0h1v1h-1zm12 0h2v1h-2zm20 0h2v1h-2zm2 0h1v1h-1zm6 0h2v1h-2zm2 0h1v1h-1zM81 74h39v3H81zm39 0h1v1h-1zm15 0h17v1h-17zm32 0h2v1h-2zm2 0h1v1h-1zm8 0h1v1h-1zm1 0h1v1h-1zm8 0h2v1h-2zm2 0h1v1h-1zm6 0h2v1h-2zm2 0h1v1h-1zm8 0h1v1h-1zm1 0h1v1h-1zm10 0h5v1h-5zm5 0h1v1h-1zm13 0h2v1h-2zm2 0h1v1h-1zm11 0h5v1h-5zm5 0h1v1h-1zm5 0h1v1h-1zm1 0h1v1h-1zm9 0h4v1h-4zm4 0h1v1h-1zm5 0h2v1h-2zm2 0h1v1h-1zm9 0h5v1h-5zm5 0h1v1h-1zm10 0h1v1h-1zm1 0h1v1h-1zm9 0h1v1h-1zm1 0h1v1h-1zm-175 1h15v13h-15zm-56 2h38v7H81zm38 0h1v1h-1zm34 2h1v1h-1zm-34 2h1v22h-1z"/><path d="M51 84h69v1H51zm69 0h1v19h-1zm15 0h17v4h-17zm35 0h4v1h-4zm4 0h1v1h-1zm39 0h2v19h-2zm2 0h1v19h-1zm7 0h2v1h-2zm2 0h1v1h-1zm9 0h5v1h-5zm5 0h1v1h-1zM51 85h17v16H51zm30 0h19v15H81z"/><path d="M103 85h18v2h-18zm18 0h1v19h-1zm13 0h18v3h-18zm18 0h1v1h-1zm17 0h1v18h-1zm1 0h1v1h-1zm52 0h2v1h-2zm2 0h1v1h-1zm8 0h1v18h-1zm1 0h1v1h-1zM71 86h29v1H71zm51 0h1v18h-1z"/><path d="M132 86h19v5h-19zm38 0h1v1h-1zm63 0h1v1h-1zM72 87h28v1H72zm31 0h21v1h-21zm21 0h1v17h-1z"/><path d="M131 87h20v4h-20zm37 0h1v16h-1z"/><path d="M104 88h47v1h-47zm47 0h1v1h-1zm-78 1h27v1H73zm31 0h46v1h-46zm62 0h7v1h-7zm7 0h1v1h-1zm8 0h5v1h-5zm5 0h1v1h-1zm9 0h2v14h-2zm2 0h1v1h-1zm4 0h1v1h-1zm1 0h1v1h-1zm20 0h2v14h-2zm2 0h1v14h-1zm5 0h7v1h-7zm7 0h1v1h-1zm8 0h5v1h-5zm5 0h1v1h-1zM74 90h26v1H74zm31 0h45v2h-45zm61 0h7v1h-7zm7 0h1v1h-1zm7 0h2v1h-2zm2 0h1v1h-1zm3 0h3v1h-3zm3 0h1v3h-1zm12 0h2v1h-2zm2 0h1v1h-1zm27 0h7v1h-7zm7 0h1v1h-1zm6 0h2v1h-2zm2 0h1v1h-1zm4 0h2v1h-2zm2 0h1v1h-1zM75 91h25v1H75zm75 0h1v1h-1zm20 0h1v4h-1zm9 0h2v1h-2zm2 0h1v1h-1z"/><path d="M187 91h2v1h-2zm2 0h1v10h-1zm10 0h1v1h-1zm1 0h1v1h-1zm41 0h2v2h-2zm2 0h1v1h-1zm7 0h1v1h-1zm1 0h1v5h-1zm-146 1h44v1h-44zm44 0h1v1h-1zm29 0h2v9h-2zm2 0h1v1h-1zm18 0h1v1h-1zm1 0h1v1h-1zM76 93h24v1H76zm30 0h42v1h-42zm82 0h1v1h-1zm9 0h1v10h-1zm43 0h2v7h-2zm2 0h1v1h-1zm10 0h1v3h-1zM77 94h23v1H77zm30 0h41v1h-41zm41 0h1v1h-1zm42 0h1v5h-1zm-83 1h40v1h-40zm40 0h1v1h-1zm23 0h1v8h-1zm-92 1h22v1H78zm30 0h38v1h-38zm38 0h1v1h-1z"/><path d="M177 96h2v1h-2zm65 0h11v1h-11zm11 0h1v1h-1zM79 97h21v1H79zm30 0h36v1h-36zm36 0h1v1h-1zm32 0h2v1h-2zm-97 1h20v1H80zm30 0h34v1h-34zm34 0h1v1h-1zm-33 1h32v1h-32zm32 0h1v1h-1zm47 0h1v1h-1zm-109 1h19v1H81zm31 0h30v1h-30zm30 0h1v1h-1zm46 0h1v2h-1zm52 0h2v1h-2zm2 0h1v2h-1zm-223 1h18v1H19zm32 0h17v1H51zm32 0h17v1H83zm32 0h25v1h-25zm25 0h1v1h-1zm38 0h2v1h-2zm2 0h1v2h-1z"/><path d="M187 101h2v1h-2zm2 0h1v1h-1zm52 0h2v1h-2zm2 0h1v2h-1zm8 0h1v1h-1zm1 0h1v1h-1zm-232 1h17v1H20zm32 0h16v1H52zm32 0h16v1H84zm32 0h22v1h-22zm22 0h1v1h-1zm41 0h2v1h-2zm2 0h1v1h-1zm5 0h2v1h-2zm2 0h1v1h-1zm54 0h1v1h-1zm8 0h1v1h-1zm1 0h1v1h-1zm-230 1h16v1H21zm16 0h1v1h-1zm16 0h15v1H53zm15 0h1v1h-1zm17 0h15v1H85zm15 0h1v1h-1zm18 0h18v1h-18zm18 0h1v1h-1zm32 0h2v1h-2zm2 0h1v1h-1zm10 0h7v1h-7zm7 0h1v1h-1zm8 0h2v1h-2zm2 0h1v1h-1zm16 0h2v1h-2zm2 0h1v1h-1zm7 0h2v1h-2zm2 0h1v1h-1zm8 0h1v1h-1zm11 0h7v1h-7zm7 0h1v1h-1zm-129 1h12v1h-12zm12 0h1v1h-1zm49 0h3v1h-3zm3 0h1v1h-1zm59 0h4v1h-4zm4 0h1v1h-1z"/><path d="M135 54h1v1h-1zm48 5h1v1h-1zm18 0h1v1h-1zm1 0h1v1h-1zm-6 2h1v1h-1zm100 4h1v1h-1zm-192 2h1v1h-1zm107 4h1v1h-1zm-58 4h1v1h-1zm81 8h1v1h-1zm-3 3h1v1h-1zM71 87h1v1h-1zm81 0h1v1h-1zm-1 3h1v1h-1zm-8 10h1v1h-1zm109 2h1v1h-1z" fill="#595d6a"/><path d="M116 55h1v1h-1zm146 4h1v1h-1zm-82 1h1v1h-1zm41 5h1v1h-1zm32 6h1v1h-1zm34 1h1v1h-1zM165 91h1v1h-1zm20 0h1v1h-1zm50 0h1v1h-1zm-48 8h1v1h-1z" fill="#c6c6c6"/><path d="M115 56h1v1h-1zm-2 1h1v1h-1zm-12 2h1v10h-1zm97 3h1v1h-1zm97 0h1v1h-1zM75 64h1v1h-1zm207 0h1v1h-1zm-28 1h1v1h-1zm-21 3h1v1h-1zm-132 1h1v1h-1zm115 6h1v1h-1zm34 0h1v1h-1zm-76 10h1v1h-1zm64 0h1v1h-1zm-109 2h1v1h-1zm-28 3h1v13h-1zm97 4h1v1h-1zm-50 1h1v1h-1zm43 1h1v1h-1zm0 1h1v1h-1zm-90 6h1v1h-1z" fill="#64656b"/><path d="M266 57h1v1h-1zm-36 3h1v1h-1zm36 2h1v7h-1zm0 7h1v1h-1z" fill="#0a132a"/><path d="M204 60h1v1h-1zm-21 1h1v1h-1zm54 8h1v1h-1zm-134 2h1v1h-1zm192 0h1v1h-1zm-143 1h1v1h-1zm131 0h1v1h-1zm-28 2h1v1h-1zm-87 12h1v1h-1zm9 12h1v1h-1zm67 4h1v1h-1zm-207 2h1v1h-1zm149 0h1v1h-1zm36 0h1v1h-1z" fill="#0b101c"/><path d="M227 61h1v1h-1zm-20 3h1v1h-1zm18 0h1v1h-1zm8 2h1v1h-1zM81 71h1v1h-1zm162 1h1v1h-1zm52 1h1v1h-1zM171 92h1v1h-1zm-23 4h1v1h-1zm103 3h1v1h-1z" fill="#dfe2ee"/><path d="M83 54h1v1h-1zm172 6h1v1h-1zm-107 3h1v1h-1zm-42 1h1v1h-1zm100 1h1v8h-1zm76 0h1v1h-1zm-131 3h1v1h-1zm55 5h1v1h-1zm63 0h1v1h-1zm-17 1h1v1h-1zm-132 1h1v1h-1zm49 9h1v1h-1zm66 1h1v1h-1zm-4 2h1v1h-1zm-66 2h1v1h-1zm22 0h1v1h-1zm-22 1h1v1h-1zm14 0h1v1h-1zm-75 1h1v1h-1zm135 5h1v1h-1zm3 1h1v1h-1zm-97 1h1v1h-1zm-65 1h1v1h-1zm64 0h1v1h-1zm-3 2h1v1h-1zm90 3h1v1h-1z" fill="#3d4049"/><path d="M114 57h1v1h-1zm29 1h1v1h-1zm1 1h1v1h-1zm-40 9h1v1h-1zm128 4h1v1h-1zm1 16h1v1h-1zm-82 1h1v1h-1zm23 1h1v1h-1zm79 5h1v1h-1zm-63 5h1v1h-1zm60 1h1v1h-1zm-82 3h2v1h-2zm2 0h1v1h-1zm43 0h1v1h-1z" fill="#1c1e25"/><path d="M216 59h1v1h-1zm3 0h1v1h-1zm30 0h1v1h-1zm-5 4h1v1h-1zm3 0h1v1h-1zM135 77h1v1h-1zm38 8h1v1h-1zm-71 1h1v1h-1zm100 2h1v1h-1z" fill="#808597"/><path d="M224 62h1v1h-1zm4 1h1v1h-1zm-43 1h1v1h-1zm119 0h1v1h-1zm-68 2h1v1h-1zm45 0h1v2h-1zm-178 2h1v1h-1zm178 0h1v1h-1zm-46 1h1v1h-1zm8 1h1v1h-1zm20 2h1v1h-1zm-64 17h1v1h-1zm-48 2h1v1h-1zm-71 9h1v1h-1zm111 0h1v1h-1zm49 2h1v1h-1zm-51 1h1v1h-1z" fill="#c4c8d6"/><path d="M238 62h1v1h-1zm45 0h1v1h-1zm30 2h1v1h-1z" fill="#2f384f"/><path d="M126 53h3v1h-3zm3 0h1v1h-1zm174 7h1v1h-1zm-10 6h1v2h-1zm-42 1h1v1h-1zm42 1h1v1h-1zm-39 2h1v1h-1zm-39 2h1v1h-1zm5 0h1v1h-1zm-3 1h1v1h-1zm-2 10h1v1h-1zm7 0h2v1h-2zm2 0h1v1h-1zm20 8h1v1h-1zm-5 3h1v1h-1zm-48 1h1v1h-1zm-81 4h1v1h-1zm72 3h1v1h-1zm-56 3h2v1h-2zm2 0h1v1h-1z" fill="#737373"/><path d="M67 55h1v1h-1zm151 6h1v1h-1zm85 13h1v1h-1zm-75 15h1v1h-1zm19 1h1v1h-1zm-5 4h1v1h-1zm-54 3h1v1h-1zm-75 4h1v1h-1z" fill="#4c4c4c"/><path d="M100 55h1v1h-1zm45 4h1v1h-1zm103 0h1v1h-1zm6 0h1v1h-1zm-41 1h1v1h-1zm25 0h1v1h-1zm-50 1h1v1h-1zm66 3h1v1h-1zm-44 1h1v1h-1zm-31 2h1v7h-1zm31 2h1v1h-1zM4 70h1v1H4zm230 0h1v1h-1zm-23 2h1v1h-1zm-58 1h1v1h-1zm26 1h1v1h-1zm27 1h1v1h-1zm40 0h1v1h-1zm57 0h1v1h-1zm-168 4h1v1h-1zm-1 4h1v1h-1zm19 2h1v1h-1zm71 1h1v1h-1zm-122 1h1v1h-1zm132 0h1v1h-1zm-52 1h1v1h-1zm19 0h1v1h-1zm47 0h1v1h-1zM72 89h1v1h-1zm168 2h1v1h-1zm-6 1h1v11h-1zm19 0h1v1h-1zM75 93h1v1h-1zm101 2h1v1h-1zm22 1h1v6h-1zm-22 2h1v1h-1zm-95 3h1v1h-1zm61 0h1v1h-1zm-28 1h1v1h-1zm84 0h1v1h-1zm36 1h1v1h-1zm16 1h1v1h-1z" fill="#aeb0b7"/><path d="M101 56h1v1h-1zm98 6h1v1h-1zm8 1h1v1h-1zm3 0h1v1h-1zm30 1h1v1h-1zm4 0h1v1h-1zm5 1h1v1h-1zM79 68h1v1h-1zm73 0h1v1h-1zm83 0h1v1h-1zm-5 2h1v1h-1zm8 0h1v1h-1zm-28 1h1v1h-1zm57 0h1v1h-1zm-138 1h1v1h-1zm-8 3h1v1h-1zm86 0h1v1h-1zm25 0h1v1h-1zm4 0h1v1h-1zm18 0h1v1h-1zm33 1h1v1h-1zm-167 1h1v1h-1zm0 4h1v1h-1zm1 2h1v1h-1zm55 2h1v1h-1zM69 86h1v1h-1zm156 0h1v1h-1zm-44 2h1v1h-1zm47 0h1v1h-1zm1 0h1v1h-1zm-31 2h1v1h-1zm54 0h1v1h-1zM73 91h1v1h-1zm104 0h1v1h-1zm25 1h1v1h-1zm37 0h1v1h-1zm-63 1h1v1h-1zm78 0h1v1h-1zM76 95h1v1h-1zm162 0h1v1h-1zm-46 2h1v1h-1zm62 0h1v1h-1zm-146 1h1v1h-1zm130 0h1v1h-1zm-129 1h1v1h-1zm-91 3h1v1h-1zm235 0h1v1h-1zm-75 1h1v1h-1zm4 2h1v1h-1zm66 0h1v1h-1z" fill="#edeff7"/><path d="M71 58h1v1h-1zm111 1h1v1h-1zm21 0h1v1h-1zm88 0h1v1h-1zm19 0h1v1h-1zm-83 1h1v1h-1zm25 5h1v1h-1zm-22 3h1v1h-1zM79 69h1v1h-1zm152 2h1v1h-1zM6 72h1v1H6zm125 0h1v1h-1zm45 3h1v1h-1zm20 0h1v1h-1zM70 86h1v1h-1zm61 0h1v1h-1zm54 2h1v1h-1zm60 0h1v1h-1zm-74 3h1v1h-1zm6 1h1v1h-1zm-71 3h1v1h-1zm32 8h1v1h-1zm-117 1h1v1h-1zm110 1h1v1h-1z" fill="#999ca6"/><path d="M193 60h1v14h-1zm19 1h1v1h-1zm-9 3h1v10h-1zm11 1h1v1h-1zm71 2h1v1h-1zm-31 1h1v1h-1zm37 4h1v1h-1zm-98 2h1v1h-1zm10 0h1v1h-1zm52 1h1v1h-1zm31 0h1v1h-1zm-83 14h1v1h-1zm0 1h1v1h-1zm-27 6h1v1h-1zm0 1h1v1h-1zm4 1h1v1h-1zm18 5h1v1h-1z" fill="#aaa"/><path d="M289 61h1v1h-1zm-69 1h1v1h-1zm73 3h1v1h-1zm-45 3h1v1h-1zm45 1h1v1h-1zm-5 4h1v1h-1zm-44 22h4v1h-4zm4 0h1v1h-1z" fill="#636363"/><path d="M313 63h1v1h-1zM4 69h1v1H4zm292 0h1v1h-1zm-195 4h1v1h-1zm-14 31h1v1h-1z" fill="#53596b"/><path d="M4 55h1v1H4zm262 1h1v1h-1zm-90 5h1v12h-1zm53 3h1v1h-1zm8 1h1v1h-1zm-87 1h1v1h-1zm61 4h1v1h-1zm-35 3h1v1h-1zM75 92h1v1h-1z" fill="#00081e"/><path d="M4 56h1v11H4zm262 3h1v1h-1zm-67 1h1v1h-1zm13 2h1v1h-1zM4 67h1v1H4zm242 0h1v1h-1zm20 3h1v1h-1z" fill="#0e1528"/><path d="M256 61h1v1h-1zm-77 2h1v1h-1zm67 0h1v1h-1zm50 4h1v1h-1zm-63 2h1v1h-1zM83 73h1v1h-1zm187 0h1v1h-1zm-64 1h1v1h-1zm30 9h1v1h-1zm-133 5h1v1h-1zm74 11h1v1h-1zm65 0h1v1h-1zm-54 4h1v1h-1zm-100 1h1v1h-1zm32 0h1v1h-1zm61 0h1v1h-1z" fill="#363945"/><path d="M125 53h1v1h-1zm5 0h1v1h-1zm8 2h1v1h-1zm4 2h1v1h-1zm43 2h1v1h-1zm122 0h1v1h-1zM73 61h1v1h-1zm230 0h1v1h-1zm-78 5h1v1h-1zM18 73h1v26h-1zm218 12h1v1h-1zm-56 4h1v1h-1zm70 0h1v1h-1zM73 90h1v1h-1zm-55 9h1v1h-1zm83 5h1v1h-1zm142 0h1v1h-1zm-118 1h1v1h-1z" fill="#7b7d86"/><path d="M5 54h1v1H5zm162 2h1v1h-1zm119 6h1v1h-1zM77 67h1v1h-1zm136 2h1v1h-1zm74 4h1v1h-1zM146 97h1v1h-1zm95 5h1v1h-1zm-141 2h1v1h-1z" fill="#1a1918"/><path d="M63 54h1v1h-1zm184 6h1v1h-1zm64 0h1v1h-1zm-131 1h1v1h-1zm104 0h1v1h-1zm-99 1h1v1h-1zm69 0h1v1h-1zM74 63h1v1h-1zm208 6h1v1h-1zm-47 2h1v1h-1zm22 2h1v1h-1zm-123 1h1v1h-1zm1 2h1v1h-1zm0 6h1v1h-1zm-1 2h1v1h-1zM77 95h1v1h-1zm-53 9h12v1H24zm12 0h1v1h-1zm19 0h11v1H55zm11 0h1v1h-1zm23 0h10v1H89zm10 0h1v1h-1z" fill="#333339"/><path d="M96 54h1v1h-1zm73 2h1v1h-1zm-28 1h1v1h-1zm37 4h1v1h-1zm50 0h1v1h-1zm8 7h1v1h-1zm46 0h1v1h-1zM83 71h1v1h-1zm138 3h1v1h-1zm10 14h1v1h-1zm0 4h1v11h-1zm9 0h1v1h-1zm11 8h1v1h-1zm-168 2h1v1h-1zm148 1h1v1h-1zm-208 1h1v1h-1zm44 0h1v1h-1zm129 0h1v1h-1zm18 0h1v1h-1zm9 0h1v1h-1zm9 0h1v1h-1zm17 0h1v1h-1z" fill="#2b2c30"/><path d="M99 54h1v1h-1zm175 0h1v1h-1zM82 55h1v15h-1zm192 0h1v1h-1zm-130 3h1v1h-1zm22 1h1v1h-1zm15 0h1v1h-1zm74 0h1v1h-1zm15 0h1v1h-1zm8 0h1v1h-1zm33 0h1v1h-1zm-37 1h1v14h-1zm-21 2h1v1h-1zm-104 1h1v1h-1zm40 1h1v1h-1zm57 2h1v1h-1zm51 0h1v2h-1zm0 2h1v1h-1zM82 70h1v1h-1zm48 2h1v1h-1zm3 2h1v1h-1zm141 0h1v1h-1zm-95 1h1v1h-1zm79 0h1v1h-1zM102 88h1v1h-1zm92 1h1v6h-1zm-44 4h1v1h-1zm104 1h1v1h-1zm-67 1h1v1h-1zm7 0h1v8h-1zm0 8h1v1h-1z" fill="#d9dbde"/><path d="M166 55h1v1h-1zm97 8h1v7h-1zm-42 1h1v1h-1zm64 2h1v1h-1zm-182 3h1v1h-1zm182 0h1v1h-1zm-22 1h1v1h-1zm-135 1h1v1h-1zm122 2h1v1h-1zm39 0h1v1h-1zm-76 10h1v1h-1zm1 0h1v1h-1zm-86 4h1v1h-1zm24 1h1v1h-1zm98 5h1v1h-1zm-69 8h1v1h-1z" fill="#858585"/><path d="M196 60h1v1h-1zm34 7h1v1h-1zm-13 8h1v1h-1zm-15 16h1v1h-1z" fill="#4a536d"/><path d="M294 61h1v1h-1zm-80 2h1v1h-1zm71 7h1v1h-1zm-32 2h1v1h-1zm15 1h1v1h-1zm17 1h1v1h-1zM102 85h1v1h-1zm82 5h1v1h-1zm2 1h1v1h-1zm2 4h1v1h-1zm62 0h1v1h-1zm-11 2h1v1h-1zm-59 3h1v1h-1z" fill="#474747"/><path d="M76 65h1v1h-1zm134 1h1v2h-1zm0 2h1v1h-1zm57 4h1v1h-1zm-83 16h1v1h-1zm62 0h1v1h-1zm1 0h1v1h-1zM50 100h1v1h-1zm36 4h1v1h-1z" fill="#8c92a4"/><g fill="#fff"><path d="M0 0h317v52H0zm317 0h1v158h-1zM0 52h317v1H0zm0 1h120v1H0zm120 0h1v1h-1zm14 0h32v1h-32zm32 0h151v1H166zM0 54h3v104H0zm3 0h1v104H3zm65 0h13v1H68zm13 0h1v16h-1zm19 0h16v1h-16zm16 0h1v1h-1zm22 0h27v1h-27zm27 0h1v33h-1zm6 0h93v1h-93zm93 0h1v1h-1zm3 0h6v1h-6zm6 0h1v104h-1zm6 0h38v3h-38zM69 55h12v1H69zm32 0h13v1h-13zm13 0h1v1h-1zm27 0h24v1h-24zm30 0h91v2h-91zm91 0h1v3h-1zm6 0h5v3h-5zM70 56h11v1H70zm32 0h11v1h-11zm11 0h1v1h-1zm29 0h23v1h-23zm-71 1h10v1H71zm31 0h9v1h-9zm9 0h1v1h-1zm32 0h22v1h-22zm27 0h92v1h-92zm104 0h1v1h-1zm5 0h38v1h-38zM72 58h9v1h-9zm30 0h8v1h-8zm8 0h1v1h-1z"/><path d="M145 58h37v1h-37zm37 0h1v1h-1zm4 0h14v1h-14zm14 0h1v1h-1zm3 0h12v1h-12zm12 0h1v1h-1zm5 0h28v1h-28zm28 0h1v1h-1zm6 0h8v1h-8zm8 0h1v1h-1zm5 0h20v1h-20zm20 0h1v1h-1zm4 0h15v1h-15zm15 0h1v1h-1zm4 0h7v1h-7zM73 59h8v1h-8zm29 0h7v1h-7zm7 0h1v1h-1zm37 0h19v1h-19zm25 0h3v22h-3zm3 0h1v22h-1zm6 0h1v1h-1zm8 0h4v1h-4zm4 0h1v35h-1zm5 0h1v1h-1zm1 0h1v1h-1zm7 0h8v1h-8zm8 0h1v1h-1zm9 0h4v1h-4zm4 0h1v99h-1zm6 0h5v2h-5zm5 0h1v1h-1zm5 0h4v1h-4zm4 0h1v1h-1zm10 0h3v1h-3zm3 0h1v99h-1zm12 0h2v13h-2zm8 0h5v1h-5zm5 0h1v1h-1zm10 0h5v1h-5zm5 0h1v99h-1zm5 0h1v1h-1zm8 0h5v1h-5zM74 60h7v1h-7zm28 0h6v1h-6zm6 0h1v1h-1zm39 0h18v1h-18zm42 0h3v1h-3zm8 0h1v1h-1zm9 0h6v1h-6zm6 0h1v1h-1zm11 0h3v1h-3zm14 0h1v1h-1zm5 0h2v8h-2zm2 0h1v1h-1zm13 0h2v1h-2zm22 0h4v2h-4zm4 0h1v1h-1zm12 0h4v1h-4zm18 0h4v1h-4zM74 61h7v1h-7zm28 0h5v1h-5zm5 0h1v1h-1zm41 0h17v1h-17zm41 0h3v1h-3zm18 0h4v1h-4zm4 0h1v1h-1zm13 0h2v1h-2zm8 0h4v1h-4zm4 0h1v4h-1zm8 0h1v1h-1zm14 0h1v1h-1zm37 0h4v1h-4zm19 0h3v97h-3zM75 62h6v1h-6zm27 0h4v1h-4zm4 0h1v1h-1zm43 0h16v1h-16zm33 0h1v25h-1zm1 0h1v25h-1zm7 0h2v28h-2zm10 0h1v25h-1zm1 0h1v25h-1zm6 0h3v1h-3zm3 0h1v1h-1zm7 0h1v10h-1zm1 0h1v10h-1z"/><path d="M225 62h2v1h-2zm2 0h1v96h-1zm6 0h3v3h-3zm8 0h2v26h-2zm8 0h3v2h-3zm3 0h1v2h-1zm6 0h4v1h-4zm4 0h1v96h-1zm5 0h6v1h-6zm12 0h3v2h-3zm3 0h1v1h-1zm6 0h2v10h-2zm2 0h1v10h-1zm6 0h3v1h-3zm10 0h2v96h-2zm2 0h1v96h-1zM76 63h5v1h-5zm26 0h3v2h-3zm3 0h1v1h-1zm45 0h15v1h-15zm31 0h3v24h-3zm3 0h1v24h-1zm14 0h3v24h-3zm10 0h1v95h-1zm1 0h1v95h-1zm7 0h3v8h-3zm3 0h1v8h-1zm6 0h2v1h-2z"/><path d="M248 63h5v1h-5zm5 0h1v1h-1zm7 0h2v95h-2zm8 0h5v9h-5zm19 0h4v8h-4zm4 0h1v8h-1zm6 0h2v1h-2zm12 0h1v95h-1zM77 64h4v1h-4zm74 0h14v1h-14zm29 0h4v23h-4zm22 0h1v23h-1zm13 0h5v6h-5zm5 0h1v6h-1zm8 0h1v23h-1zm20 0h5v1h-5zm5 0h1v1h-1zm26 0h2v94h-2zm2 0h1v1h-1zm16 0h2v1h-2zm8 0h4v94h-4zM77 65h4v1h-4zm25 0h2v2h-2zm2 0h1v1h-1zm47 0h14v1h-14zm82 0h3v1h-3zm3 0h1v1h-1zm4 0h8v1h-8zm8 0h1v1h-1zm50 0h1v93h-1zM78 66h3v1h-3zm74 0h13v1h-13zm82 0h1v2h-1zm1 0h1v1h-1zm5 0h5v1h-5zm5 0h1v1h-1zm47 0h1v2h-1zM79 67h2v1h-2zm23 0h1v2h-1zm1 0h1v1h-1zm49 0h13v1h-13zm83 0h1v1h-1zm5 0h4v1h-4zm4 0h1v1h-1z"/><path d="M286 67h5v1h-5zM80 68h1v1h-1zm73 0h12v2h-12zm76 0h1v19h-1zm5 0h1v1h-1zm6 0h3v20h-3zm3 0h1v1h-1zm9 0h1v3h-1zm1 0h1v2h-1zm33 0h6v1h-6zm6 0h1v1h-1zM80 69h1v1h-1zm22 0h1v1h-1z"/><path d="M239 69h3v13h-3zm10 0h4v2h-4zM81 70h1v1h-1zm72 0h12v1h-12zm62 0h5v1h-5zm5 0h1v1h-1z"/><path d="M248 70h5v1h-5zm5 0h1v1h-1zm28 0h1v88h-1zm-127 1h11v2h-11zm62 0h3v1h-3zm3 0h1v1h-1zm6 0h5v11h-5zm5 0h1v14h-1zm8 0h4v10h-4zm10 0h4v1h-4zm4 0h1v1h-1zm35 0h4v1h-4zm4 0h1v1h-1zm6 0h2v87h-2zM4 72h1v86H4zm206 0h1v86h-1zm7 0h1v1h-1zm1 0h1v1h-1zm31 0h2v1h-2zm2 0h1v1h-1zm17 0h5v1h-5zm20 0h2v1h-2zm2 0h1v1h-1zM5 73h1v85H5zm1 0h1v85H6zm118 0h7v12h-7zm7 0h1v12h-1zm23 0h11v1h-11zm57 0h1v85h-1zm20 0h1v10h-1z"/><path d="M237 73h6v8h-6zm6 0h1v15h-1zm29 0h1v85h-1zm10 0h1v85h-1zm14 0h3v85h-3zM7 74h10v84H7zm10 0h1v84h-1zm22 0h10v84H39zm10 0h1v84h-1zm73 0h10v10h-10zm10 0h1v10h-1zm23 0h10v14h-10zm57 0h1v8h-1zm12 0h7v7h-7zm39 0h1v84h-1zm20 0h1v84h-1z"/><path d="M295 74h4v84h-4zm-162 1h1v8h-1zm80 0h1v6h-1zm9 0h9v6h-9zm22 0h1v12h-1zm9 0h1v15h-1zm11 0h1v83h-1zm7 0h2v83h-2zm13 0h1v83h-1z"/><path d="M294 75h5v83h-5zm-173 1h12v6h-12zm45 0h49v5h-49zm49 0h1v5h-1zm5 0h26v5h-26zm26 0h1v11h-1zm5 0h14v12h-14zm14 0h1v82h-1zm9 0h12v82h-12zm12 0h1v82h-1z"/><path d="M292 76h25v82h-25zm-158 1h1v4h-1z"/><path d="M216 77h101v4H216zm-96 1h14v2h-14zm0 2h14v1h-14zm14 1h1v1h-1zm32 0h151v1H166zm-45 1h12v1h-12zm45 0h4v1h-4zm4 0h1v1h-1zm6 0h36v1h-36zm36 0h1v1h-1zm4 0h5v1h-5zm5 0h1v1h-1zm4 0h8v1h-8zm8 0h1v1h-1zm6 0h78v1h-78zm-106 1h1v1h-1zm33 0h2v1h-2zm2 0h1v1h-1zm9 0h34v4h-34zm40 0h3v75h-3zm3 0h1v75h-1zm11 0h1v1h-1zm14 0h72v4h-72zm-123 1h10v1h-10zm10 0h1v1h-1zm34 0h1v4h-1zm1 0h1v1h-1zm-43 1h7v1h-7zm7 0h1v1h-1zm23 0h12v2h-12zm76 0h1v1h-1z"/><path d="M172 86h39v1h-39zm64 0h81v1h-81zm-82 1h12v1h-12zm18 0h39v1h-39zm49 0h8v1h-8zm8 0h1v1h-1zm6 0h82v1h-82zm-82 1h11v70h-11zm11 0h2v1h-2zm2 0h1v1h-1zm6 0h1v1h-1zm3 0h5v1h-5zm5 0h1v1h-1zm7 0h7v1h-7zm7 0h1v1h-1zm4 0h1v1h-1zm1 0h1v1h-1zm5 0h7v70h-7zm21 0h2v1h-2zm10 0h1v1h-1zm3 0h5v1h-5zm5 0h1v1h-1zm7 0h67v1h-67zM70 89h1v69h-1zm1 0h1v69h-1zm31 0h1v69h-1zm74 0h2v1h-2zm2 0h1v1h-1zm11 0h4v1h-4zm4 0h1v69h-1zm5 0h1v1h-1zm41 0h2v1h-2zm2 0h1v1h-1zm11 0h65v1h-65zM72 90h1v68h-1z"/><path d="M152 90h11v68h-11zm24 0h1v2h-1zm1 0h1v1h-1zm13 0h3v1h-3zm49 0h1v1h-1zm1 0h1v1h-1zm13 0h64v1h-64zm-78 1h1v67h-1zm16 0h2v1h-2zm48 0h1v1h-1zm15 0h63v1h-63zM73 92h1v66h-1zm30 0h1v66h-1z"/><path d="M151 92h15v66h-15zm15 0h1v66h-1zm6 0h4v66h-4zm4 0h1v1h-1zm6 0h3v8h-3zm3 0h1v9h-1zm43 0h1v66h-1zm1 0h1v66h-1zm6 0h3v66h-3zm3 0h1v2h-1zm7 0h3v1h-3zm3 0h1v1h-1zm6 0h63v1h-63zM74 93h1v65h-1zm30 0h1v65h-1zm82 0h1v7h-1zm14 0h11v65h-11zm44 0h5v1h-5zm5 0h1v1h-1zm6 0h62v65h-62z"/><path d="M150 94h16v64h-16zm31 0h5v4h-5zm11 0h1v1h-1zm7 0h12v64h-12zm39 0h1v1h-1zM75 95h1v63h-1zm30 0h1v63h-1zm-29 1h1v62h-1zm30 0h1v62h-1z"/><path d="M149 96h17v62h-17zm-72 1h1v61h-1zm30 0h1v61h-1z"/><path d="M148 97h18v61h-18z"/><path d="M147 98h19v60h-19zm34 0h5v1h-5zm63 0h73v1h-73zM78 99h1v59h-1zm30 0h1v59h-1z"/><path d="M146 99h20v59h-20zm46 0h1v59h-1zm46 0h1v59h-1zm6 0h5v1h-5zm5 0h1v1h-1zm3 0h65v1h-65zm-173 1h1v58h-1zm30 0h1v58h-1zm1 0h1v58h-1z"/><path d="M145 100h21v58h-21zm37 0h4v1h-4zm4 0h1v1h-1zm58 0h5v1h-5zm5 0h1v1h-1zm-169 1h1v57h-1zm31 0h1v57h-1z"/><path d="M143 101h23v57h-23zm33 0h1v57h-1zm7 0h2v1h-2zm2 0h1v1h-1zm6 0h2v57h-2zm48 0h1v57h-1zm6 0h3v1h-3zm3 0h1v1h-1zm6 0h63v57h-63zm-173 1h1v56h-1zm31 0h1v56h-1z"/><path d="M142 102h24v56h-24zm35 0h1v56h-1zm-159 1h1v55h-1zm32 0h1v55h-1zm32 0h1v55h-1zm31 0h1v55h-1zm1 0h1v55h-1z"/><path d="M140 103h26v55h-26zm50 0h3v55h-3zm50 0h1v55h-1zm13 0h64v55h-64zm-234 1h1v54h-1zm32 0h1v54h-1zm32 0h1v54h-1zm32 0h1v54h-1zm1 0h1v54h-1z"/><path d="M138 104h28v54h-28zm40 0h1v54h-1zm1 0h1v54h-1zm10 0h4v54h-4zm52 0h1v54h-1zm11 0h65v54h-65zm-232 1h100v53H20zm100 0h1v53h-1z"/><path d="M134 105h47v53h-47zm47 0h1v53h-1zm5 0h58v53h-58zm58 0h1v53h-1zm5 0h68v53h-68z"/><path d="M121 106h196v52H121zM0 158h317v1H0zm317 0h1v1h-1z"/></g><path d="M82 54h1v1h-1zm192 2h1v1h-1zm-107 1h1v1h-1zm110 0h1v1h-1zm-84 2h1v1h-1zm107 0h1v1h-1zm-85 4h1v1h-1zm6 3h1v2h-1zm-7 1h1v1h-1zm0 1h1v1h-1zm7 0h1v1h-1zm29 0h1v1h-1zM82 71h1v1h-1zm166 1h1v1h-1zm-94 6h1v2h-1zm0 2h1v1h-1zm58 5h1v19h-1zm-45 1h1v1h-1zm79 5h1v1h-1zm1 0h1v1h-1zm-61 1h1v1h-1zm57 1h1v1h-1zm0 1h1v1h-1zm-56 2h1v1h-1zm0 1h1v1h-1zm57 4h1v1h-1zm-159 3h1v1h-1zm127 0h1v1h-1z" fill="#e0e0e0"/><path d="M140 56h1v1h-1zm-31 4h1v1h-1zm184 0h1v1h-1zm-36 2h1v1h-1zm47 1h1v1h-1zm-152 7h1v1h-1zm83 0h1v1h-1zm-109 1h1v1h-1zm-76 2h1v26h-1zm163 1h1v1h-1zm78 1h1v1h-1zM122 85h1v1h-1zm53 0h1v1h-1zm16 13h1v1h-1zM50 99h1v1h-1z" fill="#7c7e84"/><path d="M101 57h1v1h-1zm45 3h1v1h-1zm51 1h1v1h-1zm47 1h1v1h-1zm69 0h1v1h-1zm-128 1h1v1h-1zm-34 4h1v1h-1zm82 0h1v1h-1zm11 1h1v1h-1zm-19 1h1v1h-1zm57 2h1v1h-1zm-46 3h1v1h-1zm-116 2h1v1h-1zm0 6h1v1h-1zm119 11h1v1h-1zm-90 1h1v1h-1zm49 1h1v1h-1zm-145 9h1v1h-1zm66 0h1v1h-1z" fill="#979dad"/><path d="M102 70h1v1h-1zm110 13h1v1h-1zm19 1h1v1h-1zm-1 2h1v1h-1zm-57 2h1v1h-1zm1 0h1v1h-1zm21 0h2v1h-2zm2 0h1v1h-1zm25 0h2v1h-2zm2 0h1v1h-1zm12 0h1v1h-1zm1 0h1v1h-1z" fill="#eaeefb"/><path d="M123 53h1v1h-1zm-4 1h1v1h-1zm28 7h1v1h-1zm76 0h1v1h-1zm8 0h1v1h-1zM74 62h1v1h-1zm128 0h1v1h-1zm30 2h1v1h-1zm-53 1h1v1h-1zm46 0h1v1h-1zm7 9h1v1h-1zm32 0h1v1h-1zm-130 1h1v1h-1zm179 0h1v1h-1zm-178 3h1v1h-1zM78 97h1v1h-1zm4 5h1v1h-1zm41 3h1v1h-1z" fill="#a7acba"/><path d="M64 54h1v1h-1zm244 5h1v1h-1zM72 60h1v1h-1zm142 0h1v1h-1zm7 0h1v1h-1zm-33 2h1v1h-1zm43 0h1v1h-1zm9 0h1v1h-1zm-34 2h1v1h-1zm97 1h1v1h-1zm-200 5h1v1h-1zm134 0h1v1h-1zm-112 1h1v1h-1zm27 0h1v1h-1zm82 0h1v1h-1zm-132 2h1v1h-1zm130 0h1v1h-1zm21 0h1v1h-1zm-35 2h1v1h-1zm30 0h1v1h-1zm19 0h2v1h-2zm2 0h1v1h-1zm19 0h2v1h-2zm2 0h1v1h-1zm-119 8h1v1h-1zm3 0h1v1h-1zm-73 2h1v1h-1zm24 2h1v1h-1zm74 3h1v1h-1zm-21 1h1v1h-1zm12 1h1v1h-1zm-13 1h1v1h-1zm-62 9h1v1h-1zm136 1h1v1h-1zm-229 1h1v1h-1zm32 0h1v1h-1z" fill="#4b4f5c"/><path d="M137 55h1v1h-1zm-69 1h1v1h-1zm218 4h1v1h-1zm-104 1h1v1h-1zm6 2h1v1h-1zm60 3h1v1h-1zm-15 4h1v1h-1zm-21 2h1v1h-1zm-59 6h1v1h-1zm80 9h1v1h-1zm0 4h1v11h-1zm-84 2h1v1h-1zm28 2h1v1h-1zm-95 6h1v1h-1zm151 1h1v1h-1z" fill="#000515"/><path d="M263 55h1v1h-1zm-49 4h1v1h-1zm7 0h1v1h-1zm63 1h1v1h-1zm-47 2h1v1h-1zm-5 1h1v1h-1zm26 0h1v1h-1zm-13 1h1v1h-1zm36 1h1v1h-1zm16 0h1v1h-1zm7 0h1v1h-1zM78 67h1v1h-1zm161 0h1v1h-1zm58 2h1v1h-1zm-172 3h1v1h-1zm169 2h1v1h-1zm-109 1h1v1h-1zm4 0h1v1h-1zm63 0h1v1h-1zm33 0h1v1h-1zm-68 1h1v1h-1zm1 0h1v1h-1zm30 0h1v1h-1zm1 0h1v1h-1zm18 0h2v1h-2zm2 0h1v1h-1zm19 0h2v1h-2zm2 0h1v1h-1zm-136 1h1v1h-1zm0 4h1v1h-1zm17 1h3v1h-3zm3 0h1v1h-1zm60 0h1v1h-1zm1 0h2v1h-2zm2 0h1v1h-1zm-12 1h1v1h-1zm14 0h1v2h-1zm-27 1h1v1h-1zm27 1h1v1h-1zm-114 1h1v1h-1zm28 1h1v1h-1zm11 2h1v1h-1zm15 0h1v1h-1zm-15 1h1v1h-1zm74 6h1v1h-1zm-91 1h1v1h-1zm91 0h1v1h-1zM79 99h1v1h-1zm164 0h1v1h-1zm11 1h1v1h-1zm-113 2h1v1h-1zm49 0h1v1h-1zm-75 1h1v1h-1zm137 0h1v1h-1zm-232 1h1v1h-1zm98 0h1v1h-1zm53 0h1v1h-1zm23 0h1v1h-1zm48 0h1v1h-1zm-109 1h1v1h-1z" fill="#e2e4e9"/><path d="M263 56h1v1h-1zm0 1h1v1h-1zm-12 8h1v1h-1zm-8 6h1v1h-1z" fill="#afb6cd"/><path d="M215 59h1v1h-1zm5 0h1v1h-1zm66 4h1v1h-1zm-107 3h1v1h-1zm68 5h1v1h-1zm39 0h1v1h-1zm6 4h1v1h-1zM189 90h1v1h-1zm-7 1h1v1h-1zm66 0h1v1h-1zm-67 1h1v1h-1zm19 0h1v1h-1zm-13 1h1v1h-1zm-7 2h1v2h-1zm0 2h1v1h-1zm-64 6h1v1h-1z" fill="#b3b3b3"/><path d="M4 54h1v1H4zm116 0h1v1h-1zm132 7h1v1h-1zm-55 2h1v1h-1zm99 5h1v1h-1zM7 72h1v1H7zm76 0h1v1h-1zm70 4h1v1h-1zm-33 7h1v1h-1zm52 0h1v1h-1zm1 0h1v1h-1zm62 0h1v1h-1zm18 11h1v1h-1zm-13 7h1v1h-1z" fill="#3c404c"/><path d="M117 55h1v1h-1zm149 0h1v1h-1zm-16 4h1v2h-1zm40 0h1v1h-1zm-45 2h1v1h-1zm5 0h1v1h-1zm-22 1h1v1h-1zm-17 1h1v1h-1zm25 4h1v1h-1zM5 71h1v1H5zm124 0h1v1h-1zm-48 1h1v1h-1zm157 11h1v1h-1zm-70 2h1v1h-1zm66 1h1v1h-1zm18 5h1v1h-1zm1 2h1v1h-1z" fill="#676c7a"/><path d="M101 58h1v1h-1zm162 1h1v1h-1zm22 1h1v1h-1zm-79 2h1v1h-1zm-57 2h1v1h-1zm-48 7h1v1h-1zm-19 2h1v1h-1zm130 0h1v1h-1zm35 2h1v1h-1zm19 0h1v1h-1zm4 0h1v1h-1zm17 0h1v1h-1zM69 85h1v1h-1zm168 0h1v1h-1zm-136 2h1v1h-1zm25 0h1v1h-1zm-23 2h1v1h-1zm95 2h1v1h-1zM79 98h1v1h-1zm160 1h1v1h-1zm14 1h1v1h-1zm-63 1h1v1h-1zm-12 1h1v1h-1zm1 1h1v1h-1zm-44 1h1v1h-1zm-6 1h1v1h-1z" fill="#73757d"/><path d="M285 65h1v1h-1zm-184 5h1v1h-1zm117 3h1v1h-1zm31 0h1v1h-1zM101 88h1v1h-1zm0 1h1v1h-1zm142 3h1v1h-1zm-63 1h1v1h-1zm63 2h1v1h-1zm6 0h1v1h-1zm-142 1h1v1h-1z" fill="#6a6a6a"/><path d="M132 53h1v1h-1zm131 5h1v1h-1zm-84 3h1v1h-1zm32 1h1v1h-1zm37 0h1v1h-1zm-8 1h1v1h-1zm42 0h1v1h-1zm-85 1h1v1h-1zm-47 1h1v1h-1zm-73 1h1v1h-1zm147 6h1v1h-1zm-89 8h1v1h-1zm81 4h1v20h-1zm-49 4h1v1h-1zm-64 2h1v1h-1zm1 2h1v1h-1zm87 1h1v1h-1zm53 4h9v1h-9zm9 0h1v1h-1zm-14 3h1v1h-1zm-221 1h1v1h-1zm159 0h1v1h-1zm39 3h1v1h-1z" fill="#adb4c4"/><path d="M6 54h56v1H6zm56 0h1v1h-1zm23 0h10v1H85zm10 0h1v1h-1zm198 10h1v1h-1zm-39 7h1v1h-1zm32 1h1v1h-1zm-38 1h1v1h-1z" fill="#2d2d2d"/><path d="M266 58h1v1h-1zM4 68h1v1H4zm309 6h1v1h-1zm-124 28h1v1h-1z" fill="#16203b"/><path d="M247 59h1v1h-1zm56 0h1v1h-1zm-128 1h1v14h-1zm56 0h1v1h-1zm29 0h1v1h-1zm0 1h1v1h-1zm-79 1h1v1h-1zm29 2h1v1h-1zm36 0h1v1h-1zm-32 2h1v1h-1zm15 0h1v1h-1zm-19 4h1v1h-1zm82 0h1v1h-1zm-160 3h1v1h-1zm126 0h1v1h-1zm-83 1h1v1h-1zm28 1h1v1h-1zm-34 8h1v1h-1zm52 0h1v1h-1zm-88 1h1v1h-1zm35 0h1v1h-1zm-36 1h1v1h-1zm-2 1h1v1h-1zm37 1h1v1h-1zm63 0h1v1h-1zm-27 1h1v1h-1zm-20 3h1v1h-1zm1 0h1v1h-1zM77 96h1v1h-1zm110 2h1v1h-1zm-42 1h1v1h-1zm-6 4h1v1h-1zm-3 1h1v1h-1zm94 0h1v1h-1z" fill="#d5d6d9"/><path d="M131 53h1v1h-1zm35 1h1v1h-1zm34 5h1v1h-1zm-13 1h1v1h-1zm54 0h1v1h-1zm5 0h1v1h-1zm32 0h1v1h-1zm26 1h1v1h-1zm-50 2h1v1h-1zm9 8h1v1h-1zm-161 1h1v1h-1zm152 1h1v1h-1zm-32 1h1v1h-1zm-51 12h1v1h-1zm12 2h1v1h-1zm-72 12h1v1h-1zm142 1h1v1h-1zm-66 3h1v1h-1z" fill="#90939a"/><path d="M251 59h1v1h-1zm38 0h1v1h-1zm-72 2h1v1h-1zm-2 1h1v1h-1zm88 4h1v7h-1zm-53 1h1v1h-1zm-36 4h1v1h-1zm37 2h1v1h-1zm39 0h1v1h-1zm13 0h1v1h-1zm-10 1h1v1h-1zM175 84h1v1h-1zm53 6h1v1h-1zm18 0h1v1h-1zm-58 6h1v1h-1z" fill="#525355"/><path d="M121 53h1v1h-1zm-54 1h1v1h-1zm50 0h1v1h-1zm148 0h1v1h-1zm1 0h1v1h-1zm-126 1h1v1h-1zm127 0h1v2h-1zm-155 2h1v1h-1zm155 0h1v1h-1zm-84 1h2v1h-2zm2 0h1v1h-1zm16 0h1v1h-1zm1 0h1v1h-1zm14 0h3v1h-3zm3 0h1v1h-1zm30 0h1v1h-1zm1 0h3v1h-3zm3 0h1v1h-1zm35 0h2v1h-2zm2 0h1v1h-1zm17 0h2v1h-2zm2 0h1v1h-1zm-139 1h1v1h-1zm17 0h1v1h-1zm44 0h1v1h-1zm54 0h1v1h-1zm8 0h1v1h-1zm12 0h1v1h-1zM73 60h1v1h-1zm231 0h1v1h-1zm-67 1h1v1h-1zm-5 1h1v1h-1zm-30 1h1v1h-1zm18 0h1v1h-1zm47 0h1v7h-1zm38 0h1v1h-1zm-155 1h1v1h-1zm1 2h1v1h-1zm135 0h1v1h-1zm-47 2h1v1h-1zm4 1h1v1h-1zm5 0h1v1h-1zm38 0h1v1h-1zm-19 1h1v1h-1zm30 0h1v1h-1zM4 71h1v1H4zm216 0h1v1h-1zm-94 1h2v1h-2zm2 0h1v1h-1zm88 0h1v1h-1zm66 0h1v1h-1zm14 0h1v1h-1zM7 73h1v1H7zm10 0h1v1h-1zm22 0h1v1h-1zm10 0h1v1h-1zm175 0h1v1h-1zm39 0h1v1h-1zm8 0h1v1h-1zm-117 1h1v1h-1zm69 0h1v1h-1zm21 0h1v1h-1zm27 0h1v1h-1zm-101 1h1v1h-1zm27 0h1v1h-1zm96 0h1v1h-1zm11 0h1v1h-1zm-170 1h1v1h-1zm157 0h1v1h-1zm-157 6h1v1h-1zm79 0h2v1h-2zm2 0h1v1h-1zm7 0h2v1h-2zm2 0h1v1h-1zm-48 1h1v1h-1zm-22 1h1v1h-1zm-28 2h2v1h-2zm2 0h1v1h-1zm107 0h1v1h-1zM70 87h1v1h-1zm130 1h1v1h-1zm21 0h1v1h-1zm28 0h1v1h-1zm-74 1h1v1h-1zm0 1h1v1h-1zm-72 1h1v1h-1zm61 0h1v1h-1zm89 0h1v1h-1zm-62 1h1v1h-1zm12 0h1v1h-1zm41 0h1v1h-1zM75 94h1v1h-1zm117 1h1v1h-1zM78 98h1v1h-1zm114 0h1v1h-1zm-11 1h1v1h-1zm69 0h1v1h-1zm-106 1h1v1h-1zm32 0h1v1h-1zm6 1h1v1h-1zm-132 1h1v1h-1zm63 0h1v1h-1zm-29 2h1v1h-1zm33 0h1v1h-1zm20 0h1v1h-1zm-16 1h1v1h-1z" fill="#f6f6f7"/><path d="M118 54h1v1h-1zm52 0h1v2h-1zm0 2h1v1h-1zm-2 1h1v1h-1zm1 0h1v1h-1zm106 0h1v1h-1zm1 0h1v1h-1zm-38 2h1v1h-1zm-68 1h1v1h-1zm9 0h1v1h-1zm115 0h1v1h-1zm-124 1h1v1h-1zm143 0h1v1h-1zm-124 1h1v1h-1zm30 0h1v1h-1zm-30 1h1v1h-1zM76 64h1v1h-1zm29 0h1v1h-1zm142 0h1v1h-1zm39 0h1v1h-1zm-89 1h1v1h-1zm95 0h1v1h-1zm12 1h1v6h-1zm-75 1h1v1h-1zm-14 4h1v1h-1zM5 72h1v1H5zm77 0h1v1h-1zm137 0h1v1h-1zm85 0h1v2h-1zm-134 1h1v1h-1zm0 1h1v1h-1zm27 0h1v1h-1zm107 0h1v1h-1zm-150 1h1v1h-1zm21 0h1v1h-1zm-21 1h1v1h-1zm62 0h1v1h-1zm3 0h1v1h-1zm31 0h1v1h-1zm-96 6h1v1h-1zm84 0h1v1h-1zm-6 1h1v1h-1zm-56 1h1v1h-1zm-47 2h1v1h-1zm92 0h1v1h-1zm30 3h1v1h-1zm-13 2h1v1h-1zm-37 1h1v1h-1zm43 2h4v1h-4zm4 0h1v1h-1zm-56 2h1v1h-1zm-11 4h1v1h-1zm-129 4h1v1h-1zm136 0h1v1h-1z" fill="#ececec"/><path d="M134 54h1v1h-1zm71 7h1v1h-1zm50 3h1v1h-1zm-77 1h1v1h-1zm-27 4h1v1h-1zm93 0h1v1h-1zm-91 11h1v1h-1zm84 9h1v1h-1zm-133 1h1v1h-1zm93 0h1v1h-1zm40 0h1v1h-1zm15 2h1v1h-1zM68 104h1v1h-1zm129 0h1v1h-1z" fill="#0b0f17"/><path d="M136 54h1v1h-1zm-68 1h1v1h-1zm46 1h1v1h-1zm-3 2h1v1h-1zm145 2h1v1h-1zm56 0h1v1h-1zm-164 2h1v1h-1zm-42 1h1v1h-1zm131 0h1v1h-1zm59 0h1v1h-1zm-57 3h1v1h-1zm-87 3h1v1h-1zm78 0h1v1h-1zm8 0h1v1h-1zm-136 2h1v1h-1zm194 0h1v1h-1zm14 4h1v1h-1zm-88 11h1v1h-1zm1 0h1v1h-1zm11 2h1v1h-1zm8 1h1v1h-1zm-39 2h1v1h-1zm-36 1h1v12h-1zm32 1h1v1h-1zm-23 1h1v1h-1zm67 3h1v1h-1zm0 3h1v1h-1zm-76 4h1v1h-1zm13 0h1v1h-1zm54 0h1v1h-1zm-102 1h1v1h-1zm51 0h1v1h-1zm64 0h1v1h-1z" fill="#bec0c8"/><path d="M166 56h1v1h-1zm112 0h1v1h-1zm-73 4h1v1h-1zm95 0h1v14h-1zm-46 9h1v1h-1zm-33 1h1v1h-1zm71 1h1v1h-1zm8 3h1v1h-1zm-44 1h1v1h-1zm-26 16h1v1h-1zm-50 3h1v1h-1zm7 6h1v1h-1zm63 0h1v1h-1zm-65 2h1v1h-1z" fill="#9d9d9d"/><path d="M252 59h1v1h-1zm36 0h1v1h-1zm21 0h1v1h-1zM78 68h1v1h-1zm153 2h1v1h-1zm-78 13h1v1h-1zm89 15h1v1h-1z" fill="#626774"/><path d="M168 56h1v1h-1zm107 0h1v1h-1zm1 0h1v1h-1zm-96 6h1v1h-1zm105 2h1v1h-1zm-38 5h1v1h-1zm46 1h1v1h-1zm-46 2h1v1h-1zm45 0h1v1h-1zm-76 1h1v1h-1zm3 0h1v1h-1zm-36 17h1v1h-1zm66 1h1v1h-1zm-61 7h1v1h-1zm64 2h1v1h-1z" fill="#353535"/><g fill="#1e222c"><path d="M292 60h1v1h-1zm-185 3h1v1h-1zm188 0h1v1h-1zm-64 6h1v1h-1zm-7 2h1v1h-1zm-91 2h1v1h-1zm81 1h1v1h-1zm-81 11h1v1h-1zm19 1h1v1h-1zm45 5h1v1h-1zm-91 3h1v1h-1zm71 0h1v1h-1zm65 9h1v1h-1zm-108 1h1v1h-1zm99 0h1v1h-1z"/></g><g fill="#8b8c91"><path d="M124 53h1v1h-1zm154 2h1v1h-1zm-112 5h1v14h-1zm32 0h1v1h-1zm107 0h1v1h-1zm-42 2h1v1h-1zm29 1h1v1h-1zm-78 1h1v1h-1zm82 0h1v1h-1zm-44 3h1v1h-1zm44 3h1v1h-1zm-169 1h1v1h-1zm-5 2h1v1h-1zm-1 1h1v1h-1zm45 0h1v1h-1zm112 0h1v1h-1zm-63 1h1v1h-1zm5 0h1v1h-1zm-50 8h1v1h-1zm5 0h1v1h-1zm58 0h1v1h-1zm-112 1h1v1h-1zm110 1h1v1h-1zm-104 2h1v1h-1zm40 4h1v1h-1zm67 0h1v1h-1zm-43 3h1v1h-1zm-11 5h1v1h-1zm-162 1h1v1h-1zm230 2h1v1h-1zm-124 3h1v1h-1zm6 0h1v1h-1z"/></g><g fill="#7a7f91"><path d="M65 54h1v1h-1zm200 1h1v1h-1zm-14 6h1v1h-1zm54 1h1v1h-1zm-102 1h1v1h-1zm-98 2h1v1h-1zm124 0h1v1h-1zm81 0h1v9h-1zm-85 2h1v1h-1zm0 1h1v1h-1zm-124 4h1v1h-1zm122 1h1v1h-1zm-70 1h1v1h-1zm157 0h1v1h-1zm-175 7h1v1h-1zm-34 5h1v1h-1zm-25 8h1v1h-1z"/></g><g fill="#242424"><path d="M84 54h1v1h-1zm193 2h1v1h-1zm11 5h1v1h-1zm-75 5h1v2h-1zm0 2h1v1h-1zm8 3h1v1h-1zm34 2h1v1h-1zm-10 17h1v1h-1zm-14 1h1v1h-1zm-44 1h1v1h-1zm63 0h1v1h-1zm-62 2h1v1h-1zm54 1h1v1h-1z"/></g><g fill="#878c9c"><path d="M98 54h1v1h-1zm155 5h1v1h-1zm17 1h1v1h-1zm-162 1h1v1h-1zm130 0h1v1h-1zm32 0h1v1h-1zm39 1h1v1h-1zm-130 2h1v1h-1zm68 2h1v1h-1zm-9 2h1v1h-1zm-1 3h1v1h-1zm-84 13h1v1h-1z"/></g><g fill="#f2f2f2"><path d="M137 54h1v1h-1zm-22 1h1v1h-1zm51 2h1v1h-1zm112 0h1v1h-1zm-103 2h1v1h-1zm4 0h1v1h-1zm81 0h1v1h-1zm14 0h1v1h-1zm-86 1h1v1h-1zm57 0h1v1h-1zm38 1h1v1h-1zm-113 1h1v10h-1zm46 0h1v1h-1zm70 3h1v1h-1zm-89 1h1v7h-1zm54 2h1v1h-1zm41 1h1v1h-1zm-6 1h1v1h-1zm-116 2h1v1h-1zM8 73h8v1H8zm8 0h1v1h-1zm24 0h8v1h-8zm8 0h1v1h-1zm75 0h1v1h-1zm74 0h1v1h-1zm48 2h1v1h-1zm29 0h1v1h-1zm-27 1h1v1h-1zm19 0h1v1h-1zm4 0h1v1h-1zm-95 6h1v1h-1zm-21 1h1v1h-1zm-31 2h1v1h-1zm44 0h1v1h-1zm14 8h1v1h-1zm68 1h1v1h-1zm-100 1h1v1h-1zm94 3h1v1h-1zm8 6h1v1h-1z"/></g><g fill="#94959a"><path d="M278 54h1v1h-1zm-14 1h1v1h-1zM69 56h1v1h-1zm1 1h1v1h-1zm40 2h1v1h-1zm177 0h1v1h-1zm-9 2h1v12h-1zm-171 1h1v1h-1zm184 0h1v1h-1zm-38 3h1v2h-1zm-8 2h1v1h-1zm8 0h1v1h-1zm32 1h1v1h-1zm-71 2h1v1h-1zm64 3h1v1h-1zm-111 2h2v1h-2zm2 0h1v1h-1zm8 0h1v1h-1zm1 0h1v1h-1zm8 0h2v1h-2zm2 0h1v1h-1zm6 0h1v1h-1zm1 0h1v1h-1zm9 0h1v1h-1zm1 0h1v1h-1zm28 0h2v1h-2zm2 0h1v1h-1zm16 0h1v1h-1zm6 0h1v1h-1zm18 0h2v1h-2zm2 0h1v1h-1zm24 0h1v1h-1zm1 0h1v1h-1zm9 0h1v1h-1zm1 0h1v1h-1zm-71 15h1v1h-1zm9 4h1v1h-1zm-59 5h1v1h-1zm-51 3h1v1h-1zm105 0h1v1h-1z"/></g><g fill="#bcbcbc"><path d="M167 59h2v1h-2zm2 0h1v1h-1zm7 0h2v1h-2zm2 0h1v1h-1zm16 0h1v1h-1zm1 0h1v1h-1zm33 0h1v1h-1zm1 0h1v1h-1zm11 0h1v1h-1zm21 0h1v1h-1zm6 0h2v1h-2zm2 0h1v1h-1zm6 0h2v1h-2zm2 0h1v1h-1zm24 0h1v1h-1zm1 0h1v1h-1zm-80 1h1v1h-1zm65 2h1v1h-1zm-73 7h1v1h-1zm33 1h1v1h-1zM38 73h1v1h-1zm227 2h1v1h-1zm-44 9h1v1h-1zm0 1h1v1h-1zm0 4h1v2h-1zm17 0h1v1h-1zm-72 2h1v1h-1zm55 0h1v1h-1zm8 0h1v1h-1zm7 0h1v1h-1zm1 0h1v1h-1zm12 1h1v1h-1zm-63 9h1v1h-1zm63 0h1v1h-1zm-66 1h1v1h-1zm1 0h1v1h-1zm62 0h1v1h-1zm1 0h1v1h-1zm-6 1h1v1h-1zm-43 1h1v1h-1zm48 1h1v1h-1z"/></g><g fill="#161b29"><path d="M145 60h1v1h-1zm55 1h1v1h-1zm11 3h1v1h-1zm-92 14h1v2h-1zm0 2h1v1h-1zm71 13h1v1h-1zm8 0h1v1h-1z"/></g><g fill="#0a0a0d"><path d="M178 60h1v1h-1zm62 1h1v1h-1zm52 1h1v1h-1zm-79 3h1v1h-1zm-35 1h1v7h-1zm71 1h1v1h-1zm-13 2h1v1h-1zm0 3h1v1h-1zM81 73h1v1h-1zm97 0h1v1h-1zm89 0h1v1h-1zm24 0h1v1h-1zm-26 1h1v1h-1zm-130 1h1v1h-1zm0 8h1v1h-1zm36 2h1v1h-1zm-1 2h1v1h-1zm0 1h1v1h-1zm4 1h1v1h-1zm23 3h1v1h-1zm-50 4h1v1h-1zm41 3h1v1h-1zm27 5h1v1h-1z"/></g><path fill="#dce2f7" d="M171 88h1v1h-1z"/><g fill="#00000a"><path d="M275 54h1v1h-1zm1 0h1v1h-1zm-176 2h1v1h-1zm10 4h1v1h-1zm66 0h1v1h-1zm-30 1h1v1h-1zm55 0h1v1h-1zm12 0h1v1h-1zm9 0h1v1h-1zm-19 1h1v1h-1zm52 3h1v1h-1zm-79 9h1v1h-1zm116 0h1v1h-1zM70 85h1v1h-1zm164 0h1v1h-1zm-120 16h1v1h-1zm135 1h1v1h-1zm-229 1h1v1h-1zm213 0h1v1h-1zm-9 1h1v1h-1z"/></g><g fill="#cacbce"><path d="M139 55h1v1h-1zm2 1h1v1h-1zm55 3h1v1h-1zm3 0h1v1h-1zm5 0h1v1h-1zm23 0h1v1h-1zm3 0h1v1h-1zm11 0h1v1h-1zm45 0h1v1h-1zm6 0h1v1h-1zm0 5h1v1h-1zm-107 1h1v9h-1zm64 3h1v1h-1zm-28 1h1v1h-1zm-97 3h1v1h-1zm61 2h1v1h-1zm68 0h1v1h-1zm5 0h1v1h-1zm26 0h1v1h-1zm-118 1h1v1h-1zm48 0h1v1h-1zm7 0h1v1h-1zm57 0h1v1h-1zm22 0h1v1h-1zM124 86h1v1h-1zm29 0h1v1h-1zm77 2h1v1h-1zm-42 1h1v1h-1zm40 2h1v1h-1zm17 0h1v1h-1zM74 92h1v1h-1zm156 0h1v11h-1zm-43 2h1v1h-1zm67 1h1v1h-1zm-108 3h1v1h-1zm-127 5h1v1h-1zm64 0h1v1h-1zm147 0h1v1h-1zm-192 1h1v1h-1z"/></g><g fill="#595b60"><path d="M184 59h1v1h-1zm33 0h1v1h-1zm1 0h1v1h-1zm-12 4h1v1h-1zm39 0h1v1h-1zm12 0h1v1h-1zm-3 4h1v1h-1zm28 3h1v1h-1zm13 2h1v1h-1zm-50 2h1v1h-1zm-26 1h1v1h-1zm13 9h1v1h-1zm-60 1h1v1h-1zm67 10h1v1h-1zm-131 2h1v1h-1zm1 1h1v1h-1zm130 0h1v1h-1zm-62 2h1v1h-1z"/></g><g fill="#c2c3c6"><path d="M186 59h1v1h-1zm53 0h1v1h-1zm67 0h1v1h-1zM80 70h1v1h-1zm73 2h1v1h-1zm99 0h1v1h-1zM38 74h1v29h-1zm200 16h1v1h-1zm-66 1h2v1h-2zm2 0h1v1h-1zm47 1h1v3h-1zm0 3h1v4h-1zm33 1h1v1h-1zm-33 3h1v3h-1zm0 3h1v2h-1zm-183 1h1v1h-1zm183 1h1v1h-1zm-37 1h1v1h-1z"/></g><g fill="#606779"><path d="M310 64h1v1h-1zm-71 1h1v1h-1zm5 8h1v1h-1zM84 103h1v1h-1z"/></g><g fill="#ccd1dd"><path d="M122 53h1v1h-1zm-56 1h1v1h-1zm6 5h1v1h-1zm134 2h1v1h-1zm-22 1h1v1h-1zM75 63h1v1h-1zm114 2h1v9h-1zm61 0h1v1h-1zm-146 1h1v1h-1zm127 6h1v1h-1zm6 0h1v1h-1zm46 1h1v1h-1zm-94 1h1v1h-1zm65 0h1v1h-1zm-38 9h1v1h-1zm9 1h1v1h-1zm0 1h1v1h-1zM69 88h2v1h-2zm2 0h1v1h-1zm173 0h1v1h-1zM69 89h1v15h-1zm83 0h1v1h-1zm73 0h1v14h-1zm-35 2h1v1h-1zm-85 3h1v1h-1zm71 5h1v1h-1zm-126 2h1v1h-1zm62 0h1v1h-1zm-61 2h1v1h-1zm174 0h1v1h-1zm-156 1h1v1h-1zm53 1h1v1h-1z"/></g><g fill="#404658"><path d="M97 54h1v1h-1zm127 9h1v1h-1zm33 1h1v8h-1zm-25 1h1v1h-1zm64 1h1v1h-1zm-58 1h1v1h-1zm-115 5h1v1h-1zm134 0h1v1h-1zm-8 3h1v1h-1zm-96 7h1v1h-1zm84 1h1v1h-1zm-114 3h1v1h-1zm128 4h1v1h-1zM74 91h1v1h-1zm76 1h1v1h-1zm-45 1h1v1h-1zm-54 9h1v1h-1zm66 1h1v1h-1z"/></g><g fill="#2a2f3c"><path d="M83 55h1v15h-1zm-12 4h1v1h-1zm110 1h1v1h-1zm68 1h1v1h-1zm63 0h1v1h-1zm-2 2h1v1h-1zm-7 1h1v1h-1zm-21 2h1v1h-1zm0 1h1v1h-1zM83 70h1v1h-1zm47 1h1v1h-1zm106 2h1v1h-1zM130 87h1v1h-1zm-58 1h1v1h-1zm128 1h1v1h-1zm43 0h1v1h-1zm-42 2h1v1h-1zM19 102h1v1h-1zm120 0h1v1h-1zm-87 1h1v1h-1zm85 0h1v1h-1zm58 1h1v1h-1z"/></g><g fill="#252e46"><path d="M313 65h1v8h-1zM80 71h1v1h-1zm233 2h1v1h-1zm-160 4h1v1h-1zm0 4h1v1h-1z"/></g></svg>