<svg xmlns="http://www.w3.org/2000/svg" role="img" viewBox="4.19 7.69 224.12 182.62"><title>Vision Service Plan dba VSP Global logo</title><style>svg {enable-background:new 0 0 234 196.5}</style><path fill="#00b6f1" d="M133.922 43.691c9.045-4.699 20.196-1.164 24.901 7.891 4.696 9.061 1.165 20.217-7.9 24.915-9.048 4.695-20.21 1.159-24.906-7.901-4.699-9.061-1.157-20.208 7.905-24.905"/><path fill="#9fcc3b" d="M116.091 12.155c5.366-.782 10.341 2.947 11.102 8.319.772 5.359-2.963 10.339-8.319 11.108-5.366.764-10.354-2.957-11.108-8.329-.776-5.367 2.958-10.338 8.325-11.098"/><path fill="#003046" d="M211.983 103.28c-4.085-9.071-11.286-15.927-20.29-19.323-9.004-3.381-18.725-2.892-27.376 1.376-8.658 4.265-15.213 11.818-18.444 21.247-1.645 4.803-2.035 12.387-2.06 16.864v62.784h4.635c2.752 0 4.085-1.636 4.085-4.26v-38.15c3.97 4.824 9.059 8.535 14.927 10.745 9.006 3.388 18.733 2.899 27.392-1.38 8.652-4.26 15.198-11.811 18.435-21.242 3.236-9.431 2.769-19.611-1.304-28.661m-6.001 25.91c-2.534 7.389-7.657 13.3-14.437 16.646-6.788 3.349-14.406 3.738-21.455 1.076-7.051-2.653-11.884-8.022-15.072-15.128-3.202-7.095-3.572-15.071-1.034-22.453 2.533-7.389 6.856-13.301 13.638-16.644 6.779-3.349 14.393-3.73 21.448-1.078 7.048 2.657 12.693 8.029 15.895 15.133 3.194 7.092 3.55 15.061 1.017 22.448M89.911 102.363c0-7.311 8.008-11.21 14.249-11.262 6.945-.062 10.286 1.789 14.129 6.607 1.395 1.742 3.036 2.448 5.131 1.101l4.408-2.746c-.053-.108-.086-.204-.139-.308-2.015-4.004-4.867-6.954-8.371-9.08-4.19-2.529-9.293-3.804-15.158-3.804-11.048 0-22.968 6.551-22.968 20.256 0 26.793 39.839 13.238 39.839 32.58 0 8.063-7.856 12.939-15.418 12.939-6.605 0-13.016-2.589-17.675-8.386-1.755-2.024-3.459-1.982-5.542-.545-.056.042-3.966 2.843-3.966 2.843.049.094.105.175.152.264 2.088 3.78 4.957 6.764 8.365 8.995 5.199 3.406 11.649 5.058 18.527 5.058 12.786 0 24.276-7.31 24.276-21.776 0-28.477-39.839-13.701-39.839-32.736m-48.956 42.813l21.457-57.93c.574-1.491 1.773-2.533 3.58-2.524h7.239l-25.871 66.24-.408 1.038-.179.471c-.58 1.428-1.984 2.571-3.54 2.571h-4.574c-1.565 0-2.968-1.163-3.538-2.571l-.182-.471-.408-1.038L8.66 84.721h7.239c1.807-.009 3.006 1.033 3.581 2.524l21.457 57.93h.018zm176.279 13.14c-3.813 0-6.898-3.085-6.898-6.894 0-3.789 3.085-6.874 6.898-6.874 3.809 0 6.898 3.085 6.898 6.874 0 3.809-3.09 6.894-6.898 6.894zm0-12.496c-3.051 0-5.527 2.515-5.527 5.602 0 3.107 2.475 5.622 5.527 5.622 3.045 0 5.522-2.516 5.522-5.622 0-3.087-2.478-5.602-5.522-5.602zm3.481 9.241h-1.632l-1.374-2.646h-1.853v2.628h-1.422v-7.582h3.633c1.604 0 2.609.968 2.609 2.478 0 1.081-.625 1.964-1.574 2.304l1.613 2.818zm-2.627-3.962c.591 0 1.185-.307 1.185-1.161 0-.859-.459-1.162-1.185-1.162h-2.231v2.323h2.231z"/></svg>