<?xml version="1.0" encoding="UTF-8" standalone="no"?>
<svg
   xmlns:dc="http://purl.org/dc/elements/1.1/"
   xmlns:cc="http://creativecommons.org/ns#"
   xmlns:rdf="http://www.w3.org/1999/02/22-rdf-syntax-ns#"
   xmlns:svg="http://www.w3.org/2000/svg"
   xmlns="http://www.w3.org/2000/svg"
   version="1.1"
   id="svg10"
   xml:space="preserve"
   width="840"
   height="429.97333"
   viewBox="0 0 840 429.97333"><metadata
     id="metadata16"><rdf:RDF><cc:Work
         rdf:about=""><dc:format>image/svg+xml</dc:format><dc:type
           rdf:resource="http://purl.org/dc/dcmitype/StillImage" /><dc:title></dc:title></cc:Work></rdf:RDF></metadata><defs
     id="defs14" /><g
     id="g18"
     transform="matrix(1.3333333,0,0,-1.3333333,0,429.97333)"><g
       id="g20"
       transform="scale(0.1)"><path
         d="m 2647.93,1739.1 v -51.48 h 1.52 c 17.46,27.56 46.26,60.03 110.34,60.03 49.86,0 88.13,-26.93 104.4,-67.76 h 1.52 c 14.02,20.57 30.07,36.19 47.99,47.19 21.31,13.08 44.89,20.57 74.76,20.57 67.45,0 127.19,-46.59 127.19,-164.26 v -223.12 h -102.91 c 0,47.54 0,207.57 0,207.57 0,59.64 -20.21,94.14 -62.32,94.14 -30.88,0 -53.32,-20.71 -61.77,-46.15 -2.93,-8.79 -4.29,-20.77 -4.29,-30.71 v -224.85 h -102.84 v 215.9 c 0,50.69 -19.44,85.81 -60.97,85.81 -33.23,0 -54.04,-26.17 -62.57,-48.54 -3.63,-9.58 -4.83,-20.59 -4.83,-31.01 v -222.16 h -102.94 v 378.83 z m 998.72,0 v -71.45 h 2.86 c 18.83,54.55 63.68,80 103.11,80 9.88,0 15.32,-0.74 23.27,-2.34 v -99.19 c -9.48,1.37 -18.24,2.7 -30.49,2.7 -44.61,0 -75.68,-25.98 -83.51,-66.61 -1.65,-8.37 -2.28,-17.49 -2.28,-27.96 v -193.98 h -105.65 v 378.83 z m 272.66,125.46 v -119.25 h 89.18 v -96.49 h -89.18 V 1506.5 c 0,-46.06 11.7,-68.4 46.57,-68.4 16.44,0 28.46,2.06 38.91,4.63 l 1.31,-80.02 c -14.04,-5.24 -43.82,-10.98 -74.1,-10.98 -35.61,0 -65.33,12.43 -83.38,31.63 -20.64,21.95 -30.3,57.89 -30.3,109.17 0,0 0,323.64 0,372.03 z M 2478.48,1360.27 h -102.39 v 504.29 h 102.39 z m -273,135.33 c 0,-6.99 -0.61,-14.2 -2.54,-20.51 -7.93,-26.25 -35.12,-48.43 -69.11,-48.43 -28.34,0 -50.85,16.09 -50.85,50.11 0,52.04 57.29,66.43 122.5,66.08 z m 102.29,90.67 c 0,85.87 -36.66,161.38 -160.56,161.38 -63.64,0 -114.16,-17.87 -141.69,-33.79 l 20.15,-68.99 c 25.2,15.88 65.33,29.04 103.32,29.04 62.9,0.16 73.2,-35.58 73.2,-58.49 v -5.43 c -137.08,0.21 -223.66,-47.22 -223.66,-143.9 0,-59.04 44.08,-114.36 120.72,-114.36 47.18,0 86.63,18.82 110.28,48.97 h 2.32 c 0,0 15.65,-65.47 101.92,-40.43 -4.53,27.25 -6,56.29 -6,91.29 z M 1464,1864.56 c 10.56,-53.41 40.65,-208.34 40.65,-208.34 12.61,-63.71 24.26,-130.5 33,-183.32 h 1.54 c 8.53,56.09 21.96,109.23 36.31,175.06 l 50.66,216.6 h 112.05 l 47.36,-222.2 c 12.44,-61.83 22.33,-109.44 30.1,-166.94 h 1.53 c 8.56,58.06 19.64,107.65 31.87,171.11 l 45.49,218.03 h 107.55 l -133.22,-504.29 c -84.87,-18.61 -117.38,15.55 -129.07,69.78 -11.66,54.24 -34.41,157.5 -34.41,157.5 -11.66,56.53 -20.78,96.42 -27.18,154.46 h -1.6 c -9.11,-57.47 -18.62,-97.75 -32.79,-154.25 l -55.91,-227.49 c -86.65,-17.26 -116.7,8.32 -133.37,77.83 -14.3,59.56 -103.83,426.46 -103.83,426.46 z M 3383.37,1495.6 c 0,-6.99 -0.62,-14.2 -2.54,-20.51 -7.93,-26.25 -35.12,-48.43 -69.11,-48.43 -28.34,0 -50.86,16.09 -50.86,50.11 0,52.04 57.29,66.43 122.51,66.08 z m 102.31,90.67 c 0,85.87 -36.67,161.38 -160.58,161.38 -63.64,0 -114.13,-17.87 -141.7,-33.79 l 20.18,-68.99 c 25.18,15.88 65.33,29.04 103.31,29.04 62.87,0.16 73.17,-35.58 73.17,-58.49 v -5.43 c -137.05,0.21 -223.64,-47.22 -223.64,-143.9 0,-59.04 44.1,-114.36 120.78,-114.36 47.14,0 86.61,18.82 110.2,48.97 h 2.35 c 0,0 15.65,-65.47 101.93,-40.43 -4.54,27.25 -6,56.29 -6,91.29 v 134.71"
         style="fill:#2d6dbe;fill-opacity:1;fill-rule:nonzero;stroke:none"
         id="path22" /><path
         d="m 4439.25,1541.42 c 10.15,-17.63 9.38,-37.37 -1.37,-46.26 l -186.87,-130.97 c -19.41,-11.21 -48.57,2.37 -65.1,30.95 -16.59,28.66 -13.64,60.68 5.76,71.95 l 206.89,96.23 c 12.95,4.88 30.52,-4.26 40.69,-21.9 z m 245.85,0 c 10.19,17.64 27.7,26.78 40.65,21.9 l 206.94,-96.23 c 19.48,-11.27 22.28,-43.29 5.81,-71.95 -16.62,-28.58 -45.79,-42.16 -65.17,-30.95 l -186.88,130.97 c -10.69,8.89 -11.52,28.66 -1.35,46.26 z m -122.97,-71.02 c 20.35,0 37.08,-10.51 39.34,-24.2 l 20.12,-227.34 c 0,-22.51 -26.32,-40.93 -59.44,-40.93 -33.06,0 -59.35,18.42 -59.35,40.93 l 20.08,227.34 c 2.23,13.69 18.97,24.2 39.25,24.2 z m 124.32,259.16 186.88,131.06 c 19.38,11.24 48.55,-2.29 65.17,-30.96 16.47,-28.64 13.67,-60.63 -5.81,-71.86 l -206.94,-96.34 c -12.95,-4.82 -30.48,4.33 -40.65,21.95 -10.17,17.61 -9.34,37.36 1.35,46.15 z m -287.89,-68.1 -206.89,96.34 c -19.4,11.23 -22.35,43.22 -5.76,71.86 16.53,28.67 45.69,42.2 65.1,30.96 l 186.87,-131.06 c 10.75,-8.79 11.53,-28.52 1.36,-46.15 -10.15,-17.61 -27.73,-26.77 -40.68,-21.95 z m 124.32,117.18 -20.08,227.34 c 0,22.48 26.29,40.94 59.35,40.94 33.12,0 59.44,-18.46 59.44,-40.94 l -20.12,-227.34 c -2.26,-13.7 -18.99,-24.27 -39.34,-24.27 -20.28,0 -37.02,10.57 -39.25,24.27"
         style="fill:#f9ad17;fill-opacity:1;fill-rule:nonzero;stroke:none"
         id="path24" /></g></g></svg>
