<svg xmlns="http://www.w3.org/2000/svg" role="img" viewBox="170.41 147.41 498.68 134.68"><title>Walmart logo</title><path fill="#2d6dbe" d="M353.0485 198.0988v6.86383h.20267c2.32794-3.67458 6.16784-8.0038 14.71163-8.0038 6.64783 0 11.75037 3.59057 13.91965 9.03444h.20266c1.8693-2.7426 4.00924-4.82522 6.39851-6.29185 2.84126-1.74395 5.98518-2.7426 9.96775-2.7426 8.99311 0 16.95824 6.21185 16.95824 21.9008v29.74858h-13.72099v-27.6753c0-7.9518-2.6946-12.5517-8.30912-12.5517-4.11723 0-7.10916 2.76127-8.2358 6.15319-.39065 1.17197-.57198 2.76926-.57198 4.09456v29.97925h-13.71166v-28.78595c0-6.7585-2.59193-11.44104-8.12913-11.44104-4.43055 0-7.20515 3.48924-8.34246 6.47183-.48398 1.2773-.64398 2.74527-.64398 4.13457v29.6206h-13.725V198.0988zm133.15934 0v9.52643h.38133c2.5106-7.27316 8.49045-10.6664 13.74765-10.6664 1.3173 0 2.04262.09866 3.1026.31199v13.225c-1.26397-.18266-2.43195-.36-4.06524-.36-5.94785 0-10.09041 3.46392-11.13439 8.88112-.22 1.11597-.30399 2.33194-.30399 3.7279v25.86336H473.8495v-50.5094zm36.35376-16.72758v15.8996h11.89037v12.865H522.5616v18.97554c0 6.14117 1.55996 9.11977 6.20918 9.11977 2.19195 0 3.79457-.27466 5.18787-.61732l.17466 10.66907c-1.87195.69864-5.84252 1.46396-9.87975 1.46396-4.74788 0-8.71045-1.6573-11.11706-4.21723-2.75193-2.9266-4.0399-7.71847-4.0399-14.55563v-49.60276zM330.45574 248.6082h-13.65166v-67.23698h13.65166zm-36.3991-18.04355c0 .93198-.08132 1.89329-.33865 2.7346-1.0573 3.49991-4.68255 6.45717-9.21444 6.45717-3.77857 0-6.77983-2.14528-6.77983-6.68116 0-6.9385 7.63848-8.85712 16.33293-8.81045zm13.63833-12.08903c0-11.44905-4.88787-21.5168-21.40746-21.5168-8.48512 0-15.22095 2.38261-18.89153 4.50523l2.6866 9.19843c3.35992-2.11728 8.71045-3.8719 13.77566-3.8719 8.38645-.02133 9.75975 4.74388 9.75975 7.79847v.72398c-18.27687-.028-29.82059 6.29585-29.82059 19.18619 0 7.8718 5.8772 15.24762 16.0956 15.24762 6.29051 0 11.55038-2.50927 14.70363-6.52917h.30933s2.08662 8.72911 13.589 5.39053c-.604-3.63324-.79999-7.50514-.79999-12.1717zm-112.49985-37.1044c1.40796 7.12115 5.41986 27.77797 5.41986 27.77797 1.6813 8.49445 3.23459 17.39956 4.3999 24.44205h.20532c1.1373-7.47848 2.92793-14.56363 4.84122-23.34075l6.7545-28.87927h14.93962l6.3145 29.62592c1.65863 8.2438 2.97727 14.59164 4.01324 22.25811h.204c1.1413-7.74114 2.6186-14.35297 4.24922-22.8141l6.06518-29.06993h14.33965L249.1791 248.6082c-11.31571 2.48127-15.65027-2.07328-17.2089-9.30377-1.55463-7.23182-4.58788-20.99947-4.58788-20.99947-1.55463-7.53715-2.7706-12.85568-3.62391-20.59415h-.21333c-1.21464 7.66247-2.4826 13.033-4.3719 20.56615l-7.45447 30.33124c-11.55305 2.30128-15.55961-1.1093-17.78223-10.37707-1.90661-7.94114-13.84365-56.85991-13.84365-56.85991zm255.9096 49.19343c0 .93198-.08266 1.89329-.33866 2.7346-1.0573 3.49991-4.68255 6.45717-9.21443 6.45717-3.77857 0-6.78117-2.14528-6.78117-6.68116 0-6.9385 7.63848-8.85712 16.33426-8.81045zm13.641-12.08903c0-11.44905-4.88922-21.5168-21.41014-21.5168-8.48512 0-15.21695 2.38261-18.89286 4.50523l2.6906 9.19843c3.35725-2.11728 8.71045-3.8719 13.77432-3.8719 8.38246-.02133 9.75576 4.74388 9.75576 7.79847v.72398c-18.27288-.028-29.81792 6.29585-29.81792 19.18619 0 7.8718 5.87985 15.24762 16.1036 15.24762 6.28517 0 11.5477-2.50927 14.69296-6.52917h.31333s2.08661 8.72911 13.59032 5.39053c-.60531-3.63324-.79998-7.50514-.79998-12.1717v-17.96088"/><path fill="#f9ad17" d="M591.8852 224.45547c1.3533 2.3506 1.25064 4.98254-.18266 6.16785l-24.91538 17.46223c-2.58793 1.49463-6.47583-.316-8.67978-4.12657-2.21194-3.82123-1.81862-8.09046.76798-9.59309L586.46 221.53554c1.72663-.65065 4.06924.56799 5.4252 2.91993zm32.77918 0c1.35864-2.35194 3.69324-3.57058 5.41987-2.91993l27.5913 12.83035c2.59728 1.50263 2.9706 5.77186.77465 9.5931-2.21594 3.81057-6.10518 5.62119-8.68911 4.12656l-24.91671-17.46223c-1.4253-1.1853-1.53596-3.82124-.18-6.16785zm-16.39559 9.4691c2.71327 0 4.94388 1.4013 5.2452 3.22658l2.6826 30.31125c0 3.00125-3.50924 5.4572-7.92513 5.4572-4.40789 0-7.91314-2.45595-7.91314-5.4572l2.67727-30.31125c.29733-1.82528 2.52927-3.22658 5.2332-3.22658zm16.57559-34.5538l24.9167-17.47423c2.58394-1.49863 6.47318.30532 8.68913 4.1279 2.19594 3.81856 1.82262 8.08379-.77465 9.58109l-27.59131 12.845c-1.72663.64266-4.0639-.57731-5.41987-2.92659-1.35596-2.34794-1.2453-4.9812.18-6.15317zM586.46 208.45054l-27.58464-12.84501c-2.5866-1.4973-2.97992-5.76253-.76798-9.5811 2.20395-3.82257 6.09185-5.62652 8.67978-4.1279l24.91538 17.47424c1.4333 1.17197 1.5373 3.80257.18133 6.15317-1.3533 2.34795-3.69724 3.56925-5.42387 2.9266zm16.57559-15.62361l-2.67727-30.31124c0-2.99726 3.50525-5.45853 7.91314-5.45853 4.41589 0 7.92513 2.46127 7.92513 5.45853l-2.6826 30.31124c-.30132 1.82662-2.53193 3.23592-5.2452 3.23592-2.70393 0-4.93587-1.4093-5.2332-3.23592"/></svg>