<svg xmlns="http://www.w3.org/2000/svg" role="img" viewBox="-3.84 76.41 407.42 91.92"><title>Xi&apos;an Zhigui Internet Technology Co. Ltd. logo</title><style>svg {enable-background:new 0 0 400 245}</style><style>.st0{fill:#df4a42}</style><path d="M128.2 108.7h-3.9c-.3 0-.5.1-.7.3l-3.5 5h-5.5c-.1 0-.3-.1-.4-.2-.1-.1-.1-.3 0-.4l6.1-13.8c.2-.2.2-.5 0-.7-.2-.2-.4-.4-.7-.4l-3.5-.1c-.3 0-.5.1-.7.3L108 117c-.2.2-.2.5 0 .7.2.2.4.4.7.3l9-.2-8.4 11.9c-.2.2-.2.5 0 .7.2.2.4.3.7.3h.1l17.3-4.3c.4 0 .7-.3.7-.7v-3c0-.2-.1-.4-.3-.5-.2-.1-.4-.2-.6-.2l-7.5 2.1c-.2 0-.3 0-.4-.2-.1-.1-.1-.3 0-.4l9.8-14.1c.1-.2.1-.5 0-.7-.3.1-.6-.1-.9 0zm-.3 24.1c-.2-.1-.5-.1-.8 0l-17.5 8.1c-.3.1-.5.4-.5.6v3c0 .2.1.5.4.6.1.1.3.1.4.1h.3l17.5-8.3c.3-.1.4-.4.5-.6v-2.9c.1-.2-.1-.5-.3-.6zm39.4-15.4h-11.7l-1.4-13.7 11.9-.6c.4 0 .7-.3.7-.7v-2.5c0-.2-.1-.4-.2-.5-.2-.1-.4-.2-.6-.2l-31.3 2c-.4 0-.7.3-.7.7v37.5l-3.6 1.4c-.3.1-.5.4-.5.6v3.1c0 .3.2.5.4.6.1.1.3.1.4.1h.3l17.8-7.7c.3-.1.5-.4.5-.6v-3.1c0-.3-.1-.5-.4-.6-.2-.1-.5-.1-.7 0l-9.5 4.4v-16.7h13.8l11.1 23.4c.1.3.4.5.8.5h2.9c.4 0 .7-.2.8-.6v-12.5c0-.2 0-.4-.2-.6-.2-.2-.4-.2-.6-.2H165c-.4 0-.7.3-.8.6v6.3l-7.5-16.8h10.6c.2 0 .4-.1.5-.2.2-.1.2-.3.3-.5V118c0-.4-.4-.7-.8-.6zm-28.6 0v-12.5c0-.2.2-.4.4-.4l11.1-.6 1.4 13.5h-12.9zm105.9-1.7h-27.3v-5h21.5c.3 0 .7-.2.7-.6V101c0-.2-.1-.3-.2-.4s-.3-.2-.5-.1h-21.5V99c0-.9-.4-.9-.9-.9h-3.5c-.6 0-1 0-1 .9v1.4h-21.1c-.2 0-.3 0-.5.1-.1.1-.2.3-.2.4v9.2c0 .3.4.6.7.6h21.1v5h-27.1c-.3 0-.7.2-.7.6v2.2c0 .3.4.6.7.6h59.8c.3 0 .7-.2.7-.6v-2.2c-.1-.4-.4-.6-.7-.6zm-27.3-12.3h17.9c.1 0 .1 0 .2.1.1 0 .1.1.1.2v3.8c0 .2-.1.3-.3.3h-17.9v-4.4zm-5.4 4.3h-17.5c-.1 0-.2 0-.2-.1-.1 0-.1-.1-.1-.2v-3.8c0-.2.2-.3.3-.2h17.5v4.3zm24.2 28.3h2.9c.3 0 .7-.2.7-.6v-13.2c0-.3-.3-.6-.7-.6h-48.7c-.3 0-.7.2-.7.6v13.2c0 .3.3.6.7.6h2.9c.3 0 .7-.2.7-.6V125c0-.2.2-.3.3-.2H235c.1 0 .1 0 .2.1.1 0 .1.1.1.2v10.4c.2.3.5.5.8.5z" class="st0"/><path d="M242.2 140.9l-24.4-7.4c-.2-.1-.4-.1-.5 0v-6.1c0-.3-.4-.6-.7-.6h-4c-.2 0-.4.1-.5.2-.1.1-.2.3-.2.4v5.2c0 .1-.1.2-.2.2l-24.5 8c-.2.1-.4.3-.4.5v3.4c0 .2.1.4.3.5.1.1.3.1.4.1h.3l28.7-9.7v1.5c0 .3.2.5.5.5l24.8 7.7h.2c.1 0 .3 0 .4-.1.2-.1.3-.3.3-.5v-3.3c-.1-.2-.3-.5-.5-.5zm34.7-23.2c-.2-.3-.4-.4-.7-.4h-.8V115h5.8c.4 0 .8-.3.8-.7v-2c0-.4-.4-.7-.8-.7h-5.8V103l5.5-.3c.4 0 .7-.3.8-.7v-2c0-.2-.1-.4-.3-.5-.2-.1-.4-.2-.6-.2l-17.8.9c-.4 0-.7.3-.8.7v2.2c0 .2.1.4.3.5.2.1.4.2.6.2l7.1-.4v8.3H262c-.4 0-.8.3-.8.7v2c0 .4.4.7.8.7h6.6l-6.8 16.3c-.1.2 0 .5.1.6.2.2.4.3.7.3h2.7c.3 0 .6-.2.8-.5l4.2-10.6v23.4c0 .4.4.7.8.7h3.5c.4 0 .8-.3.8-.7v-21.5l2.5 4.4c.2.3.4.4.7.4h2.8c.3 0 .5-.1.7-.3.1-.2.1-.5 0-.7l-5.2-9.2zm41.9 7.4h-6v-24.9c0-.4-.4-.7-.8-.7h-3.5c-.4 0-.8.3-.8.7v24.9h-20.3c-.4 0-.8.3-.8.7v2c0 .4.4.7.8.7h20.3v16.1c0 .4.4.7.8.7h3.5c.4 0 .8-.3.8-.7v-16.1h6c.4 0 .8-.3.8-.7v-2c0-.2-.1-.4-.3-.5-.1-.2-.3-.3-.5-.2z" class="st0"/><path d="M299.7 111.7c.2.1.3.2.5.2.1 0 .2 0 .3-.1.3-.1.5-.3.5-.6v-2.4c0-.2-.1-.4-.3-.5l-9-6.6c-.3-.2-.6-.2-.9-.1-.3.1-.5.3-.5.6v2.3c0 .2.1.4.3.5l9.1 6.7zm0 9.6c.2.1.3.2.5.2.1 0 .2 0 .3-.1.3-.1.5-.4.5-.6v-2.4c0-.2-.1-.4-.3-.5l-9-6.6c-.3-.2-.6-.2-.9-.1-.3.1-.5.4-.5.6v2.4c0 .2.1.4.3.5l9.1 6.6zm55.8-12h-5.2v-9.4c0-.4-.4-.6-.7-.6h-3.9c-.4 0-.7.2-.7.6v9.3l-9 .1c-.4 0-.7.2-.7.6v2.2c0 .4.4.6.7.6l9-.1v9.9l-9.4 4.4c-.2.1-.3.3-.3.5v2.5c0 .2.2.5.4.5.1.1.2.1.3.1.1 0 .3 0 .4-.1l8.6-4v14.2l-4.8-4c-.1-.1-.3-.2-.5-.2h-3.3c-.3 0-.5.1-.7.4-.1.2-.1.5.1.7l9 7.6c.3.2.6.3.9.3h3.8c.2 0 .4 0 .5-.1.1-.1.2-.3.2-.5v-20.3l5.4-2.5c.2-.1.3-.3.3-.5v-2.4c0-.2-.2-.4-.4-.5-.2-.1-.5-.1-.7 0l-4.6 2.1v-7.8h5.2c.4 0 .7-.2.7-.6v-2.2c0-.2-.1-.3-.2-.5-.1-.3-.2-.3-.4-.3zm40.1 32.7l-14.6-8.4 12.9-7c1-.6 1-.6 1-2v-6.5c0-1.1-.9-2-2-2h-13.2c-.1 0-.2 0-.2-.1-.1-.1-.1-.2-.1-.2v-6.9c0-.2.1-.3.3-.3h15.1c.4 0 .7-.3.7-.6v-2.3c0-.2-.1-.3-.2-.5-.1-.1-.3-.2-.5-.2h-15.1c-.1 0-.2 0-.2-.1-.1-.1-.1-.2-.1-.2V100c0-.4-.3-.6-.7-.6h-3.9c-.4 0-.7.2-.7.6v4.7c0 .1 0 .2-.1.2-.1.1-.1.1-.2.1H360c-.4 0-.7.2-.7.6v2.2c0 .4.4.6.7.6h13.8c.1 0 .2 0 .2.1.1.1.1.2.1.2v6.9c0 .1 0 .2-.1.2-.1.1-.1.1-.2.1H361c-.5 0-.9.5-.9 1v1.4c0 .5.4 1 .9 1h27.5c.4 0 .8.2 1 .5.3.3.4.7.4 1.1v1.7c0 .7-.3 1.3-.9 1.6l-12.5 6.7-15.6-9c-.2-.1-.4-.1-.6 0-.2.1-.3.3-.3.6v3.3c0 .2.1.5.4.6l11.9 6.8-12.2 6.6c-.3.1-.5.4-.6.8v3.1c0 .3.1.6.4.7.2.2.6.2.8 0l16-8.7 18.2 10.3c.2.1.4.1.6 0 .2-.1.3-.3.3-.5v-3c.1-.2 0-.4-.2-.5zM40.5 84.5c-.4-.1-.8-.1-1.1 0l-34.6 11c-.4.1-.7.5-.6.9l2.1 18.7v.2l11.9 30.1.3.3 20.4 14.6c.7.5 1.7.5 2.4 0l21-14.8c.1-.1.2-.2.2-.3L74 115.3v-.2l1.8-18.7c.1-.4-.2-.8-.5-.9l-34.8-11zm-19.4 58.3L12 120c-.1-.2 0-.4.1-.6s.4-.2.6 0l25.1 14.2c.1.1.2.2.2.4v20.7c0 .1 0 .1-.1.2h-.2l-16.3-11.6c-.1-.1-.2-.3-.3-.5zm17-53.1v13.7c0 .6-.4 1.2-1 1.4l-26.4 8.9c-.2.1-.4 0-.5-.1-.2-.1-.3-.3-.3-.4L8.3 99c-.1-.4.2-.8.6-1l28.5-9c.2 0 .4 0 .5.2.2.1.2.3.2.5zm3.8 65v-20.8c0-.1.1-.2.2-.3l25-13.9c.2-.1.5-.1.7 0 .2.2.3.4.2.7l-8.6 22.2c-.1.2-.2.3-.3.4l-16.8 11.9h-.2c-.2-.1-.2-.1-.2-.2zm28.3-41.3l-29.9 16.8c-.2.1-.4.1-.6 0l-25-13.3c-.2-.1-.3-.4-.3-.6 0-.2.2-.4.4-.5l24.8-7.9c.3-.1.6-.1.9 0l19.4 6.5c.6.1 1.1-.2 1.3-.7l.5-1.5c.1-.6-.2-1.1-.7-1.3l-18-6.1c-.6-.2-1.1-.8-1.1-1.4V89.7c0-.2.1-.4.2-.5s.4-.2.5-.1l28.5 9c.4.1.7.5.6 1L70.3 113c.2.1.1.3-.1.4z" class="st0"/></svg>