<svg xmlns="http://www.w3.org/2000/svg" role="img" viewBox="-17.04 -12.54 886.08 200.58"><style>.st0{fill:#383a37}</style><path d="M51.8 166.8c-.3 0-.5-.1-.7-.4L.2 94.2c-.2-.2-.2-.5-.1-.8L37 13.1c.1-.3.4-.5.7-.5l87.8-8.1c.3 0 .6.1.8.4L177.2 77c.2.2.2.6.1.9l-36.9 80.3c-.1.3-.4.5-.7.5l-87.9 8.1m-50-73.1L52.2 165l86.9-8 36.5-79.4-50.4-71.3-86.9 8L1.8 93.7zm137.8 64.1z" class="st0"/><path d="M51.5 166.6L37.4 93.2l-.1-80.3L106 33.1l71.2 44.3-52.9 47-72.8 42.2zM38.2 14.1l.1 79 13.9 72.1 71.7-41.4 52-46.2-70.2-43.7-67.5-19.8z" class="st0"/><path d="M109.7 33.9c0 1.4-1.1 2.6-2.6 2.6-1.4 0-2.6-1.1-2.6-2.6 0-1.4 1.1-2.6 2.6-2.6 1.5.1 2.6 1.2 2.6 2.6" class="st0"/><path d="M107.1 39.2c-2.9 0-5.3-2.4-5.3-5.3s2.4-5.3 5.3-5.3 5.3 2.4 5.3 5.3c0 3-2.3 5.3-5.3 5.3m0-5.4l-.2.2c0 .1.1.2.2.2v-.4zm19.7 90.2c0 1.4-1.1 2.6-2.6 2.6-1.4 0-2.6-1.1-2.6-2.6 0-1.4 1.1-2.6 2.6-2.6 1.4 0 2.6 1.2 2.6 2.6" class="st0"/><path d="M124.2 129.3c-2.9 0-5.3-2.4-5.3-5.3s2.4-5.3 5.3-5.3 5.3 2.4 5.3 5.3-2.4 5.3-5.3 5.3m0-5.5l-.2.2c0 .1.1.2.2.2v-.4zM55 165.9c0 1.4-1.1 2.6-2.6 2.6-1.4 0-2.6-1.1-2.6-2.6 0-1.4 1.1-2.6 2.6-2.6 1.4 0 2.6 1.2 2.6 2.6" class="st0"/><path d="M52.4 171.2c-2.9 0-5.3-2.4-5.3-5.3s2.4-5.3 5.3-5.3 5.3 2.4 5.3 5.3-2.4 5.3-5.3 5.3m0-5.5l-.2.2c0 .1.1.2.2.2v-.4zM40.3 93.9c0 1.4-1.1 2.6-2.6 2.6-1.4 0-2.6-1.1-2.6-2.6 0-1.4 1.1-2.6 2.6-2.6 1.5.1 2.6 1.2 2.6 2.6" class="st0"/><path d="M37.8 99.2c-2.9 0-5.3-2.4-5.3-5.3s2.4-5.3 5.3-5.3 5.3 2.4 5.3 5.3c-.1 2.9-2.4 5.3-5.3 5.3m0-5.4l-.2.2c0 .1.1.2.2.2v-.4zm141.3-16.2c0 1.4-1.1 2.6-2.6 2.6-1.4 0-2.6-1.1-2.6-2.6 0-1.4 1.1-2.6 2.6-2.6 1.4.1 2.6 1.2 2.6 2.6" class="st0"/><path d="M176.5 82.9c-2.9 0-5.3-2.4-5.3-5.3s2.4-5.3 5.3-5.3 5.3 2.4 5.3 5.3-2.4 5.3-5.3 5.3m0-5.4l-.2.2c0 .1.1.2.2.2v-.4zm-136.2-64c0 1.4-1.1 2.6-2.6 2.6-1.4 0-2.6-1.1-2.6-2.6 0-1.4 1.1-2.6 2.6-2.6s2.6 1.2 2.6 2.6" class="st0"/><path d="M37.8 18.8c-2.9 0-5.3-2.4-5.3-5.3s2.4-5.3 5.3-5.3 5.3 2.4 5.3 5.3c-.1 2.9-2.4 5.3-5.3 5.3m0-5.5l-.2.2c0 .1.1.2.2.2v-.4zm101.8 145.3h-.3l-67-23.6L.4 94.5c-.2-.1-.4-.4-.4-.7 0-.3.1-.5.3-.7l54.1-49.6 70.8-38.9c.2-.1.5-.1.8 0 .2.1.4.3.5.6l15.9 69.7-1.8 82.9c0 .3-.1.5-.4.7-.2.1-.4.1-.6.1M2.3 93.6l70.8 39.8 65.7 23.2 1.8-81.5L125 6.7 55.4 44.9 2.3 93.6z" class="st0"/><path d="M124.5 124.3l-.3-.1L37.3 94l.3-.2 69.7-60.2 17.2 90.7zM38.2 93.9l85.8 29.8-17-89.4-68.8 59.6z" class="st0"/><path d="M72.1 135.7L53.9 42.8l89.3 31.9-71.1 61zm-16-90.2l17.1 87.1 66.6-57.2-83.7-29.9z" class="st0"/><path d="M36.981 13.884l1.482-.833L55.704 43.74l-1.482.832zM53.1 166.4l-1.4-1 20.2-31.7 1.5.9zm88.318-90.43l.123-1.695 35.105 2.563-.124 1.695z" class="st0"/><path d="M215.7 56.6l13.9-.1.2 23.6 27-.1-.1-23.6 14-.1.3 63.3h-14l-.1-27.3-27.1.1.2 27.4h-14zm82.7 35.8l-24-36.1 17.3-.1 13.6 23.6 14.1-23.7 16.5-.1-23.6 36.4.2 26.9-14 .1zm41.3-36.5l23.5-.1c3.3 0 6.4.3 9.3.8 2.9.6 5.5 1.6 7.7 3 2.2 1.5 3.9 3.4 5.2 5.9 1.3 2.5 2 5.6 2 9.3 0 3.7-.6 6.8-1.7 9.3-1.2 2.5-2.8 4.5-4.9 6-2.1 1.5-4.5 2.6-7.4 3.2-2.9.6-6 1-9.3 1l-10.2.1.1 24.7-13.9.1-.4-63.3zm14 26.8h9.3c1.3 0 2.5-.1 3.6-.4 1.2-.2 2.2-.7 3.1-1.2.9-.6 1.7-1.3 2.2-2.3.6-1 .8-2.2.8-3.7 0-1.6-.4-2.9-1.1-3.9-.8-1-1.7-1.7-2.9-2.3-1.2-.5-2.5-.9-3.9-1-1.4-.1-2.8-.2-4.1-.2h-7.2l.2 15zm41.9-27l43-.3.1 12.9-29.1.1.1 11.8 27.4-.1.1 12.9-27.4.1V106l30.7-.2.1 12.9-44.6.2zm54.9-.3l24.5-.1c3.2 0 6.3.3 9.2.9 2.9.6 5.4 1.6 7.6 3.1 2.2 1.5 3.9 3.4 5.2 5.9 1.3 2.5 1.9 5.5 2 9.2 0 4.5-1.1 8.3-3.4 11.4-2.3 3.1-5.7 5.1-10.2 6l16.2 26.6-16.7.1-13.4-25.2h-6.9l.1 25.3-13.9.1-.3-63.3zm14.1 26.1h8.2c1.2 0 2.6-.1 4-.2s2.7-.4 3.8-.8c1.1-.5 2.1-1.2 2.8-2.1.7-1 1.1-2.3 1.1-4 0-1.6-.3-2.9-1-3.8-.7-.9-1.5-1.7-2.5-2.2-1-.5-2.2-.8-3.5-1-1.3-.2-2.6-.3-3.8-.2h-9.1v14.3zm43.5-26.4L522 55l.3 50.4 25.8-.2.1 12.9-39.8.2zm47.1-.3l43-.2v12.9l-29 .1v11.8l27.5-.1.1 12.8-27.5.2.1 12.8 30.6-.1.1 12.8-44.6.3zm54.8-.3l20.9-.1c5.1 0 9.9.5 14.4 1.6 4.6 1.1 8.6 2.9 12 5.4 3.4 2.5 6.1 5.8 8.1 9.8 2 4 3 9 3.1 14.7 0 5.1-.9 9.6-2.8 13.5-1.9 3.9-4.5 7.2-7.8 9.9s-7 4.7-11.3 6.1c-4.3 1.4-8.8 2.1-13.5 2.1l-22.8.1-.3-63.1zm14.3 50.3h7.2c3.2 0 6.2-.4 9-1 2.8-.7 5.2-1.8 7.2-3.3 2-1.5 3.6-3.5 4.7-6s1.7-5.5 1.7-9.1c0-3.1-.6-5.8-1.8-8.1-1.2-2.3-2.7-4.2-4.7-5.6-2-1.5-4.3-2.6-6.9-3.3-2.7-.7-5.4-1.1-8.4-1.1h-8.2l.2 37.5zm110.3 7.8c-4.1 2.2-8.4 3.7-12.8 4.7-4.5 1-9 1.5-13.7 1.5-4.9 0-9.5-.7-13.7-2.3-4.2-1.5-7.8-3.7-10.8-6.6-3.1-2.9-5.4-6.4-7.2-10.5-1.7-4.1-2.6-8.7-2.6-13.8 0-5.1.8-9.6 2.5-13.8 1.7-4.1 4-7.6 7.1-10.5 3-2.9 6.6-5.1 10.8-6.7 4.2-1.6 8.7-2.4 13.7-2.4 5.1 0 9.7.6 14 1.8 4.3 1.2 8 3.3 11.3 6.2L723.4 71c-1.9-2-4.1-3.4-6.5-4.4-2.4-1-5.4-1.5-8.9-1.5-3 0-5.7.5-8.1 1.6-2.4 1-4.5 2.4-6.2 4.3-1.7 1.8-3 4-3.9 6.5-.9 2.5-1.4 5.2-1.3 8.1 0 3 .5 5.7 1.4 8.2.9 2.5 2.3 4.6 4 6.4 1.7 1.8 3.8 3.2 6.2 4.2 2.4 1 5.1 1.5 8.1 1.5s5.7-.4 7.9-1.1c2.2-.7 4-1.4 5.3-2.1l-.1-10.3-11.4.1-.1-12.9 24.8-.1v33.1zm11.6-58.8l43-.2.1 12.8-29.1.2.1 11.8 27.4-.2.1 12.9-27.5.2.1 12.8 30.7-.1v12.8l-44.6.3zm54.9-.3l24.5-.1c3.2 0 6.3.3 9.2.9 2.9.6 5.4 1.6 7.6 3.1 2.2 1.4 3.9 3.4 5.2 5.9 1.3 2.5 2 5.5 2 9.2 0 4.5-1.1 8.3-3.4 11.4-2.3 3.1-5.7 5.1-10.2 6l16.2 26.6-16.7.1-13.4-25.2h-6.9l.1 25.3-13.9.1-.3-63.3zm14.1 26.1h8.2c1.2 0 2.6-.1 4-.2s2.7-.4 3.8-.8c1.1-.4 2.1-1.2 2.8-2.1.7-1 1.1-2.3 1.1-4 0-1.6-.3-2.9-1-3.8-.7-.9-1.5-1.7-2.5-2.2-1-.5-2.2-.8-3.5-1-1.3-.2-2.6-.3-3.8-.2h-9.1v14.3z" class="st0"/></svg>