<svg xmlns="http://www.w3.org/2000/svg" role="img" viewBox="1.03 -2.47 726.44 204.44"><defs><style>.cls-1{fill:none}.cls-3{fill:#2f3134}.cls-6{fill:#d2e4f4}.cls-8{fill:#fc0}</style><clipPath id="clip-path"><path d="M147.875 12.094l-93.646 9.599-38.511 85.899 55.136 74.715 92.061-9.07 40.096-84.842-55.136-76.301z" class="cls-1"/></clipPath><clipPath id="clip-path-2"><path d="M11.383 1.371h188.021v188.021H11.383z" class="cls-1"/></clipPath></defs><path fill="#666" d="M240.078 92.684h-9.584v72.303h43.848v-7.796h-34.265V92.684zm84.617 35.01q-.199-8.144-5.463-12.787-5.263-4.643-14.549-4.643a26.064 26.064 0 0 0-10.751 2.185 19.495 19.495 0 0 0-7.747 5.933 12.677 12.677 0 0 0-2.855 7.772h9.236a7.318 7.318 0 0 1 3.328-6.01 13.396 13.396 0 0 1 8.242-2.481q5.612 0 8.492 2.856a10.321 10.321 0 0 1 2.88 7.671v4.221h-8.939q-11.57 0-17.95 4.643-6.382 4.644-6.382 13.035a14.538 14.538 0 0 0 5.09 11.397q5.09 4.494 13.035 4.493a20.494 20.494 0 0 0 15.294-6.654 19.267 19.267 0 0 0 1.292 5.662h9.633v-.797q-1.886-4.368-1.886-11.768zm-9.187 22.246a13.52 13.52 0 0 1-5.61 5.809 16.148 16.148 0 0 1-8.195 2.236 11.064 11.064 0 0 1-7.398-2.434 8.361 8.361 0 0 1-2.881-6.753q0-9.881 16.884-9.882h7.2zm48.665-39.676a19.577 19.577 0 0 0-16.09 7.746l-.298-6.753h-8.689v53.73h9.186V126.7a16.184 16.184 0 0 1 5.264-6.257 13.26 13.26 0 0 1 7.846-2.384q5.512 0 8.12 2.782 2.607 2.782 2.656 8.59v35.555h9.187v-35.505q-.15-19.218-17.181-19.218zm64.952 6.455q-5.513-6.455-14.948-6.455a18.528 18.528 0 0 0-15.344 7.523q-5.86 7.522-5.86 19.888v.694q0 12.317 5.886 19.963a18.349 18.349 0 0 0 15.219 7.647q9.833 0 15.345-6.754l.446 5.762h8.442V88.712h-9.186zm0 33.618q-4.022 7.848-12.761 7.846a12.197 12.197 0 0 1-10.43-5.163q-3.773-5.165-3.773-14.302 0-10.23 3.773-15.444a12.255 12.255 0 0 1 10.528-5.214 13.506 13.506 0 0 1 12.662 7.598zm55.518-12.712a49.585 49.585 0 0 0-11.149-3.675q-6.879-1.538-9.51-3.227a5.57 5.57 0 0 1-2.63-5.016 6.878 6.878 0 0 1 2.829-5.71q2.83-2.184 7.847-2.185a12.004 12.004 0 0 1 8.069 2.732 8.293 8.293 0 0 1 3.202 6.504h9.237a14.985 14.985 0 0 0-5.685-12.067q-5.688-4.717-14.824-4.717-8.69 0-14.276 4.57a13.938 13.938 0 0 0-5.587 11.172 11.874 11.874 0 0 0 1.962 6.853 15.75 15.75 0 0 0 6.058 4.965 46.266 46.266 0 0 0 11.074 3.575q6.976 1.49 9.782 3.55a6.766 6.766 0 0 1 2.805 5.786 6.485 6.485 0 0 1-3.152 5.636 14.81 14.81 0 0 1-8.368 2.111 14.353 14.353 0 0 1-9.112-2.706 9.508 9.508 0 0 1-3.699-7.325h-9.188a15.376 15.376 0 0 0 2.806 8.863 18.565 18.565 0 0 0 7.771 6.381 27.063 27.063 0 0 0 11.422 2.285q9.186 0 14.947-4.345a13.75 13.75 0 0 0 5.76-11.546 12.642 12.642 0 0 0-2.06-7.324 16.264 16.264 0 0 0-6.332-5.14zm31.01-14.773q3.847-5.04 10.85-5.04a12.282 12.282 0 0 1 8.765 3.352 12.664 12.664 0 0 1 3.947 8.566h8.69a19.35 19.35 0 0 0-6.381-14.053 21.548 21.548 0 0 0-15.02-5.413 23.486 23.486 0 0 0-12.737 3.377 21.932 21.932 0 0 0-8.269 9.484 32.345 32.345 0 0 0-2.88 13.954v1.54q0 12.711 6.48 20.037 6.48 7.325 17.455 7.323a22.576 22.576 0 0 0 10.354-2.482 20.938 20.938 0 0 0 7.82-6.654 16.667 16.667 0 0 0 3.179-8.79h-8.69a10.485 10.485 0 0 1-4.072 7.449 13.234 13.234 0 0 1-8.591 2.98q-7.102 0-10.925-5.016-3.825-5.015-3.824-14.301v-1.739q0-9.534 3.849-14.574zm83.5 4.842q-.199-8.144-5.463-12.787-5.264-4.643-14.55-4.643a26.064 26.064 0 0 0-10.75 2.185 19.488 19.488 0 0 0-7.747 5.933 12.678 12.678 0 0 0-2.856 7.772h9.237a7.318 7.318 0 0 1 3.327-6.01 13.397 13.397 0 0 1 8.243-2.481q5.612 0 8.492 2.856a10.32 10.32 0 0 1 2.88 7.67v4.222h-8.937q-11.571 0-17.953 4.643-6.38 4.644-6.38 13.035a14.538 14.538 0 0 0 5.09 11.397q5.088 4.494 13.034 4.493a20.496 20.496 0 0 0 15.296-6.654 19.205 19.205 0 0 0 1.29 5.662h9.635v-.797q-1.889-4.369-1.889-11.768zm-9.186 22.246a13.526 13.526 0 0 1-5.612 5.809 16.148 16.148 0 0 1-8.194 2.236 11.064 11.064 0 0 1-7.399-2.434 8.361 8.361 0 0 1-2.879-6.753q0-9.881 16.883-9.882h7.201zm48.019-39.676q-9.981 0-15.593 6.952l-.447-5.959h-8.392v74.387h9.187v-25.87q5.61 6.207 15.393 6.205a17.987 17.987 0 0 0 15.196-7.498q5.61-7.498 5.611-19.763v-.844q0-13.01-5.636-20.311-5.637-7.299-15.32-7.299zm7.87 42.98a12.417 12.417 0 0 1-10.503 5.238 13.53 13.53 0 0 1-12.612-7.35v-25.673a13.506 13.506 0 0 1 12.513-7.4 12.477 12.477 0 0 1 10.627 5.264q3.873 5.264 3.873 14.351 0 10.33-3.899 15.568zm45.909-42.98a21.473 21.473 0 0 0-11.893 3.55 23.814 23.814 0 0 0-8.541 9.833 32.244 32.244 0 0 0-3.055 14.276v1.689q0 12.017 6.853 19.192 6.853 7.177 17.778 7.175 13.507 0 20.26-10.378l-5.61-4.369a20.7 20.7 0 0 1-5.91 5.263 16.002 16.002 0 0 1-8.243 1.987 14.594 14.594 0 0 1-11.299-4.892q-4.443-4.89-4.641-12.836h36.398v-3.824q0-12.86-5.81-19.764-5.81-6.902-16.287-6.902zm12.91 22.942h-26.914q.894-7.3 4.669-11.347a12.255 12.255 0 0 1 9.335-4.047 11.539 11.539 0 0 1 9.136 3.848q3.377 3.85 3.774 10.85z"/><path d="M230.494 30.688l10.589-.058.096 17.906 20.57-.11-.095-17.905 10.59-.055.252 48.025-10.59.055-.109-20.755-20.57.109.109 20.755-10.59.058zm62.805 27.209l-18.206-27.444 13.169-.072 10.278 17.923 10.699-18.032 12.558-.065-17.91 27.635.107 20.486-10.59.054zm31.347-27.707l17.855-.092a35.023 35.023 0 0 1 7.064.641 16.176 16.176 0 0 1 5.818 2.307 11.885 11.885 0 0 1 3.959 4.457 15.35 15.35 0 0 1 1.498 7.081 16.393 16.393 0 0 1-1.32 7.064 11.63 11.63 0 0 1-3.71 4.563 15.095 15.095 0 0 1-5.624 2.436 32.96 32.96 0 0 1-7.057.751l-7.74.041.1 18.721-10.59.055zm10.699 20.294l7.06-.037a13.633 13.633 0 0 0 2.747-.283 7.346 7.346 0 0 0 2.372-.932 4.889 4.889 0 0 0 1.686-1.771 5.586 5.586 0 0 0 .631-2.819 4.778 4.778 0 0 0-.863-2.945 5.633 5.633 0 0 0-2.184-1.72 9.406 9.406 0 0 0-2.955-.764 30.156 30.156 0 0 0-3.123-.15l-5.433.027zm31.798-20.516l32.651-.17.052 9.766-22.063.116.048 8.955 20.84-.113.052 9.767-20.84.113.05 9.77 23.284-.123.052 9.767-33.873.177zm41.677-.218l18.602-.1a32.687 32.687 0 0 1 6.959.676 16.64 16.64 0 0 1 5.784 2.341 11.885 11.885 0 0 1 3.958 4.457 15.192 15.192 0 0 1 1.499 7.013 14.115 14.115 0 0 1-2.604 8.665 11.91 11.91 0 0 1-7.716 4.552l12.326 20.216-12.695.068-10.142-19.144-5.228.027.1 19.196-10.59.058zm10.696 19.817l6.248-.031a47.855 47.855 0 0 0 3.02-.12 9.502 9.502 0 0 0 2.88-.624 5.014 5.014 0 0 0 2.13-1.607 4.881 4.881 0 0 0 .829-3.055 5.096 5.096 0 0 0-.761-2.914 4.97 4.97 0 0 0-1.908-1.652 8.483 8.483 0 0 0-2.651-.768 21.423 21.423 0 0 0-2.921-.184l-6.924.034zm33.019-20.049l10.59-.055.201 38.258 19.619-.102.051 9.767-30.208.157zm35.775-.188l32.65-.17.052 9.766-22.062.116.047 8.955 20.84-.11.052 9.767-20.84.11.05 9.77 23.285-.123.05 9.767-33.872.177zm41.677-.218l15.885-.086a45.626 45.626 0 0 1 10.972 1.229 25.173 25.173 0 0 1 9.084 4.13 20.446 20.446 0 0 1 6.184 7.459 25.111 25.111 0 0 1 2.33 11.183 22.793 22.793 0 0 1-2.153 10.289 22.067 22.067 0 0 1-5.897 7.49 26.312 26.312 0 0 1-8.596 4.624 33.47 33.47 0 0 1-10.245 1.615l-17.312.092zm10.79 38.203l5.501-.03a29.669 29.669 0 0 0 6.819-.782 14.59 14.59 0 0 0 5.45-2.508 11.814 11.814 0 0 0 3.607-4.56 16.116 16.116 0 0 0 1.29-6.893 13.406 13.406 0 0 0-1.358-6.132 12.241 12.241 0 0 0-3.587-4.29 15.576 15.576 0 0 0-5.272-2.515 23.383 23.383 0 0 0-6.351-.815l-6.249.034zm83.806 5.931a38.492 38.492 0 0 1-9.756 3.583 49.844 49.844 0 0 1-10.381 1.14 29.734 29.734 0 0 1-10.395-1.71 23.728 23.728 0 0 1-8.238-5.012 22.83 22.83 0 0 1-5.443-7.938 29.174 29.174 0 0 1-.11-20.895 22.898 22.898 0 0 1 5.359-8 23.716 23.716 0 0 1 8.186-5.094 29.497 29.497 0 0 1 10.374-1.82 38.534 38.534 0 0 1 10.63 1.332 20.831 20.831 0 0 1 8.549 4.74l-7.426 8.18a14.922 14.922 0 0 0-4.907-3.369 17.4 17.4 0 0 0-6.794-1.115 15.71 15.71 0 0 0-6.136 1.184 13.858 13.858 0 0 0-4.703 3.245 14.222 14.222 0 0 0-2.993 4.938 18.718 18.718 0 0 0 .065 12.377 14.257 14.257 0 0 0 3.044 4.867 13.808 13.808 0 0 0 4.737 3.2 15.795 15.795 0 0 0 6.15 1.12 20.308 20.308 0 0 0 5.971-.812 22.136 22.136 0 0 0 3.993-1.614l-.041-7.801-8.62.044-.051-9.77 18.803-.1zm8.794-44.676l32.652-.175.05 9.767-22.061.116.047 8.954 20.84-.109.052 9.767-20.84.11.05 9.77 23.285-.124.05 9.767-33.872.181zm41.678-.223l18.598-.095a32.52 32.52 0 0 1 6.962.675 16.64 16.64 0 0 1 5.784 2.341 11.833 11.833 0 0 1 3.959 4.457 15.182 15.182 0 0 1 1.498 7.013 14.115 14.115 0 0 1-2.604 8.665 11.938 11.938 0 0 1-7.716 4.552l12.326 20.216-12.694.065-10.146-19.141-5.228.027.1 19.196-10.587.054zm10.691 19.82l6.249-.034a47.779 47.779 0 0 0 3.02-.116 9.402 9.402 0 0 0 2.88-.628 4.98 4.98 0 0 0 2.13-1.604 4.86 4.86 0 0 0 .832-3.054 5.096 5.096 0 0 0-.76-2.914 5.005 5.005 0 0 0-1.912-1.652 8.393 8.393 0 0 0-2.651-.768 21.433 21.433 0 0 0-2.922-.187l-6.924.037z" class="cls-3"/><g clip-path="url(#clip-path)"><g clip-path="url(#clip-path-2)"><path d="M13.537 69.08v66.408c15.488-12.51 30.957-25.016 46.348-37.668 4.11-3.349 6.849-3.349 10.654.608 15.067 15.524 30.743 30.592 45.963 45.963 3.196 3.348 5.783 3.348 9.284.609 8.37-6.697 17.045-12.937 25.264-19.785 4.413-3.653 7.762-3.5 12.175-.153 14.476 10.858 29.094 21.439 43.846 32.007V.01H13.46v41.452h-40.365v27.62h40.442zm134.165-46.14a30.408 30.408 0 0 1 30.744 30.067q.005.414-.001.828a30.82 30.82 0 1 1-61.639-.152 30.5 30.5 0 0 1 30.253-30.745q.32-.003.643.002z" class="cls-6"/><ellipse cx="146.361" cy="55.015" class="cls-6" rx="42.429" ry="45.621"/><path fill="#43af5a" d="M174.06 177.703h41.644V141.34c-14.752-10.569-29.37-21.148-43.846-32.005-4.414-3.349-7.762-3.5-12.176.152-8.218 6.849-16.893 13.088-25.264 19.785-3.5 2.74-6.088 2.74-9.284-.609-15.22-15.371-30.895-30.439-45.963-45.962-3.804-3.958-6.544-3.958-10.653-.61-15.393 12.653-30.86 25.158-46.348 37.669v74.894l124.32-16.95v37.967h27.57z"/><path d="M130.813 85.678a27.342 27.342 0 1 0-27.612-27.342 27.342 27.342 0 0 0 27.612 27.342z" class="cls-8"/></g><path d="M318.926 25.258a27.342 27.342 0 0 0 27.07-27.611 27.342 27.342 0 0 0-27.611-27.07 27.342 27.342 0 0 0-27.071 27.34 27.563 27.563 0 0 0 27.612 27.341z" class="cls-8"/></g><path d="M70.14 183.44a.905.905 0 0 1-.737-.38L15.53 106.767a.904.904 0 0 1-.084-.899l39.019-84.88a.9.9 0 0 1 .736-.522l92.888-8.592a.86.86 0 0 1 .82.378l53.873 76.29a.904.904 0 0 1 .083.899l-39.017 84.884a.905.905 0 0 1-.737.521l-92.89 8.59c-.027.003-.055.003-.083.003zm-52.836-77.29l53.27 75.44 91.852-8.495 38.58-83.936-53.27-75.44-91.85 8.495zm145.724 67.797z" class="cls-3"/><path d="M69.816 183.246l-14.91-77.624-.073-84.86 72.64 21.38 75.323 46.86-55.942 49.726zM55.738 21.968l.063 83.569 14.662 76.293L146.328 138l54.967-48.873-74.247-46.186z" class="cls-3"/><circle cx="128.665" cy="42.995" r="2.705" class="cls-3"/><path d="M128.666 48.577a5.582 5.582 0 1 1 5.576-5.587v.005a5.586 5.586 0 0 1-5.576 5.582zm0-5.743l-.168.16a.166.166 0 0 0 .168.163z" class="cls-3"/><circle cx="146.724" cy="138.229" r="2.705" class="cls-3"/><path d="M146.724 143.812a5.582 5.582 0 1 1 5.577-5.588v.006a5.585 5.585 0 0 1-5.577 5.582zm0-5.744l-.166.161a.164.164 0 0 0 .166.162z" class="cls-3"/><circle cx="70.801" cy="182.538" r="2.705" class="cls-3"/><path d="M70.8 188.12a5.582 5.582 0 1 1 5.578-5.587v.005a5.585 5.585 0 0 1-5.577 5.582zm0-5.743l-.166.161a.164.164 0 0 0 .167.161z" class="cls-3"/><circle cx="55.285" cy="106.44" r="2.705" class="cls-3"/><path d="M55.286 112.02a5.581 5.581 0 1 1 5.576-5.585v.006a5.586 5.586 0 0 1-5.576 5.58zm0-5.743l-.168.164a.166.166 0 0 0 .168.161z" class="cls-3"/><circle cx="202.046" cy="89.2" r="2.705" class="cls-3"/><path d="M202.046 94.78a5.581 5.581 0 1 1 5.577-5.585v.005a5.586 5.586 0 0 1-5.577 5.58zm0-5.743l-.167.163a.164.164 0 0 0 .167.162z" class="cls-3"/><circle cx="55.285" cy="21.365" r="2.705" class="cls-3"/><path d="M55.286 26.947a5.582 5.582 0 1 1 5.576-5.587v.005a5.586 5.586 0 0 1-5.576 5.582zm0-5.744l-.168.162a.166.166 0 0 0 .167.162zM163.029 174.85a.889.889 0 0 1-.301-.05l-70.825-25.003-76.078-42.764a.9.9 0 0 1-.167-1.451l57.239-52.45 74.842-41.15a.897.897 0 0 1 .805-.032.907.907 0 0 1 .51.623l16.768 73.716-1.891 87.679a.905.905 0 0 1-.39.723.896.896 0 0 1-.512.159zM17.795 106.07l74.851 42.09 69.507 24.523 1.887-86.214-16.481-72.33-73.619 40.45z" class="cls-3"/><path d="M147.019 138.57l-.37-.127-91.807-31.916.296-.257 73.676-63.702zm-91.29-32.215l90.7 31.534-17.912-94.467z" class="cls-3"/><path d="M91.617 150.638L72.315 52.413l94.393 33.75zm-16.92-95.457l18.094 92.072 70.385-60.436z" class="cls-3"/><path d="M54.499 21.807l1.574-.884 18.221 32.432-1.574.884zm17.062 161.217l-1.521-.972 21.404-33.593 1.522.974-21.405 33.591zm93.315-95.634l.131-1.8 37.104 2.71-.131 1.8z" class="cls-3"/></svg>