<svg xmlns="http://www.w3.org/2000/svg" role="img" viewBox="3.75 -7.25 741.00 230.50"><path fill="none" d="M704.772 33.142a8.48 8.48 0 0 0 2.715-6.656 9.03 9.03 0 0 0-2.507-6.826q-2.508-2.412-7.486-2.489h-10.068v18.403h9.804q4.826 0 7.542-2.432zm-12.083 128.324a11.505 11.505 0 0 0 3.962 9.293 15.225 15.225 0 0 0 10.182 3.349 22.22 22.22 0 0 0 11.275-3.076 18.612 18.612 0 0 0 7.721-7.994v-15.17h-9.908q-23.234 0-23.232 13.598zM487.08 119.169q-9.295 0-14.487 7.175-5.194 7.175-5.193 21.25 0 12.575 5.193 19.68a16.784 16.784 0 0 0 14.35 7.107q12.024 0 17.56-10.797v-33.96q-5.672-10.454-17.424-10.455zm14.134-85.235q2.678-2.395 2.678-6.92a9.5 9.5 0 0 0-2.715-7.109 10.472 10.472 0 0 0-7.467-2.734h-11.727v19.157h11.463q5.09 0 7.768-2.394zm137.415 9.974h15.914l-7.957-22.777-7.957 22.777zm227.279 74.919a16.864 16.864 0 0 0-12.846 5.57q-5.193 5.569-6.423 15.613h37.035v-.956q-.548-9.636-5.193-14.93-4.647-5.295-12.573-5.297zM350.865 17.171h-6.675v39.52h6.222q7.504 0 11.52-4.686 4.017-4.686 4.092-13.455v-3.048q0-8.92-3.884-13.625-3.885-4.706-11.275-4.706zM315.02 161.466a11.505 11.505 0 0 0 3.964 9.293 15.224 15.224 0 0 0 10.181 3.349 22.22 22.22 0 0 0 11.275-3.076 18.605 18.605 0 0 0 7.721-7.994v-15.17h-9.907q-23.234 0-23.233 13.598zm473.127-42.297q-11.48 0-17.22 10.182v35.327q5.671 10.113 17.356 10.113a17.087 17.087 0 0 0 14.452-7.209q5.365-7.208 5.365-21.422 0-12.505-5.33-19.748a17.17 17.17 0 0 0-14.623-7.243z"/><path fill="#43af5a" d="M144.377 161.252h27.362V137.36c-9.693-6.944-19.298-13.895-28.809-21.029-2.9-2.2-5.1-2.3-8 .1-5.4 4.5-11.1 8.6-16.6 13-2.3 1.8-4 1.8-6.1-.4-10-10.1-20.3-20-30.2-30.2-2.5-2.6-4.3-2.6-7-.4-10.114 8.313-20.277 16.53-30.453 24.75v38.072h81.685V186.2h18.115v-24.948z"/><path fill="#fc0" d="M132.83 89.63a20.2 20.2 0 1 0-20.4-20.2 20.363 20.363 0 0 0 20.4 20.2z"/><path fill="#d2e4f4" d="M44.577 79.547v43.633c10.176-8.22 20.34-16.437 30.453-24.75 2.7-2.2 4.5-2.2 7 .4 9.9 10.2 20.2 20.1 30.2 30.2 2.1 2.2 3.8 2.2 6.1.4 5.5-4.4 11.2-8.5 16.6-13 2.9-2.4 5.1-2.3 8-.1 9.511 7.134 19.116 14.086 28.809 21.03V34.164H44.526V61.4H18.004v18.148h26.573zM132.73 49.23a19.98 19.98 0 0 1 20.201 19.756q.003.272-.001.544a20.25 20.25 0 0 1-40.5-.1 20.04 20.04 0 0 1 19.878-20.201q.21-.002.422.001z"/><path fill="#009ade" d="M126.262 161.252H44.577V79.547H18.004v106.652h108.258z"/><path fill="#003764" d="M18.004 14.621v46.778h26.522V34.165h127.213v127.087h-27.362v24.947h54.293V7.061H18.004z"/><path fill="#666" d="M234.282 112.04h-10.047v75.795h45.966v-8.172h-35.92V112.04zm88.704 36.701q-.208-8.537-5.726-13.405-5.518-4.867-15.252-4.867a27.323 27.323 0 0 0-11.271 2.29 20.437 20.437 0 0 0-8.121 6.22 13.289 13.289 0 0 0-2.993 8.148h9.682a7.671 7.671 0 0 1 3.489-6.3 14.043 14.043 0 0 1 8.64-2.602q5.883 0 8.902 2.994a10.82 10.82 0 0 1 3.02 8.042v4.425h-9.371q-12.13 0-18.818 4.867-6.69 4.868-6.689 13.665a15.24 15.24 0 0 0 5.335 11.947q5.336 4.711 13.665 4.71a21.484 21.484 0 0 0 16.033-6.975 20.198 20.198 0 0 0 1.354 5.935h10.099V187q-1.978-4.579-1.978-12.337zm-9.63 23.32a14.174 14.174 0 0 1-5.882 6.09 16.928 16.928 0 0 1-8.59 2.344 11.598 11.598 0 0 1-7.756-2.552 8.765 8.765 0 0 1-3.02-7.079q0-10.358 17.7-10.359h7.547zm51.015-41.592a20.523 20.523 0 0 0-16.867 8.12l-.312-7.079h-9.109v56.325h9.63V147.7a16.966 16.966 0 0 1 5.518-6.559 13.9 13.9 0 0 1 8.225-2.499q5.778 0 8.512 2.916 2.733 2.916 2.785 9.005v37.272h9.63v-37.22q-.156-20.146-18.011-20.146zm68.09 6.767q-5.78-6.767-15.67-6.767a19.423 19.423 0 0 0-16.085 7.886q-6.143 7.886-6.143 20.849v.728q0 12.912 6.17 20.927a19.235 19.235 0 0 0 15.954 8.016q10.308 0 16.086-7.08l.468 6.04h8.85v-79.959h-9.63zm0 35.242q-4.217 8.227-13.378 8.225a12.786 12.786 0 0 1-10.933-5.413q-3.956-5.414-3.956-14.993 0-10.723 3.956-16.19a12.847 12.847 0 0 1 11.036-5.466 14.158 14.158 0 0 1 13.274 7.965zm58.199-13.326a51.98 51.98 0 0 0-11.687-3.853q-7.211-1.612-9.969-3.383a5.84 5.84 0 0 1-2.758-5.258 7.21 7.21 0 0 1 2.966-5.986q2.967-2.29 8.226-2.291a12.584 12.584 0 0 1 8.459 2.864 8.694 8.694 0 0 1 3.357 6.819h9.683a15.709 15.709 0 0 0-5.96-12.65q-5.963-4.945-15.54-4.945-9.11 0-14.965 4.79a14.611 14.611 0 0 0-5.857 11.712 12.448 12.448 0 0 0 2.057 7.184 16.511 16.511 0 0 0 6.35 5.205 48.502 48.502 0 0 0 11.609 3.748q7.313 1.562 10.255 3.722a7.093 7.093 0 0 1 2.94 6.065 6.798 6.798 0 0 1-3.304 5.908 15.525 15.525 0 0 1-8.772 2.213q-5.935 0-9.553-2.837a9.967 9.967 0 0 1-3.877-7.679h-9.632a16.119 16.119 0 0 0 2.941 9.292 19.461 19.461 0 0 0 8.147 6.689 28.37 28.37 0 0 0 11.973 2.395q9.63 0 15.67-4.555a14.414 14.414 0 0 0 6.038-12.103 13.253 13.253 0 0 0-2.16-7.678 17.05 17.05 0 0 0-6.638-5.388zm32.508-15.487q4.033-5.283 11.375-5.284a12.875 12.875 0 0 1 9.188 3.514 13.276 13.276 0 0 1 4.138 8.98h9.11a20.284 20.284 0 0 0-6.69-14.732q-6.273-5.674-15.746-5.674a24.62 24.62 0 0 0-13.352 3.54 22.992 22.992 0 0 0-8.668 9.942 33.907 33.907 0 0 0-3.02 14.628v1.614q0 13.326 6.794 21.005 6.793 7.679 18.298 7.677a23.666 23.666 0 0 0 10.854-2.602 21.95 21.95 0 0 0 8.198-6.975 17.472 17.472 0 0 0 3.332-9.214h-9.11a10.991 10.991 0 0 1-4.268 7.808 13.873 13.873 0 0 1-9.006 3.124q-7.445 0-11.453-5.258-4.01-5.257-4.008-14.992v-1.823q0-9.994 4.034-15.278zm87.534 5.076q-.209-8.537-5.727-13.405-5.518-4.867-15.252-4.867a27.323 27.323 0 0 0-11.27 2.29 20.43 20.43 0 0 0-8.121 6.22 13.29 13.29 0 0 0-2.994 8.148h9.683a7.671 7.671 0 0 1 3.488-6.3 14.044 14.044 0 0 1 8.641-2.602q5.883 0 8.902 2.994a10.819 10.819 0 0 1 3.02 8.041v4.426h-9.37q-12.13 0-18.82 4.867-6.688 4.868-6.688 13.665a15.24 15.24 0 0 0 5.335 11.947q5.335 4.711 13.664 4.71a21.486 21.486 0 0 0 16.035-6.975 20.133 20.133 0 0 0 1.353 5.935h10.1V187q-1.98-4.58-1.98-12.337zm-9.63 23.32a14.179 14.179 0 0 1-5.883 6.09 16.928 16.928 0 0 1-8.59 2.344 11.599 11.599 0 0 1-7.756-2.552 8.765 8.765 0 0 1-3.018-7.079q0-10.358 17.698-10.359h7.549zm50.338-41.592q-10.463 0-16.346 7.288l-.468-6.247h-8.798v77.98h9.631v-27.12q5.881 6.507 16.137 6.505a18.856 18.856 0 0 0 15.93-7.86q5.88-7.86 5.882-20.718v-.884q0-13.639-5.909-21.293-5.909-7.651-16.06-7.651zm8.25 45.055a13.017 13.017 0 0 1-11.01 5.492 14.184 14.184 0 0 1-13.221-7.705v-26.913a14.158 14.158 0 0 1 13.118-7.757 13.08 13.08 0 0 1 11.14 5.518q4.06 5.518 4.06 15.044 0 10.829-4.087 16.32zm48.127-45.055a22.51 22.51 0 0 0-12.467 3.722 24.965 24.965 0 0 0-8.954 10.307 33.802 33.802 0 0 0-3.202 14.966v1.77q0 12.598 7.184 20.12 7.184 7.523 18.636 7.521 14.16 0 21.239-10.879l-5.882-4.58a21.7 21.7 0 0 1-6.195 5.517 16.775 16.775 0 0 1-8.641 2.083 15.299 15.299 0 0 1-11.844-5.128q-4.658-5.127-4.866-13.456h38.157v-4.009q0-13.482-6.091-20.719-6.09-7.235-17.074-7.235zm13.534 24.05h-28.214q.937-7.653 4.894-11.895a12.847 12.847 0 0 1 9.786-4.243 12.096 12.096 0 0 1 9.578 4.034q3.54 4.036 3.956 11.374z"/><path fill="#333" d="M282.561 79.25a25.044 25.044 0 0 1-11.336 8.076 46.268 46.268 0 0 1-16.462 2.744 32.43 32.43 0 0 1-16.773-4.297 28.613 28.613 0 0 1-11.259-12.294 43.01 43.01 0 0 1-4.115-18.662v-5.902q0-17.082 8.179-26.685 8.179-9.602 22.829-9.603 12.579 0 19.982 6.238 7.402 6.24 8.903 17.937h-12.838q-2.173-13.614-15.788-13.614-8.801 0-13.382 6.324-4.581 6.324-4.737 18.558v5.782q0 12.184 5.151 18.92 5.15 6.738 14.314 6.738 10.042 0 14.287-4.532V60.304h-15.53v-9.939h28.575zm42.5-34.734a31.154 31.154 0 0 0-5.124-.415q-8.646 0-11.648 6.626v38.308H295.71V33.023h12.01l.31 6.264q4.555-7.3 12.632-7.3a11.787 11.787 0 0 1 4.452.726zm39.861 44.519a19.383 19.383 0 0 1-1.45-5.229 19.582 19.582 0 0 1-14.701 6.264q-8.439 0-13.77-4.814a15.402 15.402 0 0 1-5.332-11.907q0-8.955 6.652-13.744 6.651-4.787 19.024-4.788h7.713V51.14a9.812 9.812 0 0 0-2.433-6.962q-2.433-2.613-7.402-2.614a11.08 11.08 0 0 0-7.04 2.148 6.649 6.649 0 0 0-2.744 5.462h-12.58a13.96 13.96 0 0 1 3.055-8.62 20.353 20.353 0 0 1 8.308-6.29 29.182 29.182 0 0 1 11.726-2.277q9.834 0 15.685 4.943 5.848 4.945 6.004 13.9v25.262q0 7.56 2.123 12.061v.88zm-13.822-9.06a14.305 14.305 0 0 0 7.014-1.811 12.105 12.105 0 0 0 4.944-4.867v-10.56h-6.781q-6.989 0-10.509 2.433a7.88 7.88 0 0 0-3.52 6.885 7.348 7.348 0 0 0 2.407 5.772 9.321 9.321 0 0 0 6.445 2.148zm86.76-18.377q0 12.995-5.9 20.733a18.9 18.9 0 0 1-15.842 7.74q-9.214 0-14.753-6.058v26.557h-12.579V33.023h11.596l.517 5.694q5.539-6.728 15.064-6.73 10.25 0 16.074 7.637 5.823 7.636 5.823 21.198zm-12.527-1.087q0-8.386-3.339-13.304a10.856 10.856 0 0 0-9.55-4.917q-7.715 0-11.079 6.367v24.848q3.417 6.522 11.182 6.522a10.842 10.842 0 0 0 9.395-4.84q3.39-4.84 3.391-14.676zm35.564-21.379a19.688 19.688 0 0 1 15.58-7.144q17.912 0 18.172 20.448v36.599h-12.58V52.902q0-5.798-2.51-8.205-2.513-2.407-7.378-2.407a12.117 12.117 0 0 0-11.284 6.73v40.015h-12.58V9.522h12.58zm107.57 14.184a46.535 46.535 0 0 1-3.39 18.558 30.24 30.24 0 0 1-9.5 12.45l12.942 10.094-8.49 7.662-16.047-12.683a32.565 32.565 0 0 1-6.782.673 30.084 30.084 0 0 1-16.28-4.478 29.398 29.398 0 0 1-11.078-12.76 44.784 44.784 0 0 1-3.96-19.102v-4.245a45.837 45.837 0 0 1 3.908-19.464 29.377 29.377 0 0 1 11.026-12.916 29.93 29.93 0 0 1 16.28-4.478 30.476 30.476 0 0 1 16.436 4.427 29.002 29.002 0 0 1 11.001 12.734 45.762 45.762 0 0 1 3.934 19.334zm-13.148-3.934q0-12.735-4.763-19.31-4.763-6.573-13.46-6.574a15.4 15.4 0 0 0-13.226 6.652q-4.788 6.652-4.892 18.765v4.4q0 12.219 4.79 19.103a15.428 15.428 0 0 0 13.432 6.885q8.748 0 13.433-6.627 4.685-6.625 4.686-19.36zm39.549 29.092h34.218v10.56h-47.314v-75.37h13.096z"/></svg>