<?xml version="1.0" encoding="utf-8"?>
<!-- Generator: Adobe Illustrator 20.1.0, SVG Export Plug-In . SVG Version: 6.00 Build 0)  -->
<svg version="1.1" id="Layer_1" xmlns="http://www.w3.org/2000/svg" xmlns:xlink="http://www.w3.org/1999/xlink" x="0px" y="0px"
	 viewBox="0 0 285.4 105.8" style="enable-background:new 0 0 285.4 105.8;" xml:space="preserve">
<style type="text/css">
	.st0{fill:#2F3134;}
</style>
<g>
	<g>
		<path class="st0" d="M52.6,71.1c-0.1,0-0.1,0-0.2-0.1L41.1,55c0-0.1,0-0.1,0-0.2L49.3,37c0-0.1,0.1-0.1,0.2-0.1L69,35
			c0.1,0,0.1,0,0.2,0.1l11.3,16c0,0.1,0,0.1,0,0.2l-8.2,17.8c0,0.1-0.1,0.1-0.2,0.1L52.6,71.1C52.6,71.1,52.6,71.1,52.6,71.1z
			 M41.5,54.9l11.2,15.8L72,68.9l8.1-17.6L68.9,35.4l-19.3,1.8L41.5,54.9z M72.1,69.1L72.1,69.1L72.1,69.1z"/>
		<path class="st0" d="M52.5,71.1l-3.1-16.3l0-17.8l15.3,4.5l15.8,9.8L68.7,61.7L52.5,71.1z M49.5,37.2l0,17.6l3.1,16l15.9-9.2
			l11.5-10.3l-15.6-9.7L49.5,37.2z"/>
		<g>
			<circle class="st0" cx="64.9" cy="41.6" r="0.6"/>
			<path class="st0" d="M64.9,42.8c-0.6,0-1.2-0.5-1.2-1.2c0-0.6,0.5-1.2,1.2-1.2c0.6,0,1.2,0.5,1.2,1.2
				C66,42.2,65.5,42.8,64.9,42.8z M64.9,41.6L64.9,41.6C64.8,41.6,64.9,41.6,64.9,41.6L64.9,41.6z"/>
		</g>
		<g>
			<circle class="st0" cx="68.7" cy="61.6" r="0.6"/>
			<path class="st0" d="M68.7,62.8c-0.6,0-1.2-0.5-1.2-1.2s0.5-1.2,1.2-1.2c0.6,0,1.2,0.5,1.2,1.2S69.3,62.8,68.7,62.8z M68.7,61.6
				L68.7,61.6C68.6,61.6,68.6,61.6,68.7,61.6L68.7,61.6z"/>
		</g>
		<g>
			<circle class="st0" cx="52.7" cy="70.9" r="0.6"/>
			<path class="st0" d="M52.7,72.1c-0.6,0-1.2-0.5-1.2-1.2c0-0.6,0.5-1.2,1.2-1.2s1.2,0.5,1.2,1.2C53.9,71.6,53.4,72.1,52.7,72.1z
				 M52.7,70.9L52.7,70.9C52.7,70.9,52.7,70.9,52.7,70.9L52.7,70.9z"/>
		</g>
		<g>
			<circle class="st0" cx="49.5" cy="54.9" r="0.6"/>
			<path class="st0" d="M49.5,56.1c-0.6,0-1.2-0.5-1.2-1.2c0-0.6,0.5-1.2,1.2-1.2s1.2,0.5,1.2,1.2C50.6,55.6,50.1,56.1,49.5,56.1z
				 M49.5,54.9L49.5,54.9C49.4,54.9,49.4,55,49.5,54.9L49.5,54.9z"/>
		</g>
		<g>
			<circle class="st0" cx="80.3" cy="51.3" r="0.6"/>
			<path class="st0" d="M80.3,52.5c-0.6,0-1.2-0.5-1.2-1.2c0-0.6,0.5-1.2,1.2-1.2c0.6,0,1.2,0.5,1.2,1.2
				C81.5,51.9,80.9,52.5,80.3,52.5z M80.3,51.3L80.3,51.3C80.3,51.3,80.3,51.3,80.3,51.3L80.3,51.3z"/>
		</g>
		<g>
			<circle class="st0" cx="49.5" cy="37" r="0.6"/>
			<path class="st0" d="M49.5,38.2c-0.6,0-1.2-0.5-1.2-1.2c0-0.6,0.5-1.2,1.2-1.2s1.2,0.5,1.2,1.2C50.6,37.7,50.1,38.2,49.5,38.2z
				 M49.5,37L49.5,37C49.4,37.1,49.4,37.1,49.5,37L49.5,37z"/>
		</g>
		<path class="st0" d="M72.1,69.3C72.1,69.3,72,69.3,72.1,69.3L57.1,64l-16-9c-0.1,0-0.1-0.1-0.1-0.1c0-0.1,0-0.1,0.1-0.2l12-11
			l15.7-8.6c0.1,0,0.1,0,0.2,0c0.1,0,0.1,0.1,0.1,0.1l3.5,15.5l-0.4,18.4c0,0.1,0,0.1-0.1,0.2C72.2,69.3,72.1,69.3,72.1,69.3z
			 M41.6,54.8l15.7,8.8l14.6,5.2l0.4-18.1l-3.5-15.2L53.4,44L41.6,54.8z"/>
		<path class="st0" d="M68.7,61.7L68.7,61.7l-19.4-6.7l0.1-0.1l15.5-13.4L68.7,61.7z M49.5,54.9l19.1,6.6l-3.8-19.8L49.5,54.9z"/>
		<path class="st0" d="M57.1,64.2L53,43.6l19.8,7.1L57.1,64.2z M53.5,44.1l3.8,19.3l14.8-12.7L53.5,44.1z"/>
		
			<rect x="51.2" y="36.5" transform="matrix(0.8718 -0.4898 0.4898 0.8718 -13.2284 30.3442)" class="st0" width="0.4" height="7.8"/>
		<polygon class="st0" points="52.9,71 52.6,70.8 57.1,63.7 57.4,63.9 		"/>
		
			<rect x="76.2" y="47.1" transform="matrix(7.285900e-02 -0.9973 0.9973 7.285900e-02 19.9501 123.479)" class="st0" width="0.4" height="7.8"/>
	</g>
	<g>
		<g>
			<path class="st0" d="M89.2,46.4l3.1,0l0,5.3l6.1,0l0-5.3l3.1,0l0,14.2l-3.1,0l0-6.1l-6.1,0l0,6.1l-3.1,0L89.2,46.4z"/>
			<path class="st0" d="M107.8,54.6l-5.4-8.2l3.9,0l3,5.3l3.2-5.3l3.7,0l-5.3,8.2l0,6.1l-3.1,0L107.8,54.6z"/>
			<path class="st0" d="M117.1,46.4l5.3,0c0.7,0,1.4,0.1,2.1,0.2c0.7,0.1,1.2,0.4,1.7,0.7c0.5,0.3,0.9,0.8,1.2,1.3
				c0.3,0.6,0.4,1.3,0.4,2.1c0,0.8-0.1,1.5-0.4,2.1c-0.3,0.6-0.6,1-1.1,1.3c-0.5,0.3-1,0.6-1.7,0.7c-0.6,0.1-1.3,0.2-2.1,0.2l-2.3,0
				l0,5.5l-3.1,0L117.1,46.4z M120.2,52.4l2.1,0c0.3,0,0.6,0,0.8-0.1c0.3-0.1,0.5-0.1,0.7-0.3c0.2-0.1,0.4-0.3,0.5-0.5
				c0.1-0.2,0.2-0.5,0.2-0.8c0-0.4-0.1-0.7-0.3-0.9c-0.2-0.2-0.4-0.4-0.6-0.5c-0.3-0.1-0.6-0.2-0.9-0.2c-0.3,0-0.6,0-0.9,0l-1.6,0
				L120.2,52.4z"/>
			<path class="st0" d="M129.7,46.4l9.7,0l0,2.9l-6.5,0l0,2.7l6.2,0l0,2.9l-6.2,0l0,2.9l6.9,0l0,2.9l-10,0L129.7,46.4z"/>
			<path class="st0" d="M142,46.4l5.5,0c0.7,0,1.4,0.1,2.1,0.2c0.7,0.1,1.2,0.4,1.7,0.7c0.5,0.3,0.9,0.8,1.2,1.3
				c0.3,0.6,0.4,1.2,0.4,2.1c0,1-0.3,1.9-0.8,2.6c-0.5,0.7-1.3,1.2-2.3,1.3l3.6,6l-3.8,0l-3-5.7l-1.5,0l0,5.7l-3.1,0L142,46.4z
				 M145.2,52.3l1.9,0c0.3,0,0.6,0,0.9,0c0.3,0,0.6-0.1,0.9-0.2c0.3-0.1,0.5-0.3,0.6-0.5c0.2-0.2,0.2-0.5,0.2-0.9
				c0-0.4-0.1-0.7-0.2-0.9c-0.1-0.2-0.3-0.4-0.6-0.5c-0.2-0.1-0.5-0.2-0.8-0.2c-0.3,0-0.6-0.1-0.9-0.1l-2.1,0L145.2,52.3z"/>
			<path class="st0" d="M155,46.4l3.1,0l0,11.3l5.8,0l0,2.9l-9,0L155,46.4z"/>
			<path class="st0" d="M165.6,46.4l9.7,0l0,2.9l-6.5,0l0,2.7l6.2,0l0,2.9l-6.2,0l0,2.9l6.9,0l0,2.9l-10,0L165.6,46.4z"/>
			<path class="st0" d="M177.9,46.4l4.7,0c1.1,0,2.2,0.1,3.2,0.4c1,0.3,1.9,0.7,2.7,1.2c0.8,0.6,1.4,1.3,1.8,2.2
				c0.5,0.9,0.7,2,0.7,3.3c0,1.2-0.2,2.2-0.7,3c-0.4,0.9-1,1.6-1.8,2.2c-0.7,0.6-1.6,1-2.6,1.4c-1,0.3-2,0.5-3,0.5l-5.1,0
				L177.9,46.4z M181.1,57.8l1.6,0c0.7,0,1.4-0.1,2-0.2c0.6-0.1,1.2-0.4,1.6-0.7c0.5-0.3,0.8-0.8,1.1-1.3c0.3-0.6,0.4-1.2,0.4-2
				c0-0.7-0.1-1.3-0.4-1.8c-0.3-0.5-0.6-0.9-1.1-1.3c-0.4-0.3-1-0.6-1.6-0.8c-0.6-0.2-1.2-0.3-1.9-0.2l-1.9,0L181.1,57.8z"/>
			<path class="st0" d="M205.9,59.5c-0.9,0.5-1.9,0.8-2.9,1c-1,0.2-2,0.3-3.1,0.3c-1.1,0-2.1-0.2-3.1-0.5c-0.9-0.3-1.8-0.8-2.4-1.5
				c-0.7-0.6-1.2-1.4-1.6-2.4c-0.4-0.9-0.6-2-0.6-3.1c0-1.1,0.2-2.2,0.6-3.1c0.4-0.9,0.9-1.7,1.6-2.4c0.7-0.7,1.5-1.2,2.4-1.5
				c0.9-0.3,2-0.5,3.1-0.5c1.1,0,2.2,0.1,3.1,0.4c1,0.3,1.8,0.7,2.5,1.4l-2.2,2.4c-0.4-0.4-0.9-0.8-1.4-1c-0.5-0.2-1.2-0.3-2-0.3
				c-0.7,0-1.3,0.1-1.8,0.3c-0.5,0.2-1,0.5-1.4,1c-0.4,0.4-0.7,0.9-0.9,1.5c-0.2,0.6-0.3,1.2-0.3,1.8c0,0.7,0.1,1.3,0.3,1.8
				c0.2,0.6,0.5,1,0.9,1.4c0.4,0.4,0.9,0.7,1.4,1c0.5,0.2,1.2,0.3,1.8,0.3c0.7,0,1.3-0.1,1.8-0.2c0.5-0.2,0.9-0.3,1.2-0.5l0-2.3
				l-2.6,0l0-2.9l5.6,0L205.9,59.5z"/>
			<path class="st0" d="M208.6,46.4l9.7,0l0,2.9l-6.5,0l0,2.7l6.2,0l0,2.9l-6.2,0l0,2.9l6.9,0l0,2.9l-10,0L208.6,46.4z"/>
			<path class="st0" d="M220.9,46.4l5.5,0c0.7,0,1.4,0.1,2.1,0.2c0.7,0.1,1.2,0.4,1.7,0.7c0.5,0.3,0.9,0.8,1.2,1.3
				c0.3,0.6,0.4,1.2,0.4,2.1c0,1-0.3,1.9-0.8,2.6c-0.5,0.7-1.3,1.1-2.3,1.3l3.6,6l-3.8,0l-3-5.7l-1.5,0l0,5.7l-3.1,0L220.9,46.4z
				 M224.1,52.3l1.9,0c0.3,0,0.6,0,0.9,0c0.3,0,0.6-0.1,0.9-0.2c0.3-0.1,0.5-0.3,0.6-0.5c0.2-0.2,0.3-0.5,0.3-0.9
				c0-0.4-0.1-0.7-0.2-0.9c-0.1-0.2-0.3-0.4-0.6-0.5c-0.2-0.1-0.5-0.2-0.8-0.2c-0.3,0-0.6-0.1-0.9-0.1l-2.1,0L224.1,52.3z"/>
		</g>
	</g>
</g>
</svg>
